<?xml version="1.0" encoding="UTF-8"?>
<svg xmlns="http://www.w3.org/2000/svg" width="109" height="109" viewBox="0 0 109 109">
<g id="kvg:StrokePaths_04ead" style="fill:none;stroke:#000000;stroke-width:3;stroke-linecap:round;stroke-linejoin:round;">
<g id="kvg:04ead">
	<g id="kvg:04ead-g1">
		<path id="kvg:s-s1" stroke="#E53935" d="M52.79,9.61c1.13,1.13,1.34,2.32,1.34,3.27c0,3.49,0.09,4.25,0.09,7.31"/>
		<path id="kvg:s-s2" stroke="#FB8C00" d="M22,23.83c2.62,0.67,5.28,0.72,8.13,0.4c11.13-1.23,35.9-3.83,48.5-4.39c2.66-0.12,5.09-0.2,7.62,0.75"/>
	</g>
	<g id="kvg:04ead-g2">
		<g id="kvg:04ead-g3">
			<path id="kvg:s-s3" stroke="#FDD835" d="M35.64,33.39c0.82,0.51,1.52,1.25,1.59,2.24c0.82,2.52,1.95,6.15,2.67,9.4c0.21,0.95,0.41,1.87,0.61,2.72"/>
			<path id="kvg:s-s4" stroke="#43A047" d="M37.56,34.13c6.53-0.88,21.98-3.2,29.69-4.19c3.62-0.46,5.6-0.24,4.46,3.99c-0.58,2.14-1.3,4.11-2.54,8.02"/>
			<path id="kvg:s-s5" stroke="#1E88E5" d="M40.97,45.69c5.75-0.77,18.06-2.32,25.78-3.18c1.71-0.19,3.22-0.35,4.42-0.45"/>
		</g>
	</g>
	<g id="kvg:04ead-g4">
		<path id="kvg:s-s6" stroke="#8E24AA" d="M22.29,55.69c-0.11,3.81-2.82,13.79-3.79,16.06"/>
		<path id="kvg:s-s7" stroke="#EC407A" d="M23.22,57.75C34,57,67.48,51.96,85.19,51.5c9.56-0.25,4.06,5.75-0.69,9.5"/>
	</g>
	<g id="kvg:04ead-g5">
		<g id="kvg:04ead-g6">
			<path id="kvg:s-s8" stroke="#00ACC1" d="M29.27,70.84c2.15,0.84,5.32,0.46,7.53,0.21c9.47-1.07,24.6-3.02,35.21-3.79c2.58-0.19,5.18-0.24,7.73,0.36"/>
		</g>
		<g id="kvg:04ead-g7">
			<path id="kvg:s-s9" stroke="#795548" d="M55.01,70.79c0.85,0.85,1.08,1.96,1.08,3.44c0,9.74-0.09,17.33-0.09,20.64c0,9.3-5.88,1.12-7.36-0.75"/>
		</g>
	</g>
</g>
</g>
<g id="kvg:StrokeNumbers_04ead" style="font-size:18;font-weight:bold;stroke:#fff;stroke-width:1.5;paint-order:stroke">
	<text transform="matrix(1 0 0 1 43.50 9.13)" fill="#E53935">1</text>
	<text transform="matrix(1 0 0 1 23.50 21.50)" fill="#FB8C00">2</text>
	<text transform="matrix(1 0 0 1 29.50 40.55)" fill="#FDD835">3</text>
	<text transform="matrix(1 0 0 1 38.50 31.63)" fill="#43A047">4</text>
	<text transform="matrix(1 0 0 1 44.25 42.05)" fill="#1E88E5">5</text>
	<text transform="matrix(1 0 0 1 15.50 59.50)" fill="#8E24AA">6</text>
	<text transform="matrix(1 0 0 1 26.50 54.50)" fill="#EC407A">7</text>
	<text transform="matrix(1 0 0 1 28.50 68.50)" fill="#00ACC1">8</text>
	<text transform="matrix(1 0 0 1 48.50 79.63)" fill="#795548">9</text>
</g>
</svg>
