<?xml version="1.0" encoding="UTF-8"?>
<svg xmlns="http://www.w3.org/2000/svg" width="109" height="109" viewBox="0 0 109 109">
<g id="kvg:StrokePaths_04ef2" style="fill:none;stroke:#000000;stroke-width:3;stroke-linecap:round;stroke-linejoin:round;">
<g id="kvg:04ef2">
	<g id="kvg:04ef2-g1">
		<path id="kvg:s-s1" stroke="#E53935" d="M35.25,18.38c0.25,1.43,0.18,3.05-0.63,4.86C29.44,34.77,23.88,46.25,11,59.62"/>
		<path id="kvg:s-s2" stroke="#FB8C00" d="M27.28,42.75c0.86,0.86,1.25,2.24,1.25,3.26c0,10.24-0.02,29.97-0.03,40.74c0,2.16,0,3.96,0,5.25"/>
	</g>
	<g id="kvg:04ef2-g2">
		<g id="kvg:04ef2-g3">
			<path id="kvg:s-s3" stroke="#FDD835" d="M43.06,40.63c0.78,0.78,1.31,1.72,1.57,3.04c1.04,5.2,1.68,9.97,2.76,16.83c0.21,1.33,0.44,2.74,0.69,4.25"/>
			<path id="kvg:s-s4" stroke="#43A047" d="M45.2,42.03c14.67-2.66,37.93-5.42,46.63-5.8c3.39-0.15,4.07,2.43,3.65,3.92c-1.44,5.1-1.83,7.54-4.17,16.02"/>
			<path id="kvg:s-s5" stroke="#1E88E5" d="M48.72,61.71c10.07-1.22,26.28-2.96,40.92-4.25c1.28-0.11,2.51-0.25,3.7-0.37"/>
		</g>
		<g id="kvg:04ef2-g4">
			<path id="kvg:s-s6" stroke="#8E24AA" d="M67.76,15c1.12,1.12,1.73,2.75,1.73,4.16c0,4.65-0.17,51.71-0.21,69.59c-0.01,2.64-0.01,5.14-0.01,6.25"/>
		</g>
	</g>
</g>
</g>
<g id="kvg:StrokeNumbers_04ef2" style="font-size:18;fill:#E53935;font-weight:bold;stroke:#fff;stroke-width:1.5;paint-order:stroke">
	<text transform="matrix(1 0 0 1 26.25 21.13)" fill="#E53935">1</text>
	<text transform="matrix(1 0 0 1 21.75 58.63)" fill="#FB8C00">2</text>
	<text transform="matrix(1 0 0 1 38.25 49.63)" fill="#FDD835">3</text>
	<text transform="matrix(1 0 0 1 47.25 37.63)" fill="#43A047">4</text>
	<text transform="matrix(1 0 0 1 51.75 58.63)" fill="#1E88E5">5</text>
	<text transform="matrix(1 0 0 1 60.49 20.76)" fill="#8E24AA">6</text>
</g>
</svg>
