<?xml version="1.0" encoding="UTF-8"?>
<svg xmlns="http://www.w3.org/2000/svg" width="109" height="109" viewBox="0 0 109 109">
<g id="kvg:StrokePaths_04f11" style="fill:none;stroke:#000000;stroke-width:3;stroke-linecap:round;stroke-linejoin:round;">
<g id="kvg:04f11">
	<g id="kvg:04f11-g1">
		<path id="kvg:s-s1" stroke="#E53935" d="M35,16.5c0.25,1.75,0.25,4.25-0.88,6.8C28.91,35.01,22.37,46.02,10.5,60.29"/>
		<path id="kvg:s-s2" stroke="#FB8C00" d="M26.28,42.5c0.72,1.25,1.26,3.48,1.26,4.75c0,12.75-0.07,29.88-0.26,42.25c-0.02,1.54-0.04,2.97-0.04,4.25"/>
	</g>
	<g id="kvg:04f11-g2">
		<path id="kvg:s-s3" stroke="#FDD835" d="M37.65,38.83c2.45,0.97,5.18,0.75,7.73,0.54c11.76-0.97,24.94-3.35,37.49-4.01c2.65-0.14,5.39-0.22,7.99,0.39"/>
		<path id="kvg:s-s4" stroke="#43A047" d="M61.43,14c0.82,0.75,1.87,2.12,1.87,3.7c0,8.8,0.05,53.72-0.12,72.05c-0.03,2.88-0.06,4.91-0.08,5.75"/>
		<path id="kvg:s-s5" stroke="#1E88E5" d="M62.43,38.32c0,2.18-1.1,4.31-1.9,6.04C54.57,57.4,44.96,71.84,35,78.75"/>
		<path id="kvg:s-s6" stroke="#8E24AA" d="M64.12,38.08c4.45,8.37,16.21,25.33,24.99,33.19c1.96,1.76,4.35,4.18,6.9,5"/>
	</g>
</g>
</g>
<g id="kvg:StrokeNumbers_04f11" style="font-size:18;fill:#E53935;font-weight:bold;stroke:#fff;stroke-width:1.5;paint-order:stroke">
	<text transform="matrix(1 0 0 1 25.50 15.50)" fill="#E53935">1</text>
	<text transform="matrix(1 0 0 1 20.50 58.50)" fill="#FB8C00">2</text>
	<text transform="matrix(1 0 0 1 38.50 36.50)" fill="#FDD835">3</text>
	<text transform="matrix(1 0 0 1 52.50 14.50)" fill="#43A047">4</text>
	<text transform="matrix(1 0 0 1 50.50 49.50)" fill="#1E88E5">5</text>
	<text transform="matrix(1 0 0 1 73.50 48.50)" fill="#8E24AA">6</text>
</g>
</svg>
