<?xml version="1.0" encoding="UTF-8"?>
<svg xmlns="http://www.w3.org/2000/svg" width="109" height="109" viewBox="0 0 109 109">
<g id="kvg:StrokePaths_04f4f" style="fill:none;stroke:#000000;stroke-width:3;stroke-linecap:round;stroke-linejoin:round;">
<g id="kvg:04f4f">
	<g id="kvg:04f4f-g1">
		<path id="kvg:s-s1" stroke="#E53935" d="M30.88,19.88c0.2,2.01-0.06,4.65-0.72,6.38c-4.2,11-8.54,20.32-18.16,33.71"/>
		<path id="kvg:s-s2" stroke="#FB8C00" d="M26.03,41c0.72,0.75,1.25,1.94,1.25,3.23c0,11.62-0.19,33.52-0.26,45.4c-0.02,2.58-0.02,4.7-0.02,6.12"/>
	</g>
	<g id="kvg:04f4f-g2">
		<g id="kvg:04f4f-g3">
			<path id="kvg:s-s3" stroke="#FDD835" d="M55.25,15.88c5.64,3.21,9.5,6.62,12.56,11.66"/>
		</g>
		<g id="kvg:04f4f-g4">
			<path id="kvg:s-s4" stroke="#43A047" d="M43,41.32c1.75,0.31,3.75,0.22,5.87,0.03c11-0.97,23.69-2.1,36.3-2.56c1.72-0.06,3.28,0.09,4.7,0.46"/>
			<path id="kvg:s-s5" stroke="#1E88E5" d="M64.25,42.59c1,1.07,1.5,2.41,1.5,3.96c0,5.98,0.5,35.17,0.25,41.15"/>
			<path id="kvg:s-s6" stroke="#8E24AA" d="M45.25,63.69c1.03,0.53,4.42,0.34,5.47,0.23c12.58-1.32,17.02-1.73,31.14-2.61c1.28-0.08,4.1-0.22,6.02,0.25"/>
			<path id="kvg:s-s7" stroke="#EC407A" d="M35.5,90.36c2.36,0.52,5.24,0.51,7.94,0.25c13.02-1.23,35.55-2.61,47.17-2.65c2.83-0.01,6.23,0.45,7.64,0.88"/>
		</g>
	</g>
</g>
</g>
<g id="kvg:StrokeNumbers_04f4f" style="font-size:18;fill:#E53935;font-weight:bold;stroke:#fff;stroke-width:1.5;paint-order:stroke">
	<text transform="matrix(1 0 0 1 22.50 19.63)" fill="#E53935">1</text>
	<text transform="matrix(1 0 0 1 20.25 60.13)" fill="#FB8C00">2</text>
	<text transform="matrix(1 0 0 1 47.50 17.50)" fill="#FDD835">3</text>
	<text transform="matrix(1 0 0 1 35.50 41.50)" fill="#43A047">4</text>
	<text transform="matrix(1 0 0 1 58.50 51.50)" fill="#1E88E5">5</text>
	<text transform="matrix(1 0 0 1 38.25 64.63)" fill="#8E24AA">6</text>
	<text transform="matrix(1 0 0 1 35.50 87.47)" fill="#EC407A">7</text>
</g>
</svg>
