<?xml version="1.0" encoding="UTF-8"?>
<svg xmlns="http://www.w3.org/2000/svg" width="109" height="109" viewBox="0 0 109 109">
<g id="kvg:StrokePaths_04f55" style="fill:none;stroke:#000000;stroke-width:3;stroke-linecap:round;stroke-linejoin:round;">
<g id="kvg:04f55">
	<g id="kvg:04f55-g1">
		<path id="kvg:s-s1" stroke="#E53935" d="M32.5,13.75c0.23,2.1-0.19,3.81-0.8,5.66c-3.95,11.84-9.67,23.37-20.45,37.34"/>
		<path id="kvg:s-s2" stroke="#FB8C00" d="M26.76,36.5c1.24,1.5,1.54,3.04,1.54,5.5c0,9.46-0.13,30.79-0.17,44.62c-0.01,2.6-0.01,4.94-0.01,6.88"/>
	</g>
	<g id="kvg:04f55-g2">
		<g id="kvg:04f55-g3">
			<g id="kvg:04f55-g4">
				<path id="kvg:s-s3" stroke="#FDD835" d="M38.88,26.64c1.74,0.5,4.68,0.67,6.41,0.5c13.21-1.27,33.84-4.77,46.26-5.86c2.88-0.25,4.63,0.24,6.08,0.49"/>
			</g>
		</g>
		<g id="kvg:04f55-g5">
			<path id="kvg:s-s4" stroke="#43A047" d="M40.87,44c0.75,0.75,1.26,1.62,1.36,2.21c0.67,4.06,1.44,10.16,2.25,16.3c0.27,2.04,0.26,2.01,0.47,3.75"/>
			<path id="kvg:s-s5" stroke="#1E88E5" d="M43.27,45.6c6.28-1.17,15.14-2.97,19.73-3.72c3.13-0.51,4.4,0.31,3.68,3.51c-0.86,3.86-2.49,10.33-3.28,14.14"/>
			<path id="kvg:s-s6" stroke="#8E24AA" d="M45.59,63.17c3.71-0.39,9.45-1.24,14.45-1.85c1.89-0.23,3.82-0.47,5.75-0.69"/>
		</g>
		<g id="kvg:04f55-g6">
			<g id="kvg:04f55-g7">
				<path id="kvg:s-s7" stroke="#EC407A" d="M83.25,24.75c1,1,1.74,2.18,1.81,4.99c0.33,13.52-0.21,56.44-0.21,61.04c0,10.71-6.35,2.71-9.18-0.77"/>
			</g>
		</g>
	</g>
</g>
</g>
<g id="kvg:StrokeNumbers_04f55" style="font-size:18;fill:#E53935;font-weight:bold;stroke:#fff;stroke-width:1.5;paint-order:stroke">
	<text transform="matrix(1 0 0 1 24.50 13.50)" fill="#E53935">1</text>
	<text transform="matrix(1 0 0 1 20.50 55.50)" fill="#FB8C00">2</text>
	<text transform="matrix(1 0 0 1 42.75 24.50)" fill="#FDD835">3</text>
	<text transform="matrix(1 0 0 1 35.50 52.63)" fill="#43A047">4</text>
	<text transform="matrix(1 0 0 1 44.25 42.13)" fill="#1E88E5">5</text>
	<text transform="matrix(1 0 0 1 48.75 59.50)" fill="#8E24AA">6</text>
	<text transform="matrix(1 0 0 1 76.50 34.63)" fill="#EC407A">7</text>
</g>
</svg>
