<?xml version="1.0" encoding="UTF-8"?>
<svg xmlns="http://www.w3.org/2000/svg" width="109" height="109" viewBox="0 0 109 109">
<g id="kvg:StrokePaths_04fae" style="fill:none;stroke:#000000;stroke-width:3;stroke-linecap:round;stroke-linejoin:round;">
<g id="kvg:04fae">
	<g id="kvg:04fae-g1">
		<path id="kvg:s-s1" stroke="#E53935" d="M32.49,17.39c0.14,1.08,0.24,2.44-0.12,3.77c-2.29,8.41-11.14,24.16-21.81,35.56"/>
		<path id="kvg:s-s2" stroke="#FB8C00" d="M25.03,42c0.59,0.61,0.76,1.97,0.76,3.23c0,10.08,0.08,28.85,0,40.77c-0.02,3.48-0.04,6.4-0.04,8.38"/>
	</g>
	<g id="kvg:04fae-g2">
		<g id="kvg:04fae-g3">
			<g id="kvg:04fae-g4">
				<path id="kvg:s-s3" stroke="#FDD835" d="M55.1,14.25c0.05,0.65,0.16,1.69-0.09,2.6c-1.55,5.6-8.51,16.02-17.36,24.43"/>
			</g>
			<path id="kvg:s-s4" stroke="#43A047" d="M53.88,27.02c0.94,0.18,3.7,0.29,4.62,0.18c4.47-0.52,18.49-2.45,26.44-3.62c2.43-0.36,4.03-0.45,6.45-0.17"/>
		</g>
		<g id="kvg:04fae-g5">
			<path id="kvg:s-s5" stroke="#1E88E5" d="M52.82,39.44c1.03,0.85,1.4,3.75,0.72,5.89c-3.37,10.67-6.4,19.7-11.35,30.04c-1.45,3.03-0.49,4.25,1.47,4.33c10.84,0.43,18.96,1.05,29.44,3.78c5.98,1.55,12.27,4.02,17.89,7.93"/>
			<path id="kvg:s-s6" stroke="#8E24AA" d="M54.69,42.07c6.68-0.95,22.21-3.14,26.69-3.43c3.45-0.22,4.43,1.81,4.14,4.54c-1.33,12.48-5.94,37.8-10.23,47.46c-2.3,5.17-4.97,4.12-7.54,1.33"/>
			<path id="kvg:s-s7" stroke="#EC407A" d="M68.32,43.35c0.45,0.88,0.63,2.39,0.13,4.22c-2.32,8.56-7.53,25.28-10.01,32.34"/>
			<path id="kvg:s-s8" stroke="#00ACC1" d="M32.07,61.64c3.43,0.61,5.94,0.44,8.42,0.17c12.25-1.31,31.7-3.07,49-3.92c2.76-0.14,5.75-0.41,8.43,0.38"/>
		</g>
	</g>
</g>
</g>
<g id="kvg:StrokeNumbers_04fae" style="font-size:18;font-weight:bold;stroke:#fff;stroke-width:1.5;paint-order:stroke">
	<text transform="matrix(1 0 0 1 23.25 18.50)" fill="#E53935">1</text>
	<text transform="matrix(1 0 0 1 18.75 58.50)" fill="#FB8C00">2</text>
	<text transform="matrix(1 0 0 1 45.75 14.50)" fill="#FDD835">3</text>
	<text transform="matrix(1 0 0 1 61.50 23.50)" fill="#43A047">4</text>
	<text transform="matrix(1 0 0 1 45.50 47.50)" fill="#1E88E5">5</text>
	<text transform="matrix(1 0 0 1 57.75 38.50)" fill="#8E24AA">6</text>
	<text transform="matrix(1 0 0 1 60.50 50.50)" fill="#EC407A">7</text>
	<text transform="matrix(1 0 0 1 31.50 58.50)" fill="#00ACC1">8</text>
</g>
</svg>
