<?xml version="1.0" encoding="UTF-8"?>
<svg xmlns="http://www.w3.org/2000/svg" width="109" height="109" viewBox="0 0 109 109">
<g id="kvg:StrokePaths_04fbf" style="fill:none;stroke:#000000;stroke-width:3;stroke-linecap:round;stroke-linejoin:round;">
<g id="kvg:04fbf">
	<g id="kvg:04fbf-g1">
		<path id="kvg:s-s1" stroke="#E53935" d="M31.26,14.5c0.23,1.98-0.06,3.56-0.81,5.25C25.7,30.54,20.39,41.66,9.5,54.79"/>
		<path id="kvg:s-s2" stroke="#FB8C00" d="M23.53,38c0.98,0.98,1.5,2.43,1.5,3.75c0,11.72-0.02,37.61-0.03,50.12c0,2.3,0,4.15,0,5.38"/>
	</g>
	<g id="kvg:04fbf-g2">
		<path id="kvg:s-s3" stroke="#FDD835" d="M45.07,18.73c1.33,0.5,3.77,0.59,5.11,0.5c11.03-0.73,22.44-2.11,33.62-3.31c2.2-0.24,3.55-0.01,4.66,0.24"/>
		<g id="kvg:04fbf-g3">
			<path id="kvg:s-s4" stroke="#43A047" d="M42.98,33.32c0.85,0.85,1.27,2.06,1.38,3.21c0.17,1.85,1.08,12.42,1.75,18.96c0.19,1.82,0.35,3.33,0.48,4.26"/>
			<path id="kvg:s-s5" stroke="#1E88E5" d="M45.04,34.93c8.83-1.31,36.21-4.18,41.82-4.44c2.41-0.11,4.3,1.51,3.6,4.96c-0.96,4.76-1.44,8.32-3.73,17.23c-0.32,1.25-0.68,2.61-1.08,4.09"/>
			<path id="kvg:s-s6" stroke="#8E24AA" d="M46.3,45.93c7.99-1.18,36.68-3.73,41.54-3.73"/>
			<path id="kvg:s-s7" stroke="#EC407A" d="M47.39,56.91c12.36-1.41,23.61-2.03,38.28-3"/>
		</g>
		<g id="kvg:04fbf-g4">
			<g id="kvg:04fbf-g5">
				<path id="kvg:s-s8" stroke="#00ACC1" d="M66,19.75c1.06,1.06,1.48,2.38,1.46,3.93c-0.71,44.69-2.21,63.07-29.71,75.36"/>
			</g>
			<path id="kvg:s-s9" stroke="#795548" d="M45.25,66.5C51.84,66.73,73,84.75,84.23,91.91c2.76,1.76,5.6,3.26,8.77,4.09"/>
		</g>
	</g>
</g>
</g>
<g id="kvg:StrokeNumbers_04fbf" style="font-size:18;fill:#E53935;font-weight:bold;stroke:#fff;stroke-width:1.5;paint-order:stroke">
	<text transform="matrix(1 0 0 1 21.49 13.63)" fill="#E53935">1</text>
	<text transform="matrix(1 0 0 1 17.25 55.63)" fill="#FB8C00">2</text>
	<text transform="matrix(1 0 0 1 45.75 15.13)" fill="#FDD835">3</text>
	<text transform="matrix(1 0 0 1 35.25 42.13)" fill="#43A047">4</text>
	<text transform="matrix(1 0 0 1 45.75 30.13)" fill="#1E88E5">5</text>
	<text transform="matrix(1 0 0 1 48.75 43.63)" fill="#8E24AA">6</text>
	<text transform="matrix(1 0 0 1 50.25 55.63)" fill="#EC407A">7</text>
	<text transform="matrix(1 0 0 1 59.25 27.13)" fill="#00ACC1">8</text>
	<text transform="matrix(1 0 0 1 37.99 70.03)" fill="#795548">9</text>
</g>
</svg>
