<?xml version="1.0" encoding="UTF-8"?>
<svg xmlns="http://www.w3.org/2000/svg" width="109" height="109" viewBox="0 0 109 109">
<g id="kvg:StrokePaths_04fb6" style="fill:none;stroke:#000000;stroke-width:3;stroke-linecap:round;stroke-linejoin:round;">
<g id="kvg:04fb6">
	<g id="kvg:04fb6-g1">
		<path id="kvg:s-s1" stroke="#E53935" d="M33.99,14.89c0.14,1.18,0.24,2.65-0.12,4.1c-2.29,9.15-11.14,26.83-21.81,39.22"/>
		<path id="kvg:s-s2" stroke="#FB8C00" d="M27.53,40c0.59,0.61,0.76,1.97,0.76,3.23c0,13.02-0.29,43.65-0.29,52.4"/>
	</g>
	<g id="kvg:04fb6-g2">
		<g id="kvg:04fb6-g3">
			<path id="kvg:s-s3" stroke="#FDD835" d="M46.39,17.35c0.42,0.5,0.86,0.91,1.04,1.52c1.46,4.84,3.19,16.63,4.18,25.28"/>
			<path id="kvg:s-s4" stroke="#43A047" d="M48.02,19.56c10.38-1.75,31.55-4.38,36.9-4.92c1.96-0.2,3.63,1.58,3.34,3.04c-1.36,6.98-2.77,13.12-5,20.85"/>
			<path id="kvg:s-s5" stroke="#1E88E5" d="M52.03,41.98c6.28-0.61,25.21-2.59,33.18-3.16"/>
		</g>
		<g id="kvg:04fb6-g4">
			<g id="kvg:04fb6-g5">
				<path id="kvg:s-s6" stroke="#8E24AA" d="M65.68,43.43c1.14,1.72,1.24,2.07,0.55,4.07c-0.52,1.49-6.8,13.15-7.72,15.14"/>
			</g>
			<g id="kvg:04fb6-g6">
				<path id="kvg:s-s7" stroke="#EC407A" d="M44.84,64.52c0.54,0.59,1.1,1.09,1.34,1.82c1.88,5.71,2.61,18.48,3.88,28.64"/>
				<path id="kvg:s-s8" stroke="#00ACC1" d="M46.73,66.62c13.36-1.68,36.17-3.99,43.06-4.43c2.52-0.16,4.03,3.13,3.66,4.83c-1.49,6.91-2.61,10.61-5.55,23.04"/>
				<path id="kvg:s-s9" stroke="#795548" d="M50.61,92.64c8.09-0.49,29.54-2.19,39.81-2.57"/>
			</g>
		</g>
	</g>
</g>
</g>
<g id="kvg:StrokeNumbers_04fb6" style="font-size:18;font-weight:bold;stroke:#fff;stroke-width:1.5;paint-order:stroke">
	<text transform="matrix(1 0 0 1 25.50 14.50)" fill="#E53935">1</text>
	<text transform="matrix(1 0 0 1 20.50 56.50)" fill="#FB8C00">2</text>
	<text transform="matrix(1 0 0 1 40.54 26.50)" fill="#FDD835">3</text>
	<text transform="matrix(1 0 0 1 50.50 15.50)" fill="#43A047">4</text>
	<text transform="matrix(1 0 0 1 55.50 38.50)" fill="#1E88E5">5</text>
	<text transform="matrix(1 0 0 1 57.50 50.50)" fill="#8E24AA">6</text>
	<text transform="matrix(1 0 0 1 39.50 73.50)" fill="#EC407A">7</text>
	<text transform="matrix(1 0 0 1 49.25 63.50)" fill="#00ACC1">8</text>
	<text transform="matrix(1 0 0 1 54.50 89.50)" fill="#795548">9</text>
</g>
</svg>
