<?xml version="1.0" encoding="UTF-8"?>
<svg xmlns="http://www.w3.org/2000/svg" width="109" height="109" viewBox="0 0 109 109">
<g id="kvg:StrokePaths_04ffa" style="fill:none;stroke:#000000;stroke-width:3;stroke-linecap:round;stroke-linejoin:round;">
<g id="kvg:04ffa">
	<g id="kvg:04ffa-g1">
		<path id="kvg:s-s1" stroke="#E53935" d="M33.5,17.14c0.25,1.23-0.14,2.35-0.61,3.71c-4.83,13.91-9.35,23.2-20.33,37.37"/>
		<path id="kvg:s-s2" stroke="#FB8C00" d="M26.28,41c0.86,0.86,1.01,2.22,1.01,3.48c0,9.66-0.02,28.75-0.03,41.52c0,4.44-0.01,8.12-0.01,10.37"/>
	</g>
	<g id="kvg:04ffa-g2">
		<g id="kvg:04ffa-g3">
			<path id="kvg:s-s3" stroke="#FDD835" d="M39.24,31.69c3.29,0.68,6.55,0.47,9.88,0.02c9.88-1.34,20.5-2.59,30.5-3.66c3.05-0.33,6.06-0.51,9.1-0.04"/>
			<path id="kvg:s-s4" stroke="#43A047" d="M63.21,13.25c0,1.38-0.24,2.6-0.69,3.86C55.93,35.7,47.82,47.98,33.5,58.88"/>
			<path id="kvg:s-s5" stroke="#1E88E5" d="M64.36,29.67c6.55,5.51,21.83,19.54,28.37,23.23c2.23,1.25,3,1.44,4.01,1.56"/>
		</g>
		<g id="kvg:04ffa-g4">
			<g id="kvg:04ffa-g5">
				<path id="kvg:s-s6" stroke="#8E24AA" d="M43.94,53.89c0.84,0.84,1.16,1.81,1.28,2.52c0.65,3.72,2.4,14.84,3.24,20.82"/>
				<path id="kvg:s-s7" stroke="#EC407A" d="M45.81,55.01c9.58-1.54,21.98-3.17,30.59-4.3c2.61-0.34,4.84,1.23,4.45,4.04c-0.76,5.44-1.72,11.17-2.91,18.65"/>
				<path id="kvg:s-s8" stroke="#00ACC1" d="M47.85,64.58c8.02-1.08,24.27-2.95,31.62-3.7"/>
				<path id="kvg:s-s9" stroke="#795548" d="M49.21,74.72c8.54-0.97,20.29-2.09,27.93-2.84"/>
			</g>
			<path id="kvg:s-s10" stroke="#546E7A" d="M61.17,42.09c0.93,0.93,1.11,2.15,1.11,3.85c0,10.56,0.08,35.12,0.08,40.27c0,7.91,2.1,9.09,15.41,9.07c14.49-0.03,15.97-1.88,15.97-10.3"/>
		</g>
	</g>
</g>
</g>
<g id="kvg:StrokeNumbers_04ffa" style="font-size:18;font-weight:bold;stroke:#fff;stroke-width:1.5;paint-order:stroke">
	<text transform="matrix(1 0 0 1 24.85 15.85)" fill="#E53935">1</text>
	<text transform="matrix(1 0 0 1 20.50 57.50)" fill="#FB8C00">2</text>
	<text transform="matrix(1 0 0 1 38.50 29.50)" fill="#FDD835">3</text>
	<text transform="matrix(1 0 0 1 55.50 11.50)" fill="#43A047">4</text>
	<text transform="matrix(1 0 0 1 77.50 37.50)" fill="#1E88E5">5</text>
	<text transform="matrix(1 0 0 1 38.50 64.50)" fill="#8E24AA">6</text>
	<text transform="matrix(1 0 0 1 51.50 51.50)" fill="#EC407A">7</text>
	<text transform="matrix(1 0 0 1 50.50 61.50)" fill="#00ACC1">8</text>
	<text transform="matrix(1 0 0 1 51.50 71.50)" fill="#795548">9</text>
	<text transform="matrix(1 0 0 1 57.50 39.50)" fill="#546E7A">10</text>
</g>
</svg>
