<?xml version="1.0" encoding="UTF-8"?>
<svg xmlns="http://www.w3.org/2000/svg" width="109" height="109" viewBox="0 0 109 109">
<g id="kvg:StrokePaths_05076" style="fill:none;stroke:#000000;stroke-width:3;stroke-linecap:round;stroke-linejoin:round;">
<g id="kvg:05076">
	<g id="kvg:05076-g1">
		<path id="kvg:s-s1" stroke="#E53935" d="M29.52,15c0.2,1.98-0.06,3.56-0.69,5.25C24.75,31.04,19.34,42.16,10,55.29"/>
		<path id="kvg:s-s2" stroke="#FB8C00" d="M23.45,37.25c0.96,0.96,1.4,2.35,1.4,3.86c0,14.3,0.07,35,0.09,47.64c0.01,2.96,0.01,5.51,0.01,7.5"/>
	</g>
	<g id="kvg:05076-g2">
		<g id="kvg:05076-g3">
			<g id="kvg:05076-g4">
				<path id="kvg:s-s3" stroke="#FDD835" d="M43.42,18.93c0.89,0.89,1.68,1.92,1.95,3.15c1.09,5.05,2.71,13.7,3.69,19.38c0.49,2.8,0.82,4.88,0.87,5.44"/>
				<path id="kvg:s-s4" stroke="#43A047" d="M45.02,20.12c16.06-2.68,29.71-4.1,38.54-4.65c2.78-0.17,4.28,0.97,4.05,3.95c-0.31,4.03-1.62,11.34-3,19.12c-0.28,1.57-0.56,3.15-0.83,4.74"/>
				<path id="kvg:s-s5" stroke="#1E88E5" d="M48.45,32.2c14.05-1.82,31.67-3.82,37.4-4.06"/>
				<path id="kvg:s-s6" stroke="#8E24AA" d="M50.83,44.24c10.38-1.19,20.92-2.74,32.29-3.37"/>
			</g>
		</g>
		<g id="kvg:05076-g5">
			<g id="kvg:05076-g6">
				<path id="kvg:s-s7" stroke="#EC407A" d="M38.38,55.34c1.2,1.2,1.71,2.58,1.91,3.81c1.11,6.71,2.26,20.24,3.12,29.34c0.27,2.91,0.52,5.37,0.72,7.01"/>
				<path id="kvg:s-s8" stroke="#00ACC1" d="M40.99,58.23c7.39-0.96,45.01-4.86,49.42-5.31c3.18-0.32,5.17,1.76,5.06,3.88c-0.27,5.13-3.36,27.11-5.67,33.67c-2.3,6.52-3.17,5-5.92-0.06"/>
			</g>
			<g id="kvg:05076-g7">
				<path id="kvg:s-s9" stroke="#795548" d="M64.27,19.48c0.81,0.81,1.4,1.75,1.4,3.3c-0.01,6.8-0.04,49.88-0.04,51.97"/>
			</g>
			<path id="kvg:s-s10" stroke="#546E7A" d="M51.79,78.2c1.21,1.18,2.57,0.88,3.86,0.45c3.63-1.21,14.98-5.15,23.63-7.95"/>
			<path id="kvg:s-s11" stroke="#E53935" d="M75.5,64c3.17,2.49,8.18,10.24,8.97,14.12"/>
		</g>
	</g>
</g>
</g>
<g id="kvg:StrokeNumbers_05076" style="font-size:18;font-weight:bold;stroke:#fff;stroke-width:1.5;paint-order:stroke">
	<text transform="matrix(1 0 0 1 19.50 13.63)" fill="#E53935">1</text>
	<text transform="matrix(1 0 0 1 17.50 55.50)" fill="#FB8C00">2</text>
	<text transform="matrix(1 0 0 1 38.50 28.50)" fill="#FDD835">3</text>
	<text transform="matrix(1 0 0 1 46.50 16.50)" fill="#43A047">4</text>
	<text transform="matrix(1 0 0 1 51.75 28.55)" fill="#1E88E5">5</text>
	<text transform="matrix(1 0 0 1 52.50 41.98)" fill="#8E24AA">6</text>
	<text transform="matrix(1 0 0 1 32.25 64.63)" fill="#EC407A">7</text>
	<text transform="matrix(1 0 0 1 42.75 54.50)" fill="#00ACC1">8</text>
	<text transform="matrix(1 0 0 1 69.50 25.63)" fill="#795548">9</text>
	<text transform="matrix(1 0 0 1 47.25 73.63)" fill="#546E7A">10</text>
	<text transform="matrix(1 0 0 1 78.75 64.63)" fill="#E53935">11</text>
</g>
</svg>
