<?xml version="1.0" encoding="UTF-8"?>
<svg xmlns="http://www.w3.org/2000/svg" width="109" height="109" viewBox="0 0 109 109">
<g id="kvg:StrokePaths_05098" style="fill:none;stroke:#000000;stroke-width:3;stroke-linecap:round;stroke-linejoin:round;">
<g id="kvg:05098">
	<g id="kvg:05098-g1">
		<path id="kvg:s-s1" stroke="#E53935" d="M53.99,9.75c0.12,0.89-0.15,2.25-1,3.35C46.5,21.5,32,37.75,9.75,47.75"/>
		<path id="kvg:s-s2" stroke="#FB8C00" d="M55.25,13.38c4.8,4.77,22.51,17.93,31.54,24.38c3.36,2.4,5.21,3.88,9.96,5.35"/>
	</g>
	<g id="kvg:05098-g2">
		<g id="kvg:05098-g3">
			<g id="kvg:05098-g4">
				<path id="kvg:s-s3" stroke="#FDD835" d="M38.02,37.89c0.1,1.04-0.06,1.66-0.55,2.6c-1.91,3.71-6.38,9.47-13.41,14.47"/>
				<path id="kvg:s-s4" stroke="#43A047" d="M36.88,45c3.59,1.63,9.28,6.69,10.18,9.22"/>
			</g>
			<g id="kvg:05098-g5">
				<path id="kvg:s-s5" stroke="#1E88E5" d="M36.27,55.39c0.11,0.83,0,1.63-0.33,2.38c-1.38,3.55-5.99,9.51-13.37,14.95"/>
				<path id="kvg:s-s6" stroke="#8E24AA" d="M36.5,63.38c3.37,1.38,8.71,5.69,9.56,7.84"/>
			</g>
		</g>
		<g id="kvg:05098-g6">
			<g id="kvg:05098-g7">
				<path id="kvg:s-s7" stroke="#EC407A" d="M73.16,36.89c0.11,0.82,0,1.59-0.33,2.32c-1.29,3.16-5.57,8.7-11.45,12.91"/>
				<path id="kvg:s-s8" stroke="#00ACC1" d="M73.75,44c3.72,1.49,9.62,6.14,10.55,8.47"/>
			</g>
			<g id="kvg:05098-g8">
				<path id="kvg:s-s9" stroke="#795548" d="M74.02,53.64c0.11,0.86-0.02,1.66-0.4,2.42c-1.53,3.53-6.7,9.89-13.56,13.91"/>
				<path id="kvg:s-s10" stroke="#546E7A" d="M74.25,60.5c3.64,1.54,9.4,6.32,10.31,8.72"/>
			</g>
		</g>
		<g id="kvg:05098-g9">
			<path id="kvg:s-s11" stroke="#E53935" d="M15.31,78.74c3.16,0.98,7.31,0.75,10.56,0.39c16.2-1.77,38.59-3.46,54.88-3.94c3.66-0.11,7.58,0.17,11.19,0.84"/>
			<path id="kvg:s-s12" stroke="#FB8C00" d="M52.83,32.12c0.67,0.63,1.74,1.87,1.74,4.17c0,11.59,0.05,42.86-0.04,57.22c-0.02,2.79-0.03,5.03-0.03,6.5"/>
		</g>
	</g>
</g>
</g>
<g id="kvg:StrokeNumbers_05098" style="font-size:18;font-weight:bold;stroke:#fff;stroke-width:1.5;paint-order:stroke">
	<text transform="matrix(1 0 0 1 45.50 11.50)" fill="#E53935">1</text>
	<text transform="matrix(1 0 0 1 64.50 17.50)" fill="#FB8C00">2</text>
	<text transform="matrix(1 0 0 1 27.50 45.50)" fill="#FDD835">3</text>
	<text transform="matrix(1 0 0 1 42.50 46.63)" fill="#43A047">4</text>
	<text transform="matrix(1 0 0 1 28.50 60.50)" fill="#1E88E5">5</text>
	<text transform="matrix(1 0 0 1 41.50 64.50)" fill="#8E24AA">6</text>
	<text transform="matrix(1 0 0 1 65.50 37.50)" fill="#EC407A">7</text>
	<text transform="matrix(1 0 0 1 77.50 43.50)" fill="#00ACC1">8</text>
	<text transform="matrix(1 0 0 1 66.50 56.50)" fill="#795548">9</text>
	<text transform="matrix(1 0 0 1 78.50 61.50)" fill="#546E7A">10</text>
	<text transform="matrix(1 0 0 1 5.25 79.63)" fill="#E53935">11</text>
	<text transform="matrix(1 0 0 1 47.50 29.50)" fill="#FB8C00">12</text>
</g>
</svg>
