<?xml version="1.0" encoding="UTF-8"?>
<svg xmlns="http://www.w3.org/2000/svg" width="109" height="109" viewBox="0 0 109 109">
<g id="kvg:StrokePaths_05099" style="fill:none;stroke:#000000;stroke-width:3;stroke-linecap:round;stroke-linejoin:round;">
<g id="kvg:05099">
	<g id="kvg:05099-g1">
		<path id="kvg:s-s1" stroke="#E53935" d="M35.25,15c0.25,2-0.07,3.37-0.87,5.08C29.25,31,23.75,42.5,12,55.79"/>
		<path id="kvg:s-s2" stroke="#FB8C00" d="M26.78,39.25c0.98,0.98,1.51,2.72,1.51,3.98c0,11.17-0.02,33.73-0.04,45.02c0,3.38-0.01,5.75-0.01,6.5"/>
	</g>
	<g id="kvg:05099-g2">
		<g id="kvg:05099-g3">
			<path id="kvg:s-s3" stroke="#FDD835" d="M42.75,24.77c2.01,0.6,4.09,0.42,6.14,0.2c8.95-0.98,24.89-2.7,34.74-3.11c2.3-0.1,4.38-0.23,6.88,0.17"/>
			<path id="kvg:s-s4" stroke="#43A047" d="M53.92,11.75c0.79,0.79,1.31,2.11,1.4,3c0.94,9.75,1.44,14.75,2.34,22.75"/>
			<path id="kvg:s-s5" stroke="#1E88E5" d="M75.35,10.5c0.76,0.76,0.74,2.26,0.65,3c-1,7.75-2,14.75-3.32,23"/>
		</g>
		<g id="kvg:05099-g4">
			<path id="kvg:s-s6" stroke="#8E24AA" d="M40.39,39.55c2.36,0.45,4.57,0.42,6.75,0.27c11.26-0.74,26.75-2.39,39.63-3.4c2.34-0.18,4.48-0.29,6.79,0.2"/>
			<path id="kvg:s-s7" stroke="#EC407A" d="M53.58,42.5c0,0.88-0.26,2.05-0.59,2.82c-4.11,9.43-8.49,17.31-17.24,26.47"/>
		</g>
		<g id="kvg:05099-g5">
			<path id="kvg:s-s8" stroke="#00ACC1" d="M49.53,54.65c0.53,0.53,0.82,1.35,0.82,2.11c0,7.78,0.09,25.14,0.09,34.24c0,3,0,4.99,0,5.26"/>
			<path id="kvg:s-s9" stroke="#795548" d="M51.3,51.79c7.95-0.79,33.15-3.68,34.67-3.84c2.73-0.3,3.41,0.55,3.41,3.07c0,6.98,0.24,27.93,0.24,39.96c0,9.27-5.33,1.28-6.41,0.76"/>
			<path id="kvg:s-s10" stroke="#546E7A" d="M51.55,64.87c10.32-1.49,29.2-2.87,36.64-3.19"/>
			<path id="kvg:s-s11" stroke="#E53935" d="M51.71,78.45c9.16-1.2,26.41-2.82,36.45-3.15"/>
			<path id="kvg:s-s12" stroke="#FB8C00" d="M67.82,52.4c0.7,0.7,1.21,2.1,1.21,3.61c0,3.49-0.05,21.37-0.05,31.25c0,2.96-0.05,5.13-0.08,5.9"/>
		</g>
	</g>
</g>
</g>
<g id="kvg:StrokeNumbers_05099" style="font-size:18;fill:#E53935;font-weight:bold;stroke:#fff;stroke-width:1.5;paint-order:stroke">
	<text transform="matrix(1 0 0 1 27.50 15.50)" fill="#E53935">1</text>
	<text transform="matrix(1 0 0 1 20.50 55.50)" fill="#FB8C00">2</text>
	<text transform="matrix(1 0 0 1 42.50 21.50)" fill="#FDD835">3</text>
	<text transform="matrix(1 0 0 1 45.50 10.50)" fill="#43A047">4</text>
	<text transform="matrix(1 0 0 1 65.50 9.50)" fill="#1E88E5">5</text>
	<text transform="matrix(1 0 0 1 38.25 36.50)" fill="#8E24AA">6</text>
	<text transform="matrix(1 0 0 1 44.25 50.83)" fill="#EC407A">7</text>
	<text transform="matrix(1 0 0 1 43.50 72.50)" fill="#00ACC1">8</text>
	<text transform="matrix(1 0 0 1 59.50 47.50)" fill="#795548">9</text>
	<text transform="matrix(1 0 0 1 52.50 61.50)" fill="#546E7A">10</text>
	<text transform="matrix(1 0 0 1 53.35 74.50)" fill="#E53935">11</text>
	<text transform="matrix(1 0 0 1 59.50 58.50)" fill="#FB8C00">12</text>
</g>
</svg>
