<?xml version="1.0" encoding="UTF-8"?>
<svg xmlns="http://www.w3.org/2000/svg" width="109" height="109" viewBox="0 0 109 109">
<g id="kvg:StrokePaths_050da" style="fill:none;stroke:#000000;stroke-width:3;stroke-linecap:round;stroke-linejoin:round;">
<g id="kvg:050da">
	<g id="kvg:050da-g1">
		<path id="kvg:s-s1" stroke="#E53935" d="M29.76,14.89c0.12,1.16,0.06,2.14-0.36,3.53C27,26.38,19.02,44.04,9.81,56.22"/>
		<path id="kvg:s-s2" stroke="#FB8C00" d="M21.78,41.25c0.8,0.8,1.26,1.75,1.26,3.73c0,10.64,0.06,32.53-0.02,44.77C23.01,92.49,23,94.77,23,96.38"/>
	</g>
	<g id="kvg:050da-g2">
		<g id="kvg:050da-g3">
			<path id="kvg:s-s3" stroke="#FDD835" d="M37.73,24.6c2.52,0.52,5.12,0.37,7.27,0.08c10.77-1.45,23.7-3.71,33.62-4.62c2.55-0.24,5.11-0.46,7.63,0.12"/>
			<path id="kvg:s-s4" stroke="#43A047" d="M61.21,10c0.45,0.66,0.53,1.96,0.17,3.34C57.12,29.5,48,46.5,30.75,57.01"/>
			<path id="kvg:s-s5" stroke="#1E88E5" d="M60.18,23.92c6.44,5.7,17.56,15.2,26.12,21.14c2.68,1.86,5.33,4.07,8.45,5.18"/>
		</g>
		<path id="kvg:s-s6" stroke="#8E24AA" d="M38.02,33.58c2.4,1.35,6.19,5.54,6.79,7.63"/>
		<path id="kvg:s-s7" stroke="#EC407A" d="M86.28,26.89c0.06,0.63-0.29,1.23-0.57,1.8c-1.46,2.05-3.21,3.68-6.9,7.27"/>
		<g id="kvg:050da-g4">
			<path id="kvg:s-s8" stroke="#00ACC1" d="M45.24,47.59c0.83,0.83,1.09,2.06,1.28,3c0.61,2.74,1.92,11.32,2.68,16.56c0.31,2.15,0.53,3.73,0.56,4.13"/>
			<path id="kvg:s-s9" stroke="#795548" d="M46.91,48.14c7.98-0.95,21.87-2.69,29.09-3.69c3.87-0.53,5.39,0.88,4.92,4.57c-0.53,4.14-1.42,10.44-2.21,15.72c-0.21,1.38-0.41,2.7-0.6,3.88"/>
			<path id="kvg:s-s10" stroke="#546E7A" d="M49.03,58.07c7.09-0.95,24.22-2.57,29.82-2.8"/>
			<path id="kvg:s-s11" stroke="#E53935" d="M50.71,69.16c6.27-0.44,16.42-1.78,26.4-2.27"/>
		</g>
		<g id="kvg:050da-g5">
			<path id="kvg:s-s12" stroke="#FB8C00" d="M63.86,70.87c0.82,0.82,1.02,2.26,1.02,3.98c0,6.03,0.04,14.63,0.04,18.66c0,9.14-5.85,1.22-7.07,0.2"/>
			<path id="kvg:s-s13" stroke="#FDD835" d="M48.7,79.43c0.11,0.96-0.07,1.45-0.58,2.28C46.1,85.02,41.68,89.98,34,95.25"/>
			<path id="kvg:s-s14" stroke="#43A047" d="M76.96,78.12c4.6,2.36,11.29,8.63,13.29,13.13"/>
		</g>
	</g>
</g>
</g>
<g id="kvg:StrokeNumbers_050da" style="font-size:18;font-weight:bold;stroke:#fff;stroke-width:1.5;paint-order:stroke">
	<text transform="matrix(1 0 0 1 21.25 14.25)" fill="#E53935">1</text>
	<text transform="matrix(1 0 0 1 15.50 61.30)" fill="#FB8C00">2</text>
	<text transform="matrix(1 0 0 1 36.25 20.88)" fill="#FDD835">3</text>
	<text transform="matrix(1 0 0 1 53.25 9.25)" fill="#43A047">4</text>
	<text transform="matrix(1 0 0 1 70.25 29.25)" fill="#1E88E5">5</text>
	<text transform="matrix(1 0 0 1 31.25 35.25)" fill="#8E24AA">6</text>
	<text transform="matrix(1 0 0 1 79.25 28.25)" fill="#EC407A">7</text>
	<text transform="matrix(1 0 0 1 40.25 59.25)" fill="#00ACC1">8</text>
	<text transform="matrix(1 0 0 1 53.25 44.25)" fill="#795548">9</text>
	<text transform="matrix(1 0 0 1 52.25 54.25)" fill="#546E7A">10</text>
	<text transform="matrix(1 0 0 1 53.25 65.73)" fill="#E53935">11</text>
	<text transform="matrix(1 0 0 1 54.25 78.25)" fill="#FB8C00">12</text>
	<text transform="matrix(1 0 0 1 37.25 80.25)" fill="#FDD835">13</text>
	<text transform="matrix(1 0 0 1 69.25 76.25)" fill="#43A047">14</text>
</g>
</svg>
