<?xml version="1.0" encoding="UTF-8"?>
<svg xmlns="http://www.w3.org/2000/svg" width="109" height="109" viewBox="0 0 109 109">
<g id="kvg:StrokePaths_05112" style="fill:none;stroke:#000000;stroke-width:3;stroke-linecap:round;stroke-linejoin:round;">
<g id="kvg:05112">
	<g id="kvg:05112-g1">
		<path id="kvg:s-s1" stroke="#E53935" d="M30.25,15.39c0.13,1.14-0.02,2.08-0.37,3.48c-2.19,8.88-10.64,26.05-20.82,38.09"/>
		<path id="kvg:s-s2" stroke="#FB8C00" d="M24.73,36.5c0.95,0.95,1.12,2.52,1.12,3.97c0,12.9,0,37.07-0.07,50.03c-0.01,2.13-0.02,3.95-0.02,5.38"/>
	</g>
	<g id="kvg:05112-g2">
		<g id="kvg:05112-g3">
			<path id="kvg:s-s3" stroke="#FDD835" d="M45.42,19.39c2.58,0.48,5.21-0.01,7.83-0.35c7.14-0.91,19.84-2.52,25.62-2.85c1.97-0.11,4.04-0.26,6,0.04"/>
			<path id="kvg:s-s4" stroke="#43A047" d="M41.39,30.33c-0.17,5.22-1.67,9.99-2.78,15.26"/>
			<path id="kvg:s-s5" stroke="#1E88E5" d="M42.09,31.76c16.16-2.39,35.69-5.01,47.79-5.01c7.01,0,2.24,5.49-0.22,8.14"/>
			<path id="kvg:s-s6" stroke="#8E24AA" d="M63.79,20.93c0.7,1.4,1.01,2.32,1.02,3.69c0,0.36-0.11,13.58-0.17,21.13c-0.02,2.73-0.04,4.72-0.04,5.08"/>
			<path id="kvg:s-s7" stroke="#EC407A" d="M50.51,36.12c2.51,0.5,5.92,2.01,7.29,2.85"/>
			<path id="kvg:s-s8" stroke="#00ACC1" d="M49.03,43.86c2.54,0.57,6.45,2.67,7.84,3.62"/>
			<path id="kvg:s-s9" stroke="#795548" d="M73.88,33.5c2.93,0.6,6.25,1.79,7.42,2.29"/>
			<path id="kvg:s-s10" stroke="#546E7A" d="M74.79,42.15c2.84,0.6,6.71,2.39,8.26,3.39"/>
		</g>
		<g id="kvg:05112-g4">
			<g id="kvg:05112-g5">
				<path id="kvg:s-s11" stroke="#E53935" d="M43.04,59.13c2.58,0.62,5.29,0.4,7.45,0.16c7.76-0.89,21.56-2.25,28.88-2.59c2.17-0.1,4.54-0.2,6.67,0.35"/>
				<path id="kvg:s-s12" stroke="#FB8C00" d="M63,61.11c0,0.64-0.26,1.34-0.59,1.8c-1.06,2.16-1.96,3.41-5.06,6.85"/>
			</g>
			<g id="kvg:05112-g6">
				<g id="kvg:05112-g7">
					<path id="kvg:s-s13" stroke="#FDD835" d="M40.74,72.13c0.94,0.94,1.41,2.4,1.54,4.08c0.13,1.68,0.71,8.83,1.18,14.29c0.22,2.53,0.42,4.7,0.54,5.79"/>
					<path id="kvg:s-s14" stroke="#43A047" d="M42.39,73.98c6.21-0.74,40.98-4.85,45.61-5.44c2.65-0.34,4.13,0.96,4.09,3.44C92,78,91,85.25,89.5,91.6c-1.52,6.44-4.78,5.02-6.74,2.61"/>
				</g>
				<path id="kvg:s-s15" stroke="#1E88E5" d="M56.93,74.74c0.92,0.92,1.16,2.01,1.16,3.46c0,2.8-0.09,6.89-0.08,11.08c0,2.17,0,3.89,0,4.35"/>
				<path id="kvg:s-s16" stroke="#8E24AA" d="M72.13,73.52c0.86,0.86,1.02,2.33,1.02,3.69c0,2.94-0.02,8.51-0.02,12.79c0,1.77-0.01,3.32-0.01,4.38"/>
			</g>
		</g>
	</g>
</g>
</g>
<g id="kvg:StrokeNumbers_05112" style="font-size:18;font-weight:bold;stroke:#fff;stroke-width:1.5;paint-order:stroke">
	<text transform="matrix(1 0 0 1 21.50 15.50)" fill="#E53935">1</text>
	<text transform="matrix(1 0 0 1 18.75 55.55)" fill="#FB8C00">2</text>
	<text transform="matrix(1 0 0 1 42.75 16.63)" fill="#FDD835">3</text>
	<text transform="matrix(1 0 0 1 33.75 33.05)" fill="#43A047">4</text>
	<text transform="matrix(1 0 0 1 44.25 28.63)" fill="#1E88E5">5</text>
	<text transform="matrix(1 0 0 1 57.50 26.50)" fill="#8E24AA">6</text>
	<text transform="matrix(1 0 0 1 43.50 39.58)" fill="#EC407A">7</text>
	<text transform="matrix(1 0 0 1 43.50 48.50)" fill="#00ACC1">8</text>
	<text transform="matrix(1 0 0 1 67.50 36.58)" fill="#795548">9</text>
	<text transform="matrix(1 0 0 1 67.50 47.00)" fill="#546E7A">10</text>
	<text transform="matrix(1 0 0 1 41.25 56.50)" fill="#E53935">11</text>
	<text transform="matrix(1 0 0 1 50.50 67.50)" fill="#FB8C00">12</text>
	<text transform="matrix(1 0 0 1 32.50 79.50)" fill="#FDD835">13</text>
	<text transform="matrix(1 0 0 1 42.50 70.63)" fill="#43A047">14</text>
	<text transform="matrix(1 0 0 1 47.25 82.63)" fill="#1E88E5">15</text>
	<text transform="matrix(1 0 0 1 63.50 81.13)" fill="#8E24AA">16</text>
</g>
</svg>
