<?xml version="1.0" encoding="UTF-8"?>
<svg xmlns="http://www.w3.org/2000/svg" width="109" height="109" viewBox="0 0 109 109">
<g id="kvg:StrokePaths_05148" style="fill:none;stroke:#000000;stroke-width:3;stroke-linecap:round;stroke-linejoin:round;">
<g id="kvg:05148">
	<g id="kvg:05148-g1">
		<path id="kvg:s-s1" stroke="#E53935" d="M37.51,21c0.07,0.62,0.15,1.61-0.14,2.49C35.25,29.88,31.62,37.38,24.5,45"/>
		<path id="kvg:s-s2" stroke="#FB8C00" d="M38.13,32.04c1.5,0.09,3.95-0.16,4.64-0.22c6.48-0.57,20.36-1.82,27.82-2.94c1.65-0.25,3.66-0.13,5.16,0.27"/>
		<path id="kvg:s-s3" stroke="#FDD835" d="M52.81,12.38c1.28,1.28,2.01,3.12,2.01,4.75c0,0.75-0.05,31.92-0.07,32.87"/>
		<path id="kvg:s-s4" stroke="#43A047" d="M15.88,53.26c3.42,0.98,7.15,0.5,10.62,0.22c15.99-1.3,38.99-3.55,59-4.4c2.94-0.13,5.84-0.03,8.75,0.47"/>
	</g>
	<g id="kvg:05148-g2">
		<g id="kvg:05148-g3">
			<path id="kvg:s-s5" stroke="#1E88E5" d="M45.18,55.68c0.32,1.45,0.15,2.48-0.15,3.85C43.24,67.65,35,86.62,20,96.38"/>
		</g>
		<path id="kvg:s-s6" stroke="#8E24AA" d="M60.49,53.62c1.07,1.07,1.38,2.71,1.38,4.98c0,7.78-0.22,14.88-0.22,21.89c0,15.14,1.1,16.04,15.85,16.04c14.62,0,15.64-1.78,15.64-11.29"/>
	</g>
</g>
</g>
<g id="kvg:StrokeNumbers_05148" style="font-size:18;fill:#E53935;font-weight:bold;stroke:#fff;stroke-width:1.5;paint-order:stroke">
	<text transform="matrix(1 0 0 1 29.50 20.13)" fill="#E53935">1</text>
	<text transform="matrix(1 0 0 1 42.50 28.50)" fill="#FB8C00">2</text>
	<text transform="matrix(1 0 0 1 43.50 11.50)" fill="#FDD835">3</text>
	<text transform="matrix(1 0 0 1 7.50 54.50)" fill="#43A047">4</text>
	<text transform="matrix(1 0 0 1 36.75 62.13)" fill="#1E88E5">5</text>
	<text transform="matrix(1 0 0 1 53.50 65.50)" fill="#8E24AA">6</text>
</g>
</svg>
