<?xml version="1.0" encoding="UTF-8"?>
<svg xmlns="http://www.w3.org/2000/svg" width="109" height="109" viewBox="0 0 109 109">
<g id="kvg:StrokePaths_0514b" style="fill:none;stroke:#000000;stroke-width:3;stroke-linecap:round;stroke-linejoin:round;">
<g id="kvg:0514b">
	<g id="kvg:0514b-g1">
		<g id="kvg:0514b-g2">
			<path id="kvg:s-s1" stroke="#E53935" d="M21.25,26.25c3.15,0.97,6.15,0.8,9.36,0.38C43,25,63.01,22.68,74.88,21.77c3.19-0.24,6.21-0.11,9.37,0.48"/>
			<path id="kvg:s-s2" stroke="#FB8C00" d="M52.56,11.5c1.41,1.41,1.58,2.75,1.58,4.68c0,4.82-0.01,15.32-0.01,22.32"/>
		</g>
		<g id="kvg:0514b-g3">
			<g id="kvg:0514b-g4">
				<path id="kvg:s-s3" stroke="#FDD835" d="M34.47,40.29c0.81,0.81,1.22,2.06,1.33,3.1c0.67,3.08,1.71,8.19,2.6,13.03c0.26,1.4,0.5,2.78,0.72,4.08"/>
				<path id="kvg:s-s4" stroke="#43A047" d="M36.56,41.79c8.58-1.15,23.19-3.29,32.82-4.19c3.23-0.3,5.37,0.77,4.32,4.04c-1.23,3.86-2.42,7.02-3.63,11.8"/>
				<path id="kvg:s-s5" stroke="#1E88E5" d="M39.84,57.24c7.73-0.84,18.03-1.74,27.65-2.55c1.58-0.13,3.07-0.17,4.42-0.23"/>
			</g>
		</g>
	</g>
	<g id="kvg:0514b-g5">
		<g id="kvg:0514b-g6">
			<g id="kvg:0514b-g7">
				<path id="kvg:s-s6" stroke="#8E24AA" d="M46.98,64c0.09,0.7,0.19,1.82-0.18,2.83c-2.19,5.97-13.17,18.54-31.88,27.09"/>
			</g>
			<path id="kvg:s-s7" stroke="#EC407A" d="M57.74,60.12c0.95,0.95,1.27,2.34,1.31,4.18c0.19,8.19-0.03,12.14-0.03,17.7c0,10,1.6,11.53,16.6,11.53c16.38,0,17.76-1.28,17.76-9.12"/>
		</g>
	</g>
</g>
</g>
<g id="kvg:StrokeNumbers_0514b" style="font-size:18;font-weight:bold;stroke:#fff;stroke-width:1.5;paint-order:stroke">
	<text transform="matrix(1 0 0 1 14.50 26.50)" fill="#E53935">1</text>
	<text transform="matrix(1 0 0 1 42.50 11.50)" fill="#FB8C00">2</text>
	<text transform="matrix(1 0 0 1 27.75 48.13)" fill="#FDD835">3</text>
	<text transform="matrix(1 0 0 1 37.50 38.50)" fill="#43A047">4</text>
	<text transform="matrix(1 0 0 1 42.75 53.50)" fill="#1E88E5">5</text>
	<text transform="matrix(1 0 0 1 38.25 68.50)" fill="#8E24AA">6</text>
	<text transform="matrix(1 0 0 1 52.50 69.50)" fill="#EC407A">7</text>
</g>
</svg>
