<?xml version="1.0" encoding="UTF-8"?>
<svg xmlns="http://www.w3.org/2000/svg" width="109" height="109" viewBox="0 0 109 109">
<g id="kvg:StrokePaths_05149" style="fill:none;stroke:#000000;stroke-width:3;stroke-linecap:round;stroke-linejoin:round;">
<g id="kvg:05149">
	<g id="kvg:05149-g1">
		<path id="kvg:s-s1" stroke="#E53935" d="M51.72,15.37c1.14,1.14,1.93,3.06,1.93,5.27c0,6.12,0.05,20.6-0.03,26.62"/>
		<path id="kvg:s-s2" stroke="#FB8C00" d="M26.5,26.25c4.01,2.63,10.36,10.84,11.37,14.94"/>
		<path id="kvg:s-s3" stroke="#FDD835" d="M77.5,20.5c0.06,0.86,0.01,1.7-0.21,2.54c-1.08,4.25-5.38,12.46-11.17,17.59"/>
	</g>
	<g id="kvg:05149-g2">
		<g id="kvg:05149-g3">
			<path id="kvg:s-s4" stroke="#43A047" d="M16.13,51.48c2.19,0.54,5,0.65,8.38,0.29c15.8-1.67,41.61-4.89,58.84-5.73c3.64-0.18,5.83,0.26,7.65,0.53"/>
		</g>
		<g id="kvg:05149-g4">
			<g id="kvg:05149-g5">
				<path id="kvg:s-s5" stroke="#1E88E5" d="M45.5,53.5c0.25,1.25,0.23,2.35-0.13,3.62C42.38,67.62,37.75,81.25,22,91.75"/>
			</g>
			<path id="kvg:s-s6" stroke="#8E24AA" d="M58.74,51.37c0.68,1.19,1.21,2.59,1.25,4.43c0.11,4.82-0.02,13.81-0.02,21.2c0,13,1.28,14.53,17.78,14.53c14.5,0,15.89-2.03,15.89-8.62"/>
		</g>
	</g>
</g>
</g>
<g id="kvg:StrokeNumbers_05149" style="font-size:18;fill:#E53935;font-weight:bold;stroke:#fff;stroke-width:1.5;paint-order:stroke">
	<text transform="matrix(1 0 0 1 42.50 15.50)" fill="#E53935">1</text>
	<text transform="matrix(1 0 0 1 20.25 24.50)" fill="#FB8C00">2</text>
	<text transform="matrix(1 0 0 1 68.50 20.50)" fill="#FDD835">3</text>
	<text transform="matrix(1 0 0 1 8.50 53.50)" fill="#43A047">4</text>
	<text transform="matrix(1 0 0 1 36.50 60.50)" fill="#1E88E5">5</text>
	<text transform="matrix(1 0 0 1 52.50 59.50)" fill="#8E24AA">6</text>
</g>
</svg>
