<?xml version="1.0" encoding="UTF-8"?>
<svg xmlns="http://www.w3.org/2000/svg" width="109" height="109" viewBox="0 0 109 109">
<g id="kvg:StrokePaths_05171" style="fill:none;stroke:#000000;stroke-width:3;stroke-linecap:round;stroke-linejoin:round;">
<g id="kvg:05171">
	<g id="kvg:05171-g1">
		<path id="kvg:s-s1" stroke="#E53935" d="M24.5,39.15c2.5,0.6,4.91,0.49,7.21,0.13c9.36-1.44,35.65-5.22,47.54-6.09c2.49-0.18,5.03-0.36,7.49,0.18"/>
		<path id="kvg:s-s2" stroke="#FB8C00" d="M39.12,18.5c0.88,0.88,1.64,2.23,1.71,3.25c0.55,8.5,1.42,30,1.92,38.25"/>
		<path id="kvg:s-s3" stroke="#FDD835" d="M66.62,12.75c0.88,0.88,1.5,2.23,1.46,3.25c-0.58,13.75-1.33,26.75-1.83,42"/>
		<path id="kvg:s-s4" stroke="#43A047" d="M13.5,63.23c2.26,0.74,6.41,0.99,8.65,0.74c15.72-1.72,47.22-6.16,66.07-6.83c3.76-0.13,6.02,0.35,7.9,0.73"/>
	</g>
	<g id="kvg:05171-g2">
		<path id="kvg:s-s5" stroke="#1E88E5" d="M42,72.14c0.05,0.57,0.11,1.46-0.1,2.28c-1.27,4.8-9.65,13.33-18.59,21.05"/>
		<path id="kvg:s-s6" stroke="#8E24AA" d="M68.5,72.62c6.99,4.25,18.06,17.48,19.81,24.09"/>
	</g>
</g>
</g>
<g id="kvg:StrokeNumbers_05171" style="font-size:18;fill:#E53935;font-weight:bold;stroke:#fff;stroke-width:1.5;paint-order:stroke">
	<text transform="matrix(1 0 0 1 17.50 40.48)" fill="#E53935">1</text>
	<text transform="matrix(1 0 0 1 31.50 19.50)" fill="#FB8C00">2</text>
	<text transform="matrix(1 0 0 1 57.50 13.50)" fill="#FDD835">3</text>
	<text transform="matrix(1 0 0 1 6.50 65.91)" fill="#43A047">4</text>
	<text transform="matrix(1 0 0 1 34.50 73.50)" fill="#1E88E5">5</text>
	<text transform="matrix(1 0 0 1 61.50 74.50)" fill="#8E24AA">6</text>
</g>
</svg>
