<?xml version="1.0" encoding="UTF-8"?>
<svg xmlns="http://www.w3.org/2000/svg" width="109" height="109" viewBox="0 0 109 109">
<g id="kvg:StrokePaths_05186" style="fill:none;stroke:#000000;stroke-width:3;stroke-linecap:round;stroke-linejoin:round;">
<g id="kvg:05186">
	<g id="kvg:05186-g1">
		<path id="kvg:s-s1" stroke="#E53935" d="M21.75,19.8c0.91,0.91,1.47,3.23,1.5,5.45c0.2,13.9,0.03,47.69,0.03,62.5c0,2-0.03,4.99-0.03,6"/>
		<path id="kvg:s-s2" stroke="#FB8C00" d="M24.06,21.56c15.07-1.68,49.46-5.58,57.92-6.31c2.9-0.25,4.78,1.88,4.78,4.27c0,13.48,0,53.21,0,67.48c0,9.75-4.25,6.5-8.5,1.5"/>
	</g>
	<g id="kvg:05186-g2">
		<path id="kvg:s-s3" stroke="#FDD835" d="M52.25,20.75c0.88,0.88,1.5,2,1.5,3.71c0,6.76,0,27.54,0,31.04"/>
		<path id="kvg:s-s4" stroke="#43A047" d="M24.75,59.75c14.62-1.75,43-4.25,60.5-5.25"/>
	</g>
</g>
</g>
<g id="kvg:StrokeNumbers_05186" style="font-size:18;fill:#E53935;font-weight:bold;stroke:#fff;stroke-width:1.5;paint-order:stroke">
	<text transform="matrix(1 0 0 1 16.50 28.63)" fill="#E53935">1</text>
	<text transform="matrix(1 0 0 1 24.75 17.50)" fill="#FB8C00">2</text>
	<text transform="matrix(1 0 0 1 45.50 29.50)" fill="#FDD835">3</text>
	<text transform="matrix(1 0 0 1 28.50 56.50)" fill="#43A047">4</text>
</g>
</svg>
