<?xml version="1.0" encoding="UTF-8"?>
<svg xmlns="http://www.w3.org/2000/svg" width="109" height="109" viewBox="0 0 109 109">
<g id="kvg:StrokePaths_051c6" style="fill:none;stroke:#000000;stroke-width:3;stroke-linecap:round;stroke-linejoin:round;">
<g id="kvg:051c6">
	<g id="kvg:051c6-g1">
		<g id="kvg:051c6-g2">
			<path id="kvg:s-s1" stroke="#E53935" d="M17.75,26.75c3.88,1.54,10.03,6.35,11,8.75"/>
		</g>
		<g id="kvg:051c6-g3">
			<path id="kvg:s-s2" stroke="#FB8C00" d="M13.36,86.29c1.39,0.34,2.64-0.25,3.49-1.53c2.97-4.5,5.95-10.01,8.65-15.76"/>
		</g>
	</g>
	<g id="kvg:051c6-g4">
		<g id="kvg:051c6-g5">
			<path id="kvg:s-s3" stroke="#FDD835" d="M55.77,15c0.24,1.78-0.07,3.1-0.82,4.63c-4.8,9.65-10.98,17.71-22,29.48"/>
			<path id="kvg:s-s4" stroke="#43A047" d="M48.25,37.25c1.25,1.25,1.68,2.75,1.68,4.98c0,7.3,0.03,33.17,0.05,46.4c0,4.48,0.01,7.51,0.01,7.88"/>
		</g>
		<path id="kvg:s-s5" stroke="#1E88E5" d="M78.18,16.75c0.06,0.93,0.03,1.66-0.22,2.44c-1.58,5.06-2.71,8.93-5.58,15.68"/>
		<path id="kvg:s-s6" stroke="#8E24AA" d="M50.76,39.35c7.09-0.93,26.89-3.05,36.78-4.28c2.43-0.3,4.2-0.53,4.95-0.66"/>
		<path id="kvg:s-s7" stroke="#EC407A" d="M71.42,38.74c0.86,0.86,1.27,2.01,1.27,3.62c0,6.77,0.04,41.89,0.04,46.83"/>
		<path id="kvg:s-s8" stroke="#00ACC1" d="M51.19,55.55c8.19-0.8,23.4-2.58,32.58-3.62c2.72-0.31,4.73-0.55,5.55-0.67"/>
		<path id="kvg:s-s9" stroke="#795548" d="M51.18,71.83c7.07-0.65,25.65-2.1,35.1-2.77c2.3-0.16,3.99-0.3,4.73-0.38"/>
		<path id="kvg:s-s10" stroke="#546E7A" d="M51.18,91.37c9.82-0.49,30.43-1.75,41.59-2.55c2.65-0.19,4.55-0.35,5.28-0.47"/>
	</g>
</g>
</g>
<g id="kvg:StrokeNumbers_051c6" style="font-size:18;font-weight:bold;stroke:#fff;stroke-width:1.5;paint-order:stroke">
	<text transform="matrix(1 0 0 1 9.75 25.63)" fill="#E53935">1</text>
	<text transform="matrix(1 0 0 1 5.25 91.25)" fill="#FB8C00">2</text>
	<text transform="matrix(1 0 0 1 46.75 16.38)" fill="#FDD835">3</text>
	<text transform="matrix(1 0 0 1 41.25 49.55)" fill="#43A047">4</text>
	<text transform="matrix(1 0 0 1 68.25 16.63)" fill="#1E88E5">5</text>
	<text transform="matrix(1 0 0 1 54.75 36.05)" fill="#8E24AA">6</text>
	<text transform="matrix(1 0 0 1 77.25 46.63)" fill="#EC407A">7</text>
	<text transform="matrix(1 0 0 1 54.75 52.55)" fill="#00ACC1">8</text>
	<text transform="matrix(1 0 0 1 54.75 68.98)" fill="#795548">9</text>
	<text transform="matrix(1 0 0 1 54.75 88.40)" fill="#546E7A">10</text>
</g>
</svg>
