<?xml version="1.0" encoding="UTF-8"?>
<svg xmlns="http://www.w3.org/2000/svg" width="109" height="109" viewBox="0 0 109 109">
<g id="kvg:StrokePaths_051dd" style="fill:none;stroke:#000000;stroke-width:3;stroke-linecap:round;stroke-linejoin:round;">
<g id="kvg:051dd">
	<g id="kvg:051dd-g1">
		<g id="kvg:051dd-g2">
			<path id="kvg:s-s1" stroke="#E53935" d="M14.28,22.75c2.62,1.8,6.76,7.4,7.41,10.21"/>
		</g>
		<g id="kvg:051dd-g3">
			<path id="kvg:s-s2" stroke="#FB8C00" d="M10.5,84.89c2,1.61,3.6,0.58,4.54-1.5c0.92-2.02,5.96-16.43,9.46-26.68"/>
		</g>
	</g>
	<g id="kvg:051dd-g4">
		<g id="kvg:051dd-g5">
			<g id="kvg:051dd-g6">
				<path id="kvg:s-s3" stroke="#FDD835" d="M52.01,16.75c0,0.88-0.51,1.5-1.22,1.93c-2.35,1.43-7.04,4.11-12.04,5.32"/>
				<path id="kvg:s-s4" stroke="#43A047" d="M35.18,11.75c0.78,0.79,1.06,1.62,1.06,2.68c0,0.54-0.12,14.67-0.12,16.32c0,4.87,1.12,5.82,8.44,5.82c7.43,0,8.65-1.2,8.65-5.15"/>
			</g>
			<g id="kvg:051dd-g7">
				<path id="kvg:s-s5" stroke="#1E88E5" d="M37.4,42.96c0.02,0.46,0.12,1.21-0.08,1.85c-1.32,4.31-3.57,10.31-7.98,16.84"/>
				<g id="kvg:051dd-g8">
					<path id="kvg:s-s6" stroke="#8E24AA" d="M36.19,53.79c0.77-0.08,1.86,0.02,3.12-0.18c3.75-0.58,8.84-1.76,12.37-2.17c1.24-0.15,2.03-0.19,2.66-0.08"/>
					<g id="kvg:051dd-g9">
						<path id="kvg:s-s7" stroke="#EC407A" d="M28.94,68.52c1.27,0.6,3.48,0.43,4.81,0.19c6.36-1.15,12.7-3.02,17.87-3.79c1.78-0.26,2.9-0.47,4.64,0"/>
						<path id="kvg:s-s8" stroke="#00ACC1" d="M43.17,54.48c0.61,0.61,0.66,1.63,0.54,2.74C42,73.75,37.25,84.25,27.36,91.91"/>
						<path id="kvg:s-s9" stroke="#795548" d="M43.62,72.25c3.67,2.12,6.2,7.07,7.78,10.6"/>
					</g>
				</g>
			</g>
		</g>
		<g id="kvg:051dd-g10">
			<g id="kvg:051dd-g11">
				<path id="kvg:s-s10" stroke="#546E7A" d="M58.73,17.74c1.14,0.9,3.74,0.48,5.11,0.18c5.26-1.12,19.52-4.17,21.37-4.48c2.18-0.36,3.46,1.45,2.54,3.02c-0.92,1.56-9.36,11.17-10.73,12.61"/>
				<path id="kvg:s-s11" stroke="#E53935" d="M70.85,27.73c1.69,0.72,6.45,3.79,7.24,5.67"/>
			</g>
			<g id="kvg:051dd-g12">
				<path id="kvg:s-s12" stroke="#FB8C00" d="M57.75,40.32c1.87,0.56,3.92,0.51,5.55,0.25c9.28-1.49,12.78-2.7,23.38-4.8c6.4-1.27,1.07,4.86-0.65,6.77"/>
				<g id="kvg:051dd-g13">
					<path id="kvg:s-s13" stroke="#FDD835" d="M73.91,41.16c0.84,0.84,1,1.84,1,3.15c0,0.67-0.03,30.13-0.03,35.69"/>
					<path id="kvg:s-s14" stroke="#43A047" d="M75.26,61.4c4.53-0.49,6.75-0.99,13.58-1.98c1.1-0.16,1.38-0.16,2.08,0"/>
				</g>
				<g id="kvg:051dd-g14">
					<path id="kvg:s-s15" stroke="#1E88E5" d="M63.77,56.11c0.61,1.02,0.58,2.37,0.42,3.55c-0.95,6.96-4.37,23.98-13.81,31.66"/>
					<path id="kvg:s-s16" stroke="#8E24AA" d="M62.29,69.47c3.59,2.99,16.46,14.79,23.73,20.88c2.11,1.77,4.11,3.27,7.34,4.87"/>
				</g>
			</g>
		</g>
	</g>
</g>
</g>
<g id="kvg:StrokeNumbers_051dd" style="font-size:18;font-weight:bold;stroke:#fff;stroke-width:1.5;paint-order:stroke">
	<text transform="matrix(1 0 0 1 8.50 23.50)" fill="#E53935">1</text>
	<text transform="matrix(1 0 0 1 3.75 89.50)" fill="#FB8C00">2</text>
	<text transform="matrix(1 0 0 1 44.25 13.63)" fill="#FDD835">3</text>
	<text transform="matrix(1 0 0 1 27.75 12.50)" fill="#43A047">4</text>
	<text transform="matrix(1 0 0 1 30.50 45.13)" fill="#1E88E5">5</text>
	<text transform="matrix(1 0 0 1 41.25 50.50)" fill="#8E24AA">6</text>
	<text transform="matrix(1 0 0 1 32.50 66.50)" fill="#EC407A">7</text>
	<text transform="matrix(1 0 0 1 37.50 60.50)" fill="#00ACC1">8</text>
	<text transform="matrix(1 0 0 1 48.75 74.50)" fill="#795548">9</text>
	<text transform="matrix(1 0 0 1 57.75 15.13)" fill="#546E7A">10</text>
	<text transform="matrix(1 0 0 1 66.75 26.50)" fill="#E53935">11</text>
	<text transform="matrix(1 0 0 1 56.50 38.50)" fill="#FB8C00">12</text>
	<text transform="matrix(1 0 0 1 65.50 48.50)" fill="#FDD835">13</text>
	<text transform="matrix(1 0 0 1 77.50 57.13)" fill="#43A047">14</text>
	<text transform="matrix(1 0 0 1 58.50 52.50)" fill="#1E88E5">15</text>
	<text transform="matrix(1 0 0 1 60.75 84.05)" fill="#8E24AA">16</text>
</g>
</svg>
