<?xml version="1.0" encoding="UTF-8"?>
<svg xmlns="http://www.w3.org/2000/svg" width="109" height="109" viewBox="0 0 109 109">
<g id="kvg:StrokePaths_05211" style="fill:none;stroke:#000000;stroke-width:3;stroke-linecap:round;stroke-linejoin:round;">
<g id="kvg:05211">
	<g id="kvg:05211-g1">
		<g id="kvg:05211-g2">
			<path id="kvg:s-s1" stroke="#E53935" d="M15.75,23.39c1.97,0.8,4.94,0.48,6.98,0.23c7.31-0.91,21.32-2.67,28.78-3.29c2.18-0.18,4.34-0.34,6.49,0.19"/>
			<g id="kvg:05211-g3">
				<path id="kvg:s-s2" stroke="#FB8C00" d="M11.75,50.64c2.16,0.88,5.4,0.42,7.65,0.13c8.6-1.12,26.45-3.44,35.35-4.32c2.4-0.24,5.14-0.26,7.5,0.32"/>
				<path id="kvg:s-s3" stroke="#FDD835" d="M28.22,25.82c1.23,1.23,1.4,2.69,1.44,4.5c0.84,40.93-2.53,51.8-14.91,62.93"/>
			</g>
		</g>
		<g id="kvg:05211-g4">
			<g id="kvg:05211-g5">
				<path id="kvg:s-s4" stroke="#43A047" d="M46.25,23.13c0.75,0.75,1.16,2.74,1.16,4.24c0,6.5-0.02,41.77-0.03,57.13c0,3.8,0,6.38,0,7"/>
			</g>
		</g>
	</g>
	<g id="kvg:05211-g6">
		<path id="kvg:s-s5" stroke="#1E88E5" d="M71.02,26.33c0.98,0.92,1.76,2.67,1.76,5.02c0,10.52,0.06,22.4,0.06,30.65c0,3.5-0.08,6.24-0.08,7.75"/>
		<path id="kvg:s-s6" stroke="#8E24AA" d="M90.77,15.83c1.2,1.2,1.76,2.67,1.76,5.02c0,14.56-0.01,62.41-0.01,67.37c0,8.12-5.52,5.41-9.96,0.75"/>
	</g>
</g>
</g>
<g id="kvg:StrokeNumbers_05211" style="font-size:18;font-weight:bold;stroke:#fff;stroke-width:1.5;paint-order:stroke">
	<text transform="matrix(1 0 0 1 9.75 24.13)" fill="#E53935">1</text>
	<text transform="matrix(1 0 0 1 3.75 51.50)" fill="#FB8C00">2</text>
	<text transform="matrix(1 0 0 1 21.75 34.63)" fill="#FDD835">3</text>
	<text transform="matrix(1 0 0 1 39.75 33.13)" fill="#43A047">4</text>
	<text transform="matrix(1 0 0 1 61.50 29.50)" fill="#1E88E5">5</text>
	<text transform="matrix(1 0 0 1 81.50 17.50)" fill="#8E24AA">6</text>
</g>
</svg>
