<?xml version="1.0" encoding="UTF-8"?>
<svg xmlns="http://www.w3.org/2000/svg" width="109" height="109" viewBox="0 0 109 109">
<g id="kvg:StrokePaths_05263" style="fill:none;stroke:#000000;stroke-width:3;stroke-linecap:round;stroke-linejoin:round;">
<g id="kvg:05263">
	<g id="kvg:05263-g1">
		<g id="kvg:05263-g2">
			<path id="kvg:s-s1" stroke="#E53935" d="M40.85,16c0.28,1-0.1,2.51-0.66,3.66c-3.24,6.73-12.19,20.32-26.74,32.94"/>
			<path id="kvg:s-s2" stroke="#FB8C00" d="M43,22.12c5.32,2.16,11.29,6.92,14.3,10.86"/>
		</g>
		<g id="kvg:05263-g3">
			<g id="kvg:05263-g4">
				<path id="kvg:s-s3" stroke="#FDD835" d="M28.53,42.84c0.37,0.24,2.59,0.41,3.58,0.31c4.26-0.41,10.39-1.53,16.96-2.67c0.99-0.17,2.33-0.24,2.95,0"/>
			</g>
			<g id="kvg:05263-g5">
				<path id="kvg:s-s4" stroke="#43A047" d="M23,56.24c0.75,0.75,1.06,1.65,1.22,2.34c1.03,4.54,1.35,6.01,2.23,9.87c0.3,1.31,0.59,2.7,0.85,4.23"/>
				<path id="kvg:s-s5" stroke="#1E88E5" d="M24.7,56.92c8.53-1.01,22.25-2.69,28.69-3.32c3.05-0.3,4.36,0.78,3.76,3.82c-0.74,3.72-1.12,4.91-2.25,8.15"/>
				<path id="kvg:s-s6" stroke="#8E24AA" d="M27.44,69.65c4.93-0.37,16.43-1.85,24.31-2.4c1.42-0.1,2.72-0.19,3.84-0.25"/>
			</g>
			<g id="kvg:05263-g6">
				<path id="kvg:s-s7" stroke="#EC407A" d="M40.11,45.57c0.66,0.66,1.04,1.98,1.04,3.8c0,24.28-3.27,35.38-22.4,46.13"/>
				<path id="kvg:s-s8" stroke="#00ACC1" d="M42.62,73.12C48.87,78.33,55.36,85.38,58,91.75"/>
			</g>
		</g>
	</g>
	<g id="kvg:05263-g7">
		<path id="kvg:s-s9" stroke="#795548" d="M69.52,33.08c1.08,1.08,1.51,2.54,1.51,4.77c0,9.6,0.17,17.92,0.08,23.9C71.05,64.84,71,67.31,71,69"/>
		<path id="kvg:s-s10" stroke="#546E7A" d="M89.52,15.83c1.14,1.14,1.51,2.67,1.51,4.77c0,14.56-0.01,64.41-0.01,69.37c0,13.14-7.21,1.5-8.71,0.25"/>
	</g>
</g>
</g>
<g id="kvg:StrokeNumbers_05263" style="font-size:18;font-weight:bold;stroke:#fff;stroke-width:1.5;paint-order:stroke">
	<text transform="matrix(1 0 0 1 31.25 18.13)" fill="#E53935">1</text>
	<text transform="matrix(1 0 0 1 48.25 21.63)" fill="#FB8C00">2</text>
	<text transform="matrix(1 0 0 1 36.75 39.13)" fill="#FDD835">3</text>
	<text transform="matrix(1 0 0 1 16.50 62.50)" fill="#43A047">4</text>
	<text transform="matrix(1 0 0 1 25.50 53.50)" fill="#1E88E5">5</text>
	<text transform="matrix(1 0 0 1 30.50 66.50)" fill="#8E24AA">6</text>
	<text transform="matrix(1 0 0 1 34.50 52.50)" fill="#EC407A">7</text>
	<text transform="matrix(1 0 0 1 50.50 77.50)" fill="#00ACC1">8</text>
	<text transform="matrix(1 0 0 1 63.25 30.63)" fill="#795548">9</text>
	<text transform="matrix(1 0 0 1 76.50 16.50)" fill="#546E7A">10</text>
</g>
</svg>
