<?xml version="1.0" encoding="UTF-8"?>
<svg xmlns="http://www.w3.org/2000/svg" width="109" height="109" viewBox="0 0 109 109">
<g id="kvg:StrokePaths_052b1" style="fill:none;stroke:#000000;stroke-width:3;stroke-linecap:round;stroke-linejoin:round;">
<g id="kvg:052b1">
	<g id="kvg:052b1-g1">
		<g id="kvg:052b1-g2">
			<path id="kvg:s-s1" stroke="#E53935" d="M16.87,21.34c2.5,0.66,5.39,0.27,7.13,0.06c8.15-0.98,17.26-2.07,25.9-3.2c1.89-0.25,4.65-0.54,6.48,0.12"/>
			<g id="kvg:052b1-g3">
				<path id="kvg:s-s2" stroke="#FB8C00" d="M20.65,22.78c1.04,1.04,1.19,2.35,1.19,3.95c0,17.52-0.34,46.27-10.53,59.49"/>
			</g>
		</g>
		<g id="kvg:052b1-g4">
			<g id="kvg:052b1-g5">
				<path id="kvg:s-s3" stroke="#FDD835" d="M25.16,40.15c1.72,0.48,4.4,0.22,5.85,0c5.19-0.78,13.36-2.31,18.86-2.89c1.88-0.2,3.75-0.4,5.58,0.16"/>
			</g>
			<path id="kvg:s-s4" stroke="#43A047" d="M38.27,51.59c4.48,1.16,7.98,1.66,11.77,1.84c2.37,0.11,3.25,1.53,2.88,3.31c-2.41,11.51-5.16,19.39-9.74,29.24c-3.27,7.03-5.83,0.18-6.79-0.4"/>
			<path id="kvg:s-s5" stroke="#1E88E5" d="M37.77,43.46c0.48,1.17,0.46,2.65,0.15,4.09c-1.67,7.7-6.8,26.45-18.44,38.62"/>
		</g>
	</g>
	<g id="kvg:052b1-g6">
		<path id="kvg:s-s6" stroke="#8E24AA" d="M61.49,38.75c2.01,0.88,4.44,1,6.26,0.77c7.37-0.95,16.23-2.43,20.84-3.23c3.83-0.67,5.69,0.28,5.29,4.35c-1.23,12.68-5.51,35.61-11.51,47.11c-3.66,7.02-6.15,0.34-7.25-0.75"/>
		<path id="kvg:s-s7" stroke="#EC407A" d="M76.96,15.93c0.66,0.95,0.87,2.46,0.6,4.44c-2.69,20.26-7.82,53.76-26.18,71.54"/>
	</g>
</g>
</g>
<g id="kvg:StrokeNumbers_052b1" style="font-size:18;font-weight:bold;stroke:#fff;stroke-width:1.5;paint-order:stroke">
	<text transform="matrix(1 0 0 1 19.25 19.25)" fill="#E53935">1</text>
	<text transform="matrix(1 0 0 1 14.25 31.25)" fill="#FB8C00">2</text>
	<text transform="matrix(1 0 0 1 26.25 37.25)" fill="#FDD835">3</text>
	<text transform="matrix(1 0 0 1 43.25 50.25)" fill="#43A047">4</text>
	<text transform="matrix(1 0 0 1 30.25 49.25)" fill="#1E88E5">5</text>
	<text transform="matrix(1 0 0 1 60.25 35.88)" fill="#8E24AA">6</text>
	<text transform="matrix(1 0 0 1 68.00 16.25)" fill="#EC407A">7</text>
</g>
</svg>
