<?xml version="1.0" encoding="UTF-8"?>
<svg xmlns="http://www.w3.org/2000/svg" width="109" height="109" viewBox="0 0 109 109">
<g id="kvg:StrokePaths_0533f" style="fill:none;stroke:#000000;stroke-width:3;stroke-linecap:round;stroke-linejoin:round;">
<g id="kvg:0533f">
	<g id="kvg:0533f-g1">
		<path id="kvg:s-s1" stroke="#E53935" d="M20.63,20.48c3.4,1.21,7.11,0.46,10.63,0.24c14.54-0.91,34.6-2.38,50.5-3.64c3.08-0.24,5.84-0.4,8.87,0.25"/>
	</g>
	<g id="kvg:0533f-g2">
		<g id="kvg:0533f-g3">
			<path id="kvg:s-s2" stroke="#FB8C00" d="M34.41,38.73c2.09,0.64,4.51,0.55,6.48,0.34c9.58-1.03,27.98-3.25,37.73-3.73c1.95-0.1,3.92-0.2,5.82,0.34"/>
			<path id="kvg:s-s3" stroke="#FDD835" d="M46.83,27.16c0.88,0.88,1.05,1.59,1.14,2.83c0.61,8.5,1.04,11.25,1.45,16.24"/>
			<path id="kvg:s-s4" stroke="#43A047" d="M69.35,25.77c0.27,0.74,0.4,1.62,0.16,2.76c-1.45,6.7-2.63,10.97-4.19,16.36"/>
		</g>
		<g id="kvg:0533f-g4">
			<path id="kvg:s-s5" stroke="#1E88E5" d="M57.66,46.2c0.22,0.92,0.03,1.71-0.3,2.47C54.25,55.75,49.38,63,39.7,70.77"/>
			<path id="kvg:s-s6" stroke="#8E24AA" d="M31.82,56.05c2.19,0.84,4.46,0.43,6.7,0.17c12.33-1.41,30.37-3.43,39.74-3.92c2.34-0.12,4.61-0.15,6.91,0.4"/>
			<g id="kvg:0533f-g5">
				<path id="kvg:s-s7" stroke="#EC407A" d="M48.75,66.47c0.54,0.73,0.85,1.54,0.93,2.42c0.46,2.4,1.21,5.93,1.54,8.84c0.18,1.56,0.29,2.79,0.29,3.27"/>
				<path id="kvg:s-s8" stroke="#00ACC1" d="M50.18,67.4c6.2-0.9,19.9-2.68,23.96-3.15c2.28-0.27,3.71,0.49,2.88,2.83c-0.89,2.49-1.72,5.52-2.42,8.5"/>
				<path id="kvg:s-s9" stroke="#795548" d="M52.69,78.69c4.93-0.57,12.87-1.32,19.31-1.71c1.65-0.1,3.09-0.16,4.15-0.16"/>
			</g>
		</g>
	</g>
	<g id="kvg:0533f-g6">
		<path id="kvg:s-s10" stroke="#546E7A" d="M22.5,21.25c0.81,0.81,1.13,2.12,1.13,3.53c0,10.72-0.63,59.1-0.63,62.97c0,3.14,1,4.2,4,3.85c20.04-2.39,49.67-3.34,57.5-3.1c3.25,0.1,6,0.75,8,1.25"/>
	</g>
</g>
</g>
<g id="kvg:StrokeNumbers_0533f" style="font-size:18;font-weight:bold;stroke:#fff;stroke-width:1.5;paint-order:stroke">
	<text transform="matrix(1 0 0 1 26.50 17.50)" fill="#E53935">1</text>
	<text transform="matrix(1 0 0 1 30.50 36.50)" fill="#FB8C00">2</text>
	<text transform="matrix(1 0 0 1 37.50 29.50)" fill="#FDD835">3</text>
	<text transform="matrix(1 0 0 1 60.50 28.50)" fill="#43A047">4</text>
	<text transform="matrix(1 0 0 1 51.50 45.50)" fill="#1E88E5">5</text>
	<text transform="matrix(1 0 0 1 31.50 53.50)" fill="#8E24AA">6</text>
	<text transform="matrix(1 0 0 1 43.50 77.50)" fill="#EC407A">7</text>
	<text transform="matrix(1 0 0 1 55.50 64.50)" fill="#00ACC1">8</text>
	<text transform="matrix(1 0 0 1 55.50 75.50)" fill="#795548">9</text>
	<text transform="matrix(1 0 0 1 12.50 28.50)" fill="#546E7A">10</text>
</g>
</svg>
