<?xml version="1.0" encoding="UTF-8"?>
<svg xmlns="http://www.w3.org/2000/svg" width="109" height="109" viewBox="0 0 109 109">
<g id="kvg:StrokePaths_05374" style="fill:none;stroke:#000000;stroke-width:3;stroke-linecap:round;stroke-linejoin:round;">
<g id="kvg:05374">
	<g id="kvg:05374-g1">
		<g id="kvg:05374-g2">
			<path id="kvg:s-s1" stroke="#E53935" d="M18.08,32.59c1.38,0.68,3.98,0.46,5.46,0.32c7.09-0.66,16.34-2.66,25.32-3.86c1.57-0.21,3.01-0.31,4.51-0.08"/>
			<path id="kvg:s-s2" stroke="#FB8C00" d="M36.8,13.25c0.85,0.85,1.13,2.11,1.13,3.77c0,8.98-0.05,29.01-0.05,31.73"/>
			<path id="kvg:s-s3" stroke="#FDD835" d="M13.25,52.75c2.75,0.88,5.62,0.44,7.9,0.07c10.07-1.63,21.89-3.96,30.36-4.79c2.44-0.24,4.85-0.52,7.23,0.19"/>
		</g>
		<g id="kvg:05374-g3">
			<path id="kvg:s-s4" stroke="#43A047" d="M36.47,53.88c0.16,1.37,0.03,2.24-0.71,3.53c-4.82,8.33-8.12,12.61-13.49,19.6c-1.68,2.19-1.18,3.96,1.5,3.16c7.11-2.13,16.06-4.88,26.36-8.15"/>
			<path id="kvg:s-s5" stroke="#1E88E5" d="M45.15,62.85c3.56,2.85,9.21,11.72,10.1,16.15"/>
		</g>
	</g>
	<g id="kvg:05374-g4">
		<path id="kvg:s-s6" stroke="#8E24AA" d="M66.24,28.27c1.51,0.48,4.03,0.62,5.4,0.5c2.86-0.27,16.26-2.72,17.95-3.03c3.29-0.61,5.12,0.52,4.92,3.45c-0.64,9.45-2.89,28.45-6.66,40.61c-2.75,8.88-6.96,1.54-7.47,1.12"/>
		<path id="kvg:s-s7" stroke="#EC407A" d="M67.8,29.31c1.01,1.01,1.06,2.19,1.06,3.69c0,8.64,0.01,39.64,0.01,54.87c0,4.28,0,7.28,0,8.12"/>
	</g>
</g>
</g>
<g id="kvg:StrokeNumbers_05374" style="font-size:18;font-weight:bold;stroke:#fff;stroke-width:1.5;paint-order:stroke">
	<text transform="matrix(1 0 0 1 11.50 33.50)" fill="#E53935">1</text>
	<text transform="matrix(1 0 0 1 27.75 13.63)" fill="#FB8C00">2</text>
	<text transform="matrix(1 0 0 1 6.75 54.13)" fill="#FDD835">3</text>
	<text transform="matrix(1 0 0 1 24.75 61.63)" fill="#43A047">4</text>
	<text transform="matrix(1 0 0 1 38.50 67.50)" fill="#1E88E5">5</text>
	<text transform="matrix(1 0 0 1 70.50 26.50)" fill="#8E24AA">6</text>
	<text transform="matrix(1 0 0 1 61.50 37.50)" fill="#EC407A">7</text>
</g>
</svg>
