<?xml version="1.0" encoding="UTF-8"?>
<svg xmlns="http://www.w3.org/2000/svg" width="109" height="109" viewBox="0 0 109 109">
<g id="kvg:StrokePaths_053cc" style="fill:none;stroke:#000000;stroke-width:3;stroke-linecap:round;stroke-linejoin:round;">
<g id="kvg:053cc">
	<g id="kvg:053cc-g1">
		<path id="kvg:s-s1" stroke="#E53935" d="M14.54,31.55c1.18,0.39,3.06,0.63,5.45,0.14c3.01-0.62,12.57-3.5,17.06-4.8c2.72-0.79,5.3,0.19,4.5,3.52C36.6,51.15,28.75,71,9.17,84.5"/>
		<path id="kvg:s-s2" stroke="#FB8C00" d="M19.12,46c8.38,5.38,18.28,14.69,24.12,26.25"/>
	</g>
	<g id="kvg:053cc-g2">
		<path id="kvg:s-s3" stroke="#FDD835" d="M52.29,28.05c1.18,0.39,3.8,0.58,6.2,0.14c4.39-0.82,16.12-4.39,17.75-4.97c2.76-0.98,5.16,0.87,4.22,4.02c-7.21,24.12-18.33,45.62-38.21,58"/>
		<path id="kvg:s-s4" stroke="#43A047" d="M51.02,39.66c5.18,0.95,19.74,22.79,33.04,36.29c3.45,3.5,7.09,6.62,11.28,9.2"/>
	</g>
</g>
</g>
<g id="kvg:StrokeNumbers_053cc" style="font-size:18;font-weight:bold;stroke:#fff;stroke-width:1.5;paint-order:stroke">
	<text transform="matrix(1 0 0 1 13.50 28.50)" fill="#E53935">1</text>
	<text transform="matrix(1 0 0 1 17.50 42.50)" fill="#FB8C00">2</text>
	<text transform="matrix(1 0 0 1 51.50 25.50)" fill="#FDD835">3</text>
	<text transform="matrix(1 0 0 1 55.50 40.55)" fill="#43A047">4</text>
</g>
</svg>
