<?xml version="1.0" encoding="UTF-8"?>
<svg xmlns="http://www.w3.org/2000/svg" width="109" height="109" viewBox="0 0 109 109">
<g id="kvg:StrokePaths_053eb" style="fill:none;stroke:#000000;stroke-width:3;stroke-linecap:round;stroke-linejoin:round;">
<g id="kvg:053eb">
	<g id="kvg:053eb-g1">
		<path id="kvg:s-s1" stroke="#E53935" d="M12.75,31.14c1.12,1.12,1.66,2.41,2.04,4.2c1.16,5.48,2.52,14.7,3.56,22.87c0.27,2.13,0.5,4.18,0.68,6.04"/>
		<path id="kvg:s-s2" stroke="#FB8C00" d="M15.01,32.99c8.25-1.79,16.49-3.35,21.77-4.31c4.14-0.75,5.39,0.45,4.74,4.72c-0.96,6.33-2.07,13.86-3.45,22.18"/>
		<path id="kvg:s-s3" stroke="#FDD835" d="M19.97,59.76c4.44-0.68,9.23-1.5,15.28-2.56c1.51-0.27,3.29-0.53,4.81-0.79"/>
	</g>
	<g id="kvg:053eb-g2">
		<path id="kvg:s-s4" stroke="#43A047" d="M56.12,23.5c1.07,1.06,1.46,2.38,1.46,4c0,1.02,0.03,28.5,0.03,36.75"/>
		<path id="kvg:s-s5" stroke="#1E88E5" d="M48.75,65.65c2.64,0.62,5.77,0.41,8.44-0.11c8.25-1.58,23.94-5.67,35.06-6.94c1.8-0.21,4.38-0.22,6.5,0.13"/>
		<g id="kvg:053eb-g3">
			<path id="kvg:s-s6" stroke="#8E24AA" d="M79.62,13.25c0.94,0.94,1.46,2.5,1.46,3.75c0,0.7,0.02,50.55,0.03,71.25c0,4.87,0,8.13,0,8.75"/>
		</g>
	</g>
</g>
</g>
<g id="kvg:StrokeNumbers_053eb" style="font-size:18;font-weight:bold;stroke:#fff;stroke-width:1.5;paint-order:stroke">
	<text transform="matrix(1 0 0 1 7.50 39.50)" fill="#E53935">1</text>
	<text transform="matrix(1 0 0 1 16.50 28.50)" fill="#FB8C00">2</text>
	<text transform="matrix(1 0 0 1 22.50 55.55)" fill="#FDD835">3</text>
	<text transform="matrix(1 0 0 1 45.50 23.50)" fill="#43A047">4</text>
	<text transform="matrix(1 0 0 1 39.75 67.50)" fill="#1E88E5">5</text>
	<text transform="matrix(1 0 0 1 70.25 13.50)" fill="#8E24AA">6</text>
</g>
</svg>
