<?xml version="1.0" encoding="UTF-8"?>
<svg xmlns="http://www.w3.org/2000/svg" width="109" height="109" viewBox="0 0 109 109">
<g id="kvg:StrokePaths_0540f" style="fill:none;stroke:#000000;stroke-width:3;stroke-linecap:round;stroke-linejoin:round;">
<g id="kvg:0540f">
	<g id="kvg:0540f-g1">
		<g id="kvg:0540f-g2">
			<path id="kvg:s-s1" stroke="#E53935" d="M23.51,27.95c3.24,0.55,6.34,0.2,9.25-0.14c10.64-1.25,32.38-3.74,42.88-4.71c2.71-0.25,5.58-0.3,8.24,0.27"/>
		</g>
	</g>
	<g id="kvg:0540f-g3">
		<path id="kvg:s-s2" stroke="#FB8C00" d="M29.56,40.03c0.89,0.89,1.39,1.53,1.55,2.52c0.89,2.98,1.59,8.54,2.16,13.19c0.19,1.57,0.4,3.09,0.64,4.47"/>
		<path id="kvg:s-s3" stroke="#FDD835" d="M31.86,41.95c10.86-1.2,34.82-3.35,43.53-4.12c3.44-0.3,5.45,0.66,4.39,4.42c-0.97,3.43-1.5,5.12-3.4,12.32"/>
		<path id="kvg:s-s4" stroke="#43A047" d="M34.35,57.97c5.65-0.46,28.03-1.69,39.67-2.31c2.11-0.11,4.11-0.05,5.18-0.05"/>
	</g>
	<g id="kvg:0540f-g4">
		<g id="kvg:0540f-g5">
			<g id="kvg:0540f-g6">
				<path id="kvg:s-s5" stroke="#1E88E5" d="M53.9,11.68c1.27,1.27,1.39,2.95,1.45,5.7C56.62,70.62,54.25,81.5,19.46,98"/>
			</g>
			<path id="kvg:s-s6" stroke="#8E24AA" d="M34.31,66.53c5.61-0.03,28.83,17.26,45,25.72c3.66,1.91,6.44,3.25,11.23,4.69"/>
		</g>
	</g>
</g>
</g>
<g id="kvg:StrokeNumbers_0540f" style="font-size:18;font-weight:bold;stroke:#fff;stroke-width:1.5;paint-order:stroke">
	<text transform="matrix(1 0 0 1 16.25 29.25)" fill="#E53935">1</text>
	<text transform="matrix(1 0 0 1 23.25 48.25)" fill="#FB8C00">2</text>
	<text transform="matrix(1 0 0 1 33.25 38.25)" fill="#FDD835">3</text>
	<text transform="matrix(1 0 0 1 38.25 54.25)" fill="#43A047">4</text>
	<text transform="matrix(1 0 0 1 45.50 13.38)" fill="#1E88E5">5</text>
	<text transform="matrix(1 0 0 1 27.50 70.25)" fill="#8E24AA">6</text>
</g>
</svg>
