<?xml version="1.0" encoding="UTF-8"?>
<svg xmlns="http://www.w3.org/2000/svg" width="109" height="109" viewBox="0 0 109 109">
<g id="kvg:StrokePaths_0540c" style="fill:none;stroke:#000000;stroke-width:3;stroke-linecap:round;stroke-linejoin:round;">
<g id="kvg:0540c">
	<g id="kvg:0540c-g1">
		<path id="kvg:s-s1" stroke="#E53935" d="M21.67,16.73c1.08,1.27,1.69,3.02,1.69,5.32c0,4.15-0.19,49.87-0.25,67.2c-0.01,3.37-0.02,5.63-0.02,6.25"/>
		<path id="kvg:s-s2" stroke="#FB8C00" d="M24.04,19.17c15.63-1.45,57.69-4.83,59.24-5c3.88-0.42,5.19,1.58,5.19,4.37c0,2.54-0.26,65.26-0.26,71.1c0,12.6-5.08,4.85-7.96,2.05"/>
	</g>
	<g id="kvg:0540c-g2">
		<path id="kvg:s-s3" stroke="#FDD835" d="M37.38,33.92c1.35,0.38,3.82,0.54,5.16,0.38c6.96-0.8,18.96-2.05,25.62-2.63c2.23-0.2,3.59,0.18,4.71,0.37"/>
	</g>
	<g id="kvg:0540c-g3">
		<path id="kvg:s-s4" stroke="#43A047" d="M38.83,48.39c0.82,0.55,1.53,1.56,1.76,2.49c1.15,4.62,2.13,10.46,3.01,16.32c0.27,1.8,0.52,2.78,0.76,4.3"/>
		<path id="kvg:s-s5" stroke="#1E88E5" d="M41.44,49.72c9.31-1.22,20.85-2.46,26.25-3.06c2.2-0.24,3.53,1.44,3.21,2.87c-1.09,4.92-2.33,9.95-3.83,16.33"/>
		<path id="kvg:s-s6" stroke="#8E24AA" d="M45.09,69.33c5.52-0.48,12.6-1.51,20.15-2.26c1.19-0.12,2.51-0.07,3.84-0.1"/>
	</g>
</g>
</g>
<g id="kvg:StrokeNumbers_0540c" style="font-size:18;fill:#E53935;font-weight:bold;stroke:#fff;stroke-width:1.5;paint-order:stroke">
	<text transform="matrix(1 0 0 1 15.50 26.50)" fill="#E53935">1</text>
	<text transform="matrix(1 0 0 1 27.50 15.50)" fill="#FB8C00">2</text>
	<text transform="matrix(1 0 0 1 29.50 35.50)" fill="#FDD835">3</text>
	<text transform="matrix(1 0 0 1 32.50 55.63)" fill="#43A047">4</text>
	<text transform="matrix(1 0 0 1 42.50 46.50)" fill="#1E88E5">5</text>
	<text transform="matrix(1 0 0 1 48.75 66.13)" fill="#8E24AA">6</text>
</g>
</svg>
