<?xml version="1.0" encoding="UTF-8"?>
<svg xmlns="http://www.w3.org/2000/svg" width="109" height="109" viewBox="0 0 109 109">
<g id="kvg:StrokePaths_0542b" style="fill:none;stroke:#000000;stroke-width:3;stroke-linecap:round;stroke-linejoin:round;">
<g id="kvg:0542b">
	<g id="kvg:0542b-g1">
		<g id="kvg:0542b-g2">
			<path id="kvg:s-s1" stroke="#E53935" d="M53.17,11.25c0.1,1.09,0.01,2.92-0.71,4.39C47.5,25.75,35,43.64,14.5,57.86"/>
			<path id="kvg:s-s2" stroke="#FB8C00" d="M54.16,17.65C60,23.62,73.5,36.25,84.31,45.7c3.28,2.87,7.31,5.3,11.69,7.05"/>
		</g>
		<g id="kvg:0542b-g3">
			<g id="kvg:0542b-g4">
				<path id="kvg:s-s3" stroke="#FDD835" d="M40.48,41.84c0.38,0.18,2.71,0.19,3.1,0.18c3.97-0.2,14.8-2.04,18.71-2.02c0.63,0,3.29,0.08,3.61,0.17"/>
			</g>
			<path id="kvg:s-s4" stroke="#43A047" d="M30.5,55.24c1.5,0.51,4.06,0.73,6.5,0.5C45,55,58.25,53,67.24,51.88c4.02-0.5,5.04,0.73,2.26,3.87c-5.75,6.5-8.75,9.12-18,18.75"/>
		</g>
	</g>
	<g id="kvg:0542b-g5">
		<path id="kvg:s-s5" stroke="#1E88E5" d="M33.68,75.7c0.98,0.97,1.6,1.87,1.88,3.17c1.07,5.01,2.24,9.46,3.06,14.87c0.31,2.01,0.59,3.97,0.83,5.73"/>
		<path id="kvg:s-s6" stroke="#8E24AA" d="M36.31,77.37c9.36-1.42,25.15-3.24,32.44-4.07c4.69-0.53,6.02,1.16,4.59,5.6c-1.47,4.59-2.29,8.11-4.14,14.74"/>
		<path id="kvg:s-s7" stroke="#EC407A" d="M40.37,97.48c5-0.53,17.06-1.66,25.89-2.43c2.26-0.2,4.28-0.37,5.91-0.51"/>
	</g>
</g>
</g>
<g id="kvg:StrokeNumbers_0542b" style="font-size:18;font-weight:bold;stroke:#fff;stroke-width:1.5;paint-order:stroke">
	<text transform="matrix(1 0 0 1 42.75 16.63)" fill="#E53935">1</text>
	<text transform="matrix(1 0 0 1 65.25 21.13)" fill="#FB8C00">2</text>
	<text transform="matrix(1 0 0 1 47.25 37.55)" fill="#FDD835">3</text>
	<text transform="matrix(1 0 0 1 35.25 52.48)" fill="#43A047">4</text>
	<text transform="matrix(1 0 0 1 27.75 83.90)" fill="#1E88E5">5</text>
	<text transform="matrix(1 0 0 1 39.75 72.13)" fill="#8E24AA">6</text>
	<text transform="matrix(1 0 0 1 44.25 94.55)" fill="#EC407A">7</text>
</g>
</svg>
