<?xml version="1.0" encoding="UTF-8"?>
<svg xmlns="http://www.w3.org/2000/svg" width="109" height="109" viewBox="0 0 109 109">
<g id="kvg:StrokePaths_05448" style="fill:none;stroke:#000000;stroke-width:3;stroke-linecap:round;stroke-linejoin:round;">
<g id="kvg:05448">
	<g id="kvg:05448-g1">
		<path id="kvg:s-s1" stroke="#E53935" d="M28.71,19.08c0.89,0.59,1.45,1.4,1.68,2.42c1.36,4.62,2.71,9.67,4.11,16.5c0.28,1.37,0.56,2.78,0.84,4.21"/>
		<path id="kvg:s-s2" stroke="#FB8C00" d="M31.03,20.45c11.23-1.56,33.93-4,41.99-4.79c3.06-0.3,5.53,0.85,4.56,4.26c-1.28,4.5-3.05,8.27-5.72,14.96"/>
		<path id="kvg:s-s3" stroke="#FDD835" d="M35.83,39.33c7.17-0.95,22.87-2.46,33.41-3.41c1.85-0.17,3.51-0.31,4.89-0.4"/>
	</g>
	<g id="kvg:05448-g2">
		<path id="kvg:s-s4" stroke="#43A047" d="M29,53.97c2.88,0.41,5.88,0.14,8.12-0.14c7.65-0.98,25.12-2.7,35.27-3.42c2.23-0.16,4.98-0.28,7.11,0.35"/>
		<path id="kvg:s-s5" stroke="#1E88E5" d="M53,54.75c0.88,0.88,1.25,1.75,1.25,3.25c0,7,0,22.38,0,29.5"/>
		<path id="kvg:s-s6" stroke="#8E24AA" d="M29.25,70.25c2.5,0.62,6.43,0.36,8.39,0.15c9.26-0.96,22.62-2.68,32.87-3.63c2.82-0.26,6.25-0.4,8.75,0.23"/>
		<path id="kvg:s-s7" stroke="#EC407A" d="M15.75,90.49c3.07,1.06,7.09,0.77,10.25,0.52c20.4-1.58,37.09-3.35,57.63-4.17c3.43-0.14,7.35,0.09,10.62,1.4"/>
	</g>
</g>
</g>
<g id="kvg:StrokeNumbers_05448" style="font-size:18;font-weight:bold;stroke:#fff;stroke-width:1.5;paint-order:stroke">
	<text transform="matrix(1 0 0 1 24.75 27.50)" fill="#E53935">1</text>
	<text transform="matrix(1 0 0 1 32.25 16.63)" fill="#FB8C00">2</text>
	<text transform="matrix(1 0 0 1 38.50 34.55)" fill="#FDD835">3</text>
	<text transform="matrix(1 0 0 1 21.50 53.50)" fill="#43A047">4</text>
	<text transform="matrix(1 0 0 1 46.50 62.90)" fill="#1E88E5">5</text>
	<text transform="matrix(1 0 0 1 21.75 70.50)" fill="#8E24AA">6</text>
	<text transform="matrix(1 0 0 1 9.50 88.50)" fill="#EC407A">7</text>
</g>
</svg>
