<?xml version="1.0" encoding="UTF-8"?>
<svg xmlns="http://www.w3.org/2000/svg" width="109" height="109" viewBox="0 0 109 109">
<g id="kvg:StrokePaths_05442" style="fill:none;stroke:#000000;stroke-width:3;stroke-linecap:round;stroke-linejoin:round;">
<g id="kvg:05442">
	<g id="kvg:05442-g1">
		<path id="kvg:s-s1" stroke="#E53935" d="M28.3,17.97c1.02,0.89,1.54,1.55,1.88,2.93c1.36,5.69,2.52,12.28,3.89,19.26c0.34,1.73,0.69,3.47,1.06,5.24"/>
		<path id="kvg:s-s2" stroke="#FB8C00" d="M30.99,19.31c11.74-1.08,30.48-3.06,38.31-3.74c3.71-0.32,5.72,0.98,4.98,4.71c-1.16,5.84-2.16,9.59-4.16,18.73"/>
		<path id="kvg:s-s3" stroke="#FDD835" d="M35.6,43.23c5.77-0.5,21.08-1.93,31.29-2.74c2.2-0.17,4.17-0.32,5.75-0.42"/>
	</g>
	<g id="kvg:05442-g2">
		<g id="kvg:05442-g3">
			<path id="kvg:s-s4" stroke="#43A047" d="M51.58,45.43c0.29,0.94,0.17,1.82-0.58,3.32c-1.68,3.36-5.5,9.62-7.81,13.14"/>
		</g>
		<g id="kvg:05442-g4">
			<path id="kvg:s-s5" stroke="#1E88E5" d="M25.59,64.27c0.91,1.11,1.42,2.03,1.64,3.52c1.09,7.14,2.18,14,3.37,21.7c0.32,2.1,0.65,4.25,0.99,6.5"/>
			<path id="kvg:s-s6" stroke="#8E24AA" d="M27.63,65.88c16.51-1.72,38.75-3.64,48.25-4.29c4.26-0.29,6.97,1.54,5.97,6.16c-1.46,6.75-2.34,11.5-4.34,22.07"/>
			<path id="kvg:s-s7" stroke="#EC407A" d="M32.45,93.64c7.47-0.4,27.3-1.81,40.42-2.49c2.75-0.14,5.2-0.26,7.19-0.32"/>
		</g>
	</g>
</g>
</g>
<g id="kvg:StrokeNumbers_05442" style="font-size:18;font-weight:bold;stroke:#fff;stroke-width:1.5;paint-order:stroke">
	<text transform="matrix(1 0 0 1 23.00 25.38)" fill="#E53935">1</text>
	<text transform="matrix(1 0 0 1 33.67 15.64)" fill="#FB8C00">2</text>
	<text transform="matrix(1 0 0 1 39.00 39.23)" fill="#FDD835">3</text>
	<text transform="matrix(1 0 0 1 41.00 50.82)" fill="#43A047">4</text>
	<text transform="matrix(1 0 0 1 19.67 73.08)" fill="#1E88E5">5</text>
	<text transform="matrix(1 0 0 1 29.00 62.67)" fill="#8E24AA">6</text>
	<text transform="matrix(1 0 0 1 35.67 90.26)" fill="#EC407A">7</text>
</g>
</svg>
