<?xml version="1.0" encoding="UTF-8"?>
<svg xmlns="http://www.w3.org/2000/svg" width="109" height="109" viewBox="0 0 109 109">
<g id="kvg:StrokePaths_05468" style="fill:none;stroke:#000000;stroke-width:3;stroke-linecap:round;stroke-linejoin:round;">
<g id="kvg:05468">
	<g id="kvg:05468-g1">
		<path id="kvg:s-s1" stroke="#E53935" d="M25.25,16c1.12,1.12,1.46,2.74,1.5,5c0.5,32,0.5,59-13.5,73.75"/>
		<path id="kvg:s-s2" stroke="#FB8C00" d="M27.25,17.75c8.39-0.88,41.3-3.77,50.11-4.57c5.74-0.52,7.62-0.19,7.64,5.94c0.03,9.63,0,63.78,0,69.13c0,12.25-6.25,4-8.83,1.42"/>
	</g>
	<g id="kvg:05468-g2">
		<g id="kvg:05468-g3">
			<path id="kvg:s-s3" stroke="#FDD835" d="M37.72,33.48c1.42,0.45,4.02,0.38,5.44,0.27c4.6-0.35,18.83-2.53,24.51-2.75c2.36-0.09,3.78,0.08,4.96,0.28"/>
			<path id="kvg:s-s4" stroke="#43A047" d="M53.72,21.42c0.81,0.81,1.25,2.2,1.25,3.49c0,4.34,0.07,16.84,0.07,22.62"/>
			<path id="kvg:s-s5" stroke="#1E88E5" d="M35.32,49.5c2.06,0.38,4.63,0.25,6.7,0.07c8.03-0.69,15.82-1.8,26.86-2.48c2.32-0.14,4.74-0.22,7.05,0.13"/>
		</g>
		<g id="kvg:05468-g4">
			<path id="kvg:s-s6" stroke="#8E24AA" d="M39.88,62.12c0.81,0.74,1.43,2.17,1.62,3.26c0.84,4.98,1.5,9.36,2.34,14.6c0.17,1.07,0.35,2.17,0.54,3.32"/>
			<path id="kvg:s-s7" stroke="#EC407A" d="M42.35,64.25c5.96-0.92,15.55-2.27,20.89-2.82c3.28-0.34,4.88,1.2,4.39,3.86c-0.72,3.9-1.64,8.07-2.9,12.59"/>
			<path id="kvg:s-s8" stroke="#00ACC1" d="M45.15,80.68c3.46-0.46,11.71-1.14,17.85-1.52c1.35-0.08,2.57-0.14,3.58-0.16"/>
		</g>
	</g>
</g>
</g>
<g id="kvg:StrokeNumbers_05468" style="font-size:18;fill:#E53935;font-weight:bold;stroke:#fff;stroke-width:1.5;paint-order:stroke">
	<text transform="matrix(1 0 0 1 19.50 24.50)" fill="#E53935">1</text>
	<text transform="matrix(1 0 0 1 30.75 14.50)" fill="#FB8C00">2</text>
	<text transform="matrix(1 0 0 1 35.25 30.13)" fill="#FDD835">3</text>
	<text transform="matrix(1 0 0 1 59.50 25.63)" fill="#43A047">4</text>
	<text transform="matrix(1 0 0 1 33.50 46.63)" fill="#1E88E5">5</text>
	<text transform="matrix(1 0 0 1 34.50 71.50)" fill="#8E24AA">6</text>
	<text transform="matrix(1 0 0 1 43.50 61.63)" fill="#EC407A">7</text>
	<text transform="matrix(1 0 0 1 47.50 77.50)" fill="#00ACC1">8</text>
</g>
</svg>
