<?xml version="1.0" encoding="UTF-8"?>
<svg xmlns="http://www.w3.org/2000/svg" width="109" height="109" viewBox="0 0 109 109">
<g id="kvg:StrokePaths_0547d" style="fill:none;stroke:#000000;stroke-width:3;stroke-linecap:round;stroke-linejoin:round;">
<g id="kvg:0547d">
	<g id="kvg:0547d-g1">
		<g id="kvg:0547d-g2">
			<path id="kvg:s-s1" stroke="#E53935" d="M51.75,10.25c0.11,1-0.06,2.67-0.71,4.02c-4.47,9.23-17.06,25.98-38.79,38.48"/>
			<path id="kvg:s-s2" stroke="#FB8C00" d="M53.5,15c7.12,7,22.89,20.46,30.6,26.65c2.82,2.26,5.65,4.22,9.15,5.72"/>
		</g>
		<g id="kvg:0547d-g3">
			<path id="kvg:s-s3" stroke="#FDD835" d="M38.25,40.64c1.76,0.72,3.84,0.36,5.65,0.14c5.4-0.66,13.08-1.76,18.48-2.24c1.88-0.17,3.54-0.23,5.37,0.21"/>
		</g>
	</g>
	<g id="kvg:0547d-g4">
		<g id="kvg:0547d-g5">
			<path id="kvg:s-s4" stroke="#43A047" d="M21.2,54.29c1.01,1.01,1.59,2.26,1.67,3.43c0.9,3.88,1.77,10.12,2.4,15.89c0.16,1.43,0.3,2.79,0.42,4.04"/>
			<path id="kvg:s-s5" stroke="#1E88E5" d="M23.92,56.51c10.83-1.76,15.42-2.18,20.28-2.65c1.78-0.17,2.79,1.16,2.49,2.28c-1.23,4.63-1.67,9.73-3.48,16.13"/>
			<path id="kvg:s-s6" stroke="#8E24AA" d="M26.02,75.17c4.77-0.44,9.31-1.17,15.25-1.89c1.17-0.14,2.39-0.28,3.68-0.42"/>
		</g>
		<g id="kvg:0547d-g6">
			<path id="kvg:s-s7" stroke="#EC407A" d="M54,54c0.61,0.15,3,1,4.21,0.87c3.29-0.37,17.99-4.02,19.51-4.17c1.52-0.15,4.28-0.29,3.95,2.89c-0.43,4.17-2.68,16.92-6,23.84c-1.89,3.94-3.18,3.45-6.23,0.46"/>
			<path id="kvg:s-s8" stroke="#00ACC1" d="M57.38,55.38c0.87,0.87,1.8,2,1.8,3.5c0,7.36-0.04,24.53-0.1,34.13c-0.02,3.3-0.05,5.71-0.08,6.51"/>
		</g>
	</g>
</g>
</g>
<g id="kvg:StrokeNumbers_0547d" style="font-size:18;fill:#E53935;font-weight:bold;stroke:#fff;stroke-width:1.5;paint-order:stroke">
	<text transform="matrix(1 0 0 1 43.50 14.50)" fill="#E53935">1</text>
	<text transform="matrix(1 0 0 1 61.50 17.50)" fill="#FB8C00">2</text>
	<text transform="matrix(1 0 0 1 42.50 37.50)" fill="#FDD835">3</text>
	<text transform="matrix(1 0 0 1 15.75 64.63)" fill="#43A047">4</text>
	<text transform="matrix(1 0 0 1 26.50 52.63)" fill="#1E88E5">5</text>
	<text transform="matrix(1 0 0 1 29.50 70.63)" fill="#8E24AA">6</text>
	<text transform="matrix(1 0 0 1 58.50 51.47)" fill="#EC407A">7</text>
	<text transform="matrix(1 0 0 1 51.75 66.13)" fill="#00ACC1">8</text>
</g>
</svg>
