<?xml version="1.0" encoding="UTF-8"?>
<svg xmlns="http://www.w3.org/2000/svg" width="109" height="109" viewBox="0 0 109 109">
<g id="kvg:StrokePaths_054b2" style="fill:none;stroke:#000000;stroke-width:3;stroke-linecap:round;stroke-linejoin:round;">
<g id="kvg:054b2">
	<g id="kvg:054b2-g1">
		<path id="kvg:s-s1" stroke="#E53935" d="M13.14,38.36c0.81,0.92,0.94,1.4,1.21,2.64c0.89,4.08,1.95,9.79,3.02,15.42c0.27,1.41,0.51,2.8,0.71,4.13"/>
		<path id="kvg:s-s2" stroke="#FB8C00" d="M15.23,39.52c6.11-0.92,11.67-2.07,17.29-3.05c3.44-0.6,5.07-0.04,4.3,3.8c-0.83,4.11-1.65,7.56-3.14,14.86"/>
		<path id="kvg:s-s3" stroke="#FDD835" d="M18.85,57.96c4.21-0.52,7.73-1.01,12.73-1.7c1.15-0.16,2.37-0.33,3.7-0.51"/>
	</g>
	<g id="kvg:054b2-g2">
		<path id="kvg:s-s4" stroke="#43A047" d="M44.88,17.62c3.69,2.55,9.54,10.48,10.47,14.44"/>
		<path id="kvg:s-s5" stroke="#1E88E5" d="M78.25,14.64c0.05,0.58,0.22,1.54-0.1,2.34c-1.65,4.14-5.03,9.39-10.9,16.52"/>
		<g id="kvg:054b2-g3">
			<path id="kvg:s-s6" stroke="#8E24AA" d="M46.29,39.34c1.96,0.29,3.96,0.31,5.58,0.13c6.28-0.69,17.97-2.39,24.4-3.01c1.98-0.19,3.88-0.35,5.84,0.13"/>
			<g id="kvg:054b2-g4">
				<path id="kvg:s-s7" stroke="#EC407A" d="M39.24,61.73c3.26,0.77,5.78,0.8,8.64,0.46C60,60.75,73.99,59.49,83,58.84c3.02-0.22,6.01-0.07,8.98,0.64"/>
				<path id="kvg:s-s8" stroke="#00ACC1" d="M60.68,42.12c0.6,0.76,0.77,2.38,0.7,3.84C59.95,73.25,49.59,87,31.95,93.37"/>
				<path id="kvg:s-s9" stroke="#795548" d="M60.95,61.89c5.79,5.58,15.85,16.6,23.41,23.76c3.14,2.97,6.01,4.84,8.49,6.14"/>
			</g>
		</g>
	</g>
</g>
</g>
<g id="kvg:StrokeNumbers_054b2" style="font-size:18;font-weight:bold;stroke:#fff;stroke-width:1.5;paint-order:stroke">
	<text transform="matrix(1 0 0 1 7.50 46.50)" fill="#E53935">1</text>
	<text transform="matrix(1 0 0 1 15.75 35.50)" fill="#FB8C00">2</text>
	<text transform="matrix(1 0 0 1 21.50 54.05)" fill="#FDD835">3</text>
	<text transform="matrix(1 0 0 1 37.50 18.50)" fill="#43A047">4</text>
	<text transform="matrix(1 0 0 1 67.50 14.50)" fill="#1E88E5">5</text>
	<text transform="matrix(1 0 0 1 44.25 35.50)" fill="#8E24AA">6</text>
	<text transform="matrix(1 0 0 1 39.50 59.50)" fill="#EC407A">7</text>
	<text transform="matrix(1 0 0 1 53.50 50.50)" fill="#00ACC1">8</text>
	<text transform="matrix(1 0 0 1 74.25 71.50)" fill="#795548">9</text>
</g>
</svg>
