<?xml version="1.0" encoding="UTF-8"?>
<svg xmlns="http://www.w3.org/2000/svg" width="109" height="109" viewBox="0 0 109 109">
<g id="kvg:StrokePaths_054f2" style="fill:none;stroke:#000000;stroke-width:3;stroke-linecap:round;stroke-linejoin:round;">
<g id="kvg:054f2">
	<g id="kvg:054f2-g1">
		<g id="kvg:054f2-g2">
			<path id="kvg:s-s1" stroke="#E53935" d="M14.25,29.76c1.99,0.23,3.89,0.3,5.89,0.1c5.04-0.52,14.17-2.32,21.85-3.92c0.83-0.17,2.14-0.32,3.18-0.25"/>
			<path id="kvg:s-s2" stroke="#FB8C00" d="M34.77,12.33c1.08,1.08,1.51,2.67,1.51,4.61c0,12.15-0.01,36.38-0.01,40.52c0,10.67-6.21,2.09-7.71,1.04"/>
			<path id="kvg:s-s3" stroke="#FDD835" d="M14.25,51.45c0.88,0.92,1.75,0.92,3.38,0.22c1.72-0.74,17.12-8.92,25.87-13.61"/>
		</g>
		<g id="kvg:054f2-g3">
			<path id="kvg:s-s4" stroke="#43A047" d="M78.88,11.75c0.18,0.87-0.12,1.65-0.87,2.13c-4.88,3.12-8.38,4.24-17.5,7.87"/>
			<path id="kvg:s-s5" stroke="#1E88E5" d="M57.25,22.5c0.88,0.88,1.11,1.88,1.11,3.19c0,19.88-0.99,27.93-8.36,36.07"/>
			<path id="kvg:s-s6" stroke="#8E24AA" d="M61.5,32.94c1.38,0.06,2.83-0.04,3.95-0.19c5.61-0.79,17.27-1.82,24.17-2.77c1.84-0.25,3.81-0.63,5.67-0.27"/>
			<path id="kvg:s-s7" stroke="#EC407A" d="M78.81,33.13c0.91,0.91,1.13,2.12,1.13,3.56c0,0.64-0.04,9.56-0.04,17.81c0,2.93,0.02,5.37-0.03,6.88"/>
		</g>
	</g>
	<g id="kvg:054f2-g4">
		<path id="kvg:s-s8" stroke="#00ACC1" d="M30.75,72.68c0.91,0.91,1.43,1.86,1.69,3.31c1.31,7.39,2.14,12.25,3.04,18.73c0.21,1.5,0.41,2.93,0.62,4.25"/>
		<path id="kvg:s-s9" stroke="#795548" d="M33.06,74.2c13.02-1.46,33.86-3.27,42.2-4.02c3.41-0.31,5.5,1.18,4.52,4.95c-1.32,5.04-2.27,8.24-4.91,16.51"/>
		<path id="kvg:s-s10" stroke="#546E7A" d="M36.88,95.53c6.87-0.55,25.38-2.14,36.82-2.98c1.82-0.13,3.47-0.25,4.86-0.33"/>
	</g>
</g>
</g>
<g id="kvg:StrokeNumbers_054f2" style="font-size:18;font-weight:bold;stroke:#fff;stroke-width:1.5;paint-order:stroke">
	<text transform="matrix(1 0 0 1 7.50 30.13)" fill="#E53935">1</text>
	<text transform="matrix(1 0 0 1 26.50 13.63)" fill="#FB8C00">2</text>
	<text transform="matrix(1 0 0 1 5.50 54.50)" fill="#FDD835">3</text>
	<text transform="matrix(1 0 0 1 69.75 10.50)" fill="#43A047">4</text>
	<text transform="matrix(1 0 0 1 50.50 30.50)" fill="#1E88E5">5</text>
	<text transform="matrix(1 0 0 1 63.75 29.50)" fill="#8E24AA">6</text>
	<text transform="matrix(1 0 0 1 72.50 42.05)" fill="#EC407A">7</text>
	<text transform="matrix(1 0 0 1 24.50 79.50)" fill="#00ACC1">8</text>
	<text transform="matrix(1 0 0 1 39.75 70.50)" fill="#795548">9</text>
	<text transform="matrix(1 0 0 1 38.50 91.55)" fill="#546E7A">10</text>
</g>
</svg>
