<?xml version="1.0" encoding="UTF-8"?>
<svg xmlns="http://www.w3.org/2000/svg" width="109" height="109" viewBox="0 0 109 109">
<g id="kvg:StrokePaths_05546" style="fill:none;stroke:#000000;stroke-width:3;stroke-linecap:round;stroke-linejoin:round;">
<g id="kvg:05546">
	<g id="kvg:05546-g1">
		<g id="kvg:05546-g2">
			<path id="kvg:s-s1" stroke="#E53935" d="M52.86,12.25c1.01,1.01,1.73,2.46,1.73,3.66c0,1.59-0.15,5.84-0.15,8.65"/>
			<path id="kvg:s-s2" stroke="#FB8C00" d="M18,27.61c2.81,0.52,6.58,0.44,8.52,0.3c15.74-1.16,37.26-3.66,58.65-3.95c3.3-0.05,4.99,0.05,7.45,0.7"/>
		</g>
		<path id="kvg:s-s3" stroke="#FDD835" d="M35.27,31.46c2.57,2.43,6.65,9.98,7.29,13.76"/>
		<path id="kvg:s-s4" stroke="#43A047" d="M70.54,28.14c0.34,0.86,0.29,1.72,0.03,2.41c-1.02,3.52-2.94,8.45-5.69,13.32"/>
	</g>
	<g id="kvg:05546-g3">
		<g id="kvg:05546-g4">
			<path id="kvg:s-s5" stroke="#1E88E5" d="M23,47.5c1.06,1.06,1.17,2.54,1.17,3.83c0,1.18-0.01,28.78-0.02,40.66c0,2.84,0,4.78,0,5.25"/>
			<path id="kvg:s-s6" stroke="#8E24AA" d="M25.23,49.4c8.77-0.65,55.33-4.34,57.09-4.41c4.14-0.16,5.33,1.51,5.33,5.68c0,1.61-0.02,38.07-0.02,41.79c0,7.54-4.75,2.66-7.85-0.06"/>
		</g>
		<g id="kvg:05546-g5">
			<g id="kvg:05546-g6">
				<path id="kvg:s-s7" stroke="#EC407A" d="M45.72,51.43c0.03,0.82-0.29,1.77-0.83,2.68C43,57.25,38.5,61.62,30.75,66.75"/>
			</g>
			<path id="kvg:s-s8" stroke="#00ACC1" d="M61.1,49.37c0.51,0.51,0.73,1.79,0.73,2.53c0,1.73-0.03,4.23-0.03,5.8c0,3.42,0.58,4.38,9.36,4.38c4.9,0,8.13-0.67,8.82-1.05"/>
		</g>
		<g id="kvg:05546-g7">
			<path id="kvg:s-s9" stroke="#795548" d="M39.31,71.82C40,72.38,40.5,73,40.62,73.93c0.57,4.4,1.16,8.16,1.86,12.95c0.13,0.89,0.27,1.58,0.41,2.58"/>
			<path id="kvg:s-s10" stroke="#546E7A" d="M41.98,73.23c7.93-0.82,18.28-2.46,23.9-3.04c3.23-0.33,4.93,0.5,3.99,3.95c-0.91,3.38-2.08,8.03-3.43,11.76"/>
			<path id="kvg:s-s11" stroke="#E53935" d="M43.35,87.9c5.21-0.36,13.55-0.98,21.91-1.36c1.09-0.05,2.18-0.09,3.27-0.13"/>
		</g>
	</g>
</g>
</g>
<g id="kvg:StrokeNumbers_05546" style="font-size:18;fill:#E53935;font-weight:bold;stroke:#fff;stroke-width:1.5;paint-order:stroke">
	<text transform="matrix(1 0 0 1 43.50 13.50)" fill="#E53935">1</text>
	<text transform="matrix(1 0 0 1 11.25 28.94)" fill="#FB8C00">2</text>
	<text transform="matrix(1 0 0 1 29.25 37.63)" fill="#FDD835">3</text>
	<text transform="matrix(1 0 0 1 62.25 34.63)" fill="#43A047">4</text>
	<text transform="matrix(1 0 0 1 17.25 57.13)" fill="#1E88E5">5</text>
	<text transform="matrix(1 0 0 1 26.25 46.63)" fill="#8E24AA">6</text>
	<text transform="matrix(1 0 0 1 36.75 57.50)" fill="#EC407A">7</text>
	<text transform="matrix(1 0 0 1 53.50 57.13)" fill="#00ACC1">8</text>
	<text transform="matrix(1 0 0 1 33.75 79.63)" fill="#795548">9</text>
	<text transform="matrix(1 0 0 1 43.50 70.50)" fill="#546E7A">10</text>
	<text transform="matrix(1 0 0 1 46.50 84.13)" fill="#E53935">11</text>
</g>
</svg>
