<?xml version="1.0" encoding="UTF-8"?>
<svg xmlns="http://www.w3.org/2000/svg" width="109" height="109" viewBox="0 0 109 109">
<g id="kvg:StrokePaths_05589" style="fill:none;stroke:#000000;stroke-width:3;stroke-linecap:round;stroke-linejoin:round;">
<g id="kvg:05589">
	<g id="kvg:05589-g1">
		<path id="kvg:s-s1" stroke="#E53935" d="M10.75,27.79c0.86,0.85,1.03,1.62,1.15,2.58c0.53,6.54,1.16,11.92,1.69,18.24c0.2,2.37,0.39,4.88,0.56,7.63"/>
		<path id="kvg:s-s2" stroke="#FB8C00" d="M12.08,29.22c6.7-1.27,10.78-1.88,14.57-2.45c2.52-0.38,4.44,0.91,4,3.74c-0.91,5.83-1.64,12.23-2.78,20.6"/>
		<path id="kvg:s-s3" stroke="#FDD835" d="M15.32,53.8c3.83-0.56,5.66-0.73,9.43-1.16c1.29-0.15,2.81-0.32,4.71-0.55"/>
	</g>
	<g id="kvg:05589-g2">
		<g id="kvg:05589-g3">
			<path id="kvg:s-s4" stroke="#43A047" d="M50.01,17.75c0,1.21-0.07,2.24-0.53,3.41c-5.6,13.97-11.73,27.22-22.23,40.38"/>
			<path id="kvg:s-s5" stroke="#1E88E5" d="M40.87,45c0.88,0.88,1.14,1.97,1.14,3.23c0,8.99,0,25.87,0,37.27c0,4.32,0,7.85,0,9.88"/>
		</g>
		<g id="kvg:05589-g4">
			<g id="kvg:05589-g5">
				<path id="kvg:s-s6" stroke="#8E24AA" d="M58.73,17.4c2.23,0.35,4.44,0.36,6.63,0.03c5.33-0.66,10.69-1.57,14.52-2.01c1.74-0.2,4.85,0.22,4.25,3.11C83.62,21,82.88,26,82.25,30"/>
				<path id="kvg:s-s7" stroke="#EC407A" d="M52.11,32.65c3.14,0.6,6.18,0.45,9.25,0.1c8.64-1,20-1.9,28.14-2.41c3.01-0.34,6-0.16,8.99,0.53"/>
			</g>
			<g id="kvg:05589-g6">
				<path id="kvg:s-s8" stroke="#00ACC1" d="M63.6,39.5c0.1,0.99,0,1.95-0.3,2.89c-2.67,5.86-5.93,11.19-10.75,16.85"/>
				<g id="kvg:05589-g7">
					<path id="kvg:s-s9" stroke="#795548" d="M63.7,48.33c1.98,0.47,3.9,0.14,5.91-0.09c4.27-0.49,11.52-1.36,16.48-2.46c2.02-0.45,3.98-0.43,6,0.03"/>
					<g id="kvg:05589-g8">
						<path id="kvg:s-s10" stroke="#546E7A" d="M48.12,65.69c2.87,0.48,5.72,0.25,8.63-0.08c9.62-1.09,23.26-2.46,31.76-2.86c3.14-0.29,6.24,0.13,9.26,0.8"/>
						<path id="kvg:s-s11" stroke="#E53935" d="M71.76,50.55c0.85,0.85,0.86,2.23,0.84,3.5c-0.34,18.2-7.84,34.2-24.66,41.12"/>
						<path id="kvg:s-s12" stroke="#FB8C00" d="M72.88,65.88c3.94,6.82,9.22,13.53,15.85,21.53c2.01,2.14,4.19,4.1,6.52,5.87"/>
					</g>
				</g>
			</g>
		</g>
	</g>
</g>
</g>
<g id="kvg:StrokeNumbers_05589" style="font-size:18;font-weight:bold;stroke:#fff;stroke-width:1.5;paint-order:stroke">
	<text transform="matrix(1 0 0 1 4.85 34.85)" fill="#E53935">1</text>
	<text transform="matrix(1 0 0 1 14.50 25.50)" fill="#FB8C00">2</text>
	<text transform="matrix(1 0 0 1 17.50 50.50)" fill="#FDD835">3</text>
	<text transform="matrix(1 0 0 1 40.25 17.90)" fill="#43A047">4</text>
	<text transform="matrix(1 0 0 1 34.50 61.50)" fill="#1E88E5">5</text>
	<text transform="matrix(1 0 0 1 57.50 14.50)" fill="#8E24AA">6</text>
	<text transform="matrix(1 0 0 1 54.50 30.50)" fill="#EC407A">7</text>
	<text transform="matrix(1 0 0 1 54.50 42.60)" fill="#00ACC1">8</text>
	<text transform="matrix(1 0 0 1 69.50 45.50)" fill="#795548">9</text>
	<text transform="matrix(1 0 0 1 57.25 62.45)" fill="#546E7A">10</text>
	<text transform="matrix(1 0 0 1 75.50 56.38)" fill="#E53935">11</text>
	<text transform="matrix(1 0 0 1 78.50 72.30)" fill="#FB8C00">12</text>
</g>
</svg>
