<?xml version="1.0" encoding="UTF-8"?>
<svg xmlns="http://www.w3.org/2000/svg" width="109" height="109" viewBox="0 0 109 109">
<g id="kvg:StrokePaths_055ab" style="fill:none;stroke:#000000;stroke-width:3;stroke-linecap:round;stroke-linejoin:round;">
<g id="kvg:055ab">
	<g id="kvg:055ab-g1">
		<path id="kvg:s-s1" stroke="#E53935" d="M12.75,34.07c0.79,0.65,1.24,1.48,1.36,2.49c0.89,4.93,1.56,9.69,2.38,15.15c0.24,1.6,0.46,3.14,0.65,4.53"/>
		<path id="kvg:s-s2" stroke="#FB8C00" d="M14.95,35.14c4.05-0.79,9.65-1.68,14.07-2.22c2.81-0.34,4.41,0.17,3.78,3.22c-0.86,4.16-1.43,7.61-2.62,14.1"/>
		<path id="kvg:s-s3" stroke="#FDD835" d="M17.83,53.18c4.3-0.45,5.79-0.84,9.96-1.41c1.07-0.15,2.31-0.31,3.83-0.48"/>
	</g>
	<g id="kvg:055ab-g2">
		<g id="kvg:055ab-g3">
			<g id="kvg:055ab-g4">
				<path id="kvg:s-s4" stroke="#43A047" d="M37.75,27.13c1.75,0.37,2.96,0.39,4.5,0.19c4.6-0.58,11.16-1.42,14.88-2c1.09-0.17,2.33-0.61,3.43-0.24"/>
				<path id="kvg:s-s5" stroke="#1E88E5" d="M50.16,15c0.92,0.92,1.15,2,1.15,3.17c0,2.2,0.01,21.69,0.01,31.13"/>
				<path id="kvg:s-s6" stroke="#8E24AA" d="M39.12,38.47c1.13,0.28,2.63,0.52,3.89,0.33c6.12-0.92,10.12-1.85,13.51-2.59c1.07-0.23,2.34-0.66,3.44-0.29"/>
				<path id="kvg:s-s7" stroke="#EC407A" d="M38.5,54.65c1.25,0.73,2.47,0.97,4.51-0.1c5.55-2.92,10.74-5.3,19.84-9.36"/>
			</g>
			<g id="kvg:055ab-g5">
				<path id="kvg:s-s8" stroke="#00ACC1" d="M66.14,26.69c1.68,0.36,3.28,0.44,4.98,0.21c4.56-0.61,12.87-2.73,16.25-3.28c2.77-0.46,4.12,0.24,4.19,3.13c0.14,5.7-2.3,15.38-5.73,21.84c-2.21,4.17-3.96,1.54-5.78-0.34"/>
				<path id="kvg:s-s9" stroke="#795548" d="M76.51,29.07c0.07,1.09-0.03,1.9-0.39,2.93c-1.83,5.41-4.71,10.91-10.38,17.63"/>
			</g>
		</g>
		<g id="kvg:055ab-g6">
			<path id="kvg:s-s10" stroke="#546E7A" d="M35.9,69.9c3.03,0.98,6.4,0.2,9.47-0.16c10.32-1.21,22.96-3.02,34.24-3.48c3.26-0.13,6.13-0.02,9.38,0.49"/>
			<path id="kvg:s-s11" stroke="#E53935" d="M59.94,55.15c0.42,0.56,0.63,1.71,0.62,2.93C60.38,77.38,50.62,88.88,33.66,96"/>
			<path id="kvg:s-s12" stroke="#FB8C00" d="M61,69.5c5.27,4.9,15.5,13.88,23.7,20.7c2.2,1.83,3.67,2.93,5.8,3.93"/>
		</g>
	</g>
</g>
</g>
<g id="kvg:StrokeNumbers_055ab" style="font-size:18;font-weight:bold;stroke:#fff;stroke-width:1.5;paint-order:stroke">
	<text transform="matrix(1 0 0 1 8.25 45.13)" fill="#E53935">1</text>
	<text transform="matrix(1 0 0 1 15.50 31.63)" fill="#FB8C00">2</text>
	<text transform="matrix(1 0 0 1 20.25 49.55)" fill="#FDD835">3</text>
	<text transform="matrix(1 0 0 1 38.25 25.63)" fill="#43A047">4</text>
	<text transform="matrix(1 0 0 1 42.50 14.50)" fill="#1E88E5">5</text>
	<text transform="matrix(1 0 0 1 38.50 36.50)" fill="#8E24AA">6</text>
	<text transform="matrix(1 0 0 1 36.50 51.50)" fill="#EC407A">7</text>
	<text transform="matrix(1 0 0 1 65.50 24.50)" fill="#00ACC1">8</text>
	<text transform="matrix(1 0 0 1 67.50 36.50)" fill="#795548">9</text>
	<text transform="matrix(1 0 0 1 24.75 71.50)" fill="#546E7A">10</text>
	<text transform="matrix(1 0 0 1 50.25 61.50)" fill="#E53935">11</text>
	<text transform="matrix(1 0 0 1 60.50 83.50)" fill="#FB8C00">12</text>
</g>
</svg>
