<?xml version="1.0" encoding="UTF-8"?>
<svg xmlns="http://www.w3.org/2000/svg" width="109" height="109" viewBox="0 0 109 109">
<g id="kvg:StrokePaths_055a9" style="fill:none;stroke:#000000;stroke-width:3;stroke-linecap:round;stroke-linejoin:round;">
<g id="kvg:055a9">
	<g id="kvg:055a9-g1">
		<path id="kvg:s-s1" stroke="#E53935" d="M9.75,34.07c0.34,0.47,0.69,0.86,0.83,1.46c1.18,4.68,3.58,17.57,4.39,25.97"/>
		<path id="kvg:s-s2" stroke="#FB8C00" d="M11.36,35.74c7.14-0.99,16.38-2.64,20.35-3.25c1.45-0.22,2.32,1.33,2.12,2.65c-0.86,5.46-1.87,12.06-3.14,19.61"/>
		<path id="kvg:s-s3" stroke="#FDD835" d="M15.13,57.9c4.66-0.69,10.6-1.39,17-2.46"/>
	</g>
	<g id="kvg:055a9-g2">
		<g id="kvg:055a9-g3">
			<path id="kvg:s-s4" stroke="#43A047" d="M 64.900813,10.431453 c -0.04496,1.753402 -0.431606,2.697541 -0.962123,3.884459 -4.88255,10.898068 -14.74656,24.25989 -22.614389,30.032629"/>
			<path id="kvg:s-s5" stroke="#1E88E5" d="M 59.386395,5.3152892 C 65.6228,6.6784373 73.343249,25.137162 82.898922,36.539902 c 2.099248,2.508193 4.239392,4.955045 6.393167,6.318194"/>
		</g>
		<g id="kvg:055a9-g4">
			<g id="kvg:055a9-g5">
				<path id="kvg:s-s6" stroke="#8E24AA" d="M53.53,40.39c0.52,0.26,1.47,0.28,1.99,0.26C59,40.5,73.75,38,77,38.51c0.86,0.13,1.38,0.12,1.82,0.25"/>
			</g>
			<g id="kvg:055a9-g6">
				<path id="kvg:s-s7" stroke="#EC407A" d="M41.77,53.69c0.66,0.92,1.11,1.85,1.33,2.77c0.22,0.92,0.31,38.5,0.22,40.57"/>
				<path id="kvg:s-s8" stroke="#00ACC1" d="M44.43,54.98c1.48-0.13,15.06-2.86,16.16-3c1.97-0.26,2.71,1.71,2.47,2.5c-0.24,0.76-0.37,26.53-0.37,37.2c0,9.45-4.39,2.37-5.62,1.19"/>
				<path id="kvg:s-s9" stroke="#795548" d="M48.75,62.82c2.87,1,7.41,4.12,8.13,5.67"/>
				<path id="kvg:s-s10" stroke="#546E7A" d="M49.73,74.38c2.41,1.12,6.21,4.62,6.82,6.37"/>
			</g>
			<g id="kvg:055a9-g7">
				<path id="kvg:s-s11" stroke="#E53935" d="M77.99,48.62c0.3,1.08,1.12,2.93,0.68,4.4c-1.35,4.51-4.91,13.07-8.99,18.47c-1.12,1.48-0.01,2.42,0.29,2.73c4.94,4.94,7.87,11.6,10.35,22.29"/>
				<path id="kvg:s-s12" stroke="#FB8C00" d="M92.45,48.12c0.31,1.12,1.16,3.03,0.7,4.56c-1.4,4.68-4.2,12.06-8.42,17.66c-1.16,1.53-0.01,2.51,0.3,2.83c5.12,5.12,9.16,12.01,11.62,23.09"/>
			</g>
		</g>
	</g>
</g>
</g>
<g id="kvg:StrokeNumbers_055a9" style="font-size:18;font-weight:bold;stroke:#fff;stroke-width:1.5;paint-order:stroke">
	<text transform="matrix(1 0 0 1 3.50 41.50)" fill="#E53935">1</text>
	<text transform="matrix(1 0 0 1 12.50 32.50)" fill="#FB8C00">2</text>
	<text transform="matrix(1 0 0 1 17.50 54.50)" fill="#FDD835">3</text>
	<text transform="matrix(1 0 0 1 55.8 16.8)" fill="#43A047">4</text>
	<text transform="matrix(1 0 0 1 52.5 8.1)" fill="#1E88E5">5</text>
	<text transform="matrix(1 0 0 1 57.50 37.50)" fill="#8E24AA">6</text>
	<text transform="matrix(1 0 0 1 35.25 61.50)" fill="#EC407A">7</text>
	<text transform="matrix(1 0 0 1 44.50 51.50)" fill="#00ACC1">8</text>
	<text transform="matrix(1 0 0 1 46.25 70.50)" fill="#795548">9</text>
	<text transform="matrix(1 0 0 1 46.25 86.50)" fill="#546E7A">10</text>
	<text transform="matrix(1 0 0 1 65.90 54.35)" fill="#E53935">11</text>
	<text transform="matrix(1 0 0 1 81.25 52.40)" fill="#FB8C00">12</text>
</g>
</svg>
