<?xml version="1.0" encoding="UTF-8"?>
<svg xmlns="http://www.w3.org/2000/svg" width="109" height="109" viewBox="0 0 109 109">
<g id="kvg:StrokePaths_05674" style="fill:none;stroke:#000000;stroke-width:3;stroke-linecap:round;stroke-linejoin:round;">
<g id="kvg:05674">
	<g id="kvg:05674-g1">
		<path id="kvg:s-s1" stroke="#E53935" d="M14.89,33.66c0.79,0.79,1.35,1.82,1.37,2.82c0.73,3.9,1.58,10.03,2.35,15.51c0.22,1.58,0.44,3.11,0.64,4.51"/>
		<path id="kvg:s-s2" stroke="#FB8C00" d="M17.06,34.98c5.23-0.97,10.01-1.77,14.82-2.7c3.19-0.62,4.38,0.14,3.82,3.48c-0.74,4.42-1.45,7.15-2.78,15.15"/>
		<path id="kvg:s-s3" stroke="#FDD835" d="M19.97,54.05c3.8-0.48,7.28-1.22,11.83-1.97c1.2-0.2,2.48-0.4,3.86-0.59"/>
	</g>
	<g id="kvg:05674-g2">
		<g id="kvg:05674-g3">
			<g id="kvg:05674-g4">
				<path id="kvg:s-s4" stroke="#43A047" d="M50.5,21.77c1.78,0.52,3.92,0.3,5.77,0.07c6.22-0.76,17.99-2.52,24.87-2.95c1.66-0.1,3.23-0.13,4.87,0.15"/>
				<path id="kvg:s-s5" stroke="#1E88E5" d="M66.44,9.75c0.84,0.84,1.06,2,1.11,3.5c0.11,3.79-0.38,8.63-0.51,13.5c-0.05,1.88-0.1,3.54-0.14,4.75"/>
			</g>
			<g id="kvg:05674-g5">
				<g id="kvg:05674-g6">
					<path id="kvg:s-s6" stroke="#8E24AA" d="M42.16,39.07c1.91,0.78,4.71,0.55,6.72,0.34c10.31-1.08,30.61-3.76,41.12-4.54c2.68-0.2,5.45-0.42,8.08,0.23"/>
				</g>
				<g id="kvg:05674-g7">
					<path id="kvg:s-s7" stroke="#EC407A" d="M55.73,29.18c0.95,1.02,1.08,2.07,1.1,2.7c0.17,6.37,0.54,9.5,0.78,12.99"/>
				</g>
				<g id="kvg:05674-g8">
					<path id="kvg:s-s8" stroke="#00ACC1" d="M82.78,25.88c0.36,1.32,0.33,2.21,0.01,3.54c-1.25,5.25-1.91,8.21-3.02,12.89"/>
				</g>
			</g>
		</g>
		<g id="kvg:05674-g9">
			<g id="kvg:05674-g10">
				<path id="kvg:s-s9" stroke="#795548" d="M53.55,48.97c0.93,0.93,1.2,2.03,1.2,3.42c0,0.85,0.12,14.92,0.12,27.18c0,2.1-0.12,2.8-0.12,4.3"/>
				<path id="kvg:s-s10" stroke="#546E7A" d="M55.57,50.13c4.26-0.67,19.12-2.56,24.2-3.09c3.07-0.32,4.66,0.04,4.64,3.21c-0.02,4.77-0.01,17.98-0.01,25.74c0,1.76-0.03,5.67-0.03,5.88"/>
				<path id="kvg:s-s11" stroke="#E53935" d="M56.05,60.21c7.2-0.96,21.45-2.96,27.18-3.13"/>
				<path id="kvg:s-s12" stroke="#FB8C00" d="M56.03,70.41c9.34-1.16,16.59-2.28,27.23-3.36"/>
				<path id="kvg:s-s13" stroke="#FDD835" d="M55.92,81.25c9.83-1.25,17.45-2.5,27.34-3.08"/>
			</g>
			<g id="kvg:05674-g11">
				<path id="kvg:s-s14" stroke="#43A047" d="M62.46,86.72c0.29,1.16-0.25,1.92-1.25,2.73c-3.02,2.45-11.33,7.48-17.37,10.38"/>
				<path id="kvg:s-s15" stroke="#1E88E5" d="M77.59,85.67c6.14,3.66,13.4,10.3,15.08,13.5"/>
			</g>
		</g>
	</g>
</g>
</g>
<g id="kvg:StrokeNumbers_05674" style="font-size:18;font-weight:bold;stroke:#fff;stroke-width:1.5;paint-order:stroke">
	<text transform="matrix(1 0 0 1 11.25 45.13)" fill="#E53935">1</text>
	<text transform="matrix(1 0 0 1 20.25 30.13)" fill="#FB8C00">2</text>
	<text transform="matrix(1 0 0 1 23.25 49.55)" fill="#FDD835">3</text>
	<text transform="matrix(1 0 0 1 45.75 18.13)" fill="#43A047">4</text>
	<text transform="matrix(1 0 0 1 57.75 9.50)" fill="#1E88E5">5</text>
	<text transform="matrix(1 0 0 1 41.25 36.13)" fill="#8E24AA">6</text>
	<text transform="matrix(1 0 0 1 47.25 31.63)" fill="#EC407A">7</text>
	<text transform="matrix(1 0 0 1 74.25 28.63)" fill="#00ACC1">8</text>
	<text transform="matrix(1 0 0 1 45.75 58.63)" fill="#795548">9</text>
	<text transform="matrix(1 0 0 1 60.50 46.22)" fill="#546E7A">10</text>
	<text transform="matrix(1 0 0 1 59.50 56.65)" fill="#E53935">11</text>
	<text transform="matrix(1 0 0 1 59.50 66.50)" fill="#FB8C00">12</text>
	<text transform="matrix(1 0 0 1 59.50 77.50)" fill="#FDD835">13</text>
	<text transform="matrix(1 0 0 1 45.75 91.63)" fill="#43A047">14</text>
	<text transform="matrix(1 0 0 1 71.50 94.50)" fill="#1E88E5">15</text>
</g>
</svg>
