<?xml version="1.0" encoding="UTF-8"?>
<svg xmlns="http://www.w3.org/2000/svg" width="109" height="109" viewBox="0 0 109 109">
<g id="kvg:StrokePaths_056da" style="fill:none;stroke:#000000;stroke-width:3;stroke-linecap:round;stroke-linejoin:round;">
<g id="kvg:056da">
	<g id="kvg:056da-g1">
		<path id="kvg:s-s1" stroke="#E53935" d="M19.25,18.07c1.03,1.03,1.36,2.26,1.36,4.16c0,12.63-0.14,46.59-0.17,66.77c-0.01,3.24-0.01,6.12-0.01,8.5"/>
		<path id="kvg:s-s2" stroke="#FB8C00" d="M21.73,20.15c19.4-1.52,49.52-3.9,63.27-4.65c2.75-0.15,4.5,0.88,4.5,4.5c0,11.21,0.08,50.57,0.1,68.62c0.01,4.05,0.01,7.02,0.01,8.38"/>
	</g>
	<g id="kvg:056da-g2">
		<path id="kvg:s-s3" stroke="#FDD835" d="M54.08,26c0.55,1.5,0.9,3.7,0.61,5.61C52.96,42.92,46,71,29.83,82.68"/>
		<path id="kvg:s-s4" stroke="#43A047" d="M52.36,47.24c5.02,6.63,13.14,17.01,19.81,24.72c2.19,2.54,3.96,4.29,6.75,6.29"/>
	</g>
	<g id="kvg:056da-g3">
		<path id="kvg:s-s5" stroke="#1E88E5" d="M21.5,93.51c16.25-0.51,48.71-2.6,66.75-3.01"/>
	</g>
</g>
</g>
<g id="kvg:StrokeNumbers_056da" style="font-size:18;font-weight:bold;stroke:#fff;stroke-width:1.5;paint-order:stroke">
	<text transform="matrix(1 0 0 1 12.75 28.63)" fill="#E53935">1</text>
	<text transform="matrix(1 0 0 1 23.25 16.50)" fill="#FB8C00">2</text>
	<text transform="matrix(1 0 0 1 45.50 30.50)" fill="#FDD835">3</text>
	<text transform="matrix(1 0 0 1 57.50 50.50)" fill="#43A047">4</text>
	<text transform="matrix(1 0 0 1 25.50 90.13)" fill="#1E88E5">5</text>
</g>
</svg>
