<?xml version="1.0" encoding="UTF-8"?>
<svg xmlns="http://www.w3.org/2000/svg" width="109" height="109" viewBox="0 0 109 109">
<g id="kvg:StrokePaths_05730" style="fill:none;stroke:#000000;stroke-width:3;stroke-linecap:round;stroke-linejoin:round;">
<g id="kvg:05730">
	<g id="kvg:05730-g1">
		<path id="kvg:s-s1" stroke="#E53935" d="M11.5,49.5c1.71,0.69,3.51,0.56,5.24,0.2c5.76-1.2,13.37-2.96,19.65-4.7c1.6-0.44,3.08-0.5,4.12-0.25"/>
		<path id="kvg:s-s2" stroke="#FB8C00" d="M25.37,26.25c1.09,0.5,1.74,2.25,1.96,3.25c0.18,0.82-0.18,43.4-0.22,44.5"/>
		<path id="kvg:s-s3" stroke="#FDD835" d="M11,82.02c1.25,1.23,3.36,1.32,6-0.37c1.56-1,15.12-9.36,21.75-14.15"/>
	</g>
	<g id="kvg:05730-g2">
		<path id="kvg:s-s4" stroke="#43A047" d="M41,53.06c2.12,0.69,4.88,0.69,7.38-0.04c11.34-3.34,29.47-9.63,37.12-12.26c3.51-1.21,5.25,0.75,4.76,3.61c-0.93,5.4-3.34,11.85-5.26,15.89c-2.5,5.25-5.62,2.75-7.75,0"/>
		<path id="kvg:s-s5" stroke="#1E88E5" d="M66.25,18c1.19,1.19,2,2.88,2,4.5c0,8.5,0.07,29.73-0.12,43.25c-0.04,2.91-0.09,4.64-0.13,5.75"/>
		<g id="kvg:05730-g3">
			<path id="kvg:s-s6" stroke="#8E24AA" d="M49.49,37.62c1.26,1.26,2.02,3.13,2.02,4.85c0,8.57-0.38,20.78-0.38,28.03c0,16.5,0.87,19,22.37,19c20,0,20.64-1.75,20.64-13.07"/>
		</g>
	</g>
</g>
</g>
<g id="kvg:StrokeNumbers_05730" style="font-size:18;fill:#E53935;font-weight:bold;stroke:#fff;stroke-width:1.5;paint-order:stroke">
	<text transform="matrix(1 0 0 1 5.25 50.50)" fill="#E53935">1</text>
	<text transform="matrix(1 0 0 1 16.50 26.50)" fill="#FB8C00">2</text>
	<text transform="matrix(1 0 0 1 3.75 84.50)" fill="#FDD835">3</text>
	<text transform="matrix(1 0 0 1 35.25 60.50)" fill="#43A047">4</text>
	<text transform="matrix(1 0 0 1 58.50 18.50)" fill="#1E88E5">5</text>
	<text transform="matrix(1 0 0 1 43.50 35.50)" fill="#8E24AA">6</text>
</g>
</svg>
