<?xml version="1.0" encoding="UTF-8"?>
<svg xmlns="http://www.w3.org/2000/svg" width="109" height="109" viewBox="0 0 109 109">
<g id="kvg:StrokePaths_057df" style="fill:none;stroke:#000000;stroke-width:3;stroke-linecap:round;stroke-linejoin:round;">
<g id="kvg:057df">
	<g id="kvg:057df-g1">
		<path id="kvg:s-s1" stroke="#E53935" d="M11.75,42.64c1.5,0.49,3.19,0.39,4.5,0.24c5.2-0.57,13.91-2.35,18.75-3.38c1.23-0.26,2.62-0.18,3.25,0.01"/>
		<path id="kvg:s-s2" stroke="#FB8C00" d="M25.62,18.75c0.81,0.81,1.21,2.23,1.21,3.25c0,7.25,0.03,36.5,0.03,47.25"/>
		<path id="kvg:s-s3" stroke="#FDD835" d="M13.17,77.74c0.83,0.48,2.37,0.51,3.89-0.69C22.7,72.61,32.36,64.94,38,60.5"/>
	</g>
	<g id="kvg:057df-g2">
		<g id="kvg:057df-g3">
			<g id="kvg:057df-g4">
				<path id="kvg:s-s4" stroke="#43A047" d="M41.76,33.93c2.49,0.32,4.7,0.06,6.75-0.31c8.67-1.57,24.97-4.46,32.75-4.94c1.6-0.1,2.56,0.19,3.37,0.39"/>
			</g>
		</g>
		<g id="kvg:057df-g5">
			<path id="kvg:s-s5" stroke="#1E88E5" d="M41.46,47.28c0.69,0.69,1.04,1.6,1.15,2.6c0.35,2.99,1.1,7.42,1.63,11.34c0.15,1.11,0.3,2.15,0.44,3.08"/>
			<path id="kvg:s-s6" stroke="#8E24AA" d="M43.53,48.7c3.96-0.59,9.03-1.47,13.1-2.14c3.17-0.53,3.83,0.04,3.19,3.2c-0.51,2.5-1.04,4.97-1.95,9.36"/>
			<path id="kvg:s-s7" stroke="#EC407A" d="M45.46,62.07c2.71-0.33,6.51-1.2,10.31-1.99c1.07-0.22,2.63-0.41,3.68-0.56"/>
		</g>
		<g id="kvg:057df-g6">
			<path id="kvg:s-s8" stroke="#00ACC1" d="M39.75,78.76c1.12,0.74,2.04,0.78,3.82-0.32c4.96-3.06,13.15-8.51,18.11-11.57"/>
		</g>
		<g id="kvg:057df-g7">
			<g id="kvg:057df-g8">
				<path id="kvg:s-s9" stroke="#795548" d="M61,13.75c1.45,1.68,1.69,2.9,2.11,6.51c3.27,28.11,10.52,56.24,28.42,69.3c5.44,3.97,4.89,1.47,4.17-5.97"/>
			</g>
			<g id="kvg:057df-g9">
				<path id="kvg:s-s10" stroke="#546E7A" d="M83.35,43.62c0.07,0.98,0.01,2.32-0.38,3.7c-2.22,7.8-11.19,26.75-23.65,37.92"/>
			</g>
			<g id="kvg:057df-g10">
				<g id="kvg:057df-g11">
					<path id="kvg:s-s11" stroke="#E53935" d="M75.25,14.25c3.03,1.41,7.87,4.63,9.28,7.05"/>
				</g>
			</g>
		</g>
	</g>
</g>
</g>
<g id="kvg:StrokeNumbers_057df" style="font-size:18;fill:#E53935;font-weight:bold;stroke:#fff;stroke-width:1.5;paint-order:stroke">
	<text transform="matrix(1 0 0 1 5.50 43.50)" fill="#E53935">1</text>
	<text transform="matrix(1 0 0 1 17.25 19.50)" fill="#FB8C00">2</text>
	<text transform="matrix(1 0 0 1 4.50 79.50)" fill="#FDD835">3</text>
	<text transform="matrix(1 0 0 1 39.50 30.50)" fill="#43A047">4</text>
	<text transform="matrix(1 0 0 1 35.50 53.50)" fill="#1E88E5">5</text>
	<text transform="matrix(1 0 0 1 44.25 45.13)" fill="#8E24AA">6</text>
	<text transform="matrix(1 0 0 1 47.25 58.50)" fill="#EC407A">7</text>
	<text transform="matrix(1 0 0 1 30.75 82.48)" fill="#00ACC1">8</text>
	<text transform="matrix(1 0 0 1 51.50 16.50)" fill="#795548">9</text>
	<text transform="matrix(1 0 0 1 77.50 39.50)" fill="#546E7A">10</text>
	<text transform="matrix(1 0 0 1 69.50 11.50)" fill="#E53935">11</text>
</g>
</svg>
