<?xml version="1.0" encoding="UTF-8"?>
<svg xmlns="http://www.w3.org/2000/svg" width="109" height="109" viewBox="0 0 109 109">
<g id="kvg:StrokePaths_05806" style="fill:none;stroke:#000000;stroke-width:3;stroke-linecap:round;stroke-linejoin:round;">
<g id="kvg:05806">
	<g id="kvg:05806-g1">
		<path id="kvg:s-s1" stroke="#E53935" d="M14.25,45.39c0.76,0.38,2.24,0.46,3,0.36c4.82-0.66,18.15-3.39,23.5-4c1.25-0.14,2.62-0.18,3.25,0.01"/>
		<path id="kvg:s-s2" stroke="#FB8C00" d="M28.37,19.25c1.09,0.5,1.74,2.25,1.96,3.25c0.22,1,0,43.25-0.22,49.5"/>
		<path id="kvg:s-s3" stroke="#FDD835" d="M15.5,78.54c0.75,0.96,2.25,1.46,4.5,0.21c6.25-3.5,12.75-6.75,19-10.25"/>
	</g>
	<g id="kvg:05806-g2">
		<g id="kvg:05806-g3">
			<path id="kvg:s-s4" stroke="#43A047" d="M62.12,13.5c0.19,1.69-0.05,3.91-0.65,5.36C57.64,28.1,52.78,35.93,44,47.18"/>
			<path id="kvg:s-s5" stroke="#1E88E5" d="M55.19,36.65c0.63,0.88,1.11,2.8,1.15,4.16c0.37,12.12-0.51,46.63-0.2,52.94"/>
		</g>
		<path id="kvg:s-s6" stroke="#8E24AA" d="M78.69,16.5c0.07,0.92-0.02,2.12-0.24,2.9c-1.44,5-3.26,8.87-6.56,14.96"/>
		<path id="kvg:s-s7" stroke="#EC407A" d="M56.16,37.41c8.84-1.16,33.59-3.96,36.72-4.59"/>
		<path id="kvg:s-s8" stroke="#00ACC1" d="M73.98,37.33c0.35,0.45,0.63,1.06,0.63,1.83c0,7.86,0.04,35-0.17,47.38"/>
		<path id="kvg:s-s9" stroke="#795548" d="M57.14,53.82c6.89-0.94,29.5-3.69,32.45-4.21"/>
		<path id="kvg:s-s10" stroke="#546E7A" d="M56.3,69.29c7.27-0.8,31.15-2.91,34.27-3.35"/>
		<path id="kvg:s-s11" stroke="#E53935" d="M56.3,89.18c7.3-1.14,36.06-3.32,39.2-3.95"/>
	</g>
</g>
</g>
<g id="kvg:StrokeNumbers_05806" style="font-size:18;font-weight:bold;stroke:#fff;stroke-width:1.5;paint-order:stroke">
	<text transform="matrix(1 0 0 1 8.75 43.13)" fill="#E53935">1</text>
	<text transform="matrix(1 0 0 1 20 20)" fill="#FB8C00">2</text>
	<text transform="matrix(1 0 0 1 7.5 82.73)" fill="#FDD835">3</text>
	<text transform="matrix(1 0 0 1 51.00 16.40)" fill="#43A047">4</text>
	<text transform="matrix(1 0 0 1 48 52)" fill="#1E88E5">5</text>
	<text transform="matrix(1 0 0 1 74.00 14.50)" fill="#8E24AA">6</text>
	<text transform="matrix(1 0 0 1 60 33.68)" fill="#EC407A">7</text>
	<text transform="matrix(1 0 0 1 77.5 43)" fill="#00ACC1">8</text>
	<text transform="matrix(1 0 0 1 59.00 51.53)" fill="#795548">9</text>
	<text transform="matrix(1 0 0 1 58.25 66.45)" fill="#546E7A">10</text>
	<text transform="matrix(1 0 0 1 58.25 86)" fill="#E53935">11</text>
</g>
</svg>
