<?xml version="1.0" encoding="UTF-8"?>
<svg xmlns="http://www.w3.org/2000/svg" width="109" height="109" viewBox="0 0 109 109">
<g id="kvg:StrokePaths_0585e" style="fill:none;stroke:#000000;stroke-width:3;stroke-linecap:round;stroke-linejoin:round;">
<g id="kvg:0585e">
	<g id="kvg:0585e-g1">
		<g id="kvg:0585e-g2">
			<path id="kvg:s-s1" stroke="#E53935" d="M52.39,10c0.99,0.99,1.48,2.12,1.48,3.42c0,3.08-0.08,3.95-0.08,6.77"/>
			<g id="kvg:0585e-g3">
				<path id="kvg:s-s2" stroke="#FB8C00" d="M21.41,22.48c0,3.31-3.02,13.82-4.16,16.02"/>
				<path id="kvg:s-s3" stroke="#FDD835" d="M21.88,24.09c27-2.34,57.85-4.34,63.9-4.34c10.48,0,1.16,6.58-0.35,7.26"/>
			</g>
		</g>
		<g id="kvg:0585e-g4">
			<g id="kvg:0585e-g5">
				<path id="kvg:s-s4" stroke="#43A047" d="M29,35.84c2.92,0.33,5.83,0.33,8.75,0.02c8.39-0.44,22.23-1.28,31.37-2.05c2.56-0.22,5.08-0.45,7.62-0.09"/>
			</g>
		</g>
		<path id="kvg:s-s5" stroke="#1E88E5" d="M41.43,28.13c0.9,0.9,1.61,1.95,1.67,3.5c0.28,8.12,0.4,16.62,0.78,24.62"/>
		<path id="kvg:s-s6" stroke="#8E24AA" d="M62.81,26.38c0.56,0.99,0.59,2.34,0.51,3.25c-0.57,6.62-1.57,15.24-2.57,25.49"/>
		<g id="kvg:0585e-g6">
			<g id="kvg:0585e-g7">
				<path id="kvg:s-s7" stroke="#EC407A" d="M29,46.65c2.53,0.37,5.08,0.49,7.63,0.35c7.82-0.62,23.62-2.02,32.37-2.73c2.42-0.39,4.84-0.36,7.25,0.1"/>
			</g>
			<g id="kvg:0585e-g8">
				<path id="kvg:s-s8" stroke="#00ACC1" d="M19,58.8c3.46,0.35,6.92,0.24,10.39-0.1c13.48-1.32,37.72-2.73,50.49-3.26c3.48-0.19,6.94,0,10.37,0.56"/>
			</g>
		</g>
		<g id="kvg:0585e-g9">
			<path id="kvg:s-s9" stroke="#795548" d="M41.95,60.5c-0.1,1.27-0.68,2.26-1.53,3.15c-6.92,7.23-15.05,12.73-26.17,18.6"/>
			<path id="kvg:s-s10" stroke="#546E7A" d="M62.38,58.75c8.88,7.12,14.03,12.14,19.96,16.19c3.28,2.26,5.54,3.81,9.67,5.31"/>
		</g>
	</g>
	<g id="kvg:0585e-g10">
		<path id="kvg:s-s11" stroke="#E53935" d="M34.85,78.71c2.77,0.47,5.48,0,8.32-0.32c7.83-0.89,15.54-1.8,22.58-2.37c2.47-0.2,4.88-0.36,7.3,0.03"/>
		<path id="kvg:s-s12" stroke="#FB8C00" d="M53.51,64.12c0.69,0.69,1.05,1.62,1.05,2.98c0,8.79-0.01,13.17-0.01,24.8"/>
		<path id="kvg:s-s13" stroke="#FDD835" d="M25.1,94.13c3.58,0.52,7.16,0.37,10.78,0.12c12.2-0.83,28.92-1.91,40.11-2.51c3.51-0.14,6.97,0.13,10.4,0.83"/>
	</g>
</g>
</g>
<g id="kvg:StrokeNumbers_0585e" style="font-size:18;font-weight:bold;stroke:#fff;stroke-width:1.5;paint-order:stroke">
	<text transform="matrix(1 0 0 1 44.50 9.50)" fill="#E53935">1</text>
	<text transform="matrix(1 0 0 1 14.50 23.50)" fill="#FB8C00">2</text>
	<text transform="matrix(1 0 0 1 25.50 20.50)" fill="#FDD835">3</text>
	<text transform="matrix(1 0 0 1 22.75 36.40)" fill="#43A047">4</text>
	<text transform="matrix(1 0 0 1 32.75 30.50)" fill="#1E88E5">5</text>
	<text transform="matrix(1 0 0 1 52.75 29.50)" fill="#8E24AA">6</text>
	<text transform="matrix(1 0 0 1 22.75 47.18)" fill="#EC407A">7</text>
	<text transform="matrix(1 0 0 1 11.50 59.50)" fill="#00ACC1">8</text>
	<text transform="matrix(1 0 0 1 29.50 67.50)" fill="#795548">9</text>
	<text transform="matrix(1 0 0 1 70.50 64.50)" fill="#546E7A">10</text>
	<text transform="matrix(1 0 0 1 26.50 81.50)" fill="#E53935">11</text>
	<text transform="matrix(1 0 0 1 42.50 70.80)" fill="#FB8C00">12</text>
	<text transform="matrix(1 0 0 1 14.50 95.50)" fill="#FDD835">13</text>
</g>
</svg>
