<?xml version="1.0" encoding="UTF-8"?>
<svg xmlns="http://www.w3.org/2000/svg" width="109" height="109" viewBox="0 0 109 109">
<g id="kvg:StrokePaths_0586b" style="fill:none;stroke:#000000;stroke-width:3;stroke-linecap:round;stroke-linejoin:round;">
<g id="kvg:0586b">
	<g id="kvg:0586b-g1">
		<path id="kvg:s-s1" stroke="#E53935" d="M14.75,43.39c0.76,0.38,2.24,0.44,3,0.36c6.75-0.75,14.65-2.39,20-3c1.25-0.14,2.62-0.18,3.25,0.01"/>
		<path id="kvg:s-s2" stroke="#FB8C00" d="M26.87,16.75c1.09,0.5,1.74,2.25,1.96,3.25c0.22,1,0,43.25-0.22,49.5"/>
		<path id="kvg:s-s3" stroke="#FDD835" d="M13.5,75.94c0.74,1.06,2.23,1.63,4.45,0.23c6.18-3.9,13.61-8.52,19.8-12.42"/>
	</g>
	<g id="kvg:0586b-g2">
		<g id="kvg:0586b-g3">
			<path id="kvg:s-s4" stroke="#43A047" d="M43.07,24.68c0.92,0.51,2.61,0.59,3.53,0.51c11.4-0.94,33.07-3.78,41.14-3.98c1.54-0.04,2.46,0.24,3.23,0.5"/>
			<path id="kvg:s-s5" stroke="#1E88E5" d="M64.11,11.75c0.37,0.29,1.28,2.17,1.24,2.75C65,20,64.5,26.25,63.09,36.05"/>
		</g>
		<g id="kvg:0586b-g4">
			<g id="kvg:0586b-g5">
				<path id="kvg:s-s6" stroke="#8E24AA" d="M48.84,35.64c0.4,0.65,1.27,1.5,1.27,2.64c0,9.22-0.01,33.45-0.01,34.02"/>
				<path id="kvg:s-s7" stroke="#EC407A" d="M50.47,37.5c2.93-0.14,25.85-3.44,28.52-3.61c2.22-0.14,3.78,0.74,3.79,3.8c0,4.97-0.02,19.57-0.67,33.03"/>
				<path id="kvg:s-s8" stroke="#00ACC1" d="M50.33,47.53c10.67-0.81,24.84-2.99,31.92-3.27"/>
				<path id="kvg:s-s9" stroke="#795548" d="M50.28,58.06c7.75-0.48,22.65-2.37,32.22-2.68"/>
				<path id="kvg:s-s10" stroke="#546E7A" d="M50.8,68.99c11.54-1.17,21.93-2.14,31.47-2.73"/>
			</g>
			<g id="kvg:0586b-g6">
				<path id="kvg:s-s11" stroke="#E53935" d="M39.09,79.58c1.12,0.35,3.18,0.43,4.3,0.35c6.97-0.48,35.63-3.25,48.33-3.24c1.87,0,2.99,0.17,3.93,0.34"/>
				<g id="kvg:0586b-g7">
					<path id="kvg:s-s12" stroke="#FB8C00" d="M57.04,83.72c0.04,0.34,0.09,0.87-0.09,1.35c-1.05,2.84-7.04,9.08-15.26,12.9"/>
					<path id="kvg:s-s13" stroke="#FDD835" d="M74.46,85.11c5.77,2.2,14.92,9.03,16.36,12.45"/>
				</g>
			</g>
		</g>
	</g>
</g>
</g>
<g id="kvg:StrokeNumbers_0586b" style="font-size:18;font-weight:bold;stroke:#fff;stroke-width:1.5;paint-order:stroke">
	<text transform="matrix(1 0 0 1 7.25 42.63)" fill="#E53935">1</text>
	<text transform="matrix(1 0 0 1 19.25 19.05)" fill="#FB8C00">2</text>
	<text transform="matrix(1 0 0 1 6.00 79.23)" fill="#FDD835">3</text>
	<text transform="matrix(1 0 0 1 41.50 21.50)" fill="#43A047">4</text>
	<text transform="matrix(1 0 0 1 55.50 11.50)" fill="#1E88E5">5</text>
	<text transform="matrix(1 0 0 1 43.50 44.50)" fill="#8E24AA">6</text>
	<text transform="matrix(1 0 0 1 53.75 33.50)" fill="#EC407A">7</text>
	<text transform="matrix(1 0 0 1 55.75 44.85)" fill="#00ACC1">8</text>
	<text transform="matrix(1 0 0 1 55.74 54.28)" fill="#795548">9</text>
	<text transform="matrix(1 0 0 1 54.09 66.70)" fill="#546E7A">10</text>
	<text transform="matrix(1 0 0 1 36.75 76.50)" fill="#E53935">11</text>
	<text transform="matrix(1 0 0 1 43.50 89.50)" fill="#FB8C00">12</text>
	<text transform="matrix(1 0 0 1 66.50 91.50)" fill="#FDD835">13</text>
</g>
</svg>
