<?xml version="1.0" encoding="UTF-8"?>
<svg xmlns="http://www.w3.org/2000/svg" width="109" height="109" viewBox="0 0 109 109">
<g id="kvg:StrokePaths_05893" style="fill:none;stroke:#000000;stroke-width:3;stroke-linecap:round;stroke-linejoin:round;">
<g id="kvg:05893">
	<g id="kvg:05893-g1">
		<g id="kvg:05893-g2">
			<path id="kvg:s-s1" stroke="#E53935" d="M21.5,24.06c2.88,0.57,5.23,0.71,7.75,0.43c13.2-1.45,35.2-2.99,48.63-3.34c2.96-0.08,5.96-0.24,8.87,0.37"/>
			<path id="kvg:s-s2" stroke="#FB8C00" d="M39,14.49c0.69,0.69,1.32,1.88,1.5,2.99c0.75,4.53,1.5,8.15,2.25,13.35"/>
			<path id="kvg:s-s3" stroke="#FDD835" d="M67.32,13c0.38,0.86,0.53,2.23,0.2,3.31c-1.56,5.12-1.98,7.37-3.76,12.49"/>
		</g>
		<g id="kvg:05893-g3">
			<g id="kvg:05893-g4">
				<path id="kvg:s-s4" stroke="#43A047" d="M32.27,35.96c0.58,0.58,1.06,1.67,1.19,2.24c0.8,3.55,2.02,9.09,2.59,12.25c0.24,1.3,0.55,2.54,0.71,3.13"/>
				<path id="kvg:s-s5" stroke="#1E88E5" d="M34.5,37.28c7.85-1.26,29.83-3.83,36.01-4.41c3.01-0.28,4.92,1.28,4.28,4.66c-0.56,2.97-1.82,7.15-2.81,10.85c-0.34,1.26-0.65,2.38-0.92,3.23"/>
				<path id="kvg:s-s6" stroke="#8E24AA" d="M36.23,44.88C46.88,43.5,65,41.38,72.71,41.23"/>
				<path id="kvg:s-s7" stroke="#EC407A" d="M37.93,52.84C47,52,61.25,50.52,70.61,50.25"/>
			</g>
			<g id="kvg:05893-g5">
				<path id="kvg:s-s8" stroke="#00ACC1" d="M16.62,64.99c4.36,0.89,8.87,0.48,13.26,0.14c16.36-1.27,38.74-3.13,53.5-3.53c4.3-0.12,6.62,0.02,10.86,0.55"/>
				<path id="kvg:s-s9" stroke="#795548" d="M45.91,55.93c0.09,1.19-0.21,2.31-0.66,3.15C38.62,71.25,28,81.25,12.75,87.25"/>
				<path id="kvg:s-s10" stroke="#546E7A" d="M59,59.1c6.5,1.9,23.87,20.49,30.77,24.57c2.35,1.39,3.16,1.6,4.23,1.73"/>
			</g>
		</g>
	</g>
	<g id="kvg:05893-g6">
		<path id="kvg:s-s11" stroke="#E53935" d="M38.59,78.69c2.28,0.56,4.05,0.2,5.91,0c6.99-0.76,14.51-1.73,20.62-2.24c1.74-0.15,3.4-0.29,5.12,0.11"/>
		<path id="kvg:s-s12" stroke="#FB8C00" d="M53.27,69.12c0.81,0.81,1.16,1.96,1.16,3.44c0,9.52-0.04,12.95-0.04,19.23"/>
		<path id="kvg:s-s13" stroke="#FDD835" d="M25.17,94.35c2.71,0.28,5.59,0.35,8.21,0.14c13.57-1.08,29.5-2.49,44.38-2.72c2.4-0.04,4.99,0.03,7.34,0.53"/>
	</g>
</g>
</g>
<g id="kvg:StrokeNumbers_05893" style="font-size:18;fill:#E53935;font-weight:bold;stroke:#fff;stroke-width:1.5;paint-order:stroke">
	<text transform="matrix(1 0 0 1 15.75 25.63)" fill="#E53935">1</text>
	<text transform="matrix(1 0 0 1 30.50 15.50)" fill="#FB8C00">2</text>
	<text transform="matrix(1 0 0 1 59.50 14.50)" fill="#FDD835">3</text>
	<text transform="matrix(1 0 0 1 27.50 44.50)" fill="#43A047">4</text>
	<text transform="matrix(1 0 0 1 33.50 34.63)" fill="#1E88E5">5</text>
	<text transform="matrix(1 0 0 1 40.50 42.50)" fill="#8E24AA">6</text>
	<text transform="matrix(1 0 0 1 41.25 50.50)" fill="#EC407A">7</text>
	<text transform="matrix(1 0 0 1 9.50 66.50)" fill="#00ACC1">8</text>
	<text transform="matrix(1 0 0 1 37.50 60.50)" fill="#795548">9</text>
	<text transform="matrix(1 0 0 1 63.50 59.50)" fill="#546E7A">10</text>
	<text transform="matrix(1 0 0 1 30.75 85.63)" fill="#E53935">11</text>
	<text transform="matrix(1 0 0 1 42.75 74.50)" fill="#FB8C00">12</text>
	<text transform="matrix(1 0 0 1 14.50 96.50)" fill="#FDD835">13</text>
</g>
</svg>
