<?xml version="1.0" encoding="UTF-8"?>
<svg xmlns="http://www.w3.org/2000/svg" width="109" height="109" viewBox="0 0 109 109">
<g id="kvg:StrokePaths_058cc" style="fill:none;stroke:#000000;stroke-width:3;stroke-linecap:round;stroke-linejoin:round;">
<g id="kvg:058cc">
	<g id="kvg:058cc-g1">
		<path id="kvg:s-s1" stroke="#E53935" d="M11.75,43.64c1.38,0.7,4.53,0.49,6.01,0.25C23.28,43.01,28.12,42,34,40.75c1.23-0.26,2.62-0.43,3.25-0.24"/>
		<path id="kvg:s-s2" stroke="#FB8C00" d="M25.87,21c0.88,0.88,1.21,2.12,1.21,3.5c0,7.25,0.03,29.75,0.03,40.5"/>
		<path id="kvg:s-s3" stroke="#FDD835" d="M12,74.86c1.12,0.77,2.88,0.77,4.24-0.25c5.35-3.99,14.31-11.42,19.51-15.6"/>
	</g>
	<g id="kvg:058cc-g2">
		<g id="kvg:058cc-g3">
			<g id="kvg:058cc-g4">
				<path id="kvg:s-s4" stroke="#43A047" d="M63.39,13.25c1.05,1.05,1.35,2.12,1.35,3.59c0,1.16-0.09,3.78-0.09,4.93"/>
				<path id="kvg:s-s5" stroke="#1E88E5" d="M40.37,25.1c2.57,0.51,5.3,0.41,7.89,0.07c9.42-1.21,25.76-3.67,35.24-4.4c2.04-0.16,4.12-0.14,6.38,0.25"/>
			</g>
			<g id="kvg:058cc-g5">
				<path id="kvg:s-s6" stroke="#8E24AA" d="M54.52,27.64c0.04,0.25,0.07,0.64-0.07,1c-0.79,1.94-5.03,6.02-10.95,8.86"/>
				<path id="kvg:s-s7" stroke="#EC407A" d="M74.77,27.33c4.34,1.35,10.96,5.29,12.04,7.38"/>
			</g>
		</g>
		<g id="kvg:058cc-g6">
			<g id="kvg:058cc-g7">
				<path id="kvg:s-s8" stroke="#00ACC1" d="M47.25,43.02c1.63,0.66,4.52,0.48,6.27,0.27c6.75-0.85,16.44-2.5,24.35-3.53c1.19-0.16,2.44-0.4,3.63-0.11"/>
			</g>
		</g>
		<path id="kvg:s-s9" stroke="#795548" d="M55.87,38c1,1,1.21,2.62,1.21,4c0,1.02,0.42,10.75,0.78,20.25"/>
		<path id="kvg:s-s10" stroke="#546E7A" d="M72.62,34c0.88,1,1.17,2.48,0.96,4c-1.33,9.5-1.83,14.25-2.83,22.75"/>
		<g id="kvg:058cc-g8">
			<g id="kvg:058cc-g9">
				<path id="kvg:s-s11" stroke="#E53935" d="M47.25,53.27c1.89,0.77,4.32,0.55,6.27,0.34c6.54-0.71,17.29-2.41,23.85-3.11c1.36-0.15,2.79-0.43,4.12-0.1"/>
			</g>
			<g id="kvg:058cc-g10">
				<path id="kvg:s-s12" stroke="#FB8C00" d="M39,64.64c2.1,0.85,4.96,0.32,7.11,0.12c9.55-0.89,30.31-3.79,39.26-4.48c2.34-0.18,4.82-0.34,7.12,0.22"/>
			</g>
		</g>
		<g id="kvg:058cc-g11">
			<path id="kvg:s-s13" stroke="#FDD835" d="M58.28,65.64c0.06,0.55,0.11,1.52-0.37,2.2c-4.03,5.66-9.2,11.24-20.9,18.77"/>
			<path id="kvg:s-s14" stroke="#43A047" d="M53.59,77.45c0.67,0.75,0.66,1.32,0.66,2.3c-0.01,7.15-0.12,11.62-0.12,12.88c0,1.31,0.88,1.61,1.94,0.68c4.19-3.68,9.5-9.04,10.82-10.02"/>
			<path id="kvg:s-s15" stroke="#1E88E5" d="M79.64,63.94c0.07,0.74,0.04,1.52-0.39,2.13c-2.13,3.06-2.79,3.55-6.98,7.5"/>
			<path id="kvg:s-s16" stroke="#8E24AA" d="M61.12,69.25C63.88,70,77.89,80.58,86.15,86.09c2.66,1.78,4.85,2.66,7.91,3.58"/>
		</g>
	</g>
</g>
</g>
<g id="kvg:StrokeNumbers_058cc" style="font-size:18;font-weight:bold;stroke:#fff;stroke-width:1.5;paint-order:stroke">
	<text transform="matrix(1 0 0 1 5.50 44.50)" fill="#E53935">1</text>
	<text transform="matrix(1 0 0 1 16.50 21.13)" fill="#FB8C00">2</text>
	<text transform="matrix(1 0 0 1 4.50 79.63)" fill="#FDD835">3</text>
	<text transform="matrix(1 0 0 1 54.75 13.50)" fill="#43A047">4</text>
	<text transform="matrix(1 0 0 1 39.50 22.50)" fill="#1E88E5">5</text>
	<text transform="matrix(1 0 0 1 43.50 33.50)" fill="#8E24AA">6</text>
	<text transform="matrix(1 0 0 1 67.50 30.50)" fill="#EC407A">7</text>
	<text transform="matrix(1 0 0 1 40.50 45.50)" fill="#00ACC1">8</text>
	<text transform="matrix(1 0 0 1 48.50 40.50)" fill="#795548">9</text>
	<text transform="matrix(1 0 0 1 61.50 37.50)" fill="#546E7A">10</text>
	<text transform="matrix(1 0 0 1 39.50 52.50)" fill="#E53935">11</text>
	<text transform="matrix(1 0 0 1 38.50 62.50)" fill="#FB8C00">12</text>
	<text transform="matrix(1 0 0 1 45.50 72.50)" fill="#FDD835">13</text>
	<text transform="matrix(1 0 0 1 44.50 88.50)" fill="#43A047">14</text>
	<text transform="matrix(1 0 0 1 69.50 68.50)" fill="#1E88E5">15</text>
	<text transform="matrix(1 0 0 1 58.50 77.50)" fill="#8E24AA">16</text>
</g>
</svg>
