<?xml version="1.0" encoding="UTF-8"?>
<svg xmlns="http://www.w3.org/2000/svg" width="109" height="109" viewBox="0 0 109 109">
<g id="kvg:StrokePaths_058ee" style="fill:none;stroke:#000000;stroke-width:3;stroke-linecap:round;stroke-linejoin:round;">
<g id="kvg:058ee">
	<g id="kvg:058ee-g1">
		<path id="kvg:s-s1" stroke="#E53935" d="M34.12,16.25c1.19,1.19,1.46,3,1.46,4.5c0,0.65,0.04,45.06,0.04,65c0,5.58,0,9.25-0.01,9.5"/>
		<path id="kvg:s-s2" stroke="#FB8C00" d="M13.88,30.25c4.02,2.43,10.37,9.98,11.38,13.75"/>
		<path id="kvg:s-s3" stroke="#FDD835" d="M12.5,76.3c1.88,0.95,3.08,0.2,4.34-0.76c3.66-2.8,7.33-6.22,10.66-9.78"/>
	</g>
	<g id="kvg:058ee-g2">
		<path id="kvg:s-s4" stroke="#43A047" d="M44.63,46.23c2.12,0.65,5.24,0.48,7.25,0.18c11.12-1.65,26.75-3.78,38.5-4.62c1.96-0.14,4.25-0.15,6.25,0.29"/>
		<path id="kvg:s-s5" stroke="#1E88E5" d="M69,17.25c1.19,1.19,1.75,2.75,1.75,4.75c0,1.03,0,45.25,0,60.5"/>
		<path id="kvg:s-s6" stroke="#8E24AA" d="M47.5,83.75c2.88,0.75,4.73,0.7,7.25,0.46c10.56-1,22.05-2.24,33.26-2.41c2.12-0.03,4.53,0.11,6.61,0.59"/>
	</g>
</g>
</g>
<g id="kvg:StrokeNumbers_058ee" style="font-size:18;font-weight:bold;stroke:#fff;stroke-width:1.5;paint-order:stroke">
	<text transform="matrix(1 0 0 1 24.75 15.50)" fill="#E53935">1</text>
	<text transform="matrix(1 0 0 1 6.50 30.50)" fill="#FB8C00">2</text>
	<text transform="matrix(1 0 0 1 5.25 79.50)" fill="#FDD835">3</text>
	<text transform="matrix(1 0 0 1 43.25 43.13)" fill="#43A047">4</text>
	<text transform="matrix(1 0 0 1 59.50 17.50)" fill="#1E88E5">5</text>
	<text transform="matrix(1 0 0 1 45.50 80.50)" fill="#8E24AA">6</text>
</g>
</svg>
