<?xml version="1.0" encoding="UTF-8"?>
<svg xmlns="http://www.w3.org/2000/svg" width="109" height="109" viewBox="0 0 109 109">
<g id="kvg:StrokePaths_0591a" style="fill:none;stroke:#000000;stroke-width:3;stroke-linecap:round;stroke-linejoin:round;">
<g id="kvg:0591a">
	<g id="kvg:0591a-g1">
		<path id="kvg:s-s1" stroke="#E53935" d="M45.82,11.92c0.18,1.08-0.22,2.3-0.66,3.01C42.5,19.25,37,26.33,28.5,31.25"/>
		<path id="kvg:s-s2" stroke="#FB8C00" d="M48.24,16.65c1.38,0.22,3.15,0.08,4.79-0.12c5.59-0.66,9.72-1.28,14.9-2.3c3.15-0.62,4.07,1.15,3.01,3.46c-4.46,9.74-24.82,31.44-44.28,37.66"/>
		<path id="kvg:s-s3" stroke="#FDD835" d="M40,28.25c2.67,1.56,7,6.5,7.75,9"/>
	</g>
	<g id="kvg:0591a-g2">
		<path id="kvg:s-s4" stroke="#43A047" d="M58.5,42.25c0.25,1.5-0.11,2.78-0.48,3.6C55.25,52,48.75,59.5,33.75,68.5"/>
		<path id="kvg:s-s5" stroke="#1E88E5" d="M60.42,48.62c1.58,0.13,3.01,0.09,4.6-0.09c5.86-0.66,9.23-1.16,13.48-2.03c3.13-0.64,4.62,1.62,3.48,4.09c-5,10.79-23.61,34.91-54.73,48.16"/>
		<path id="kvg:s-s6" stroke="#8E24AA" d="M48.25,63c2.93,1.73,7.67,7.22,8.5,10"/>
	</g>
</g>
</g>
<g id="kvg:StrokeNumbers_0591a" style="font-size:18;fill:#E53935;font-weight:bold;stroke:#fff;stroke-width:1.5;paint-order:stroke">
	<text transform="matrix(1 0 0 1 38.50 12.50)" fill="#E53935">1</text>
	<text transform="matrix(1 0 0 1 51.75 13.63)" fill="#FB8C00">2</text>
	<text transform="matrix(1 0 0 1 44.50 28.50)" fill="#FDD835">3</text>
	<text transform="matrix(1 0 0 1 49.50 49.50)" fill="#43A047">4</text>
	<text transform="matrix(1 0 0 1 64.50 45.50)" fill="#1E88E5">5</text>
	<text transform="matrix(1 0 0 1 53.50 63.13)" fill="#8E24AA">6</text>
</g>
</svg>
