<?xml version="1.0" encoding="UTF-8"?>
<svg xmlns="http://www.w3.org/2000/svg" width="109" height="109" viewBox="0 0 109 109">
<g id="kvg:StrokePaths_05983" style="fill:none;stroke:#000000;stroke-width:3;stroke-linecap:round;stroke-linejoin:round;">
<g id="kvg:05983">
	<g id="kvg:05983-g1">
		<path id="kvg:s-s1" stroke="#E53935" d="M31.06,19.37c0.4,1,0.62,2.38,0.41,3.82c-1.01,7.08-6.28,32.24-10.73,40.52c-0.91,1.7,0.41,2.36,0.91,2.52c6.77,2.16,11.95,5.47,16.42,10.19c1.92,2.02,3.7,4.31,5.43,6.87"/>
		<path id="kvg:s-s2" stroke="#FB8C00" d="M43,37.39c0.5,1.23,0.64,2.59,0.34,4.43C40.93,56.66,33.62,78.38,16.5,90.5"/>
		<path id="kvg:s-s3" stroke="#FDD835" d="M11.75,50.47c0.5,1.41,1.77,1.77,3.75,1.39c3.88-0.74,24.09-5.6,33-7.98"/>
	</g>
	<g id="kvg:05983-g2">
		<path id="kvg:s-s4" stroke="#43A047" d="M52.94,23.81c1.94,0.81,3.51,0.95,5.91,0.6c9.66-1.41,25.33-2.77,26.81-2.93c1.95-0.21,3.74,1.14,3.04,4.43c-0.21,0.98-2.27,11.23-3.64,20.63"/>
		<path id="kvg:s-s5" stroke="#1E88E5" d="M54.54,49.87c1.21,0.38,2.44,0.78,3.99,0.67c6.17-0.42,15.1-1.67,24-2.59c1.82-0.19,3.61-0.24,5.07-0.24"/>
		<path id="kvg:s-s6" stroke="#8E24AA" d="M55.79,50.87c0.92,0.92,1.36,2.13,1.36,3.51c0,6.98-0.02,15.05-0.02,21.37C57.12,89,58,90,76.5,90c17.62,0,18.99-1.75,18.99-11.24"/>
	</g>
</g>
</g>
<g id="kvg:StrokeNumbers_05983" style="font-size:18;font-weight:bold;stroke:#fff;stroke-width:1.5;paint-order:stroke">
	<text transform="matrix(1 0 0 1 23.50 19.50)" fill="#E53935">1</text>
	<text transform="matrix(1 0 0 1 39.75 33.13)" fill="#FB8C00">2</text>
	<text transform="matrix(1 0 0 1 5.25 57.13)" fill="#FDD835">3</text>
	<text transform="matrix(1 0 0 1 51.50 21.50)" fill="#43A047">4</text>
	<text transform="matrix(1 0 0 1 58.50 47.50)" fill="#1E88E5">5</text>
	<text transform="matrix(1 0 0 1 49.50 56.50)" fill="#8E24AA">6</text>
</g>
</svg>
