<?xml version="1.0" encoding="UTF-8"?>
<svg xmlns="http://www.w3.org/2000/svg" width="109" height="109" viewBox="0 0 109 109">
<g id="kvg:StrokePaths_059b9" style="fill:none;stroke:#000000;stroke-width:3;stroke-linecap:round;stroke-linejoin:round;">
<g id="kvg:059b9">
	<g id="kvg:059b9-g1">
		<path id="kvg:s-s1" stroke="#E53935" d="M26.55,18.62c0.33,1.11,0.69,2.93,0.51,4.54c-1.3,11.72-3.8,28.84-6.37,38.68c-0.52,1.98,0.34,2.68,0.76,2.81c4.84,1.55,10.03,4.05,14,7.92c1.41,1.38,2.7,3.36,3.81,4.94"/>
		<path id="kvg:s-s2" stroke="#FB8C00" d="M39.73,34.75c0.77,1.78,0.65,3.07,0.36,5.01C37.71,55.44,30.1,78.2,13.12,89.88"/>
		<path id="kvg:s-s3" stroke="#FDD835" d="M10,47.71c0.88,1.29,2.27,1.68,4.25,1.29c9-1.75,22.33-4.73,33.25-7.03"/>
	</g>
	<g id="kvg:059b9-g2">
		<path id="kvg:s-s4" stroke="#43A047" d="M51.84,34.46c1.19,0.2,3.14,0.08,4.33-0.05c6.08-0.66,16.08-2.15,22.4-2.91c1.96-0.23,3.18,0.1,4.18,0.19"/>
		<g id="kvg:059b9-g3">
			<path id="kvg:s-s5" stroke="#1E88E5" d="M44.25,51.25c2.26,0.5,3.88,0.61,6.8,0.25c8.2-1,24.32-3.25,34.64-3.89c2.7-0.17,4.56,0.14,6.33,0.75"/>
			<path id="kvg:s-s6" stroke="#8E24AA" d="M65.14,13.25C66.38,14.49,67,16,67,17.72c0,4.53,0.07,51.14-0.14,71.53c-0.04,4.02-0.08,6.81-0.13,7.75"/>
			<path id="kvg:s-s7" stroke="#EC407A" d="M64.75,51c0,1.5-0.42,2.54-0.8,3.33C57.88,66.75,48.5,80,36.25,87.5"/>
			<path id="kvg:s-s8" stroke="#00ACC1" d="M68,51c4.56,8.8,13.2,20.09,20.34,27.47c2.02,2.09,4.91,4.41,7.54,6.03"/>
		</g>
	</g>
</g>
</g>
<g id="kvg:StrokeNumbers_059b9" style="font-size:18;fill:#E53935;font-weight:bold;stroke:#fff;stroke-width:1.5;paint-order:stroke">
	<text transform="matrix(1 0 0 1 18.50 19.50)" fill="#E53935">1</text>
	<text transform="matrix(1 0 0 1 37.50 31.50)" fill="#FB8C00">2</text>
	<text transform="matrix(1 0 0 1 2.50 49.63)" fill="#FDD835">3</text>
	<text transform="matrix(1 0 0 1 50.50 32.50)" fill="#43A047">4</text>
	<text transform="matrix(1 0 0 1 48.50 48.50)" fill="#1E88E5">5</text>
	<text transform="matrix(1 0 0 1 56.50 14.50)" fill="#8E24AA">6</text>
	<text transform="matrix(1 0 0 1 54.50 61.50)" fill="#EC407A">7</text>
	<text transform="matrix(1 0 0 1 76.50 60.13)" fill="#00ACC1">8</text>
</g>
</svg>
