<?xml version="1.0" encoding="UTF-8"?>
<svg xmlns="http://www.w3.org/2000/svg" width="109" height="109" viewBox="0 0 109 109">
<g id="kvg:StrokePaths_059c9" style="fill:none;stroke:#000000;stroke-width:3;stroke-linecap:round;stroke-linejoin:round;">
<g id="kvg:059c9">
	<g id="kvg:059c9-g1">
		<path id="kvg:s-s1" stroke="#E53935" d="M28.12,20.37c0.38,1.13,0.57,2.99,0.38,4.63c-0.97,8.06-4.99,28-9.27,37.43c-0.88,1.94,0.37,2.8,0.88,2.87c6.05,0.78,13.68,5.27,19.13,12.22c1.21,1.54,2.32,3.21,3.27,4.98"/>
		<path id="kvg:s-s2" stroke="#FB8C00" d="M40.5,38.75c0.38,1.75,0.36,2.98,0.08,4.67C38.12,58.25,30,78.88,12.75,87.75"/>
		<path id="kvg:s-s3" stroke="#FDD835" d="M10.25,48.71c1,0.92,2.53,1.24,4.5,0.79c7.12-1.62,19.5-5.25,30-7.78"/>
	</g>
	<g id="kvg:059c9-g2">
		<g id="kvg:059c9-g3">
			<path id="kvg:s-s4" stroke="#43A047" d="M69.23,13c1.32,1.32,1.65,2.75,1.65,4.77c0,4.3-0.11,4.98-0.11,8.58"/>
			<path id="kvg:s-s5" stroke="#1E88E5" d="M44.5,29.22c3.09,0.48,5.97,0.51,7.72,0.33c11.4-1.18,30.28-3.43,40.66-4.05c2.98-0.18,4.52,0.03,6.75,0.42"/>
		</g>
		<g id="kvg:059c9-g4">
			<path id="kvg:s-s6" stroke="#8E24AA" d="M53.38,46.06c0.78,0.78,1.16,2.19,1.16,3.98c0,4.71,0,13.1-0.09,20.96c-0.03,2.29-0.05,3.66-0.07,4.69"/>
			<path id="kvg:s-s7" stroke="#EC407A" d="M55.52,47.9c8.95-1.14,30.63-4.27,32.52-4.4c3.59-0.25,4.49,0.75,4.49,4.91c0,8.97-0.3,15.52-0.81,23.17c-0.47,6.93-3.47,3.68-5.95-0.23"/>
			<path id="kvg:s-s8" stroke="#00ACC1" d="M70.57,34.12c1.21,1.21,1.41,2.93,1.41,4.58c0,0.63-0.06,37.87-0.09,53.16c0,3.21-0.02,3.95-0.03,4.77"/>
		</g>
	</g>
</g>
</g>
<g id="kvg:StrokeNumbers_059c9" style="font-size:18;fill:#E53935;font-weight:bold;stroke:#fff;stroke-width:1.5;paint-order:stroke">
	<text transform="matrix(1 0 0 1 19.50 20.50)" fill="#E53935">1</text>
	<text transform="matrix(1 0 0 1 33.75 35.50)" fill="#FB8C00">2</text>
	<text transform="matrix(1 0 0 1 2.25 51.13)" fill="#FDD835">3</text>
	<text transform="matrix(1 0 0 1 60.50 12.50)" fill="#43A047">4</text>
	<text transform="matrix(1 0 0 1 44.25 26.50)" fill="#1E88E5">5</text>
	<text transform="matrix(1 0 0 1 46.50 53.50)" fill="#8E24AA">6</text>
	<text transform="matrix(1 0 0 1 55.50 44.50)" fill="#EC407A">7</text>
	<text transform="matrix(1 0 0 1 75.50 37.63)" fill="#00ACC1">8</text>
</g>
</svg>
