<?xml version="1.0" encoding="UTF-8"?>
<svg xmlns="http://www.w3.org/2000/svg" width="109" height="109" viewBox="0 0 109 109">
<g id="kvg:StrokePaths_059eb" style="fill:none;stroke:#000000;stroke-width:3;stroke-linecap:round;stroke-linejoin:round;">
<g id="kvg:059eb">
	<g id="kvg:059eb-g1">
		<path id="kvg:s-s1" stroke="#E53935" d="M32.31,21.37c0.4,1,0.62,2.38,0.41,3.82c-1.85,12.94-4.97,29.07-9.48,39.52c-0.76,1.77,0.4,2.4,0.91,2.52c7.22,1.65,11.85,4.65,16.88,9.49c1.91,1.84,3.3,4.15,4.46,6.57"/>
		<path id="kvg:s-s2" stroke="#FB8C00" d="M44.5,38.14c0.62,1.23,0.64,2.47,0.33,4.25C42.36,56.82,35.62,78.25,16.75,90"/>
		<path id="kvg:s-s3" stroke="#FDD835" d="M11.5,51.22c0.75,0.94,1.75,1.62,3.75,1.39c2.15-0.24,23.09-5.1,32-7.48"/>
	</g>
	<g id="kvg:059eb-g2">
		<path id="kvg:s-s4" stroke="#43A047" d="M54.98,19.74c1.21,1.21,1.26,2.64,1.26,4.54c0,0.74,0.04,43.22-0.08,59.97c-0.02,3.04-0.01,5.18-0.03,6"/>
		<path id="kvg:s-s5" stroke="#1E88E5" d="M57.39,22.38c6.52-0.72,19.74-2.45,31.11-3.48c1.6-0.15,3.58-0.59,5.18-0.13"/>
		<path id="kvg:s-s6" stroke="#8E24AA" d="M74.75,23.42c0.98,0.98,1.26,2.08,1.26,3.29C76.01,27.58,76,36.44,76,42"/>
		<path id="kvg:s-s7" stroke="#EC407A" d="M57.42,45.51c11.04-1.58,22.08-3.01,31-3.8c3.12-0.27,3.97,1.34,3.54,3.65c-0.78,4.19-1.83,8.51-2.98,14.01"/>
		<path id="kvg:s-s8" stroke="#00ACC1" d="M57.46,63.34c3.61-0.5,19.96-1.88,29.32-2.65c2.6-0.21,4.6-0.38,5.55-0.46"/>
		<path id="kvg:s-s9" stroke="#795548" d="M74.98,64.6c0.77,0.77,1.01,1.65,1.01,3.04c0,4.98-0.05,10.98-0.05,16.84"/>
		<path id="kvg:s-s10" stroke="#546E7A" d="M57.14,86.59c5.26-0.44,24.98-1.44,36.25-2.08c1.65-0.09,3.86-0.32,5.51,0.15"/>
	</g>
</g>
</g>
<g id="kvg:StrokeNumbers_059eb" style="font-size:18;font-weight:bold;stroke:#fff;stroke-width:1.5;paint-order:stroke">
	<text transform="matrix(1 0 0 1 24.50 21.50)" fill="#E53935">1</text>
	<text transform="matrix(1 0 0 1 39.75 34.50)" fill="#FB8C00">2</text>
	<text transform="matrix(1 0 0 1 6.50 59.50)" fill="#FDD835">3</text>
	<text transform="matrix(1 0 0 1 48.50 27.13)" fill="#43A047">4</text>
	<text transform="matrix(1 0 0 1 58.50 18.13)" fill="#1E88E5">5</text>
	<text transform="matrix(1 0 0 1 68.50 30.13)" fill="#8E24AA">6</text>
	<text transform="matrix(1 0 0 1 60.75 42.13)" fill="#EC407A">7</text>
	<text transform="matrix(1 0 0 1 60.75 59.50)" fill="#00ACC1">8</text>
	<text transform="matrix(1 0 0 1 68.50 71.50)" fill="#795548">9</text>
	<text transform="matrix(1 0 0 1 59.50 83.50)" fill="#546E7A">10</text>
</g>
</svg>
