<?xml version="1.0" encoding="UTF-8"?>
<svg xmlns="http://www.w3.org/2000/svg" width="109" height="109" viewBox="0 0 109 109">
<g id="kvg:StrokePaths_05ac9" style="fill:none;stroke:#000000;stroke-width:3;stroke-linecap:round;stroke-linejoin:round;">
<g id="kvg:05ac9">
	<g id="kvg:05ac9-g1">
		<path id="kvg:s-s1" stroke="#E53935" d="M27.02,22.12c0.34,1.06,0.45,2.78,0.27,4.31c-0.86,7.5-5.58,27.98-9.36,36.75c-0.77,1.8,0.34,2.54,0.77,2.67c9.53,2.91,16.16,9.53,19.53,15.75"/>
		<path id="kvg:s-s2" stroke="#FB8C00" d="M37.51,38.73c0.37,1.52,0.51,3.2,0.1,4.94C34.12,58.62,29,77.62,12.75,89.5"/>
		<path id="kvg:s-s3" stroke="#FDD835" d="M10.75,49.84c0.75,0.97,2.06,1.48,4,0.93c11-3.15,18.25-5.15,28.5-8.18"/>
	</g>
	<g id="kvg:05ac9-g2">
		<g id="kvg:05ac9-g3">
			<path id="kvg:s-s4" stroke="#43A047" d="M72.57,13.63c1.08,1.08,1.27,2.37,1.27,3.75c0,0.69-0.05,3.49-0.05,7.68"/>
			<path id="kvg:s-s5" stroke="#1E88E5" d="M51.9,27.77c3.62,0.53,7.19,0.49,10.73-0.13c9.64-1.45,17.72-2.08,25.64-2.8c2.95-0.27,5.83-0.49,8.72,0.12"/>
			<path id="kvg:s-s6" stroke="#8E24AA" d="M55.76,29.1c0.88,0.88,0.92,2.37,0.87,3.65c-1.1,27.34-6.17,45.04-15.2,56.5"/>
			<path id="kvg:s-s7" stroke="#EC407A" d="M44.49,47.34c2.01,1.36,4.95,5.12,5.45,7.24"/>
			<path id="kvg:s-s8" stroke="#00ACC1" d="M39.67,67.91c1.11,0.54,1.89,0.52,2.93-0.03c3.15-1.64,3.77-2.14,7.73-4.45"/>
		</g>
		<g id="kvg:05ac9-g4">
			<path id="kvg:s-s9" stroke="#795548" d="M70.32,33.2c0.04,1.03-0.16,1.99-0.61,2.88c-2.6,6.27-5.08,12.05-8.84,18.29"/>
			<g id="kvg:05ac9-g5">
				<path id="kvg:s-s10" stroke="#546E7A" d="M70.35,43.38c0.95,0.08,2.86-0.09,3.51-0.24c2.44-0.56,9.3-1.99,13.63-3.04c1.23-0.42,2.5-0.5,3.81-0.26"/>
				<g id="kvg:05ac9-g6">
					<path id="kvg:s-s11" stroke="#E53935" d="M59.53,61.42c2.57,0.48,5.1,0.17,7.72-0.06c7.68-0.68,16.38-1.74,22.61-2.38c2.48-0.25,4.85-0.42,7.24,0.21"/>
					<path id="kvg:s-s12" stroke="#FB8C00" d="M76.74,45.4c0.81,0.81,0.92,1.9,0.82,3.29c-1.43,19.94-10.8,35.81-24.65,43.73"/>
					<path id="kvg:s-s13" stroke="#FDD835" d="M76.75,63.38c3.71,7.74,9.25,16.25,13.39,21.76c1.94,2.58,4.13,4.97,6.84,6.64"/>
				</g>
			</g>
		</g>
	</g>
</g>
</g>
<g id="kvg:StrokeNumbers_05ac9" style="font-size:18;font-weight:bold;stroke:#fff;stroke-width:1.5;paint-order:stroke">
	<text transform="matrix(1 0 0 1 18.50 21.63)" fill="#E53935">1</text>
	<text transform="matrix(1 0 0 1 35.50 34.50)" fill="#FB8C00">2</text>
	<text transform="matrix(1 0 0 1 2.50 51.48)" fill="#FDD835">3</text>
	<text transform="matrix(1 0 0 1 63.50 13.50)" fill="#43A047">4</text>
	<text transform="matrix(1 0 0 1 51.50 24.50)" fill="#1E88E5">5</text>
	<text transform="matrix(1 0 0 1 48.50 37.50)" fill="#8E24AA">6</text>
	<text transform="matrix(1 0 0 1 46.75 46.18)" fill="#EC407A">7</text>
	<text transform="matrix(1 0 0 1 38.75 63.10)" fill="#00ACC1">8</text>
	<text transform="matrix(1 0 0 1 62.50 36.03)" fill="#795548">9</text>
	<text transform="matrix(1 0 0 1 74.50 39.50)" fill="#546E7A">10</text>
	<text transform="matrix(1 0 0 1 64.50 58.88)" fill="#E53935">11</text>
	<text transform="matrix(1 0 0 1 66.50 51.50)" fill="#FB8C00">12</text>
	<text transform="matrix(1 0 0 1 81.50 69.50)" fill="#FDD835">13</text>
</g>
</svg>
