<?xml version="1.0" encoding="UTF-8"?>
<svg xmlns="http://www.w3.org/2000/svg" width="109" height="109" viewBox="0 0 109 109">
<g id="kvg:StrokePaths_05ae1" style="fill:none;stroke:#000000;stroke-width:3;stroke-linecap:round;stroke-linejoin:round;">
<g id="kvg:05ae1">
	<g id="kvg:05ae1-g1">
		<path id="kvg:s-s1" stroke="#E53935" d="M29.87,18.37c0.38,1.24,0.57,3.03,0.38,4.83c-0.97,8.84-7.49,31.45-11.77,41.79c-0.88,2.12-1.06,2.64,0.38,3.14c6.4,2.24,11.27,4.62,16.86,9.41c2.45,2.1,4.38,4.98,6.28,8.2"/>
		<path id="kvg:s-s2" stroke="#FB8C00" d="M41.5,38.3c0.75,1.33,0.89,3.22,0.58,5.11C39.63,58.7,33.12,80.38,14.75,93"/>
		<path id="kvg:s-s3" stroke="#FDD835" d="M10.75,50.92c0.5,1.08,1.53,1.59,3.5,1.15c11.88-2.69,17-4.19,31-7.5"/>
	</g>
	<g id="kvg:05ae1-g2">
		<g id="kvg:05ae1-g3">
			<path id="kvg:s-s4" stroke="#43A047" d="M69.5,12.75c1.12,0.79,1.43,2.04,1.43,3.89s0,3.33,0,8.35"/>
			<path id="kvg:s-s5" stroke="#1E88E5" d="M47.8,27.56c2.58,0.69,5.58,0.32,8.2,0.02c10.5-1.21,21.13-2.58,31.13-3.46c2.71-0.24,5.36-0.33,8.07,0.11"/>
		</g>
		<path id="kvg:s-s6" stroke="#8E24AA" d="M58.11,30.96c3.54,4.14,5.15,8.38,5.47,11.1"/>
		<path id="kvg:s-s7" stroke="#EC407A" d="M82.58,28.1c0.6,0.43,0.68,0.64,0.6,1c-0.48,2.42-4.96,10.11-6.17,11.96"/>
		<g id="kvg:05ae1-g4">
			<path id="kvg:s-s8" stroke="#00ACC1" d="M50.51,44.71c1.14,1.14,1.35,2.42,1.35,3.82c0,0.89-0.06,27.16-0.08,40.22c-0.01,4.25-0.02,7.1-0.02,7.22"/>
			<path id="kvg:s-s9" stroke="#795548" d="M52.6,46.33c4.91-0.56,28.04-2.8,35.04-3.55c4.2-0.45,5.7,0.31,5.7,4.46c0,9.25-0.05,41.7-0.05,44.97c0,6.01-4.1,2.22-6.34-0.03"/>
		</g>
		<g id="kvg:05ae1-g5">
			<g id="kvg:05ae1-g6">
				<path id="kvg:s-s10" stroke="#546E7A" d="M57.99,57.73c1.67,0.54,3.3,0.23,5,0.02c4.86-0.6,13.5-2.02,18.65-2.32c1.19-0.07,2.9-0.3,4.07-0.07"/>
				<path id="kvg:s-s11" stroke="#E53935" d="M70.25,47.63c1.37,1.37,1.46,2.37,1.46,4.11c0,6.47-0.09,10.46-0.09,14.38"/>
			</g>
			<g id="kvg:05ae1-g7">
				<path id="kvg:s-s12" stroke="#FB8C00" d="M60.62,67.83c1.14,0.63,1.4,1.36,1.62,2.54c0.38,1.99,1.03,5.42,1.58,8.62c0.29,1.69,0.55,3.31,0.73,4.62"/>
				<path id="kvg:s-s13" stroke="#FDD835" d="M62.72,68.74c4.1-0.4,12.43-1.89,16.65-2.32c2.37-0.24,3.79-0.13,3.33,2.46c-0.47,2.64-1.43,6.81-2.05,9.78"/>
				<path id="kvg:s-s14" stroke="#43A047" d="M64.99,81.37c4.01-0.49,9.64-1.13,14.28-1.62c1.08-0.11,2.09-0.2,2.97-0.25"/>
			</g>
		</g>
	</g>
</g>
</g>
<g id="kvg:StrokeNumbers_05ae1" style="font-size:18;font-weight:bold;stroke:#fff;stroke-width:1.5;paint-order:stroke">
	<text transform="matrix(1 0 0 1 22.50 17.50)" fill="#E53935">1</text>
	<text transform="matrix(1 0 0 1 33.50 37.63)" fill="#FB8C00">2</text>
	<text transform="matrix(1 0 0 1 2.50 53.50)" fill="#FDD835">3</text>
	<text transform="matrix(1 0 0 1 60.50 13.50)" fill="#43A047">4</text>
	<text transform="matrix(1 0 0 1 45.50 24.05)" fill="#1E88E5">5</text>
	<text transform="matrix(1 0 0 1 52.50 35.98)" fill="#8E24AA">6</text>
	<text transform="matrix(1 0 0 1 73.50 34.41)" fill="#EC407A">7</text>
	<text transform="matrix(1 0 0 1 44.50 54.50)" fill="#00ACC1">8</text>
	<text transform="matrix(1 0 0 1 51.50 42.13)" fill="#795548">9</text>
	<text transform="matrix(1 0 0 1 54.50 55.55)" fill="#546E7A">10</text>
	<text transform="matrix(1 0 0 1 62.50 53.50)" fill="#E53935">11</text>
	<text transform="matrix(1 0 0 1 54.50 76.50)" fill="#FB8C00">12</text>
	<text transform="matrix(1 0 0 1 58.50 66.50)" fill="#FDD835">13</text>
	<text transform="matrix(1 0 0 1 66.75 78.13)" fill="#43A047">14</text>
</g>
</svg>
