<?xml version="1.0" encoding="UTF-8"?>
<svg xmlns="http://www.w3.org/2000/svg" width="109" height="109" viewBox="0 0 109 109">
<g id="kvg:StrokePaths_05b54" style="fill:none;stroke:#000000;stroke-width:3;stroke-linecap:round;stroke-linejoin:round;">
<g id="kvg:05b54">
	<g id="kvg:05b54-g1">
		<path id="kvg:s-s1" stroke="#E53935" d="M15.79,24.01c2.4,0.84,4.88,0.62,7.36,0.18c5.36-0.94,12.98-2.7,17.37-3.88c3.49-0.94,5.53,0.56,2.95,3.78c-2.17,2.7-7.61,10.05-13.22,15.64"/>
		<path id="kvg:s-s2" stroke="#FB8C00" d="M27.6,40.38c8.9,7.37,16.65,24.37,9.9,43.12c-2.57,7.14-6,8-11.25,0.5"/>
		<path id="kvg:s-s3" stroke="#FDD835" d="M13.69,68.37c1.18,1,2.71,0.6,4.29-0.47C28.5,60.75,35.25,56,47.25,47.5"/>
	</g>
	<g id="kvg:05b54-g2">
		<path id="kvg:s-s4" stroke="#43A047" d="M61.99,15.62c0.95,0.95,1.26,2,1.26,3.93c0,8.19,0.01,52.89,0.01,58.45c0,9.88,2.24,11.5,17.49,11.5C95,89.5,96.89,87,96.89,79.4"/>
	</g>
</g>
</g>
<g id="kvg:StrokeNumbers_05b54" style="font-size:18;font-weight:bold;stroke:#fff;stroke-width:1.5;paint-order:stroke">
	<text transform="matrix(1 0 0 1 8.50 23.50)" fill="#E53935">1</text>
	<text transform="matrix(1 0 0 1 23.50 48.50)" fill="#FB8C00">2</text>
	<text transform="matrix(1 0 0 1 5.50 72.50)" fill="#FDD835">3</text>
	<text transform="matrix(1 0 0 1 52.50 13.50)" fill="#43A047">4</text>
</g>
</svg>
