<?xml version="1.0" encoding="UTF-8"?>
<svg xmlns="http://www.w3.org/2000/svg" width="109" height="109" viewBox="0 0 109 109">
<g id="kvg:StrokePaths_05b63" style="fill:none;stroke:#000000;stroke-width:3;stroke-linecap:round;stroke-linejoin:round;">
<g id="kvg:05b63">
	<g id="kvg:05b63-g1">
		<g id="kvg:05b63-g2">
			<path id="kvg:s-s1" stroke="#E53935" d="M66.61,9.75c-0.11,1-0.99,1.71-1.63,2.08c-3.99,2.28-15.13,5.86-31.82,8.41"/>
		</g>
		<g id="kvg:05b63-g3">
			<path id="kvg:s-s2" stroke="#FB8C00" d="M22.3,32.26c2.44,0.57,5.09,0.53,7.56,0.26c10.39-1.17,34.35-3.97,46.77-4.52c2.13-0.1,4.92-0.07,7.05,0.23"/>
			<path id="kvg:s-s3" stroke="#FDD835" d="M52.71,19.78c0.82,0.82,1.22,1.97,1.22,3c0,0.45-0.09,13.55-0.12,21.22c-0.01,1.79-0.01,3.28-0.01,4.25"/>
			<path id="kvg:s-s4" stroke="#43A047" d="M47.47,31.41c0,0.59-0.34,1.24-0.92,1.89c-7.18,7.93-17.87,17.37-32.64,22.52"/>
			<path id="kvg:s-s5" stroke="#1E88E5" d="M55.09,30.02c7.16,5.1,24.79,17.35,32.82,20.86c1.92,0.84,3.37,1.48,5.19,1.78"/>
		</g>
	</g>
	<g id="kvg:05b63-g4">
		<path id="kvg:s-s6" stroke="#8E24AA" d="M36.5,53.3c1.25,0.58,3.11,0.93,4.5,0.87C44.88,54,62.12,51.49,65.46,51c2.54-0.38,2.81,1.66,1.22,2.98c-1.59,1.32-8.4,6.17-12.43,8.56"/>
		<path id="kvg:s-s7" stroke="#EC407A" d="M51.62,63.54c4.63,4.21,10.39,18.24,4.54,31.1c-2.15,4.73-5.78,2.48-9.57-1.65"/>
		<path id="kvg:s-s8" stroke="#00ACC1" d="M20.65,74.56c3.23,0.94,6.82,0.67,9.73,0.39c10.26-0.99,34.55-3.35,46.12-3.92c3.25-0.16,7,0.09,9.86,0.88"/>
	</g>
</g>
</g>
<g id="kvg:StrokeNumbers_05b63" style="font-size:18;fill:#E53935;font-weight:bold;stroke:#fff;stroke-width:1.5;paint-order:stroke">
	<text transform="matrix(1 0 0 1 59.50 9.13)" fill="#E53935">1</text>
	<text transform="matrix(1 0 0 1 14.50 33.50)" fill="#FB8C00">2</text>
	<text transform="matrix(1 0 0 1 45.49 26.98)" fill="#FDD835">3</text>
	<text transform="matrix(1 0 0 1 30.50 41.50)" fill="#43A047">4</text>
	<text transform="matrix(1 0 0 1 72.49 38.33)" fill="#1E88E5">5</text>
	<text transform="matrix(1 0 0 1 29.50 57.50)" fill="#8E24AA">6</text>
	<text transform="matrix(1 0 0 1 45.49 66.50)" fill="#EC407A">7</text>
	<text transform="matrix(1 0 0 1 13.50 76.10)" fill="#00ACC1">8</text>
</g>
</svg>
