<?xml version="1.0" encoding="UTF-8"?>
<svg xmlns="http://www.w3.org/2000/svg" width="109" height="109" viewBox="0 0 109 109">
<g id="kvg:StrokePaths_05bb0" style="fill:none;stroke:#000000;stroke-width:3;stroke-linecap:round;stroke-linejoin:round;">
<g id="kvg:05bb0">
	<g id="kvg:05bb0-g1">
		<path id="kvg:s-s1" stroke="#E53935" d="M53.67,8.25c1.42,1.42,1.67,2.75,1.67,4.73c0,3.6-0.08,5.5-0.08,8.77"/>
		<g id="kvg:05bb0-g2">
			<path id="kvg:s-s2" stroke="#FB8C00" d="M22.38,22.75c0,4.13-3.11,15.5-4.52,18.25"/>
			<path id="kvg:s-s3" stroke="#FDD835" d="M23.36,25.84C41.5,24,64.88,21.5,84.55,20.57c11.69-0.55,2.36,7.11-0.42,9.06"/>
		</g>
	</g>
	<g id="kvg:05bb0-g3">
		<g id="kvg:05bb0-g4">
			<g id="kvg:05bb0-g5">
				<path id="kvg:s-s4" stroke="#43A047" d="M53.31,29.75c0.95,0.72,1.43,1.97,1.43,3.64c0,0.74,0,3.36,0,5.5"/>
				<path id="kvg:s-s5" stroke="#1E88E5" d="M29.66,41.73c2.44,0.69,5.35,0.28,7.84,0.01c9.72-1.07,26.27-2.82,35.76-3.34c2.72-0.15,5.12,0.19,7.8,0.64"/>
			</g>
			<g id="kvg:05bb0-g6">
				<path id="kvg:s-s6" stroke="#8E24AA" d="M40.01,45.35c3.59,4.63,5.22,9.36,5.55,12.41"/>
				<path id="kvg:s-s7" stroke="#EC407A" d="M68.89,42.34c0.36,0.91,0.24,1.98-0.27,3.21c-1.12,2.7-5.46,10.29-6.92,12.54"/>
				<path id="kvg:s-s8" stroke="#00ACC1" d="M17.6,62.07c3.21,0.86,6.79,0.61,10.03,0.27c17.61-1.84,38.74-3.47,55.62-4.05c3.58-0.12,7.09-0.01,10.64,0.57"/>
			</g>
		</g>
		<g id="kvg:05bb0-g7">
			<path id="kvg:s-s9" stroke="#795548" d="M24.89,78.45c3.48,0.68,6.51,0.56,9.61,0.17c13.87-1.74,28.41-2.3,41.51-3.24c3.24-0.23,6.67-0.33,9.85,0.35"/>
			<path id="kvg:s-s10" stroke="#546E7A" d="M53.39,62.38c0.99,0.99,1.18,2.37,1.18,4.46c0,6.98,0.02,18.81,0.03,27.65c0,2.75,0,5.13,0,6.88"/>
		</g>
	</g>
</g>
</g>
<g id="kvg:StrokeNumbers_05bb0" style="font-size:18;font-weight:bold;stroke:#fff;stroke-width:1.5;paint-order:stroke">
	<text transform="matrix(1 0 0 1 45.75 9.50)" fill="#E53935">1</text>
	<text transform="matrix(1 0 0 1 15.50 25.50)" fill="#FB8C00">2</text>
	<text transform="matrix(1 0 0 1 27.75 21.13)" fill="#FDD835">3</text>
	<text transform="matrix(1 0 0 1 45.50 32.50)" fill="#43A047">4</text>
	<text transform="matrix(1 0 0 1 28.50 38.50)" fill="#1E88E5">5</text>
	<text transform="matrix(1 0 0 1 33.75 52.55)" fill="#8E24AA">6</text>
	<text transform="matrix(1 0 0 1 60.50 48.50)" fill="#EC407A">7</text>
	<text transform="matrix(1 0 0 1 10.50 63.50)" fill="#00ACC1">8</text>
	<text transform="matrix(1 0 0 1 17.50 79.50)" fill="#795548">9</text>
	<text transform="matrix(1 0 0 1 43.50 70.50)" fill="#546E7A">10</text>
</g>
</svg>
