<?xml version="1.0" encoding="UTF-8"?>
<svg xmlns="http://www.w3.org/2000/svg" width="109" height="109" viewBox="0 0 109 109">
<g id="kvg:StrokePaths_05bb3" style="fill:none;stroke:#000000;stroke-width:3;stroke-linecap:round;stroke-linejoin:round;">
<g id="kvg:05bb3">
	<g id="kvg:05bb3-g1">
		<path id="kvg:s-s1" stroke="#E53935" d="M52.34,10c1.14,1.14,1.77,2.5,1.77,3.96c0,3.11-0.08,3.9-0.08,6.73"/>
		<g id="kvg:05bb3-g2">
			<path id="kvg:s-s2" stroke="#FB8C00" d="M27.25,22.62c0,3.71-3.18,13.9-4.62,16.38"/>
			<path id="kvg:s-s3" stroke="#FDD835" d="M27.9,24.63c10.6-1.26,39.97-4.63,54.87-4.91c9.48-0.18,1.48,6.28-1.61,8.4"/>
		</g>
	</g>
	<g id="kvg:05bb3-g3">
		<g id="kvg:05bb3-g4">
			<path id="kvg:s-s4" stroke="#43A047" d="M32.75,39.89c2.04,0.66,4.32,0.42,6.4,0.21c7.57-0.76,20.98-2.56,28.73-3.1c2.05-0.14,4.22-0.38,6.24,0.01"/>
			<path id="kvg:s-s5" stroke="#1E88E5" d="M52.37,28c0.88,0.88,1.46,2.38,1.46,3.75c0,1.02-0.08,21.62-0.08,30.5"/>
			<path id="kvg:s-s6" stroke="#8E24AA" d="M33.75,51.89c2.08,0.64,4.39,0.42,6.51,0.22c7.42-0.71,18.58-2.17,26.86-2.83c2.16-0.17,4.12-0.17,6.25,0.23"/>
			<path id="kvg:s-s7" stroke="#EC407A" d="M19,65.64c3.64,0.77,7.35,0.46,11.01,0.08c15.12-1.59,39.03-3.93,51.5-4.64c3.16-0.18,6.88-0.07,9.99,0.69"/>
		</g>
		<g id="kvg:05bb3-g5">
			<path id="kvg:s-s8" stroke="#00ACC1" d="M34,75.85c0.95,0.95,1.5,1.9,1.73,3.15c0.57,3.08,1.52,9.72,2.37,15.63c0.22,1.52,0.42,2.98,0.62,4.33"/>
			<path id="kvg:s-s9" stroke="#795548" d="M36.48,77.86c9.39-1.11,26.21-3.08,33.89-3.84c3.95-0.39,5.81,0.49,4.79,4.77c-0.94,3.93-1.7,7.37-3.71,13.09"/>
			<path id="kvg:s-s10" stroke="#546E7A" d="M39.36,95.78c4.89-0.49,20.59-1.86,30.14-2.65c2.01-0.17,3.75-0.31,5.05-0.41"/>
		</g>
	</g>
</g>
</g>
<g id="kvg:StrokeNumbers_05bb3" style="font-size:18;fill:#E53935;font-weight:bold;stroke:#fff;stroke-width:1.5;paint-order:stroke">
	<text transform="matrix(1 0 0 1 44.50 9.50)" fill="#E53935">1</text>
	<text transform="matrix(1 0 0 1 19.50 26.50)" fill="#FB8C00">2</text>
	<text transform="matrix(1 0 0 1 30.50 20.50)" fill="#FDD835">3</text>
	<text transform="matrix(1 0 0 1 26.25 43.63)" fill="#43A047">4</text>
	<text transform="matrix(1 0 0 1 44.25 31.50)" fill="#1E88E5">5</text>
	<text transform="matrix(1 0 0 1 26.25 53.50)" fill="#8E24AA">6</text>
	<text transform="matrix(1 0 0 1 12.50 66.50)" fill="#EC407A">7</text>
	<text transform="matrix(1 0 0 1 27.49 84.50)" fill="#00ACC1">8</text>
	<text transform="matrix(1 0 0 1 37.50 74.50)" fill="#795548">9</text>
	<text transform="matrix(1 0 0 1 41.50 92.50)" fill="#546E7A">10</text>
</g>
</svg>
