<?xml version="1.0" encoding="UTF-8"?>
<svg xmlns="http://www.w3.org/2000/svg" width="109" height="109" viewBox="0 0 109 109">
<g id="kvg:StrokePaths_05bc6" style="fill:none;stroke:#000000;stroke-width:3;stroke-linecap:round;stroke-linejoin:round;">
<g id="kvg:05bc6">
	<g id="kvg:05bc6-g1">
		<g id="kvg:05bc6-g2">
			<path id="kvg:s-s1" stroke="#E53935" d="M52.9,9.29c1.15,1.15,1.43,2.92,1.4,4.16c-0.09,3.92-0.09,6.35-0.09,9.92"/>
			<g id="kvg:05bc6-g3">
				<path id="kvg:s-s2" stroke="#FB8C00" d="M22.62,24.35c0,3.5-2.76,13.25-4.12,15.63"/>
				<path id="kvg:s-s3" stroke="#FDD835" d="M23.44,27.63c13.43-1.51,42.31-5.51,62.55-6.69c12.01-0.7,2.54,7.1-0.44,9.35"/>
			</g>
		</g>
		<g id="kvg:05bc6-g4">
			<g id="kvg:05bc6-g5">
				<path id="kvg:s-s4" stroke="#43A047" d="M47.19,34.09c1.43,2.44,5.19,7.13,6.08,3.69"/>
			</g>
			<g id="kvg:05bc6-g6">
				<path id="kvg:s-s5" stroke="#1E88E5" d="M68.05,31.81c0.11,0.84,0.13,2.24-0.46,3.38c-6.21,11.93-20.46,25.68-45.33,36.56"/>
			</g>
			<g id="kvg:05bc6-g7">
				<path id="kvg:s-s6" stroke="#8E24AA" d="M35.99,37.54C43.5,53,51.75,64,78.83,63.69c9.55-0.11,7.22-3.81,3.26-7.05"/>
				<path id="kvg:s-s7" stroke="#EC407A" d="M27.75,45.38c0.28,2.02-2.8,10.92-5.04,14.28"/>
				<path id="kvg:s-s8" stroke="#00ACC1" d="M76.44,40.2c4.94,2.43,9.44,6.3,11.56,9.91"/>
			</g>
		</g>
	</g>
	<g id="kvg:05bc6-g8">
		<path id="kvg:s-s9" stroke="#795548" d="M54.05,67.75c1.1,1.1,1.28,2.75,1.28,4.18c0,0.73-0.08,11.45-0.08,20.07"/>
		<path id="kvg:s-s10" stroke="#546E7A" d="M29.31,78.04c0.76,0.76,0.9,2.08,0.72,3.37c-0.53,3.84-1.15,7.34-2.27,12.6c-0.34,1.63,0.45,2.29,1.96,2.02c10.03-1.78,36.9-4.15,52.81-4.89"/>
		<path id="kvg:s-s11" stroke="#E53935" d="M83.23,75.65c0.94,0.94,1.02,2.35,0.97,3.68c-0.13,3.11-0.35,6-0.76,10.42c-0.18,1.94-0.4,3.86-0.71,6.38"/>
	</g>
</g>
</g>
<g id="kvg:StrokeNumbers_05bc6" style="font-size:18;fill:#E53935;font-weight:bold;stroke:#fff;stroke-width:1.5;paint-order:stroke">
	<text transform="matrix(1 0 0 1 44.50 9.13)" fill="#E53935">1</text>
	<text transform="matrix(1 0 0 1 15.50 28.50)" fill="#FB8C00">2</text>
	<text transform="matrix(1 0 0 1 27.50 23.50)" fill="#FDD835">3</text>
	<text transform="matrix(1 0 0 1 39.75 34.63)" fill="#43A047">4</text>
	<text transform="matrix(1 0 0 1 60.50 33.50)" fill="#1E88E5">5</text>
	<text transform="matrix(1 0 0 1 29.25 39.50)" fill="#8E24AA">6</text>
	<text transform="matrix(1 0 0 1 21.75 48.05)" fill="#EC407A">7</text>
	<text transform="matrix(1 0 0 1 74.50 37.50)" fill="#00ACC1">8</text>
	<text transform="matrix(1 0 0 1 45.50 70.50)" fill="#795548">9</text>
	<text transform="matrix(1 0 0 1 18.50 81.50)" fill="#546E7A">10</text>
	<text transform="matrix(1 0 0 1 72.50 76.63)" fill="#E53935">11</text>
</g>
</svg>
