<?xml version="1.0" encoding="UTF-8"?>
<svg xmlns="http://www.w3.org/2000/svg" width="109" height="109" viewBox="0 0 109 109">
<g id="kvg:StrokePaths_05bdf" style="fill:none;stroke:#000000;stroke-width:3;stroke-linecap:round;stroke-linejoin:round;">
<g id="kvg:05bdf">
	<g id="kvg:05bdf-g1">
		<path id="kvg:s-s1" stroke="#E53935" d="M53.51,8.54c1.1,1.1,1.57,2.59,1.57,3.93c0,3.78-0.1,4.15-0.1,7.65"/>
		<g id="kvg:05bdf-g2">
			<path id="kvg:s-s2" stroke="#FB8C00" d="M20.9,21.83c0,3.77-3.71,14.12-5.4,16.64"/>
			<path id="kvg:s-s3" stroke="#FDD835" d="M21.7,24.43c20.3-1.93,43.55-4.55,63.93-4.78c12.12-0.14,2.62,6.48-0.44,8.74"/>
		</g>
	</g>
	<g id="kvg:05bdf-g3">
		<g id="kvg:05bdf-g4">
			<g id="kvg:05bdf-g5">
				<path id="kvg:s-s4" stroke="#43A047" d="M33.25,32.75c0.38,1.25,0.08,2.54-0.75,3.64c-4.12,5.48-12,13.12-14.5,15.21"/>
				<path id="kvg:s-s5" stroke="#1E88E5" d="M35,34.69c2.88-0.57,5.75-1.32,9-2.56c3.07-1.17,4.44,0.8,3.5,3.03C43.25,45.25,31.75,59.75,14,69.45"/>
				<path id="kvg:s-s6" stroke="#8E24AA" d="M31.5,43c0.82,0.32,3.11,2.26,4.75,4.19"/>
				<path id="kvg:s-s7" stroke="#EC407A" d="M24.12,49.88c1.14,0.85,3.42,4.48,4.38,6.41"/>
			</g>
			<path id="kvg:s-s8" stroke="#00ACC1" d="M57.5,31.73c1.12,0.4,2.9,0.26,4.42,0.13c2.83-0.24,9.32-1.81,12.83-2.86c2.5-0.75,3.93,0.76,1.76,3.39C72.5,37.25,68,42,63.1,46.67"/>
			<path id="kvg:s-s9" stroke="#795548" d="M54.5,37.12c3.75-0.26,18.75,12.75,28.75,20.07c2.22,1.63,6.5,4.01,9.75,4.81"/>
		</g>
		<g id="kvg:05bdf-g6">
			<path id="kvg:s-s10" stroke="#546E7A" d="M38.22,60.23c2.15,0.4,3.78,0.18,5.53-0.01c5.27-0.59,14.37-1.66,19.62-2.01c1.73-0.12,3.47-0.23,5.17,0.16"/>
			<path id="kvg:s-s11" stroke="#E53935" d="M26.46,73.07c2.62,0.88,5.73,0.34,8.41,0.08c8.75-0.84,26-3.02,36.5-3.44c2.62-0.1,5.26-0.21,7.84,0.31"/>
			<path id="kvg:s-s12" stroke="#FB8C00" d="M53.08,74.02c0.76,0.76,1.33,2.11,1.33,3.91c0,3.32,0.03,14,0.03,17.97c0,7.23-4.44,1.23-6.22-0.55"/>
			<path id="kvg:s-s13" stroke="#FDD835" d="M35,81.5c0.05,0.4,0.1,1.02-0.09,1.59c-1.14,3.35-7.9,8.42-16.83,12.93"/>
			<path id="kvg:s-s14" stroke="#43A047" d="M69.38,81.5c4.96,2.46,13.06,9.82,14.3,13.64"/>
		</g>
	</g>
</g>
</g>
<g id="kvg:StrokeNumbers_05bdf" style="font-size:18;fill:#E53935;font-weight:bold;stroke:#fff;stroke-width:1.5;paint-order:stroke">
	<text transform="matrix(1 0 0 1 45.49 10.50)" fill="#E53935">1</text>
	<text transform="matrix(1 0 0 1 12.75 27.13)" fill="#FB8C00">2</text>
	<text transform="matrix(1 0 0 1 25.50 21.13)" fill="#FDD835">3</text>
	<text transform="matrix(1 0 0 1 24.75 37.63)" fill="#43A047">4</text>
	<text transform="matrix(1 0 0 1 37.50 31.63)" fill="#1E88E5">5</text>
	<text transform="matrix(1 0 0 1 34.50 43.63)" fill="#8E24AA">6</text>
	<text transform="matrix(1 0 0 1 27.50 52.50)" fill="#EC407A">7</text>
	<text transform="matrix(1 0 0 1 58.50 29.50)" fill="#00ACC1">8</text>
	<text transform="matrix(1 0 0 1 53.50 45.50)" fill="#795548">9</text>
	<text transform="matrix(1 0 0 1 40.50 57.13)" fill="#546E7A">10</text>
	<text transform="matrix(1 0 0 1 27.50 70.63)" fill="#E53935">11</text>
	<text transform="matrix(1 0 0 1 43.50 82.63)" fill="#FB8C00">12</text>
	<text transform="matrix(1 0 0 1 23.50 84.50)" fill="#FDD835">13</text>
	<text transform="matrix(1 0 0 1 70.50 80.50)" fill="#43A047">14</text>
</g>
</svg>
