<?xml version="1.0" encoding="UTF-8"?>
<svg xmlns="http://www.w3.org/2000/svg" width="109" height="109" viewBox="0 0 109 109">
<g id="kvg:StrokePaths_05c09" style="fill:none;stroke:#000000;stroke-width:3;stroke-linecap:round;stroke-linejoin:round;">
<g id="kvg:05c09">
	<g id="kvg:05c09-g1">
		<g id="kvg:05c09-g2">
			<path id="kvg:s-s1" stroke="#E53935" d="M21.87,21.18c1.19,0.57,3.5,1.08,4.76,0.96c5.97-0.56,20.12-2.9,25.5-3.63c2.62-0.35,5.45,0.92,4.52,4.24c-1.02,3.62-1.4,5.25-2.43,9.77"/>
			<path id="kvg:s-s2" stroke="#FB8C00" d="M25.73,37.01c3.82-0.21,18.2-2.17,25.77-2.94c1.87-0.19,3.54-0.07,4.25-0.11"/>
			<g id="kvg:05c09-g3">
				<path id="kvg:s-s3" stroke="#FDD835" d="M24.14,22.61c0.88,0.88,0.88,2.27,0.86,3.52c-0.5,33.75-4.08,45.26-14,56.96"/>
			</g>
		</g>
		<g id="kvg:05c09-g4">
			<g id="kvg:05c09-g5">
				<path id="kvg:s-s4" stroke="#43A047" d="M30.41,49.7c0.9,0.25,2.86,0.25,3.73,0.18c3.98-0.34,12.07-1.9,16.13-2.3c1.29-0.13,2.23-0.22,3.48-0.01"/>
				<path id="kvg:s-s5" stroke="#1E88E5" d="M25.53,63.23c1.77,0.63,4.27,0.41,6.08,0.15c6.74-0.97,16.13-2.43,21.89-3.18c2.03-0.26,3.94-0.46,5.96-0.03"/>
			</g>
			<g id="kvg:05c09-g6">
				<path id="kvg:s-s6" stroke="#8E24AA" d="M43.26,64.25c0.81,0.81,1.27,2.25,1.27,3.85c0,6.65-0.03,17.74-0.03,21.4c0,7.77-3.33,2.79-6.42,0.19"/>
				<path id="kvg:s-s7" stroke="#EC407A" d="M30.69,72.93c0.08,1.15,0.06,2.2-0.44,3.24c-2.37,4.95-5.75,10.08-12.9,16.53"/>
				<path id="kvg:s-s8" stroke="#00ACC1" d="M54.67,72.34c2.85,2.39,7.52,9.57,8.23,13.3"/>
			</g>
		</g>
	</g>
	<g id="kvg:05c09-g7">
		<path id="kvg:s-s9" stroke="#795548" d="M59.88,43.22c2,0.41,4.37,0.34,6.12,0.07c8.11-1.26,19.37-3.41,26.75-4.39c2.24-0.3,4.5-0.27,6.63,0.16"/>
		<path id="kvg:s-s10" stroke="#546E7A" d="M84.23,17.33c1.22,1.22,1.85,2.87,1.85,5.02s0.04,60.13,0.04,64.64c0,10.94-6.23,1.62-8.05,0.23"/>
		<path id="kvg:s-s11" stroke="#E53935" d="M68.31,56.87c2.67,1.81,6.9,7.44,7.57,10.25"/>
	</g>
</g>
</g>
<g id="kvg:StrokeNumbers_05c09" style="font-size:18;font-weight:bold;stroke:#fff;stroke-width:1.5;paint-order:stroke">
	<text transform="matrix(1 0 0 1 24.50 18.50)" fill="#E53935">1</text>
	<text transform="matrix(1 0 0 1 29.50 33.05)" fill="#FB8C00">2</text>
	<text transform="matrix(1 0 0 1 17.50 29.50)" fill="#FDD835">3</text>
	<text transform="matrix(1 0 0 1 29.25 47.50)" fill="#43A047">4</text>
	<text transform="matrix(1 0 0 1 29.25 60.50)" fill="#1E88E5">5</text>
	<text transform="matrix(1 0 0 1 36.75 71.50)" fill="#8E24AA">6</text>
	<text transform="matrix(1 0 0 1 24.50 73.50)" fill="#EC407A">7</text>
	<text transform="matrix(1 0 0 1 51.50 69.50)" fill="#00ACC1">8</text>
	<text transform="matrix(1 0 0 1 58.50 40.63)" fill="#795548">9</text>
	<text transform="matrix(1 0 0 1 72.50 18.50)" fill="#546E7A">10</text>
	<text transform="matrix(1 0 0 1 59.25 56.50)" fill="#E53935">11</text>
</g>
</svg>
