<?xml version="1.0" encoding="UTF-8"?>
<svg xmlns="http://www.w3.org/2000/svg" width="109" height="109" viewBox="0 0 109 109">
<g id="kvg:StrokePaths_05c0a" style="fill:none;stroke:#000000;stroke-width:3;stroke-linecap:round;stroke-linejoin:round;">
<g id="kvg:05c0a">
	<g id="kvg:05c0a-g1">
		<g id="kvg:05c0a-g2">
			<g id="kvg:05c0a-g3">
				<path id="kvg:s-s1" stroke="#E53935" d="M32,10.69c3.98,1.87,10.29,7.69,11.28,10.6"/>
			</g>
			<g id="kvg:05c0a-g4">
				<path id="kvg:s-s2" stroke="#FB8C00" d="M67.48,8.46c0.05,0.85,0,1.38-0.35,2.16c-1.27,2.86-2.97,5.84-7.06,10.86"/>
			</g>
		</g>
		<g id="kvg:05c0a-g5">
			<g id="kvg:05c0a-g6">
				<path id="kvg:s-s3" stroke="#FDD835" d="M18.4,26.65c3.1,0.54,6.13,0.41,8.72,0.13c12.5-1.34,41.79-3.69,54.75-4.11c2.58-0.08,5.19-0.22,7.72,0.39"/>
				<path id="kvg:s-s4" stroke="#43A047" d="M29.85,36.63c0.92,0.92,1.14,2.06,1.14,3.54c0,0.56-0.01,12.88,0,21.14c0,1.69,0,3.22,0,4.43"/>
				<path id="kvg:s-s5" stroke="#1E88E5" d="M31.82,38.31c3.66-0.12,38.87-4.25,41.98-4.33c2.59-0.07,3.94,1.15,3.94,2.67c0,0.72,0.1,13.85,0.02,22.3c-0.01,1.56-0.02,2.96-0.02,4.11"/>
				<path id="kvg:s-s6" stroke="#8E24AA" d="M46.12,28.18c0.51,0.51,0.87,1.65,0.87,2.61c0,5.15-0.62,12.9-9.21,18.81"/>
				<path id="kvg:s-s7" stroke="#EC407A" d="M57.84,26.06c0.61,0.64,1.08,1.39,1.12,2.38c0.11,3.13-0.07,7.63-0.07,11.97c0,2.29,1.11,3.77,7.45,3.77c3.65,0,7.28-0.42,7.7-0.8"/>
			</g>
			<g id="kvg:05c0a-g7">
				<path id="kvg:s-s8" stroke="#00ACC1" d="M32.12,54.71c12.26-1.02,29.01-2.02,44.39-2.66"/>
			</g>
			<g id="kvg:05c0a-g8">
				<path id="kvg:s-s9" stroke="#795548" d="M32.12,63.27c11.63-0.7,32.68-2.02,44.42-2.27"/>
			</g>
		</g>
	</g>
	<g id="kvg:05c0a-g9">
		<path id="kvg:s-s10" stroke="#546E7A" d="M12.88,76.24c3.75,0.83,7.01,0.83,10.12,0.55c22-1.97,45.91-3.39,64-4.48c3.1-0.18,6.75-0.24,9.63,0.57"/>
		<path id="kvg:s-s11" stroke="#E53935" d="M67.78,65.65c0.94,0.94,1.51,2.42,1.51,4.18c0,8.48,0.04,21.35,0.04,25.34c0,9.67-6.04,1.43-7.8,0.2"/>
		<path id="kvg:s-s12" stroke="#FB8C00" d="M37.46,80.68c3.53,1.81,9.12,7.44,10,10.25"/>
	</g>
</g>
</g>
<g id="kvg:StrokeNumbers_05c0a" style="font-size:18;fill:#E53935;font-weight:bold;stroke:#fff;stroke-width:1.5;paint-order:stroke">
	<text transform="matrix(1 0 0 1 25.50 11.07)" fill="#E53935">1</text>
	<text transform="matrix(1 0 0 1 58.50 6.70)" fill="#FB8C00">2</text>
	<text transform="matrix(1 0 0 1 11.50 27.07)" fill="#FDD835">3</text>
	<text transform="matrix(1 0 0 1 23.50 45.07)" fill="#43A047">4</text>
	<text transform="matrix(1 0 0 1 31.50 35.07)" fill="#1E88E5">5</text>
	<text transform="matrix(1 0 0 1 39.50 34.07)" fill="#8E24AA">6</text>
	<text transform="matrix(1 0 0 1 52.46 33.07)" fill="#EC407A">7</text>
	<text transform="matrix(1 0 0 1 45.75 52.07)" fill="#00ACC1">8</text>
	<text transform="matrix(1 0 0 1 38.50 61.07)" fill="#795548">9</text>
	<text transform="matrix(1 0 0 1 9.50 73.07)" fill="#546E7A">10</text>
	<text transform="matrix(1 0 0 1 57.50 71.20)" fill="#E53935">11</text>
	<text transform="matrix(1 0 0 1 28.50 87.07)" fill="#FB8C00">12</text>
</g>
</svg>
