<?xml version="1.0" encoding="UTF-8"?>
<svg xmlns="http://www.w3.org/2000/svg" width="109" height="109" viewBox="0 0 109 109">
<g id="kvg:StrokePaths_05c3a" style="fill:none;stroke:#000000;stroke-width:3;stroke-linecap:round;stroke-linejoin:round;">
<g id="kvg:05c3a">
	<g id="kvg:05c3a-g1">
		<path id="kvg:s-s1" stroke="#E53935" d="M32.89,22.57c1.99,0.56,4.43,0.99,6.02,0.79c9.06-1.11,29.27-3.25,35.74-4.01c4.01-0.47,5.75,0.92,4.89,5.03C78.57,29,77.5,32.12,75,40.75"/>
		<path id="kvg:s-s2" stroke="#FB8C00" d="M37,45.5c3.45-0.2,24.9-2.14,36-3.24c2.8-0.28,4.9-0.47,5.81-0.52"/>
		<g id="kvg:05c3a-g2">
			<path id="kvg:s-s3" stroke="#FDD835" d="M36.09,23.62c0.96,0.96,1.37,2.63,1.31,4.39C36.38,58.62,29.88,77.75,18,89.25"/>
		</g>
	</g>
	<g id="kvg:05c3a-g3">
		<path id="kvg:s-s4" stroke="#43A047" d="M45.25,46c3.88,2.5,23.79,25.86,35.65,37.1c3.98,3.77,7.6,6.9,11.6,9.15"/>
	</g>
</g>
</g>
<g id="kvg:StrokeNumbers_05c3a" style="font-size:18;fill:#E53935;font-weight:bold;stroke:#fff;stroke-width:1.5;paint-order:stroke">
	<text transform="matrix(1 0 0 1 38.50 20.50)" fill="#E53935">1</text>
	<text transform="matrix(1 0 0 1 42.50 41.50)" fill="#FB8C00">2</text>
	<text transform="matrix(1 0 0 1 29.50 32.50)" fill="#FDD835">3</text>
	<text transform="matrix(1 0 0 1 55.50 53.50)" fill="#43A047">4</text>
</g>
</svg>
