<?xml version="1.0" encoding="UTF-8"?>
<svg xmlns="http://www.w3.org/2000/svg" width="109" height="109" viewBox="0 0 109 109">
<g id="kvg:StrokePaths_05c4a" style="fill:none;stroke:#000000;stroke-width:3;stroke-linecap:round;stroke-linejoin:round;">
<g id="kvg:05c4a">
	<g id="kvg:05c4a-g1">
		<path id="kvg:s-s1" stroke="#E53935" d="M25.5,17.49c1.74,0.65,3.12,0.99,4.97,0.85c9.11-0.66,41.11-3.9,49.65-4.66c3.2-0.28,5.17,0.75,4.44,4.32c-0.76,3.72-1.93,9.24-3.42,15.1"/>
		<path id="kvg:s-s2" stroke="#FB8C00" d="M29.5,38.5c4.67-0.2,31.9-2.96,46.75-4.17c3.45-0.28,5.37-0.46,8-0.33"/>
		<path id="kvg:s-s3" stroke="#FDD835" d="M28.25,18.25c1.12,1.12,1.26,3.1,1.22,4.25c-0.85,28.25-5.1,47.5-18.22,62.75"/>
	</g>
	<g id="kvg:05c4a-g2">
		<g id="kvg:05c4a-g3">
			<path id="kvg:s-s4" stroke="#43A047" d="M34.42,58.01c0.97,0.97,1.68,2.15,1.84,3.01c1.24,6.72,2.24,16.85,3.6,28.47c0.29,2.48,0.64,4.69,0.82,7.05"/>
			<path id="kvg:s-s5" stroke="#1E88E5" d="M37.21,60.33C53.62,58.5,73,56.38,84.94,55.68c3.13-0.18,5.63,1.3,5.26,4.57c-0.69,6.13-2.38,18.45-4.36,27.55c-0.42,1.94-0.86,3.72-1.3,5.23"/>
		</g>
		<g id="kvg:05c4a-g4">
			<path id="kvg:s-s6" stroke="#8E24AA" d="M59.74,42.32c0.91,0.91,1.51,2.55,1.51,4.18c0,15.25-0.02,41.45-0.02,45.44"/>
		</g>
		<g id="kvg:05c4a-g5">
			<path id="kvg:s-s7" stroke="#EC407A" d="M39.57,75.8c9.81-1.05,34.68-3.43,48-3.91"/>
			<path id="kvg:s-s8" stroke="#00ACC1" d="M41.64,93.94c11.99-0.94,29.17-2.6,42.52-2.78"/>
		</g>
	</g>
</g>
</g>
<g id="kvg:StrokeNumbers_05c4a" style="font-size:18;fill:#E53935;font-weight:bold;stroke:#fff;stroke-width:1.5;paint-order:stroke">
	<text transform="matrix(1 0 0 1 30.75 15.13)" fill="#E53935">1</text>
	<text transform="matrix(1 0 0 1 35.25 34.55)" fill="#FB8C00">2</text>
	<text transform="matrix(1 0 0 1 21.75 27.13)" fill="#FDD835">3</text>
	<text transform="matrix(1 0 0 1 29.25 67.50)" fill="#43A047">4</text>
	<text transform="matrix(1 0 0 1 38.50 56.50)" fill="#1E88E5">5</text>
	<text transform="matrix(1 0 0 1 51.50 46.50)" fill="#8E24AA">6</text>
	<text transform="matrix(1 0 0 1 44.25 72.13)" fill="#EC407A">7</text>
	<text transform="matrix(1 0 0 1 44.25 90.05)" fill="#00ACC1">8</text>
</g>
</svg>
