<?xml version="1.0" encoding="UTF-8"?>
<svg xmlns="http://www.w3.org/2000/svg" width="109" height="109" viewBox="0 0 109 109">
<g id="kvg:StrokePaths_05ca9" style="fill:none;stroke:#000000;stroke-width:3;stroke-linecap:round;stroke-linejoin:round;">
<g id="kvg:05ca9">
	<g id="kvg:05ca9-g1">
		<path id="kvg:s-s1" stroke="#E53935" d="M54.84,12.5c0.91,0.75,1.71,2,1.71,3.9c0,0.45-0.04,14.01-0.09,20.35"/>
		<path id="kvg:s-s2" stroke="#FB8C00" d="M30.03,21.6c0.72,0.9,0.97,1.65,1.03,3.22c0.11,2.75-1.32,8.87-2.89,14.37c-0.55,1.94,0.37,2.55,2.34,2.16c14.73-2.97,38.9-4.25,50.98-4.48"/>
		<path id="kvg:s-s3" stroke="#FDD835" d="M84.65,17.67c0.85,1.08,1.1,1.83,0.86,3.63c-0.36,2.72-1.28,9.25-2.39,14.78c-0.31,1.56-0.64,3.09-0.98,4.48"/>
	</g>
	<g id="kvg:05ca9-g2">
		<path id="kvg:s-s4" stroke="#43A047" d="M17.57,55.43c3.43,0.57,6.14,0.38,9.08,0.14c13.6-1.08,41.48-3.83,58.98-4.06c2.71-0.04,5.44-0.05,8.12,0.37"/>
		<path id="kvg:s-s5" stroke="#1E88E5" d="M40.86,57.86c0.26,0.89,0.14,2.64-0.66,4.27c-3.41,6.99-10.82,21.77-25.95,31.12"/>
		<g id="kvg:05ca9-g3">
			<path id="kvg:s-s6" stroke="#8E24AA" d="M38.27,69.52c1.25,1.02,1.55,1.29,1.78,2.94c0.66,4.74,1.16,12.99,2.01,20.79c0.14,1.24,0.28,2.47,0.43,3.67"/>
			<path id="kvg:s-s7" stroke="#EC407A" d="M40.99,71.41c10.79-1.2,32.55-3.81,38.37-3.95c2.76-0.07,4.33,1.96,4,3.45c-1.24,5.58-2.97,12.76-4.1,19.38"/>
			<path id="kvg:s-s8" stroke="#00ACC1" d="M43.02,94.1c6.58-0.43,23.48-1.85,34.23-2.68c1.96-0.15,2.28-0.15,3.84-0.17"/>
		</g>
	</g>
</g>
</g>
<g id="kvg:StrokeNumbers_05ca9" style="font-size:18;fill:#E53935;font-weight:bold;stroke:#fff;stroke-width:1.5;paint-order:stroke">
	<text transform="matrix(1 0 0 1 50.25 9.13)" fill="#E53935">1</text>
	<text transform="matrix(1 0 0 1 24.75 18.13)" fill="#FB8C00">2</text>
	<text transform="matrix(1 0 0 1 78.75 13.63)" fill="#FDD835">3</text>
	<text transform="matrix(1 0 0 1 6.75 57.13)" fill="#43A047">4</text>
	<text transform="matrix(1 0 0 1 29.25 66.13)" fill="#1E88E5">5</text>
	<text transform="matrix(1 0 0 1 32.25 87.13)" fill="#8E24AA">6</text>
	<text transform="matrix(1 0 0 1 47.25 67.63)" fill="#EC407A">7</text>
	<text transform="matrix(1 0 0 1 47.25 90.13)" fill="#00ACC1">8</text>
</g>
</svg>
