<?xml version="1.0" encoding="UTF-8"?>
<svg xmlns="http://www.w3.org/2000/svg" width="109" height="109" viewBox="0 0 109 109">
<g id="kvg:StrokePaths_05df1" style="fill:none;stroke:#000000;stroke-width:3;stroke-linecap:round;stroke-linejoin:round;">
<g id="kvg:05df1">
	<path id="kvg:s-s1" stroke="#E53935" d="M27.75,19.89c2.38,0.99,5.17,1.14,8.67,0.68c7.1-0.93,38.3-3.9,40.47-4.08c2.86-0.23,5.11,1.52,4.09,5.1c-0.3,1.07-2.48,9.17-4.48,19.42"/>
	<path id="kvg:s-s2" stroke="#FB8C00" d="M23.25,45.5c2,1.25,4.54,1.56,7,1.5c10.88-0.25,28.07-2.72,41.88-4.33c1.99-0.23,4.87-0.54,7.62-0.67"/>
	<path id="kvg:s-s3" stroke="#FDD835" d="M25.24,47.12c1.07,1.07,1.6,2.38,1.6,4.03c0,7.6-0.1,14.71-0.1,21.6c0,19,1.26,20,34.26,20c30.38,0,31.75-1.88,31.75-12.5"/>
</g>
</g>
<g id="kvg:StrokeNumbers_05df1" style="font-size:18;fill:#E53935;font-weight:bold;stroke:#fff;stroke-width:1.5;paint-order:stroke">
	<text transform="matrix(1 0 0 1 21.75 19.63)" fill="#E53935">1</text>
	<text transform="matrix(1 0 0 1 31.50 43.50)" fill="#FB8C00">2</text>
	<text transform="matrix(1 0 0 1 19.50 54.50)" fill="#FDD835">3</text>
</g>
</svg>
