<?xml version="1.0" encoding="UTF-8"?>
<svg xmlns="http://www.w3.org/2000/svg" width="109" height="109" viewBox="0 0 109 109">
<g id="kvg:StrokePaths_05e06" style="fill:none;stroke:#000000;stroke-width:3;stroke-linecap:round;stroke-linejoin:round;">
<g id="kvg:05e06">
	<g id="kvg:05e06-g1">
		<path id="kvg:s-s1" stroke="#E53935" d="M13.38,34.71c0.89,0.89,1.19,1.92,1.19,3.45c0,4.84-0.04,15.93-0.06,25.22c0,2.18-0.01,4.25-0.01,6.13"/>
		<path id="kvg:s-s2" stroke="#FB8C00" d="M15.64,36.77c3.63-1.01,18.32-3.97,22.98-4.91c2.38-0.48,4.11,1.02,4.11,3.64c0,7.95,0.18,17.43-0.9,25.12c-0.83,5.88-4.96,1.31-5.91-0.72"/>
		<path id="kvg:s-s3" stroke="#FDD835" d="M25.87,14.63c1.25,1.25,1.54,2.62,1.54,4.63c0,6.29,0.01,48.88,0.02,67.49c0,4.3,0,7.26,0,8.13"/>
	</g>
	<g id="kvg:05e06-g2">
		<g id="kvg:05e06-g3">
			<g id="kvg:05e06-g4">
				<path id="kvg:s-s4" stroke="#43A047" d="M52.62,20.89c1.12,1.12,1.55,2.73,1.55,4.89c0,21.22,1.33,46.34-16.42,64.46"/>
			</g>
			<path id="kvg:s-s5" stroke="#1E88E5" d="M54.96,22.57c3.79-0.7,13.17-3.07,16.6-3.58c2.38-0.35,4.2,0.43,4.2,4.1c0,8.91,0.34,43.16,0.34,49.24c0,13.83,1.4,14.98,9.98,14.98c9.58,0,10.45-1.57,10.45-10.64"/>
		</g>
		<g id="kvg:05e06-g5">
			<path id="kvg:s-s6" stroke="#8E24AA" d="M58,45.38c5.03,4.64,7.91,9.56,9.47,13.91"/>
		</g>
	</g>
</g>
</g>
<g id="kvg:StrokeNumbers_05e06" style="font-size:18;font-weight:bold;stroke:#fff;stroke-width:1.5;paint-order:stroke">
	<text transform="matrix(1 0 0 1 8.25 42.50)" fill="#E53935">1</text>
	<text transform="matrix(1 0 0 1 17.50 32.50)" fill="#FB8C00">2</text>
	<text transform="matrix(1 0 0 1 17.25 14.50)" fill="#FDD835">3</text>
	<text transform="matrix(1 0 0 1 45.75 29.50)" fill="#43A047">4</text>
	<text transform="matrix(1 0 0 1 56.50 19.50)" fill="#1E88E5">5</text>
	<text transform="matrix(1 0 0 1 58.50 43.50)" fill="#8E24AA">6</text>
</g>
</svg>
