<?xml version="1.0" encoding="UTF-8"?>
<svg xmlns="http://www.w3.org/2000/svg" width="109" height="109" viewBox="0 0 109 109">
<g id="kvg:StrokePaths_05e8f" style="fill:none;stroke:#000000;stroke-width:3;stroke-linecap:round;stroke-linejoin:round;">
<g id="kvg:05e8f">
	<g id="kvg:05e8f-g1">
		<path id="kvg:s-s1" stroke="#E53935" d="M54.31,8.13c0.84,0.84,1.51,2.62,1.51,4.15c0,1.96-0.07,4.09-0.07,8.96"/>
		<g id="kvg:05e8f-g2">
			<path id="kvg:s-s2" stroke="#FB8C00" d="M21.13,24.23c1.52,0.54,4.3,0.63,5.82,0.54c15.8-0.91,43.05-5.02,59.61-5.73c2.53-0.11,4.05,0.26,5.31,0.53"/>
			<path id="kvg:s-s3" stroke="#FDD835" d="M24.74,25c0.88,0.88,1.3,2.51,1.16,4.61c-1.4,20.27-3.52,42.02-16.09,58.86"/>
		</g>
	</g>
	<g id="kvg:05e8f-g3">
		<g id="kvg:05e8f-g4">
			<path id="kvg:s-s4" stroke="#43A047" d="M42.7,33.92c1.18,0.58,3.55,0.5,4.9,0.29c2.67-0.42,21.39-4.3,24.2-4.72c2.82-0.42,3.78,1.77,2.1,3.14c-2.88,2.36-13.42,11.66-15.2,13.34"/>
			<path id="kvg:s-s5" stroke="#1E88E5" d="M49.5,42.25c2.66,1.18,9.55,5.74,10.8,8.83"/>
		</g>
		<g id="kvg:05e8f-g5">
			<path id="kvg:s-s6" stroke="#8E24AA" d="M32.84,57.58c2.41,0.54,3.93,0.76,6.24,0.31c8.42-1.64,30.44-6.27,42.59-7.24c8.57-0.69,2.57,5.1-1.93,9.6"/>
			<g id="kvg:05e8f-g6">
				<path id="kvg:s-s7" stroke="#EC407A" d="M60.46,55.91c0.87,0.88,1.33,2.58,1.33,4.16c0,1.57-0.02,30.9-0.02,33.78c0,9.78-5.77,1.03-7.81-1.54"/>
			</g>
		</g>
	</g>
</g>
</g>
<g id="kvg:StrokeNumbers_05e8f" style="font-size:18;fill:#E53935;font-weight:bold;stroke:#fff;stroke-width:1.5;paint-order:stroke">
	<text transform="matrix(1 0 0 1 46.50 9.13)" fill="#E53935">1</text>
	<text transform="matrix(1 0 0 1 22.50 21.13)" fill="#FB8C00">2</text>
	<text transform="matrix(1 0 0 1 17.25 33.50)" fill="#FDD835">3</text>
	<text transform="matrix(1 0 0 1 33.75 34.50)" fill="#43A047">4</text>
	<text transform="matrix(1 0 0 1 42.50 45.50)" fill="#1E88E5">5</text>
	<text transform="matrix(1 0 0 1 32.50 54.50)" fill="#8E24AA">6</text>
	<text transform="matrix(1 0 0 1 54.75 65.75)" fill="#EC407A">7</text>
</g>
</svg>
