<?xml version="1.0" encoding="UTF-8"?>
<svg xmlns="http://www.w3.org/2000/svg" width="109" height="109" viewBox="0 0 109 109">
<g id="kvg:StrokePaths_05eb6" style="fill:none;stroke:#000000;stroke-width:3;stroke-linecap:round;stroke-linejoin:round;">
<g id="kvg:05eb6">
	<g id="kvg:05eb6-g1">
		<path id="kvg:s-s1" stroke="#E53935" d="M56.06,12.88c1.03,1.03,1.26,2.37,1.26,4.15c0,0.79,0.08,3.4-0.07,8.21"/>
		<g id="kvg:05eb6-g2">
			<path id="kvg:s-s2" stroke="#FB8C00" d="M23.13,28.23c2.67,0.95,5.99,0.64,8.76,0.36c14.86-1.5,31.74-2.96,50.49-4.17c2.88-0.19,5.68-0.2,8.5,0.41"/>
			<path id="kvg:s-s3" stroke="#FDD835" d="M25.74,29.5c1.13,1.13,1.18,2.6,1.16,4.62c-0.15,15.13-2.65,38.76-16.09,54.85"/>
		</g>
	</g>
	<g id="kvg:05eb6-g3">
		<g id="kvg:05eb6-g4">
			<g id="kvg:05eb6-g5">
				<path id="kvg:s-s4" stroke="#43A047" d="M33.5,49.7c2.88,0.68,5.59,0.52,7.89,0.25c12.18-1.45,30.36-3.63,41.98-4.5c2.45-0.18,4.73-0.3,7.13,0.34"/>
				<path id="kvg:s-s5" stroke="#1E88E5" d="M47.75,36c0.94,0.94,1.5,2.5,1.5,4c0,0.87,0.17,17.43,0.08,26.75C49.32,68.53,49.29,70,49.25,71"/>
			</g>
			<path id="kvg:s-s6" stroke="#8E24AA" d="M71,34c0.88,1,1.07,2.47,1,3.5c-0.75,10.38-1.5,19-2.25,28.25"/>
			<path id="kvg:s-s7" stroke="#EC407A" d="M50.5,68.75c5.88-0.5,11.22-1.26,16.97-1.85c1.88-0.19,3.47-0.09,4.53-0.15"/>
		</g>
		<g id="kvg:05eb6-g6">
			<path id="kvg:s-s8" stroke="#00ACC1" d="M33.69,79.25c0,6.06-5.1,15.02-6.44,16.75"/>
			<path id="kvg:s-s9" stroke="#795548" d="M47.68,78.33c2,3.18,3.9,11.93,4.4,16.88"/>
			<path id="kvg:s-s10" stroke="#546E7A" d="M64.75,77.58c2.2,2.8,5.69,11.52,6.24,15.88"/>
			<path id="kvg:s-s11" stroke="#E53935" d="M82.68,76.33c3.84,2.93,9.92,12.07,10.88,16.63"/>
		</g>
	</g>
</g>
</g>
<g id="kvg:StrokeNumbers_05eb6" style="font-size:18;font-weight:bold;stroke:#fff;stroke-width:1.5;paint-order:stroke">
	<text transform="matrix(1 0 0 1 47.25 12.13)" fill="#E53935">1</text>
	<text transform="matrix(1 0 0 1 26.25 25.55)" fill="#FB8C00">2</text>
	<text transform="matrix(1 0 0 1 18.75 37.50)" fill="#FDD835">3</text>
	<text transform="matrix(1 0 0 1 32.25 46.63)" fill="#43A047">4</text>
	<text transform="matrix(1 0 0 1 38.25 37.63)" fill="#1E88E5">5</text>
	<text transform="matrix(1 0 0 1 60.75 35.50)" fill="#8E24AA">6</text>
	<text transform="matrix(1 0 0 1 52.88 65.62)" fill="#EC407A">7</text>
	<text transform="matrix(1 0 0 1 29.25 78.13)" fill="#00ACC1">8</text>
	<text transform="matrix(1 0 0 1 40.50 80.50)" fill="#795548">9</text>
	<text transform="matrix(1 0 0 1 54.62 80.00)" fill="#546E7A">10</text>
	<text transform="matrix(1 0 0 1 72.50 79.50)" fill="#E53935">11</text>
</g>
</svg>
