<?xml version="1.0" encoding="UTF-8"?>
<svg xmlns="http://www.w3.org/2000/svg" width="109" height="109" viewBox="0 0 109 109">
<g id="kvg:StrokePaths_05f0f" style="fill:none;stroke:#000000;stroke-width:3;stroke-linecap:round;stroke-linejoin:round;">
<g id="kvg:05f0f">
	<g id="kvg:05f0f-g1">
		<path id="kvg:s-s1" stroke="#E53935" d="M17.5,39.45c2.61,0.54,7.43,0.8,10.02,0.54c13.86-1.37,34.52-4.37,56.22-5.48c4.34-0.22,6.97,0.01,9.14,0.28"/>
	</g>
	<g id="kvg:05f0f-g2">
		<path id="kvg:s-s2" stroke="#FB8C00" d="M22.46,60.85c1.01,0.33,2.66,0.44,3.68,0.34c8.48-0.81,14.4-2.44,21.9-3.04c1.55-0.12,2.98,0.07,4.27,0.34"/>
		<path id="kvg:s-s3" stroke="#FDD835" d="M36.71,62.1c1.03,1.03,1.38,2.15,1.38,3.4c0,4.43-0.1,12.03-0.1,16.5"/>
		<path id="kvg:s-s4" stroke="#43A047" d="M17.54,88.55c0.96,0.82,3.25,0.88,4.34,0.45C33.16,84.5,39.07,82.5,56,76.25"/>
	</g>
	<g id="kvg:05f0f-g3">
		<path id="kvg:s-s5" stroke="#1E88E5" d="M55.5,10.5c2,1.75,2.91,3.98,3.25,7.75c2.38,26.38,10,61.75,32,75.25c7.43,4.56,6.12,1.88,4.5-9.5"/>
		<g id="kvg:05f0f-g4">
			<path id="kvg:s-s6" stroke="#8E24AA" d="M78,11.25c3.85,2.05,9.46,6.74,11.25,10.25"/>
		</g>
	</g>
</g>
</g>
<g id="kvg:StrokeNumbers_05f0f" style="font-size:18;fill:#E53935;font-weight:bold;stroke:#fff;stroke-width:1.5;paint-order:stroke">
	<text transform="matrix(1 0 0 1 10.50 40.50)" fill="#E53935">1</text>
	<text transform="matrix(1 0 0 1 15.50 62.50)" fill="#FB8C00">2</text>
	<text transform="matrix(1 0 0 1 30.50 70.50)" fill="#FDD835">3</text>
	<text transform="matrix(1 0 0 1 9.50 90.50)" fill="#43A047">4</text>
	<text transform="matrix(1 0 0 1 46.50 11.50)" fill="#1E88E5">5</text>
	<text transform="matrix(1 0 0 1 70.50 12.50)" fill="#8E24AA">6</text>
</g>
</svg>
