<?xml version="1.0" encoding="UTF-8"?>
<svg xmlns="http://www.w3.org/2000/svg" width="109" height="109" viewBox="0 0 109 109">
<g id="kvg:StrokePaths_05f59" style="fill:none;stroke:#000000;stroke-width:3;stroke-linecap:round;stroke-linejoin:round;">
<g id="kvg:05f59">
	<g id="kvg:05f59-g1">
		<path id="kvg:s-s1" stroke="#E53935" d="M41.2,9.25c0.79,1.19,1.12,3.07,0.4,4.84C40,18,39.75,19.25,37.5,22.52c-0.94,1.37-0.25,2.73,1.68,2.48c8.03-1.02,13.69-1.55,25.63-2.28"/>
		<path id="kvg:s-s2" stroke="#FB8C00" d="M40.75,16.96c5.5-0.71,17.75-1.46,25.27-2.71c1.72-0.29,2.68,1.31,2.25,2.95c-1.61,6.08-2.02,6.55-4.05,12.55"/>
		<path id="kvg:s-s3" stroke="#FDD835" d="M18.75,32.71c1.49,0.53,4.22,0.58,5.71,0.53c15.79-0.49,48.18-5.38,63.82-4.63c2.48,0.12,3.97,0.25,5.22,0.52"/>
	</g>
	<g id="kvg:05f59-g2">
		<g id="kvg:05f59-g3">
			<path id="kvg:s-s4" stroke="#43A047" d="M22.41,39.38c0,3.2-3.03,11.98-4.41,14.12"/>
			<path id="kvg:s-s5" stroke="#1E88E5" d="M22.24,42.21c8.74-0.88,55.85-4.54,62.94-4.88c11.08-0.52,2.35,5.89-0.41,7.78"/>
		</g>
		<g id="kvg:05f59-g4">
			<g id="kvg:05f59-g5">
				<g id="kvg:05f59-g6">
					<path id="kvg:s-s6" stroke="#8E24AA" d="M30.47,49.12c0.65,0.48,1.57,1.06,1.57,1.71c0,0.65,3.85,19.03,3.97,19.68"/>
					<path id="kvg:s-s7" stroke="#EC407A" d="M32.17,50.19c1.94-0.08,39.76-2.95,41.53-2.95c2.33,0.01,2.8,2.89,2.69,3.37c-0.23,0.98-4.15,16.67-4.15,17.16"/>
					<path id="kvg:s-s8" stroke="#00ACC1" d="M33.84,59.33c2.62,0,37.13-2.9,40.1-2.9"/>
					<path id="kvg:s-s9" stroke="#795548" d="M36.8,68.52c5.34-0.35,28.42-2.61,35.08-2.91"/>
				</g>
			</g>
			<g id="kvg:05f59-g7">
				<path id="kvg:s-s10" stroke="#546E7A" d="M16.33,78.81c0.91,0.22,3.32,0.59,5.73,0.67c6.64,0.22,45.73-4.28,65.05-4.72c2.41-0.06,3.02,0.22,4.53,0.45"/>
				<g id="kvg:05f59-g8">
					<path id="kvg:s-s11" stroke="#E53935" d="M51.67,50.13c1.19,0.31,1.91,1.91,2.15,2.54c0.24,0.63,0,44.41-0.24,48.33"/>
				</g>
				<path id="kvg:s-s12" stroke="#FB8C00" d="M51.51,77.48C45.08,84.83,28.37,95.22,15,99.38"/>
				<path id="kvg:s-s13" stroke="#FDD835" d="M54.32,77.67c5.21,2.93,28.04,16.78,33.7,19.66c1.92,0.97,3.56,1.39,5.48,1.67"/>
			</g>
		</g>
	</g>
</g>
</g>
<g id="kvg:StrokeNumbers_05f59" style="font-size:18;font-weight:bold;stroke:#fff;stroke-width:1.5;paint-order:stroke">
	<text transform="matrix(1 0 0 1 34.50 9.50)" fill="#E53935">1</text>
	<text transform="matrix(1 0 0 1 47.50 13.50)" fill="#FB8C00">2</text>
	<text transform="matrix(1 0 0 1 11.50 32.50)" fill="#FDD835">3</text>
	<text transform="matrix(1 0 0 1 15.50 43.50)" fill="#43A047">4</text>
	<text transform="matrix(1 0 0 1 26.50 39.50)" fill="#1E88E5">5</text>
	<text transform="matrix(1 0 0 1 26.50 58.50)" fill="#8E24AA">6</text>
	<text transform="matrix(1 0 0 1 34.50 48.50)" fill="#EC407A">7</text>
	<text transform="matrix(1 0 0 1 38.50 57.50)" fill="#00ACC1">8</text>
	<text transform="matrix(1 0 0 1 39.50 66.03)" fill="#795548">9</text>
	<text transform="matrix(1 0 0 1 6.50 79.95)" fill="#546E7A">10</text>
	<text transform="matrix(1 0 0 1 44.50 55.50)" fill="#E53935">11</text>
	<text transform="matrix(1 0 0 1 28.50 87.50)" fill="#FB8C00">12</text>
	<text transform="matrix(1 0 0 1 69.75 85.50)" fill="#FDD835">13</text>
</g>
</svg>
