<?xml version="1.0" encoding="UTF-8"?>
<svg xmlns="http://www.w3.org/2000/svg" width="109" height="109" viewBox="0 0 109 109">
<g id="kvg:StrokePaths_05f71" style="fill:none;stroke:#000000;stroke-width:3;stroke-linecap:round;stroke-linejoin:round;">
<g id="kvg:05f71">
	<g id="kvg:05f71-g1">
		<g id="kvg:05f71-g2">
			<path id="kvg:s-s1" stroke="#E53935" d="M21.38,15.88c0.75,0.75,1.3,1.94,1.47,2.73c0.67,3.13,1.93,12.24,2.98,18.74c0.22,1.34,0.41,2.56,0.58,3.6"/>
			<path id="kvg:s-s2" stroke="#FB8C00" d="M23.77,17.34c6.43-0.88,20.92-3.07,27.6-3.84c3.31-0.38,5.23,0.82,4.77,4.38c-0.46,3.6-1.95,11.19-2.87,15.92c-0.44,2.29-0.76,3.91-0.75,4.08"/>
			<path id="kvg:s-s3" stroke="#FDD835" d="M25.45,28.24c6.92-0.99,21.49-2.88,28.58-3.45"/>
			<path id="kvg:s-s4" stroke="#43A047" d="M27.22,38.29c7.86-0.8,17.28-2.42,24.53-3"/>
		</g>
		<g id="kvg:05f71-g3">
			<g id="kvg:05f71-g4">
				<path id="kvg:s-s5" stroke="#1E88E5" d="M38.51,39.49c0.81,0.81,1,1.76,1,3c0,2.77-0.01,4.26-0.01,6.01"/>
				<path id="kvg:s-s6" stroke="#8E24AA" d="M14,52.21c2.62,0.42,4.62,0.19,7.01-0.14c8.98-1.24,25.64-3.35,34.5-3.94c1.96-0.13,4.13-0.46,6.01,0.28"/>
			</g>
			<g id="kvg:05f71-g5">
				<g id="kvg:05f71-g6">
					<path id="kvg:s-s7" stroke="#EC407A" d="M24.31,62.18c0.69,0.69,1.04,1.7,1.41,3.08c0.6,2.26,1.02,4.49,1.65,7.92c0.17,0.96,0.35,1.9,0.53,2.78"/>
					<path id="kvg:s-s8" stroke="#00ACC1" d="M26.24,63.11c7.26-1.46,17.63-3.33,22.9-3.96c2.98-0.36,5.06,0.72,3.93,3.96c-0.76,2.16-1.4,4.76-2.42,7.37"/>
					<path id="kvg:s-s9" stroke="#795548" d="M28.96,74.17c6.02-1.07,13.24-1.72,20.28-2.57c0.78-0.09,1.64-0.04,2.4-0.04"/>
				</g>
				<g id="kvg:05f71-g7">
					<path id="kvg:s-s10" stroke="#546E7A" d="M38.24,75.57c0.72,0.72,1.12,1.81,1.12,3.33c0,3.62-0.11,12.61-0.11,15.73c0,4.99-4.26,0.59-5.84-0.81"/>
					<path id="kvg:s-s11" stroke="#E53935" d="M25.09,81.36c0.09,0.86-0.07,1.68-0.47,2.45c-2,2.95-4.62,6.2-8.93,10.29"/>
					<path id="kvg:s-s12" stroke="#FB8C00" d="M50.28,80.61c2.82,1.77,6.46,6.94,7.17,9.69"/>
				</g>
			</g>
		</g>
	</g>
	<g id="kvg:05f71-g8">
		<path id="kvg:s-s13" stroke="#FDD835" d="M90.18,19.2c0.13,1,0.02,1.54-0.64,2.33c-2.98,3.63-12.96,11.66-18.88,14.33"/>
		<path id="kvg:s-s14" stroke="#43A047" d="M89.04,46.22c0.11,0.77-0.21,1.56-0.64,2.17c-2.42,3.48-9.78,9.23-17.75,13.79"/>
		<path id="kvg:s-s15" stroke="#1E88E5" d="M89.25,74.7c0.13,1,0.17,1.86-0.42,2.71c-3.58,5.21-11.71,12.96-23.69,20.39"/>
	</g>
</g>
</g>
<g id="kvg:StrokeNumbers_05f71" style="font-size:18;font-weight:bold;stroke:#fff;stroke-width:1.5;paint-order:stroke">
	<text transform="matrix(1 0 0 1 16.50 24.13)" fill="#E53935">1</text>
	<text transform="matrix(1 0 0 1 26.25 14.50)" fill="#FB8C00">2</text>
	<text transform="matrix(1 0 0 1 29.25 25.50)" fill="#FDD835">3</text>
	<text transform="matrix(1 0 0 1 29.08 35.98)" fill="#43A047">4</text>
	<text transform="matrix(1 0 0 1 32.25 46.40)" fill="#1E88E5">5</text>
	<text transform="matrix(1 0 0 1 11.50 49.50)" fill="#8E24AA">6</text>
	<text transform="matrix(1 0 0 1 18.50 69.50)" fill="#EC407A">7</text>
	<text transform="matrix(1 0 0 1 24.50 60.13)" fill="#00ACC1">8</text>
	<text transform="matrix(1 0 0 1 31.50 70.55)" fill="#795548">9</text>
	<text transform="matrix(1 0 0 1 28.50 82.50)" fill="#546E7A">10</text>
	<text transform="matrix(1 0 0 1 15.50 82.50)" fill="#E53935">11</text>
	<text transform="matrix(1 0 0 1 42.50 88.50)" fill="#FB8C00">12</text>
	<text transform="matrix(1 0 0 1 78.25 20.50)" fill="#FDD835">13</text>
	<text transform="matrix(1 0 0 1 77.50 46.55)" fill="#43A047">14</text>
	<text transform="matrix(1 0 0 1 78.50 76.50)" fill="#1E88E5">15</text>
</g>
</svg>
