<?xml version="1.0" encoding="UTF-8"?>
<svg xmlns="http://www.w3.org/2000/svg" width="109" height="109" viewBox="0 0 109 109">
<g id="kvg:StrokePaths_05f90" style="fill:none;stroke:#000000;stroke-width:3;stroke-linecap:round;stroke-linejoin:round;">
<g id="kvg:05f90">
	<g id="kvg:05f90-g1">
		<path id="kvg:s-s1" stroke="#E53935" d="M30.83,17c0.06,0.44-0.21,1.73-0.62,2.27C27.36,23.11,20.12,30.75,11.12,36"/>
		<g id="kvg:05f90-g2">
			<path id="kvg:s-s2" stroke="#FB8C00" d="M33.6,35.5c0.07,0.71-0.18,1.97-0.63,2.84C29.78,44.47,21.62,56.5,10.25,66"/>
			<path id="kvg:s-s3" stroke="#FDD835" d="M23.22,54.5c0.95,0.95,1.4,2.12,1.4,3.16c0,4.22-0.02,26.09-0.02,32.59c0,3.72-0.03,6.47-0.05,7.25"/>
		</g>
	</g>
	<g id="kvg:05f90-g3">
		<g id="kvg:05f90-g4">
			<path id="kvg:s-s4" stroke="#43A047" d="M60.54,13c0.1,0.9-0.15,2.14-0.7,3.38C56,25.25,48.75,39.5,33.71,51.32"/>
			<path id="kvg:s-s5" stroke="#1E88E5" d="M61.04,16.99c3.61,4.41,17.88,17.85,25.61,24.86c2.45,2.22,5.25,4.35,8.13,5.96"/>
		</g>
		<g id="kvg:05f90-g5">
			<path id="kvg:s-s6" stroke="#8E24AA" d="M48,46.97c1.44,0.59,3.89,0.67,5.4,0.53c5.61-0.51,13.88-1.69,19.1-2.17c1.68-0.15,3.35-0.43,5,0.02"/>
			<path id="kvg:s-s7" stroke="#EC407A" d="M41.48,62.96c2.39,0.79,5.35,0.99,7.4,0.81c8.29-0.75,22.23-2.27,29.75-2.77c1.98-0.13,4.12-0.19,6.08,0.23"/>
			<g id="kvg:05f90-g6">
				<path id="kvg:s-s8" stroke="#00ACC1" d="M61.79,48.8c1.14,1.14,1.46,2.57,1.46,4.55c0,18.93,0,31.51,0,36.27c0,10.8-5.96,1.92-7.4,0.72"/>
				<path id="kvg:s-s9" stroke="#795548" d="M49.97,72.75c0.12,1.05-0.06,2.07-0.62,2.99c-2.26,3.73-6.49,8.56-13.97,13.77"/>
				<path id="kvg:s-s10" stroke="#546E7A" d="M74,74.12c4.93,2.66,12.73,10.94,13.96,15.08"/>
			</g>
		</g>
	</g>
</g>
</g>
<g id="kvg:StrokeNumbers_05f90" style="font-size:18;font-weight:bold;stroke:#fff;stroke-width:1.5;paint-order:stroke">
	<text transform="matrix(1 0 0 1 23.50 17.50)" fill="#E53935">1</text>
	<text transform="matrix(1 0 0 1 24.50 37.50)" fill="#FB8C00">2</text>
	<text transform="matrix(1 0 0 1 17.50 68.50)" fill="#FDD835">3</text>
	<text transform="matrix(1 0 0 1 52.50 14.50)" fill="#43A047">4</text>
	<text transform="matrix(1 0 0 1 68.50 21.13)" fill="#1E88E5">5</text>
	<text transform="matrix(1 0 0 1 50.50 44.50)" fill="#8E24AA">6</text>
	<text transform="matrix(1 0 0 1 40.50 60.13)" fill="#EC407A">7</text>
	<text transform="matrix(1 0 0 1 55.50 56.50)" fill="#00ACC1">8</text>
	<text transform="matrix(1 0 0 1 41.25 74.50)" fill="#795548">9</text>
	<text transform="matrix(1 0 0 1 69.50 71.50)" fill="#546E7A">10</text>
</g>
</svg>
