<?xml version="1.0" encoding="UTF-8"?>
<svg xmlns="http://www.w3.org/2000/svg" width="109" height="109" viewBox="0 0 109 109">
<g id="kvg:StrokePaths_05fb9" style="fill:none;stroke:#000000;stroke-width:3;stroke-linecap:round;stroke-linejoin:round;">
<g id="kvg:05fb9">
	<g id="kvg:05fb9-g1">
		<path id="kvg:s-s1" stroke="#E53935" d="M27.6,16.25c0,1.04-0.65,2.02-1.18,2.86c-2.73,4.35-8.81,12.04-15.3,17.14"/>
		<g id="kvg:05fb9-g2">
			<path id="kvg:s-s2" stroke="#FB8C00" d="M29.11,34.75c0,1.12-0.35,2.21-0.8,3.16c-2.84,6.01-9.41,15.69-19.07,25.84"/>
			<path id="kvg:s-s3" stroke="#FDD835" d="M20.97,53c0.76,0.76,0.9,1.75,0.9,2.66c0,0.41,0.02,23.76-0.03,34.84c-0.01,2.83-0.03,4.85-0.04,5.5"/>
		</g>
	</g>
	<g id="kvg:05fb9-g3">
		<g id="kvg:05fb9-g4">
			<g id="kvg:05fb9-g5">
				<g id="kvg:05fb9-g6">
					<path id="kvg:s-s4" stroke="#43A047" d="M48.05,15.82c1.06,1.06,1.17,2.05,1.17,3.58c0,1.85-0.08,5.35-0.08,7.08"/>
					<path id="kvg:s-s5" stroke="#1E88E5" d="M33.47,28.65c0.8,0.09,2.61,0.06,3.4,0.01c5.63-0.41,15.17-2.43,23.69-2.7c1.32-0.04,2.56-0.21,3.72,0.14"/>
				</g>
				<g id="kvg:05fb9-g7">
					<path id="kvg:s-s6" stroke="#8E24AA" d="M48,30c0,1-0.17,1.81-0.8,2.61c-3.7,4.64-5.5,6.73-9.85,12.02c-1.27,1.54-0.81,2.91,1.26,2.45c7.64-1.7,9.64-2.07,18.87-4.3"/>
					<path id="kvg:s-s7" stroke="#EC407A" d="M54.73,36.03c2.43,1.93,6.29,7.93,6.9,10.94"/>
				</g>
			</g>
			<g id="kvg:05fb9-g8">
				<path id="kvg:s-s8" stroke="#00ACC1" d="M37.98,54.51c0.69,0.7,0.96,1.49,0.96,2.43c0,0.43-0.04,20.31-0.04,30.5c0,3.32-0.01,5.63-0.02,5.94"/>
				<path id="kvg:s-s9" stroke="#795548" d="M39.64,55.82c1.17-0.12,10.15-1.76,13.76-2.41c2.25-0.4,3.83,0.5,3.72,3.46c-0.18,4.75-0.03,24.04-0.03,34.09c0,7.8-4.93,1.2-5.4,0.5"/>
				<path id="kvg:s-s10" stroke="#546E7A" d="M40.14,66.03c4.83-0.84,11.48-1.59,15.72-2.01"/>
				<path id="kvg:s-s11" stroke="#E53935" d="M40.25,76.6c3.77-0.42,11.27-1.18,15.63-1.46"/>
			</g>
		</g>
		<g id="kvg:05fb9-g9">
			<g id="kvg:05fb9-g10">
				<path id="kvg:s-s12" stroke="#FB8C00" d="M76.45,16.64c0.03,0.82,0.2,2.16-0.06,3.3c-2.01,8.68-5.76,20.93-11.19,31.92"/>
				<path id="kvg:s-s13" stroke="#FDD835" d="M74.11,39.21c0.7,0.17,2,0,2.38-0.02c3.26-0.22,10.14-1.69,14.9-2.6c0.78-0.15,2.37-0.28,3.1-0.04"/>
			</g>
			<g id="kvg:05fb9-g11">
				<g id="kvg:05fb9-g12">
					<path id="kvg:s-s14" stroke="#43A047" d="M84.73,41.87c0.35,1.27,0.55,2.17,0.18,4.48c-3.37,21-10.75,39.32-21.89,48.14"/>
				</g>
				<path id="kvg:s-s15" stroke="#1E88E5" d="M68.4,55.29C74.12,65,80.88,77.25,89.57,87.42c1.93,2.25,3.84,4.18,5.98,6.19"/>
			</g>
		</g>
	</g>
</g>
</g>
<g id="kvg:StrokeNumbers_05fb9" style="font-size:18;font-weight:bold;stroke:#fff;stroke-width:1.5;paint-order:stroke">
	<text transform="matrix(1 0 0 1 20.25 16.63)" fill="#E53935">1</text>
	<text transform="matrix(1 0 0 1 21.75 35.50)" fill="#FB8C00">2</text>
	<text transform="matrix(1 0 0 1 14.50 67.50)" fill="#FDD835">3</text>
	<text transform="matrix(1 0 0 1 39.50 15.50)" fill="#43A047">4</text>
	<text transform="matrix(1 0 0 1 31.50 25.55)" fill="#1E88E5">5</text>
	<text transform="matrix(1 0 0 1 37.50 36.50)" fill="#8E24AA">6</text>
	<text transform="matrix(1 0 0 1 49.50 39.50)" fill="#EC407A">7</text>
	<text transform="matrix(1 0 0 1 31.50 63.13)" fill="#00ACC1">8</text>
	<text transform="matrix(1 0 0 1 40.50 53.50)" fill="#795548">9</text>
	<text transform="matrix(1 0 0 1 42.50 62.50)" fill="#546E7A">10</text>
	<text transform="matrix(1 0 0 1 42.76 73.48)" fill="#E53935">11</text>
	<text transform="matrix(1 0 0 1 64.50 16.50)" fill="#FB8C00">12</text>
	<text transform="matrix(1 0 0 1 76.50 34.55)" fill="#FDD835">13</text>
	<text transform="matrix(1 0 0 1 74.50 46.50)" fill="#43A047">14</text>
	<text transform="matrix(1 0 0 1 70.50 56.50)" fill="#1E88E5">15</text>
</g>
</svg>
