<?xml version="1.0" encoding="UTF-8"?>
<svg xmlns="http://www.w3.org/2000/svg" width="109" height="109" viewBox="0 0 109 109">
<g id="kvg:StrokePaths_05fcc" style="fill:none;stroke:#000000;stroke-width:3;stroke-linecap:round;stroke-linejoin:round;">
<g id="kvg:05fcc">
	<g id="kvg:05fcc-g1">
		<path id="kvg:s-s1" stroke="#E53935" d="M29.84,19.1c2.16,0.65,4.04,0.84,6.64,0.56c5.28-0.57,27.92-4.58,29.53-4.69c2.13-0.14,3.55,1.42,2.79,3.61c-0.23,0.65-1.66,5.12-3.15,11.37"/>
		<path id="kvg:s-s2" stroke="#FB8C00" d="M31.27,34.51c0.86,0.24,1.97,0.31,3.74,0.13c5.9-0.62,18.9-1.96,26.76-3.01c2.37-0.31,3.98-0.38,5.54-0.33"/>
		<path id="kvg:s-s3" stroke="#FDD835" d="M32.31,35.15c0.71,0.71,0.78,1.72,0.78,3.07c0,1.9-0.05,5.03-0.05,6.51c0,11.01,2.09,12.28,21.55,12.28c20.3,0,21.64-1.64,21.64-7.71"/>
	</g>
	<g id="kvg:05fcc-g2">
		<path id="kvg:s-s4" stroke="#43A047" d="M23.25,76.5c0.36,2.21-3.61,11.98-6.5,15.67"/>
		<path id="kvg:s-s5" stroke="#1E88E5" d="M31.7,68.48C40.5,88,55.52,96.67,79,95.25c8.25-0.5,8.36-4.38,1.75-8"/>
		<path id="kvg:s-s6" stroke="#8E24AA" d="M55,70.5c1.44,2.72,5.67,9.85,6.14,2.77"/>
		<path id="kvg:s-s7" stroke="#EC407A" d="M79.25,65.75c5.76,2.74,11.12,8.7,14.75,13.7"/>
	</g>
</g>
</g>
<g id="kvg:StrokeNumbers_05fcc" style="font-size:18;font-weight:bold;stroke:#fff;stroke-width:1.5;paint-order:stroke">
	<text transform="matrix(1 0 0 1 23.50 18.50)" fill="#E53935">1</text>
	<text transform="matrix(1 0 0 1 36.75 31.55)" fill="#FB8C00">2</text>
	<text transform="matrix(1 0 0 1 26.25 41.98)" fill="#FDD835">3</text>
	<text transform="matrix(1 0 0 1 17.25 71.90)" fill="#43A047">4</text>
	<text transform="matrix(1 0 0 1 26.50 66.13)" fill="#1E88E5">5</text>
	<text transform="matrix(1 0 0 1 47.50 70.63)" fill="#8E24AA">6</text>
	<text transform="matrix(1 0 0 1 72.75 67.50)" fill="#EC407A">7</text>
</g>
</svg>
