<?xml version="1.0" encoding="UTF-8"?>
<svg xmlns="http://www.w3.org/2000/svg" width="109" height="109" viewBox="0 0 109 109">
<g id="kvg:StrokePaths_05fcd" style="fill:none;stroke:#000000;stroke-width:3;stroke-linecap:round;stroke-linejoin:round;">
<g id="kvg:05fcd">
	<g id="kvg:05fcd-g1">
		<g id="kvg:05fcd-g2">
			<path id="kvg:s-s1" stroke="#E53935" d="M32.12,17.44c2.45,0.8,5.01,0.54,7.52,0.32c12.21-1.07,29.09-3.29,34.89-3.78c4.04-0.34,5.7,1.79,5.36,4.19c-1.14,8.21-6.72,30.07-12.23,37.38c-4,5.3-6.33,3.6-9.35,0.16"/>
			<path id="kvg:s-s2" stroke="#FB8C00" d="M55.96,19.6c0.09,0.9-0.14,2.15-0.68,3.38C50.5,34,41.38,48.12,24.62,58.21"/>
		</g>
		<g id="kvg:05fcd-g3">
			<path id="kvg:s-s3" stroke="#FDD835" d="M38.03,31.13c6.85,2.32,14.72,7.62,19.67,13.4"/>
		</g>
	</g>
	<g id="kvg:05fcd-g4">
		<path id="kvg:s-s4" stroke="#43A047" d="M23.58,75.84c0.24,2.4-2.37,12.99-4.27,16.99"/>
		<path id="kvg:s-s5" stroke="#1E88E5" d="M34.54,71.84C43,87.5,53.5,98,81.04,96.83c6.97-0.3,6.96-3.2,2.38-6.95"/>
		<path id="kvg:s-s6" stroke="#8E24AA" d="M51.55,68.63c2.95,4.99,5.84,8.66,6.84,4.33"/>
		<path id="kvg:s-s7" stroke="#EC407A" d="M78.03,66.45c5.33,1.2,9.33,2.29,13.66,6"/>
	</g>
</g>
</g>
<g id="kvg:StrokeNumbers_05fcd" style="font-size:18;font-weight:bold;stroke:#fff;stroke-width:1.5;paint-order:stroke">
	<text transform="matrix(1 0 0 1 25.50 17.50)" fill="#E53935">1</text>
	<text transform="matrix(1 0 0 1 45.50 27.50)" fill="#FB8C00">2</text>
	<text transform="matrix(1 0 0 1 29.50 31.63)" fill="#FDD835">3</text>
	<text transform="matrix(1 0 0 1 17.50 75.13)" fill="#43A047">4</text>
	<text transform="matrix(1 0 0 1 30.75 82.50)" fill="#1E88E5">5</text>
	<text transform="matrix(1 0 0 1 45.50 70.50)" fill="#8E24AA">6</text>
	<text transform="matrix(1 0 0 1 69.75 69.50)" fill="#EC407A">7</text>
</g>
</svg>
