<?xml version="1.0" encoding="UTF-8"?>
<svg xmlns="http://www.w3.org/2000/svg" width="109" height="109" viewBox="0 0 109 109">
<g id="kvg:StrokePaths_05fdc" style="fill:none;stroke:#000000;stroke-width:3;stroke-linecap:round;stroke-linejoin:round;">
<g id="kvg:05fdc">
	<g id="kvg:05fdc-g1">
		<path id="kvg:s-s1" stroke="#E53935" d="M54.31,13.88c0.9,0.9,1.51,2.62,1.51,3.9c0,0.79,0.08,6.65-0.07,11.46"/>
		<g id="kvg:05fdc-g2">
			<path id="kvg:s-s2" stroke="#FB8C00" d="M22.63,31.72c2.8,0.72,5.93,0.29,8.77,0.03c17.31-1.57,36.37-3.58,50.98-4.49c2.88-0.18,5.54-0.37,8.38,0.07"/>
			<path id="kvg:s-s3" stroke="#FDD835" d="M25.74,32.5c1.13,1.13,1.26,2.89,1.16,4.92c-0.65,12.33-3.02,40.21-15.34,53.8"/>
		</g>
	</g>
	<g id="kvg:05fdc-g3">
		<path id="kvg:s-s4" stroke="#43A047" d="M34.06,71.29c0.42,2.64-4.2,14.31-7.56,18.71"/>
		<path id="kvg:s-s5" stroke="#1E88E5" d="M42.43,54.4C50.5,75.5,61.75,92.75,85.6,92.29C92,92.17,90,88,87.06,83.7"/>
		<path id="kvg:s-s6" stroke="#8E24AA" d="M59.13,52.38c2.37,5.62,6.31,10.68,7.44,5.26"/>
		<path id="kvg:s-s7" stroke="#EC407A" d="M85.88,52c3.88,3.88,7.5,8.88,9.88,15.43"/>
	</g>
</g>
</g>
<g id="kvg:StrokeNumbers_05fdc" style="font-size:18;fill:#E53935;font-weight:bold;stroke:#fff;stroke-width:1.5;paint-order:stroke">
	<text transform="matrix(1 0 0 1 45.50 14.50)" fill="#E53935">1</text>
	<text transform="matrix(1 0 0 1 26.50 29.50)" fill="#FB8C00">2</text>
	<text transform="matrix(1 0 0 1 18.50 41.50)" fill="#FDD835">3</text>
	<text transform="matrix(1 0 0 1 31.50 64.63)" fill="#43A047">4</text>
	<text transform="matrix(1 0 0 1 37.50 50.50)" fill="#1E88E5">5</text>
	<text transform="matrix(1 0 0 1 54.50 49.50)" fill="#8E24AA">6</text>
	<text transform="matrix(1 0 0 1 79.50 48.50)" fill="#EC407A">7</text>
</g>
</svg>
