<?xml version="1.0" encoding="UTF-8"?>
<svg xmlns="http://www.w3.org/2000/svg" width="109" height="109" viewBox="0 0 109 109">
<g id="kvg:StrokePaths_05fd7" style="fill:none;stroke:#000000;stroke-width:3;stroke-linecap:round;stroke-linejoin:round;">
<g id="kvg:05fd7">
	<g id="kvg:05fd7-g1">
		<path id="kvg:s-s1" stroke="#E53935" d="M21.61,31.38c2.76,0.87,6.01,0.74,8.64,0.43c13.5-1.57,34.11-3.99,48.01-4.46c2.63-0.09,5.55,0.06,8.14,0.62"/>
		<path id="kvg:s-s2" stroke="#FB8C00" d="M52.77,12.25c1.12,1.12,1.83,3.25,1.83,4.64c0,6.61-0.09,25.32-0.09,32.36"/>
		<path id="kvg:s-s3" stroke="#FDD835" d="M28.46,51.82c2.29,0.43,5.54,0.38,7.8,0.11c11.25-1.31,25-2.69,36.87-3.6c2.33-0.18,4.82,0.06,7.13,0.49"/>
	</g>
	<g id="kvg:05fd7-g2">
		<path id="kvg:s-s4" stroke="#43A047" d="M19.75,73.5c0.36,2.33-3.61,12.64-6.5,16.54"/>
		<path id="kvg:s-s5" stroke="#1E88E5" d="M32.84,70c10.79,20,23.37,27.44,47.85,26.57c8.93-0.32,8.31-3.07,3.29-7.43"/>
		<path id="kvg:s-s6" stroke="#8E24AA" d="M51.44,63.25c3.18,6.25,7.4,10.87,8.59,5.58"/>
		<path id="kvg:s-s7" stroke="#EC407A" d="M81.99,62.78c4.88,2.67,8.88,6.47,12.51,13.37"/>
	</g>
</g>
</g>
<g id="kvg:StrokeNumbers_05fd7" style="font-size:18;fill:#E53935;font-weight:bold;stroke:#fff;stroke-width:1.5;paint-order:stroke">
	<text transform="matrix(1 0 0 1 15.50 32.50)" fill="#E53935">1</text>
	<text transform="matrix(1 0 0 1 42.50 12.50)" fill="#FB8C00">2</text>
	<text transform="matrix(1 0 0 1 21.50 51.50)" fill="#FDD835">3</text>
	<text transform="matrix(1 0 0 1 15.50 69.50)" fill="#43A047">4</text>
	<text transform="matrix(1 0 0 1 27.50 67.50)" fill="#1E88E5">5</text>
	<text transform="matrix(1 0 0 1 45.50 64.48)" fill="#8E24AA">6</text>
	<text transform="matrix(1 0 0 1 74.50 62.50)" fill="#EC407A">7</text>
</g>
</svg>
