<?xml version="1.0" encoding="UTF-8"?>
<svg xmlns="http://www.w3.org/2000/svg" width="109" height="109" viewBox="0 0 109 109">
<g id="kvg:StrokePaths_06025" style="fill:none;stroke:#000000;stroke-width:3;stroke-linecap:round;stroke-linejoin:round;">
<g id="kvg:06025">
	<g id="kvg:06025-g1">
		<g id="kvg:06025-g2">
			<path id="kvg:s-s1" stroke="#E53935" d="M45.74,13c0.12,1.54-0.21,2.93-1,4.18c-3.5,5.43-11.98,13.81-24.12,20.57"/>
			<path id="kvg:s-s2" stroke="#FB8C00" d="M44,20.5c1.25,0.38,2.5,0.17,3.9,0.04c5.34-0.49,12.92-1.48,16.85-2.04c3.5-0.5,3.99,1.52,2.5,3.5c-3.75,5-7.25,9-11,13.5"/>
		</g>
		<g id="kvg:06025-g3">
			<path id="kvg:s-s3" stroke="#FDD835" d="M30.75,38.75c2,0.5,4.46,0.85,6.75,0.63c9.25-0.88,31-4.13,36-4.88c3.21-0.48,4.88,0.75,4.25,4.25c-0.75,4.17-1.72,9.85-2.87,15.76c-0.19,0.97-1.1,5.48-1.38,6.74"/>
			<path id="kvg:s-s4" stroke="#43A047" d="M29,50.99c2.25,0.23,4.01,0.44,6.5,0.21c10.25-0.95,27.38-3.7,38.75-4.7"/>
			<path id="kvg:s-s5" stroke="#1E88E5" d="M29.75,63.81c2.14,0.53,4.28,0.62,6.42,0.28c11.22-1.31,25.61-4.13,35.08-5.06"/>
		</g>
	</g>
	<g id="kvg:06025-g4">
		<path id="kvg:s-s6" stroke="#8E24AA" d="M24.77,77.21c0.4,2.68-4.04,14.53-7.27,19"/>
		<path id="kvg:s-s7" stroke="#EC407A" d="M35.65,73.76c9.85,15.86,19.23,24.36,47,22.84c7.07-0.39,8.23-2.98,0.68-8.08"/>
		<path id="kvg:s-s8" stroke="#00ACC1" d="M54.48,72.5c1.64,3.48,6.25,6.91,7.27,2"/>
		<path id="kvg:s-s9" stroke="#795548" d="M80.76,68.02c3.56,2.2,7.11,6.35,9.63,11.5"/>
	</g>
</g>
</g>
<g id="kvg:StrokeNumbers_06025" style="font-size:18;fill:#E53935;font-weight:bold;stroke:#fff;stroke-width:1.5;paint-order:stroke">
	<text transform="matrix(1 0 0 1 37.50 15.13)" fill="#E53935">1</text>
	<text transform="matrix(1 0 0 1 52.50 17.50)" fill="#FB8C00">2</text>
	<text transform="matrix(1 0 0 1 36.75 36.13)" fill="#FDD835">3</text>
	<text transform="matrix(1 0 0 1 21.75 51.13)" fill="#43A047">4</text>
	<text transform="matrix(1 0 0 1 22.50 63.13)" fill="#1E88E5">5</text>
	<text transform="matrix(1 0 0 1 18.50 75.13)" fill="#8E24AA">6</text>
	<text transform="matrix(1 0 0 1 29.50 75.47)" fill="#EC407A">7</text>
	<text transform="matrix(1 0 0 1 47.50 74.27)" fill="#00ACC1">8</text>
	<text transform="matrix(1 0 0 1 71.50 70.63)" fill="#795548">9</text>
</g>
</svg>
