<?xml version="1.0" encoding="UTF-8"?>
<svg xmlns="http://www.w3.org/2000/svg" width="109" height="109" viewBox="0 0 109 109">
<g id="kvg:StrokePaths_06028" style="fill:none;stroke:#000000;stroke-width:3;stroke-linecap:round;stroke-linejoin:round;">
<g id="kvg:06028">
	<g id="kvg:06028-g1">
		<g id="kvg:06028-g2">
			<path id="kvg:s-s1" stroke="#E53935" d="M34.23,13.14c0,1.16-0.17,2.28-0.63,3.31c-3.1,7.04-8.76,16.5-17.26,25.22"/>
			<path id="kvg:s-s2" stroke="#FB8C00" d="M34.8,21.87c1.3,0.03,2.58-0.11,3.84-0.42c2.39-0.51,5.79-0.93,8.77-1.52c3.57-0.7,4.87,0.3,3.53,3.89C46.59,35.52,29.4,60.56,14.75,66"/>
			<path id="kvg:s-s3" stroke="#FDD835" d="M27.12,34.12c2.38,1.5,6.62,4.88,9,8.75"/>
		</g>
		<g id="kvg:06028-g3">
			<path id="kvg:s-s4" stroke="#43A047" d="M59.49,19.73c1.91,0.39,3.78,0.38,5.63-0.03c5.52-1,14.02-2.84,17.28-3.67c2.6-0.66,4.36,0.98,3.97,4.04c-0.74,5.68-2.58,12.56-5.61,18.73c-2.21,4.5-4.18,0.54-4.61,0.32"/>
			<path id="kvg:s-s5" stroke="#1E88E5" d="M61.24,20.73c0.89,0.9,1.26,2.4,1.23,4.04c-0.09,5.77-0.11,10.73-0.05,17.81c0.09,11.93,1.84,13.13,15.82,13.13c14.52,0,16.41-1.07,16.41-10.39"/>
		</g>
	</g>
	<g id="kvg:06028-g4">
		<path id="kvg:s-s6" stroke="#8E24AA" d="M22.4,76.32c0.29,2.25-2.95,12.17-5.32,15.92"/>
		<path id="kvg:s-s7" stroke="#EC407A" d="M34.08,71.68C44,90.75,55,97,80.06,96.75c13.29-0.13,14.16-3.56,3.07-9.62"/>
		<path id="kvg:s-s8" stroke="#00ACC1" d="M52.91,68.75c1.98,4.87,4.85,9.74,6.97,2.28"/>
		<path id="kvg:s-s9" stroke="#795548" d="M75.63,66.73c5.31,1.67,9.29,3.19,13.6,8.36"/>
	</g>
</g>
</g>
<g id="kvg:StrokeNumbers_06028" style="font-size:18;font-weight:bold;stroke:#fff;stroke-width:1.5;paint-order:stroke">
	<text transform="matrix(1 0 0 1 25.50 11.50)" fill="#E53935">1</text>
	<text transform="matrix(1 0 0 1 40.50 18.50)" fill="#FB8C00">2</text>
	<text transform="matrix(1 0 0 1 31.50 34.50)" fill="#FDD835">3</text>
	<text transform="matrix(1 0 0 1 64.50 16.50)" fill="#43A047">4</text>
	<text transform="matrix(1 0 0 1 56.25 32.50)" fill="#1E88E5">5</text>
	<text transform="matrix(1 0 0 1 16.50 76.50)" fill="#8E24AA">6</text>
	<text transform="matrix(1 0 0 1 28.50 70.50)" fill="#EC407A">7</text>
	<text transform="matrix(1 0 0 1 45.50 69.50)" fill="#00ACC1">8</text>
	<text transform="matrix(1 0 0 1 67.50 67.50)" fill="#795548">9</text>
</g>
</svg>
