<?xml version="1.0" encoding="UTF-8"?>
<svg xmlns="http://www.w3.org/2000/svg" width="109" height="109" viewBox="0 0 109 109">
<g id="kvg:StrokePaths_06063" style="fill:none;stroke:#000000;stroke-width:3;stroke-linecap:round;stroke-linejoin:round;">
<g id="kvg:06063">
	<g id="kvg:06063-g1">
		<g id="kvg:06063-g2">
			<g id="kvg:06063-g3">
				<path id="kvg:s-s1" stroke="#E53935" d="M15.25,22.54c0.62,0.07,1.83,0.4,2.92,0.33c5.09-0.35,14.65-1.4,18.02-1.75c0.95-0.1,1.83,0.13,2.31,0.26"/>
			</g>
			<g id="kvg:06063-g4">
				<path id="kvg:s-s2" stroke="#FB8C00" d="M15,48.79c0.75,0.96,2.25,1.46,4.5,0.21c6.25-3.5,14-9.25,20.25-12.75"/>
			</g>
		</g>
		<g id="kvg:06063-g5">
			<path id="kvg:s-s3" stroke="#FDD835" d="M55.24,12.25c0.03,0.6,0.06,1.54-0.06,2.4c-0.73,5.05-4.96,16.13-10.74,22.91"/>
			<path id="kvg:s-s4" stroke="#43A047" d="M55.31,23.91c0.81,0.23,2.33,0.58,3.55,0.38c1.48-0.24,24.9-4.93,26.31-4.94c4.86-0.04-0.51,5.6-3.51,8.57"/>
			<path id="kvg:s-s5" stroke="#1E88E5" d="M63.51,31.12c0.06,0.71,0.04,1.8-0.12,2.83c-1,6.4-10.43,21.7-23.39,29.05"/>
			<path id="kvg:s-s6" stroke="#8E24AA" d="M63.81,38.25c3.41,4.39,15.34,17.56,21.46,22.26c1.29,0.99,2.27,1.58,3.49,1.89"/>
		</g>
	</g>
	<g id="kvg:06063-g6">
		<path id="kvg:s-s7" stroke="#EC407A" d="M22.15,79.57c0.32,2.28-3.23,12.36-5.82,16.17"/>
		<path id="kvg:s-s8" stroke="#00ACC1" d="M31.83,73.75c6.73,12.99,17.88,24.77,43.84,24.93c12.53,0.08,13.34-3.47,2.9-9.38"/>
		<path id="kvg:s-s9" stroke="#795548" d="M54.66,71.25c2.17,5.25,5.32,10.5,7.63,2.46"/>
		<path id="kvg:s-s10" stroke="#546E7A" d="M83.63,72.73c4.63,2.07,8.09,3.96,11.85,10.36"/>
	</g>
</g>
</g>
<g id="kvg:StrokeNumbers_06063" style="font-size:18;font-weight:bold;stroke:#fff;stroke-width:1.5;paint-order:stroke">
	<text transform="matrix(1 0 0 1 8.50 21.50)" fill="#E53935">1</text>
	<text transform="matrix(1 0 0 1 6.50 49.50)" fill="#FB8C00">2</text>
	<text transform="matrix(1 0 0 1 46.44 13.98)" fill="#FDD835">3</text>
	<text transform="matrix(1 0 0 1 60.50 20.50)" fill="#43A047">4</text>
	<text transform="matrix(1 0 0 1 55.44 34.83)" fill="#1E88E5">5</text>
	<text transform="matrix(1 0 0 1 69.50 41.50)" fill="#8E24AA">6</text>
	<text transform="matrix(1 0 0 1 15.50 78.50)" fill="#EC407A">7</text>
	<text transform="matrix(1 0 0 1 27.44 82.60)" fill="#00ACC1">8</text>
	<text transform="matrix(1 0 0 1 47.50 73.50)" fill="#795548">9</text>
	<text transform="matrix(1 0 0 1 72.44 76.50)" fill="#546E7A">10</text>
</g>
</svg>
