<?xml version="1.0" encoding="UTF-8"?>
<svg xmlns="http://www.w3.org/2000/svg" width="109" height="109" viewBox="0 0 109 109">
<g id="kvg:StrokePaths_06075" style="fill:none;stroke:#000000;stroke-width:3;stroke-linecap:round;stroke-linejoin:round;">
<g id="kvg:06075">
	<g id="kvg:06075-g1">
		<path id="kvg:s-s1" stroke="#E53935" d="M29.25,24.86c2.75,0.51,5.65,0.43,7.99,0.16c9.05-1.05,27.35-3.32,36.14-3.82c2.4-0.14,5.01-0.26,7.37,0.34"/>
		<g id="kvg:06075-g2">
			<g id="kvg:06075-g3">
				<path id="kvg:s-s2" stroke="#FB8C00" d="M28.14,37.79c0.66,0.66,1.3,1.69,1.54,2.93c1.45,7.4,2.36,12.3,3.76,21c0.25,1.52,0.49,3.08,0.74,4.67"/>
				<path id="kvg:s-s3" stroke="#FDD835" d="M30.08,39.18c13.79-1.93,37.54-5.17,47.17-5.99c3.58-0.31,4.4,1.48,3.92,4.7c-0.83,5.57-2.39,13.22-4.04,19.52c-0.46,1.74-0.92,3.38-1.38,4.84"/>
				<path id="kvg:s-s4" stroke="#43A047" d="M32.9,51.85c14.6-2.47,35.6-5.22,45.36-5.64"/>
				<path id="kvg:s-s5" stroke="#1E88E5" d="M35.14,63.92c12.73-1.8,26.23-3.8,41.08-4.8"/>
			</g>
			<g id="kvg:06075-g4">
				<path id="kvg:s-s6" stroke="#8E24AA" d="M52.74,12.32c1.22,1.22,1.5,2.63,1.51,4.18c0.04,15.3,0.23,40.45,0.23,44.44"/>
			</g>
		</g>
	</g>
	<g id="kvg:06075-g5">
		<path id="kvg:s-s7" stroke="#EC407A" d="M24.12,79c0.39,2.22-3.91,12.03-7.04,15.74"/>
		<path id="kvg:s-s8" stroke="#00ACC1" d="M34.75,76.5C45.68,91.52,50.74,98,80.01,97.93c9.1-0.02,8.99-2.93,2.81-7.28"/>
		<path id="kvg:s-s9" stroke="#795548" d="M52.77,72.75c2.23,5.25,5.48,10.5,7.87,2.46"/>
		<path id="kvg:s-s10" stroke="#546E7A" d="M80.7,71.23c5.48,3.27,9.92,7.89,14.28,16.11"/>
	</g>
</g>
</g>
<g id="kvg:StrokeNumbers_06075" style="font-size:18;font-weight:bold;stroke:#fff;stroke-width:1.5;paint-order:stroke">
	<text transform="matrix(1 0 0 1 22.50 25.50)" fill="#E53935">1</text>
	<text transform="matrix(1 0 0 1 21.75 46.55)" fill="#FB8C00">2</text>
	<text transform="matrix(1 0 0 1 30.75 35.50)" fill="#FDD835">3</text>
	<text transform="matrix(1 0 0 1 36.75 47.50)" fill="#43A047">4</text>
	<text transform="matrix(1 0 0 1 37.50 60.92)" fill="#1E88E5">5</text>
	<text transform="matrix(1 0 0 1 42.75 12.50)" fill="#8E24AA">6</text>
	<text transform="matrix(1 0 0 1 19.50 77.50)" fill="#EC407A">7</text>
	<text transform="matrix(1 0 0 1 30.75 85.50)" fill="#00ACC1">8</text>
	<text transform="matrix(1 0 0 1 45.50 73.63)" fill="#795548">9</text>
	<text transform="matrix(1 0 0 1 70.50 73.63)" fill="#546E7A">10</text>
</g>
</svg>
