<?xml version="1.0" encoding="UTF-8"?>
<svg xmlns="http://www.w3.org/2000/svg" width="109" height="109" viewBox="0 0 109 109">
<g id="kvg:StrokePaths_060a6" style="fill:none;stroke:#000000;stroke-width:3;stroke-linecap:round;stroke-linejoin:round;">
<g id="kvg:060a6">
	<g id="kvg:060a6-g1">
		<path id="kvg:s-s1" stroke="#E53935" d="M19.25,40.25c0,6.61-3.37,16.36-4.25,18.25"/>
		<path id="kvg:s-s2" stroke="#FB8C00" d="M35.02,33.33c2.4,1.61,6.19,6.63,6.79,9.13"/>
		<path id="kvg:s-s3" stroke="#FDD835" d="M28.62,15c1,1,1.21,2.5,1.21,3.75c0,0.87-0.08,59.75-0.08,69.38c0,3.4,0.03,5.93,0,6.88"/>
	</g>
	<g id="kvg:060a6-g2">
		<g id="kvg:060a6-g3">
			<g id="kvg:060a6-g4">
				<path id="kvg:s-s4" stroke="#43A047" d="M50.06,18.83c2.58,2.14,6.65,8.8,7.3,12.13"/>
			</g>
			<g id="kvg:060a6-g5">
				<path id="kvg:s-s5" stroke="#1E88E5" d="M78.02,13.64c0.09,1.04-0.03,2.05-0.36,3.03c-1.78,3.95-4.66,9.27-8.91,15.05"/>
			</g>
		</g>
		<g id="kvg:060a6-g6">
			<g id="kvg:060a6-g7">
				<path id="kvg:s-s6" stroke="#8E24AA" d="M48.24,37.58c0.62,1,0.95,2.1,1.01,3.28c0.56,3.33,1.3,8.74,1.93,13.62c0.15,1.19,0.31,2.34,0.47,3.43"/>
				<path id="kvg:s-s7" stroke="#EC407A" d="M49.87,38.99c8.97-1.19,19.43-2.61,27.26-3.4c2.76-0.28,4.7,0.96,4.06,3.92c-0.88,4.09-2.03,8.29-3.17,13.57"/>
				<path id="kvg:s-s8" stroke="#00ACC1" d="M52.56,56.36c4.79-0.31,15.14-1.4,22.96-2.23c1.33-0.14,3.59-0.26,4.72-0.35"/>
			</g>
			<g id="kvg:060a6-g8">
				<g id="kvg:060a6-g9">
					<path id="kvg:s-s9" stroke="#795548" d="M60.28,59c0.06,0.78,0.12,2.02-0.11,3.15c-1.36,6.63-8.64,22.15-19.86,30.11"/>
				</g>
				<path id="kvg:s-s10" stroke="#546E7A" d="M69.56,57.6c0.86,0.86,1.2,2.27,1.2,3.6c0,4.95,0,12.29,0,18.42c0,9.83,1.5,10.67,11.45,10.67c11.17,0,12.05-0.63,12.05-8.66"/>
			</g>
		</g>
	</g>
</g>
</g>
<g id="kvg:StrokeNumbers_060a6" style="font-size:18;font-weight:bold;stroke:#fff;stroke-width:1.5;paint-order:stroke">
	<text transform="matrix(1 0 0 1 13.50 39.50)" fill="#E53935">1</text>
	<text transform="matrix(1 0 0 1 35.25 30.13)" fill="#FB8C00">2</text>
	<text transform="matrix(1 0 0 1 18.75 15.50)" fill="#FDD835">3</text>
	<text transform="matrix(1 0 0 1 44.50 15.50)" fill="#43A047">4</text>
	<text transform="matrix(1 0 0 1 69.50 12.13)" fill="#1E88E5">5</text>
	<text transform="matrix(1 0 0 1 43.50 49.50)" fill="#8E24AA">6</text>
	<text transform="matrix(1 0 0 1 50.25 36.50)" fill="#EC407A">7</text>
	<text transform="matrix(1 0 0 1 54.75 53.50)" fill="#00ACC1">8</text>
	<text transform="matrix(1 0 0 1 51.50 66.13)" fill="#795548">9</text>
	<text transform="matrix(1 0 0 1 60.50 75.50)" fill="#546E7A">10</text>
</g>
</svg>
