<?xml version="1.0" encoding="UTF-8"?>
<svg xmlns="http://www.w3.org/2000/svg" width="109" height="109" viewBox="0 0 109 109">
<g id="kvg:StrokePaths_060b2" style="fill:none;stroke:#000000;stroke-width:3;stroke-linecap:round;stroke-linejoin:round;">
<g id="kvg:060b2">
	<g id="kvg:060b2-g1">
		<g id="kvg:060b2-g2">
			<path id="kvg:s-s1" stroke="#E53935" d="M42.54,12.48c1.18,1.18,1.74,2.65,1.76,3.74C44.88,50.75,44,58.38,28,68.25"/>
			<path id="kvg:s-s2" stroke="#FB8C00" d="M21.29,27.39c1.46,0.24,2.92,0.17,4.27,0c1.35-0.17,14.19-1.89,16.73-2.22"/>
			<path id="kvg:s-s3" stroke="#FDD835" d="M20.59,40.84c1.54,0.29,2.92,0.17,4.27,0c1.35-0.17,13.98-2.05,17.58-2.57"/>
			<path id="kvg:s-s4" stroke="#43A047" d="M20,55.25c0.88,0.62,2.75,0.62,4.25,0.25C25.59,55.16,32,53.25,40,51"/>
		</g>
		<g id="kvg:060b2-g3">
			<path id="kvg:s-s5" stroke="#1E88E5" d="M62.53,11.12c1.05,1.05,1.76,2.51,1.76,3.99c0,4.05,0.04,29.75,0.05,41.52c0,2.08,0,3.73,0,4.74"/>
			<path id="kvg:s-s6" stroke="#8E24AA" d="M66.92,22.83c5.15-0.26,11.34-1.9,15.2-2.33c1.41-0.16,0.43-0.09,2.86-0.09"/>
			<path id="kvg:s-s7" stroke="#EC407A" d="M67.25,36.22c6.12-0.59,12.28-2.31,16.37-2.74c1.49-0.16,0.45-0.09,3.03-0.09"/>
			<path id="kvg:s-s8" stroke="#00ACC1" d="M67.14,50.11c6.86-0.61,15.09-1.56,19.41-1.99c1.57-0.16,0.48-0.08,3.2-0.08"/>
		</g>
	</g>
	<g id="kvg:060b2-g4">
		<path id="kvg:s-s9" stroke="#795548" d="M24.88,79.62c0.31,2.4-3.06,12.98-5.52,16.97"/>
		<path id="kvg:s-s10" stroke="#546E7A" d="M40.5,74.04c8,16.58,15.75,24.21,43.07,21.82c6.61-0.58,6.56-3.11,1.48-8.25"/>
		<path id="kvg:s-s11" stroke="#E53935" d="M56.97,69c1.7,3.07,5.66,8.5,6.74,3.35"/>
		<path id="kvg:s-s12" stroke="#FB8C00" d="M84.95,68.14c3.41,1.99,7.18,5.36,9.48,10.68"/>
	</g>
</g>
</g>
<g id="kvg:StrokeNumbers_060b2" style="font-size:18;fill:#E53935;font-weight:bold;stroke:#fff;stroke-width:1.5;paint-order:stroke">
	<text transform="matrix(1 0 0 1 34.50 13.50)" fill="#E53935">1</text>
	<text transform="matrix(1 0 0 1 14.25 27.50)" fill="#FB8C00">2</text>
	<text transform="matrix(1 0 0 1 14.25 41.82)" fill="#FDD835">3</text>
	<text transform="matrix(1 0 0 1 12.75 56.50)" fill="#43A047">4</text>
	<text transform="matrix(1 0 0 1 54.50 12.50)" fill="#1E88E5">5</text>
	<text transform="matrix(1 0 0 1 68.50 19.50)" fill="#8E24AA">6</text>
	<text transform="matrix(1 0 0 1 68.50 33.50)" fill="#EC407A">7</text>
	<text transform="matrix(1 0 0 1 68.50 46.63)" fill="#00ACC1">8</text>
	<text transform="matrix(1 0 0 1 18.50 79.63)" fill="#795548">9</text>
	<text transform="matrix(1 0 0 1 30.75 76.63)" fill="#546E7A">10</text>
	<text transform="matrix(1 0 0 1 47.25 73.69)" fill="#E53935">11</text>
	<text transform="matrix(1 0 0 1 72.75 69.50)" fill="#FB8C00">12</text>
</g>
</svg>
