<?xml version="1.0" encoding="UTF-8"?>
<svg xmlns="http://www.w3.org/2000/svg" width="109" height="109" viewBox="0 0 109 109">
<g id="kvg:StrokePaths_060e7" style="fill:none;stroke:#000000;stroke-width:3;stroke-linecap:round;stroke-linejoin:round;">
<g id="kvg:060e7">
	<g id="kvg:060e7-g1">
		<path id="kvg:s-s1" stroke="#E53935" d="M16.72,36c0.03,4.31-1.97,14.14-4.19,17.5"/>
		<path id="kvg:s-s2" stroke="#FB8C00" d="M33.27,32.33c2.22,2.05,5.74,8.44,6.29,11.63"/>
		<path id="kvg:s-s3" stroke="#FDD835" d="M23.87,12.25c1.09,0.5,1.74,2.25,1.96,3.25c0.22,1,0,73.75-0.22,80"/>
	</g>
	<g id="kvg:060e7-g2">
		<g id="kvg:060e7-g3">
			<path id="kvg:s-s4" stroke="#43A047" d="M50.05,14.81c0.32,0.87,0.94,2.01,1,3.54c0.27,6.78,0.39,57.56,0.39,58.33"/>
			<path id="kvg:s-s5" stroke="#1E88E5" d="M51.23,17.37c2.31-0.19,23.06-2.75,25.16-2.98c1.76-0.19,2.99,1.11,2.99,4.1c0,6.67-0.01,35.76-0.53,53.83"/>
			<path id="kvg:s-s6" stroke="#8E24AA" d="M51.72,31.68c8.03-0.68,22.06-1.65,27.65-2.02"/>
			<path id="kvg:s-s7" stroke="#EC407A" d="M51.58,45.98c6.13-0.65,19.64-1.51,27.2-1.93"/>
			<path id="kvg:s-s8" stroke="#00ACC1" d="M51.49,60.31c9.26-0.56,18.51-1.06,27.61-1.47"/>
		</g>
		<g id="kvg:060e7-g4">
			<path id="kvg:s-s9" stroke="#795548" d="M35.84,76.96c1.19,0.32,3.39,0.4,4.58,0.32c7.42-0.44,38.53-2.99,52.05-2.98c1.99,0,3.19,0.15,4.18,0.32"/>
			<g id="kvg:060e7-g5">
				<path id="kvg:s-s10" stroke="#546E7A" d="M56.26,82.5c0.05,0.33,0.11,0.84-0.1,1.31c-1.27,2.76-8.53,8.83-18.47,12.54"/>
				<path id="kvg:s-s11" stroke="#E53935" d="M75.57,82.04c5.08,2.69,13.12,11.08,14.39,15.27"/>
			</g>
		</g>
	</g>
</g>
</g>
<g id="kvg:StrokeNumbers_060e7" style="font-size:18;font-weight:bold;stroke:#fff;stroke-width:1.5;paint-order:stroke">
	<text transform="matrix(1 0 0 1 11.50 34.50)" fill="#E53935">1</text>
	<text transform="matrix(1 0 0 1 30.50 28.50)" fill="#FB8C00">2</text>
	<text transform="matrix(1 0 0 1 15.50 12.50)" fill="#FDD835">3</text>
	<text transform="matrix(1 0 0 1 43.50 22.50)" fill="#43A047">4</text>
	<text transform="matrix(1 0 0 1 53.50 13.50)" fill="#1E88E5">5</text>
	<text transform="matrix(1 0 0 1 55.50 28.50)" fill="#8E24AA">6</text>
	<text transform="matrix(1 0 0 1 55.50 42.43)" fill="#EC407A">7</text>
	<text transform="matrix(1 0 0 1 55.50 56.50)" fill="#00ACC1">8</text>
	<text transform="matrix(1 0 0 1 33.50 72.50)" fill="#795548">9</text>
	<text transform="matrix(1 0 0 1 43.50 86.50)" fill="#546E7A">10</text>
	<text transform="matrix(1 0 0 1 67.50 88.50)" fill="#E53935">11</text>
</g>
</svg>
