<?xml version="1.0" encoding="UTF-8"?>
<svg xmlns="http://www.w3.org/2000/svg" width="109" height="109" viewBox="0 0 109 109">
<g id="kvg:StrokePaths_0614e" style="fill:none;stroke:#000000;stroke-width:3;stroke-linecap:round;stroke-linejoin:round;">
<g id="kvg:0614e">
	<g id="kvg:0614e-g1">
		<path id="kvg:s-s1" stroke="#E53935" d="M14.75,35.62c0.02,4.47-1.43,14.65-2.72,18.12"/>
		<path id="kvg:s-s2" stroke="#FB8C00" d="M31.27,33.08c3.1,1.35,8.02,5.54,8.79,7.63"/>
		<path id="kvg:s-s3" stroke="#FDD835" d="M24.62,16c1.19,1.19,1.21,3,1.21,4.75c0,1.79,0.02,46.77,0.03,66.25c0,3.82,0,6.52,0,7.5"/>
	</g>
	<g id="kvg:0614e-g2">
		<g id="kvg:0614e-g3">
			<path id="kvg:s-s4" stroke="#43A047" d="M44.82,23.93c2.68,0.57,5.12,0.46,7.07,0.18C63,22.5,76.57,21.18,84.75,20.6c2.03-0.14,4.62-0.1,6.47,0.36"/>
			<path id="kvg:s-s5" stroke="#1E88E5" d="M65.61,13.75c0.76,0.76,1.24,1.62,1.24,2.75c0,4.38-0.01,8.25-0.01,16.55"/>
		</g>
		<g id="kvg:0614e-g4">
			<g id="kvg:0614e-g5">
				<path id="kvg:s-s6" stroke="#8E24AA" d="M51.09,34.89c0.88,0.88,1.27,1.98,1.27,3.89c0,6.34-0.1,19.5-0.04,28.22c0.02,3.08,0.03,5.15,0.03,5.3"/>
				<path id="kvg:s-s7" stroke="#EC407A" d="M52.97,35.75c6.28-0.62,24.1-3.19,26.77-3.36c2.22-0.14,3.78,0.74,3.79,3.8c0,3.23,0.08,18.95,0.1,27.7c0,3.17,0,5.42-0.02,5.83"/>
				<path id="kvg:s-s8" stroke="#00ACC1" d="M53.58,46.78c10.67-0.81,20.3-1.91,28.67-2.52"/>
				<path id="kvg:s-s9" stroke="#795548" d="M53.28,57.81c7.75-0.48,19.4-1.87,28.97-2.18"/>
				<path id="kvg:s-s10" stroke="#546E7A" d="M53.3,69.49c11.54-1.17,19.93-2.14,29.47-2.73"/>
			</g>
			<g id="kvg:0614e-g6">
				<path id="kvg:s-s11" stroke="#E53935" d="M41.84,79.83c2.49,0.84,5.48,0.49,8.03,0.29c8.82-0.69,26.53-2.32,37.5-2.62c2.51-0.07,5.06,0.04,7.53,0.54"/>
				<g id="kvg:0614e-g7">
					<path id="kvg:s-s12" stroke="#FB8C00" d="M57.79,85.47c0.13,0.87-0.07,1.64-0.6,2.33c-2.69,3.08-8.14,7.75-15.49,11.17"/>
					<path id="kvg:s-s13" stroke="#FDD835" d="M77,85.5c4.88,2,12.6,8.2,13.82,11.31"/>
				</g>
			</g>
		</g>
	</g>
</g>
</g>
<g id="kvg:StrokeNumbers_0614e" style="font-size:18;font-weight:bold;stroke:#fff;stroke-width:1.5;paint-order:stroke">
	<text transform="matrix(1 0 0 1 9.50 36.13)" fill="#E53935">1</text>
	<text transform="matrix(1 0 0 1 30.50 30.50)" fill="#FB8C00">2</text>
	<text transform="matrix(1 0 0 1 14.50 16.50)" fill="#FDD835">3</text>
	<text transform="matrix(1 0 0 1 42.50 21.50)" fill="#43A047">4</text>
	<text transform="matrix(1 0 0 1 55.50 13.50)" fill="#1E88E5">5</text>
	<text transform="matrix(1 0 0 1 44.25 42.50)" fill="#8E24AA">6</text>
	<text transform="matrix(1 0 0 1 54.75 33.50)" fill="#EC407A">7</text>
	<text transform="matrix(1 0 0 1 56.25 44.83)" fill="#00ACC1">8</text>
	<text transform="matrix(1 0 0 1 56.25 55.25)" fill="#795548">9</text>
	<text transform="matrix(1 0 0 1 56.25 66.50)" fill="#546E7A">10</text>
	<text transform="matrix(1 0 0 1 40.50 77.60)" fill="#E53935">11</text>
	<text transform="matrix(1 0 0 1 44.50 90.50)" fill="#FB8C00">12</text>
	<text transform="matrix(1 0 0 1 66.50 89.50)" fill="#FDD835">13</text>
</g>
</svg>
