<?xml version="1.0" encoding="UTF-8"?>
<svg xmlns="http://www.w3.org/2000/svg" width="109" height="109" viewBox="0 0 109 109">
<g id="kvg:StrokePaths_06155" style="fill:none;stroke:#000000;stroke-width:3;stroke-linecap:round;stroke-linejoin:round;">
<g id="kvg:06155">
	<g id="kvg:06155-g1">
		<g id="kvg:06155-g2">
			<path id="kvg:s-s1" stroke="#E53935" d="M22.5,20.06c2.62,0.57,5.66,0.45,8.4,0.1c13.22-1.66,33.35-3.51,46.35-4c2.87-0.11,5.44,0.02,8.25,0.6"/>
			<path id="kvg:s-s2" stroke="#FB8C00" d="M38,10.74c1.12,0.51,1.56,1.52,1.75,2.24c1.75,6.71,2.25,10.66,2.75,13.1"/>
			<path id="kvg:s-s3" stroke="#FDD835" d="M66.57,9.5c0.38,0.86,0.28,1.98-0.05,3.06c-1.56,5.12-1.98,7.12-3.76,12.24"/>
		</g>
		<g id="kvg:06155-g3">
			<g id="kvg:06155-g4">
				<path id="kvg:s-s4" stroke="#43A047" d="M32.27,31.21c0.64,0.64,1.11,1.54,1.4,2.74c0.77,3.15,1.79,9.62,2.48,13.02c0.26,1.29,0.59,3.02,0.75,3.6"/>
				<path id="kvg:s-s5" stroke="#1E88E5" d="M34.45,32.78c8.6-1.14,27.8-3.28,35.55-3.67c2.22-0.11,4.31,0.92,3.81,3.51c-0.58,2.93-1.97,8.11-2.95,11.98c-0.35,1.4-0.68,2.62-0.95,3.51"/>
				<path id="kvg:s-s6" stroke="#8E24AA" d="M36.17,40.63c7.83-0.88,28.08-2.88,35.33-3.15"/>
				<path id="kvg:s-s7" stroke="#EC407A" d="M37.83,48.84c8.8-0.59,22.24-2.07,31.38-2.34"/>
			</g>
			<g id="kvg:06155-g5">
				<path id="kvg:s-s8" stroke="#00ACC1" d="M15.38,62.55c3.08,0.82,6,0.64,9.13,0.35c14.03-1.3,42.65-3.25,58.87-4.3c2.86-0.18,6.38-0.02,9.12,0.92"/>
				<path id="kvg:s-s9" stroke="#795548" d="M47.91,50.93c0,1.19-0.14,2.25-0.66,3.18C39.88,67.25,31.38,76.5,14.25,87"/>
				<path id="kvg:s-s10" stroke="#546E7A" d="M59.25,56.1c5.7,1.47,16.5,13.02,27.44,20.49c2.24,1.53,4.56,3.16,6.81,4.31"/>
			</g>
		</g>
	</g>
	<g id="kvg:06155-g6">
		<path id="kvg:s-s11" stroke="#E53935" d="M48.38,70.35c0.91,0.91,1.37,2.29,1.37,3.77c0,6.27,0.03,16.62,0.03,20.83c0,7.81-5.64,1.13-6.81,0.19"/>
		<path id="kvg:s-s12" stroke="#FB8C00" d="M36.62,81.38c0,4.38-4.67,10.84-5.89,12.09"/>
		<path id="kvg:s-s13" stroke="#FDD835" d="M58.84,79.57c2.14,2.21,5.52,9.09,6.05,12.53"/>
		<path id="kvg:s-s14" stroke="#43A047" d="M73.28,80.53c2.84,2.2,7.59,9.3,8.3,12.73"/>
	</g>
</g>
</g>
<g id="kvg:StrokeNumbers_06155" style="font-size:18;font-weight:bold;stroke:#fff;stroke-width:1.5;paint-order:stroke">
	<text transform="matrix(1 0 0 1 15.75 19.63)" fill="#E53935">1</text>
	<text transform="matrix(1 0 0 1 29.25 10.63)" fill="#FB8C00">2</text>
	<text transform="matrix(1 0 0 1 56.25 9.13)" fill="#FDD835">3</text>
	<text transform="matrix(1 0 0 1 24.75 40.63)" fill="#43A047">4</text>
	<text transform="matrix(1 0 0 1 35.50 29.50)" fill="#1E88E5">5</text>
	<text transform="matrix(1 0 0 1 39.75 38.50)" fill="#8E24AA">6</text>
	<text transform="matrix(1 0 0 1 39.75 46.50)" fill="#EC407A">7</text>
	<text transform="matrix(1 0 0 1 8.25 63.13)" fill="#00ACC1">8</text>
	<text transform="matrix(1 0 0 1 39.50 56.50)" fill="#795548">9</text>
	<text transform="matrix(1 0 0 1 50.50 58.50)" fill="#546E7A">10</text>
	<text transform="matrix(1 0 0 1 40.50 75.50)" fill="#E53935">11</text>
	<text transform="matrix(1 0 0 1 28.50 83.50)" fill="#FB8C00">12</text>
	<text transform="matrix(1 0 0 1 54.50 77.50)" fill="#FDD835">13</text>
	<text transform="matrix(1 0 0 1 66.50 77.50)" fill="#43A047">14</text>
</g>
</svg>
