<?xml version="1.0" encoding="UTF-8"?>
<svg xmlns="http://www.w3.org/2000/svg" width="109" height="109" viewBox="0 0 109 109">
<g id="kvg:StrokePaths_0616e" style="fill:none;stroke:#000000;stroke-width:3;stroke-linecap:round;stroke-linejoin:round;">
<g id="kvg:0616e">
	<g id="kvg:0616e-g1">
		<path id="kvg:s-s1" stroke="#E53935" d="M52.44,9.83c0.78,0.77,1.39,1.66,1.39,4.19c0,4.92-0.02,6.84-0.02,10.98"/>
		<path id="kvg:s-s2" stroke="#FB8C00" d="M54.72,16.77c5.65-0.77,11.62-1.52,16.1-2.13c1.48-0.2,2.38-0.07,3.13,0.12"/>
		<path id="kvg:s-s3" stroke="#FDD835" d="M26.83,27.43c0.94,0.94,1.19,2.32,1.19,3.82c0,24-5.52,45.25-16.52,57.75"/>
		<path id="kvg:s-s4" stroke="#43A047" d="M28.66,28.74c2.09-0.24,3.1-0.46,4.89-0.72c12.21-1.77,35.8-4.27,46.69-4.43c11.48-0.17,2.43,6.16-0.43,8.28"/>
		<g id="kvg:0616e-g2">
			<g id="kvg:0616e-g3">
				<path id="kvg:s-s5" stroke="#1E88E5" d="M37.08,37.94c2.67,0.56,4.77,0.17,6.8-0.17c6.4-1.08,15.07-2.87,21.87-3.9c2.25-0.34,4.42-0.82,6.65-0.18"/>
			</g>
			<path id="kvg:s-s6" stroke="#8E24AA" d="M51.55,28.43c0.64,0.64,0.93,1.32,0.93,2.5c0,1.94-0.07,6.44-0.07,8.01c0,3.33,0.89,4.81,7.97,4.81c2.14,0,7.34-0.5,9.18-1.13"/>
		</g>
	</g>
	<g id="kvg:0616e-g4">
		<g id="kvg:0616e-g5">
			<path id="kvg:s-s7" stroke="#EC407A" d="M36.86,52.08c0.78,0.78,1.14,1.67,1.43,3.03c1.05,4.85,1.73,9.06,2.38,13.9c0.18,1.31,0.34,2.55,0.49,3.62"/>
			<path id="kvg:s-s8" stroke="#00ACC1" d="M38.28,52.8c11.5-0.74,27.47-2.54,35.97-3c4.26-0.23,6.03,0.72,5.17,5.22c-0.62,3.3-2.16,8.02-3.14,11.41c-0.42,1.45-0.84,2.86-1.24,4.18"/>
			<path id="kvg:s-s9" stroke="#795548" d="M56.19,52.87c0.78,0.78,0.94,1.85,0.94,3.38c-0.02,4.84,0.06,11.37,0.06,12.51"/>
			<path id="kvg:s-s10" stroke="#546E7A" d="M40.74,61.36c6.38-0.61,30.13-2.48,36.37-2.66"/>
			<path id="kvg:s-s11" stroke="#E53935" d="M42.08,71.1c8.26-0.83,24.55-2.08,32.06-2.32"/>
		</g>
		<g id="kvg:0616e-g6">
			<path id="kvg:s-s12" stroke="#FB8C00" d="M32.25,81.61c-0.5,3.52-3.71,9.51-6.67,12.44"/>
			<path id="kvg:s-s13" stroke="#FDD835" d="M44.65,81.63c4.97,8.25,18.3,15.61,38.13,14.09c8.98-0.69,9.09-2.47,1.46-6.13"/>
			<path id="kvg:s-s14" stroke="#43A047" d="M57.03,77.05c2.84,4.32,5.34,5.72,6.38,2.35"/>
			<path id="kvg:s-s15" stroke="#1E88E5" d="M81.97,73.58C85.25,75.5,90.25,79.88,93,83.9"/>
		</g>
	</g>
</g>
</g>
<g id="kvg:StrokeNumbers_0616e" style="font-size:18;font-weight:bold;stroke:#fff;stroke-width:1.5;paint-order:stroke">
	<text transform="matrix(1 0 0 1 45.25 11.25)" fill="#E53935">1</text>
	<text transform="matrix(1 0 0 1 58.25 13.38)" fill="#FB8C00">2</text>
	<text transform="matrix(1 0 0 1 20.25 37.25)" fill="#FDD835">3</text>
	<text transform="matrix(1 0 0 1 29.25 25.75)" fill="#43A047">4</text>
	<text transform="matrix(1 0 0 1 35.00 36.25)" fill="#1E88E5">5</text>
	<text transform="matrix(1 0 0 1 43.25 34.38)" fill="#8E24AA">6</text>
	<text transform="matrix(1 0 0 1 31.25 60.25)" fill="#EC407A">7</text>
	<text transform="matrix(1 0 0 1 41.00 50.25)" fill="#00ACC1">8</text>
	<text transform="matrix(1 0 0 1 61.25 57.83)" fill="#795548">9</text>
	<text transform="matrix(1 0 0 1 44.00 59.33)" fill="#546E7A">10</text>
	<text transform="matrix(1 0 0 1 44.25 69.25)" fill="#E53935">11</text>
	<text transform="matrix(1 0 0 1 23.25 82.25)" fill="#FB8C00">12</text>
	<text transform="matrix(1 0 0 1 37.25 90.25)" fill="#FDD835">13</text>
	<text transform="matrix(1 0 0 1 47.25 80.25)" fill="#43A047">14</text>
	<text transform="matrix(1 0 0 1 73.25 80.25)" fill="#1E88E5">15</text>
</g>
</svg>
