<?xml version="1.0" encoding="UTF-8"?>
<svg xmlns="http://www.w3.org/2000/svg" width="109" height="109" viewBox="0 0 109 109">
<g id="kvg:StrokePaths_06182" style="fill:none;stroke:#000000;stroke-width:3;stroke-linecap:round;stroke-linejoin:round;">
<g id="kvg:06182">
	<g id="kvg:06182-g1">
		<g id="kvg:06182-g2">
			<g id="kvg:06182-g3">
				<path id="kvg:s-s1" stroke="#E53935" d="M27.87,13.78c2.11,0.82,5.69,0.71,7.88,0.48c10.95-1.17,25.01-2.38,39.01-3.53c2.78-0.23,5.25-0.6,7.89-0.29"/>
			</g>
			<g id="kvg:06182-g4">
				<g id="kvg:06182-g5">
					<path id="kvg:s-s2" stroke="#FB8C00" d="M53.55,15.67c0.21,0.37,0.24,0.83,0.19,1.16c-0.2,1.36-1.5,4.05-3.05,6.42"/>
				</g>
				<g id="kvg:06182-g6">
					<path id="kvg:s-s3" stroke="#FDD835" d="M40.01,25.08c0.77,0.77,1.01,1.79,1.01,3.41c0,8.26-0.02,14.01-0.02,21.26"/>
					<path id="kvg:s-s4" stroke="#43A047" d="M42.07,26.42c4.26-0.58,18.96-2.53,24.57-3.15c2.74-0.3,4.29,0.09,4.29,3.1c-0.01,5.03-0.05,14.46-0.05,19.96"/>
					<path id="kvg:s-s5" stroke="#1E88E5" d="M42.5,34.21c6.75-0.46,22.74-2.61,27.09-2.61"/>
					<path id="kvg:s-s6" stroke="#8E24AA" d="M41.82,42.01c8.18-0.76,18.43-1.76,27.8-2.37"/>
				</g>
			</g>
		</g>
		<g id="kvg:06182-g7">
			<path id="kvg:s-s7" stroke="#EC407A" d="M21.08,50.69c0,3.29-2.81,12.35-4.08,14.55"/>
			<path id="kvg:s-s8" stroke="#00ACC1" d="M22.02,53.24C40.5,50.88,59,48.88,86.14,46.59c11.13-0.94,2.36,5.78-0.42,7.79"/>
		</g>
	</g>
	<g id="kvg:06182-g8">
		<g id="kvg:06182-g9">
			<path id="kvg:s-s9" stroke="#795548" d="M32.28,60.17c0.28,1.61-2.77,8.74-4.99,11.43"/>
			<path id="kvg:s-s10" stroke="#546E7A" d="M41.91,57.89C50.25,66.75,57.75,68.25,71,68.25c7,0,7.75-1.5,0.25-6"/>
			<path id="kvg:s-s11" stroke="#E53935" d="M54.82,55.25c2.61,5.36,4.71,5.13,5.42,1.86"/>
			<path id="kvg:s-s12" stroke="#FB8C00" d="M72.41,52.56c2.63,1.2,4.6,2.29,6.74,5.99"/>
		</g>
		<g id="kvg:06182-g10">
			<path id="kvg:s-s13" stroke="#FDD835" d="M48.82,69.25c0.15,1.19-0.45,2.11-1.27,3.02C43.75,76.5,35.75,84.75,23.5,91.25"/>
			<path id="kvg:s-s14" stroke="#43A047" d="M47.3,76.76c0.3,0.02,1.55,0,2.4-0.07c2.55-0.19,8.78-1.72,12.92-2.47c3.55-0.64,4.86,0.6,2.57,3.57c-5.39,7-20.4,18.35-36.68,22.7"/>
			<path id="kvg:s-s15" stroke="#1E88E5" d="M42.25,80.25c5.05,2.6,24.7,11.4,35.15,15.44c3.1,1.2,6.13,1.79,9.35,2.56"/>
		</g>
	</g>
</g>
</g>
<g id="kvg:StrokeNumbers_06182" style="font-size:18;font-weight:bold;stroke:#fff;stroke-width:1.5;paint-order:stroke">
	<text transform="matrix(1 0 0 1 22.25 14.25)" fill="#E53935">1</text>
	<text transform="matrix(1 0 0 1 46.25 20.88)" fill="#FB8C00">2</text>
	<text transform="matrix(1 0 0 1 33.25 33.25)" fill="#FDD835">3</text>
	<text transform="matrix(1 0 0 1 41.25 23.88)" fill="#43A047">4</text>
	<text transform="matrix(1 0 0 1 46.25 32.25)" fill="#1E88E5">5</text>
	<text transform="matrix(1 0 0 1 46.25 40.23)" fill="#8E24AA">6</text>
	<text transform="matrix(1 0 0 1 14.00 56.88)" fill="#EC407A">7</text>
	<text transform="matrix(1 0 0 1 26.00 49.38)" fill="#00ACC1">8</text>
	<text transform="matrix(1 0 0 1 26.00 62.80)" fill="#795548">9</text>
	<text transform="matrix(1 0 0 1 35.25 65.25)" fill="#546E7A">10</text>
	<text transform="matrix(1 0 0 1 47.25 58.25)" fill="#E53935">11</text>
	<text transform="matrix(1 0 0 1 63.50 56.25)" fill="#FB8C00">12</text>
	<text transform="matrix(1 0 0 1 34.25 76.25)" fill="#FDD835">13</text>
	<text transform="matrix(1 0 0 1 52.25 74.25)" fill="#43A047">14</text>
	<text transform="matrix(1 0 0 1 39.50 89.80)" fill="#1E88E5">15</text>
</g>
</svg>
