<?xml version="1.0" encoding="UTF-8"?>
<svg xmlns="http://www.w3.org/2000/svg" width="109" height="109" viewBox="0 0 109 109">
<g id="kvg:StrokePaths_061be" style="fill:none;stroke:#000000;stroke-width:3;stroke-linecap:round;stroke-linejoin:round;">
<g id="kvg:061be">
	<g id="kvg:061be-g1">
		<path id="kvg:s-s1" stroke="#E53935" d="M16.12,40.12c0,7.02-3.09,17.37-3.9,19.38"/>
		<path id="kvg:s-s2" stroke="#FB8C00" d="M33.25,34.5c2.31,2.2,5.98,9.04,6.56,12.47"/>
		<path id="kvg:s-s3" stroke="#FDD835" d="M24.62,13.75c0.88,0.88,1.21,2.38,1.21,3.75c0,0.7,0.02,55.38,0.03,74.25c0,3.54,0,5.81,0,6.25"/>
	</g>
	<g id="kvg:061be-g2">
		<g id="kvg:061be-g3">
			<g id="kvg:061be-g4">
				<g id="kvg:061be-g5">
					<path id="kvg:s-s4" stroke="#43A047" d="M46.65,31.23c0.75,0.75,1,1.9,0.93,3.31C47,46.5,46.88,59.62,39,71.03"/>
				</g>
				<g id="kvg:061be-g6">
					<g id="kvg:061be-g7">
						<g id="kvg:061be-g8">
							<path id="kvg:s-s5" stroke="#1E88E5" d="M43.71,30.33c2.29,0.54,4.79,0.35,6.91-0.09c7.12-1.49,16.88-3.62,26.79-5.31c2.2-0.38,4.72-0.78,6.91-0.32"/>
						</g>
					</g>
				</g>
				<g id="kvg:061be-g9">
					<path id="kvg:s-s6" stroke="#8E24AA" d="M50.02,43.52c1.35,0.11,2.78,0.07,3.54-0.17c3.18-0.97,6.18-1.72,8.99-2.57c1.27-0.38,2.7-0.27,3.36-0.11"/>
				</g>
			</g>
			<g id="kvg:061be-g10">
				<path id="kvg:s-s7" stroke="#EC407A" d="M49.04,53.74c0.67,0.67,1.21,1.4,1.33,2.18c0.68,2.13,1.4,5.14,1.97,8.31c0.2,1.12,0.39,2.27,0.55,3.41"/>
				<path id="kvg:s-s8" stroke="#00ACC1" d="M51.11,54.65c5.7-1.31,9.96-2.32,13.13-2.74c2.32-0.3,3.59-0.06,3.09,2.46c-0.52,2.64-0.65,3.97-1.62,7.88"/>
				<path id="kvg:s-s9" stroke="#795548" d="M53.73,65.3c4.52-0.8,6.05-1.02,9.76-1.66c1-0.17,2.07-0.34,3.22-0.5"/>
			</g>
			<g id="kvg:061be-g11">
				<g id="kvg:061be-g12">
					<g id="kvg:061be-g13">
						<path id="kvg:s-s10" stroke="#546E7A" d="M61.55,11.47c1.22,1.19,1.94,2.28,2.53,4.78C68.75,36,77.75,56.5,89.98,65.75c4.33,3.27,4.05,0.95,3.44-4.33"/>
					</g>
					<g id="kvg:061be-g14">
						<path id="kvg:s-s11" stroke="#E53935" d="M84.83,38.14c0.04,0.63,0.08,1.64-0.08,2.55c-0.92,5.37-6.02,17.6-13.25,24.82"/>
					</g>
					<g id="kvg:061be-g15">
						<g id="kvg:061be-g16">
							<path id="kvg:s-s12" stroke="#FB8C00" d="M75,11.75c2.41,1.23,6.27,4.03,7.4,6.14"/>
						</g>
					</g>
				</g>
			</g>
		</g>
		<g id="kvg:061be-g17">
			<path id="kvg:s-s13" stroke="#FDD835" d="M42,81.12c0.26,2.09-2.63,11.32-4.74,14.8"/>
			<path id="kvg:s-s14" stroke="#43A047" d="M51,80c7.88,13.25,17.75,18.25,32.25,18c11.22-0.19,8.25-3.75,2.99-7.05"/>
			<path id="kvg:s-s15" stroke="#1E88E5" d="M64.33,75.9c2.42,5.6,4.14,4.76,4.69,1.81"/>
			<path id="kvg:s-s16" stroke="#8E24AA" d="M85.38,75.25c4.07,3.15,6.68,6.22,9.88,11.36"/>
		</g>
	</g>
</g>
</g>
<g id="kvg:StrokeNumbers_061be" style="font-size:18;font-weight:bold;stroke:#fff;stroke-width:1.5;paint-order:stroke">
	<text transform="matrix(1 0 0 1 9.75 40.63)" fill="#E53935">1</text>
	<text transform="matrix(1 0 0 1 31.50 31.50)" fill="#FB8C00">2</text>
	<text transform="matrix(1 0 0 1 14.50 14.50)" fill="#FDD835">3</text>
	<text transform="matrix(1 0 0 1 40.50 39.50)" fill="#43A047">4</text>
	<text transform="matrix(1 0 0 1 46.50 27.50)" fill="#1E88E5">5</text>
	<text transform="matrix(1 0 0 1 52.50 40.50)" fill="#8E24AA">6</text>
	<text transform="matrix(1 0 0 1 45.75 67.63)" fill="#EC407A">7</text>
	<text transform="matrix(1 0 0 1 53.25 51.13)" fill="#00ACC1">8</text>
	<text transform="matrix(1 0 0 1 54.75 63.05)" fill="#795548">9</text>
	<text transform="matrix(1 0 0 1 48.75 11.50)" fill="#546E7A">10</text>
	<text transform="matrix(1 0 0 1 75.50 37.63)" fill="#E53935">11</text>
	<text transform="matrix(1 0 0 1 72.75 9.13)" fill="#FB8C00">12</text>
	<text transform="matrix(1 0 0 1 32.25 81.13)" fill="#FDD835">13</text>
	<text transform="matrix(1 0 0 1 45.75 92.50)" fill="#43A047">14</text>
	<text transform="matrix(1 0 0 1 54.75 78.13)" fill="#1E88E5">15</text>
	<text transform="matrix(1 0 0 1 75.50 78.13)" fill="#8E24AA">16</text>
</g>
</svg>
