<?xml version="1.0" encoding="UTF-8"?>
<svg xmlns="http://www.w3.org/2000/svg" width="109" height="109" viewBox="0 0 109 109">
<g id="kvg:StrokePaths_061c7" style="fill:none;stroke:#000000;stroke-width:3;stroke-linecap:round;stroke-linejoin:round;">
<g id="kvg:061c7">
	<g id="kvg:061c7-g1">
		<g id="kvg:061c7-g2">
			<path id="kvg:s-s1" stroke="#E53935" d="M39.91,13.5c-0.28,0.88-0.63,1.25-1.48,1.82c-5.03,3.37-11.12,5.89-23.89,8.71"/>
			<path id="kvg:s-s2" stroke="#FB8C00" d="M16.31,28.42c1.97,1.47,5.08,6.05,5.57,8.33"/>
			<path id="kvg:s-s3" stroke="#FDD835" d="M27.7,23.83c1.71,1.18,4.43,4.84,4.85,6.67"/>
			<path id="kvg:s-s4" stroke="#43A047" d="M45.53,23.42c-0.16,1.08-0.36,1.98-0.98,2.64c-6.93,7.44-15.69,14.36-28.31,19.97"/>
			<path id="kvg:s-s5" stroke="#1E88E5" d="M35.81,37.25c7.44,5.15,12.9,18.33,6.98,30.07c-3.45,6.84-6.88,1.1-7.77,0.5"/>
			<path id="kvg:s-s6" stroke="#8E24AA" d="M36.21,40.83c0.14,0.92-0.08,1.74-0.65,2.46C31.75,47.5,27,51.38,17.5,56.25"/>
			<path id="kvg:s-s7" stroke="#EC407A" d="M40.18,49.33c0.17,1.19-0.06,1.68-0.81,2.64c-3.3,4.21-10.74,10.92-21.01,15.95"/>
		</g>
		<g id="kvg:061c7-g3">
			<path id="kvg:s-s8" stroke="#00ACC1" d="M55.17,14.93c1.08,0.57,3.18,0.78,4.86,0.49c4.08-0.7,11.06-2.04,14.48-2.54c2.8-0.41,4.63,0.35,4.6,3.62C79.08,19.95,77.83,28,77,33.06c-0.33,2-0.63,3.57-0.83,4.27"/>
			<path id="kvg:s-s9" stroke="#795548" d="M57.75,27.47c6.25-1.22,15.32-2.89,19.54-3.24"/>
			<path id="kvg:s-s10" stroke="#546E7A" d="M57.87,38.52c6.63-1.02,10.9-1.94,17.46-2.6"/>
			<path id="kvg:s-s11" stroke="#E53935" d="M55.78,15.53c0.66,0.66,1.04,1.68,1.04,2.56c0,7.41-0.05,43.8-0.05,45.97c0,3.4,0.98,3.65,3.35,1.8c2.54-1.97,7.02-5.49,8.8-7.23"/>
			<path id="kvg:s-s12" stroke="#FB8C00" d="M87.58,34.93c-0.08,0.82-0.41,1.75-1.58,2.82c-3.26,2.98-8.85,6.22-12.17,8.17"/>
			<path id="kvg:s-s13" stroke="#FDD835" d="M63.05,40.68c3.12,0.49,15.47,12.56,22.05,17.76c2.16,1.71,4.15,3.06,7.18,4.43"/>
		</g>
	</g>
	<g id="kvg:061c7-g4">
		<path id="kvg:s-s14" stroke="#43A047" d="M21.65,80.57c0.3,2.21-2.95,11.98-5.32,15.67"/>
		<path id="kvg:s-s15" stroke="#1E88E5" d="M33.33,78.5c8.29,12,17.87,19.3,44.56,19.43c12.88,0.06,12.86-2.43,3.48-9.15"/>
		<path id="kvg:s-s16" stroke="#8E24AA" d="M52.91,73.75c1.81,5.25,3.95,10.75,5.88,2.71"/>
		<path id="kvg:s-s17" stroke="#EC407A" d="M78.63,69.73c4.37,2.64,8.74,6.64,11.35,11.36"/>
	</g>
</g>
</g>
<g id="kvg:StrokeNumbers_061c7" style="font-size:18;font-weight:bold;stroke:#fff;stroke-width:1.5;paint-order:stroke">
	<text transform="matrix(1 0 0 1 32.25 13.63)" fill="#E53935">1</text>
	<text transform="matrix(1 0 0 1 11.25 35.50)" fill="#FB8C00">2</text>
	<text transform="matrix(1 0 0 1 22.50 30.50)" fill="#FDD835">3</text>
	<text transform="matrix(1 0 0 1 36.75 25.63)" fill="#43A047">4</text>
	<text transform="matrix(1 0 0 1 42.75 40.63)" fill="#1E88E5">5</text>
	<text transform="matrix(1 0 0 1 25.50 48.50)" fill="#8E24AA">6</text>
	<text transform="matrix(1 0 0 1 28.50 58.50)" fill="#EC407A">7</text>
	<text transform="matrix(1 0 0 1 58.50 13.50)" fill="#00ACC1">8</text>
	<text transform="matrix(1 0 0 1 61.50 23.50)" fill="#795548">9</text>
	<text transform="matrix(1 0 0 1 61.50 34.98)" fill="#546E7A">10</text>
	<text transform="matrix(1 0 0 1 47.25 22.50)" fill="#E53935">11</text>
	<text transform="matrix(1 0 0 1 84.50 31.50)" fill="#FB8C00">12</text>
	<text transform="matrix(1 0 0 1 60.75 51.50)" fill="#FDD835">13</text>
	<text transform="matrix(1 0 0 1 11.50 81.13)" fill="#43A047">14</text>
	<text transform="matrix(1 0 0 1 26.50 88.50)" fill="#1E88E5">15</text>
	<text transform="matrix(1 0 0 1 43.50 79.50)" fill="#8E24AA">16</text>
	<text transform="matrix(1 0 0 1 70.50 76.50)" fill="#EC407A">17</text>
</g>
</svg>
