<?xml version="1.0" encoding="UTF-8"?>
<svg xmlns="http://www.w3.org/2000/svg" width="109" height="109" viewBox="0 0 109 109">
<g id="kvg:StrokePaths_06234" style="fill:none;stroke:#000000;stroke-width:3;stroke-linecap:round;stroke-linejoin:round;">
<g id="kvg:06234">
	<g id="kvg:06234-g1">
		<g id="kvg:06234-g2">
			<path id="kvg:s-s1" stroke="#E53935" d="M21.13,23.43c1.16,0.25,3.27,0.3,4.43,0.25c8.08-0.35,18.68-2.61,26.27-3.15c1.91-0.14,3.08,0.12,4.05,0.24"/>
			<path id="kvg:s-s2" stroke="#FB8C00" d="M37.42,10.12c0.12,0.29,1.77,1.52,1.77,3.39c0,12,0.14,4,0.14,19.86"/>
		</g>
		<g id="kvg:06234-g3">
			<g id="kvg:06234-g4">
				<path id="kvg:s-s3" stroke="#FDD835" d="M14.88,35.23c1.52,0.54,4.31,0.72,5.82,0.54c17.05-2.02,51.3-5.52,68.11-6.23c2.53-0.11,4.05,0.26,5.31,0.53"/>
			</g>
		</g>
	</g>
	<g id="kvg:06234-g5">
		<g id="kvg:06234-g6">
			<path id="kvg:s-s4" stroke="#43A047" d="M21.95,44.29c0.22,0.34,0.23,0.56,0.35,0.98c1,3.43,2.51,11.97,3.1,18.28"/>
			<path id="kvg:s-s5" stroke="#1E88E5" d="M23.32,45.44c8.68-1.19,24.75-3.89,30.68-4.22c2.18-0.12,2.56,1.83,2.44,2.75c-0.68,5.28-1.21,9.9-3.15,15.73"/>
			<path id="kvg:s-s6" stroke="#8E24AA" d="M38.3,43.85c0.35,0.45,0.89,1.25,0.89,2.37c0,4.47-0.16,8.31-0.16,13.28"/>
			<path id="kvg:s-s7" stroke="#EC407A" d="M24.73,53.41c2.58-0.17,27.78-3.62,29.92-3.62"/>
			<path id="kvg:s-s8" stroke="#00ACC1" d="M25.51,62.01c7.09-0.87,22.17-2.51,27.65-2.81"/>
		</g>
		<g id="kvg:06234-g7">
			<g id="kvg:06234-g8">
				<path id="kvg:s-s9" stroke="#795548" d="M22.53,74.16c0.62,0.18,1.75,0.26,2.36,0.18c2.49-0.34,24.84-3.8,30.7-3.8c1.03,0,1.64,0.08,2.16,0.17"/>
				<path id="kvg:s-s10" stroke="#546E7A" d="M31.17,66.43c0.43,0.18,0.75,0.79,0.78,1.15c0.3,4.67,1.66,8.55,1.65,13.06"/>
				<path id="kvg:s-s11" stroke="#E53935" d="M46.17,63.66c0.66,0.24,1.21,2.07,1.18,2.56c-0.35,6.58-0.56,8-1.11,13.58"/>
				<path id="kvg:s-s12" stroke="#FB8C00" d="M16.23,84.47c0.92,0.26,2.6,0.33,3.52,0.26c6-0.47,30.39-4.23,38.06-4.46c1.53-0.05,2.45,0.12,3.21,0.25"/>
			</g>
			<g id="kvg:06234-g9">
				<path id="kvg:s-s13" stroke="#FDD835" d="M32.87,88.92c0.03,0.27,0.07,0.7-0.07,1.09c-0.79,2.31-6.01,6.76-11.58,10.47"/>
				<path id="kvg:s-s14" stroke="#43A047" d="M44.29,87c3.95,1.89,10.21,7.78,11.2,10.72"/>
			</g>
		</g>
	</g>
	<g id="kvg:06234-g10">
		<g id="kvg:06234-g11">
			<g id="kvg:06234-g12">
				<path id="kvg:s-s15" stroke="#1E88E5" d="M63.25,8.5c1.27,1.93,2.11,2.47,2.47,6.61C68.5,47,76.5,80,91.35,96.58c4.37,4.88,4.28,0.83,3.65-7.71"/>
			</g>
			<g id="kvg:06234-g13">
				<path id="kvg:s-s16" stroke="#8E24AA" d="M86.23,43.89c0.08,1.14,0.26,2.97-0.16,4.59C83.42,58.88,75.75,80,59.81,92.97"/>
			</g>
			<g id="kvg:06234-g14">
				<g id="kvg:06234-g15">
					<path id="kvg:s-s17" stroke="#EC407A" d="M77.25,12.25c3.18,1.85,8.27,6.08,9.75,9.25"/>
				</g>
			</g>
		</g>
	</g>
</g>
</g>
<g id="kvg:StrokeNumbers_06234" style="font-size:18;font-weight:bold;stroke:#fff;stroke-width:1.5;paint-order:stroke">
	<text transform="matrix(1 0 0 1 15.50 24.50)" fill="#E53935">1</text>
	<text transform="matrix(1 0 0 1 28.50 9.55)" fill="#FB8C00">2</text>
	<text transform="matrix(1 0 0 1 7.50 36.50)" fill="#FDD835">3</text>
	<text transform="matrix(1 0 0 1 15.50 51.50)" fill="#43A047">4</text>
	<text transform="matrix(1 0 0 1 28.25 42.33)" fill="#1E88E5">5</text>
	<text transform="matrix(1 0 0 1 43.50 48.50)" fill="#8E24AA">6</text>
	<text transform="matrix(1 0 0 1 28.50 51.18)" fill="#EC407A">7</text>
	<text transform="matrix(1 0 0 1 29.50 59.10)" fill="#00ACC1">8</text>
	<text transform="matrix(1 0 0 1 15.25 75.50)" fill="#795548">9</text>
	<text transform="matrix(1 0 0 1 20.50 70.50)" fill="#546E7A">10</text>
	<text transform="matrix(1 0 0 1 37.25 67.88)" fill="#E53935">11</text>
	<text transform="matrix(1 0 0 1 6.50 85.50)" fill="#FB8C00">12</text>
	<text transform="matrix(1 0 0 1 19.50 93.50)" fill="#FDD835">13</text>
	<text transform="matrix(1 0 0 1 38.25 95.50)" fill="#43A047">14</text>
	<text transform="matrix(1 0 0 1 51.50 10.50)" fill="#1E88E5">15</text>
	<text transform="matrix(1 0 0 1 74.50 43.50)" fill="#8E24AA">16</text>
	<text transform="matrix(1 0 0 1 70.50 9.50)" fill="#EC407A">17</text>
</g>
</svg>
