<?xml version="1.0" encoding="UTF-8"?>
<svg xmlns="http://www.w3.org/2000/svg" width="109" height="109" viewBox="0 0 109 109">
<g id="kvg:StrokePaths_06247" style="fill:none;stroke:#000000;stroke-width:3;stroke-linecap:round;stroke-linejoin:round;">
<g id="kvg:06247">
	<g id="kvg:06247-g1">
		<path id="kvg:s-s1" stroke="#E53935" d="M27.38,18.36c2.62,0.51,5.36,0.41,7.62,0.12c10.43-1.34,24.25-3.85,37.88-4.41c2.73-0.11,5.56,0.18,8.25,0.77"/>
		<path id="kvg:s-s2" stroke="#FB8C00" d="M28.1,29.38c2.68,0.87,5.28,0.77,8.02,0.43c11.3-1.42,30.5-4.28,39.15-5.29c3.15-0.37,6.09-0.23,4.93,3.75c-0.86,2.95-1.58,5.79-2.7,8.48"/>
		<path id="kvg:s-s3" stroke="#FDD835" d="M31.75,42.75c1.07,0,26.6-3.38,41.26-4.9c2.43-0.25,4.57-0.46,6.24-0.6"/>
		<path id="kvg:s-s4" stroke="#43A047" d="M28.92,29.93c0.76,0.76,1.19,1.97,1.17,3.92C29.75,57.5,22.62,77.5,10.25,87.5"/>
	</g>
	<g id="kvg:06247-g2">
		<g id="kvg:06247-g3">
			<path id="kvg:s-s5" stroke="#1E88E5" d="M30.36,56.67c1.51,0.58,2.69,0.46,4.82,0.14c4.32-0.64,11.8-2.47,13.12-2.57c2.56-0.19,3.71,1.35,3.71,3.64C52,62.95,52,82.77,52,91.12c0,6.94-6.68,0.67-7.42,0.1"/>
			<path id="kvg:s-s6" stroke="#8E24AA" d="M33.24,64.53c2.5,0.85,6.45,3.48,7.07,4.79"/>
			<path id="kvg:s-s7" stroke="#EC407A" d="M29,82.86c1.24,1.14,2.53,1.12,3.77,0.15c0.73-0.57,6.37-5.18,9.48-7.94"/>
		</g>
		<g id="kvg:06247-g4">
			<path id="kvg:s-s8" stroke="#00ACC1" d="M58.07,51.87c2.31,0.63,3.94,0.8,5.97,0.45c4.52-0.77,14.38-2.67,17.99-3.44c2.98-0.63,4.84,0.75,4.84,4.37c0,7.63-0.12,30.58-0.12,38.25c0,8.52-6.17,1.29-6.91,0.73"/>
			<path id="kvg:s-s9" stroke="#795548" d="M61.38,63.12c3.19,1.31,8.25,5.37,9.04,7.4"/>
			<path id="kvg:s-s10" stroke="#546E7A" d="M61.71,84.55c0.91,0.82,2.15,0.71,3.34-0.02c0.79-0.49,7.61-5.03,10.3-7.26"/>
		</g>
	</g>
</g>
</g>
<g id="kvg:StrokeNumbers_06247" style="font-size:18;font-weight:bold;stroke:#fff;stroke-width:1.5;paint-order:stroke">
	<text transform="matrix(1 0 0 1 29.25 15.50)" fill="#E53935">1</text>
	<text transform="matrix(1 0 0 1 30.75 27.50)" fill="#FB8C00">2</text>
	<text transform="matrix(1 0 0 1 35.25 39.50)" fill="#FDD835">3</text>
	<text transform="matrix(1 0 0 1 21.75 37.40)" fill="#43A047">4</text>
	<text transform="matrix(1 0 0 1 33.75 53.50)" fill="#1E88E5">5</text>
	<text transform="matrix(1 0 0 1 27.50 71.75)" fill="#8E24AA">6</text>
	<text transform="matrix(1 0 0 1 21.75 86.50)" fill="#EC407A">7</text>
	<text transform="matrix(1 0 0 1 59.25 49.63)" fill="#00ACC1">8</text>
	<text transform="matrix(1 0 0 1 56.50 70.50)" fill="#795548">9</text>
	<text transform="matrix(1 0 0 1 55.50 81.50)" fill="#546E7A">10</text>
</g>
</svg>
