<?xml version="1.0" encoding="UTF-8"?>
<svg xmlns="http://www.w3.org/2000/svg" width="109" height="109" viewBox="0 0 109 109">
<g id="kvg:StrokePaths_06249" style="fill:none;stroke:#000000;stroke-width:3;stroke-linecap:round;stroke-linejoin:round;">
<g id="kvg:06249">
	<g id="kvg:06249-g1">
		<path id="kvg:s-s1" stroke="#E53935" d="M23.38,14.73c2.32,0.73,5.13,0.33,7.5,0.18c11.1-0.7,28.88-2.71,41.75-3.21c2.65-0.1,5.38-0.22,8,0.27"/>
		<path id="kvg:s-s2" stroke="#FB8C00" d="M22.35,29.13c2.56,0.83,4.75,0.81,7.4,0.52c12.86-1.39,39.32-3.27,46.25-3.9c1.99-0.18,4.07,1.27,3.25,4C78.5,32.25,78,34.5,77,38"/>
		<path id="kvg:s-s3" stroke="#FDD835" d="M25.75,43.5c9.75-0.75,30-2.88,46.52-4.21c2.95-0.24,5.38-0.29,6.98-0.29"/>
		<path id="kvg:s-s4" stroke="#43A047" d="M23.81,29.93c1.07,1.07,1.27,2.26,1.28,4.37c0.11,26.55-1.84,45.45-13.34,57.45"/>
	</g>
	<g id="kvg:06249-g2">
		<g id="kvg:06249-g3">
			<path id="kvg:s-s5" stroke="#1E88E5" d="M49.74,47.79c0.8,0.8,1.18,1.96,1.2,3.01C51.38,81.12,49.38,90,36.95,100"/>
			<path id="kvg:s-s6" stroke="#8E24AA" d="M30.85,57.6c1.28,0.53,2.57,0.79,3.54,0.75c2.61-0.1,10.74-1.47,15.6-2.07"/>
			<path id="kvg:s-s7" stroke="#EC407A" d="M31.78,70.05c1.22,0.45,3.33,0.66,4.29,0.5c0.96-0.16,11.5-1.66,14.06-2.14"/>
			<path id="kvg:s-s8" stroke="#00ACC1" d="M27.12,85.65c0.96,1.09,1.95,1.03,3.62,0.58c6.77-1.85,10.14-2.85,17.6-4.98"/>
		</g>
		<g id="kvg:06249-g4">
			<path id="kvg:s-s9" stroke="#795548" d="M63.45,46.25c1.02,1.02,1.25,2.12,1.25,3.29c0,0.5,0.05,27.39-0.05,41.96c-0.03,4.28,0,7.11-0.04,8"/>
			<path id="kvg:s-s10" stroke="#546E7A" d="M66.58,55.42c2.25-0.18,10.44-1.22,14.95-1.75c1.46-0.17,2.85-0.3,4.32-0.19"/>
			<path id="kvg:s-s11" stroke="#E53935" d="M66.32,68.25c2.25-0.18,10.49-1.08,14.83-1.65c1.45-0.19,3.06-0.21,4.51-0.21"/>
			<path id="kvg:s-s12" stroke="#FB8C00" d="M66.49,81.36c2.3-0.19,12.41-1.22,17.4-1.72c1.54-0.16,2.86-0.14,4.25,0.1"/>
		</g>
	</g>
</g>
</g>
<g id="kvg:StrokeNumbers_06249" style="font-size:18;font-weight:bold;stroke:#fff;stroke-width:1.5;paint-order:stroke">
	<text transform="matrix(1 0 0 1 26.25 11.50)" fill="#E53935">1</text>
	<text transform="matrix(1 0 0 1 26.25 26.50)" fill="#FB8C00">2</text>
	<text transform="matrix(1 0 0 1 30.75 40.48)" fill="#FDD835">3</text>
	<text transform="matrix(1 0 0 1 15.75 36.13)" fill="#43A047">4</text>
	<text transform="matrix(1 0 0 1 41.50 51.50)" fill="#1E88E5">5</text>
	<text transform="matrix(1 0 0 1 30.75 54.05)" fill="#8E24AA">6</text>
	<text transform="matrix(1 0 0 1 30.75 67.50)" fill="#EC407A">7</text>
	<text transform="matrix(1 0 0 1 21.75 93.50)" fill="#00ACC1">8</text>
	<text transform="matrix(1 0 0 1 56.25 52.50)" fill="#795548">9</text>
	<text transform="matrix(1 0 0 1 68.50 51.50)" fill="#546E7A">10</text>
	<text transform="matrix(1 0 0 1 68.76 64.55)" fill="#E53935">11</text>
	<text transform="matrix(1 0 0 1 68.57 77.98)" fill="#FB8C00">12</text>
</g>
</svg>
