<?xml version="1.0" encoding="UTF-8"?>
<svg xmlns="http://www.w3.org/2000/svg" width="109" height="109" viewBox="0 0 109 109">
<g id="kvg:StrokePaths_06276" style="fill:none;stroke:#000000;stroke-width:3;stroke-linecap:round;stroke-linejoin:round;">
<g id="kvg:06276">
	<g id="kvg:06276-g1">
		<path id="kvg:s-s1" stroke="#E53935" d="M12.25,37.92c2.04,0.25,3.94,0.46,6.03,0.1c4.85-0.84,12.72-2.52,19.23-3.98c1.21-0.27,2.49-0.54,3.91-0.29"/>
		<path id="kvg:s-s2" stroke="#FB8C00" d="M29.02,15.25c1.12,1.12,1.51,2.75,1.51,4.77c0,15.23-0.01,53.96-0.01,65.4c0,14.25-6.07,3.53-7.52,2"/>
		<path id="kvg:s-s3" stroke="#FDD835" d="M11.25,65.93c1.38,0.82,2.5,0.82,4.5-0.43c5.11-3.19,9.62-6.25,22-14.33"/>
	</g>
	<g id="kvg:06276-g2">
		<path id="kvg:s-s4" stroke="#43A047" d="M47.39,39.22c2,0.57,4.11,0.21,6.1-0.12c6.67-1.09,18.45-3.61,25-4.13c1.62-0.13,3.25-0.22,4.91,0.09"/>
		<g id="kvg:06276-g3">
			<path id="kvg:s-s5" stroke="#1E88E5" d="M42.65,58.23c2.7,0.69,5.42,0.41,8.1-0.09c10.25-1.89,26.63-3.93,35.37-4.81c2.06-0.21,4.75-0.36,6.75,0.33"/>
			<path id="kvg:s-s6" stroke="#8E24AA" d="M63.35,15.5c1.08,1.08,1.05,2.62,1.08,4.44C65.12,61,58.5,80.5,41,94"/>
			<path id="kvg:s-s7" stroke="#EC407A" d="M64.18,56.87c6.88,9.09,15.07,20.88,22.93,29.65c1.9,2.11,4.22,4.25,6.64,5.76"/>
		</g>
	</g>
</g>
</g>
<g id="kvg:StrokeNumbers_06276" style="font-size:18;font-weight:bold;stroke:#fff;stroke-width:1.5;paint-order:stroke">
	<text transform="matrix(1 0 0 1 5.50 39.50)" fill="#E53935">1</text>
	<text transform="matrix(1 0 0 1 19.50 16.63)" fill="#FB8C00">2</text>
	<text transform="matrix(1 0 0 1 3.75 69.50)" fill="#FDD835">3</text>
	<text transform="matrix(1 0 0 1 45.50 36.50)" fill="#43A047">4</text>
	<text transform="matrix(1 0 0 1 42.75 55.55)" fill="#1E88E5">5</text>
	<text transform="matrix(1 0 0 1 53.50 15.50)" fill="#8E24AA">6</text>
	<text transform="matrix(1 0 0 1 75.75 66.13)" fill="#EC407A">7</text>
</g>
</svg>
