<?xml version="1.0" encoding="UTF-8"?>
<svg xmlns="http://www.w3.org/2000/svg" width="109" height="109" viewBox="0 0 109 109">
<g id="kvg:StrokePaths_062b9" style="fill:none;stroke:#000000;stroke-width:3;stroke-linecap:round;stroke-linejoin:round;">
<g id="kvg:062b9">
	<g id="kvg:062b9-g1">
		<path id="kvg:s-s1" stroke="#E53935" d="M10.5,38.17c1.88,0.46,3.58,0.74,5.64,0.46c4.82-0.66,11.75-1.89,18.65-2.85c1.3-0.18,2.59-0.27,3.88-0.27"/>
		<path id="kvg:s-s2" stroke="#FB8C00" d="M26.77,13c1.05,1.05,1.76,3,1.76,5.52c0,15.23-0.01,57.96-0.01,69.4c0,14.25-5.82,4.03-7.27,2.5"/>
		<path id="kvg:s-s3" stroke="#FDD835" d="M12.5,64.93c1.1,1.1,2.07,1.19,4.25-0.18c7-4.38,10.75-6.38,20.75-12.75"/>
	</g>
	<g id="kvg:062b9-g2">
		<path id="kvg:s-s4" stroke="#43A047" d="M44.43,33.74c2.08,0.95,5.51,0.65,7.7,0.32c9-1.34,25.93-2.85,33.5-3.36c2.3-0.15,4.1-0.09,6.31,0.52"/>
		<g id="kvg:062b9-g3">
			<path id="kvg:s-s5" stroke="#1E88E5" d="M49.92,50.77c1.69,0.72,3.82,0.5,5.59,0.39c7.26-0.43,18.12-1.9,25.62-2.52c1.64-0.13,3.64-0.59,5.26-0.18"/>
			<path id="kvg:s-s6" stroke="#8E24AA" d="M65.55,12c1.16,1.16,1.4,2.5,1.4,4.11c0,0.68,0.03,50.54,0.02,71.14c0,5.23,0,8.58-0.01,8.75"/>
			<path id="kvg:s-s7" stroke="#EC407A" d="M65.16,50.8c0,1.7-0.78,3.72-1.92,5.69c-6.28,10.87-17,22.85-26.05,28.45"/>
			<path id="kvg:s-s8" stroke="#00ACC1" d="M67.59,51.31c3.37,3.79,15.05,19.54,21.01,26.21c1.44,1.61,3.27,3.61,5.46,4.81"/>
		</g>
	</g>
</g>
</g>
<g id="kvg:StrokeNumbers_062b9" style="font-size:18;font-weight:bold;stroke:#fff;stroke-width:1.5;paint-order:stroke">
	<text transform="matrix(1 0 0 1 4.50 39.50)" fill="#E53935">1</text>
	<text transform="matrix(1 0 0 1 18.50 13.63)" fill="#FB8C00">2</text>
	<text transform="matrix(1 0 0 1 5.50 70.50)" fill="#FDD835">3</text>
	<text transform="matrix(1 0 0 1 42.50 31.50)" fill="#43A047">4</text>
	<text transform="matrix(1 0 0 1 46.50 48.05)" fill="#1E88E5">5</text>
	<text transform="matrix(1 0 0 1 56.25 12.50)" fill="#8E24AA">6</text>
	<text transform="matrix(1 0 0 1 53.50 62.50)" fill="#EC407A">7</text>
	<text transform="matrix(1 0 0 1 78.50 61.63)" fill="#00ACC1">8</text>
</g>
</svg>
