<?xml version="1.0" encoding="UTF-8"?>
<svg xmlns="http://www.w3.org/2000/svg" width="109" height="109" viewBox="0 0 109 109">
<g id="kvg:StrokePaths_062bd" style="fill:none;stroke:#000000;stroke-width:3;stroke-linecap:round;stroke-linejoin:round;">
<g id="kvg:062bd">
	<g id="kvg:062bd-g1">
		<path id="kvg:s-s1" stroke="#E53935" d="M14.5,39.17c1.99,0.24,3.85,0.46,5.88,0.16c5.03-0.73,12.81-1.89,19.87-2.85c1.24-0.17,2.63-0.23,3.67-0.23"/>
		<path id="kvg:s-s2" stroke="#FB8C00" d="M30.77,16c1.12,1.12,1.51,2.49,1.51,5.52c0,15.23-0.01,53.46-0.01,64.9c0,14.25-6.32,3.53-7.77,2"/>
		<path id="kvg:s-s3" stroke="#FDD835" d="M14.25,69.43C15.5,70.5,16.88,70.38,19,69c5.06-3.27,8.12-5.38,20.25-13.33"/>
	</g>
	<g id="kvg:062bd-g2">
		<g id="kvg:062bd-g3">
			<path id="kvg:s-s4" stroke="#43A047" d="M49.71,46.24c0.9,0.9,1.54,2.38,1.75,4.19c1,8.66,2.07,21.54,2.92,34.56c0.16,2.49,0.31,5,0.45,7.51"/>
			<path id="kvg:s-s5" stroke="#1E88E5" d="M51.21,47.53C66,45.5,82.34,43.85,90.76,43.01c3.1-0.31,4.67,2.16,4.5,4.44c-0.53,7.12-1.34,24.62-2.93,36.34c-0.28,2.04-0.58,3.91-0.91,5.51"/>
		</g>
		<g id="kvg:062bd-g4">
			<path id="kvg:s-s6" stroke="#8E24AA" d="M70.61,15.32c1.1,1.1,1.42,2.18,1.42,4.49c0,14.64-0.03,62.53-0.03,66.35"/>
		</g>
		<g id="kvg:062bd-g5">
			<path id="kvg:s-s7" stroke="#EC407A" d="M54.31,67.3c8.31-1.05,28.56-3.05,38.83-3.58"/>
			<path id="kvg:s-s8" stroke="#00ACC1" d="M55.92,88.85c11.7-1.22,23.64-2.34,34.85-2.57"/>
		</g>
	</g>
</g>
</g>
<g id="kvg:StrokeNumbers_062bd" style="font-size:18;font-weight:bold;stroke:#fff;stroke-width:1.5;paint-order:stroke">
	<text transform="matrix(1 0 0 1 8.25 39.13)" fill="#E53935">1</text>
	<text transform="matrix(1 0 0 1 21.75 16.63)" fill="#FB8C00">2</text>
	<text transform="matrix(1 0 0 1 5.50 73.50)" fill="#FDD835">3</text>
	<text transform="matrix(1 0 0 1 44.50 58.50)" fill="#43A047">4</text>
	<text transform="matrix(1 0 0 1 52.50 43.50)" fill="#1E88E5">5</text>
	<text transform="matrix(1 0 0 1 59.25 15.50)" fill="#8E24AA">6</text>
	<text transform="matrix(1 0 0 1 57.50 63.05)" fill="#EC407A">7</text>
	<text transform="matrix(1 0 0 1 58.50 84.50)" fill="#00ACC1">8</text>
</g>
</svg>
