<?xml version="1.0" encoding="UTF-8"?>
<svg xmlns="http://www.w3.org/2000/svg" width="109" height="109" viewBox="0 0 109 109">
<g id="kvg:StrokePaths_062d3" style="fill:none;stroke:#000000;stroke-width:3;stroke-linecap:round;stroke-linejoin:round;">
<g id="kvg:062d3">
	<g id="kvg:062d3-g1">
		<path id="kvg:s-s1" stroke="#E53935" d="M15,38.42c1.89,0.23,3.68,0.46,5.61,0.23c4.75-0.56,12.68-1.65,19.51-2.56c1.52-0.2,3.01-0.34,4.54-0.34"/>
		<path id="kvg:s-s2" stroke="#FB8C00" d="M31.52,15c1.18,1.18,1.51,3,1.51,5.52c0,15.23-0.01,53.71-0.01,65.15c0,14.25-6.32,3.53-7.77,2"/>
		<path id="kvg:s-s3" stroke="#FDD835" d="M14.75,66.93c1,0.95,2.25,1.07,4.25-0.18c5.11-3.19,7.75-4.75,21.25-13.08"/>
	</g>
	<g id="kvg:062d3-g2">
		<path id="kvg:s-s4" stroke="#43A047" d="M48.66,32.76c2.59,0.49,4.81,0.29,6.97,0.09c11.02-0.99,22.15-2.91,33.62-3.45c2.29-0.11,4.61-0.28,6.86,0.24"/>
		<path id="kvg:s-s5" stroke="#1E88E5" d="M66.54,34.9c0.07,1.04-0.14,2.26-0.64,3.69c-2.78,8.03-12.15,28.15-24.63,40.91"/>
		<g id="kvg:062d3-g3">
			<path id="kvg:s-s6" stroke="#8E24AA" d="M56.6,62.62c0.92,0.93,1,2.18,1.14,3.39c0.55,4.87,1.19,11.96,1.92,20.23c0.16,1.88,0.33,3.81,0.51,5.77"/>
			<path id="kvg:s-s7" stroke="#EC407A" d="M58.35,63.87c9.15-1.25,23.15-2.75,29.31-3.17c2.23-0.15,3.57,1.76,3.23,3.47c-1.39,7.07-2.39,14.07-3.47,21.06"/>
			<path id="kvg:s-s8" stroke="#00ACC1" d="M60.84,88.73c5.04-0.48,15.11-1.6,23.16-2.22c2.04-0.16,3.93-0.27,5.56-0.3"/>
		</g>
	</g>
</g>
</g>
<g id="kvg:StrokeNumbers_062d3" style="font-size:18;font-weight:bold;stroke:#fff;stroke-width:1.5;paint-order:stroke">
	<text transform="matrix(1 0 0 1 8.50 39.13)" fill="#E53935">1</text>
	<text transform="matrix(1 0 0 1 23.25 15.50)" fill="#FB8C00">2</text>
	<text transform="matrix(1 0 0 1 6.50 70.50)" fill="#FDD835">3</text>
	<text transform="matrix(1 0 0 1 46.50 29.50)" fill="#43A047">4</text>
	<text transform="matrix(1 0 0 1 56.50 42.50)" fill="#1E88E5">5</text>
	<text transform="matrix(1 0 0 1 51.75 78.50)" fill="#8E24AA">6</text>
	<text transform="matrix(1 0 0 1 64.50 59.50)" fill="#EC407A">7</text>
	<text transform="matrix(1 0 0 1 65.50 85.50)" fill="#00ACC1">8</text>
</g>
</svg>
