<?xml version="1.0" encoding="UTF-8"?>
<svg xmlns="http://www.w3.org/2000/svg" width="109" height="109" viewBox="0 0 109 109">
<g id="kvg:StrokePaths_062d8" style="fill:none;stroke:#000000;stroke-width:3;stroke-linecap:round;stroke-linejoin:round;">
<g id="kvg:062d8">
	<g id="kvg:062d8-g1">
		<path id="kvg:s-s1" stroke="#E53935" d="M13,39.17c2.22,0.27,3.94,0.48,6.29,0.04c4.72-0.9,11.5-2.77,19-4.29c1.1-0.22,2.23-0.19,3.38-0.41"/>
		<path id="kvg:s-s2" stroke="#FB8C00" d="M29.77,14.5c1.24,1.24,1.51,2.88,1.51,5.02c0,15.23-0.01,54.46-0.01,65.9c0,14.25-6.32,3.53-7.77,2"/>
		<path id="kvg:s-s3" stroke="#FDD835" d="M12.57,67.47c0.99,0.63,2.79,0.69,4.11-0.23c4.08-2.86,9.08-6.73,20.33-14.82"/>
	</g>
	<g id="kvg:062d8-g2">
		<g id="kvg:062d8-g3">
			<g id="kvg:062d8-g4">
				<path id="kvg:s-s4" stroke="#43A047" d="M60.46,12.6c0.29,0.65,0.29,1.96-0.1,2.96c-2.73,7.06-8.61,17.44-17.89,27.6"/>
			</g>
			<path id="kvg:s-s5" stroke="#1E88E5" d="M53.9,34.1c2.72,0.4,4.69,0.22,6.73-0.17c6.73-1.27,21.71-4.06,27.35-4.99c3.66-0.6,6.07,0.46,6.05,4.51C94,46.25,90.25,74.75,82.82,91.38c-2.43,5.44-5.82,3.38-8.84-1.14"/>
		</g>
		<g id="kvg:062d8-g5">
			<path id="kvg:s-s6" stroke="#8E24AA" d="M49.61,51.15c0.86,0.88,1,1.69,1.23,2.86c0.6,2.98,1.21,7.98,1.93,12.7c0.37,2.43,0.69,4.66,0.9,6.28"/>
			<path id="kvg:s-s7" stroke="#EC407A" d="M51.55,52.4c6.95-1.54,13.47-2.88,17.85-3.5c3.18-0.45,4.35,0.21,3.77,3.47c-0.67,3.74-1.05,6.32-2.15,12.36"/>
			<path id="kvg:s-s8" stroke="#00ACC1" d="M54.48,68.35c3.99-0.42,9.78-1.64,15.55-2.43c1.51-0.21,2.72-0.29,4.18-0.32"/>
		</g>
	</g>
</g>
</g>
<g id="kvg:StrokeNumbers_062d8" style="font-size:18;font-weight:bold;stroke:#fff;stroke-width:1.5;paint-order:stroke">
	<text transform="matrix(1 0 0 1 6.75 39.13)" fill="#E53935">1</text>
	<text transform="matrix(1 0 0 1 21.75 13.63)" fill="#FB8C00">2</text>
	<text transform="matrix(1 0 0 1 5.50 72.50)" fill="#FDD835">3</text>
	<text transform="matrix(1 0 0 1 51.75 12.50)" fill="#43A047">4</text>
	<text transform="matrix(1 0 0 1 60.50 30.50)" fill="#1E88E5">5</text>
	<text transform="matrix(1 0 0 1 44.25 63.13)" fill="#8E24AA">6</text>
	<text transform="matrix(1 0 0 1 54.75 48.13)" fill="#EC407A">7</text>
	<text transform="matrix(1 0 0 1 57.50 64.55)" fill="#00ACC1">8</text>
</g>
</svg>
