<?xml version="1.0" encoding="UTF-8"?>
<svg xmlns="http://www.w3.org/2000/svg" width="109" height="109" viewBox="0 0 109 109">
<g id="kvg:StrokePaths_062db" style="fill:none;stroke:#000000;stroke-width:3;stroke-linecap:round;stroke-linejoin:round;">
<g id="kvg:062db">
	<g id="kvg:062db-g1">
		<path id="kvg:s-s1" stroke="#E53935" d="M13.75,37.17c2.08,0.25,4,0.44,6.13,0.13c5.36-0.77,14.23-1.76,21.34-2.97c1.15-0.2,2.4-0.2,3.45-0.07"/>
		<path id="kvg:s-s2" stroke="#FB8C00" d="M30.77,12.5c0.87,0.87,1.76,3,1.76,5.02c0,15.23-0.01,56.96-0.01,68.4c0,14.25-5.91,4.6-7.77,2.75"/>
		<path id="kvg:s-s3" stroke="#FDD835" d="M12.47,68.06c1.39,0.76,2.43,0.85,4.53-0.56c5-3.36,14-9.5,25.25-17.58"/>
	</g>
	<g id="kvg:062db-g2">
		<g id="kvg:062db-g3">
			<path id="kvg:s-s4" stroke="#43A047" d="M51.78,23.17c2.12,0.47,4.1,0.57,6.23,0.25c9.94-1.49,26.42-5.55,31.39-5.95c3.46-0.28,5.21,1.28,4.64,5.28c-0.92,6.38-3.54,17.19-8.7,25.49C81.75,54,79,49,76.76,46.28"/>
			<path id="kvg:s-s5" stroke="#1E88E5" d="M68.51,24.39c0.06,0.78,0.05,2.3-0.37,3.38C63.5,39.5,58.5,48.75,47.17,58.35"/>
		</g>
		<g id="kvg:062db-g4">
			<path id="kvg:s-s6" stroke="#8E24AA" d="M51.58,66.17c0.87,0.87,1.42,2.08,1.66,3.12c0.88,3.75,2.2,12.92,3.06,20.9c0.17,1.55,0.32,3.01,0.47,4.3"/>
			<path id="kvg:s-s7" stroke="#EC407A" d="M54.38,68.22c8.53-1.45,25.73-3.61,32.61-4.19c2.28-0.19,5.44,0.72,4.27,5.27c-1.29,5.05-3.51,12.8-4.9,19.94"/>
			<path id="kvg:s-s8" stroke="#00ACC1" d="M57.69,91.62c5.71-0.32,17.11-1.05,26.56-1.53c1.47-0.07,2.88-0.14,4.2-0.2"/>
		</g>
	</g>
</g>
</g>
<g id="kvg:StrokeNumbers_062db" style="font-size:18;fill:#E53935;font-weight:bold;stroke:#fff;stroke-width:1.5;paint-order:stroke">
	<text transform="matrix(1 0 0 1 8.25 37.50)" fill="#E53935">1</text>
	<text transform="matrix(1 0 0 1 23.25 12.50)" fill="#FB8C00">2</text>
	<text transform="matrix(1 0 0 1 6.50 75.50)" fill="#FDD835">3</text>
	<text transform="matrix(1 0 0 1 50.50 19.50)" fill="#43A047">4</text>
	<text transform="matrix(1 0 0 1 57.75 34.55)" fill="#1E88E5">5</text>
	<text transform="matrix(1 0 0 1 45.75 74.98)" fill="#8E24AA">6</text>
	<text transform="matrix(1 0 0 1 56.25 64.41)" fill="#EC407A">7</text>
	<text transform="matrix(1 0 0 1 60.75 88.50)" fill="#00ACC1">8</text>
</g>
</svg>
