<?xml version="1.0" encoding="UTF-8"?>
<svg xmlns="http://www.w3.org/2000/svg" width="109" height="109" viewBox="0 0 109 109">
<g id="kvg:StrokePaths_062d0" style="fill:none;stroke:#000000;stroke-width:3;stroke-linecap:round;stroke-linejoin:round;">
<g id="kvg:062d0">
	<g id="kvg:062d0-g1">
		<path id="kvg:s-s1" stroke="#E53935" d="M13.5,39.67c2.22,0.27,4.25,0.4,6.51,0.08c4.84-0.69,12.14-2.16,18.75-3.13c1.48-0.22,2.98-0.36,4.4-0.36"/>
		<path id="kvg:s-s2" stroke="#FB8C00" d="M29.77,15.5c1.05,1.05,1.51,2.88,1.51,5.27c0,15.23-0.01,53.21-0.01,64.65c0,14.25-6.32,3.53-7.77,2"/>
		<path id="kvg:s-s3" stroke="#FDD835" d="M13.54,66.96c1.21,0.79,2.61,0.44,4-0.5C23,62.75,29.5,58.58,40.75,50.5"/>
	</g>
	<g id="kvg:062d0-g2">
		<g id="kvg:062d0-g3">
			<path id="kvg:s-s4" stroke="#43A047" d="M50,20.39c0.87,0.87,1.37,1.59,1.51,2.7c1.62,7.67,2.57,13.21,3.17,17.21c0.21,1.42,0.4,2.75,0.57,3.95"/>
			<path id="kvg:s-s5" stroke="#1E88E5" d="M52.38,21.78c8.85-1.12,23.33-2.79,30.14-3.53c3.28-0.36,5.61-0.27,4.64,3.67c-1.17,4.76-2.59,11.06-4,16.63"/>
			<path id="kvg:s-s6" stroke="#8E24AA" d="M56.2,42.58c4.76-0.48,15.39-1.57,23.81-2.44c1.84-0.19,2.99-0.26,4.95-0.28"/>
		</g>
		<g id="kvg:062d0-g4">
			<path id="kvg:s-s7" stroke="#EC407A" d="M46.92,55.45c2.19,0.72,5.18,0.47,7.46,0.17c10.8-1.44,26.23-3.68,31.77-4.15c3.54-0.3,5.28,0.84,4.79,4.55c-1,7.61-5.7,28.49-10.72,35.13c-3.87,5.12-6.12,3.48-9.04,0.16"/>
			<path id="kvg:s-s8" stroke="#00ACC1" d="M64.96,57.1c0.07,0.8,0.32,2.13-0.14,3.21C59.75,72.12,54.5,82.62,40.75,92.25"/>
		</g>
	</g>
</g>
</g>
<g id="kvg:StrokeNumbers_062d0" style="font-size:18;font-weight:bold;stroke:#fff;stroke-width:1.5;paint-order:stroke">
	<text transform="matrix(1 0 0 1 6.75 39.13)" fill="#E53935">1</text>
	<text transform="matrix(1 0 0 1 21.75 16.63)" fill="#FB8C00">2</text>
	<text transform="matrix(1 0 0 1 5.50 70.50)" fill="#FDD835">3</text>
	<text transform="matrix(1 0 0 1 44.25 28.50)" fill="#43A047">4</text>
	<text transform="matrix(1 0 0 1 54.75 18.13)" fill="#1E88E5">5</text>
	<text transform="matrix(1 0 0 1 59.25 39.05)" fill="#8E24AA">6</text>
	<text transform="matrix(1 0 0 1 47.50 52.50)" fill="#EC407A">7</text>
	<text transform="matrix(1 0 0 1 55.50 65.90)" fill="#00ACC1">8</text>
</g>
</svg>
