<?xml version="1.0" encoding="UTF-8"?>
<svg xmlns="http://www.w3.org/2000/svg" width="109" height="109" viewBox="0 0 109 109">
<g id="kvg:StrokePaths_06301" style="fill:none;stroke:#000000;stroke-width:3;stroke-linecap:round;stroke-linejoin:round;">
<g id="kvg:06301">
	<g id="kvg:06301-g1">
		<path id="kvg:s-s1" stroke="#E53935" d="M15.67,37c1.46,0.5,3.09,0.44,5.08,0.25c2.19-0.21,12.99-2.13,19.01-2.92c1.19-0.16,2.19-0.25,2.9-0.25"/>
		<path id="kvg:s-s2" stroke="#FB8C00" d="M30.77,13.83c1.14,1.14,1.76,2.92,1.76,5.02c0,14.56-0.01,62.92-0.01,67.87c0,11.52-6.21,2.5-7.71,1.25"/>
		<path id="kvg:s-s3" stroke="#FDD835" d="M14.38,65.87c1.37,0.45,2.71,0.29,4.2-0.74c1.55-1.08,12.99-10.2,19.55-15.38"/>
	</g>
	<g id="kvg:06301-g2">
		<g id="kvg:06301-g3">
			<path id="kvg:s-s4" stroke="#43A047" d="M50.71,29.03c1.41,0.22,3.56,0.2,4.68,0.06c7.48-0.96,18.86-2.34,26.76-3.06c1.86-0.17,2.99,0.15,3.92,0.3"/>
			<path id="kvg:s-s5" stroke="#1E88E5" d="M66.95,11.62c0.78,0.78,1.36,1.99,1.36,3.5c0,8.26,0.02,26.13,0.02,28.6"/>
			<path id="kvg:s-s6" stroke="#8E24AA" d="M44.63,45.35c1.53,0.44,4.32,0.6,5.85,0.44c12.52-1.29,26.9-3.16,39.07-3.99c2.53-0.17,4.06,0.21,5.34,0.43"/>
		</g>
		<g id="kvg:06301-g4">
			<path id="kvg:s-s7" stroke="#EC407A" d="M44.57,60.99c1.77,0.46,5.01,0.64,6.79,0.46c10.26-1.07,27.3-3.2,37.82-3.89c2.93-0.19,4.72,0.22,6.19,0.44"/>
			<path id="kvg:s-s8" stroke="#00ACC1" d="M77.06,46.08c1.12,1.12,1.72,3.04,1.72,4.56c0,12.03-0.09,34.43-0.09,38.52c0,10.21-5.31,3.08-7.24,0.71"/>
			<path id="kvg:s-s9" stroke="#795548" d="M56.25,70.5c2.58,1.59,6.66,6.53,7.3,9"/>
		</g>
	</g>
</g>
</g>
<g id="kvg:StrokeNumbers_06301" style="font-size:18;fill:#E53935;font-weight:bold;stroke:#fff;stroke-width:1.5;paint-order:stroke">
	<text transform="matrix(1 0 0 1 9.50 39.13)" fill="#E53935">1</text>
	<text transform="matrix(1 0 0 1 21.50 15.50)" fill="#FB8C00">2</text>
	<text transform="matrix(1 0 0 1 6.75 69.50)" fill="#FDD835">3</text>
	<text transform="matrix(1 0 0 1 48.50 26.50)" fill="#43A047">4</text>
	<text transform="matrix(1 0 0 1 57.50 13.50)" fill="#1E88E5">5</text>
	<text transform="matrix(1 0 0 1 46.50 42.50)" fill="#8E24AA">6</text>
	<text transform="matrix(1 0 0 1 45.50 58.50)" fill="#EC407A">7</text>
	<text transform="matrix(1 0 0 1 71.50 54.13)" fill="#00ACC1">8</text>
	<text transform="matrix(1 0 0 1 48.50 72.50)" fill="#795548">9</text>
</g>
</svg>
