<?xml version="1.0" encoding="UTF-8"?>
<svg xmlns="http://www.w3.org/2000/svg" width="109" height="109" viewBox="0 0 109 109">
<g id="kvg:StrokePaths_06349" style="fill:none;stroke:#000000;stroke-width:3;stroke-linecap:round;stroke-linejoin:round;">
<g id="kvg:06349">
	<g id="kvg:06349-g1">
		<path id="kvg:s-s1" stroke="#E53935" d="M12.5,36.75c2.17,0.26,3.62,0.56,5.87,0.28c6.26-0.78,13.08-2.05,19.9-2.92c1.37-0.2,2.76-0.29,4.15-0.27"/>
		<path id="kvg:s-s2" stroke="#FB8C00" d="M29.52,15.08c1.08,1.08,1.26,2.54,1.26,4.27c0,14.56-0.01,60.94-0.01,65.9c0,14.25-6.07,4.03-7.52,2.5"/>
		<path id="kvg:s-s3" stroke="#FDD835" d="M12.25,65.16c1.5,0.97,2.61,0.7,4.4-0.36C26,59.25,28.62,57.62,39,51.5"/>
	</g>
	<g id="kvg:06349-g2">
		<g id="kvg:06349-g3">
			<path id="kvg:s-s4" stroke="#43A047" d="M47.92,20.17c0.77,0.77,1.17,1.88,1.28,2.54c0.99,5.93,1.66,10.38,2.49,16.05c0.26,1.78,0.54,3.68,0.84,5.79"/>
			<path id="kvg:s-s5" stroke="#1E88E5" d="M49.15,21.24c8.79-1.17,20.48-2.49,30.49-3.4c3.12-0.28,4.98,1.19,4.42,4.54c-0.83,5.11-2.4,10.25-3.84,16.92"/>
			<path id="kvg:s-s6" stroke="#8E24AA" d="M53.45,42.58c5.14-0.4,14.2-1.36,22.92-1.93c1.99-0.13,3.97-0.24,5.88-0.32"/>
		</g>
		<g id="kvg:06349-g4">
			<path id="kvg:s-s7" stroke="#EC407A" d="M65.45,44.84c0.98,0.98,1.27,2.29,1.27,3.56c0,6.53,0.02,28.6,0.02,34.85"/>
			<path id="kvg:s-s8" stroke="#00ACC1" d="M68.48,63.67C73.75,63.37,79.25,62.62,83.71,61.66C85.05,61.38,86.34,61.46,87.41,61.46"/>
			<path id="kvg:s-s9" stroke="#795548" d="M52.31,58.36c0,1.39-0.05,2.05-0.41,3.29C48.6,73.12,45.38,81.62,38,92.3"/>
			<path id="kvg:s-s10" stroke="#546E7A" d="M49.5,74.88c9.62,4.38,23.71,13.38,32.85,17.92c3.58,1.92,7.38,3.16,11.4,3.7"/>
		</g>
	</g>
</g>
</g>
<g id="kvg:StrokeNumbers_06349" style="font-size:18;font-weight:bold;stroke:#fff;stroke-width:1.5;paint-order:stroke">
	<text transform="matrix(1 0 0 1 5.50 37.50)" fill="#E53935">1</text>
	<text transform="matrix(1 0 0 1 20.50 14.50)" fill="#FB8C00">2</text>
	<text transform="matrix(1 0 0 1 3.50 66.50)" fill="#FDD835">3</text>
	<text transform="matrix(1 0 0 1 41.50 26.50)" fill="#43A047">4</text>
	<text transform="matrix(1 0 0 1 51.50 17.50)" fill="#1E88E5">5</text>
	<text transform="matrix(1 0 0 1 55.50 39.50)" fill="#8E24AA">6</text>
	<text transform="matrix(1 0 0 1 58.50 51.93)" fill="#EC407A">7</text>
	<text transform="matrix(1 0 0 1 70.50 60.50)" fill="#00ACC1">8</text>
	<text transform="matrix(1 0 0 1 43.50 59.50)" fill="#795548">9</text>
	<text transform="matrix(1 0 0 1 53.50 75.50)" fill="#546E7A">10</text>
</g>
</svg>
