<?xml version="1.0" encoding="UTF-8"?>
<svg xmlns="http://www.w3.org/2000/svg" width="109" height="109" viewBox="0 0 109 109">
<g id="kvg:StrokePaths_063a5" style="fill:none;stroke:#000000;stroke-width:3;stroke-linecap:round;stroke-linejoin:round;">
<g id="kvg:063a5">
	<g id="kvg:063a5-g1">
		<path id="kvg:s-s1" stroke="#E53935" d="M15.75,37.92c1.75,0.46,3.27,0.57,5.5,0.25c8-1.17,11.35-1.72,18.53-2.72c1.13-0.16,1.97-0.2,3.39-0.2"/>
		<path id="kvg:s-s2" stroke="#FB8C00" d="M31.52,15c1.18,1.18,1.76,3.12,1.76,5.52c0,15.23-0.01,51.96-0.01,63.4c0,14.25-6.32,3.53-7.77,2"/>
		<path id="kvg:s-s3" stroke="#FDD835" d="M13.12,65.65c1.39,0.63,2.77,0.6,4.16-0.38c4.92-3.44,12.11-7.92,23.46-15.77"/>
	</g>
	<g id="kvg:063a5-g2">
		<g id="kvg:063a5-g3">
			<g id="kvg:063a5-g4">
				<path id="kvg:s-s4" stroke="#43A047" d="M65.47,12.75c0.77,0.77,1.48,1.99,1.48,3.12c0,1.13,0,5.76,0,8.84"/>
				<path id="kvg:s-s5" stroke="#1E88E5" d="M48.5,27.3c1.44,0.4,3.52,0.46,5,0.27c7.37-0.94,21.52-2.75,28.74-3.27c1.69-0.12,3.35-0.2,5.03,0.08"/>
			</g>
			<g id="kvg:063a5-g5">
				<path id="kvg:s-s6" stroke="#8E24AA" d="M54.62,32.75c2.75,2.75,5.12,6.62,5.81,9.95"/>
				<path id="kvg:s-s7" stroke="#EC407A" d="M77.13,28.32c0.37,0.81,0.56,2.37,0.14,3.33c-1.64,3.72-3.96,9.04-5.23,11.52"/>
				<path id="kvg:s-s8" stroke="#00ACC1" d="M43.94,46.72c1.89,0.5,4.28,0.42,6.21,0.17C62,45.38,76.96,44.17,88,43.58c2.17-0.11,4.51-0.01,6.66,0.34"/>
			</g>
		</g>
		<g id="kvg:063a5-g6">
			<path id="kvg:s-s9" stroke="#795548" d="M63.82,49.24c0.37,1.07,0.25,2.48-0.18,3.76c-2.17,6.43-6.13,15.67-11.12,22.78c-0.73,1.04-0.19,1.86,0.56,1.87c9.46,0.08,18.85,3.05,27.5,8.75c3.16,2.08,6.18,4.52,9.02,7.32"/>
			<path id="kvg:s-s10" stroke="#546E7A" d="M79.75,58.38c0.37,1.37,0.22,3.07-0.19,4.34c-3.43,10.65-11.17,24.27-31.73,32.03"/>
			<path id="kvg:s-s11" stroke="#E53935" d="M41.79,65.28c1.73,0.65,4.68,0.52,6.47,0.3c11.86-1.45,26.54-2.81,40.11-3.25c2.45-0.08,5.38-0.2,7.71,0.44"/>
		</g>
	</g>
</g>
</g>
<g id="kvg:StrokeNumbers_063a5" style="font-size:18;fill:#E53935;font-weight:bold;stroke:#fff;stroke-width:1.5;paint-order:stroke">
	<text transform="matrix(1 0 0 1 8.50 39.50)" fill="#E53935">1</text>
	<text transform="matrix(1 0 0 1 22.50 15.50)" fill="#FB8C00">2</text>
	<text transform="matrix(1 0 0 1 5.25 68.50)" fill="#FDD835">3</text>
	<text transform="matrix(1 0 0 1 57.50 12.50)" fill="#43A047">4</text>
	<text transform="matrix(1 0 0 1 47.25 24.05)" fill="#1E88E5">5</text>
	<text transform="matrix(1 0 0 1 48.75 37.50)" fill="#8E24AA">6</text>
	<text transform="matrix(1 0 0 1 69.50 34.50)" fill="#EC407A">7</text>
	<text transform="matrix(1 0 0 1 43.50 44.50)" fill="#00ACC1">8</text>
	<text transform="matrix(1 0 0 1 55.50 55.50)" fill="#795548">9</text>
	<text transform="matrix(1 0 0 1 75.50 54.50)" fill="#546E7A">10</text>
	<text transform="matrix(1 0 0 1 39.50 62.50)" fill="#E53935">11</text>
</g>
</svg>
