<?xml version="1.0" encoding="UTF-8"?>
<svg xmlns="http://www.w3.org/2000/svg" width="109" height="109" viewBox="0 0 109 109">
<g id="kvg:StrokePaths_063a8" style="fill:none;stroke:#000000;stroke-width:3;stroke-linecap:round;stroke-linejoin:round;">
<g id="kvg:063a8">
	<g id="kvg:063a8-g1">
		<path id="kvg:s-s1" stroke="#E53935" d="M13.75,38.42c1.62,0.33,3.09,0.31,5.01,0.04c4.94-0.71,13.56-1.71,20.74-2.69c1.28-0.17,2.62-0.44,3.92-0.26"/>
		<path id="kvg:s-s2" stroke="#FB8C00" d="M29.52,17c1.05,1.05,1.76,2.62,1.76,5.02c0,15.23-0.01,51.46-0.01,62.9c0,12.83-4.35,5.17-7.27,2.25"/>
		<path id="kvg:s-s3" stroke="#FDD835" d="M13.67,66.16c1.38,0.62,2.19,1.34,4.08-0.16c6-4.75,11-9.25,19.5-16.08"/>
	</g>
	<g id="kvg:063a8-g2">
		<g id="kvg:063a8-g3">
			<path id="kvg:s-s4" stroke="#43A047" d="M57.85,17.85c0.4,1.9,0.2,3.25-0.31,4.72c-3.25,9.37-7.12,17.78-14.55,29.1"/>
			<path id="kvg:s-s5" stroke="#1E88E5" d="M51.73,38.04c0.74,0.74,0.75,1.61,0.75,2.96c-0.02,12.97-0.1,36.35-0.13,48c-0.01,2.83-0.01,5.06-0.01,6.45"/>
		</g>
		<path id="kvg:s-s6" stroke="#8E24AA" d="M78.97,16.44c0.28,0.94,0.03,2.06-0.29,2.79c-2.18,5.02-3.73,7.99-7.5,13.8"/>
		<path id="kvg:s-s7" stroke="#EC407A" d="M53.62,36.17c7.88-0.42,24.47-2.08,33.9-3.04c2.32-0.24,4.01-0.42,4.7-0.54"/>
		<path id="kvg:s-s8" stroke="#00ACC1" d="M71.64,36.39c1.11,1.11,1.45,2.61,1.45,4.45c0,6.28-0.05,41.28-0.05,47.22"/>
		<path id="kvg:s-s9" stroke="#795548" d="M53.78,53.48C60.62,53,76.26,51.69,85,50.8c2.36-0.24,4.09-0.43,4.79-0.53"/>
		<path id="kvg:s-s10" stroke="#546E7A" d="M53.57,70.86c6.25-0.53,22.47-1.93,31.72-2.72c2.74-0.23,4.76-0.42,5.56-0.51"/>
		<path id="kvg:s-s11" stroke="#E53935" d="M53.41,90.2c6.84-0.45,27.21-1.61,37.62-2.38c2.48-0.18,4.25-0.34,4.92-0.45"/>
	</g>
</g>
</g>
<g id="kvg:StrokeNumbers_063a8" style="font-size:18;fill:#E53935;font-weight:bold;stroke:#fff;stroke-width:1.5;paint-order:stroke">
	<text transform="matrix(1 0 0 1 6.75 40.63)" fill="#E53935">1</text>
	<text transform="matrix(1 0 0 1 21.75 17.50)" fill="#FB8C00">2</text>
	<text transform="matrix(1 0 0 1 5.50 68.50)" fill="#FDD835">3</text>
	<text transform="matrix(1 0 0 1 49.50 16.50)" fill="#43A047">4</text>
	<text transform="matrix(1 0 0 1 44.25 64.63)" fill="#1E88E5">5</text>
	<text transform="matrix(1 0 0 1 70.50 15.13)" fill="#8E24AA">6</text>
	<text transform="matrix(1 0 0 1 59.50 32.50)" fill="#EC407A">7</text>
	<text transform="matrix(1 0 0 1 65.50 44.50)" fill="#00ACC1">8</text>
	<text transform="matrix(1 0 0 1 56.50 49.50)" fill="#795548">9</text>
	<text transform="matrix(1 0 0 1 55.50 66.92)" fill="#546E7A">10</text>
	<text transform="matrix(1 0 0 1 55.76 86.35)" fill="#E53935">11</text>
</g>
</svg>
