<?xml version="1.0" encoding="UTF-8"?>
<svg xmlns="http://www.w3.org/2000/svg" width="109" height="109" viewBox="0 0 109 109">
<g id="kvg:StrokePaths_063cf" style="fill:none;stroke:#000000;stroke-width:3;stroke-linecap:round;stroke-linejoin:round;">
<g id="kvg:063cf">
	<g id="kvg:063cf-g1">
		<path id="kvg:s-s1" stroke="#E53935" d="M16.25,35.42c2.09,0.25,4.02,0.19,6.15-0.14c4.79-0.74,11.97-1.9,19.63-3.33c1.13-0.21,2.47-0.2,3.64-0.2"/>
		<path id="kvg:s-s2" stroke="#FB8C00" d="M32.02,15.25c0.99,0.99,1.51,2.25,1.51,4.52c0,15.23-0.01,53.71-0.01,65.15c0,14.25-6.32,3.53-7.77,2"/>
		<path id="kvg:s-s3" stroke="#FDD835" d="M14.5,66.43c1.16,1.16,2.38,0.95,4.5-0.43c6-3.88,10.38-6.5,22-13.83"/>
	</g>
	<g id="kvg:063cf-g2">
		<g id="kvg:063cf-g3">
			<path id="kvg:s-s4" stroke="#43A047" d="M44.32,38.64c2.68,0.61,5.28,0.52,7.82,0.17c11.64-1.58,25.67-3.66,37.72-4.48c2.34-0.16,4.8-0.17,7.13,0.32"/>
			<path id="kvg:s-s5" stroke="#1E88E5" d="M56.87,20.35c0.95,0.95,1.36,2.12,1.47,3.25c1.03,10.49,2.15,21.28,2.45,25.09"/>
			<path id="kvg:s-s6" stroke="#8E24AA" d="M83.36,17.5c0.64,1,0.64,2.12,0.4,3.75c-1.55,10.74-2.26,15.5-4.17,26.7"/>
		</g>
		<g id="kvg:063cf-g4">
			<path id="kvg:s-s7" stroke="#EC407A" d="M50,55.01c0.74,0.74,1.25,1.75,1.44,3.29c1.05,8.32,2.02,17.92,2.74,28.69c0.14,2.03,0.26,4,0.38,5.83"/>
			<path id="kvg:s-s8" stroke="#00ACC1" d="M52.6,57.69c11.32-1.58,27.1-3.04,35.29-3.85c3.41-0.34,5.86,0.33,5.5,4.18c-0.52,5.64-1.65,16.8-3.08,26.28c-0.31,2.05-0.63,4.02-0.97,5.84"/>
			<path id="kvg:s-s9" stroke="#795548" d="M70.41,57.78c0.84,0.84,1,1.79,1,2.82c0,7.9,0.01,21.04-0.03,27.03"/>
			<path id="kvg:s-s10" stroke="#546E7A" d="M54.12,73.13c11.63-1.5,28.25-3.25,37.05-3.8"/>
			<path id="kvg:s-s11" stroke="#E53935" d="M55.59,90.26c8.16-0.75,22.95-2.24,32.97-2.6"/>
		</g>
	</g>
</g>
</g>
<g id="kvg:StrokeNumbers_063cf" style="font-size:18;font-weight:bold;stroke:#fff;stroke-width:1.5;paint-order:stroke">
	<text transform="matrix(1 0 0 1 9.75 35.50)" fill="#E53935">1</text>
	<text transform="matrix(1 0 0 1 23.50 15.50)" fill="#FB8C00">2</text>
	<text transform="matrix(1 0 0 1 6.50 70.50)" fill="#FDD835">3</text>
	<text transform="matrix(1 0 0 1 48.50 35.50)" fill="#43A047">4</text>
	<text transform="matrix(1 0 0 1 47.50 20.50)" fill="#1E88E5">5</text>
	<text transform="matrix(1 0 0 1 74.50 17.50)" fill="#8E24AA">6</text>
	<text transform="matrix(1 0 0 1 44.25 64.63)" fill="#EC407A">7</text>
	<text transform="matrix(1 0 0 1 54.75 54.13)" fill="#00ACC1">8</text>
	<text transform="matrix(1 0 0 1 64.50 64.50)" fill="#795548">9</text>
	<text transform="matrix(1 0 0 1 55.50 69.50)" fill="#546E7A">10</text>
	<text transform="matrix(1 0 0 1 57.50 86.50)" fill="#E53935">11</text>
</g>
</svg>
