<?xml version="1.0" encoding="UTF-8"?>
<svg xmlns="http://www.w3.org/2000/svg" width="109" height="109" viewBox="0 0 109 109">
<g id="kvg:StrokePaths_063ee" style="fill:none;stroke:#000000;stroke-width:3;stroke-linecap:round;stroke-linejoin:round;">
<g id="kvg:063ee">
	<g id="kvg:063ee-g1">
		<path id="kvg:s-s1" stroke="#E53935" d="M13.5,39.42c1.99,0.24,3.84,0.45,5.87,0.18c4.7-0.63,11.66-2.21,18.4-3.17c1.04-0.15,1.99-0.3,3.15-0.18"/>
		<path id="kvg:s-s2" stroke="#FB8C00" d="M29.77,15.5c0.99,0.99,1.51,2.5,1.51,4.52c0,15.23-0.01,53.96-0.01,65.4c0,13.33-6.39,3.21-7.27,2"/>
		<path id="kvg:s-s3" stroke="#FDD835" d="M13,66.93c1.12,0.7,2.42,0.77,3.75-0.18c5.62-4,9.5-6.88,21.5-16.08"/>
	</g>
	<g id="kvg:063ee-g2">
		<g id="kvg:063ee-g3">
			<path id="kvg:s-s4" stroke="#43A047" d="M46.5,17.88c-0.09,3.01-2.32,10.89-3.12,12.68"/>
			<path id="kvg:s-s5" stroke="#1E88E5" d="M47.24,19.5c9.13-1.38,28.74-4.16,39.17-4.63c7.92-0.36,1.59,5.87-0.24,7.3"/>
		</g>
		<g id="kvg:063ee-g4">
			<path id="kvg:s-s6" stroke="#8E24AA" d="M48.82,34.5c1.93,0.38,4,0.25,5.58,0.03c7.06-0.98,17.86-2.97,25.49-3.69c1.68-0.16,3.37-0.34,4.93-0.07"/>
			<path id="kvg:s-s7" stroke="#EC407A" d="M47.55,44.07c0.58,0.46,1.32,2.31,1.43,2.92c0.69,3.86,1.5,11.63,2.44,18.99c0.13,1.05,0.27,2.09,0.41,3.13"/>
			<path id="kvg:s-s8" stroke="#00ACC1" d="M49.79,45.74c8.69-0.87,26.73-4.02,33.04-4.16c2.95-0.07,3.52,1.76,3.18,4.08c-0.75,5.14-1.38,9.99-2.86,16.13c-0.3,1.25-0.61,2.49-0.92,3.7"/>
			<path id="kvg:s-s9" stroke="#795548" d="M51.37,55.49c7.5-0.87,21.88-2.87,32.41-3.69"/>
			<path id="kvg:s-s10" stroke="#546E7A" d="M52.87,66.74c7.75-0.92,17.63-2.74,28.61-3.17"/>
			<path id="kvg:s-s11" stroke="#E53935" d="M40.93,78.15c2.82,0.73,5.12,0.59,7.45,0.38c16.92-1.52,24.95-2.98,42-3.71c2.16-0.09,4.12-0.14,6.2,0.54"/>
			<path id="kvg:s-s12" stroke="#FB8C00" d="M65.09,21.31c0.99,0.99,1.6,2.69,1.6,4.38C66.69,29.38,66.8,83,66.8,94c0,2.58-0.03,4.46-0.05,5.38"/>
		</g>
	</g>
</g>
</g>
<g id="kvg:StrokeNumbers_063ee" style="font-size:18;fill:#E53935;font-weight:bold;stroke:#fff;stroke-width:1.5;paint-order:stroke">
	<text transform="matrix(1 0 0 1 7.50 41.50)" fill="#E53935">1</text>
	<text transform="matrix(1 0 0 1 21.75 16.50)" fill="#FB8C00">2</text>
	<text transform="matrix(1 0 0 1 5.50 70.50)" fill="#FDD835">3</text>
	<text transform="matrix(1 0 0 1 39.50 19.50)" fill="#43A047">4</text>
	<text transform="matrix(1 0 0 1 49.50 16.50)" fill="#1E88E5">5</text>
	<text transform="matrix(1 0 0 1 50.25 31.55)" fill="#8E24AA">6</text>
	<text transform="matrix(1 0 0 1 42.75 55.50)" fill="#EC407A">7</text>
	<text transform="matrix(1 0 0 1 50.50 43.50)" fill="#00ACC1">8</text>
	<text transform="matrix(1 0 0 1 54.50 52.50)" fill="#795548">9</text>
	<text transform="matrix(1 0 0 1 54.50 63.50)" fill="#546E7A">10</text>
	<text transform="matrix(1 0 0 1 38.50 75.50)" fill="#E53935">11</text>
	<text transform="matrix(1 0 0 1 55.25 26.50)" fill="#FB8C00">12</text>
</g>
</svg>
