<?xml version="1.0" encoding="UTF-8"?>
<svg xmlns="http://www.w3.org/2000/svg" width="109" height="109" viewBox="0 0 109 109">
<g id="kvg:StrokePaths_063fa" style="fill:none;stroke:#000000;stroke-width:3;stroke-linecap:round;stroke-linejoin:round;">
<g id="kvg:063fa">
	<g id="kvg:063fa-g1">
		<path id="kvg:s-s1" stroke="#E53935" d="M11.75,38.17c2.04,0.25,3.93,0.47,6.02,0.08c5.17-0.98,13.46-2.77,20.62-4.02c1.59-0.28,3.18-0.52,4.78-0.73"/>
		<path id="kvg:s-s2" stroke="#FB8C00" d="M28.02,14.25c0.99,0.99,1.51,2.75,1.51,4.77c0,15.23,0.24,55.71,0.24,67.15c0,14.25-6.32,3.53-7.77,2"/>
		<path id="kvg:s-s3" stroke="#FDD835" d="M11,66.68c1.5,1.07,2.9,0.7,4.84-0.63C21.75,62,27.75,57.75,39,49.67"/>
	</g>
	<g id="kvg:063fa-g2">
		<g id="kvg:063fa-g3">
			<path id="kvg:s-s4" stroke="#43A047" d="M83.47,13.14c-0.22,0.98-0.73,1.74-1.57,2.28c-5.03,3.21-14.66,7.46-31.27,11.84"/>
			<path id="kvg:s-s5" stroke="#1E88E5" d="M50.02,33.49c2.12,2.07,5.48,8.51,6.02,11.73"/>
			<path id="kvg:s-s6" stroke="#8E24AA" d="M64.37,29.99c2.06,2.06,5.33,8.49,5.84,11.7"/>
			<path id="kvg:s-s7" stroke="#EC407A" d="M91.27,25.71c0.07,0.81,0.02,1.39-0.31,2.14c-1.66,3.8-4.75,8.81-10.15,14.24"/>
		</g>
		<g id="kvg:063fa-g4">
			<path id="kvg:s-s8" stroke="#00ACC1" d="M50,52.88c2.12,0.87,5.18,0.73,7.39,0.49c8.05-0.88,17.26-2.1,24.73-3.14c2.12-0.29,4.63-0.73,6.66-0.38"/>
			<path id="kvg:s-s9" stroke="#795548" d="M43.15,68.02c2.55,0.91,5.75,0.32,8.36,0.04C63.62,66.75,76.75,65,89,64.22c2.61-0.17,5.27-0.28,7.85,0.27"/>
			<g id="kvg:063fa-g5">
				<path id="kvg:s-s10" stroke="#546E7A" d="M68.73,55.07c0.85,0.85,1.17,1.92,1.17,3.24c0,4.66,0.08,24.32,0.08,30.35"/>
				<path id="kvg:s-s11" stroke="#E53935" d="M50.79,77.54c0.77,0.77,0.68,1.91,0.56,2.54c-0.61,3.42-0.61,5.67-1.5,9.76c-0.52,2.37,0.28,2.75,2.4,2.34c10.62-2.05,23.87-3.43,36.73-4.12"/>
				<path id="kvg:s-s12" stroke="#FB8C00" d="M89.98,75.24c0.76,0.76,1.14,1.76,1.07,3.24c-0.13,2.52-0.47,6.68-0.68,10.27c-0.15,2.5-0.26,4.61-0.26,5.38"/>
			</g>
		</g>
	</g>
</g>
</g>
<g id="kvg:StrokeNumbers_063fa" style="font-size:18;font-weight:bold;stroke:#fff;stroke-width:1.5;paint-order:stroke">
	<text transform="matrix(1 0 0 1 5.00 38.88)" fill="#E53935">1</text>
	<text transform="matrix(1 0 0 1 18.50 14.88)" fill="#FB8C00">2</text>
	<text transform="matrix(1 0 0 1 5.00 73.38)" fill="#FDD835">3</text>
	<text transform="matrix(1 0 0 1 72.50 13.38)" fill="#43A047">4</text>
	<text transform="matrix(1 0 0 1 45.25 41.25)" fill="#1E88E5">5</text>
	<text transform="matrix(1 0 0 1 59.25 36.25)" fill="#8E24AA">6</text>
	<text transform="matrix(1 0 0 1 82.25 29.25)" fill="#EC407A">7</text>
	<text transform="matrix(1 0 0 1 42.50 53.88)" fill="#00ACC1">8</text>
	<text transform="matrix(1 0 0 1 36.25 68.25)" fill="#795548">9</text>
	<text transform="matrix(1 0 0 1 59.00 62.25)" fill="#546E7A">10</text>
	<text transform="matrix(1 0 0 1 40.25 78.25)" fill="#E53935">11</text>
	<text transform="matrix(1 0 0 1 78.50 75.25)" fill="#FB8C00">12</text>
</g>
</svg>
