<?xml version="1.0" encoding="UTF-8"?>
<svg xmlns="http://www.w3.org/2000/svg" width="109" height="109" viewBox="0 0 109 109">
<g id="kvg:StrokePaths_0643a" style="fill:none;stroke:#000000;stroke-width:3;stroke-linecap:round;stroke-linejoin:round;">
<g id="kvg:0643a">
	<g id="kvg:0643a-g1">
		<path id="kvg:s-s1" stroke="#E53935" d="M15,39.67c1.94,0.23,3.76,0.48,5.75,0.17c4.58-0.72,11.41-1.82,18.51-3.29c0.86-0.18,1.74-0.3,2.66-0.3"/>
		<path id="kvg:s-s2" stroke="#FB8C00" d="M31.77,15.75c0.99,0.99,1.51,3,1.51,5.27c0,15.23-0.01,53.21-0.01,64.65c0,14.25-6.32,3.53-7.77,2"/>
		<path id="kvg:s-s3" stroke="#FDD835" d="M14.07,67.06c1.02,0.88,2.59,0.7,3.96-0.27c4.84-3.41,9.47-6.79,20.72-14.87"/>
	</g>
	<g id="kvg:0643a-g2">
		<g id="kvg:0643a-g3">
			<g id="kvg:0643a-g4">
				<path id="kvg:s-s4" stroke="#43A047" d="M56.33,14.43c0.14,1.19-0.01,2.27-0.42,3.34c-2.65,6.79-6.53,12.88-12.67,21.4"/>
				<path id="kvg:s-s5" stroke="#1E88E5" d="M51.02,28.45c0.58,0.58,0.57,1.12,0.57,2.3c0,6.97-0.03,17.27-0.05,23.51c0,1.6-0.01,2.93-0.01,3.87"/>
			</g>
			<path id="kvg:s-s6" stroke="#8E24AA" d="M74.26,12.9c0.05,0.44,0,1.04-0.14,1.43c-0.92,2.5-2.1,4.45-4.25,7.55"/>
			<path id="kvg:s-s7" stroke="#EC407A" d="M52.94,26.11c5.33-0.76,20.34-2.29,29.3-3.47c2.99-0.4,5.2-0.7,5.96-0.82"/>
			<path id="kvg:s-s8" stroke="#00ACC1" d="M68.87,26.29c0.73,0.73,0.89,1.84,0.89,3.02c0,4.82,0.15,16.3,0.07,23.38"/>
			<path id="kvg:s-s9" stroke="#795548" d="M52.36,36.06c6.77-0.56,19.96-2.05,27.62-3.06c2.2-0.29,3.81-0.51,4.45-0.6"/>
			<path id="kvg:s-s10" stroke="#546E7A" d="M52.46,45.22c5.34-0.61,19.33-2.04,27.29-2.89c1.77-0.19,3.54-0.35,5.31-0.59"/>
			<path id="kvg:s-s11" stroke="#E53935" d="M52.35,55.12c6.53-0.46,23.24-2.02,33.04-3.02c2.13-0.22,4.29-0.36,6.41-0.72"/>
		</g>
		<g id="kvg:0643a-g5">
			<g id="kvg:0643a-g6">
				<path id="kvg:s-s12" stroke="#FB8C00" d="M61.2,66.91c0.33,0.6,0.32,2.1-0.08,3.02c-3.24,7.45-8.62,18.45-20.05,25.8"/>
			</g>
			<path id="kvg:s-s13" stroke="#FDD835" d="M46,64.8c1.67,0.65,3.54,0.64,5.26,0.46c7.58-0.82,19.7-3.19,26.74-4.14c2.04-0.28,4.12,0.02,2.89,2.47c-6.87,13.54-10.9,10.99,8.36,8.64c2.82-0.35,3.24,0.61,2.38,3.12c-2.17,6.32-4.84,15.31-9.87,20.25c-3.21,3.16-5.61,0.54-6.74-1.27"/>
		</g>
	</g>
</g>
</g>
<g id="kvg:StrokeNumbers_0643a" style="font-size:18;font-weight:bold;stroke:#fff;stroke-width:1.5;paint-order:stroke">
	<text transform="matrix(1 0 0 1 8.25 39.13)" fill="#E53935">1</text>
	<text transform="matrix(1 0 0 1 22.50 16.50)" fill="#FB8C00">2</text>
	<text transform="matrix(1 0 0 1 6.75 71.50)" fill="#FDD835">3</text>
	<text transform="matrix(1 0 0 1 48.50 14.50)" fill="#43A047">4</text>
	<text transform="matrix(1 0 0 1 45.50 44.50)" fill="#1E88E5">5</text>
	<text transform="matrix(1 0 0 1 65.50 11.50)" fill="#8E24AA">6</text>
	<text transform="matrix(1 0 0 1 61.50 22.55)" fill="#EC407A">7</text>
	<text transform="matrix(1 0 0 1 73.50 30.50)" fill="#00ACC1">8</text>
	<text transform="matrix(1 0 0 1 56.25 33.50)" fill="#795548">9</text>
	<text transform="matrix(1 0 0 1 56.25 42.50)" fill="#546E7A">10</text>
	<text transform="matrix(1 0 0 1 56.25 52.25)" fill="#E53935">11</text>
	<text transform="matrix(1 0 0 1 47.50 75.50)" fill="#FB8C00">12</text>
	<text transform="matrix(1 0 0 1 41.50 61.63)" fill="#FDD835">13</text>
</g>
</svg>
