<?xml version="1.0" encoding="UTF-8"?>
<svg xmlns="http://www.w3.org/2000/svg" width="109" height="109" viewBox="0 0 109 109">
<g id="kvg:StrokePaths_06442" style="fill:none;stroke:#000000;stroke-width:3;stroke-linecap:round;stroke-linejoin:round;">
<g id="kvg:06442">
	<g id="kvg:06442-g1">
		<path id="kvg:s-s1" stroke="#E53935" d="M10.25,36.92c2.12,0.46,3.99,0.69,6.12,0.37c5.02-0.75,13.23-2.47,19.94-3.5c1.29-0.2,2.45-0.54,3.86-0.29"/>
		<path id="kvg:s-s2" stroke="#FB8C00" d="M28.27,14.25c1.05,1.05,1.26,2.75,1.26,4.77c0,15.23-0.01,55.96-0.01,67.4c0,14.25-6.07,3.53-7.52,2"/>
		<path id="kvg:s-s3" stroke="#FDD835" d="M12.15,67.13c1.04,0.84,2.57,1.09,3.95,0.13C22.25,63,26,60.5,37.25,52.42"/>
	</g>
	<g id="kvg:06442-g2">
		<g id="kvg:06442-g3">
			<g id="kvg:06442-g4">
				<path id="kvg:s-s4" stroke="#43A047" d="M46.24,20.2c2.51,0.55,4.95,0.15,7.01-0.16c11.87-1.78,23.18-3.58,33.84-4.71c2.06-0.22,4.24-0.19,6.25,0.28"/>
				<path id="kvg:s-s5" stroke="#1E88E5" d="M55.84,21.79c1,1,1.38,2.46,1.38,3.64c0,2.28,0.02,19.12,0.02,27.3"/>
				<path id="kvg:s-s6" stroke="#8E24AA" d="M58.5,30.75c5.6-0.79,16.75-2.34,23.01-2.91"/>
				<path id="kvg:s-s7" stroke="#EC407A" d="M58.62,41.86c5.96-0.93,15.28-2.38,22.83-3.22"/>
				<path id="kvg:s-s8" stroke="#00ACC1" d="M45.9,54.49c0.37,0.53,2.04,1.28,3.33,1.06c5.17-0.88,34.74-6.42,42.69-7.83"/>
				<path id="kvg:s-s9" stroke="#795548" d="M81.24,18.96c1.09,1.09,1.51,2.65,1.51,4.57c0,1.06-0.07,14.97-0.07,24.84c0,5.26-0.03,9.51-0.03,10.38"/>
			</g>
		</g>
		<g id="kvg:06442-g5">
			<g id="kvg:06442-g6">
				<g id="kvg:06442-g7">
					<path id="kvg:s-s10" stroke="#546E7A" d="M51,66c3.88,1.59,10.03,6.53,11,9"/>
				</g>
				<g id="kvg:06442-g8">
					<path id="kvg:s-s11" stroke="#E53935" d="M45.01,93.31c1.27,0.81,2.67,0.65,4-0.47C49.96,92.05,57,87,62.5,82.25"/>
				</g>
			</g>
			<path id="kvg:s-s12" stroke="#FB8C00" d="M89.02,63.64c0.1,0.72-0.1,1.35-0.56,1.91c-2.33,2.82-7.83,7.19-12.64,9.66"/>
			<path id="kvg:s-s13" stroke="#FDD835" d="M77,82.5c5.86,2.39,16.27,11.13,17.5,14.25"/>
		</g>
	</g>
</g>
</g>
<g id="kvg:StrokeNumbers_06442" style="font-size:18;font-weight:bold;stroke:#fff;stroke-width:1.5;paint-order:stroke">
	<text transform="matrix(1 0 0 1 5.25 37.50)" fill="#E53935">1</text>
	<text transform="matrix(1 0 0 1 18.50 14.50)" fill="#FB8C00">2</text>
	<text transform="matrix(1 0 0 1 4.50 70.50)" fill="#FDD835">3</text>
	<text transform="matrix(1 0 0 1 44.50 17.50)" fill="#43A047">4</text>
	<text transform="matrix(1 0 0 1 50.25 30.50)" fill="#1E88E5">5</text>
	<text transform="matrix(1 0 0 1 61.50 27.13)" fill="#8E24AA">6</text>
	<text transform="matrix(1 0 0 1 62.50 38.50)" fill="#EC407A">7</text>
	<text transform="matrix(1 0 0 1 44.50 51.50)" fill="#00ACC1">8</text>
	<text transform="matrix(1 0 0 1 74.50 24.50)" fill="#795548">9</text>
	<text transform="matrix(1 0 0 1 39.75 68.50)" fill="#546E7A">10</text>
	<text transform="matrix(1 0 0 1 40.50 88.55)" fill="#E53935">11</text>
	<text transform="matrix(1 0 0 1 76.50 67.50)" fill="#FB8C00">12</text>
	<text transform="matrix(1 0 0 1 68.50 89.50)" fill="#FDD835">13</text>
</g>
</svg>
