<?xml version="1.0" encoding="UTF-8"?>
<svg xmlns="http://www.w3.org/2000/svg" width="109" height="109" viewBox="0 0 109 109">
<g id="kvg:StrokePaths_064ae" style="fill:none;stroke:#000000;stroke-width:3;stroke-linecap:round;stroke-linejoin:round;">
<g id="kvg:064ae">
	<g id="kvg:064ae-g1">
		<path id="kvg:s-s1" stroke="#E53935" d="M10.75,36.67c2.27,0.27,4.45,0.29,6.73-0.12c6.52-1.17,11.77-2.29,19.05-3.56c1.14-0.2,2.28-0.34,3.38-0.48"/>
		<path id="kvg:s-s2" stroke="#FB8C00" d="M26.52,15.75c1.05,1.05,1.51,3,1.51,5.02c0,15.23-0.01,53.21-0.01,64.65c0,14.25-5.77,4.33-7.77,2"/>
		<path id="kvg:s-s3" stroke="#FDD835" d="M12.34,62.23c1.16,0.9,2.44,0.93,3.7,0.06C21.88,58.25,25,56,36.25,47.92"/>
	</g>
	<g id="kvg:064ae-g2">
		<g id="kvg:064ae-g3">
			<path id="kvg:s-s4" stroke="#43A047" d="M44.58,17.47c1.13,0.92,1.61,1.75,1.86,3.15c0.52,2.83,1.78,10.52,2.61,15.63c0.46,2.8,0.78,4.83,0.79,4.85"/>
			<path id="kvg:s-s5" stroke="#1E88E5" d="M46.48,18.31c2.72-0.3,21.27-3.06,30.15-3.85c3.83-0.34,6.06,0.12,5.52,4.54c-0.42,3.42-1.64,10.54-2.41,15.04c-0.38,2.25-0.65,3.84-0.65,3.99"/>
			<path id="kvg:s-s6" stroke="#8E24AA" d="M48.86,28.35c8.14-1.23,20.89-2.85,31.21-3.61"/>
			<path id="kvg:s-s7" stroke="#EC407A" d="M50.88,38.48C59,37.5,70.29,36.15,78.3,35.5"/>
		</g>
		<g id="kvg:064ae-g4">
			<g id="kvg:064ae-g5">
				<path id="kvg:s-s8" stroke="#00ACC1" d="M38.54,49.63c2.71,0.37,4.96,0.21,7.1-0.06c9.05-1.11,27.24-3.48,39.24-4.22c2.77-0.17,5.38-0.36,8.29,0.07"/>
				<path id="kvg:s-s9" stroke="#795548" d="M44.82,52.29c0.76,0.76,1.1,1.46,1.1,2.78c0,0.94-0.04,25.66-0.04,29.05"/>
				<path id="kvg:s-s10" stroke="#546E7A" d="M47.14,61.19C50.75,60.62,55,60,58.78,59.52"/>
				<path id="kvg:s-s11" stroke="#E53935" d="M47.18,70.89c3.32-0.52,7.69-1.14,11.53-1.73"/>
				<path id="kvg:s-s12" stroke="#FB8C00" d="M37.52,87.37c0.73,0.63,1.65,0.84,2.94,0.21c4.54-2.21,13.17-6.21,19.03-9.01"/>
				<path id="kvg:s-s13" stroke="#FDD835" d="M58.87,50.3c0.73,0.73,1.14,1.95,1.14,3.04c0,1.28,0.07,23.74,0,37.54C60.01,93.03,60,94.99,60,96.62"/>
			</g>
			<g id="kvg:064ae-g6">
				<path id="kvg:s-s14" stroke="#43A047" d="M67.82,57.92c2.28,0.64,4.3,0.36,6.57-0.07c2.76-0.52,6.93-1.74,9.59-2.4c3.27-0.81,4.91-0.05,3.83,3.57C83.75,72.62,76.62,84.38,65.99,91.9"/>
				<path id="kvg:s-s15" stroke="#1E88E5" d="M65.3,63.33c3.45,0.37,12.82,13.42,22.94,24.69c1.78,1.99,4.63,4.86,7.72,6.62"/>
			</g>
		</g>
	</g>
</g>
</g>
<g id="kvg:StrokeNumbers_064ae" style="font-size:18;font-weight:bold;stroke:#fff;stroke-width:1.5;paint-order:stroke">
	<text transform="matrix(1 0 0 1 5.25 37.63)" fill="#E53935">1</text>
	<text transform="matrix(1 0 0 1 18.75 16.63)" fill="#FB8C00">2</text>
	<text transform="matrix(1 0 0 1 6.75 70.63)" fill="#FDD835">3</text>
	<text transform="matrix(1 0 0 1 39.75 27.13)" fill="#43A047">4</text>
	<text transform="matrix(1 0 0 1 47.50 14.50)" fill="#1E88E5">5</text>
	<text transform="matrix(1 0 0 1 53.25 25.50)" fill="#8E24AA">6</text>
	<text transform="matrix(1 0 0 1 53.25 36.50)" fill="#EC407A">7</text>
	<text transform="matrix(1 0 0 1 43.50 47.90)" fill="#00ACC1">8</text>
	<text transform="matrix(1 0 0 1 38.25 59.50)" fill="#795548">9</text>
	<text transform="matrix(1 0 0 1 48.27 57.50)" fill="#546E7A">10</text>
	<text transform="matrix(1 0 0 1 48.50 68.50)" fill="#E53935">11</text>
	<text transform="matrix(1 0 0 1 33.75 83.98)" fill="#FB8C00">12</text>
	<text transform="matrix(1 0 0 1 62.50 55.63)" fill="#FDD835">13</text>
	<text transform="matrix(1 0 0 1 70.50 55.50)" fill="#43A047">14</text>
	<text transform="matrix(1 0 0 1 72.50 67.50)" fill="#1E88E5">15</text>
</g>
</svg>
