<?xml version="1.0" encoding="UTF-8"?>
<svg xmlns="http://www.w3.org/2000/svg" width="109" height="109" viewBox="0 0 109 109">
<g id="kvg:StrokePaths_0653b" style="fill:none;stroke:#000000;stroke-width:3;stroke-linecap:round;stroke-linejoin:round;">
<g id="kvg:0653b">
	<g id="kvg:0653b-g1">
		<path id="kvg:s-s1" stroke="#E53935" d="M12.04,33.75c1.96,0.38,4.14,0.16,5.61-0.08c4.32-0.7,14.05-2.27,20.53-3.54c1.33-0.26,3.19-0.38,4.31-0.13"/>
		<path id="kvg:s-s2" stroke="#FB8C00" d="M28.35,35.27c0.82,0.82,1.12,2.11,1.12,3.73c0,5.95-0.09,23.43-0.09,28.25"/>
		<path id="kvg:s-s3" stroke="#FDD835" d="M12.25,74.5c0.75,0.88,2.12,1,3.81,0.25c5.8-2.58,11.81-5.75,22.1-11"/>
	</g>
	<g id="kvg:0653b-g2">
		<g id="kvg:0653b-g3">
			<path id="kvg:s-s4" stroke="#43A047" d="M61.39,13.14c0.05,0.95,0.28,2.51-0.09,3.82c-2.39,8.39-8.27,24.93-16.55,36.54"/>
			<path id="kvg:s-s5" stroke="#1E88E5" d="M57.99,35.67c1.42,0.08,2.74,0.03,4.13-0.21c6.72-1.19,15.17-3.47,23.41-5.87c1.55-0.45,3.72-0.6,5.34-0.35"/>
		</g>
		<g id="kvg:0653b-g4">
			<g id="kvg:0653b-g5">
				<path id="kvg:s-s6" stroke="#8E24AA" d="M76.83,36.18c0.42,1.2,0.47,2.18-0.19,4.78C70.67,64.52,60.75,82,37.17,93.25"/>
			</g>
			<path id="kvg:s-s7" stroke="#EC407A" d="M51.71,51.51c1.79,0,22.16,23.87,34.75,35.77c2.47,2.33,4.29,3.73,7.29,5.48"/>
		</g>
	</g>
</g>
</g>
<g id="kvg:StrokeNumbers_0653b" style="font-size:18;font-weight:bold;stroke:#fff;stroke-width:1.5;paint-order:stroke">
	<text transform="matrix(1 0 0 1 5.50 34.63)" fill="#E53935">1</text>
	<text transform="matrix(1 0 0 1 21.50 43.63)" fill="#FB8C00">2</text>
	<text transform="matrix(1 0 0 1 4.50 78.50)" fill="#FDD835">3</text>
	<text transform="matrix(1 0 0 1 51.50 13.50)" fill="#43A047">4</text>
	<text transform="matrix(1 0 0 1 62.50 31.50)" fill="#1E88E5">5</text>
	<text transform="matrix(1 0 0 1 68.50 44.50)" fill="#8E24AA">6</text>
	<text transform="matrix(1 0 0 1 55.50 51.13)" fill="#EC407A">7</text>
</g>
</svg>
