<?xml version="1.0" encoding="UTF-8"?>
<svg xmlns="http://www.w3.org/2000/svg" width="109" height="109" viewBox="0 0 109 109">
<g id="kvg:StrokePaths_06539" style="fill:none;stroke:#000000;stroke-width:3;stroke-linecap:round;stroke-linejoin:round;">
<g id="kvg:06539">
	<g id="kvg:06539-g1">
		<path id="kvg:s-s1" stroke="#E53935" d="M13.13,29.98c1.24,0.77,2.99,1.06,4.6,0.9c4.69-0.47,13.42-2.13,20.16-3.8c4.36-1.08,5.89,0.43,4.35,4.51c-1.09,2.89-3.12,9.53-4.82,15.88"/>
		<path id="kvg:s-s2" stroke="#FB8C00" d="M13.66,50c1.09,0.62,2.34,0.79,3.44,0.74c4.45-0.2,13.4-1.37,18.9-2.09c1.19-0.16,2.33-0.03,3.36,0.02"/>
		<path id="kvg:s-s3" stroke="#FDD835" d="M15.04,51.02c0.72,0.72,1.07,1.73,1.07,2.92c0,8.25,0.03,11.68,0.03,16.68c0,10.12,1.24,11.4,11.31,11.4c10.3,0,12.52-1.29,12.75-8.88"/>
	</g>
	<g id="kvg:06539-g2">
		<g id="kvg:06539-g3">
			<path id="kvg:s-s4" stroke="#43A047" d="M62.66,16.3c0.34,1.33,0.28,2.31-0.09,3.52c-2.36,7.73-8.16,22.98-16.32,33.68"/>
			<path id="kvg:s-s5" stroke="#1E88E5" d="M59.81,36.74c1.57,0.26,2.79,0.03,3.51-0.07c5.53-0.79,15.31-2.47,22.19-3.63c1.76-0.3,3.49-0.46,5.27-0.19"/>
		</g>
		<g id="kvg:06539-g4">
			<g id="kvg:06539-g5">
				<path id="kvg:s-s6" stroke="#8E24AA" d="M78.81,37.89c0.44,1.36,0.68,2.86-0.18,5.26C71.5,63,58.88,82.62,39.88,93.12"/>
			</g>
			<path id="kvg:s-s7" stroke="#EC407A" d="M54.56,52.34c3.73,0.29,21.17,24.37,33.3,34.27c2.31,1.89,4.86,3.89,7.89,4.39"/>
		</g>
	</g>
</g>
</g>
<g id="kvg:StrokeNumbers_06539" style="font-size:18;fill:#E53935;font-weight:bold;stroke:#fff;stroke-width:1.5;paint-order:stroke">
	<text transform="matrix(1 0 0 1 6.75 30.13)" fill="#E53935">1</text>
	<text transform="matrix(1 0 0 1 19.50 47.50)" fill="#FB8C00">2</text>
	<text transform="matrix(1 0 0 1 8.50 55.50)" fill="#FDD835">3</text>
	<text transform="matrix(1 0 0 1 53.50 16.50)" fill="#43A047">4</text>
	<text transform="matrix(1 0 0 1 64.50 33.50)" fill="#1E88E5">5</text>
	<text transform="matrix(1 0 0 1 70.50 44.50)" fill="#8E24AA">6</text>
	<text transform="matrix(1 0 0 1 59.25 51.13)" fill="#EC407A">7</text>
</g>
</svg>
