<?xml version="1.0" encoding="UTF-8"?>
<svg xmlns="http://www.w3.org/2000/svg" width="109" height="109" viewBox="0 0 109 109">
<g id="kvg:StrokePaths_06551" style="fill:none;stroke:#000000;stroke-width:3;stroke-linecap:round;stroke-linejoin:round;">
<g id="kvg:06551">
	<g id="kvg:06551-g1">
		<path id="kvg:s-s1" stroke="#E53935" d="M13.79,39.09c1.98,0.72,4.23,0.32,6.22,0.03c6.19-0.9,19.25-2.59,26.61-3.45c1.78-0.21,3.39-0.39,5.17,0"/>
		<g id="kvg:06551-g2">
			<path id="kvg:s-s2" stroke="#FB8C00" d="M33.62,16.08c0.83,0.83,1.2,2.42,1.2,4.17c0,11.01,0.06,61.91,0.06,65.66c0,6.11-3.88,2.44-6.58,0.19"/>
			<path id="kvg:s-s3" stroke="#FDD835" d="M13.34,50.55c3.37,1.38,8.03,5.2,9.79,8.09"/>
			<path id="kvg:s-s4" stroke="#43A047" d="M10.02,75.93c1.83,1.35,3.43,0.26,5.32-1.35c1.22-1.04,6.26-5.66,12.67-11.08"/>
			<path id="kvg:s-s5" stroke="#1E88E5" d="M48.87,42.88c0.05,0.37,0.09,1.01-0.11,1.49c-1.56,3.84-4.53,7.91-7.59,11.04"/>
			<path id="kvg:s-s6" stroke="#8E24AA" d="M43.41,62.51c4.36,2.79,7.94,6.98,10.26,11.9"/>
		</g>
		<g id="kvg:06551-g3">
			<path id="kvg:s-s7" stroke="#EC407A" d="M45.91,21.33c2.61,1.29,6.09,4.67,7.41,7.34"/>
		</g>
	</g>
	<g id="kvg:06551-g4">
		<g id="kvg:06551-g5">
			<path id="kvg:s-s8" stroke="#00ACC1" d="M66.08,15.39c0.42,1.36,0.27,2.63-0.09,3.88c-2.31,7.97-7.49,23.69-15.47,34.72"/>
			<path id="kvg:s-s9" stroke="#795548" d="M62.64,38.93c0.86,0.2,2.33,0.21,2.96,0.11c6.77-1.04,15.52-2.54,22.85-3.8c1.76-0.3,4.42-0.62,5.94-0.3"/>
		</g>
		<g id="kvg:06551-g6">
			<g id="kvg:06551-g7">
				<path id="kvg:s-s10" stroke="#546E7A" d="M79.2,40.33c0.54,1.3,0.83,2.23,0.27,4.6C74.37,66.5,65,82.88,45.97,92.75"/>
			</g>
			<path id="kvg:s-s11" stroke="#E53935" d="M56.07,49.91c3.18-0.03,21.75,24.25,32.59,34.62c2.33,2.23,4.75,4.69,7.7,5.88"/>
		</g>
	</g>
</g>
</g>
<g id="kvg:StrokeNumbers_06551" style="font-size:18;fill:#E53935;font-weight:bold;stroke:#fff;stroke-width:1.5;paint-order:stroke">
	<text transform="matrix(1 0 0 1 8.50 40.63)" fill="#E53935">1</text>
	<text transform="matrix(1 0 0 1 25.50 16.56)" fill="#FB8C00">2</text>
	<text transform="matrix(1 0 0 1 4.99 52.48)" fill="#FDD835">3</text>
	<text transform="matrix(1 0 0 1 3.50 79.50)" fill="#43A047">4</text>
	<text transform="matrix(1 0 0 1 40.99 46.50)" fill="#1E88E5">5</text>
	<text transform="matrix(1 0 0 1 39.49 71.76)" fill="#8E24AA">6</text>
	<text transform="matrix(1 0 0 1 42.75 17.88)" fill="#EC407A">7</text>
	<text transform="matrix(1 0 0 1 56.75 16.00)" fill="#00ACC1">8</text>
	<text transform="matrix(1 0 0 1 66.75 34.62)" fill="#795548">9</text>
	<text transform="matrix(1 0 0 1 67.88 46.45)" fill="#546E7A">10</text>
	<text transform="matrix(1 0 0 1 59.25 50.33)" fill="#E53935">11</text>
</g>
</svg>
