<?xml version="1.0" encoding="UTF-8"?>
<svg xmlns="http://www.w3.org/2000/svg" width="109" height="109" viewBox="0 0 109 109">
<g id="kvg:StrokePaths_06557" style="fill:none;stroke:#000000;stroke-width:3;stroke-linecap:round;stroke-linejoin:round;">
<g id="kvg:06557">
	<g id="kvg:06557-g1">
		<g id="kvg:06557-g2">
			<path id="kvg:s-s1" stroke="#E53935" d="M18.94,22.54c0.88,0.88,1.13,2.17,1.13,3.64c0,1.21,0.01,31.47,0.01,42.31c0,2.27,0,3.69,0,3.82"/>
			<path id="kvg:s-s2" stroke="#FB8C00" d="M21.17,25c2.89-0.62,12.45-2.49,16.61-3.22c2.93-0.51,4.38,0.16,4.34,3.35c-0.06,5.36,0.15,25.75,0.19,40.25c0,1,0,1.98,0,2.92"/>
			<path id="kvg:s-s3" stroke="#FDD835" d="M21.13,38.76C26,38,36.5,36.25,40.85,35.78"/>
			<path id="kvg:s-s4" stroke="#43A047" d="M20.8,53.53c5.83-0.78,15.08-2.28,20.31-2.7"/>
			<path id="kvg:s-s5" stroke="#1E88E5" d="M21.32,69.37c5.68-0.74,14.55-1.99,20.06-2.45"/>
		</g>
		<g id="kvg:06557-g3">
			<path id="kvg:s-s6" stroke="#8E24AA" d="M26.48,77c0.32,1.12-0.28,2.25-0.93,3.06C23.61,82.53,17.62,88,12.5,91.5"/>
			<path id="kvg:s-s7" stroke="#EC407A" d="M36.57,74.57c3.55,3.59,7.18,8.93,8.7,13.23"/>
		</g>
	</g>
	<g id="kvg:06557-g4">
		<g id="kvg:06557-g5">
			<path id="kvg:s-s8" stroke="#00ACC1" d="M64.47,17.89c0.15,1.11,0.03,2.3-0.34,3.37c-2.35,6.85-7.63,20.37-15.76,29.85"/>
			<path id="kvg:s-s9" stroke="#795548" d="M59.98,39.46c1.07,0.34,2.46,0.13,3.55,0.03C69.75,38.88,78,37,84.39,34.74c1.78-0.63,3.73-0.74,5.35-0.33"/>
		</g>
		<g id="kvg:06557-g6">
			<g id="kvg:06557-g7">
				<path id="kvg:s-s10" stroke="#546E7A" d="M77.64,40.51c0.49,1.2,0.66,2.78,0.25,5C75,60.88,65.62,79.75,49.38,90.5"/>
			</g>
			<path id="kvg:s-s11" stroke="#E53935" d="M55.16,50.94c3.46,0.43,19.49,23.53,30.07,34.03c2.69,2.67,4.76,4.34,7.9,6.03"/>
		</g>
	</g>
</g>
</g>
<g id="kvg:StrokeNumbers_06557" style="font-size:18;fill:#E53935;font-weight:bold;stroke:#fff;stroke-width:1.5;paint-order:stroke">
	<text transform="matrix(1 0 0 1 13.50 31.63)" fill="#E53935">1</text>
	<text transform="matrix(1 0 0 1 23.25 21.35)" fill="#FB8C00">2</text>
	<text transform="matrix(1 0 0 1 24.75 34.78)" fill="#FDD835">3</text>
	<text transform="matrix(1 0 0 1 24.75 49.50)" fill="#43A047">4</text>
	<text transform="matrix(1 0 0 1 24.75 65.50)" fill="#1E88E5">5</text>
	<text transform="matrix(1 0 0 1 16.50 81.13)" fill="#8E24AA">6</text>
	<text transform="matrix(1 0 0 1 31.50 76.50)" fill="#EC407A">7</text>
	<text transform="matrix(1 0 0 1 55.50 18.50)" fill="#00ACC1">8</text>
	<text transform="matrix(1 0 0 1 65.25 36.50)" fill="#795548">9</text>
	<text transform="matrix(1 0 0 1 66.82 46.33)" fill="#546E7A">10</text>
	<text transform="matrix(1 0 0 1 49.00 59.00)" fill="#E53935">11</text>
</g>
</svg>
