<?xml version="1.0" encoding="UTF-8"?>
<svg xmlns="http://www.w3.org/2000/svg" width="109" height="109" viewBox="0 0 109 109">
<g id="kvg:StrokePaths_06587" style="fill:none;stroke:#000000;stroke-width:3;stroke-linecap:round;stroke-linejoin:round;">
<g id="kvg:06587">
	<g id="kvg:06587-g1">
		<path id="kvg:s-s1" stroke="#E53935" d="M51.62,12.75c1.06,1.06,1.73,2.5,1.73,4.01c0,4.32-0.11,7.61-0.11,12.15"/>
		<path id="kvg:s-s2" stroke="#FB8C00" d="M16.88,32.72c2.7,0.66,5.71,0.86,8.6,0.54c15.77-1.76,40.15-5.01,56.42-6.1c3.67-0.25,6.15,0.05,8.88,0.69"/>
	</g>
	<g id="kvg:06587-g2">
		<path id="kvg:s-s3" stroke="#FDD835" d="M69.89,32.5c0.36,2.12,0.06,3.82-0.93,6.27C61.62,57,43.75,80.25,18.75,93.75"/>
		<path id="kvg:s-s4" stroke="#43A047" d="M31,43.75c6,0,27.27,26.79,49.26,42.1c4.13,2.87,7.49,4.77,11.49,6.04"/>
	</g>
</g>
</g>
<g id="kvg:StrokeNumbers_06587" style="font-size:18;fill:#E53935;font-weight:bold;stroke:#fff;stroke-width:1.5;paint-order:stroke">
	<text transform="matrix(1 0 0 1 41.25 13.50)" fill="#E53935">1</text>
	<text transform="matrix(1 0 0 1 8.50 33.50)" fill="#FB8C00">2</text>
	<text transform="matrix(1 0 0 1 61.50 38.50)" fill="#FDD835">3</text>
	<text transform="matrix(1 0 0 1 25.50 46.50)" fill="#43A047">4</text>
</g>
</svg>
