<?xml version="1.0" encoding="UTF-8"?>
<svg xmlns="http://www.w3.org/2000/svg" width="109" height="109" viewBox="0 0 109 109">
<g id="kvg:StrokePaths_065ad" style="fill:none;stroke:#000000;stroke-width:3;stroke-linecap:round;stroke-linejoin:round;">
<g id="kvg:065ad">
	<g id="kvg:065ad-g1">
		<g id="kvg:065ad-g2">
			<path id="kvg:s-s1" stroke="#E53935" d="M24.11,25.58c1.96,2.16,4.92,8.27,5.41,11.63"/>
			<path id="kvg:s-s2" stroke="#FB8C00" d="M52.07,21.21c0.07,0.86-0.02,1.7-0.32,2.5c-1.25,3.3-3.25,7.18-6.68,11.53"/>
			<path id="kvg:s-s3" stroke="#FDD835" d="M21.11,45.32c1.63,0.62,3.48,0.3,5.17,0.08c5.59-0.7,17.58-2.7,22.72-3.05c1.25-0.08,2.32,0.07,3.1,0.25"/>
			<path id="kvg:s-s4" stroke="#43A047" d="M36.52,14c0.93,0.93,1.57,2.62,1.57,3.71c0,0.78,0.05,37.28-0.11,52.55c-0.03,2.93-0.06,5.07-0.1,5.98"/>
			<path id="kvg:s-s5" stroke="#1E88E5" d="M36.98,44.9c0,0.85-0.29,2.23-0.67,3.22c-3.93,10.26-8.68,19.76-15.67,27.48"/>
			<path id="kvg:s-s6" stroke="#8E24AA" d="M40.5,51.25c3.53,2.93,9,9.5,11.06,14.56"/>
		</g>
		<path id="kvg:s-s7" stroke="#EC407A" d="M12.52,26.5c0.93,0.93,1.32,2.5,1.32,3.71c0,1.66-0.2,43.66-0.2,52.29c0,2.62,0.63,4.67,3.12,4.25c8.12-1.38,18.88-3.38,31.25-4.5c1.49-0.14,2.75,0,4,0"/>
	</g>
	<g id="kvg:065ad-g3">
		<path id="kvg:s-s8" stroke="#00ACC1" d="M79.42,12c0.05,0.47-0.08,1.61-0.35,2.15C76,20.5,70.25,26.5,62.96,32.83"/>
		<path id="kvg:s-s9" stroke="#795548" d="M60.47,32.47c1.09,1.09,1.67,2.66,1.7,4.19c0.58,29.97-2.29,44.09-9.36,55.92"/>
		<path id="kvg:s-s10" stroke="#546E7A" d="M64.21,44.01c1.4-0.13,3.12-0.31,5.03-0.54c8.28-0.96,18.99-2.49,24.62-3.13c1.52-0.17,3.64-0.75,5.13-0.23"/>
		<path id="kvg:s-s11" stroke="#E53935" d="M81.03,45.54c0.84,0.84,1.32,2.46,1.32,4.08c0,1.04-0.07,39.01-0.07,44.38c0,3.13-0.05,5.6-0.08,7"/>
	</g>
</g>
</g>
<g id="kvg:StrokeNumbers_065ad" style="font-size:18;fill:#E53935;font-weight:bold;stroke:#fff;stroke-width:1.5;paint-order:stroke">
	<text transform="matrix(1 0 0 1 18.75 22.63)" fill="#E53935">1</text>
	<text transform="matrix(1 0 0 1 47.25 16.63)" fill="#FB8C00">2</text>
	<text transform="matrix(1 0 0 1 18.75 42.13)" fill="#FDD835">3</text>
	<text transform="matrix(1 0 0 1 28.50 13.50)" fill="#43A047">4</text>
	<text transform="matrix(1 0 0 1 26.50 56.50)" fill="#1E88E5">5</text>
	<text transform="matrix(1 0 0 1 45.50 53.50)" fill="#8E24AA">6</text>
	<text transform="matrix(1 0 0 1 4.50 27.50)" fill="#EC407A">7</text>
	<text transform="matrix(1 0 0 1 70.50 11.50)" fill="#00ACC1">8</text>
	<text transform="matrix(1 0 0 1 57.75 29.50)" fill="#795548">9</text>
	<text transform="matrix(1 0 0 1 66.50 40.50)" fill="#546E7A">10</text>
	<text transform="matrix(1 0 0 1 72.50 52.55)" fill="#E53935">11</text>
</g>
</svg>
