<?xml version="1.0" encoding="UTF-8"?>
<svg xmlns="http://www.w3.org/2000/svg" width="109" height="109" viewBox="0 0 109 109">
<g id="kvg:StrokePaths_065e8" style="fill:none;stroke:#000000;stroke-width:3;stroke-linecap:round;stroke-linejoin:round;">
<g id="kvg:065e8">
	<g id="kvg:065e8-g1">
		<path id="kvg:s-s1" stroke="#E53935" d="M73.8,13.56c0,1.31-0.68,2.39-1.58,2.92c-10.47,6.26-23.35,10.64-43.35,15.64"/>
		<path id="kvg:s-s2" stroke="#FB8C00" d="M25.23,12.75c0.95,0.95,1.14,2.25,1.14,3.54c0,3.71-0.11,9.71-0.11,17.11c0,11.59,2,12.66,28.91,12.66C81,46.06,82.75,44,82.75,35.25"/>
	</g>
	<g id="kvg:065e8-g2">
		<path id="kvg:s-s3" stroke="#FDD835" d="M31.52,60.05c0.73,0.95,0.98,2.18,0.98,3.33c0,0.85,0.11,19.25,0.11,29.11c0,3.17-0.06,5.34-0.06,5.49"/>
		<path id="kvg:s-s4" stroke="#43A047" d="M33.4,62.19c2.94-0.13,30.17-2.82,37.85-3.49c3.82-0.33,5.37,0.3,5.37,4.18c0,5.74,0.05,19.8,0.06,27.88c0,3.27,0.01,5.51,0.01,5.73"/>
		<path id="kvg:s-s5" stroke="#1E88E5" d="M33.72,77.42c6.65-0.67,35.03-2.42,41.63-2.57"/>
		<path id="kvg:s-s6" stroke="#8E24AA" d="M33.77,94.48c9.04-0.61,30.56-1.75,41.82-2.28"/>
	</g>
</g>
</g>
<g id="kvg:StrokeNumbers_065e8" style="font-size:18;font-weight:bold;stroke:#fff;stroke-width:1.5;paint-order:stroke">
	<text transform="matrix(1 0 0 1 64.50 13.50)" fill="#E53935">1</text>
	<text transform="matrix(1 0 0 1 16.50 13.50)" fill="#FB8C00">2</text>
	<text transform="matrix(1 0 0 1 24.50 68.50)" fill="#FDD835">3</text>
	<text transform="matrix(1 0 0 1 33.50 58.50)" fill="#43A047">4</text>
	<text transform="matrix(1 0 0 1 36.50 74.50)" fill="#1E88E5">5</text>
	<text transform="matrix(1 0 0 1 36.50 91.50)" fill="#8E24AA">6</text>
</g>
</svg>
