<?xml version="1.0" encoding="UTF-8"?>
<svg xmlns="http://www.w3.org/2000/svg" width="109" height="109" viewBox="0 0 109 109">
<g id="kvg:StrokePaths_06613" style="fill:none;stroke:#000000;stroke-width:3;stroke-linecap:round;stroke-linejoin:round;">
<g id="kvg:06613">
	<g id="kvg:06613-g1">
		<path id="kvg:s-s1" stroke="#E53935" d="M33.88,13.76c0.81,0.81,1.16,2.05,1.23,2.98c0.34,4.45,1.37,14.98,2.26,24.01c0.11,1.15,0.22,2.27,0.33,3.35"/>
		<path id="kvg:s-s2" stroke="#FB8C00" d="M36.14,14.87c10.15-0.83,26.91-2.25,35.24-2.6c3.62-0.15,5.78,1.78,5.42,4.86c-0.55,4.64-1.53,11.96-3.14,21.05c-0.28,1.58-0.58,3.21-0.89,4.89"/>
		<path id="kvg:s-s3" stroke="#FDD835" d="M37.5,28.9c13-1.15,28.75-2.4,36.88-2.67"/>
		<path id="kvg:s-s4" stroke="#43A047" d="M38.89,41.97C49,41,62.75,40,72.22,39.54"/>
	</g>
	<g id="kvg:06613-g2">
		<g id="kvg:06613-g3">
			<path id="kvg:s-s5" stroke="#1E88E5" d="M45.37,44.25c0.18,1.09-0.24,2.25-0.94,3.1c-4.05,4.93-13.01,11.6-27.71,17.46"/>
			<path id="kvg:s-s6" stroke="#8E24AA" d="M39.11,55.24c1.15,0.46,2.73,0.65,4.6,0.56c5.92-0.3,29.79-2.67,39.01-3.6c4.57-0.46,5.52,1.8,4.83,5.06c-0.69,3.26-6.29,26.25-16.16,36.37c-2.82,2.89-5.51,0.5-8.11-2.02"/>
		</g>
		<path id="kvg:s-s7" stroke="#EC407A" d="M49.96,58.04c0.07,0.51,0,1.36-0.39,2.05c-4.07,7.15-10.95,12.53-25,19.66"/>
		<path id="kvg:s-s8" stroke="#00ACC1" d="M68.38,57c0.11,0.84-0.02,2.17-0.47,3.38c-2.7,7.12-17.27,22.73-38.42,32.28"/>
	</g>
</g>
</g>
<g id="kvg:StrokeNumbers_06613" style="font-size:18;fill:#E53935;font-weight:bold;stroke:#fff;stroke-width:1.5;paint-order:stroke">
	<text transform="matrix(1 0 0 1 28.50 21.50)" fill="#E53935">1</text>
	<text transform="matrix(1 0 0 1 37.50 11.50)" fill="#FB8C00">2</text>
	<text transform="matrix(1 0 0 1 41.50 25.78)" fill="#FDD835">3</text>
	<text transform="matrix(1 0 0 1 41.50 38.50)" fill="#43A047">4</text>
	<text transform="matrix(1 0 0 1 30.50 52.63)" fill="#1E88E5">5</text>
	<text transform="matrix(1 0 0 1 50.50 52.26)" fill="#8E24AA">6</text>
	<text transform="matrix(1 0 0 1 39.50 65.50)" fill="#EC407A">7</text>
	<text transform="matrix(1 0 0 1 58.50 64.50)" fill="#00ACC1">8</text>
</g>
</svg>
