<?xml version="1.0" encoding="UTF-8"?>
<svg xmlns="http://www.w3.org/2000/svg" width="109" height="109" viewBox="0 0 109 109">
<g id="kvg:StrokePaths_06627" style="fill:none;stroke:#000000;stroke-width:3;stroke-linecap:round;stroke-linejoin:round;">
<g id="kvg:06627">
	<g id="kvg:06627-g1">
		<path id="kvg:s-s1" stroke="#E53935" d="M13.27,27.44c0.39,0.78,0.78,1.68,0.78,2.72c0,1.04-0.13,41.29,0,42.34"/>
		<path id="kvg:s-s2" stroke="#FB8C00" d="M14.69,29.07C19.75,28,27.75,27,31.61,26.24c1.64-0.32,2.61,1.44,2.61,2.22c0,4.04-0.52,35.79-0.52,43.01"/>
		<path id="kvg:s-s3" stroke="#FDD835" d="M14.08,49.23C20.75,48.5,28,47.5,33.8,46.92"/>
		<path id="kvg:s-s4" stroke="#43A047" d="M14.44,70.56C20.5,70,26,69,33.29,68.52"/>
	</g>
	<g id="kvg:06627-g2">
		<path id="kvg:s-s5" stroke="#1E88E5" d="M48.06,34.52c0.8,0.28,2.27,0.31,3.07,0.28c8.34-0.32,19.61-3.05,29.03-3.73c1.33-0.1,2.14,0.13,2.81,0.27"/>
		<g id="kvg:06627-g3">
			<path id="kvg:s-s6" stroke="#8E24AA" d="M39.63,51.5c0.81,0.25,2.71,0.69,4.87,0.5c8.5-0.75,29.75-3.75,42.33-4.25c2.16-0.09,4.21,0.25,5.56,0.5"/>
			<path id="kvg:s-s7" stroke="#EC407A" d="M62.68,12.25c1.35,0.5,2.16,2.25,2.43,3.25s0,77.25-0.27,83.5"/>
			<path id="kvg:s-s8" stroke="#00ACC1" d="M64.22,51.25c-5.5,11.74-19.04,28.35-30.47,35"/>
			<path id="kvg:s-s9" stroke="#795548" d="M65.28,51C71,60.5,83,76,90.95,81.87c1.71,1.26,2.79,2.19,4.3,2.63"/>
		</g>
	</g>
</g>
</g>
<g id="kvg:StrokeNumbers_06627" style="font-size:18;font-weight:bold;stroke:#fff;stroke-width:1.5;paint-order:stroke">
	<text transform="matrix(1 0 0 1 6.50 35.50)" fill="#E53935">1</text>
	<text transform="matrix(1 0 0 1 15.50 25.50)" fill="#FB8C00">2</text>
	<text transform="matrix(1 0 0 1 18.50 45.50)" fill="#FDD835">3</text>
	<text transform="matrix(1 0 0 1 18.50 67.50)" fill="#43A047">4</text>
	<text transform="matrix(1 0 0 1 40.50 34.50)" fill="#1E88E5">5</text>
	<text transform="matrix(1 0 0 1 39.50 48.50)" fill="#8E24AA">6</text>
	<text transform="matrix(1 0 0 1 54.50 12.50)" fill="#EC407A">7</text>
	<text transform="matrix(1 0 0 1 50.50 62.50)" fill="#00ACC1">8</text>
	<text transform="matrix(1 0 0 1 75.50 61.50)" fill="#795548">9</text>
</g>
</svg>
