<?xml version="1.0" encoding="UTF-8"?>
<svg xmlns="http://www.w3.org/2000/svg" width="109" height="109" viewBox="0 0 109 109">
<g id="kvg:StrokePaths_06642" style="fill:none;stroke:#000000;stroke-width:3;stroke-linecap:round;stroke-linejoin:round;">
<g id="kvg:06642">
	<g id="kvg:06642-g1">
		<path id="kvg:s-s1" stroke="#E53935" d="M16,29.84c0.75,0.66,1.21,1.62,1.21,3.07c0,1.18-0.16,30.08-0.21,40.85c-0.01,2.42-0.02,3.95-0.02,4.08"/>
		<path id="kvg:s-s2" stroke="#FB8C00" d="M17.78,30.74c4.65-0.63,16.12-2.07,17.6-2.25c1.52-0.18,3,1.5,2.88,2.57c-0.24,2.17-0.36,24.9-0.35,40.79c0,1.63-0.12,3.35-0.12,4.43"/>
		<path id="kvg:s-s3" stroke="#FDD835" d="M18.75,52c4.5-0.75,13.5-2.12,18.22-2.35"/>
		<path id="kvg:s-s4" stroke="#43A047" d="M17.8,74.52c6.2-0.92,11.45-1.89,18.94-2.7"/>
	</g>
	<g id="kvg:06642-g2">
		<g id="kvg:06642-g3">
			<path id="kvg:s-s5" stroke="#1E88E5" d="M51.44,29.03c1.37,0.44,3.63,0.34,5,0.19c9.79-1.09,16.34-2.34,25.62-3.08c2.27-0.18,3.9-0.04,5.04,0.18"/>
			<path id="kvg:s-s6" stroke="#8E24AA" d="M67.59,11.37c0.89,0.9,1.59,2.24,1.59,3.75c0,8.39,0.03,27.02,0.03,27.6"/>
			<path id="kvg:s-s7" stroke="#EC407A" d="M45.38,45.35c1.49,0.44,4.21,0.59,5.71,0.44c11.29-1.16,25.66-3.29,39.2-3.99c2.48-0.13,3.97,0.21,5.21,0.43"/>
		</g>
		<g id="kvg:06642-g4">
			<path id="kvg:s-s8" stroke="#00ACC1" d="M46,60.99c1.43,0.46,4.04,0.58,5.49,0.46c12.01-1.07,26.89-3.07,39.07-3.89c2.38-0.16,4.41,0.22,5.6,0.44"/>
			<path id="kvg:s-s9" stroke="#795548" d="M78.07,46.08c1.11,1.11,1.66,2.56,1.71,5.06c0.23,12.03-0.09,34.43-0.09,38.52c0,9.83-5.42,2.19-7.66-0.04"/>
			<path id="kvg:s-s10" stroke="#546E7A" d="M56.75,70.38c2.87,1.76,6.55,6.38,7.27,9.12"/>
		</g>
	</g>
</g>
</g>
<g id="kvg:StrokeNumbers_06642" style="font-size:18;fill:#E53935;font-weight:bold;stroke:#fff;stroke-width:1.5;paint-order:stroke">
	<text transform="matrix(1 0 0 1 9.75 39.13)" fill="#E53935">1</text>
	<text transform="matrix(1 0 0 1 18.50 27.50)" fill="#FB8C00">2</text>
	<text transform="matrix(1 0 0 1 21.50 48.13)" fill="#FDD835">3</text>
	<text transform="matrix(1 0 0 1 21.33 70.50)" fill="#43A047">4</text>
	<text transform="matrix(1 0 0 1 45.50 27.13)" fill="#1E88E5">5</text>
	<text transform="matrix(1 0 0 1 58.50 11.50)" fill="#8E24AA">6</text>
	<text transform="matrix(1 0 0 1 45.75 42.13)" fill="#EC407A">7</text>
	<text transform="matrix(1 0 0 1 44.25 57.13)" fill="#00ACC1">8</text>
	<text transform="matrix(1 0 0 1 71.25 54.13)" fill="#795548">9</text>
	<text transform="matrix(1 0 0 1 47.25 76.63)" fill="#546E7A">10</text>
</g>
</svg>
