<?xml version="1.0" encoding="UTF-8"?>
<svg xmlns="http://www.w3.org/2000/svg" width="109" height="109" viewBox="0 0 109 109">
<g id="kvg:StrokePaths_06669" style="fill:none;stroke:#000000;stroke-width:3;stroke-linecap:round;stroke-linejoin:round;">
<g id="kvg:06669">
	<g id="kvg:06669-g1">
		<path id="kvg:s-s1" stroke="#E53935" d="M14.27,24.74c0.69,0.69,1.02,1.72,1.02,3.21c0,1.17-0.05,27.59-0.03,39.55c0.01,3.25,0.02,5.43,0.03,5.75"/>
		<path id="kvg:s-s2" stroke="#FB8C00" d="M16.22,26.52c2.01-0.32,10.55-2.23,14.65-3.04c3.31-0.66,3.86,0.28,3.8,3.4c-0.11,6.35,0.04,26.17-0.01,37.37c-0.02,4.63-0.03,7.85-0.03,8.14"/>
		<path id="kvg:s-s3" stroke="#FDD835" d="M16.23,46.66c3.64-0.41,14.14-2.04,17.54-2.11"/>
		<path id="kvg:s-s4" stroke="#43A047" d="M16.39,68.39c4.07-0.38,11.48-1.52,17.12-1.98"/>
	</g>
	<g id="kvg:06669-g2">
		<g id="kvg:06669-g3">
			<g id="kvg:06669-g4">
				<path id="kvg:s-s5" stroke="#1E88E5" d="M57.89,14.65c0.04,0.5,0.16,1.3-0.08,1.99C56.25,21.12,52,28.38,44.44,35.47"/>
				<path id="kvg:s-s6" stroke="#8E24AA" d="M56.6,21.75c2.05,0,15.79-2.59,17.94-2.83c1.85-0.2,2.8,2.19,2.03,3.21c-3.25,4.27-8.05,9.13-13.19,15.97"/>
			</g>
			<path id="kvg:s-s7" stroke="#EC407A" d="M46.76,40.6c0.76,0.76,1.12,1.65,1.4,3.17c0.79,4.23,1.58,7.61,2.24,12.95c0.16,1.27,0.31,2.61,0.46,4.02"/>
			<path id="kvg:s-s8" stroke="#00ACC1" d="M48.65,41.96c8.56-1.78,26.47-4.7,33.25-5.7c2.41-0.36,4.77,0.6,4.23,3.62c-0.91,5.09-1.5,7.38-3.4,13.87c-0.27,0.94-0.69,1.93-1.1,3.03"/>
			<path id="kvg:s-s9" stroke="#795548" d="M63.88,41c0.87,0.87,1.4,2,1.4,3.25c0,4.75,0,9,0,11"/>
			<path id="kvg:s-s10" stroke="#546E7A" d="M51.38,58.25c3.8-0.5,25.55-3.25,29.74-3.5"/>
		</g>
		<g id="kvg:06669-g5">
			<g id="kvg:06669-g6">
				<path id="kvg:s-s11" stroke="#E53935" d="M56.64,61.75c0.08,0.79,0.32,2.1-0.16,3.18C53.25,72.25,45.5,84.5,28.67,94.17"/>
			</g>
			<g id="kvg:06669-g7">
				<path id="kvg:s-s12" stroke="#FB8C00" d="M69.19,59.37c0.97,0.97,1.26,2.29,1.26,3.91c0,6.84-0.14,14.22-0.14,19.57c0,9.03,1.07,10.44,13.22,10.44c12.6,0,13.36-2.28,13.36-8.31"/>
			</g>
		</g>
	</g>
</g>
</g>
<g id="kvg:StrokeNumbers_06669" style="font-size:18;fill:#E53935;font-weight:bold;stroke:#fff;stroke-width:1.5;paint-order:stroke">
	<text transform="matrix(1 0 0 1 8.25 34.63)" fill="#E53935">1</text>
	<text transform="matrix(1 0 0 1 17.25 22.63)" fill="#FB8C00">2</text>
	<text transform="matrix(1 0 0 1 20.25 42.05)" fill="#FDD835">3</text>
	<text transform="matrix(1 0 0 1 20.25 64.48)" fill="#43A047">4</text>
	<text transform="matrix(1 0 0 1 48.75 18.13)" fill="#1E88E5">5</text>
	<text transform="matrix(1 0 0 1 64.50 17.50)" fill="#8E24AA">6</text>
	<text transform="matrix(1 0 0 1 41.25 49.55)" fill="#EC407A">7</text>
	<text transform="matrix(1 0 0 1 50.50 38.50)" fill="#00ACC1">8</text>
	<text transform="matrix(1 0 0 1 57.50 47.50)" fill="#795548">9</text>
	<text transform="matrix(1 0 0 1 53.25 54.05)" fill="#546E7A">10</text>
	<text transform="matrix(1 0 0 1 42.75 70.50)" fill="#E53935">11</text>
	<text transform="matrix(1 0 0 1 60.50 74.50)" fill="#FB8C00">12</text>
</g>
</svg>
