<?xml version="1.0" encoding="UTF-8"?>
<svg xmlns="http://www.w3.org/2000/svg" width="109" height="109" viewBox="0 0 109 109">
<g id="kvg:StrokePaths_06674" style="fill:none;stroke:#000000;stroke-width:3;stroke-linecap:round;stroke-linejoin:round;">
<g id="kvg:06674">
	<g id="kvg:06674-g1">
		<path id="kvg:s-s1" stroke="#E53935" d="M13.75,26.83c0.96,0.96,1.7,2.45,1.7,3.73c0,1.29-0.23,35.36-0.23,36c0,0.64,0.12,1.64,0.23,2.93"/>
		<path id="kvg:s-s2" stroke="#FB8C00" d="M15.81,27.88c5.12-0.6,17.72-1.74,19.1-1.89c1.51-0.16,2.47,1.78,2.36,2.73c-0.24,1.93-0.35,21.93-0.35,36.08c0,1.46-0.12,3.09-0.12,4.05"/>
		<path id="kvg:s-s3" stroke="#FDD835" d="M16.39,46.64c2.68,0,16.56-1.61,19.59-1.61"/>
		<path id="kvg:s-s4" stroke="#43A047" d="M16.04,66.73c3.97,0,14.58-1.29,19.71-1.29"/>
	</g>
	<g id="kvg:06674-g2">
		<g id="kvg:06674-g3">
			<path id="kvg:s-s5" stroke="#1E88E5" d="M50.36,23.41c1.67,0.61,3.55,0.48,5.27,0.28c7.29-0.85,20.21-2.83,27.12-3.54c2.06-0.21,4.13-0.38,6.14,0.26"/>
			<path id="kvg:s-s6" stroke="#8E24AA" d="M66.9,9.63c1.3,1.3,1.78,2.62,1.78,3.87c0,0.45-0.01,20.47,0.06,30.49"/>
			<path id="kvg:s-s7" stroke="#EC407A" d="M52.02,34.52c1.21,0.27,3.43,0.17,4.63,0.02c9.57-1.17,17.91-2.42,26.31-3.29c1.99-0.21,4.17-0.25,5.49-0.02"/>
			<path id="kvg:s-s8" stroke="#00ACC1" d="M44.63,46.64c2.23,0.56,4.53,0.38,6.78,0.13c10.69-1.19,31.35-3.45,40.46-4.16c2.16-0.17,4.95-0.07,6.88,0.51"/>
		</g>
		<g id="kvg:06674-g4">
			<path id="kvg:s-s9" stroke="#795548" d="M54.65,54.97c1,1,1.44,2.03,1.44,3.29c0,4-0.06,20.62-0.06,35.76c0,1.73,0,3.36,0,4.72"/>
			<path id="kvg:s-s10" stroke="#546E7A" d="M56.79,56.11c7.06-0.88,25.13-3.24,26.51-3.37c3.18-0.3,3.97,1.01,3.97,3.33c0,2.94-0.6,25.77-0.6,37.83c0,8.61-3.43,3.36-5.75,0.84"/>
			<path id="kvg:s-s11" stroke="#E53935" d="M57.28,67.03c5.09-0.53,20.97-1.9,28.6-2.43"/>
			<path id="kvg:s-s12" stroke="#FB8C00" d="M57.88,79.02c6.12-0.4,19.37-1.77,27.61-2.08"/>
		</g>
	</g>
</g>
</g>
<g id="kvg:StrokeNumbers_06674" style="font-size:18;fill:#E53935;font-weight:bold;stroke:#fff;stroke-width:1.5;paint-order:stroke">
	<text transform="matrix(1 0 0 1 8.50 34.50)" fill="#E53935">1</text>
	<text transform="matrix(1 0 0 1 15.75 24.13)" fill="#FB8C00">2</text>
	<text transform="matrix(1 0 0 1 20.50 42.13)" fill="#FDD835">3</text>
	<text transform="matrix(1 0 0 1 20.33 63.13)" fill="#43A047">4</text>
	<text transform="matrix(1 0 0 1 43.50 24.50)" fill="#1E88E5">5</text>
	<text transform="matrix(1 0 0 1 58.50 10.50)" fill="#8E24AA">6</text>
	<text transform="matrix(1 0 0 1 44.50 34.63)" fill="#EC407A">7</text>
	<text transform="matrix(1 0 0 1 41.25 43.63)" fill="#00ACC1">8</text>
	<text transform="matrix(1 0 0 1 48.50 62.50)" fill="#795548">9</text>
	<text transform="matrix(1 0 0 1 56.50 53.50)" fill="#546E7A">10</text>
	<text transform="matrix(1 0 0 1 59.25 64.50)" fill="#E53935">11</text>
	<text transform="matrix(1 0 0 1 59.06 76.50)" fill="#FB8C00">12</text>
</g>
</svg>
