<?xml version="1.0" encoding="UTF-8"?>
<svg xmlns="http://www.w3.org/2000/svg" width="109" height="109" viewBox="0 0 109 109">
<g id="kvg:StrokePaths_06697" style="fill:none;stroke:#000000;stroke-width:3;stroke-linecap:round;stroke-linejoin:round;">
<g id="kvg:06697">
	<g id="kvg:06697-g1">
		<path id="kvg:s-s1" stroke="#E53935" d="M13.75,31.36c0.85,0.85,1.39,2.13,1.39,3.58c0,1.21-0.07,30.39-0.04,40.88c0.01,2.02,0.02,3.32,0.04,3.56"/>
		<path id="kvg:s-s2" stroke="#FB8C00" d="M16.27,32.76c4.13-0.44,13.71-1.5,14.98-1.7c2.89-0.44,4.5,1,4.25,3.75c-0.16,1.81-0.82,29.69-1.04,39.5c-0.04,1.99-0.07,3.25-0.07,3.44"/>
		<path id="kvg:s-s3" stroke="#FDD835" d="M16.24,53.77c3.51-0.33,13.63-1.71,17.6-2.06"/>
		<path id="kvg:s-s4" stroke="#43A047" d="M16.17,76.13c4.7-0.44,10.7-1.19,17.01-1.84"/>
	</g>
	<g id="kvg:06697-g2">
		<g id="kvg:06697-g3">
			<g id="kvg:06697-g4">
				<path id="kvg:s-s5" stroke="#1E88E5" d="M65.06,11.56c1.04,1.03,1.66,2.26,1.66,3.68c0,4.48,0.02,5.86,0.16,9.66"/>
				<path id="kvg:s-s6" stroke="#8E24AA" d="M46.27,27.81c1.66,0.26,3.88,0.11,5.64-0.05c7.8-0.7,20.96-2.82,31.88-3.82c2.18-0.2,4.02-0.13,5.73,0.36"/>
			</g>
			<g id="kvg:06697-g5">
				<path id="kvg:s-s7" stroke="#EC407A" d="M53.75,34.07c3.81,4.94,4.6,9.68,5.14,13.15"/>
				<path id="kvg:s-s8" stroke="#00ACC1" d="M78.59,28.57c0.16,1,0.29,2.25,0.04,3.27c-1.32,5.36-3.6,11.36-4.75,13.86"/>
				<path id="kvg:s-s9" stroke="#795548" d="M40.8,51.3c1.7,0.26,4.77,0.55,6.56,0.36c12.76-1.35,30.26-3.1,42.25-3.78c3.06-0.17,6.49,0,8.34,0.59"/>
			</g>
		</g>
		<g id="kvg:06697-g6">
			<path id="kvg:s-s10" stroke="#546E7A" d="M51.59,61.52c0.49,0.81,0.99,1.81,0.99,2.92c0,0.91-0.08,22.69-0.1,31.12c-0.01,1.85-0.01,3.05-0.01,3.26"/>
			<path id="kvg:s-s11" stroke="#E53935" d="M53.27,63.01c6.92-0.82,21.98-2.82,25.64-3.32c2.5-0.34,3.82,1.13,3.82,3.81c0,2.39-0.7,22.36-0.7,29.57c0,1.12-0.01,2.37-0.01,3.61"/>
			<path id="kvg:s-s12" stroke="#FB8C00" d="M53.62,77.95c6.5-0.63,21.63-2.25,28-2.59"/>
			<path id="kvg:s-s13" stroke="#FDD835" d="M53.64,95.61c6.98-0.67,19.78-1.94,26.91-2.32"/>
		</g>
	</g>
</g>
</g>
<g id="kvg:StrokeNumbers_06697" style="font-size:18;fill:#E53935;font-weight:bold;stroke:#fff;stroke-width:1.5;paint-order:stroke">
	<text transform="matrix(1 0 0 1 6.75 39.70)" fill="#E53935">1</text>
	<text transform="matrix(1 0 0 1 17.25 29.20)" fill="#FB8C00">2</text>
	<text transform="matrix(1 0 0 1 20.25 48.70)" fill="#FDD835">3</text>
	<text transform="matrix(1 0 0 1 20.25 72.12)" fill="#43A047">4</text>
	<text transform="matrix(1 0 0 1 62.25 6.70)" fill="#1E88E5">5</text>
	<text transform="matrix(1 0 0 1 45.75 23.23)" fill="#8E24AA">6</text>
	<text transform="matrix(1 0 0 1 44.25 38.53)" fill="#EC407A">7</text>
	<text transform="matrix(1 0 0 1 69.75 35.20)" fill="#00ACC1">8</text>
	<text transform="matrix(1 0 0 1 42.75 48.70)" fill="#795548">9</text>
	<text transform="matrix(1 0 0 1 39.75 69.45)" fill="#546E7A">10</text>
	<text transform="matrix(1 0 0 1 56.25 59.26)" fill="#E53935">11</text>
	<text transform="matrix(1 0 0 1 57.75 74.20)" fill="#FB8C00">12</text>
	<text transform="matrix(1 0 0 1 56.25 92.87)" fill="#FDD835">13</text>
</g>
</svg>
