<?xml version="1.0" encoding="UTF-8"?>
<svg xmlns="http://www.w3.org/2000/svg" width="109" height="109" viewBox="0 0 109 109">
<g id="kvg:StrokePaths_066b4" style="fill:none;stroke:#000000;stroke-width:3;stroke-linecap:round;stroke-linejoin:round;">
<g id="kvg:066b4">
	<g id="kvg:066b4-g1">
		<path id="kvg:s-s1" stroke="#E53935" d="M29.02,14.22c0.7,0.69,1.36,1.58,1.51,2.3c0.85,4.11,2.26,10.88,3.45,16.44c0.43,1.98,0.88,4.32,1.05,5.04"/>
		<path id="kvg:s-s2" stroke="#FB8C00" d="M31.12,15.81c5.14-0.74,33.44-3.43,40.15-3.97c2.37-0.19,4.02,1.3,3.29,4.06c-0.6,2.25-2.5,9.75-3.63,14.39c-0.52,2.12-0.87,3.65-0.87,3.81"/>
		<path id="kvg:s-s3" stroke="#FDD835" d="M33.62,25.42c5.38-0.67,33.66-3.21,38.01-3.21"/>
		<path id="kvg:s-s4" stroke="#43A047" d="M35.44,35.2c10.81-1.2,24.16-2.44,33.93-2.77"/>
	</g>
	<g id="kvg:066b4-g2">
		<g id="kvg:066b4-g3">
			<g id="kvg:066b4-g4">
				<path id="kvg:s-s5" stroke="#1E88E5" d="M29.13,47.55c2.24,0.45,4.21,0.33,6.12,0.09c10.62-1.39,27.25-3.01,37.74-3.82c2.16-0.17,4.47-0.28,6.6,0.18"/>
				<path id="kvg:s-s6" stroke="#8E24AA" d="M41.63,41.28c0.92,0.92,1.37,2.2,1.46,3.09c0.53,4.88,1.28,9.51,1.93,14.66"/>
				<path id="kvg:s-s7" stroke="#EC407A" d="M64.96,38.5c0.54,1,0.87,2.13,0.71,3.34c-0.79,6.03-1.17,8.66-2.35,15.4"/>
				<path id="kvg:s-s8" stroke="#00ACC1" d="M18.3,62.29c1.33,0.47,3.77,0.61,5.09,0.47c8.68-0.87,51.33-5.89,62.42-6.32c2.21-0.08,3.54,0.23,4.65,0.46"/>
			</g>
			<g id="kvg:066b4-g5">
				<path id="kvg:s-s9" stroke="#795548" d="M41.59,61.73c0.16,0.89-0.36,1.6-0.92,2.1c-5.05,4.54-16.17,12.29-28.14,17.2"/>
				<path id="kvg:s-s10" stroke="#546E7A" d="M64.25,58.75c4.32,2.75,17.5,11.25,22.5,13.5c1.59,0.71,3.5,1.75,6.75,2.25"/>
			</g>
		</g>
		<g id="kvg:066b4-g6">
			<path id="kvg:s-s11" stroke="#E53935" d="M53.8,64.83c0.68,0.68,1.03,1.67,1.03,3.06c0,13.11,0.04,22.95,0.04,26.37c0,7.99-4.24,1.86-5.9-0.08"/>
			<path id="kvg:s-s12" stroke="#FB8C00" d="M40.31,70.77c2.11,1.01,5.46,4.14,5.98,5.71"/>
			<path id="kvg:s-s13" stroke="#FDD835" d="M29.85,91.25c0.89,0.69,2.4,0.33,3.35-0.15c3.17-1.6,6.42-3.6,11.66-6.78"/>
			<path id="kvg:s-s14" stroke="#43A047" d="M69.33,69.03c0.07,0.68-0.1,1.31-0.5,1.89c-0.96,1.71-3.16,4.06-6.23,6.7"/>
			<path id="kvg:s-s15" stroke="#1E88E5" d="M63.46,82.75c5.79,2,13.91,6.5,17.58,11.18"/>
		</g>
	</g>
</g>
</g>
<g id="kvg:StrokeNumbers_066b4" style="font-size:18;fill:#E53935;font-weight:bold;stroke:#fff;stroke-width:1.5;paint-order:stroke">
	<text transform="matrix(1 0 0 1 24.50 23.50)" fill="#E53935">1</text>
	<text transform="matrix(1 0 0 1 32.25 12.05)" fill="#FB8C00">2</text>
	<text transform="matrix(1 0 0 1 38.25 22.50)" fill="#FDD835">3</text>
	<text transform="matrix(1 0 0 1 38.25 32.90)" fill="#43A047">4</text>
	<text transform="matrix(1 0 0 1 22.50 49.33)" fill="#1E88E5">5</text>
	<text transform="matrix(1 0 0 1 33.75 45.50)" fill="#8E24AA">6</text>
	<text transform="matrix(1 0 0 1 56.25 41.50)" fill="#EC407A">7</text>
	<text transform="matrix(1 0 0 1 11.50 64.50)" fill="#00ACC1">8</text>
	<text transform="matrix(1 0 0 1 22.50 72.50)" fill="#795548">9</text>
	<text transform="matrix(1 0 0 1 80.25 66.13)" fill="#546E7A">10</text>
	<text transform="matrix(1 0 0 1 45.50 68.50)" fill="#E53935">11</text>
	<text transform="matrix(1 0 0 1 33.50 77.50)" fill="#FB8C00">12</text>
	<text transform="matrix(1 0 0 1 19.50 93.50)" fill="#FDD835">13</text>
	<text transform="matrix(1 0 0 1 59.50 70.50)" fill="#43A047">14</text>
	<text transform="matrix(1 0 0 1 58.50 90.50)" fill="#1E88E5">15</text>
</g>
</svg>
