<?xml version="1.0" encoding="UTF-8"?>
<svg xmlns="http://www.w3.org/2000/svg" width="109" height="109" viewBox="0 0 109 109">
<g id="kvg:StrokePaths_066dc" style="fill:none;stroke:#000000;stroke-width:3;stroke-linecap:round;stroke-linejoin:round;">
<g id="kvg:066dc">
	<g id="kvg:066dc-g1">
		<path id="kvg:s-s1" stroke="#E53935" d="M15.5,29.81c1,0.69,1.61,2.1,1.61,3.52c0,1.42-0.2,40.33-0.2,41.04c0,0.71-0.05,1.76-0.05,2.88"/>
		<path id="kvg:s-s2" stroke="#FB8C00" d="M18.06,31.1c4.41-0.66,14.19-2.61,15.41-2.61c1.78,0,2.54,1.75,2.54,3.02c0,2.14-0.31,25.27-0.3,40.9c0,1.61-0.1,2.31-0.1,3.38"/>
		<path id="kvg:s-s3" stroke="#FDD835" d="M18.42,51.59c3.71-0.46,11.71-1.59,15.98-2.03"/>
		<path id="kvg:s-s4" stroke="#43A047" d="M18.12,74.29c4.38-0.42,10.63-1.67,16.08-2.17"/>
	</g>
	<g id="kvg:066dc-g2">
		<g id="kvg:066dc-g3">
			<g id="kvg:066dc-g4">
				<path id="kvg:s-s5" stroke="#1E88E5" d="M41.5,16.5c1.5,0.75,2.5,0.75,4.75,0.5S56.5,15.5,58,15.25s3.5,1.5,3.5,3c0,1.22-0.17,14.07-0.23,20c-0.01,1.35-0.02,2.33-0.02,2.75"/>
				<path id="kvg:s-s6" stroke="#8E24AA" d="M43.75,28.25c1.25,0.38,2.98,0.16,4,0c2.38-0.38,9.75-2,12-2.25"/>
				<path id="kvg:s-s7" stroke="#EC407A" d="M45,38.75c1.25,0.38,2.5,0.25,3.5,0s9.25-2,11.5-2.25"/>
			</g>
			<g id="kvg:066dc-g5">
				<path id="kvg:s-s8" stroke="#00ACC1" d="M70.75,14.75c1.5,0.75,2.75,1,5,0.75s12.5-1.75,14-2s3.5,1.5,3.5,3c0,1.19-0.16,13.38-0.22,19.5C93.01,37.6,93,38.78,93,39.25"/>
				<path id="kvg:s-s9" stroke="#795548" d="M74.25,24.5c1.25,0.5,2.99,0.45,4,0.25c2.5-0.5,11.25-2,13.5-2.25"/>
				<path id="kvg:s-s10" stroke="#546E7A" d="M74,35.75c1.5,0.38,3,0.25,4,0s11.5-2,13.75-2.25"/>
			</g>
		</g>
		<g id="kvg:066dc-g6">
			<g id="kvg:066dc-g7">
				<path id="kvg:s-s11" stroke="#E53935" d="M54.25,45c0.15,1.27-0.04,2.93-0.52,4.02c-3.07,6.93-6.95,12.8-13.98,21.23"/>
				<path id="kvg:s-s12" stroke="#FB8C00" d="M50.55,57.79c0.45,0.96,0.65,1.7,0.7,2.95c0.24,7.07-0.2,22.81-0.27,31.26c-0.02,2.51-0.01,4.47,0.06,5.5"/>
			</g>
			<path id="kvg:s-s13" stroke="#FDD835" d="M74.25,42.75c0.05,0.54-0.01,1.25-0.17,1.72c-1,2.96-2.27,5.25-4.57,8.86"/>
			<path id="kvg:s-s14" stroke="#43A047" d="M50.98,56.53c5.87-0.68,25.46-2.41,34.02-3.27c1.92-0.19,3.25-0.26,4.86,0.08"/>
			<path id="kvg:s-s15" stroke="#1E88E5" d="M69.83,55.88c0.67,1.12,1.12,2.27,1.12,2.83c0,5.71,0.29,22.65,0.08,31.64"/>
			<path id="kvg:s-s16" stroke="#8E24AA" d="M52.51,68.36c5.25-0.53,21.05-2.1,29.5-2.84c2-0.17,3.25-0.02,4.91,0.03"/>
			<path id="kvg:s-s17" stroke="#EC407A" d="M52.18,79.71c5.66-0.46,22.39-1.91,31.08-2.66c2.3-0.2,3.23-0.05,4.61,0.09"/>
			<path id="kvg:s-s18" stroke="#00ACC1" d="M52.11,93.02c5.61-0.65,26.25-2.06,36.63-2.86c2.93-0.23,4.26-0.16,5.7,0"/>
		</g>
	</g>
</g>
</g>
<g id="kvg:StrokeNumbers_066dc" style="font-size:18;fill:#E53935;font-weight:bold;stroke:#fff;stroke-width:1.5;paint-order:stroke">
	<text transform="matrix(1 0 0 1 8.25 37.63)" fill="#E53935">1</text>
	<text transform="matrix(1 0 0 1 18.50 27.13)" fill="#FB8C00">2</text>
	<text transform="matrix(1 0 0 1 21.50 47.50)" fill="#FDD835">3</text>
	<text transform="matrix(1 0 0 1 21.75 69.13)" fill="#43A047">4</text>
	<text transform="matrix(1 0 0 1 38.50 13.50)" fill="#1E88E5">5</text>
	<text transform="matrix(1 0 0 1 39.50 26.50)" fill="#8E24AA">6</text>
	<text transform="matrix(1 0 0 1 39.50 39.13)" fill="#EC407A">7</text>
	<text transform="matrix(1 0 0 1 68.50 11.50)" fill="#00ACC1">8</text>
	<text transform="matrix(1 0 0 1 68.25 24.13)" fill="#795548">9</text>
	<text transform="matrix(1 0 0 1 66.75 34.50)" fill="#546E7A">10</text>
	<text transform="matrix(1 0 0 1 42.75 49.63)" fill="#E53935">11</text>
	<text transform="matrix(1 0 0 1 39.75 75)" fill="#FB8C00">12</text>
	<text transform="matrix(1 0 0 1 77 45)" fill="#FDD835">13</text>
	<text transform="matrix(1 0 0 1 55 53.5)" fill="#43A047">14</text>
	<text transform="matrix(1 0 0 1 73 62.38)" fill="#1E88E5">15</text>
	<text transform="matrix(1 0 0 1 54.12 65.75)" fill="#8E24AA">16</text>
	<text transform="matrix(1 0 0 1 54.12 76.88)" fill="#EC407A">17</text>
	<text transform="matrix(1 0 0 1 53.88 90.00)" fill="#00ACC1">18</text>
</g>
</svg>
