<?xml version="1.0" encoding="UTF-8"?>
<svg xmlns="http://www.w3.org/2000/svg" width="109" height="109" viewBox="0 0 109 109">
<g id="kvg:StrokePaths_066f8" style="fill:none;stroke:#000000;stroke-width:3;stroke-linecap:round;stroke-linejoin:round;">
<g id="kvg:066f8">
	<g id="kvg:066f8-g1">
		<g id="kvg:066f8-g2">
			<path id="kvg:s-s1" stroke="#E53935" d="M30.74,20.63c2.01,0.49,3.84,0.58,5.91,0.39c9.45-0.89,28.54-2.97,37.54-3.64c2.92-0.22,4.18,1.24,3.66,3.55c-0.4,1.76-2.56,9.62-3.88,16.56"/>
			<path id="kvg:s-s2" stroke="#FB8C00" d="M11.89,32.34c3.17,0.66,5.87,0.47,9.58,0.19c20.16-1.52,48.41-3.9,67.91-4.64c4.08-0.16,7.07,0.26,8.91,0.59"/>
			<path id="kvg:s-s3" stroke="#FDD835" d="M29.86,41.38c1.64,0.49,3.39,0.52,4.84,0.44c9.67-0.57,27.55-2.07,37.43-2.85c1.93-0.15,3.14-0.08,4.59,0.07"/>
		</g>
		<path id="kvg:s-s4" stroke="#43A047" d="M30.04,52.06c1.47,0.26,3.65,0.54,5.12,0.43c12.34-0.98,25.59-2.23,36.78-3.31c2.43-0.23,4.41-0.19,5.63-0.07"/>
		<path id="kvg:s-s5" stroke="#1E88E5" d="M17,63.44c2,0.58,5.67,0.57,7.66,0.41c20.78-1.7,42.92-3.93,61.09-4.48c3.33-0.1,5.33,0.15,6.99,0.42"/>
		<g id="kvg:066f8-g3">
			<path id="kvg:s-s6" stroke="#8E24AA" d="M52.69,9.52c1.33,1.33,1.95,2.98,1.95,4.71c0,5.67,0.22,33.72,0.31,45.77"/>
		</g>
	</g>
	<g id="kvg:066f8-g4">
		<path id="kvg:s-s7" stroke="#EC407A" d="M31.25,71.75c0.43,0.46,1.24,1.44,1.43,2.7c1.11,7.42,2.22,14.33,3.18,20.74c0.18,1.2,0.34,2.38,0.49,3.57"/>
		<path id="kvg:s-s8" stroke="#00ACC1" d="M33.75,73.75c14.98-2.05,36.1-3.71,44.41-4.26c3.33-0.22,5.09,1.76,4.6,4.33c-0.99,5.22-2.01,11.55-3.81,19.41c-0.3,1.31-0.74,2.55-1.15,3.72"/>
		<path id="kvg:s-s9" stroke="#795548" d="M35.5,83.75C46.79,83.03,65.75,81.5,80.25,81"/>
		<path id="kvg:s-s10" stroke="#546E7A" d="M37.25,95.25c10.7-0.68,26.5-1.38,40.5-2"/>
	</g>
</g>
</g>
<g id="kvg:StrokeNumbers_066f8" style="font-size:18;fill:#E53935;font-weight:bold;stroke:#fff;stroke-width:1.5;paint-order:stroke">
	<text transform="matrix(1 0 0 1 23.50 21.50)" fill="#E53935">1</text>
	<text transform="matrix(1 0 0 1 4.50 33.50)" fill="#FB8C00">2</text>
	<text transform="matrix(1 0 0 1 22.50 41.50)" fill="#FDD835">3</text>
	<text transform="matrix(1 0 0 1 21.75 52.50)" fill="#43A047">4</text>
	<text transform="matrix(1 0 0 1 9.50 64.50)" fill="#1E88E5">5</text>
	<text transform="matrix(1 0 0 1 42.50 10.50)" fill="#8E24AA">6</text>
	<text transform="matrix(1 0 0 1 23.50 77.50)" fill="#EC407A">7</text>
	<text transform="matrix(1 0 0 1 35.50 70.50)" fill="#00ACC1">8</text>
	<text transform="matrix(1 0 0 1 38.50 81.50)" fill="#795548">9</text>
	<text transform="matrix(1 0 0 1 38.50 92.50)" fill="#546E7A">10</text>
</g>
</svg>
