<?xml version="1.0" encoding="UTF-8"?>
<svg xmlns="http://www.w3.org/2000/svg" width="109" height="109" viewBox="0 0 109 109">
<g id="kvg:StrokePaths_06709" style="fill:none;stroke:#000000;stroke-width:3;stroke-linecap:round;stroke-linejoin:round;">
<g id="kvg:06709">
	<path id="kvg:s-s1" stroke="#E53935" d="M51.66,13.68c0.84,1.2,0.73,3.01,0.31,4.68c-3.11,12.34-12.85,30.9-33.08,44.76"/>
	<path id="kvg:s-s2" stroke="#FB8C00" d="M14.25,30.2c3.73,1.33,8.33,0.33,12.15-0.02c14.5-1.3,45.59-4.1,61.48-4.6c3.22-0.1,6.46-0.22,9.62,0.46"/>
	<g id="kvg:06709-g1">
		<path id="kvg:s-s3" stroke="#FDD835" d="M42.48,44.64c0.75,0.75,1.44,2.11,1.44,3.57c0,2.66-0.03,31.04-0.05,44.91c0,3.26,0,5.71,0,6.85"/>
		<path id="kvg:s-s4" stroke="#43A047" d="M44.86,47.17c3.64-0.54,23.98-3.91,25.74-4.18c2.39-0.36,4.22,1.01,4.22,3.68c0,6.08-0.09,30.61-0.09,46.28c0,11.05-6.11,3.43-7.75,1.74"/>
		<path id="kvg:s-s5" stroke="#1E88E5" d="M44.86,60.56c8.64-0.94,21.68-2.15,28.82-2.73"/>
		<path id="kvg:s-s6" stroke="#8E24AA" d="M45.21,74.09c6.35-0.58,20.99-2.32,28.33-2.71"/>
	</g>
</g>
</g>
<g id="kvg:StrokeNumbers_06709" style="font-size:18;fill:#E53935;font-weight:bold;stroke:#fff;stroke-width:1.5;paint-order:stroke">
	<text transform="matrix(1 0 0 1 45.00 14.00)" fill="#E53935">1</text>
	<text transform="matrix(1 0 0 1 7.50 29.50)" fill="#FB8C00">2</text>
	<text transform="matrix(1 0 0 1 36.50 58.50)" fill="#FDD835">3</text>
	<text transform="matrix(1 0 0 1 46.50 43.50)" fill="#43A047">4</text>
	<text transform="matrix(1 0 0 1 48.64 56.50)" fill="#1E88E5">5</text>
	<text transform="matrix(1 0 0 1 48.50 70.50)" fill="#8E24AA">6</text>
</g>
</svg>
