<?xml version="1.0" encoding="UTF-8"?>
<svg xmlns="http://www.w3.org/2000/svg" width="109" height="109" viewBox="0 0 109 109">
<g id="kvg:StrokePaths_06734" style="fill:none;stroke:#000000;stroke-width:3;stroke-linecap:round;stroke-linejoin:round;">
<g id="kvg:06734">
	<g id="kvg:06734-g1">
		<path id="kvg:s-s1" stroke="#E53935" d="M14.28,37.47c1.28,0.89,4.97,0.37,6.36,0.13c6.66-1.16,19.23-3.51,25.91-4.72c1.77-0.32,4.5-0.47,6.21,0.24"/>
		<path id="kvg:s-s2" stroke="#FB8C00" d="M35.61,14.25c1.01,1.01,1.54,2.62,1.54,4.67c0,0.77,0.06,47.95,0.06,70.33c0,4.79-0.05,7.54-0.08,8.62"/>
		<path id="kvg:s-s3" stroke="#FDD835" d="M36.44,36.28c0,1.72-0.85,4.21-1.49,5.56c-5.32,11.33-10.7,19.65-21.59,31.24"/>
		<path id="kvg:s-s4" stroke="#43A047" d="M40.88,46.62c3.26,1.88,8.62,7.98,11.38,11.62"/>
	</g>
	<g id="kvg:06734-g2">
		<path id="kvg:s-s5" stroke="#1E88E5" d="M67.31,12.63c1.09,1.09,1.51,2.74,1.51,4.5c0,0.59,0.02,50.89,0.01,71.62c0,5.28,0,8.68-0.01,8.88"/>
		<path id="kvg:s-s6" stroke="#8E24AA" d="M72.75,41.25c7.5,4.25,17.5,12,22,20"/>
	</g>
</g>
</g>
<g id="kvg:StrokeNumbers_06734" style="font-size:18;font-weight:bold;stroke:#fff;stroke-width:1.5;paint-order:stroke">
	<text transform="matrix(1 0 0 1 6.75 36.13)" fill="#E53935">1</text>
	<text transform="matrix(1 0 0 1 26.25 15.13)" fill="#FB8C00">2</text>
	<text transform="matrix(1 0 0 1 23.25 49.63)" fill="#FDD835">3</text>
	<text transform="matrix(1 0 0 1 43.50 45.50)" fill="#43A047">4</text>
	<text transform="matrix(1 0 0 1 57.75 12.13)" fill="#1E88E5">5</text>
	<text transform="matrix(1 0 0 1 76.50 40.50)" fill="#8E24AA">6</text>
</g>
</svg>
