<?xml version="1.0" encoding="UTF-8"?>
<svg xmlns="http://www.w3.org/2000/svg" width="109" height="109" viewBox="0 0 109 109">
<g id="kvg:StrokePaths_06731" style="fill:none;stroke:#000000;stroke-width:3;stroke-linecap:round;stroke-linejoin:round;">
<g id="kvg:06731">
	<g id="kvg:06731-g1">
		<path id="kvg:s-s1" stroke="#E53935" d="M35.33,18.25c0.08,1.16,0.09,2.19-0.3,3.3c-3.18,9.12-7.64,16.58-15.78,23.99"/>
	</g>
	<g id="kvg:06731-g2">
		<path id="kvg:s-s2" stroke="#FB8C00" d="M32.88,34.02c1.77,0.57,4.19,0.39,6,0.12c9.58-1.46,23.21-3.72,33.25-4.74c2.14-0.22,4.49-0.21,6.59,0.2"/>
		<g id="kvg:06731-g3">
			<path id="kvg:s-s3" stroke="#FDD835" d="M17.94,54.5c3.45,0.97,6.81,0.56,10.33,0.03c13.49-2.01,36.72-5.03,51.36-6.28c3.01-0.26,6.1,0,9.06,0.5"/>
			<path id="kvg:s-s4" stroke="#43A047" d="M53.16,12.25c0.98,0.98,1.42,2.75,1.42,4.5c0,12.49-0.06,49.56-0.08,72.5c0,2.77,0,5.33,0,7.62"/>
			<path id="kvg:s-s5" stroke="#1E88E5" d="M51.25,52.25c0,1.5-1.06,3.01-2.18,4.48C41.04,67.35,28.62,79.12,15,86"/>
			<path id="kvg:s-s6" stroke="#8E24AA" d="M55.5,52.25c5.85,5.85,19.07,18.73,28.12,26.04c2.99,2.41,5.78,4.33,9.13,6.21"/>
		</g>
	</g>
</g>
</g>
<g id="kvg:StrokeNumbers_06731" style="font-size:18;font-weight:bold;stroke:#fff;stroke-width:1.5;paint-order:stroke">
	<text transform="matrix(1 0 0 1 27.50 18.50)" fill="#E53935">1</text>
	<text transform="matrix(1 0 0 1 38.25 31.55)" fill="#FB8C00">2</text>
	<text transform="matrix(1 0 0 1 10.50 57.50)" fill="#FDD835">3</text>
	<text transform="matrix(1 0 0 1 44.25 12.50)" fill="#43A047">4</text>
	<text transform="matrix(1 0 0 1 35.50 64.63)" fill="#1E88E5">5</text>
	<text transform="matrix(1 0 0 1 68.25 61.63)" fill="#8E24AA">6</text>
</g>
</svg>
