<?xml version="1.0" encoding="UTF-8"?>
<svg xmlns="http://www.w3.org/2000/svg" width="109" height="109" viewBox="0 0 109 109">
<g id="kvg:StrokePaths_06749" style="fill:none;stroke:#000000;stroke-width:3;stroke-linecap:round;stroke-linejoin:round;">
<g id="kvg:06749">
	<g id="kvg:06749-g1">
		<path id="kvg:s-s1" stroke="#E53935" d="M14.78,37.72c2.47,0.66,5.37,0.35,6.85,0.14c6.65-0.93,17.33-2.94,23.04-4.03c1.27-0.24,2.96-0.45,4.35-0.21"/>
		<path id="kvg:s-s2" stroke="#FB8C00" d="M33.11,13.25c1.26,1.26,1.54,3.5,1.54,5.42c0,0.63-0.01,47.37-0.02,67.7c0,5.36,0,8.88,0,9.25"/>
		<path id="kvg:s-s3" stroke="#FDD835" d="M33.69,37.78c0,1.97-1.32,5.56-1.98,6.94C26.76,55.07,23.5,62,13.61,74.59"/>
		<path id="kvg:s-s4" stroke="#43A047" d="M37.22,45.15c3.9,2.98,8.4,7.48,11.53,12.6"/>
	</g>
	<g id="kvg:06749-g2">
		<path id="kvg:s-s5" stroke="#1E88E5" d="M82.7,13.25c0.08,0.67-0.21,1.58-0.66,2.46c-2.96,5.79-10.92,16.16-27.02,24.45"/>
		<path id="kvg:s-s6" stroke="#8E24AA" d="M86.98,37.61c0.1,0.76-0.1,1.85-0.69,2.78c-4.67,7.48-14.04,20.23-32.71,29.03"/>
		<path id="kvg:s-s7" stroke="#EC407A" d="M97.53,62c0.12,0.89-0.21,1.95-0.98,3.08C89,76.25,74.75,89.25,55.07,99"/>
	</g>
</g>
</g>
<g id="kvg:StrokeNumbers_06749" style="font-size:18;font-weight:bold;stroke:#fff;stroke-width:1.5;paint-order:stroke">
	<text transform="matrix(1 0 0 1 8.50 39.13)" fill="#E53935">1</text>
	<text transform="matrix(1 0 0 1 23.50 13.63)" fill="#FB8C00">2</text>
	<text transform="matrix(1 0 0 1 23.25 49.63)" fill="#FDD835">3</text>
	<text transform="matrix(1 0 0 1 41.50 46.63)" fill="#43A047">4</text>
	<text transform="matrix(1 0 0 1 74.50 14.50)" fill="#1E88E5">5</text>
	<text transform="matrix(1 0 0 1 78.75 37.55)" fill="#8E24AA">6</text>
	<text transform="matrix(1 0 0 1 89.50 61.50)" fill="#EC407A">7</text>
</g>
</svg>
