<?xml version="1.0" encoding="UTF-8"?>
<svg xmlns="http://www.w3.org/2000/svg" width="109" height="109" viewBox="0 0 109 109">
<g id="kvg:StrokePaths_06765" style="fill:none;stroke:#000000;stroke-width:3;stroke-linecap:round;stroke-linejoin:round;">
<g id="kvg:06765">
	<path id="kvg:s-s1" stroke="#E53935" d="M25.54,28.33c1.61,0.39,4.58,0.53,6.19,0.39c16.32-1.46,27.01-3.46,43.69-3.67c2.69-0.03,4.31,0.18,5.65,0.38"/>
	<g id="kvg:06765-g1">
		<path id="kvg:s-s2" stroke="#FB8C00" d="M30.12,37.62c2.85,2.07,7.16,7.91,7.88,11.12"/>
		<path id="kvg:s-s3" stroke="#FDD835" d="M74.52,33c0.08,0.98-0.11,1.9-0.58,2.77c-1.33,3.04-4.7,7.77-9.06,10.86"/>
		<g id="kvg:06765-g2">
			<path id="kvg:s-s4" stroke="#43A047" d="M16.62,57c2.28,0.5,4.9,0.74,8.42,0.5c14.81-1,39.08-3.5,58.03-4.25c3.54-0.14,6.33,0.25,8.55,0.5"/>
			<path id="kvg:s-s5" stroke="#1E88E5" d="M51.67,10.75c1.33,1,2.18,2.75,2.18,4.5c0,0.9,0.06,58.96-0.17,78c-0.03,2.77-0.07,4.71-0.1,5.5"/>
			<g id="kvg:06765-g3">
				<path id="kvg:s-s6" stroke="#8E24AA" d="M49.75,56.5c0,1.5-0.44,2.48-0.82,3.11C42.37,70.49,29,83.75,15.75,90.5"/>
			</g>
			<path id="kvg:s-s7" stroke="#EC407A" d="M55,56.25c4.38,3.88,19.75,19,29.73,26.28c2.82,2.06,6.52,4.5,10.02,5.22"/>
		</g>
	</g>
</g>
</g>
<g id="kvg:StrokeNumbers_06765" style="font-size:18;fill:#E53935;font-weight:bold;stroke:#fff;stroke-width:1.5;paint-order:stroke">
	<text transform="matrix(1 0 0 1 18.50 28.50)" fill="#E53935">1</text>
	<text transform="matrix(1 0 0 1 23.50 40.63)" fill="#FB8C00">2</text>
	<text transform="matrix(1 0 0 1 65.50 35.50)" fill="#FDD835">3</text>
	<text transform="matrix(1 0 0 1 9.50 58.50)" fill="#43A047">4</text>
	<text transform="matrix(1 0 0 1 42.50 13.63)" fill="#1E88E5">5</text>
	<text transform="matrix(1 0 0 1 35.50 67.50)" fill="#8E24AA">6</text>
	<text transform="matrix(1 0 0 1 70.50 66.50)" fill="#EC407A">7</text>
</g>
</svg>
