<?xml version="1.0" encoding="UTF-8"?>
<svg xmlns="http://www.w3.org/2000/svg" width="109" height="109" viewBox="0 0 109 109">
<g id="kvg:StrokePaths_0679c" style="fill:none;stroke:#000000;stroke-width:3;stroke-linecap:round;stroke-linejoin:round;">
<g id="kvg:0679c">
	<g id="kvg:0679c-g1">
		<g id="kvg:0679c-g2">
			<path id="kvg:s-s1" stroke="#E53935" d="M28.27,16.76c1.11,1.11,1.66,2.37,1.78,3.35c0.28,2.35,2.58,16.8,3.9,24.85c0.23,1.42,0.43,2.63,0.59,3.55"/>
			<path id="kvg:s-s2" stroke="#FB8C00" d="M30.44,18.39c8.07-0.87,34.21-3.65,42.93-4.44c4.09-0.37,6.75,1.64,5.63,6.08c-1.27,5.05-3.81,15.36-5.37,21.47c-0.38,1.49-0.7,2.73-0.93,3.59"/>
			<path id="kvg:s-s3" stroke="#FDD835" d="M33.08,32.26c8.67-0.89,35.17-3.64,42.47-3.9"/>
			<path id="kvg:s-s4" stroke="#43A047" d="M35.44,46.22c6.06-0.53,29.31-2.7,36.85-3.15"/>
		</g>
	</g>
	<g id="kvg:0679c-g3">
		<path id="kvg:s-s5" stroke="#1E88E5" d="M17.5,59.75c3.11,1.04,6.31,0.96,9.49,0.59c12.89-1.47,39.78-3.8,55.39-4.64c2.89-0.16,5.79-0.27,8.63,0.3"/>
		<g id="kvg:0679c-g4">
			<g id="kvg:0679c-g5">
				<path id="kvg:s-s6" stroke="#8E24AA" d="M52.75,18.75c1.12,1.12,1.5,2.72,1.5,3.75c0,2.49-0.19,49.36-0.24,67.12C54,92.37,54,94.41,54,95.5"/>
			</g>
		</g>
		<path id="kvg:s-s7" stroke="#EC407A" d="M50.5,59c0,1-0.6,2.07-1.08,2.75C42.13,72.13,26.63,85.39,13.88,91"/>
		<path id="kvg:s-s8" stroke="#00ACC1" d="M55.88,59.62c4.88,4,22.25,17.62,29.79,23.25c2.33,1.74,4.48,3.16,7.21,4.25"/>
	</g>
</g>
</g>
<g id="kvg:StrokeNumbers_0679c" style="font-size:18;fill:#E53935;font-weight:bold;stroke:#fff;stroke-width:1.5;paint-order:stroke">
	<text transform="matrix(1 0 0 1 22.50 24.50)" fill="#E53935">1</text>
	<text transform="matrix(1 0 0 1 33.50 14.50)" fill="#FB8C00">2</text>
	<text transform="matrix(1 0 0 1 37.50 28.63)" fill="#FDD835">3</text>
	<text transform="matrix(1 0 0 1 37.50 43.63)" fill="#43A047">4</text>
	<text transform="matrix(1 0 0 1 9.75 61.50)" fill="#1E88E5">5</text>
	<text transform="matrix(1 0 0 1 45.50 25.63)" fill="#8E24AA">6</text>
	<text transform="matrix(1 0 0 1 35.50 70.50)" fill="#EC407A">7</text>
	<text transform="matrix(1 0 0 1 71.50 68.50)" fill="#00ACC1">8</text>
</g>
</svg>
