<?xml version="1.0" encoding="UTF-8"?>
<svg xmlns="http://www.w3.org/2000/svg" width="109" height="109" viewBox="0 0 109 109">
<g id="kvg:StrokePaths_067af" style="fill:none;stroke:#000000;stroke-width:3;stroke-linecap:round;stroke-linejoin:round;">
<g id="kvg:067af">
	<g id="kvg:067af-g1">
		<path id="kvg:s-s1" stroke="#E53935" d="M14.78,42.22c1.97,0.53,5.18,0.32,6.63,0.08c5.77-0.96,16.32-3.18,22.13-4.34c1.26-0.25,3.08-0.58,4.47-0.34"/>
		<path id="kvg:s-s2" stroke="#FB8C00" d="M33.11,15c1.07,1.07,1.54,2.5,1.54,4.92c0,6.52,0.03,45.84,0.04,68.7c0,3.26,0,6.18,0,8.62"/>
		<path id="kvg:s-s3" stroke="#FDD835" d="M33.19,41.53c0,1.47-0.87,3.69-1.62,5.35C26.52,57.98,21.75,66,14.11,75.09"/>
		<path id="kvg:s-s4" stroke="#43A047" d="M37.88,48c2.76,1.82,7.3,7.72,9.62,11.25"/>
	</g>
	<g id="kvg:067af-g2">
		<g id="kvg:067af-g3">
			<path id="kvg:s-s5" stroke="#1E88E5" d="M48.05,45.03c2.95,0.59,5.17,0.39,7.58,0.14c9.03-0.93,24.87-3.04,35.26-4.16c2.66-0.29,5.15-0.37,7.86,0.21"/>
			<path id="kvg:s-s6" stroke="#8E24AA" d="M70.65,17.25c1.11,1.11,1.83,2.75,1.83,4.78c0,6.1-0.04,32.22-0.04,42.08"/>
		</g>
		<g id="kvg:067af-g4">
			<path id="kvg:s-s7" stroke="#EC407A" d="M53.54,65.89c0.97,0.97,1.31,2.26,1.54,3.74c0.65,4.17,1.65,11.37,2.51,17.89c0.24,1.82,0.46,3.59,0.67,5.23"/>
			<path id="kvg:s-s8" stroke="#00ACC1" d="M56.31,67.44C64.14,66.6,79,65,86.24,64.43c3.7-0.29,4.96,1.22,4.35,4.84c-0.83,4.93-2.11,11.04-3.21,16.9"/>
			<path id="kvg:s-s9" stroke="#795548" d="M58.95,88.97c5.63-0.3,16.94-0.87,25.55-1.33c2-0.11,3.85-0.21,5.42-0.3"/>
		</g>
	</g>
</g>
</g>
<g id="kvg:StrokeNumbers_067af" style="font-size:18;font-weight:bold;stroke:#fff;stroke-width:1.5;paint-order:stroke">
	<text transform="matrix(1 0 0 1 8.25 42.13)" fill="#E53935">1</text>
	<text transform="matrix(1 0 0 1 24.75 16.63)" fill="#FB8C00">2</text>
	<text transform="matrix(1 0 0 1 20.25 54.13)" fill="#FDD835">3</text>
	<text transform="matrix(1 0 0 1 39.75 48.13)" fill="#43A047">4</text>
	<text transform="matrix(1 0 0 1 53.25 40.63)" fill="#1E88E5">5</text>
	<text transform="matrix(1 0 0 1 60.75 16.63)" fill="#8E24AA">6</text>
	<text transform="matrix(1 0 0 1 47.25 76.63)" fill="#EC407A">7</text>
	<text transform="matrix(1 0 0 1 57.75 63.13)" fill="#00ACC1">8</text>
	<text transform="matrix(1 0 0 1 62.25 85.63)" fill="#795548">9</text>
</g>
</svg>
