<?xml version="1.0" encoding="UTF-8"?>
<svg xmlns="http://www.w3.org/2000/svg" width="109" height="109" viewBox="0 0 109 109">
<g id="kvg:StrokePaths_067fb" style="fill:none;stroke:#000000;stroke-width:3;stroke-linecap:round;stroke-linejoin:round;">
<g id="kvg:067fb">
	<g id="kvg:067fb-g1">
		<path id="kvg:s-s1" stroke="#E53935" d="M22.21,28.92c3.04,0.58,6.45,0.46,9.17,0.07C42.62,27.38,59.5,26,74.13,25.13c2.3-0.14,5.18-0.3,7.47,0.16"/>
		<path id="kvg:s-s2" stroke="#FB8C00" d="M52.63,11.25c0.87,0.87,1.4,2.88,1.4,3.75c0,7.02-0.04,20.99-0.04,30.75c0,2.2,0.04,4.2,0,5.25"/>
		<path id="kvg:s-s3" stroke="#FDD835" d="M52.13,27.47c0,0.88-1.81,3.3-2.52,4.13c-7.93,9.3-18.24,18.78-33.28,25.3"/>
		<path id="kvg:s-s4" stroke="#43A047" d="M54.9,27.76c4.03,2.89,18.35,14.23,26.83,20.42c2.98,2.17,6.26,4.2,9.92,5.83"/>
	</g>
	<g id="kvg:067fb-g2">
		<g id="kvg:067fb-g3">
			<path id="kvg:s-s5" stroke="#1E88E5" d="M38.02,57.42c0.78,0.78,1.16,2.45,1.16,3.69c0,0.6,0.19,21.51,0.19,32.51"/>
			<path id="kvg:s-s6" stroke="#8E24AA" d="M40.07,58.73c8.56-1.11,17.31-2.11,25.43-2.99c3.04-0.33,3.84,1.74,3.84,2.67c0,5.09,0.04,21.22,0.04,32.88"/>
			<path id="kvg:s-s7" stroke="#EC407A" d="M40.42,70.69c7.8-0.87,20.8-2.42,27.66-2.86"/>
			<path id="kvg:s-s8" stroke="#00ACC1" d="M40.41,82.04c6.09-0.44,20.42-2.24,27.46-2.54"/>
		</g>
		<g id="kvg:067fb-g4">
			<path id="kvg:s-s9" stroke="#795548" d="M18.48,95.45c3.47,1.11,6.69,0.81,10.28,0.53c14.62-1.11,30.9-2.28,49-3.64c3.71-0.28,7.84-0.05,11.52,0.62"/>
		</g>
	</g>
</g>
</g>
<g id="kvg:StrokeNumbers_067fb" style="font-size:18;fill:#E53935;font-weight:bold;stroke:#fff;stroke-width:1.5;paint-order:stroke">
	<text transform="matrix(1 0 0 1 15.75 30.13)" fill="#E53935">1</text>
	<text transform="matrix(1 0 0 1 43.50 11.50)" fill="#FB8C00">2</text>
	<text transform="matrix(1 0 0 1 35.50 38.50)" fill="#FDD835">3</text>
	<text transform="matrix(1 0 0 1 69.50 37.50)" fill="#43A047">4</text>
	<text transform="matrix(1 0 0 1 31.50 65.90)" fill="#1E88E5">5</text>
	<text transform="matrix(1 0 0 1 39.50 55.50)" fill="#8E24AA">6</text>
	<text transform="matrix(1 0 0 1 44.25 67.50)" fill="#EC407A">7</text>
	<text transform="matrix(1 0 0 1 44.25 79.18)" fill="#00ACC1">8</text>
	<text transform="matrix(1 0 0 1 11.50 97.50)" fill="#795548">9</text>
</g>
</svg>
