<?xml version="1.0" encoding="UTF-8"?>
<svg xmlns="http://www.w3.org/2000/svg" width="109" height="109" viewBox="0 0 109 109">
<g id="kvg:StrokePaths_067ff" style="fill:none;stroke:#000000;stroke-width:3;stroke-linecap:round;stroke-linejoin:round;">
<g id="kvg:067ff">
	<g id="kvg:067ff-g1">
		<path id="kvg:s-s1" stroke="#E53935" d="M12.03,39.22c1.91,0.38,3.81,0.36,5.72,0.18c5.62-0.52,12-1.52,19.88-2.46c1.47-0.18,2.9-0.43,4.38-0.32"/>
		<path id="kvg:s-s2" stroke="#FB8C00" d="M28.86,14.75c1.07,1.07,1.29,2.75,1.29,4.42c0,0.73-0.01,41.86-0.02,63.83c0,6.78,0,11.81,0,13.38"/>
		<path id="kvg:s-s3" stroke="#FDD835" d="M29.69,39.53c0,1.59-1.04,4.86-1.65,6.29c-4.82,11.29-8.82,17.34-16.93,28.52"/>
		<path id="kvg:s-s4" stroke="#43A047" d="M33.5,48.75c2.6,1.58,6.19,6.98,8.38,10.04"/>
	</g>
	<g id="kvg:067ff-g2">
		<g id="kvg:067ff-g3">
			<path id="kvg:s-s5" stroke="#1E88E5" d="M68.82,12.62c1.15,1.15,1.41,2.75,1.41,3.73c0,0.74-0.11,6.76-0.11,11.52"/>
			<path id="kvg:s-s6" stroke="#8E24AA" d="M46.25,30.98c3.32,0.42,6.62,0.36,9.88-0.18c9.02-1.12,23.12-2.55,33.1-3.48c3.26-0.3,6.39-0.21,9.52,0.63"/>
		</g>
		<g id="kvg:067ff-g4">
			<path id="kvg:s-s7" stroke="#EC407A" d="M49.38,48.31c1.09,1.09,1.59,2.35,1.66,3.48c0.41,6.73,0.9,14.41,1.25,21.96c0.15,3.2,0.26,6.37,0.34,9.44"/>
			<path id="kvg:s-s8" stroke="#00ACC1" d="M51.99,50.41c16.44-2.43,25.73-3.91,36.64-4.8c3.77-0.31,5.09,1.63,5.21,5.14c0.31,8.39-0.69,18.91-2.62,28.82c-1.34,6.9-4.9,0.56-5.95-0.73"/>
			<path id="kvg:s-s9" stroke="#795548" d="M69.32,35.12c0.96,0.96,1.41,2.75,1.41,4.23c0,0.55,0.01,29.6,0.01,47.14c0,6.02,0,10.68,0,12.38"/>
		</g>
	</g>
</g>
</g>
<g id="kvg:StrokeNumbers_067ff" style="font-size:18;font-weight:bold;stroke:#fff;stroke-width:1.5;paint-order:stroke">
	<text transform="matrix(1 0 0 1 5.85 41.85)" fill="#E53935">1</text>
	<text transform="matrix(1 0 0 1 19.50 13.50)" fill="#FB8C00">2</text>
	<text transform="matrix(1 0 0 1 18.50 50.50)" fill="#FDD835">3</text>
	<text transform="matrix(1 0 0 1 34.50 47.50)" fill="#43A047">4</text>
	<text transform="matrix(1 0 0 1 58.50 12.50)" fill="#1E88E5">5</text>
	<text transform="matrix(1 0 0 1 44.50 28.50)" fill="#8E24AA">6</text>
	<text transform="matrix(1 0 0 1 43.50 57.18)" fill="#EC407A">7</text>
	<text transform="matrix(1 0 0 1 53.50 47.50)" fill="#00ACC1">8</text>
	<text transform="matrix(1 0 0 1 60.50 38.50)" fill="#795548">9</text>
</g>
</svg>
