<?xml version="1.0" encoding="UTF-8"?>
<svg xmlns="http://www.w3.org/2000/svg" width="109" height="109" viewBox="0 0 109 109">
<g id="kvg:StrokePaths_067f3" style="fill:none;stroke:#000000;stroke-width:3;stroke-linecap:round;stroke-linejoin:round;">
<g id="kvg:067f3">
	<g id="kvg:067f3-g1">
		<path id="kvg:s-s1" stroke="#E53935" d="M12.53,36.72c2.22,0.53,5.06,0.35,6.49,0.14c4.69-0.7,12.27-2.47,17.36-3.47c1.21-0.24,2.87-0.39,4.14-0.27"/>
		<path id="kvg:s-s2" stroke="#FB8C00" d="M28.61,16.5c1.07,1.07,1.29,2.75,1.29,4.67c0,5.7,0.04,62.95,0.04,66.58c0,2,0,6.12-0.07,8.25"/>
		<path id="kvg:s-s3" stroke="#FDD835" d="M29.44,36.53c0,1.47-0.59,2.98-1,4.13c-4.37,12.53-8.57,19.96-15.83,30.93"/>
		<path id="kvg:s-s4" stroke="#43A047" d="M31.72,44.65c2.44,1.47,6.65,5.6,8.53,9.1"/>
	</g>
	<g id="kvg:067f3-g2">
		<g id="kvg:067f3-g3">
			<path id="kvg:s-s5" stroke="#1E88E5" d="M58.45,13c0.1,0.77-0.23,1.58-0.64,2.17c-2.55,3.71-5.24,6.36-10.19,10.71"/>
			<path id="kvg:s-s6" stroke="#8E24AA" d="M46.37,28.51c0.94,0.94,1.06,2.11,1.06,3.74c0,3.25-0.63,28.35-0.63,31.22c0,3.03,0.32,4.62,3.16,2.26c2.38-1.98,5.42-4.85,10.73-8.98"/>
			<g id="kvg:067f3-g4">
				<path id="kvg:s-s7" stroke="#EC407A" d="M60.42,25.43c1.08,1.08,1.45,2.48,1.48,4.8c0.47,36.9-0.03,52.9-15.62,64.68"/>
			</g>
		</g>
		<g id="kvg:067f3-g5">
			<path id="kvg:s-s8" stroke="#00ACC1" d="M71.54,22.99c1.34,0.51,3.21,0.56,5.33,0.12c3.17-0.66,8.89-1.87,11.14-2.3c3.32-0.64,5.74,0.82,5.74,4.43c0,6.8-0.13,24.14-1.11,39.13c-0.75,11.52-6.81,2.07-7.3,1.64"/>
			<path id="kvg:s-s9" stroke="#795548" d="M73.31,24.11c1.04,1.04,1.3,2.39,1.3,4.14c0,11.66,0.06,44.9-0.03,60.38c-0.03,4.2-0.05,7.2-0.08,8.25"/>
		</g>
	</g>
</g>
</g>
<g id="kvg:StrokeNumbers_067f3" style="font-size:18;font-weight:bold;stroke:#fff;stroke-width:1.5;paint-order:stroke">
	<text transform="matrix(1 0 0 1 6.25 38.25)" fill="#E53935">1</text>
	<text transform="matrix(1 0 0 1 18.25 17.25)" fill="#FB8C00">2</text>
	<text transform="matrix(1 0 0 1 18.25 48.25)" fill="#FDD835">3</text>
	<text transform="matrix(1 0 0 1 34.25 44.25)" fill="#43A047">4</text>
	<text transform="matrix(1 0 0 1 50.25 13.25)" fill="#1E88E5">5</text>
	<text transform="matrix(1 0 0 1 39.25 26.25)" fill="#8E24AA">6</text>
	<text transform="matrix(1 0 0 1 53.25 33.25)" fill="#EC407A">7</text>
	<text transform="matrix(1 0 0 1 74.25 20.25)" fill="#00ACC1">8</text>
	<text transform="matrix(1 0 0 1 66.50 31.25)" fill="#795548">9</text>
</g>
</svg>
