<?xml version="1.0" encoding="UTF-8"?>
<svg xmlns="http://www.w3.org/2000/svg" width="109" height="109" viewBox="0 0 109 109">
<g id="kvg:StrokePaths_06821" style="fill:none;stroke:#000000;stroke-width:3;stroke-linecap:round;stroke-linejoin:round;">
<g id="kvg:06821">
	<g id="kvg:06821-g1">
		<path id="kvg:s-s1" stroke="#E53935" d="M11.53,40.68c1.1,0.32,2.6,0.45,4.53,0.32c5.4-0.35,16.57-3,23.14-4.04c1.25-0.2,2.3-0.18,3.07,0"/>
		<path id="kvg:s-s2" stroke="#FB8C00" d="M28.99,17.25c1.07,1.07,1.76,3.25,1.76,5.25c0,0.77-0.03,48.09-0.18,65.25c-0.03,3.03-0.05,5.16-0.07,6"/>
		<path id="kvg:s-s3" stroke="#FDD835" d="M30.25,40.75c0,1.25-0.49,2.66-0.96,3.77C25.28,53.91,20.88,62.25,15,70"/>
		<path id="kvg:s-s4" stroke="#43A047" d="M33.75,51.25c2.75,1.5,6,5.25,7.25,7.75"/>
	</g>
	<g id="kvg:06821-g2">
		<g id="kvg:06821-g3">
			<path id="kvg:s-s5" stroke="#1E88E5" d="M66.39,15.5c0.99,0.99,1.38,1.88,1.38,3.62c0,4.25-0.02,7.62-0.08,10.41"/>
			<path id="kvg:s-s6" stroke="#8E24AA" d="M48.12,31.71c2.3,0.29,3.9,0.44,6.09,0.2c10.28-1.16,20.32-2.66,32.45-3.53c2.35-0.17,4.03-0.01,5.33,0.32"/>
		</g>
		<g id="kvg:06821-g4">
			<path id="kvg:s-s7" stroke="#EC407A" d="M59.24,38.93c0.2,0.53,0.06,2.27-0.4,3.14C57,45.5,53.75,49.5,50,52.5"/>
			<path id="kvg:s-s8" stroke="#00ACC1" d="M79.27,38.5c4.34,3.07,8.73,8.68,10.9,12.41"/>
			<path id="kvg:s-s9" stroke="#795548" d="M79.15,49.18c0.35,1.32,0.17,2.62-0.54,4.18C72.25,67.25,58.75,83.25,44,91.25"/>
			<path id="kvg:s-s10" stroke="#546E7A" d="M55.95,55.88c6.3,3.37,21.64,22.12,31.45,30.33c2.64,2.21,5.07,4.15,8.6,4.44"/>
		</g>
	</g>
</g>
</g>
<g id="kvg:StrokeNumbers_06821" style="font-size:18;fill:#E53935;font-weight:bold;stroke:#fff;stroke-width:1.5;paint-order:stroke">
	<text transform="matrix(1 0 0 1 5.50 41.50)" fill="#E53935">1</text>
	<text transform="matrix(1 0 0 1 18.75 16.50)" fill="#FB8C00">2</text>
	<text transform="matrix(1 0 0 1 19.50 52.50)" fill="#FDD835">3</text>
	<text transform="matrix(1 0 0 1 35.50 49.50)" fill="#43A047">4</text>
	<text transform="matrix(1 0 0 1 58.50 12.50)" fill="#1E88E5">5</text>
	<text transform="matrix(1 0 0 1 47.25 28.50)" fill="#8E24AA">6</text>
	<text transform="matrix(1 0 0 1 50.50 41.50)" fill="#EC407A">7</text>
	<text transform="matrix(1 0 0 1 70.50 40.50)" fill="#00ACC1">8</text>
	<text transform="matrix(1 0 0 1 71.50 50.50)" fill="#795548">9</text>
	<text transform="matrix(1 0 0 1 61.50 58.50)" fill="#546E7A">10</text>
</g>
</svg>
