<?xml version="1.0" encoding="UTF-8"?>
<svg xmlns="http://www.w3.org/2000/svg" width="109" height="109" viewBox="0 0 109 109">
<g id="kvg:StrokePaths_06843" style="fill:none;stroke:#000000;stroke-width:3;stroke-linecap:round;stroke-linejoin:round;">
<g id="kvg:06843">
	<g id="kvg:06843-g1">
		<path id="kvg:s-s1" stroke="#E53935" d="M12.03,39.47c1.72,0.41,3.88,0.23,5.11,0.07c6.12-0.78,15.11-3.11,20.65-4.17c0.92-0.17,2.15-0.24,2.73,0"/>
		<path id="kvg:s-s2" stroke="#FB8C00" d="M27.86,18c1.26,1.26,1.54,3,1.54,4.92c0-0.24,0.17,40.89,0.05,60.58c-0.03,4.72-0.06,8.18-0.11,9.5"/>
		<path id="kvg:s-s3" stroke="#FDD835" d="M29.19,41.53c0,1.97-1.62,5.78-2.27,7.38c-4.36,10.81-7.64,16.29-15.06,27.18"/>
		<path id="kvg:s-s4" stroke="#43A047" d="M32.75,50c2.29,1.71,6.07,6.18,8,9.5"/>
	</g>
	<g id="kvg:06843-g2">
		<g id="kvg:06843-g3">
			<g id="kvg:06843-g4">
				<path id="kvg:s-s5" stroke="#1E88E5" d="M56.79,18.91c1.15,1.15,1.39,2.34,1.39,4.32c0,24.35,3.94,55.9-16.28,70.96"/>
			</g>
			<g id="kvg:06843-g5">
				<path id="kvg:s-s6" stroke="#8E24AA" d="M44.16,39.06c2.89,1.47,7.47,6.03,8.2,8.32"/>
				<path id="kvg:s-s7" stroke="#EC407A" d="M42.11,68.99c1.14,0.76,2.06,0.42,2.84-0.15c1.08-0.78,6.55-5.55,10.8-9.34"/>
			</g>
		</g>
		<g id="kvg:06843-g6">
			<g id="kvg:06843-g7">
				<path id="kvg:s-s8" stroke="#00ACC1" d="M70.28,15.94c1.21,1.21,1.24,2.32,1.24,3.97c0,7.59-0.01,55.22-0.01,60.22C71.5,91,73,92.23,83.94,92.23c10.31,0,11.56-1.73,11.56-8.68"/>
			</g>
			<path id="kvg:s-s9" stroke="#795548" d="M89.64,31.25c0.11,0.81,0.02,1.58-0.41,2.25C87,36.88,83.5,40.38,75.5,46.12"/>
			<path id="kvg:s-s10" stroke="#546E7A" d="M75.38,51.88c6.1,2.65,15.75,10.87,17.27,14.98"/>
		</g>
	</g>
</g>
</g>
<g id="kvg:StrokeNumbers_06843" style="font-size:18;font-weight:bold;stroke:#fff;stroke-width:1.5;paint-order:stroke">
	<text transform="matrix(1 0 0 1 5.50 40.50)" fill="#E53935">1</text>
	<text transform="matrix(1 0 0 1 18.75 18.13)" fill="#FB8C00">2</text>
	<text transform="matrix(1 0 0 1 19.50 50.50)" fill="#FDD835">3</text>
	<text transform="matrix(1 0 0 1 34.50 48.50)" fill="#43A047">4</text>
	<text transform="matrix(1 0 0 1 48.75 18.13)" fill="#1E88E5">5</text>
	<text transform="matrix(1 0 0 1 46.50 37.55)" fill="#8E24AA">6</text>
	<text transform="matrix(1 0 0 1 43.50 64.50)" fill="#EC407A">7</text>
	<text transform="matrix(1 0 0 1 64.50 12.13)" fill="#00ACC1">8</text>
	<text transform="matrix(1 0 0 1 81.50 31.50)" fill="#795548">9</text>
	<text transform="matrix(1 0 0 1 81.75 53.50)" fill="#546E7A">10</text>
</g>
</svg>
