<?xml version="1.0" encoding="UTF-8"?>
<svg xmlns="http://www.w3.org/2000/svg" width="109" height="109" viewBox="0 0 109 109">
<g id="kvg:StrokePaths_068cb" style="fill:none;stroke:#000000;stroke-width:3;stroke-linecap:round;stroke-linejoin:round;">
<g id="kvg:068cb">
	<g id="kvg:068cb-g1">
		<path id="kvg:s-s1" stroke="#E53935" d="M12.53,38.47c2.1,0.66,4.99,0.43,6.48,0.19c5.44-0.86,14.6-3.04,20.47-4.04c1.02-0.17,2.15-0.25,3.04-0.25"/>
		<path id="kvg:s-s2" stroke="#FB8C00" d="M30.98,16.5c1.01,1.01,1.39,2.5,1.39,4.17c0,3.63-0.06,48.72-0.08,66.83c0,3.52-0.01,6.02-0.01,7"/>
		<path id="kvg:s-s3" stroke="#FDD835" d="M31.35,38.03c0,1.84-1.5,4.92-2.23,6.58c-5.02,11.45-9.5,18.64-17.62,29.26"/>
		<path id="kvg:s-s4" stroke="#43A047" d="M34.75,45.12c2.78,1.69,6.31,6.1,8.65,9.38"/>
	</g>
	<g id="kvg:068cb-g2">
		<g id="kvg:068cb-g3">
			<g id="kvg:068cb-g4">
				<g id="kvg:068cb-g5">
					<g id="kvg:068cb-g6">
						<path id="kvg:s-s5" stroke="#1E88E5" d="M47.63,36.59c2.43,0.22,4.45,0.13,6.88-0.25c8.84-1.4,24.46-3.38,33.1-4.17c1.89-0.17,3.71-0.42,5.56,0.09"/>
						<path id="kvg:s-s6" stroke="#8E24AA" d="M56.57,20.03c0.95,0.95,1.28,2.22,1.28,3.61c0,0.97,0,43.02-0.17,48.99"/>
					</g>
					<path id="kvg:s-s7" stroke="#EC407A" d="M77.72,16.25c0.89,0.89,1.29,2,1.29,3.36c0,0.97,0.08,43.52,0.08,50.36"/>
				</g>
				<path id="kvg:s-s8" stroke="#00ACC1" d="M59.12,47.25C62,47.04,75.11,45.2,77.8,44.99"/>
				<g id="kvg:068cb-g7">
					<path id="kvg:s-s9" stroke="#795548" d="M59.12,59.88c4.62-0.5,14.5-1.75,18.99-2.11"/>
				</g>
			</g>
			<path id="kvg:s-s10" stroke="#546E7A" d="M43.48,74.18c2.77,0.32,5.25,0.17,7.9-0.13c9.12-1.05,28.34-3.5,39.12-4.11c2.28-0.13,4.54-0.25,6.77,0.38"/>
		</g>
		<g id="kvg:068cb-g8">
			<path id="kvg:s-s11" stroke="#E53935" d="M57.98,80.21c0.12,0.95-0.36,1.81-0.93,2.57c-2.67,3.34-7.42,7.59-14.79,11.97"/>
			<path id="kvg:s-s12" stroke="#FB8C00" d="M76,78.75c6.51,2.78,16.81,11.41,18.44,15.73"/>
		</g>
	</g>
</g>
</g>
<g id="kvg:StrokeNumbers_068cb" style="font-size:18;font-weight:bold;stroke:#fff;stroke-width:1.5;paint-order:stroke">
	<text transform="matrix(1 0 0 1 6.50 39.13)" fill="#E53935">1</text>
	<text transform="matrix(1 0 0 1 20.50 17.50)" fill="#FB8C00">2</text>
	<text transform="matrix(1 0 0 1 20.50 49.50)" fill="#FDD835">3</text>
	<text transform="matrix(1 0 0 1 38.50 45.50)" fill="#43A047">4</text>
	<text transform="matrix(1 0 0 1 46.50 33.13)" fill="#1E88E5">5</text>
	<text transform="matrix(1 0 0 1 47.25 18.50)" fill="#8E24AA">6</text>
	<text transform="matrix(1 0 0 1 68.25 16.63)" fill="#EC407A">7</text>
	<text transform="matrix(1 0 0 1 61.50 44.50)" fill="#00ACC1">8</text>
	<text transform="matrix(1 0 0 1 61.50 57.50)" fill="#795548">9</text>
	<text transform="matrix(1 0 0 1 41.50 71.50)" fill="#546E7A">10</text>
	<text transform="matrix(1 0 0 1 45.50 84.50)" fill="#E53935">11</text>
	<text transform="matrix(1 0 0 1 65.50 82.50)" fill="#FB8C00">12</text>
</g>
</svg>
