<?xml version="1.0" encoding="UTF-8"?>
<svg xmlns="http://www.w3.org/2000/svg" width="109" height="109" viewBox="0 0 109 109">
<g id="kvg:StrokePaths_068ee" style="fill:none;stroke:#000000;stroke-width:3;stroke-linecap:round;stroke-linejoin:round;">
<g id="kvg:068ee">
	<g id="kvg:068ee-g1">
		<path id="kvg:s-s1" stroke="#E53935" d="M30.12,23.67c0.87,0.24,4.4,0.62,6.7,0.33c11.37-1.4,20.02-2,36.05-3.21c2.32-0.18,2.92-0.24,4.37,0"/>
		<path id="kvg:s-s2" stroke="#FB8C00" d="M52.75,10C53.5,10.75,54,11.75,54,13.16c0,4.34,0.06,22-0.15,31.6c-0.03,1.48-0.07,2.69-0.1,3.5"/>
		<path id="kvg:s-s3" stroke="#FDD835" d="M51.5,22.9c0,1.1-0.27,1.78-0.81,2.41C43,34.25,31.34,41.69,20.5,45.5"/>
		<path id="kvg:s-s4" stroke="#43A047" d="M56,24.4c5.25,4.35,22.25,15.35,29.03,17.6c1.77,0.59,3.07,1.25,4.72,1.5"/>
	</g>
	<g id="kvg:068ee-g2">
		<g id="kvg:068ee-g3">
			<path id="kvg:s-s5" stroke="#1E88E5" d="M12.46,61.06c0.77,0.22,3.1,0.42,5.14,0.25c6.65-0.56,15.15-1.69,23.13-2.49c2.04-0.21,3.85-0.42,5.13-0.2"/>
			<path id="kvg:s-s6" stroke="#8E24AA" d="M32.61,46.29c0.86,0.86,1.42,1.96,1.42,3.16c0,0.79,0.06,31.46-0.14,44.06c-0.03,2.17-0.07,3.78-0.1,4.6"/>
			<path id="kvg:s-s7" stroke="#EC407A" d="M33.07,60.68c0,1.2-0.44,2.02-1.04,3.12C28,71.12,19.75,83,13.5,88"/>
			<path id="kvg:s-s8" stroke="#00ACC1" d="M37.61,67.19c2.08,1.43,4.69,4.07,6.51,6.31"/>
		</g>
		<g id="kvg:068ee-g4">
			<path id="kvg:s-s9" stroke="#795548" d="M52.28,59.98c1.72,0.14,2.82,0.09,4.54-0.08c8.93-0.91,17.81-1.66,26.47-2.43c2.01-0.18,3.77-0.22,5.04,0"/>
			<path id="kvg:s-s10" stroke="#546E7A" d="M68.12,42.75c1.07,1.06,1.42,2.62,1.42,3.91c0,0.8,0.06,35.28-0.15,48.09c-0.03,2.01-0.06,3.49-0.1,4.25"/>
			<path id="kvg:s-s11" stroke="#E53935" d="M67.84,59.75c0,1-0.19,1.62-0.81,2.87c-4.52,9.22-14.61,21.74-21.78,26.14"/>
			<path id="kvg:s-s12" stroke="#FB8C00" d="M69.77,58.93c7.05,10.52,18.34,24.02,24.07,28.17c1.63,1.18,2.55,2,3.92,2.4"/>
		</g>
	</g>
</g>
</g>
<g id="kvg:StrokeNumbers_068ee" style="font-size:18;fill:#E53935;font-weight:bold;stroke:#fff;stroke-width:1.5;paint-order:stroke">
	<text transform="matrix(1 0 0 1 22.50 22.78)" fill="#E53935">1</text>
	<text transform="matrix(1 0 0 1 46.50 7.78)" fill="#FB8C00">2</text>
	<text transform="matrix(1 0 0 1 25.50 37.78)" fill="#FDD835">3</text>
	<text transform="matrix(1 0 0 1 68.50 30.50)" fill="#43A047">4</text>
	<text transform="matrix(1 0 0 1 5.25 63.58)" fill="#1E88E5">5</text>
	<text transform="matrix(1 0 0 1 25.50 53.50)" fill="#8E24AA">6</text>
	<text transform="matrix(1 0 0 1 17.25 75.58)" fill="#EC407A">7</text>
	<text transform="matrix(1 0 0 1 43.50 68.50)" fill="#00ACC1">8</text>
	<text transform="matrix(1 0 0 1 53.50 56.50)" fill="#795548">9</text>
	<text transform="matrix(1 0 0 1 57.75 40.63)" fill="#546E7A">10</text>
	<text transform="matrix(1 0 0 1 52.50 69.50)" fill="#E53935">11</text>
	<text transform="matrix(1 0 0 1 78.50 68.50)" fill="#FB8C00">12</text>
</g>
</svg>
