<?xml version="1.0" encoding="UTF-8"?>
<svg xmlns="http://www.w3.org/2000/svg" width="109" height="109" viewBox="0 0 109 109">
<g id="kvg:StrokePaths_069cb" style="fill:none;stroke:#000000;stroke-width:3;stroke-linecap:round;stroke-linejoin:round;">
<g id="kvg:069cb">
	<g id="kvg:069cb-g1">
		<path id="kvg:s-s1" stroke="#E53935" d="M10.78,36.97c1.72,0.53,4.09,0.28,5.6,0.06c4.93-0.7,13.77-2.43,19.75-3.5c1.19-0.21,2.75-0.41,4.13-0.17"/>
		<path id="kvg:s-s2" stroke="#FB8C00" d="M28.61,15.75c1.26,1.26,1.79,3,1.79,5.17c0,6.7-0.04,48.26-0.05,65.95c0,3.64,0,6.27,0,7.38"/>
		<path id="kvg:s-s3" stroke="#FDD835" d="M29.25,36.88c0,1-0.55,3.29-0.82,4.02c-4.88,13.33-8.85,19.89-16.57,31.94"/>
		<path id="kvg:s-s4" stroke="#43A047" d="M32.88,45.75c2.62,2.38,5.75,8,7.38,11.75"/>
	</g>
	<g id="kvg:069cb-g2">
		<g id="kvg:069cb-g3">
			<g id="kvg:069cb-g4">
				<path id="kvg:s-s5" stroke="#1E88E5" d="M46.48,22.55c1.56,0.31,4.44,0.25,5.98,0.06c9.29-1.11,21.42-2.36,31.57-3.07c2.59-0.18,4.16-0.1,5.46,0.06"/>
			</g>
			<path id="kvg:s-s6" stroke="#8E24AA" d="M57.14,12.34c1.07,1.07,1.56,2.7,1.69,3.49c0.13,0.79,0.67,15.67,1.4,26.87"/>
			<path id="kvg:s-s7" stroke="#EC407A" d="M76.08,9.49c1.15,1.15,1.29,2.64,1.19,4.32c-0.19,3.23-2.52,17.44-3.81,27.47"/>
			<g id="kvg:069cb-g5">
				<g id="kvg:069cb-g6">
					<path id="kvg:s-s8" stroke="#00ACC1" d="M46.48,33.32c1.46,0.31,4.16,0.21,5.6,0.06c9.79-1.01,19.81-2.38,30.17-3.07c2.43-0.16,3.9,0.15,5.12,0.31"/>
				</g>
				<g id="kvg:069cb-g7">
					<g id="kvg:069cb-g8">
						<path id="kvg:s-s9" stroke="#795548" d="M42,44.04c1.82,0.41,5.16,0.58,6.97,0.41c11.53-1.08,29.69-2.88,41.67-3.51c3.02-0.16,4.85,0.2,6.36,0.4"/>
					</g>
				</g>
			</g>
		</g>
		<g id="kvg:069cb-g9">
			<g id="kvg:069cb-g10">
				<g id="kvg:069cb-g11">
					<path id="kvg:s-s10" stroke="#546E7A" d="M49.88,52.69c0.9,0.9,1.27,2.44,1.27,3.78c0,1.05,0.08,23.09,0.11,33.91c0.01,3.1,0.02,5.27,0.02,5.77"/>
					<path id="kvg:s-s11" stroke="#E53935" d="M52.15,55.18c4.94-0.6,28.97-3.8,31.49-3.94c2.12-0.11,3.38,1.26,3.38,3.25c0,4.4-0.14,34.39-0.14,38.61c0,5.51-4.5,0.65-6.6-1.11"/>
				</g>
				<g id="kvg:069cb-g12">
					<path id="kvg:s-s12" stroke="#FB8C00" d="M66.78,44.79c0.65,0.65,1.05,1.78,1.05,3.04c0,8.11,0.1,16.31,0.1,27.04"/>
					<path id="kvg:s-s13" stroke="#FDD835" d="M52.32,66.16c9.65-0.71,23.1-2.66,33.55-3.23"/>
					<path id="kvg:s-s14" stroke="#43A047" d="M38.56,77.84c2.69,0.41,5.4,0.4,7.97,0.14c13.14-1.35,31.5-3.5,44.91-4.19c2.33-0.12,4.85-0.18,7.15,0.23"/>
				</g>
			</g>
		</g>
	</g>
</g>
</g>
<g id="kvg:StrokeNumbers_069cb" style="font-size:18;fill:#E53935;font-weight:bold;stroke:#fff;stroke-width:1.5;paint-order:stroke">
	<text transform="matrix(1 0 0 1 5.50 39.06)" fill="#E53935">1</text>
	<text transform="matrix(1 0 0 1 20.50 16.50)" fill="#FB8C00">2</text>
	<text transform="matrix(1 0 0 1 18.75 49.63)" fill="#FDD835">3</text>
	<text transform="matrix(1 0 0 1 33.50 44.50)" fill="#43A047">4</text>
	<text transform="matrix(1 0 0 1 39.50 22.50)" fill="#1E88E5">5</text>
	<text transform="matrix(1 0 0 1 50.50 10.50)" fill="#8E24AA">6</text>
	<text transform="matrix(1 0 0 1 68.50 8.50)" fill="#EC407A">7</text>
	<text transform="matrix(1 0 0 1 45.50 31.63)" fill="#00ACC1">8</text>
	<text transform="matrix(1 0 0 1 42.50 42.50)" fill="#795548">9</text>
	<text transform="matrix(1 0 0 1 41.50 58.50)" fill="#546E7A">10</text>
	<text transform="matrix(1 0 0 1 53.50 52.50)" fill="#E53935">11</text>
	<text transform="matrix(1 0 0 1 71.50 49.50)" fill="#FB8C00">12</text>
	<text transform="matrix(1 0 0 1 54.50 62.50)" fill="#FDD835">13</text>
	<text transform="matrix(1 0 0 1 36.50 75.13)" fill="#43A047">14</text>
</g>
</svg>
