<?xml version="1.0" encoding="UTF-8"?>
<svg xmlns="http://www.w3.org/2000/svg" width="109" height="109" viewBox="0 0 109 109">
<g id="kvg:StrokePaths_06a39" style="fill:none;stroke:#000000;stroke-width:3;stroke-linecap:round;stroke-linejoin:round;">
<g id="kvg:06a39">
	<g id="kvg:06a39-g1">
		<path id="kvg:s-s1" stroke="#E53935" d="M11.53,38.47c1.85,0.53,4.39,0.41,5.71,0.23c4.77-0.63,12.75-2.35,17.84-3.33c0.9-0.17,2.04-0.24,2.93,0"/>
		<path id="kvg:s-s2" stroke="#FB8C00" d="M27.01,17.45c1.25,1.25,1.74,2.88,1.74,4.92c0,0.82-0.1,46.75-0.1,65.63c0,2.75-0.06,4.69-0.08,5.5"/>
		<path id="kvg:s-s3" stroke="#FDD835" d="M27.42,38.78c0,1.84-0.51,4.09-1.49,6.53c-4.56,11.44-7.54,16.94-14.08,28.03"/>
		<path id="kvg:s-s4" stroke="#43A047" d="M31,45.75c2.16,1.54,5.72,6.52,7.55,9.5"/>
	</g>
	<g id="kvg:06a39-g2">
		<g id="kvg:06a39-g3">
			<g id="kvg:06a39-g4">
				<g id="kvg:06a39-g5">
					<path id="kvg:s-s5" stroke="#1E88E5" d="M40.49,26.1c1.75,0.6,4.19,0.53,6,0.34c5.21-0.53,11.86-1.57,18-2.26c1.39-0.16,2.87-0.43,4.27-0.17"/>
					<path id="kvg:s-s6" stroke="#8E24AA" d="M53.37,14.01c0.94,0.94,1.34,2.24,1.34,3.87c0,3.98-0.05,10.12-0.05,19.21"/>
					<g id="kvg:06a39-g6">
						<path id="kvg:s-s7" stroke="#EC407A" d="M43.61,39.13c0.62,0.19,3.25,0.14,3.87,0.1c3.77-0.23,10.27-1.48,16.17-1.99c1.03-0.09,1.65,0.02,2.17,0.11"/>
					</g>
				</g>
				<g id="kvg:06a39-g7">
					<g id="kvg:06a39-g8">
						<g id="kvg:06a39-g9">
							<path id="kvg:s-s8" stroke="#00ACC1" d="M42.99,48.51c0.62,0.62,0.9,1.74,1,2.53c0.39,3.33,0.9,5.17,1.37,9.19c0.14,1.22,0.27,2.4,0.38,3.44"/>
							<path id="kvg:s-s9" stroke="#795548" d="M45,49.84c4.04-0.86,11.62-2.17,15.52-2.72c2.5-0.35,3.79,0.14,3.08,2.99c-0.65,2.57-1.32,4.53-2.34,8.47"/>
							<path id="kvg:s-s10" stroke="#546E7A" d="M46.95,61.77c2.26-0.3,7.4-1.13,11.88-1.81c1.42-0.21,2.67-0.39,3.58-0.48"/>
						</g>
					</g>
				</g>
			</g>
			<g id="kvg:06a39-g10">
				<path id="kvg:s-s11" stroke="#E53935" d="M41.41,70.71c1.75,1.89,4.52,7.78,4.96,10.72"/>
				<path id="kvg:s-s12" stroke="#FB8C00" d="M60.09,66.37c0.28,0.75,0.31,1.7,0.07,2.51c-1.04,3.49-2.36,7.07-4.72,12.28"/>
				<path id="kvg:s-s13" stroke="#FDD835" d="M38.2,88.79c0.83,0.91,2.17,1.12,3.91,0.47c11.45-4.3,16.33-6.93,26.51-10.76"/>
			</g>
		</g>
		<g id="kvg:06a39-g11">
			<path id="kvg:s-s14" stroke="#43A047" d="M69.88,41.15c2.5,0.35,4.41,0.3,6.28-0.01c6.2-1.02,12.47-1.64,17.64-2.72c1.49-0.31,3.08-0.54,4.2-0.3"/>
			<path id="kvg:s-s15" stroke="#1E88E5" d="M85.02,15.58c1.14,1.14,2.01,2.79,2.01,5.02c0,20.4-0.01,61.91-0.01,66.87c0,12.03-6.27,2.78-7.96,0.75"/>
			<path id="kvg:s-s16" stroke="#8E24AA" d="M71.96,56.37c2.29,1.85,5.93,7.62,6.5,10.5"/>
		</g>
	</g>
</g>
</g>
<g id="kvg:StrokeNumbers_06a39" style="font-size:18;fill:#E53935;font-weight:bold;stroke:#fff;stroke-width:1.5;paint-order:stroke">
	<text transform="matrix(1 0 0 1 5.50 39.50)" fill="#E53935">1</text>
	<text transform="matrix(1 0 0 1 18.50 18.50)" fill="#FB8C00">2</text>
	<text transform="matrix(1 0 0 1 18.50 48.50)" fill="#FDD835">3</text>
	<text transform="matrix(1 0 0 1 31 43)" fill="#43A047">4</text>
	<text transform="matrix(1 0 0 1 38.50 23.50)" fill="#1E88E5">5</text>
	<text transform="matrix(1 0 0 1 43.50 14.50)" fill="#8E24AA">6</text>
	<text transform="matrix(1 0 0 1 42.50 36.50)" fill="#EC407A">7</text>
	<text transform="matrix(1 0 0 1 36 50)" fill="#00ACC1">8</text>
	<text transform="matrix(1 0 0 1 45 47)" fill="#795548">9</text>
	<text transform="matrix(1 0 0 1 47.50 58.55)" fill="#546E7A">10</text>
	<text transform="matrix(1 0 0 1 30 73.50)" fill="#E53935">11</text>
	<text transform="matrix(1 0 0 1 49.50 71.50)" fill="#FB8C00">12</text>
	<text transform="matrix(1 0 0 1 33.75 85.50)" fill="#FDD835">13</text>
	<text transform="matrix(1 0 0 1 69.50 38.50)" fill="#43A047">14</text>
	<text transform="matrix(1 0 0 1 73.50 16.50)" fill="#1E88E5">15</text>
	<text transform="matrix(1 0 0 1 68.50 53.91)" fill="#8E24AA">16</text>
</g>
</svg>
