<?xml version="1.0" encoding="UTF-8"?>
<svg xmlns="http://www.w3.org/2000/svg" width="109" height="109" viewBox="0 0 109 109">
<g id="kvg:StrokePaths_06b62" style="fill:none;stroke:#000000;stroke-width:3;stroke-linecap:round;stroke-linejoin:round;">
<g id="kvg:06b62">
	<g id="kvg:06b62-g1">
		<path id="kvg:s-s1" stroke="#E53935" d="M53.43,16.25c1.22,1.22,2.08,3.25,2.08,4.62c0,5.26,0.11,47.51,0.11,65.88"/>
		<path id="kvg:s-s2" stroke="#FB8C00" d="M55.88,49.75c8.92-0.75,15.63-2,24.4-2.75c2.17-0.19,2.73-0.25,4.09,0"/>
	</g>
	<path id="kvg:s-s3" stroke="#FDD835" d="M31.43,47.5c1.1,1.1,1.83,3,1.83,4.36c0,4.51,0.32,25.66,0.12,36.64"/>
	<path id="kvg:s-s4" stroke="#43A047" d="M14,90c1.75,0.62,3.87,0.95,6.66,0.75c17.21-1.25,47.96-4,63.81-4.25c2.81-0.04,6.65,0.12,8.78,0.75"/>
</g>
</g>
<g id="kvg:StrokeNumbers_06b62" style="font-size:18;fill:#E53935;font-weight:bold;stroke:#fff;stroke-width:1.5;paint-order:stroke">
	<text transform="matrix(1 0 0 1 43.50 15.50)" fill="#E53935">1</text>
	<text transform="matrix(1 0 0 1 62.25 45.13)" fill="#FB8C00">2</text>
	<text transform="matrix(1 0 0 1 21.50 47.50)" fill="#FDD835">3</text>
	<text transform="matrix(1 0 0 1 5.25 90.13)" fill="#43A047">4</text>
</g>
</svg>
