<?xml version="1.0" encoding="UTF-8"?>
<svg xmlns="http://www.w3.org/2000/svg" width="109" height="109" viewBox="0 0 109 109">
<g id="kvg:StrokePaths_06b8b" style="fill:none;stroke:#000000;stroke-width:3;stroke-linecap:round;stroke-linejoin:round;">
<g id="kvg:06b8b">
	<g id="kvg:06b8b-g1">
		<g id="kvg:06b8b-g2">
			<path id="kvg:s-s1" stroke="#E53935" d="M13.5,21.72c2,0.28,3.54,0.31,5.38,0.03c5.37-0.82,15.93-2.6,22.24-3.46c2.01-0.27,4.14-0.54,5.64-0.02"/>
		</g>
		<g id="kvg:06b8b-g3">
			<path id="kvg:s-s2" stroke="#FB8C00" d="M30.38,24.12c0.34,1.24,0.3,2.45-0.12,3.73c-2.79,8.63-8.48,21.25-18.38,31.77"/>
			<path id="kvg:s-s3" stroke="#FDD835" d="M29.64,39.5c0.26,0.05,1.38,0.17,2.14,0.11c3.1-0.24,5.23-0.61,9.93-2.05c2.42-0.74,3.53,0.76,2.79,3.31c-5.62,19.38-14.5,42-31.89,55.38"/>
			<path id="kvg:s-s4" stroke="#43A047" d="M20.88,53.75c4.2,1.88,9.98,7.21,11.9,10.64"/>
		</g>
	</g>
	<g id="kvg:06b8b-g4">
		<g id="kvg:06b8b-g5">
			<g id="kvg:06b8b-g6">
				<path id="kvg:s-s5" stroke="#1E88E5" d="M52.25,31.4c1.8,0.65,3.95,0.45,5.79,0.12c4.99-0.88,14.92-3.93,20.85-5.45c1.19-0.31,2.37-0.58,3.61-0.58"/>
			</g>
			<g id="kvg:06b8b-g7">
				<path id="kvg:s-s6" stroke="#8E24AA" d="M51.25,45.14c2.25,0.49,4.54,0.29,6.4-0.13c5.97-1.36,16.72-5.1,22.11-6.82c1.21-0.39,2.45-0.69,3.73-0.69"/>
			</g>
		</g>
		<g id="kvg:06b8b-g8">
			<g id="kvg:06b8b-g9">
				<g id="kvg:06b8b-g10">
					<g id="kvg:06b8b-g11">
						<path id="kvg:s-s7" stroke="#EC407A" d="M47.5,57.7c2.4,0.86,5.21,0.46,7.63-0.07c6.57-1.42,22.23-5.9,29.79-7.99c1.6-0.44,3.19-0.71,4.83-0.89"/>
					</g>
				</g>
				<path id="kvg:s-s8" stroke="#00ACC1" d="M61.5,11.25c1.5,1.75,2.39,3.48,2.69,7.25c2.44,30.38,10.94,58.88,27.71,73c5.34,4.5,4.48-2.62,4.32-8.25"/>
			</g>
			<g id="kvg:06b8b-g12">
				<path id="kvg:s-s9" stroke="#795548" d="M87,57.12c0.11,0.77-0.04,1.73-0.48,2.83C83.88,66.47,70.18,81.23,48,90.25"/>
			</g>
			<g id="kvg:06b8b-g13">
				<g id="kvg:06b8b-g14">
					<path id="kvg:s-s10" stroke="#546E7A" d="M79,12.75c4.59,2.35,11,7.12,14.08,11.75"/>
				</g>
			</g>
		</g>
	</g>
</g>
</g>
<g id="kvg:StrokeNumbers_06b8b" style="font-size:18;fill:#E53935;font-weight:bold;stroke:#fff;stroke-width:1.5;paint-order:stroke">
	<text transform="matrix(1 0 0 1 6.49 21.13)" fill="#E53935">1</text>
	<text transform="matrix(1 0 0 1 21.75 31.63)" fill="#FB8C00">2</text>
	<text transform="matrix(1 0 0 1 35.25 35.50)" fill="#FDD835">3</text>
	<text transform="matrix(1 0 0 1 24.75 54.13)" fill="#43A047">4</text>
	<text transform="matrix(1 0 0 1 50.25 28.63)" fill="#1E88E5">5</text>
	<text transform="matrix(1 0 0 1 50.25 42.13)" fill="#8E24AA">6</text>
	<text transform="matrix(1 0 0 1 50.25 55.63)" fill="#EC407A">7</text>
	<text transform="matrix(1 0 0 1 51.75 12.13)" fill="#00ACC1">8</text>
	<text transform="matrix(1 0 0 1 92.50 59.50)" fill="#795548">9</text>
	<text transform="matrix(1 0 0 1 74.50 10.50)" fill="#546E7A">10</text>
</g>
</svg>
