<?xml version="1.0" encoding="UTF-8"?>
<svg xmlns="http://www.w3.org/2000/svg" width="109" height="109" viewBox="0 0 109 109">
<g id="kvg:StrokePaths_06b96" style="fill:none;stroke:#000000;stroke-width:3;stroke-linecap:round;stroke-linejoin:round;">
<g id="kvg:06b96">
	<g id="kvg:06b96-g1">
		<g id="kvg:06b96-g2">
			<path id="kvg:s-s1" stroke="#E53935" d="M18.17,25.6c1.96,0.4,3.73,0.27,5.7-0.04c5.08-0.81,13.48-2.04,19.14-2.79c1.82-0.24,3.7-0.57,5.5-0.04"/>
		</g>
		<g id="kvg:06b96-g3">
			<path id="kvg:s-s2" stroke="#FB8C00" d="M29.04,28.56c0.16,0.6,0.25,2.18-0.1,3.32c-2.35,7.75-6.97,19.1-15.3,28.55"/>
			<path id="kvg:s-s3" stroke="#FDD835" d="M29.33,40.87c0.27,0.05,1.4,0,2.17-0.13c2.15-0.36,5.24-1.24,8.78-1.95c3.28-0.65,5.06,0.17,3.85,3.66C38.5,58.62,31.62,77.62,12.08,93"/>
			<path id="kvg:s-s4" stroke="#43A047" d="M23.98,55.49c2.61,1.52,6.74,6.25,7.39,8.61"/>
		</g>
	</g>
	<g id="kvg:06b96-g4">
		<g id="kvg:06b96-g5">
			<path id="kvg:s-s5" stroke="#1E88E5" d="M53.57,30.45c2.18,0.3,4.47,0.22,6.06,0.05c8.06-0.86,18.4-2.3,29-3.12c2.04-0.16,3.77-0.25,5.76,0.15"/>
			<path id="kvg:s-s6" stroke="#8E24AA" d="M72.4,17.37c1.05,1.05,1.22,2.26,1.27,3.62c0.03,0.92-1.04,14.26-1.81,20.97"/>
		</g>
		<g id="kvg:06b96-g6">
			<path id="kvg:s-s7" stroke="#EC407A" d="M58.35,42.84c1.03,1.03,1.33,2.16,1.33,3.79c0,1,0.05,18.42,0,30.12c-0.01,1.8-0.02,3.45-0.05,4.89"/>
			<path id="kvg:s-s8" stroke="#00ACC1" d="M60.66,44.59c2.62-0.15,21.25-2.76,23.65-2.94c1.88-0.14,3.21,0.73,3.21,2.75c0,5.1,0.06,25.35,0.06,31.1c0,1.83-0.04,3.57-0.04,5.17"/>
			<path id="kvg:s-s9" stroke="#795548" d="M60.62,55.52c6.13-0.52,19.88-1.89,25.51-2.09"/>
			<path id="kvg:s-s10" stroke="#546E7A" d="M60.57,67.18c6.62-0.49,19.33-1.74,25.76-1.74"/>
			<path id="kvg:s-s11" stroke="#E53935" d="M60.59,78.97c4.62-0.44,22.42-1.52,25.74-1.52"/>
		</g>
		<path id="kvg:s-s12" stroke="#FB8C00" d="M47.43,59.47c0.67,1.14,1.01,1.6,1.01,3.88s-0.02,19.52-0.02,23.62c0,2.34,1.12,3.52,3.16,3.42c13.18-0.64,25.8-1.02,38.06-1.56C92.07,88.73,95,89,97,89.38"/>
	</g>
</g>
</g>
<g id="kvg:StrokeNumbers_06b96" style="font-size:18;font-weight:bold;stroke:#fff;stroke-width:1.5;paint-order:stroke">
	<text transform="matrix(1 0 0 1 11.50 26.50)" fill="#E53935">1</text>
	<text transform="matrix(1 0 0 1 20.25 36.50)" fill="#FB8C00">2</text>
	<text transform="matrix(1 0 0 1 32.50 37.50)" fill="#FDD835">3</text>
	<text transform="matrix(1 0 0 1 25.50 55.55)" fill="#43A047">4</text>
	<text transform="matrix(1 0 0 1 52.50 27.50)" fill="#1E88E5">5</text>
	<text transform="matrix(1 0 0 1 62.50 17.50)" fill="#8E24AA">6</text>
	<text transform="matrix(1 0 0 1 51.50 49.50)" fill="#EC407A">7</text>
	<text transform="matrix(1 0 0 1 62.25 41.50)" fill="#00ACC1">8</text>
	<text transform="matrix(1 0 0 1 65.25 52.50)" fill="#795548">9</text>
	<text transform="matrix(1 0 0 1 65.25 63.92)" fill="#546E7A">10</text>
	<text transform="matrix(1 0 0 1 65.25 75.85)" fill="#E53935">11</text>
	<text transform="matrix(1 0 0 1 38.50 69.50)" fill="#FB8C00">12</text>
</g>
</svg>
