<?xml version="1.0" encoding="UTF-8"?>
<svg xmlns="http://www.w3.org/2000/svg" width="109" height="109" viewBox="0 0 109 109">
<g id="kvg:StrokePaths_06bc0" style="fill:none;stroke:#000000;stroke-width:3;stroke-linecap:round;stroke-linejoin:round;">
<g id="kvg:06bc0">
	<g id="kvg:06bc0-g1">
		<g id="kvg:06bc0-g2">
			<path id="kvg:s-s1" stroke="#E53935" d="M28.38,15.71c0.04,0.24,0.16,0.69-0.07,0.94c-3.1,3.36-6.72,6.35-13.78,9.02"/>
			<path id="kvg:s-s2" stroke="#FB8C00" d="M13.03,24.91c0.58,0.55,0.82,1.79,0.96,2.92c0.53,4.14,2.7,19.82,3.23,25.42"/>
			<path id="kvg:s-s3" stroke="#FDD835" d="M15.85,36.75c2.88-0.25,10.82-1.26,11.5-1.26c0.68,0,1.64,0,2.19,0"/>
			<path id="kvg:s-s4" stroke="#43A047" d="M35.71,22.4c0.68,0.13,1.23,0.38,2.19,0.38c0.96,0,11.09-1.51,12.19-1.64c1.1-0.13,2,0.62,1.92,1.39c-0.82,7.3-1.92,21.41-2.74,27.45c-0.12,0.87,0,1.39-0.14,1.89"/>
			<path id="kvg:s-s5" stroke="#1E88E5" d="M35.98,34.99c0.68,0.13,1.23,0.38,2.19,0.38c0.96,0,10.82-1.01,11.91-1.13"/>
			<path id="kvg:s-s6" stroke="#8E24AA" d="M17.36,52.11c1.78,0,29.17-2.64,31.22-2.76"/>
		</g>
		<g id="kvg:06bc0-g3">
			<path id="kvg:s-s7" stroke="#EC407A" d="M17,69.64c0.76,0.38,2.24,0.46,3,0.36c4.82-0.66,20.15-2.39,25.5-3c1.25-0.14,2.62-0.18,3.25,0.01"/>
			<path id="kvg:s-s8" stroke="#00ACC1" d="M31.37,56.25c1.09,0.5,1.96,2.23,1.96,3.25c0,7.25,0.03,15.75,0.03,26.5"/>
			<path id="kvg:s-s9" stroke="#795548" d="M15,91.1c0.81,0.65,2.43,0.99,4.86,0.14c6.75-2.38,18.89-6.62,25.64-8.99"/>
		</g>
	</g>
	<g id="kvg:06bc0-g4">
		<g id="kvg:06bc0-g5">
			<g id="kvg:06bc0-g6">
				<path id="kvg:s-s10" stroke="#546E7A" d="M63.17,19.35c0.02,0.65-0.02,1.67-0.04,2.6c-0.2,9.68-0.87,20.55-8.34,24.9"/>
			</g>
			<path id="kvg:s-s11" stroke="#E53935" d="M61.6,18.28c2.2,0.28,13.69-1.84,15.16-2.4c2.2-0.84,3.3,1.77,3.08,3.62c-0.44,3.62-2.16,9.75-2.16,13.37c0,5.01,1.1,8.85,8.35,8.64c8.72-0.26,9.89-2.26,9.89-9.36"/>
		</g>
		<g id="kvg:06bc0-g7">
			<path id="kvg:s-s12" stroke="#FB8C00" d="M58,54.15c1.44,0.36,1.62,0.91,4.49,0.36c2.88-0.55,16.43-3.98,18.41-4.53c1.98-0.55,3.58,2.12,2.7,4.01C74.49,73.53,62.75,84.6,45.5,93.67"/>
			<path id="kvg:s-s13" stroke="#FDD835" d="M56.23,60.15c3.73,0.82,21.94,22.75,34.92,31.73c2.02,1.4,3.49,2.33,5.37,2.8"/>
		</g>
	</g>
</g>
</g>
<g id="kvg:StrokeNumbers_06bc0" style="font-size:18;font-weight:bold;stroke:#fff;stroke-width:1.5;paint-order:stroke">
	<text transform="matrix(1 0 0 1 20.50 16.50)" fill="#E53935">1</text>
	<text transform="matrix(1 0 0 1 6.50 31.50)" fill="#FB8C00">2</text>
	<text transform="matrix(1 0 0 1 19.50 33.50)" fill="#FDD835">3</text>
	<text transform="matrix(1 0 0 1 35.50 19.50)" fill="#43A047">4</text>
	<text transform="matrix(1 0 0 1 35.50 31.50)" fill="#1E88E5">5</text>
	<text transform="matrix(1 0 0 1 20.75 48.50)" fill="#8E24AA">6</text>
	<text transform="matrix(1 0 0 1 10.50 70.50)" fill="#EC407A">7</text>
	<text transform="matrix(1 0 0 1 22.50 60.50)" fill="#00ACC1">8</text>
	<text transform="matrix(1 0 0 1 6.75 91.03)" fill="#795548">9</text>
	<text transform="matrix(1 0 0 1 54.50 28.50)" fill="#546E7A">10</text>
	<text transform="matrix(1 0 0 1 64.75 14.50)" fill="#E53935">11</text>
	<text transform="matrix(1 0 0 1 61.75 50.50)" fill="#FB8C00">12</text>
	<text transform="matrix(1 0 0 1 46.75 62.23)" fill="#FDD835">13</text>
</g>
</svg>
