<?xml version="1.0" encoding="UTF-8"?>
<svg xmlns="http://www.w3.org/2000/svg" width="109" height="109" viewBox="0 0 109 109">
<g id="kvg:StrokePaths_06c38" style="fill:none;stroke:#000000;stroke-width:3;stroke-linecap:round;stroke-linejoin:round;">
<g id="kvg:06c38">
	<g id="kvg:06c38-g1">
		<path id="kvg:s-s1" stroke="#E53935" d="M45.5,13.25c5.12,2.4,8.62,5.75,10.75,9"/>
	</g>
	<g id="kvg:06c38-g2">
		<path id="kvg:s-s2" stroke="#FB8C00" d="M31.75,37.25c1.88,0.75,4.12,1,6.07,0.55c3.62-0.83,9.41-2.51,13.04-3.35c3-0.7,5.16,0.8,5.16,4.05c0,14.5-0.26,45.45-0.26,50c0,12-7.02,2.84-8.52,1.7"/>
		<path id="kvg:s-s3" stroke="#FDD835" d="M14.25,58.68c1.75,0.45,3.46,0.3,5-0.02c2.5-0.53,12.84-3.54,15.34-4.49c2.5-0.95,4.65,0.77,3.75,2.85C33.5,68.25,25.75,79.75,16,86.37"/>
		<path id="kvg:s-s4" stroke="#43A047" d="M81.22,36.52c-0.1,1.11-0.78,2.03-1.52,2.7c-4.83,4.38-13.96,9.73-21.46,11.92"/>
		<path id="kvg:s-s5" stroke="#1E88E5" d="M58,52.74c9.88,9.52,20.02,18.85,29.07,24.84c2.01,1.33,4.05,2.66,6.43,3.56"/>
	</g>
</g>
</g>
<g id="kvg:StrokeNumbers_06c38" style="font-size:18;fill:#E53935;font-weight:bold;stroke:#fff;stroke-width:1.5;paint-order:stroke">
	<text transform="matrix(1 0 0 1 36.75 13.50)" fill="#E53935">1</text>
	<text transform="matrix(1 0 0 1 23.50 37.50)" fill="#FB8C00">2</text>
	<text transform="matrix(1 0 0 1 6.75 59.50)" fill="#FDD835">3</text>
	<text transform="matrix(1 0 0 1 72.50 35.50)" fill="#43A047">4</text>
	<text transform="matrix(1 0 0 1 67.50 58.50)" fill="#1E88E5">5</text>
</g>
</svg>
