<?xml version="1.0" encoding="UTF-8"?>
<svg xmlns="http://www.w3.org/2000/svg" width="109" height="109" viewBox="0 0 109 109">
<g id="kvg:StrokePaths_06c42" style="fill:none;stroke:#000000;stroke-width:3;stroke-linecap:round;stroke-linejoin:round;">
<g id="kvg:06c42">
	<path id="kvg:s-s1" stroke="#E53935" d="M19.75,35.4c2.75,0.47,6.08,0.33,8.77,0.02C41,34,62.3,31.74,74.38,30.83c3.24-0.25,6.66-0.65,9.87,0.05"/>
	<g id="kvg:06c42-g1">
		<path id="kvg:s-s2" stroke="#FB8C00" d="M52.27,11.33c1.26,1.26,1.76,2.67,1.76,4.77c0,15.77-0.01,68.02-0.01,77.12c0,8.53-5.77,2.53-8.71,0.25"/>
		<path id="kvg:s-s3" stroke="#FDD835" d="M26.27,49.08c3.99,1.48,10.3,6.08,11.29,8.38"/>
		<path id="kvg:s-s4" stroke="#43A047" d="M18.45,83.33c1.18,0.55,2.93,0.42,4.3-0.7c1.7-1.39,14.5-13.38,22.75-21.38"/>
		<path id="kvg:s-s5" stroke="#1E88E5" d="M81,42.25c0,0.88-0.22,2.08-0.78,2.81c-3.37,4.36-9.59,9.13-15.47,12.19"/>
		<path id="kvg:s-s6" stroke="#8E24AA" d="M60.25,62.5c3.5,1,17.39,15.53,24.45,20.14c2.06,1.34,5.3,3.48,8.05,4.36"/>
	</g>
	<g id="kvg:06c42-g2">
		<path id="kvg:s-s7" stroke="#EC407A" d="M69.5,11.5c4.08,1.63,10.54,6.69,11.56,9.22"/>
	</g>
</g>
</g>
<g id="kvg:StrokeNumbers_06c42" style="font-size:18;fill:#E53935;font-weight:bold;stroke:#fff;stroke-width:1.5;paint-order:stroke">
	<text transform="matrix(1 0 0 1 13.50 36.50)" fill="#E53935">1</text>
	<text transform="matrix(1 0 0 1 43.99 10.56)" fill="#FB8C00">2</text>
	<text transform="matrix(1 0 0 1 18.49 50.98)" fill="#FDD835">3</text>
	<text transform="matrix(1 0 0 1 10.99 89.50)" fill="#43A047">4</text>
	<text transform="matrix(1 0 0 1 72.50 42.50)" fill="#1E88E5">5</text>
	<text transform="matrix(1 0 0 1 60.49 74.76)" fill="#8E24AA">6</text>
	<text transform="matrix(1 0 0 1 63.50 10.50)" fill="#EC407A">7</text>
</g>
</svg>
