<?xml version="1.0" encoding="UTF-8"?>
<svg xmlns="http://www.w3.org/2000/svg" width="109" height="109" viewBox="0 0 109 109">
<g id="kvg:StrokePaths_06c7d" style="fill:none;stroke:#000000;stroke-width:3;stroke-linecap:round;stroke-linejoin:round;">
<g id="kvg:06c7d">
	<g id="kvg:06c7d-g1">
		<path id="kvg:s-s1" stroke="#E53935" d="M17.75,18.82c3.71,1.43,9.57,5.87,10.5,8.09"/>
		<path id="kvg:s-s2" stroke="#FB8C00" d="M13.62,41.44c3.93,1.43,10.14,5.9,11.12,8.12"/>
		<path id="kvg:s-s3" stroke="#FDD835" d="M14.25,88.27c1.75,0.79,3.31,0.36,4.25-1.25c2.75-4.7,5-9.95,7.5-15.95"/>
	</g>
	<g id="kvg:06c7d-g2">
		<g id="kvg:06c7d-g3">
			<path id="kvg:s-s4" stroke="#43A047" d="M49.91,11.25c0.47,1.44,0.22,3.06-0.61,4.83C46.99,21,40.88,31.69,34,38.57"/>
			<path id="kvg:s-s5" stroke="#1E88E5" d="M48.23,24.94c0.77,0.12,2.45-0.02,3.42-0.18c7.01-1.14,16.87-3.24,24.97-4.98c1.48-0.32,2.88-0.59,4.38-0.47"/>
		</g>
		<path id="kvg:s-s6" stroke="#8E24AA" d="M45.06,37.09c1.61,0.39,2.94,0.4,4.57,0.2c8.37-0.99,15.3-2.36,22.25-3.79c1.67-0.34,3.61-0.69,5.04-0.54"/>
		<path id="kvg:s-s7" stroke="#EC407A" d="M37.89,51.74c2.31,0.56,4.03,0.56,6.37,0.15c12.09-2.11,23.99-4.68,32.99-6.58c2.55-0.54,3.47,1.02,3.2,2.78c-3.45,22.73,1.8,35.6,11.89,45.17c5.27,5,5.66,4.3,5.16-6.21"/>
	</g>
</g>
</g>
<g id="kvg:StrokeNumbers_06c7d" style="font-size:18;fill:#E53935;font-weight:bold;stroke:#fff;stroke-width:1.5;paint-order:stroke">
	<text transform="matrix(1 0 0 1 9.75 18.70)" fill="#E53935">1</text>
	<text transform="matrix(1 0 0 1 5.25 42.70)" fill="#FB8C00">2</text>
	<text transform="matrix(1 0 0 1 6.75 92.20)" fill="#FDD835">3</text>
	<text transform="matrix(1 0 0 1 50.25 6.70)" fill="#43A047">4</text>
	<text transform="matrix(1 0 0 1 56.25 20.20)" fill="#1E88E5">5</text>
	<text transform="matrix(1 0 0 1 47.25 35.20)" fill="#8E24AA">6</text>
	<text transform="matrix(1 0 0 1 39.75 50.20)" fill="#EC407A">7</text>
</g>
</svg>
