<?xml version="1.0" encoding="UTF-8"?>
<svg xmlns="http://www.w3.org/2000/svg" width="109" height="109" viewBox="0 0 109 109">
<g id="kvg:StrokePaths_06c88" style="fill:none;stroke:#000000;stroke-width:3;stroke-linecap:round;stroke-linejoin:round;">
<g id="kvg:06c88">
	<g id="kvg:06c88-g1">
		<path id="kvg:s-s1" stroke="#E53935" d="M23.13,20.25c3.31,1.3,8.54,5.33,9.37,7.34"/>
		<path id="kvg:s-s2" stroke="#FB8C00" d="M14.75,40.75c3.26,1.41,8.43,5.8,9.25,8"/>
		<path id="kvg:s-s3" stroke="#FDD835" d="M13.25,89.21c1.62,0.54,2.57-0.13,3.5-1.75c3.12-5.45,5.12-9.08,9.75-17.95"/>
	</g>
	<g id="kvg:06c88-g2">
		<g id="kvg:06c88-g3">
			<path id="kvg:s-s4" stroke="#43A047" d="M41.79,33.51c0,4.13-1.75,15.49-2.54,18.24"/>
			<path id="kvg:s-s5" stroke="#1E88E5" d="M42.74,36.49c12.51-2.74,29.01-5.61,40.95-6.65c12.02-1.05,3.8,7.41-0.45,10.78"/>
		</g>
		<g id="kvg:06c88-g4">
			<g id="kvg:06c88-g5">
				<path id="kvg:s-s6" stroke="#8E24AA" d="M61.72,11c1.14,1.14,1.51,2.37,1.57,4.26C64,38.62,62.25,76.5,30.67,92.42"/>
			</g>
			<g id="kvg:06c88-g6">
				<path id="kvg:s-s7" stroke="#EC407A" d="M65.24,52.62c0.74,1.19,1.12,2.59,1.12,4.43c0,7.83-0.03,17.64-0.03,23.2c0,9.88,2.17,11.78,15.67,11.78c11.87,0,12.89-2.28,12.89-10.12"/>
			</g>
		</g>
	</g>
</g>
</g>
<g id="kvg:StrokeNumbers_06c88" style="font-size:18;font-weight:bold;stroke:#fff;stroke-width:1.5;paint-order:stroke">
	<text transform="matrix(1 0 0 1 17.25 21.13)" fill="#E53935">1</text>
	<text transform="matrix(1 0 0 1 8.50 41.50)" fill="#FB8C00">2</text>
	<text transform="matrix(1 0 0 1 3.75 91.63)" fill="#FDD835">3</text>
	<text transform="matrix(1 0 0 1 35.50 36.50)" fill="#43A047">4</text>
	<text transform="matrix(1 0 0 1 44.50 32.50)" fill="#1E88E5">5</text>
	<text transform="matrix(1 0 0 1 51.50 11.50)" fill="#8E24AA">6</text>
	<text transform="matrix(1 0 0 1 72.75 60.13)" fill="#EC407A">7</text>
</g>
</svg>
