<?xml version="1.0" encoding="UTF-8"?>
<svg xmlns="http://www.w3.org/2000/svg" width="109" height="109" viewBox="0 0 109 109">
<g id="kvg:StrokePaths_06c83" style="fill:none;stroke:#000000;stroke-width:3;stroke-linecap:round;stroke-linejoin:round;">
<g id="kvg:06c83">
	<g id="kvg:06c83-g1">
		<path id="kvg:s-s1" stroke="#E53935" d="M18.38,17c4.54,1.34,11.73,5.51,12.87,7.59"/>
		<path id="kvg:s-s2" stroke="#FB8C00" d="M13.75,40c3.97,1.32,10.26,5.44,11.25,7.5"/>
		<path id="kvg:s-s3" stroke="#FDD835" d="M11.75,88.97c1.81,1.29,3.98,1.34,5.12-0.25c3.31-4.64,6.62-10.31,9.63-16.22"/>
	</g>
	<g id="kvg:06c83-g2">
		<g id="kvg:06c83-g3">
			<path id="kvg:s-s4" stroke="#43A047" d="M80.57,15.89c-0.07,0.86-0.15,1.73-0.71,2.26C75.75,22,59.25,30.75,42.51,34.5"/>
		</g>
		<g id="kvg:06c83-g4">
			<path id="kvg:s-s5" stroke="#1E88E5" d="M36.35,52.51c0.77,0.42,2.73,0.64,3.58,0.58c9.8-0.69,39.33-4.74,51.61-4.9c1.07-0.01,2.57,0.16,4.95,0.88"/>
			<path id="kvg:s-s6" stroke="#8E24AA" d="M63.66,30.9c0.47,0.88,0.72,1.89,0.71,3.79C64.14,67.56,52.75,84.9,34,95"/>
			<path id="kvg:s-s7" stroke="#EC407A" d="M64.67,52.9c6.83,12.35,19.46,30.07,27.1,36.39c2.33,1.92,2.98,2.36,3.98,2.56"/>
		</g>
	</g>
</g>
</g>
<g id="kvg:StrokeNumbers_06c83" style="font-size:18;font-weight:bold;stroke:#fff;stroke-width:1.5;paint-order:stroke">
	<text transform="matrix(1 0 0 1 11.50 17.50)" fill="#E53935">1</text>
	<text transform="matrix(1 0 0 1 7.25 39.55)" fill="#FB8C00">2</text>
	<text transform="matrix(1 0 0 1 4.25 89.48)" fill="#FDD835">3</text>
	<text transform="matrix(1 0 0 1 72.50 15.40)" fill="#43A047">4</text>
	<text transform="matrix(1 0 0 1 36.25 47.33)" fill="#1E88E5">5</text>
	<text transform="matrix(1 0 0 1 55.25 38.25)" fill="#8E24AA">6</text>
	<text transform="matrix(1 0 0 1 73.25 59.18)" fill="#EC407A">7</text>
</g>
</svg>
