<?xml version="1.0" encoding="UTF-8"?>
<svg xmlns="http://www.w3.org/2000/svg" width="109" height="109" viewBox="0 0 109 109">
<g id="kvg:StrokePaths_06c96" style="fill:none;stroke:#000000;stroke-width:3;stroke-linecap:round;stroke-linejoin:round;">
<g id="kvg:06c96">
	<g id="kvg:06c96-g1">
		<path id="kvg:s-s1" stroke="#E53935" d="M25.13,18.25c3.31,1.47,8.54,6.05,9.37,8.34"/>
		<path id="kvg:s-s2" stroke="#FB8C00" d="M16,37.5c3.88,1.54,10.03,6.35,11,8.75"/>
		<path id="kvg:s-s3" stroke="#FDD835" d="M12.87,86.7c1.34,0.49,2.68,0.22,3.48-0.98c3.1-4.64,7.33-10.8,10.15-16.72"/>
	</g>
	<g id="kvg:06c96-g2">
		<g id="kvg:06c96-g3">
			<path id="kvg:s-s4" stroke="#43A047" d="M43.99,38.73c0.76,0.76,1.37,1.66,1.61,3.02c0.74,4.23,1.59,10.05,2.55,16.95c0.19,1.38,0.39,2.8,0.59,4.26"/>
			<path id="kvg:s-s5" stroke="#1E88E5" d="M46.06,40.11c12.56-1.73,33.33-3.8,41.82-4.32c3.4-0.21,5.51,0.86,4.33,4.27c-1.84,5.32-2.71,8.07-5.72,15.75"/>
			<path id="kvg:s-s6" stroke="#8E24AA" d="M49.55,59.37c9.41-0.78,23.38-1.38,35.21-2.05c1.3-0.07,2.58-0.14,3.83-0.2"/>
		</g>
		<g id="kvg:06c96-g4">
			<path id="kvg:s-s7" stroke="#EC407A" d="M66.17,14.75c0.85,0.85,1.32,2.38,1.32,4.07c0,3.25,0.04,53.36,0.03,71.05c0,3.69,0,5.97-0.01,6.12"/>
		</g>
	</g>
</g>
</g>
<g id="kvg:StrokeNumbers_06c96" style="font-size:18;fill:#E53935;font-weight:bold;stroke:#fff;stroke-width:1.5;paint-order:stroke">
	<text transform="matrix(1 0 0 1 17.25 17.50)" fill="#E53935">1</text>
	<text transform="matrix(1 0 0 1 8.25 37.50)" fill="#FB8C00">2</text>
	<text transform="matrix(1 0 0 1 5.50 90.50)" fill="#FDD835">3</text>
	<text transform="matrix(1 0 0 1 38.50 47.50)" fill="#43A047">4</text>
	<text transform="matrix(1 0 0 1 47.25 36.13)" fill="#1E88E5">5</text>
	<text transform="matrix(1 0 0 1 52.50 56.50)" fill="#8E24AA">6</text>
	<text transform="matrix(1 0 0 1 56.25 15.13)" fill="#EC407A">7</text>
</g>
</svg>
