<?xml version="1.0" encoding="UTF-8"?>
<svg xmlns="http://www.w3.org/2000/svg" width="109" height="109" viewBox="0 0 109 109">
<g id="kvg:StrokePaths_06ca1" style="fill:none;stroke:#000000;stroke-width:3;stroke-linecap:round;stroke-linejoin:round;">
<g id="kvg:06ca1">
	<g id="kvg:06ca1-g1">
		<path id="kvg:s-s1" stroke="#E53935" d="M18.63,17.25c4.72,1.56,12.19,6.41,13.37,8.84"/>
		<path id="kvg:s-s2" stroke="#FB8C00" d="M15.25,39.75c4.24,1.63,10.94,6.71,12,9.25"/>
		<path id="kvg:s-s3" stroke="#FDD835" d="M15,91.73c2,0.64,3.28-0.18,4.36-1.75c3.14-4.57,9.04-14.66,11.89-20.49"/>
	</g>
	<g id="kvg:06ca1-g2">
		<g id="kvg:06ca1-g3">
			<g id="kvg:06ca1-g4">
				<path id="kvg:s-s4" stroke="#43A047" d="M51.79,17.13c0.84,0.84,1.05,2.12,1.05,3.56c0,10.77-0.84,22.31-12.83,27.7"/>
			</g>
			<path id="kvg:s-s5" stroke="#1E88E5" d="M53.11,18c5.64-0.62,14.52-2.25,17.5-2.85c2.7-0.55,4.15,0.85,3.65,3.65c-0.69,3.88-0.78,10-0.78,13.91c0,7.42,1.15,8.8,7.91,8.8c7.37,0,8.91-1.51,8.91-9.21"/>
		</g>
		<g id="kvg:06ca1-g5">
			<path id="kvg:s-s6" stroke="#8E24AA" d="M49.63,54.5c1.67,0.4,3.13,0.74,6.48,0.15s15.72-4.24,18.07-4.58c3.83-0.56,5.05,1.17,3.13,4.6c-10.56,18.96-22.56,32.71-43.56,42.5"/>
			<path id="kvg:s-s7" stroke="#EC407A" d="M48.17,64.37c5.54,0.35,20.96,16.13,35.39,26.75c2.93,2.16,5.57,4.01,9.28,5.25"/>
		</g>
	</g>
</g>
</g>
<g id="kvg:StrokeNumbers_06ca1" style="font-size:18;font-weight:bold;stroke:#fff;stroke-width:1.5;paint-order:stroke">
	<text transform="matrix(1 0 0 1 11.50 18.50)" fill="#E53935">1</text>
	<text transform="matrix(1 0 0 1 8.25 41.50)" fill="#FB8C00">2</text>
	<text transform="matrix(1 0 0 1 7.50 96.50)" fill="#FDD835">3</text>
	<text transform="matrix(1 0 0 1 44.25 25.63)" fill="#43A047">4</text>
	<text transform="matrix(1 0 0 1 54.75 14.50)" fill="#1E88E5">5</text>
	<text transform="matrix(1 0 0 1 50.50 52.50)" fill="#8E24AA">6</text>
	<text transform="matrix(1 0 0 1 41.50 68.50)" fill="#EC407A">7</text>
</g>
</svg>
