<?xml version="1.0" encoding="UTF-8"?>
<svg xmlns="http://www.w3.org/2000/svg" width="109" height="109" viewBox="0 0 109 109">
<g id="kvg:StrokePaths_06ca2" style="fill:none;stroke:#000000;stroke-width:3;stroke-linecap:round;stroke-linejoin:round;">
<g id="kvg:06ca2">
	<g id="kvg:06ca2-g1">
		<path id="kvg:s-s1" stroke="#E53935" d="M19.63,14c3.31,1.47,8.54,6.05,9.37,8.34"/>
		<path id="kvg:s-s2" stroke="#FB8C00" d="M11.25,40.5c3.53,1.37,9.12,5.62,10,7.75"/>
		<path id="kvg:s-s3" stroke="#FDD835" d="M12,90.29c1.75,0.84,3.23,0.3,4.18-1.23C19.88,83.12,23.12,78,27,71.5"/>
	</g>
	<g id="kvg:06ca2-g2">
		<g id="kvg:06ca2-g3">
			<path id="kvg:s-s4" stroke="#43A047" d="M46.39,21.57c1.5,0.77,3.43,1,5.02,0.79C59.88,21.25,69,20,75.8,19.31c4.86-0.49,6.87,0.28,5.87,5.42c-0.94,4.9-2.11,10.64-3.67,18.02"/>
			<path id="kvg:s-s5" stroke="#1E88E5" d="M50,46.75c3.33-0.2,16.13-1.58,24.02-2.32c2.36-0.22,4.5-0.39,5.54-0.44"/>
			<g id="kvg:06ca2-g4">
				<path id="kvg:s-s6" stroke="#8E24AA" d="M48.59,22.87c0.9,0.9,1.25,2.32,1.25,3.63C49.82,48.19,49.42,73.93,33.25,90"/>
			</g>
		</g>
		<g id="kvg:06ca2-g5">
			<path id="kvg:s-s7" stroke="#EC407A" d="M58.25,47c6,10.25,14.88,24.62,24.77,35.47C86.25,86.02,89,89,93,92.25"/>
		</g>
	</g>
</g>
</g>
<g id="kvg:StrokeNumbers_06ca2" style="font-size:18;font-weight:bold;stroke:#fff;stroke-width:1.5;paint-order:stroke">
	<text transform="matrix(1 0 0 1 11.25 13.63)" fill="#E53935">1</text>
	<text transform="matrix(1 0 0 1 3.75 40.55)" fill="#FB8C00">2</text>
	<text transform="matrix(1 0 0 1 3.75 95.98)" fill="#FDD835">3</text>
	<text transform="matrix(1 0 0 1 51.50 19.50)" fill="#43A047">4</text>
	<text transform="matrix(1 0 0 1 54.75 42.05)" fill="#1E88E5">5</text>
	<text transform="matrix(1 0 0 1 41.50 29.50)" fill="#8E24AA">6</text>
	<text transform="matrix(1 0 0 1 66.75 57.13)" fill="#EC407A">7</text>
</g>
</svg>
