<?xml version="1.0" encoding="UTF-8"?>
<svg xmlns="http://www.w3.org/2000/svg" width="109" height="109" viewBox="0 0 109 109">
<g id="kvg:StrokePaths_06ccc" style="fill:none;stroke:#000000;stroke-width:3;stroke-linecap:round;stroke-linejoin:round;">
<g id="kvg:06ccc">
	<g id="kvg:06ccc-g1">
		<path id="kvg:s-s1" stroke="#E53935" d="M22,16.88c4.5,1.45,11.62,5.96,12.75,8.22"/>
		<path id="kvg:s-s2" stroke="#FB8C00" d="M16.25,37.25c4.5,1.41,11.62,5.8,12.75,8"/>
		<path id="kvg:s-s3" stroke="#FDD835" d="M13.88,86.52c1.67,0.8,2.95,0.19,3.95-1.12c3.37-4.37,6.73-9.7,9.8-15.27"/>
	</g>
	<g id="kvg:06ccc-g2">
		<g id="kvg:06ccc-g3">
			<path id="kvg:s-s4" stroke="#43A047" d="M54.36,24.5c2.89,6.5,6.64,9.75,7.58,3.97"/>
		</g>
		<g id="kvg:06ccc-g4">
			<path id="kvg:s-s5" stroke="#1E88E5" d="M77.65,22.93C78,24,78.3,24.76,77.91,27.19c-2.79,17.31-14.66,55.06-41.7,68.53"/>
		</g>
		<g id="kvg:06ccc-g5">
			<path id="kvg:s-s6" stroke="#8E24AA" d="M51.37,38.97C56.25,69.5,62.62,84.12,83.5,90.25c10.25,3.01,11.25,0.75,4.46-8.63"/>
			<path id="kvg:s-s7" stroke="#EC407A" d="M45.76,57.32c0.33,2.47-3.33,13.36-5.99,17.48"/>
			<path id="kvg:s-s8" stroke="#00ACC1" d="M85.56,48.92c3.49,3.06,7.63,9.33,8.94,15.3"/>
		</g>
	</g>
</g>
</g>
<g id="kvg:StrokeNumbers_06ccc" style="font-size:18;font-weight:bold;stroke:#fff;stroke-width:1.5;paint-order:stroke">
	<text transform="matrix(1 0 0 1 14.50 17.50)" fill="#E53935">1</text>
	<text transform="matrix(1 0 0 1 8.50 38.50)" fill="#FB8C00">2</text>
	<text transform="matrix(1 0 0 1 6.50 90.50)" fill="#FDD835">3</text>
	<text transform="matrix(1 0 0 1 51.50 21.13)" fill="#43A047">4</text>
	<text transform="matrix(1 0 0 1 68.50 22.63)" fill="#1E88E5">5</text>
	<text transform="matrix(1 0 0 1 42.50 37.50)" fill="#8E24AA">6</text>
	<text transform="matrix(1 0 0 1 40.50 53.50)" fill="#EC407A">7</text>
	<text transform="matrix(1 0 0 1 82.50 45.13)" fill="#00ACC1">8</text>
</g>
</svg>
