<?xml version="1.0" encoding="UTF-8"?>
<svg xmlns="http://www.w3.org/2000/svg" width="109" height="109" viewBox="0 0 109 109">
<g id="kvg:StrokePaths_06cd5" style="fill:none;stroke:#000000;stroke-width:3;stroke-linecap:round;stroke-linejoin:round;">
<g id="kvg:06cd5">
	<g id="kvg:06cd5-g1">
		<path id="kvg:s-s1" stroke="#E53935" d="M21.62,18.38c4.28,1.45,10,5.12,12.12,8.22"/>
		<path id="kvg:s-s2" stroke="#FB8C00" d="M16.12,41.5c4.28,1.28,9.5,4.25,12.12,7.25"/>
		<path id="kvg:s-s3" stroke="#FDD835" d="M14.62,92.12c1.1,0.26,2.42-0.08,3.07-1.16c2.92-4.77,6.64-12.13,9.3-18.22"/>
	</g>
	<g id="kvg:06cd5-g2">
		<g id="kvg:06cd5-g3">
			<path id="kvg:s-s4" stroke="#43A047" d="M45.25,33.73c1.39,0.38,3.95,0.72,5.34,0.63c9.28-0.6,24.28-1.98,33.87-2.81c2.31-0.2,4-0.07,5.16,0.12"/>
			<path id="kvg:s-s5" stroke="#1E88E5" d="M64.17,15.25c0.91,0.91,1.52,2.12,1.52,3.85c0,8.86,0.14,30.73,0.14,33.74"/>
			<path id="kvg:s-s6" stroke="#8E24AA" d="M38.13,55.92c1.82,0.54,5.18,0.49,7,0.29c14.38-1.58,34.32-3.71,46.12-3.9c3.04-0.05,4.87,0.25,6.39,0.52"/>
		</g>
		<g id="kvg:06cd5-g4">
			<path id="kvg:s-s7" stroke="#EC407A" d="M63.1,58.57c0.4,1.21,0.05,2.88-0.35,3.63c-5.5,10.3-9.5,15.3-17,25.79c-2.16,3.03-1.84,4.42,2.6,3.31c12.15-3.05,19.65-4.49,36.9-8.12"/>
			<path id="kvg:s-s8" stroke="#00ACC1" d="M79.02,73.32c4.43,3.6,11.44,14.8,12.54,20.4"/>
		</g>
	</g>
</g>
</g>
<g id="kvg:StrokeNumbers_06cd5" style="font-size:18;fill:#E53935;font-weight:bold;stroke:#fff;stroke-width:1.5;paint-order:stroke">
	<text transform="matrix(1 0 0 1 14.50 18.50)" fill="#E53935">1</text>
	<text transform="matrix(1 0 0 1 7.50 42.50)" fill="#FB8C00">2</text>
	<text transform="matrix(1 0 0 1 6.50 95.50)" fill="#FDD835">3</text>
	<text transform="matrix(1 0 0 1 41.50 30.50)" fill="#43A047">4</text>
	<text transform="matrix(1 0 0 1 53.50 15.50)" fill="#1E88E5">5</text>
	<text transform="matrix(1 0 0 1 38.50 53.50)" fill="#8E24AA">6</text>
	<text transform="matrix(1 0 0 1 54.50 65.68)" fill="#EC407A">7</text>
	<text transform="matrix(1 0 0 1 76.50 70.63)" fill="#00ACC1">8</text>
</g>
</svg>
