<?xml version="1.0" encoding="UTF-8"?>
<svg xmlns="http://www.w3.org/2000/svg" width="109" height="109" viewBox="0 0 109 109">
<g id="kvg:StrokePaths_06cf0" style="fill:none;stroke:#000000;stroke-width:3;stroke-linecap:round;stroke-linejoin:round;">
<g id="kvg:06cf0">
	<g id="kvg:06cf0-g1">
		<g id="kvg:06cf0-g2">
			<g id="kvg:06cf0-g3">
				<path id="kvg:s-s1" stroke="#E53935" d="M29.81,24.7c2.44,0.55,4.97,0.14,7.19-0.07c12.13-1.13,23.29-2.15,33.86-2.8c2.38-0.15,4.74-0.35,7.1,0.15"/>
			</g>
			<g id="kvg:06cf0-g4">
				<g id="kvg:06cf0-g5">
					<path id="kvg:s-s2" stroke="#FB8C00" d="M30.75,37.31c2.75,0.56,5.32,0.26,7.64,0.05c8.71-0.77,21.72-2.38,30.86-2.85c2.13-0.11,4.31-0.26,6.41,0.23"/>
				</g>
				<g id="kvg:06cf0-g6">
					<g id="kvg:06cf0-g7">
						<path id="kvg:s-s3" stroke="#FDD835" d="M16.38,52.55c3.5,0.45,6.39,0.55,9.38,0.17c15.98-2.01,44.51-4.31,59.11-5.21c2.97-0.18,6.1-0.11,9.01,0.5"/>
					</g>
				</g>
			</g>
		</g>
		<g id="kvg:06cf0-g8">
			<g id="kvg:06cf0-g9">
				<path id="kvg:s-s4" stroke="#43A047" d="M55,11.75c0.1,1.6-0.03,2.84-0.46,5.14C52.04,30.51,42.75,58,16,76.75"/>
				<path id="kvg:s-s5" stroke="#1E88E5" d="M56.25,40.67c2.65,0.6,20.45,18.92,29.77,27.06c2.73,2.39,4.98,4.26,8.73,6.09"/>
			</g>
		</g>
	</g>
	<g id="kvg:06cf0-g10">
		<path id="kvg:s-s6" stroke="#8E24AA" d="M52.99,57.58c0.78,0.78,1.31,1.92,1.31,3.9c0,15.29,0.03,28.6,0.03,32.78c0,8.88-6.07,1.26-7.34,0.21"/>
		<path id="kvg:s-s7" stroke="#EC407A" d="M37.58,66.11c2.35,1.51,6.08,6.23,6.66,8.58"/>
		<path id="kvg:s-s8" stroke="#00ACC1" d="M28.8,92c1.37,1.3,2.49,0.83,3.88-0.26c2.57-2,5.32-4,10.48-8.4"/>
		<path id="kvg:s-s9" stroke="#795548" d="M69.68,63.82c0.07,0.71-0.05,1.38-0.45,1.98c-1.73,2.58-3.11,4.45-7.49,8.45"/>
		<path id="kvg:s-s10" stroke="#546E7A" d="M63.78,81.32C68.5,83.5,75.5,88.5,79.02,93.63"/>
	</g>
</g>
</g>
<g id="kvg:StrokeNumbers_06cf0" style="font-size:18;font-weight:bold;stroke:#fff;stroke-width:1.5;paint-order:stroke">
	<text transform="matrix(1 0 0 1 23.25 25.50)" fill="#E53935">1</text>
	<text transform="matrix(1 0 0 1 23.25 38.50)" fill="#FB8C00">2</text>
	<text transform="matrix(1 0 0 1 9.50 53.98)" fill="#FDD835">3</text>
	<text transform="matrix(1 0 0 1 45.50 11.50)" fill="#43A047">4</text>
	<text transform="matrix(1 0 0 1 65.25 45.13)" fill="#1E88E5">5</text>
	<text transform="matrix(1 0 0 1 44.25 60.50)" fill="#8E24AA">6</text>
	<text transform="matrix(1 0 0 1 32.25 73.55)" fill="#EC407A">7</text>
	<text transform="matrix(1 0 0 1 20.50 92.50)" fill="#00ACC1">8</text>
	<text transform="matrix(1 0 0 1 61.50 63.13)" fill="#795548">9</text>
	<text transform="matrix(1 0 0 1 66.75 81.05)" fill="#546E7A">10</text>
</g>
</svg>
