<?xml version="1.0" encoding="UTF-8"?>
<svg xmlns="http://www.w3.org/2000/svg" width="109" height="109" viewBox="0 0 109 109">
<g id="kvg:StrokePaths_06d78" style="fill:none;stroke:#000000;stroke-width:3;stroke-linecap:round;stroke-linejoin:round;">
<g id="kvg:06d78">
	<g id="kvg:06d78-g1">
		<path id="kvg:s-s1" stroke="#E53935" d="M22.63,16.5c3.66,1.6,9.45,6.6,10.37,9.09"/>
		<path id="kvg:s-s2" stroke="#FB8C00" d="M14.75,40.75c3.62,1.54,9.34,6.35,10.25,8.75"/>
		<path id="kvg:s-s3" stroke="#FDD835" d="M14.85,87.42c1.34,0.68,2.75,0.48,3.55-0.83c2.87-4.67,5.74-10.38,8.35-16.34"/>
	</g>
	<g id="kvg:06d78-g2">
		<g id="kvg:06d78-g3">
			<path id="kvg:s-s4" stroke="#43A047" d="M47.13,16.55c2.11,0.85,4.2,0.59,6.37,0.41c7.3-0.59,25.45-2.42,26.64-2.6c1.46-0.22,3.11,0.64,2.93,2.21c-0.6,5.35-2.08,12.65-2.65,17.21c-0.22,1.77-0.42,3.24-0.57,4.23"/>
			<path id="kvg:s-s5" stroke="#1E88E5" d="M46.36,27.29c2.77,0.58,4.9,0.19,7.02,0.01c9.48-0.82,15-1.55,27.34-2.27"/>
			<path id="kvg:s-s6" stroke="#8E24AA" d="M46.22,37.7c1.96,0.91,4.47,0.46,6.53,0.27c9.44-0.88,15.82-1.74,26.83-2.75"/>
		</g>
		<g id="kvg:06d78-g4">
			<g id="kvg:06d78-g5">
				<path id="kvg:s-s7" stroke="#EC407A" d="M42.25,48c-0.07,3.2-1.63,11.57-2.19,13.47"/>
				<path id="kvg:s-s8" stroke="#00ACC1" d="M43.3,49.76c10.58-1.01,26.45-3.26,42.74-4.35c12.27-0.82,2.06,7.19,0.91,8.25"/>
			</g>
			<g id="kvg:06d78-g6">
				<path id="kvg:s-s9" stroke="#795548" d="M50.18,61.04c2.14,0.39,3.94,0.28,6.09-0.1c4.65-0.81,14.76-2.61,17.87-3.34c3.61-0.85,5.11,0.77,3.11,3.82C68.03,75.5,54.5,87.12,40.2,93.25"/>
				<path id="kvg:s-s10" stroke="#546E7A" d="M47.78,66.27c6.47,0.23,21.1,14.48,35.6,23.94c3.11,2.03,5.37,2.54,8.91,3.97"/>
			</g>
		</g>
	</g>
</g>
</g>
<g id="kvg:StrokeNumbers_06d78" style="font-size:18;font-weight:bold;stroke:#fff;stroke-width:1.5;paint-order:stroke">
	<text transform="matrix(1 0 0 1 15.75 17.50)" fill="#E53935">1</text>
	<text transform="matrix(1 0 0 1 8.25 41.50)" fill="#FB8C00">2</text>
	<text transform="matrix(1 0 0 1 7.50 91.50)" fill="#FDD835">3</text>
	<text transform="matrix(1 0 0 1 39.75 17.50)" fill="#43A047">4</text>
	<text transform="matrix(1 0 0 1 39.75 28.55)" fill="#1E88E5">5</text>
	<text transform="matrix(1 0 0 1 39.75 39.50)" fill="#8E24AA">6</text>
	<text transform="matrix(1 0 0 1 35.25 51.50)" fill="#EC407A">7</text>
	<text transform="matrix(1 0 0 1 44.50 46.63)" fill="#00ACC1">8</text>
	<text transform="matrix(1 0 0 1 50.25 58.55)" fill="#795548">9</text>
	<text transform="matrix(1 0 0 1 44.25 76.48)" fill="#546E7A">10</text>
</g>
</svg>
