<?xml version="1.0" encoding="UTF-8"?>
<svg xmlns="http://www.w3.org/2000/svg" width="109" height="109" viewBox="0 0 109 109">
<g id="kvg:StrokePaths_06dfb" style="fill:none;stroke:#000000;stroke-width:3;stroke-linecap:round;stroke-linejoin:round;">
<g id="kvg:06dfb">
	<g id="kvg:06dfb-g1">
		<path id="kvg:s-s1" stroke="#E53935" d="M17.63,15.5c4.28,1.43,11.05,5.87,12.12,8.09"/>
		<path id="kvg:s-s2" stroke="#FB8C00" d="M12.5,41c4.32,1.23,11.17,5.08,12.25,7"/>
		<path id="kvg:s-s3" stroke="#FDD835" d="M14.75,87.61c1.75,0.64,2.69,0,3.67-1.78c2.86-5.17,5.72-11.99,8.33-18.58"/>
	</g>
	<g id="kvg:06dfb-g2">
		<g id="kvg:06dfb-g3">
			<g id="kvg:06dfb-g4">
				<path id="kvg:s-s4" stroke="#43A047" d="M72.06,13.89C72,15,71.48,15.86,70.55,16.34c-8.8,4.54-15.68,7.29-28.78,10.43"/>
			</g>
			<g id="kvg:06dfb-g5">
				<path id="kvg:s-s5" stroke="#1E88E5" d="M35.6,38.45c2.65,0.55,5.38,0.23,7.66-0.01c10.49-1.11,26.62-3.56,38.5-4.65c2.99-0.27,5.38-0.52,8.34,0.24"/>
				<path id="kvg:s-s6" stroke="#8E24AA" d="M59.67,24.94c0.28,1.17,0.32,2.02-0.08,3.2C53.46,46.27,47.44,56.29,33.75,67.5"/>
				<path id="kvg:s-s7" stroke="#EC407A" d="M61.79,36.52c6.04,5.9,18.07,18.63,25.56,24.66c1.77,1.42,3.66,2.78,5.65,3.9"/>
			</g>
		</g>
		<g id="kvg:06dfb-g6">
			<path id="kvg:s-s8" stroke="#00ACC1" d="M56.96,58.08c0.85,0.85,1.06,2.04,1.06,3.75c0,13.05,0.06,22.96,0.06,27.4c0,9.31-5.37,1.34-6.49,0.22"/>
			<path id="kvg:s-s9" stroke="#795548" d="M43,74.75c0,4.84-4.91,11.99-6.25,13.38"/>
			<path id="kvg:s-s10" stroke="#546E7A" d="M69,74c2.45,2.2,6.33,9.05,6.94,12.47"/>
			<path id="kvg:s-s11" stroke="#E53935" d="M85.14,72.83c2.49,1.96,6.44,8.08,7.06,11.13"/>
		</g>
	</g>
</g>
</g>
<g id="kvg:StrokeNumbers_06dfb" style="font-size:18;font-weight:bold;stroke:#fff;stroke-width:1.5;paint-order:stroke">
	<text transform="matrix(1 0 0 1 12.50 16.50)" fill="#E53935">1</text>
	<text transform="matrix(1 0 0 1 5.25 42.05)" fill="#FB8C00">2</text>
	<text transform="matrix(1 0 0 1 6.75 91.50)" fill="#FDD835">3</text>
	<text transform="matrix(1 0 0 1 60.75 12.13)" fill="#43A047">4</text>
	<text transform="matrix(1 0 0 1 33.50 35.50)" fill="#1E88E5">5</text>
	<text transform="matrix(1 0 0 1 50.25 32.50)" fill="#8E24AA">6</text>
	<text transform="matrix(1 0 0 1 74.50 45.50)" fill="#EC407A">7</text>
	<text transform="matrix(1 0 0 1 49.50 65.50)" fill="#00ACC1">8</text>
	<text transform="matrix(1 0 0 1 37.50 74.50)" fill="#795548">9</text>
	<text transform="matrix(1 0 0 1 62.50 71.50)" fill="#546E7A">10</text>
	<text transform="matrix(1 0 0 1 75.75 72.50)" fill="#E53935">11</text>
</g>
</svg>
