<?xml version="1.0" encoding="UTF-8"?>
<svg xmlns="http://www.w3.org/2000/svg" width="109" height="109" viewBox="0 0 109 109">
<g id="kvg:StrokePaths_06e08" style="fill:none;stroke:#000000;stroke-width:3;stroke-linecap:round;stroke-linejoin:round;">
<g id="kvg:06e08">
	<g id="kvg:06e08-g1">
		<path id="kvg:s-s1" stroke="#E53935" d="M17.88,15.25c4.55,1.43,11.74,5.87,12.88,8.09"/>
		<path id="kvg:s-s2" stroke="#FB8C00" d="M12.38,37.88c4.81,1.39,12.42,5.71,13.62,7.88"/>
		<path id="kvg:s-s3" stroke="#FDD835" d="M13.85,86.42c1.2,0.53,2.43,0.27,3.15-0.97C19.75,80.75,22.5,75,25,69"/>
	</g>
	<g id="kvg:06e08-g2">
		<g id="kvg:06e08-g3">
			<g id="kvg:06e08-g4">
				<path id="kvg:s-s4" stroke="#43A047" d="M62.87,11.25c0.82,0.82,1.24,1.75,1.24,3.37c0,4.16-0.02,4.73-0.09,7.72"/>
				<path id="kvg:s-s5" stroke="#1E88E5" d="M38.8,25.47c2.62,0.26,5.33,0.46,7.96,0.21c9.74-0.95,29-3.49,39.51-4.16c2.06-0.13,4.98-0.15,6.8,0.26"/>
			</g>
			<g id="kvg:06e08-g5">
				<path id="kvg:s-s6" stroke="#8E24AA" d="M75.06,25.75c0.32,1.13,0.09,2.19-0.76,3.39C66.38,40.25,53.88,51.38,37.12,58.5"/>
				<path id="kvg:s-s7" stroke="#EC407A" d="M47.72,33.58c8.03-0.08,25.15,11.13,38.89,16.78c2.58,1.06,4.39,1.64,6.98,2.39"/>
			</g>
		</g>
		<g id="kvg:06e08-g6">
			<path id="kvg:s-s8" stroke="#00ACC1" d="M47.88,59.75c0.69,0.68,1.09,1.88,1.09,3.07c0,20.18-3.22,28.68-9,35.68"/>
			<g id="kvg:06e08-g7">
				<g id="kvg:06e08-g8">
					<path id="kvg:s-s9" stroke="#795548" d="M49.97,66.86c8.98-0.82,22.9-2.55,30.78-2.96"/>
				</g>
				<g id="kvg:06e08-g9">
					<path id="kvg:s-s10" stroke="#546E7A" d="M49.18,79.2c8.07-0.7,23.3-1.84,31.42-2.15"/>
				</g>
			</g>
			<path id="kvg:s-s11" stroke="#E53935" d="M80.73,56.5c0.89,0.89,1.24,2.25,1.24,3.62c0,3.36-0.01,24.62-0.05,34.38c-0.01,2.34-0.02,4.01-0.03,4.59"/>
		</g>
	</g>
</g>
</g>
<g id="kvg:StrokeNumbers_06e08" style="font-size:18;fill:#E53935;font-weight:bold;stroke:#fff;stroke-width:1.5;paint-order:stroke">
	<text transform="matrix(1 0 0 1 11.50 16.50)" fill="#E53935">1</text>
	<text transform="matrix(1 0 0 1 5.50 39.50)" fill="#FB8C00">2</text>
	<text transform="matrix(1 0 0 1 5.50 89.50)" fill="#FDD835">3</text>
	<text transform="matrix(1 0 0 1 53.50 12.50)" fill="#43A047">4</text>
	<text transform="matrix(1 0 0 1 38.50 22.55)" fill="#1E88E5">5</text>
	<text transform="matrix(1 0 0 1 64.50 32.50)" fill="#8E24AA">6</text>
	<text transform="matrix(1 0 0 1 41.25 36.50)" fill="#EC407A">7</text>
	<text transform="matrix(1 0 0 1 41.25 67.55)" fill="#00ACC1">8</text>
	<text transform="matrix(1 0 0 1 54.75 63.13)" fill="#795548">9</text>
	<text transform="matrix(1 0 0 1 53.25 75.50)" fill="#546E7A">10</text>
	<text transform="matrix(1 0 0 1 70.50 57.50)" fill="#E53935">11</text>
</g>
</svg>
