<?xml version="1.0" encoding="UTF-8"?>
<svg xmlns="http://www.w3.org/2000/svg" width="109" height="109" viewBox="0 0 109 109">
<g id="kvg:StrokePaths_06e13" style="fill:none;stroke:#000000;stroke-width:3;stroke-linecap:round;stroke-linejoin:round;">
<g id="kvg:06e13">
	<g id="kvg:06e13-g1">
		<path id="kvg:s-s1" stroke="#E53935" d="M16.5,16.25c4.24,1.6,10.94,6.6,12,9.09"/>
		<path id="kvg:s-s2" stroke="#FB8C00" d="M12.38,40.75c4.1,1.59,10.6,6.53,11.62,9"/>
		<path id="kvg:s-s3" stroke="#FDD835" d="M13.81,87.4c1.22,0.55,2.46,0.3,3.19-0.95C19.75,81.75,22.5,76,25,70"/>
	</g>
	<g id="kvg:06e13-g2">
		<g id="kvg:06e13-g3">
			<path id="kvg:s-s4" stroke="#43A047" d="M75.47,10.89c0,1.11-0.63,1.85-1.39,2.35C70,15.9,58.24,20.61,42.81,23.47"/>
			<path id="kvg:s-s5" stroke="#1E88E5" d="M40.02,32.33c2.4,1.7,6.19,6.99,6.79,9.63"/>
			<path id="kvg:s-s6" stroke="#8E24AA" d="M56.25,27.62c2.49,1.87,6.44,7.69,7.06,10.59"/>
			<path id="kvg:s-s7" stroke="#EC407A" d="M86.77,24.14c0.11,0.89-0.04,1.73-0.46,2.51C84,30.25,79.88,35.12,73.25,40"/>
		</g>
		<g id="kvg:06e13-g4">
			<path id="kvg:s-s8" stroke="#00ACC1" d="M42.83,57.44c1.89,0.62,4.6,0.28,6.55,0.07c6.24-0.67,18.37-2.18,25.49-2.55c2.07-0.11,4.23-0.26,6.28,0.15"/>
			<g id="kvg:06e13-g5">
				<path id="kvg:s-s9" stroke="#795548" d="M35.07,71.54c2.48,0.8,5.24,0.49,7.8,0.25c9.66-0.93,30.86-2.97,41-3.5c2.4-0.12,4.92-0.36,7.3,0.1"/>
				<path id="kvg:s-s10" stroke="#546E7A" d="M60.55,45c0.79,0.79,1.07,2.1,1.12,3.69c1.07,29.56-8.3,41.18-26.93,49.56"/>
				<path id="kvg:s-s11" stroke="#E53935" d="M60.74,71.63c7.01,6.12,12.38,10.75,22.02,18.41c2.93,2.33,5.95,3.95,9.24,5.72"/>
			</g>
		</g>
	</g>
</g>
</g>
<g id="kvg:StrokeNumbers_06e13" style="font-size:18;font-weight:bold;stroke:#fff;stroke-width:1.5;paint-order:stroke">
	<text transform="matrix(1 0 0 1 10.50 16.63)" fill="#E53935">1</text>
	<text transform="matrix(1 0 0 1 5.50 42.13)" fill="#FB8C00">2</text>
	<text transform="matrix(1 0 0 1 5.50 91.50)" fill="#FDD835">3</text>
	<text transform="matrix(1 0 0 1 65.25 10.50)" fill="#43A047">4</text>
	<text transform="matrix(1 0 0 1 33.50 35.50)" fill="#1E88E5">5</text>
	<text transform="matrix(1 0 0 1 50.25 30.50)" fill="#8E24AA">6</text>
	<text transform="matrix(1 0 0 1 77.25 27.13)" fill="#EC407A">7</text>
	<text transform="matrix(1 0 0 1 38.25 54.13)" fill="#00ACC1">8</text>
	<text transform="matrix(1 0 0 1 32.50 68.50)" fill="#795548">9</text>
	<text transform="matrix(1 0 0 1 49.50 51.13)" fill="#546E7A">10</text>
	<text transform="matrix(1 0 0 1 75.75 81.13)" fill="#E53935">11</text>
</g>
</svg>
