<?xml version="1.0" encoding="UTF-8"?>
<svg xmlns="http://www.w3.org/2000/svg" width="109" height="109" viewBox="0 0 109 109">
<g id="kvg:StrokePaths_06e56" style="fill:none;stroke:#000000;stroke-width:3;stroke-linecap:round;stroke-linejoin:round;">
<g id="kvg:06e56">
	<g id="kvg:06e56-g1">
		<path id="kvg:s-s1" stroke="#E53935" d="M20.13,17c3.31,1.47,8.54,6.05,9.37,8.34"/>
		<path id="kvg:s-s2" stroke="#FB8C00" d="M14.75,38c3.79,1.15,9.8,5.72,10.75,7.5"/>
		<path id="kvg:s-s3" stroke="#FDD835" d="M14.75,82.46c1.88,0.42,3.31-0.39,4.25-2C21.75,75.75,24.5,70,27,64"/>
	</g>
	<g id="kvg:06e56-g2">
		<g id="kvg:06e56-g3">
			<g id="kvg:06e56-g4">
				<path id="kvg:s-s4" stroke="#43A047" d="M32.25,41c1.25,0.62,3.12,0.67,5.5,0.5c7.12-0.5,19.12-2.5,24-3c0.99-0.1,2.62-0.25,3.75,0"/>
				<path id="kvg:s-s5" stroke="#1E88E5" d="M48.73,15.63c1.19,1.19,1.7,2.74,1.7,4.43c0,14.43,0.25,33.72,0.12,38.88"/>
			</g>
			<g id="kvg:06e56-g5">
				<path id="kvg:s-s6" stroke="#8E24AA" d="M36.65,60.04c0.84,0.84,1.27,1.96,1.38,3.06c0.39,3.87,1.49,10.11,2.16,15.64c0.13,1.11,0.26,2.18,0.37,3.21"/>
				<path id="kvg:s-s7" stroke="#EC407A" d="M38.7,61.05c5.17-0.62,15.16-2.31,20.05-2.73c2.93-0.26,4.37,0.72,3.93,3.69c-0.57,3.92-1.73,8.91-2.51,13.6"/>
				<path id="kvg:s-s8" stroke="#00ACC1" d="M40.37,78.17c3.99-0.24,12.09-1.41,18.01-2.01c1.19-0.12,2.3-0.22,3.27-0.28"/>
			</g>
		</g>
		<g id="kvg:06e56-g6">
			<path id="kvg:s-s9" stroke="#795548" d="M71.74,20c0.63,0.63,1.19,1.63,1.22,2.58c1.54,44.8-1.71,57.55-12.21,66.92"/>
			<path id="kvg:s-s10" stroke="#546E7A" d="M73.72,21.22c1.26-0.16,10.54-1.87,14.02-2.52c3-0.57,4.65-0.3,4.68,3.17c0.05,6.53,0.17,46.75,0.17,64.96c0,10.29-6.59,2.67-8.59,0.92"/>
			<path id="kvg:s-s11" stroke="#E53935" d="M74.46,41.19c5.17-0.89,12.12-1.91,16.66-2.15"/>
			<path id="kvg:s-s12" stroke="#FB8C00" d="M73.64,59.31c4.03-0.29,12.74-1.31,17.52-1.5"/>
		</g>
	</g>
</g>
</g>
<g id="kvg:StrokeNumbers_06e56" style="font-size:18;fill:#E53935;font-weight:bold;stroke:#fff;stroke-width:1.5;paint-order:stroke">
	<text transform="matrix(1 0 0 1 11.25 18.13)" fill="#E53935">1</text>
	<text transform="matrix(1 0 0 1 7.50 40.63)" fill="#FB8C00">2</text>
	<text transform="matrix(1 0 0 1 7.50 87.50)" fill="#FDD835">3</text>
	<text transform="matrix(1 0 0 1 29.25 38.50)" fill="#43A047">4</text>
	<text transform="matrix(1 0 0 1 39.50 14.50)" fill="#1E88E5">5</text>
	<text transform="matrix(1 0 0 1 30.75 67.50)" fill="#8E24AA">6</text>
	<text transform="matrix(1 0 0 1 38.50 57.50)" fill="#EC407A">7</text>
	<text transform="matrix(1 0 0 1 44.50 74.50)" fill="#00ACC1">8</text>
	<text transform="matrix(1 0 0 1 65.25 28.50)" fill="#795548">9</text>
	<text transform="matrix(1 0 0 1 72.75 17.50)" fill="#546E7A">10</text>
	<text transform="matrix(1 0 0 1 77.25 37.69)" fill="#E53935">11</text>
	<text transform="matrix(1 0 0 1 77.25 55.50)" fill="#FB8C00">12</text>
</g>
</svg>
