<?xml version="1.0" encoding="UTF-8"?>
<svg xmlns="http://www.w3.org/2000/svg" width="109" height="109" viewBox="0 0 109 109">
<g id="kvg:StrokePaths_06e7f" style="fill:none;stroke:#000000;stroke-width:3;stroke-linecap:round;stroke-linejoin:round;">
<g id="kvg:06e7f">
	<g id="kvg:06e7f-g1">
		<path id="kvg:s-s1" stroke="#E53935" d="M21.38,17.5c4.1,1.47,10.59,6.05,11.62,8.34"/>
		<path id="kvg:s-s2" stroke="#FB8C00" d="M16.5,39.25c3.97,1.59,10.26,6.53,11.25,9"/>
		<path id="kvg:s-s3" stroke="#FDD835" d="M16.45,89.6c1.25,0.62,2.55,0.39,3.3-0.9c2.75-4.7,5.5-10.45,8-16.45"/>
	</g>
	<g id="kvg:06e7f-g2">
		<g id="kvg:06e7f-g3">
			<path id="kvg:s-s4" stroke="#43A047" d="M43.2,19.81c1,1,1.37,2.2,1.49,3.07c0.42,3.07,1.74,14.22,2.38,20.11c0.22,2,0.52,3.88,0.69,4.75"/>
			<path id="kvg:s-s5" stroke="#1E88E5" d="M45.5,21.35c7.42-1.21,30.25-3.97,38.14-4.09c3.51-0.05,5.22,0.9,4.57,4.64c-0.9,5.17-2.58,13.17-3.93,19.12c-0.47,2.08-0.87,3.81-1.14,4.94"/>
			<path id="kvg:s-s6" stroke="#8E24AA" d="M47.27,33.44c5.85-0.69,33.68-3.41,37.93-3.59"/>
			<path id="kvg:s-s7" stroke="#EC407A" d="M48.64,45.48c7.66-0.8,23.36-1.98,34.09-2.38"/>
		</g>
		<g id="kvg:06e7f-g4">
			<path id="kvg:s-s8" stroke="#00ACC1" d="M58.94,52.38c1.22,1.22,1.48,2.37,1.48,4.26c0,12.62,0,24.73,0,33.17"/>
			<path id="kvg:s-s9" stroke="#795548" d="M72.23,51.6c1.02,1.02,1.28,2.4,1.28,4.09c0,5.06,0,24.93,0,33.22"/>
			<path id="kvg:s-s10" stroke="#546E7A" d="M44.08,66.45c2.82,2.57,7.28,10.08,7.98,14.08"/>
			<path id="kvg:s-s11" stroke="#E53935" d="M90.99,62c0.08,0.97-0.03,1.67-0.4,2.58c-1.62,4.02-3.57,7.43-10.27,14.71"/>
			<path id="kvg:s-s12" stroke="#FB8C00" d="M37.34,92.25c2.54,0.92,5.7,0.76,8.29,0.41c12.94-1.75,30.39-2.95,42.38-3.4c2.44-0.09,4.8,0.29,7.16,0.8"/>
		</g>
	</g>
</g>
</g>
<g id="kvg:StrokeNumbers_06e7f" style="font-size:18;font-weight:bold;stroke:#fff;stroke-width:1.5;paint-order:stroke">
	<text transform="matrix(1 0 0 1 14.50 18.50)" fill="#E53935">1</text>
	<text transform="matrix(1 0 0 1 8.50 40.50)" fill="#FB8C00">2</text>
	<text transform="matrix(1 0 0 1 8.50 93.50)" fill="#FDD835">3</text>
	<text transform="matrix(1 0 0 1 37.50 28.50)" fill="#43A047">4</text>
	<text transform="matrix(1 0 0 1 46.50 17.50)" fill="#1E88E5">5</text>
	<text transform="matrix(1 0 0 1 50.25 30.50)" fill="#8E24AA">6</text>
	<text transform="matrix(1 0 0 1 51.50 42.50)" fill="#EC407A">7</text>
	<text transform="matrix(1 0 0 1 49.50 55.50)" fill="#00ACC1">8</text>
	<text transform="matrix(1 0 0 1 63.50 53.50)" fill="#795548">9</text>
	<text transform="matrix(1 0 0 1 34.50 71.50)" fill="#546E7A">10</text>
	<text transform="matrix(1 0 0 1 79.50 61.50)" fill="#E53935">11</text>
	<text transform="matrix(1 0 0 1 33.50 89.50)" fill="#FB8C00">12</text>
</g>
</svg>
