<?xml version="1.0" encoding="UTF-8"?>
<svg xmlns="http://www.w3.org/2000/svg" width="109" height="109" viewBox="0 0 109 109">
<g id="kvg:StrokePaths_06e7e" style="fill:none;stroke:#000000;stroke-width:3;stroke-linecap:round;stroke-linejoin:round;">
<g id="kvg:06e7e">
	<g id="kvg:06e7e-g1">
		<path id="kvg:s-s1" stroke="#E53935" d="M21.38,14.75c4.28,1.56,11.05,6.41,12.12,8.84"/>
		<path id="kvg:s-s2" stroke="#FB8C00" d="M14,37.75c4.5,1.41,11.62,5.8,12.75,8"/>
		<path id="kvg:s-s3" stroke="#FDD835" d="M16.38,90.84c2.12,0.66,2.94,0.09,3.99-1.53c3.05-4.73,5.86-10.52,8.63-16.55"/>
	</g>
	<g id="kvg:06e7e-g2">
		<g id="kvg:06e7e-g3">
			<g id="kvg:06e7e-g4">
				<path id="kvg:s-s4" stroke="#43A047" d="M64.13,12c0.93,0.93,1.49,2,1.49,3.42c0,1.45-0.09,3.2-0.09,5.16"/>
				<path id="kvg:s-s5" stroke="#1E88E5" d="M42.04,23.75c3.17,0.27,4.29,0.19,7.48-0.18c8.96-1.02,26.48-2.63,35.36-3.15c2.19-0.13,4.62-0.42,6.78,0.14"/>
			</g>
			<g id="kvg:06e7e-g5">
				<g id="kvg:06e7e-g6">
					<path id="kvg:s-s6" stroke="#8E24AA" d="M59.75,26.75c0.38,0.58,0.49,1.54,0.37,2.26C59.21,34.64,57.25,42,49.13,46.57"/>
				</g>
				<g id="kvg:06e7e-g7">
					<path id="kvg:s-s7" stroke="#EC407A" d="M72.39,23.55c0.72,0.72,0.85,1.95,0.85,3.19c0,3.7-0.12,11.74-0.12,14.64c0,6.08-4.25,0.13-4.98-0.6"/>
				</g>
				<path id="kvg:s-s8" stroke="#00ACC1" d="M47.5,32c0.03,0.34,0.09,0.87-0.05,1.36c-0.92,3.08-4.32,7.27-9.3,11.75"/>
				<path id="kvg:s-s9" stroke="#795548" d="M80.55,30.7c4.31,2,11.13,8.24,12.21,11.36"/>
			</g>
		</g>
		<g id="kvg:06e7e-g8">
			<path id="kvg:s-s10" stroke="#546E7A" d="M48.92,50.96c2.58,1.29,4.88,1.11,7.1,0.79c9.24-1.37,19.49-2.37,23.84-2.83c3.19-0.33,3.65,1.21,2.83,3.66c-0.35,1.05-1.18,3.67-1.7,5.4"/>
			<path id="kvg:s-s11" stroke="#E53935" d="M48.25,61c1.75,0.62,3.77,0.63,5.5,0.45C60.79,60.68,73.5,59.5,78.17,59c1.8-0.19,3.13,0,4.58,0"/>
			<path id="kvg:s-s12" stroke="#FB8C00" d="M49.28,61.84c0.59,1.03,0.37,2.09-0.31,3.41c-0.71,1.37-1.24,2.44-1.83,3.93c-0.82,2.08-0.81,3.65,1.74,3.32c8.76-1.14,27.29-2.88,34.1-3.82c4.02-0.55,5.24,1.09,4,4.65c-2.31,6.66-6.34,14.95-10,19.6c-3.58,4.55-5.85,1.65-8.59-1.87"/>
		</g>
	</g>
</g>
</g>
<g id="kvg:StrokeNumbers_06e7e" style="font-size:18;font-weight:bold;stroke:#fff;stroke-width:1.5;paint-order:stroke">
	<text transform="matrix(1 0 0 1 15.25 14.88)" fill="#E53935">1</text>
	<text transform="matrix(1 0 0 1 7.25 38.80)" fill="#FB8C00">2</text>
	<text transform="matrix(1 0 0 1 8.25 93.25)" fill="#FDD835">3</text>
	<text transform="matrix(1 0 0 1 54.50 13.25)" fill="#43A047">4</text>
	<text transform="matrix(1 0 0 1 40.25 20.80)" fill="#1E88E5">5</text>
	<text transform="matrix(1 0 0 1 52.25 32.25)" fill="#8E24AA">6</text>
	<text transform="matrix(1 0 0 1 65.25 31.25)" fill="#EC407A">7</text>
	<text transform="matrix(1 0 0 1 39.25 33.25)" fill="#00ACC1">8</text>
	<text transform="matrix(1 0 0 1 78.25 29.25)" fill="#795548">9</text>
	<text transform="matrix(1 0 0 1 39.25 53.25)" fill="#546E7A">10</text>
	<text transform="matrix(1 0 0 1 53.00 59.25)" fill="#E53935">11</text>
	<text transform="matrix(1 0 0 1 40.25 62.25)" fill="#FB8C00">12</text>
</g>
</svg>
