<?xml version="1.0" encoding="UTF-8"?>
<svg xmlns="http://www.w3.org/2000/svg" width="109" height="109" viewBox="0 0 109 109">
<g id="kvg:StrokePaths_06ec5" style="fill:none;stroke:#000000;stroke-width:3;stroke-linecap:round;stroke-linejoin:round;">
<g id="kvg:06ec5">
	<g id="kvg:06ec5-g1">
		<path id="kvg:s-s1" stroke="#E53935" d="M19.51,15.5c3.88,1.47,10.02,6.05,10.99,8.34"/>
		<path id="kvg:s-s2" stroke="#FB8C00" d="M13.62,37.12c3.93,1.43,10.14,5.9,11.12,8.12"/>
		<path id="kvg:s-s3" stroke="#FDD835" d="M11.5,87.73c1.71,1.27,3.03,0.32,4.11-1.25c3.14-4.57,6.29-10.16,9.14-15.99"/>
	</g>
	<g id="kvg:06ec5-g2">
		<g id="kvg:06ec5-g3">
			<g id="kvg:06ec5-g4">
				<path id="kvg:s-s4" stroke="#43A047" d="M38.26,36.64c0.99,1.11,1.2,2.68,1.16,4.6C39.02,59.13,39.5,80,24.56,92.72"/>
			</g>
			<g id="kvg:06ec5-g5">
				<g id="kvg:06ec5-g6">
					<g id="kvg:06ec5-g7">
						<path id="kvg:s-s5" stroke="#1E88E5" d="M39.75,37.46c2.62,0.43,5.29,0.23,7.89-0.13c9.68-1.34,24.96-4.23,35.11-5.11c2.07-0.18,4.75-0.34,6.75,0.29"/>
					</g>
				</g>
			</g>
			<g id="kvg:06ec5-g8">
				<path id="kvg:s-s6" stroke="#8E24AA" d="M43,51.13c2.25,0.37,3.94,0.58,6.15,0.22c3.77-0.61,7.83-1.82,11.19-2.2c1.96-0.22,3.67-0.39,4.66-0.15"/>
			</g>
		</g>
		<g id="kvg:06ec5-g9">
			<path id="kvg:s-s7" stroke="#EC407A" d="M43.7,65.15c1.09,1.55,2.87,6.73,3.17,8.29"/>
			<path id="kvg:s-s8" stroke="#00ACC1" d="M66.5,60.37c0,0.88-0.23,1.58-0.75,2.24c-2,2.51-5.3,5.94-7.61,7.58"/>
			<path id="kvg:s-s9" stroke="#795548" d="M54.55,57.79c0.57,0.96,0.61,2.18,0.58,2.97C54.52,78.56,49.32,85.64,41.37,92"/>
			<path id="kvg:s-s10" stroke="#546E7A" d="M55.91,77.46c3.84,2.54,6.84,5.41,8.86,9.45"/>
		</g>
		<g id="kvg:06ec5-g10">
			<g id="kvg:06ec5-g11">
				<g id="kvg:06ec5-g12">
					<path id="kvg:s-s11" stroke="#E53935" d="M64.25,11.75c1.38,1.8,1.8,2.31,2.25,6.16c3.5,30.21,9.25,59.46,27.33,74.62c5.11,4.29,4.59,2.43,3.9-5.53"/>
				</g>
				<g id="kvg:06ec5-g13">
					<path id="kvg:s-s12" stroke="#FB8C00" d="M88,46.89c0.25,0.98,0.01,2.02-0.36,3.08c-2.39,6.9-8.42,20.78-18.83,29.5"/>
				</g>
				<g id="kvg:06ec5-g14">
					<g id="kvg:06ec5-g15">
						<path id="kvg:s-s13" stroke="#FDD835" d="M79,14.75c2.85,1.8,7.42,5.92,8.75,9"/>
					</g>
				</g>
			</g>
		</g>
	</g>
</g>
</g>
<g id="kvg:StrokeNumbers_06ec5" style="font-size:18;font-weight:bold;stroke:#fff;stroke-width:1.5;paint-order:stroke">
	<text transform="matrix(1 0 0 1 12.50 16.50)" fill="#E53935">1</text>
	<text transform="matrix(1 0 0 1 6.50 38.50)" fill="#FB8C00">2</text>
	<text transform="matrix(1 0 0 1 3.75 91.50)" fill="#FDD835">3</text>
	<text transform="matrix(1 0 0 1 30.75 43.63)" fill="#43A047">4</text>
	<text transform="matrix(1 0 0 1 41.25 34.50)" fill="#1E88E5">5</text>
	<text transform="matrix(1 0 0 1 43.50 48.50)" fill="#8E24AA">6</text>
	<text transform="matrix(1 0 0 1 42.50 63.50)" fill="#EC407A">7</text>
	<text transform="matrix(1 0 0 1 60.50 58.50)" fill="#00ACC1">8</text>
	<text transform="matrix(1 0 0 1 47.50 59.50)" fill="#795548">9</text>
	<text transform="matrix(1 0 0 1 59.25 78.13)" fill="#546E7A">10</text>
	<text transform="matrix(1 0 0 1 52.50 12.50)" fill="#E53935">11</text>
	<text transform="matrix(1 0 0 1 79.50 42.50)" fill="#FB8C00">12</text>
	<text transform="matrix(1 0 0 1 75.50 12.13)" fill="#FDD835">13</text>
</g>
</svg>
