<?xml version="1.0" encoding="UTF-8"?>
<svg xmlns="http://www.w3.org/2000/svg" width="109" height="109" viewBox="0 0 109 109">
<g id="kvg:StrokePaths_06f14" style="fill:none;stroke:#000000;stroke-width:3;stroke-linecap:round;stroke-linejoin:round;">
<g id="kvg:06f14">
	<g id="kvg:06f14-g1">
		<path id="kvg:s-s1" stroke="#E53935" d="M19.38,17c3.48,1.34,9,5.51,9.87,7.59"/>
		<path id="kvg:s-s2" stroke="#FB8C00" d="M14.25,40c3.79,1.23,8.25,4,11.25,7.75"/>
		<path id="kvg:s-s3" stroke="#FDD835" d="M12.54,88.82c1.28,0.49,2.56,0.22,3.33-0.98c2.97-4.67,5.93-10.38,8.63-16.34"/>
	</g>
	<g id="kvg:06f14-g2">
		<g id="kvg:06f14-g3">
			<path id="kvg:s-s4" stroke="#43A047" d="M63.11,12.5c0.95,0.95,1.24,2.5,1.24,3.96c0,3.46-0.08,4.14-0.08,7.29"/>
			<g id="kvg:06f14-g4">
				<path id="kvg:s-s5" stroke="#1E88E5" d="M41.55,23.93c0,3.33-2.47,12.5-3.6,14.73"/>
				<path id="kvg:s-s6" stroke="#8E24AA" d="M42.04,26.76c16.21-2.01,38.94-4.3,45.98-4.34c5.92-0.03,2.2,4.65-1.67,7.73"/>
			</g>
		</g>
		<g id="kvg:06f14-g5">
			<path id="kvg:s-s7" stroke="#EC407A" d="M49.57,36.57c1.68,0.3,3.53,0.08,5.17-0.14C60.3,35.7,68.37,34.51,74,34c1.69-0.15,3.19-0.24,4.84,0.21"/>
			<g id="kvg:06f14-g6">
				<g id="kvg:06f14-g7">
					<path id="kvg:s-s8" stroke="#00ACC1" d="M44,47.98c1.01,1.01,1.34,2.24,1.51,3.64c0.73,5.88,1.56,12.07,2.2,18.88c0.14,1.46,0.26,2.88,0.37,4.23"/>
					<path id="kvg:s-s9" stroke="#795548" d="M45.96,48.93c10.14-1.11,26.69-3.03,34.54-3.64c3.58-0.28,5.44,0.96,4.98,4.72c-0.51,4.22-1.49,11.54-2.65,17.16c-0.39,1.89-0.79,3.59-1.21,4.92"/>
				</g>
				<g id="kvg:06f14-g8">
					<path id="kvg:s-s10" stroke="#546E7A" d="M62.88,38.25C63.63,38.99,64,40,64,41.03c0,7.88,0.13,26.55,0.13,28.6"/>
				</g>
				<g id="kvg:06f14-g9">
					<path id="kvg:s-s11" stroke="#E53935" d="M47.91,60.12c8.72-1,27.34-2.87,35.46-3.09"/>
					<path id="kvg:s-s12" stroke="#FB8C00" d="M48.84,71.5c8.78-0.88,22.92-2.05,32.37-2.18"/>
				</g>
			</g>
			<g id="kvg:06f14-g10">
				<g id="kvg:06f14-g11">
					<path id="kvg:s-s13" stroke="#FDD835" d="M54.21,80.06c0.04,0.38-0.04,1.29-0.34,1.78c-2.5,4.16-6.25,8.53-15.19,14.62"/>
				</g>
				<g id="kvg:06f14-g12">
					<path id="kvg:s-s14" stroke="#43A047" d="M73.88,80.62c6.12,3.12,12.25,8.62,15.96,14.85"/>
				</g>
			</g>
		</g>
	</g>
</g>
</g>
<g id="kvg:StrokeNumbers_06f14" style="font-size:18;fill:#E53935;font-weight:bold;stroke:#fff;stroke-width:1.5;paint-order:stroke">
	<text transform="matrix(1 0 0 1 11.50 17.50)" fill="#E53935">1</text>
	<text transform="matrix(1 0 0 1 6.50 40.50)" fill="#FB8C00">2</text>
	<text transform="matrix(1 0 0 1 5.50 92.50)" fill="#FDD835">3</text>
	<text transform="matrix(1 0 0 1 54.50 13.50)" fill="#43A047">4</text>
	<text transform="matrix(1 0 0 1 34.50 28.50)" fill="#1E88E5">5</text>
	<text transform="matrix(1 0 0 1 44.50 23.50)" fill="#8E24AA">6</text>
	<text transform="matrix(1 0 0 1 49.99 34.18)" fill="#EC407A">7</text>
	<text transform="matrix(1 0 0 1 38.50 55.50)" fill="#00ACC1">8</text>
	<text transform="matrix(1 0 0 1 47.25 46.63)" fill="#795548">9</text>
	<text transform="matrix(1 0 0 1 53.50 44.50)" fill="#546E7A">10</text>
	<text transform="matrix(1 0 0 1 49.50 56.87)" fill="#E53935">11</text>
	<text transform="matrix(1 0 0 1 49.50 68.50)" fill="#FB8C00">12</text>
	<text transform="matrix(1 0 0 1 41.50 84.50)" fill="#FDD835">13</text>
	<text transform="matrix(1 0 0 1 63.50 83.16)" fill="#43A047">14</text>
</g>
</svg>
