<?xml version="1.0" encoding="UTF-8"?>
<svg xmlns="http://www.w3.org/2000/svg" width="109" height="109" viewBox="0 0 109 109">
<g id="kvg:StrokePaths_06f5f" style="fill:none;stroke:#000000;stroke-width:3;stroke-linecap:round;stroke-linejoin:round;">
<g id="kvg:06f5f">
	<g id="kvg:06f5f-g1">
		<path id="kvg:s-s1" stroke="#E53935" d="M22.38,17.75c3.31,1.47,8.54,6.05,9.37,8.34"/>
		<path id="kvg:s-s2" stroke="#FB8C00" d="M14.75,40.25c3.79,1.54,9.8,6.35,10.75,8.75"/>
		<path id="kvg:s-s3" stroke="#FDD835" d="M13.25,88.71c1.5,1.31,3.31,1.36,4.25-0.25C20.25,83.75,23,78,25.5,72"/>
	</g>
	<g id="kvg:06f5f-g2">
		<g id="kvg:06f5f-g3">
			<path id="kvg:s-s4" stroke="#43A047" d="M59.03,11.96c0.04,0.26,0.2,0.77-0.08,1.04c-2.95,2.75-6.25,5.98-14.4,8.91"/>
			<path id="kvg:s-s5" stroke="#1E88E5" d="M42.83,21.07c0.67,0.61,0.99,1.96,1.11,3.21c0.33,3.48,2.52,19.32,3.13,25.48"/>
			<path id="kvg:s-s6" stroke="#8E24AA" d="M46.49,34.38 c 0.79,0.14,1.42,0.42,2.53,0.42c1.11,0,12.48-1.36,13.75-1.49"/>
			<path id="kvg:s-s7" stroke="#EC407A" d="M68.91,18.87c0.79,0.14,1.42,0.42,2.53,0.42c1.11,0,14.3-2.16,15.56-2.3c1.26-0.14,2.36,0.69,2.21,1.52c-1.46,8-5.46,22.5-7.82,29.73"/>
			<path id="kvg:s-s8" stroke="#00ACC1" d="M69.22,32.2c0.79,0.14,1.42,0.42,2.53,0.42c1.11,0,12.48-1.11,13.75-1.24"/>
			<path id="kvg:s-s9" stroke="#795548" d="M47.23,47.4c2.05,0,31.16-1.8,33.53-1.94"/>
		</g>
		<g id="kvg:06f5f-g4">
			<g id="kvg:06f5f-g5">
				<path id="kvg:s-s10" stroke="#546E7A" d="M52.03,51.5c0.06,0.51,0.12,1.31-0.11,2.03c-1.35,4.29-9.08,13.7-19.67,19.47"/>
			</g>
			<path id="kvg:s-s11" stroke="#E53935" d="M49.73,62.66c1,0.41,2.4,0.55,4.01,0.27c1.6-0.27,31.64-3.6,35.64-3.73c4-0.14,4.85,1.38,4.2,4.24c-2.33,10.32-6.08,21.32-11.62,30.12c-1.88,2.99-4.04,1.03-6.41-0.68"/>
		</g>
		<g id="kvg:06f5f-g6">
			<path id="kvg:s-s12" stroke="#FB8C00" d="M35.71,77c0,4.71-0.6,11.65-0.75,13"/>
			<path id="kvg:s-s13" stroke="#FDD835" d="M48,73.25c2.84,2.16,5.53,8.11,6.25,11.47"/>
			<path id="kvg:s-s14" stroke="#43A047" d="M60.75,71.25c2.05,1.71,5.31,7.05,5.82,9.72"/>
			<path id="kvg:s-s15" stroke="#1E88E5" d="M72,67.75c2.67,1.71,6.89,7.05,7.56,9.72"/>
		</g>
	</g>
</g>
</g>
<g id="kvg:StrokeNumbers_06f5f" style="font-size:18;fill:#E53935;font-weight:bold;stroke:#fff;stroke-width:1.5;paint-order:stroke">
	<text transform="matrix(1 0 0 1 13.50 16.50)" fill="#E53935">1</text>
	<text transform="matrix(1 0 0 1 7.50 40.50)" fill="#FB8C00">2</text>
	<text transform="matrix(1 0 0 1 6.50 92.50)" fill="#FDD835">3</text>
	<text transform="matrix(1 0 0 1 50.50 11.50)" fill="#43A047">4</text>
	<text transform="matrix(1 0 0 1 36.50 28.55)" fill="#1E88E5">5</text>
	<text transform="matrix(1 0 0 1 49.50 31.50)" fill="#8E24AA">6</text>
	<text transform="matrix(1 0 0 1 67.50 16.50)" fill="#EC407A">7</text>
	<text transform="matrix(1 0 0 1 68.25 29.50)" fill="#00ACC1">8</text>
	<text transform="matrix(1 0 0 1 50.25 44.50)" fill="#795548">9</text>
	<text transform="matrix(1 0 0 1 38.50 58.63)" fill="#546E7A">10</text>
	<text transform="matrix(1 0 0 1 57.50 59.50)" fill="#E53935">11</text>
	<text transform="matrix(1 0 0 1 26.50 83.50)" fill="#FB8C00">12</text>
	<text transform="matrix(1 0 0 1 39.75 80.50)" fill="#FDD835">13</text>
	<text transform="matrix(1 0 0 1 51.50 74.50)" fill="#43A047">14</text>
	<text transform="matrix(1 0 0 1 63.50 71.50)" fill="#1E88E5">15</text>
</g>
</svg>
