<?xml version="1.0" encoding="UTF-8"?>
<svg xmlns="http://www.w3.org/2000/svg" width="109" height="109" viewBox="0 0 109 109">
<g id="kvg:StrokePaths_06f64" style="fill:none;stroke:#000000;stroke-width:3;stroke-linecap:round;stroke-linejoin:round;">
<g id="kvg:06f64">
	<g id="kvg:06f64-g1">
		<path id="kvg:s-s1" stroke="#E53935" d="M18.88,14.5c4.01,1.38,10.36,5.69,11.37,7.84"/>
		<path id="kvg:s-s2" stroke="#FB8C00" d="M15,36.5c3.62,1.68,9.34,6.89,10.25,9.5"/>
		<path id="kvg:s-s3" stroke="#FDD835" d="M13.95,84.16c1.25,0.36,2.48,0.05,3.22-1.07c3.12-4.67,6.24-10.38,9.07-16.34"/>
	</g>
	<g id="kvg:06f64-g2">
		<g id="kvg:06f64-g3">
			<g id="kvg:06f64-g4">
				<path id="kvg:s-s4" stroke="#43A047" d="M38.64,16.78c0.91,0.91,1.01,2.22,1.01,4.02c0,3.38-0.02,40.76-0.03,61.7c0,3.56,0,6.64,0,9"/>
				<path id="kvg:s-s5" stroke="#1E88E5" d="M40.57,19.15c3.25-0.56,10.89-2.09,14.19-2.52c2.29-0.3,3.7,0.16,3.7,2.62c0,2.85-0.04,11.22-0.07,16.5c-0.01,2.12-0.02,3.83-0.02,4.62"/>
				<path id="kvg:s-s6" stroke="#8E24AA" d="M41.05,29.12c4.51-0.4,11.78-1.43,16.12-1.85"/>
				<path id="kvg:s-s7" stroke="#EC407A" d="M41,40.62c6.72-1.09,9.94-1.52,15.89-2.02"/>
			</g>
			<g id="kvg:06f64-g5">
				<path id="kvg:s-s8" stroke="#00ACC1" d="M72.5,13.93c0.79,0.79,1.04,1.82,1.04,2.83c0,2.96,0,12.2,0,18.49c0,1.93,0,3.59,0,4.69"/>
				<path id="kvg:s-s9" stroke="#795548" d="M74.19,15.77c5.21-0.75,12.9-2.52,16.32-2.98c2.91-0.39,3.96,0.54,3.96,3.34c0,18.75-0.09,62.07-0.09,74.37c0,9.79-5.33,1.64-6.62,0.42"/>
				<path id="kvg:s-s10" stroke="#546E7A" d="M74.58,26.56c5.51-0.58,12.61-1.84,18.5-2.19"/>
				<path id="kvg:s-s11" stroke="#E53935" d="M74.94,37.67c7.19-0.4,11.39-1,17.88-1.25"/>
			</g>
		</g>
		<g id="kvg:06f64-g6">
			<path id="kvg:s-s12" stroke="#FB8C00" d="M52.25,52.18c1.75,0.45,3.49,0.48,4.51,0.43c5.53-0.26,13.79-1.37,18.75-1.69c1.21-0.2,2.41-0.13,3.59,0.2"/>
			<path id="kvg:s-s13" stroke="#FDD835" d="M64.3,53.66c0.77,0.77,1.08,1.88,1.08,2.94c0,4.03-0.01,15.95-0.01,20.87"/>
			<path id="kvg:s-s14" stroke="#43A047" d="M53.84,65.04c1.29,0.33,2.68,0.39,3.66,0.34c5.75-0.27,12.32-1.16,17.52-1.68c0.56-0.06,1.79-0.13,2.62,0.15"/>
			<path id="kvg:s-s15" stroke="#1E88E5" d="M50.28,79.21c1.68,0.74,3.84,0.41,5.59,0.29c5.61-0.38,12.97-0.71,19.51-1.5c1.58-0.19,4.11-0.26,5.66,0.23"/>
		</g>
	</g>
</g>
</g>
<g id="kvg:StrokeNumbers_06f64" style="font-size:18;font-weight:bold;stroke:#fff;stroke-width:1.5;paint-order:stroke">
	<text transform="matrix(1 0 0 1 11.50 15.50)" fill="#E53935">1</text>
	<text transform="matrix(1 0 0 1 8.25 37.50)" fill="#FB8C00">2</text>
	<text transform="matrix(1 0 0 1 6.75 88.50)" fill="#FDD835">3</text>
	<text transform="matrix(1 0 0 1 32.25 30.13)" fill="#43A047">4</text>
	<text transform="matrix(1 0 0 1 42.50 15.50)" fill="#1E88E5">5</text>
	<text transform="matrix(1 0 0 1 44.50 26.50)" fill="#8E24AA">6</text>
	<text transform="matrix(1 0 0 1 44.50 37.50)" fill="#EC407A">7</text>
	<text transform="matrix(1 0 0 1 65.50 21.50)" fill="#00ACC1">8</text>
	<text transform="matrix(1 0 0 1 74.50 12.13)" fill="#795548">9</text>
	<text transform="matrix(1 0 0 1 77.25 23.50)" fill="#546E7A">10</text>
	<text transform="matrix(1 0 0 1 77.25 34.48)" fill="#E53935">11</text>
	<text transform="matrix(1 0 0 1 43.45 53.50)" fill="#FB8C00">12</text>
	<text transform="matrix(1 0 0 1 56.50 60.50)" fill="#FDD835">13</text>
	<text transform="matrix(1 0 0 1 44.34 65.50)" fill="#43A047">14</text>
	<text transform="matrix(1 0 0 1 44.50 76.40)" fill="#1E88E5">15</text>
</g>
</svg>
