<?xml version="1.0" encoding="UTF-8"?>
<svg xmlns="http://www.w3.org/2000/svg" width="109" height="109" viewBox="0 0 109 109">
<g id="kvg:StrokePaths_06f70" style="fill:none;stroke:#000000;stroke-width:3;stroke-linecap:round;stroke-linejoin:round;">
<g id="kvg:06f70">
	<g id="kvg:06f70-g1">
		<path id="kvg:s-s1" stroke="#E53935" d="M21.38,17.25c4.01,1.65,10.36,6.78,11.37,9.34"/>
		<path id="kvg:s-s2" stroke="#FB8C00" d="M15.25,44.25C19.04,45.79,25.05,50.6,26,53"/>
		<path id="kvg:s-s3" stroke="#FDD835" d="M17.75,88.71c1.5,1.31,3.31,1.36,4.25-0.25C24.75,83.75,27.5,78,30,72"/>
	</g>
	<g id="kvg:06f70-g2">
		<g id="kvg:06f70-g3">
			<g id="kvg:06f70-g4">
				<g id="kvg:06f70-g5">
					<path id="kvg:s-s4" stroke="#43A047" d="M44.34,21.17c0.34,0.19,1.01,0.62,1.11,1.08c0.77,3.34,1.19,7.07,2.27,13.39"/>
					<path id="kvg:s-s5" stroke="#1E88E5" d="M45.74,22.74c10.26-1.49,30.37-3.63,36.6-3.89c2.43-0.1,3.24,0.9,2.97,3.46c-0.26,2.45-0.76,3.48-2.37,8.94"/>
					<path id="kvg:s-s6" stroke="#8E24AA" d="M47.69,33.93c6.93-0.67,27.68-2.17,37.37-2.8"/>
				</g>
				<g id="kvg:06f70-g6">
					<path id="kvg:s-s7" stroke="#EC407A" d="M63.55,10c0.96,0.51,1.73,2.26,1.73,3.31c0,9.69,0,22.08-0.19,28.44"/>
				</g>
			</g>
			<path id="kvg:s-s8" stroke="#00ACC1" d="M36.5,43.2c1.17,0.54,3.31,0.62,4.48,0.54c11.27-0.74,36.3-3.24,50.68-3.73c1.95-0.07,3.12,0.26,4.09,0.53"/>
		</g>
		<g id="kvg:06f70-g7">
			<g id="kvg:06f70-g8">
				<path id="kvg:s-s9" stroke="#795548" d="M47.76,51.05c0.57,0.84,0.97,3.13,0.97,4.25s0.05,31.31,0.05,31.87"/>
				<path id="kvg:s-s10" stroke="#546E7A" d="M49.25,52.56c7.75-0.81,28.3-3.66,31.24-3.83c2.45-0.14,3.85,0.64,3.32,3.49c-0.61,3.21-0.71,31.89-0.71,32.73"/>
				<path id="kvg:s-s11" stroke="#E53935" d="M49.06,62.76c5.88-0.81,28.39-2.94,33.57-2.94"/>
				<path id="kvg:s-s12" stroke="#FB8C00" d="M49.33,73c8.17-0.75,24.62-2.29,32.93-2.29"/>
				<path id="kvg:s-s13" stroke="#FDD835" d="M49.5,84.2c6.42,0,25.28-2.29,33.59-2.29"/>
			</g>
			<g id="kvg:06f70-g9">
				<path id="kvg:s-s14" stroke="#43A047" d="M57.63,87.02c0.5,1.04-0.01,2.33-1,3.09c-2.98,2.3-11.16,6.93-17.12,9.64"/>
				<path id="kvg:s-s15" stroke="#1E88E5" d="M71.67,87.21c7.4,3.06,16.14,8.61,18.16,11.29"/>
			</g>
		</g>
	</g>
</g>
</g>
<g id="kvg:StrokeNumbers_06f70" style="font-size:18;font-weight:bold;stroke:#fff;stroke-width:1.5;paint-order:stroke">
	<text transform="matrix(1 0 0 1 14.50 16.38)" fill="#E53935">1</text>
	<text transform="matrix(1 0 0 1 6.50 43.50)" fill="#FB8C00">2</text>
	<text transform="matrix(1 0 0 1 9.50 92.50)" fill="#FDD835">3</text>
	<text transform="matrix(1 0 0 1 38.25 28.50)" fill="#43A047">4</text>
	<text transform="matrix(1 0 0 1 46.50 18.50)" fill="#1E88E5">5</text>
	<text transform="matrix(1 0 0 1 50.50 30.50)" fill="#8E24AA">6</text>
	<text transform="matrix(1 0 0 1 55.50 9.50)" fill="#EC407A">7</text>
	<text transform="matrix(1 0 0 1 35.50 39.50)" fill="#00ACC1">8</text>
	<text transform="matrix(1 0 0 1 39.00 61.03)" fill="#795548">9</text>
	<text transform="matrix(1 0 0 1 50.50 49.45)" fill="#546E7A">10</text>
	<text transform="matrix(1 0 0 1 52.50 59.38)" fill="#E53935">11</text>
	<text transform="matrix(1 0 0 1 52.50 70.50)" fill="#FB8C00">12</text>
	<text transform="matrix(1 0 0 1 52.50 81.50)" fill="#FDD835">13</text>
	<text transform="matrix(1 0 0 1 41.50 92.50)" fill="#43A047">14</text>
	<text transform="matrix(1 0 0 1 66.50 95.50)" fill="#1E88E5">15</text>
</g>
</svg>
