<?xml version="1.0" encoding="UTF-8"?>
<svg xmlns="http://www.w3.org/2000/svg" width="109" height="109" viewBox="0 0 109 109">
<g id="kvg:StrokePaths_06feb" style="fill:none;stroke:#000000;stroke-width:3;stroke-linecap:round;stroke-linejoin:round;">
<g id="kvg:06feb">
	<g id="kvg:06feb-g1">
		<path id="kvg:s-s1" stroke="#E53935" d="M17.88,14.75c3.48,1.52,9,6.23,9.87,8.59"/>
		<path id="kvg:s-s2" stroke="#FB8C00" d="M13.75,35.5c3.79,1.5,9.8,6.17,10.75,8.5"/>
		<path id="kvg:s-s3" stroke="#FDD835" d="M12,86.48c1.62,0.39,2.62-0.12,3.61-1.75c3.39-5.61,6.04-10.66,8.89-16.49"/>
	</g>
	<g id="kvg:06feb-g2">
		<g id="kvg:06feb-g3">
			<g id="kvg:06feb-g4">
				<path id="kvg:s-s4" stroke="#43A047" d="M39.02,17.61c1.06,1.06,1.28,2.27,1.28,3.77c0,6.28-0.06,25.32-0.06,34.87c0,1.37,0.02,4.24,0,4.87"/>
				<path id="kvg:s-s5" stroke="#1E88E5" d="M40.88,18.26c5.62-0.63,14.58-1.85,21.09-2.13c0.99-0.04,1.58-0.1,2.07,0.06"/>
				<path id="kvg:s-s6" stroke="#8E24AA" d="M52.74,19.3c0.79,0.79,0.88,1.56,0.88,2.8c0,2.77-0.08,5.14-0.08,8.06"/>
				<path id="kvg:s-s7" stroke="#EC407A" d="M41.55,32.83c6.08-0.8,12.68-1.81,17.33-2.44c2.92-0.4,3.87,0.31,3.32,3.26c-0.46,2.49-1.04,5.41-1.47,8.25"/>
				<path id="kvg:s-s8" stroke="#00ACC1" d="M41.58,45.03c2.23-0.28,12.72-1.75,18.46-2.33c1.49-0.15,2.62-0.26,3.16-0.3"/>
				<path id="kvg:s-s9" stroke="#795548" d="M52.78,45.46c0.69,0.69,0.88,1.41,0.88,2.68c0,3.2,0.02,6.35-0.04,8.74"/>
				<path id="kvg:s-s10" stroke="#546E7A" d="M41.6,59.2c5.77-0.58,12.26-1.44,18.77-2.06c1.34-0.13,3-0.27,4.45-0.15"/>
			</g>
			<g id="kvg:06feb-g5">
				<g id="kvg:06feb-g6">
					<path id="kvg:s-s11" stroke="#E53935" d="M77.6,17.25c0.02,0.6,0.17,1.61-0.05,2.41c-1.63,5.88-4.59,14.46-8.8,22.59"/>
					<path id="kvg:s-s12" stroke="#FB8C00" d="M76.55,33.39c1.45,0.11,2.84,0.04,3.49-0.08c5.45-0.95,8.53-1.5,12.34-2.12c1.06-0.17,2.74-0.32,3.98-0.18"/>
				</g>
				<path id="kvg:s-s13" stroke="#FDD835" d="M72.6,49.66c1.65,0.09,2.87,0.14,3.88,0.04c7.14-0.7,12.84-1.4,14.37-1.61s2.91-0.36,4.04-0.03"/>
			</g>
		</g>
		<g id="kvg:06feb-g7">
			<path id="kvg:s-s14" stroke="#43A047" d="M39.87,70.62c0.6,0.58,1.34,1.37,1.5,2.46c0.88,5.93,1.36,9.27,2.08,16.45"/>
			<path id="kvg:s-s15" stroke="#1E88E5" d="M41.86,72.06c10.1-1.58,30.27-3.69,40.27-4.23c4.04-0.22,5.89,0.42,5.02,5.05c-0.69,3.67-1.39,6.75-2.62,14.2"/>
			<path id="kvg:s-s16" stroke="#8E24AA" d="M54.19,72.74c0.25,0.38,0.54,0.68,0.61,1.16c0.7,4.85,1.04,7.92,1.65,14.7"/>
			<path id="kvg:s-s17" stroke="#EC407A" d="M69.53,70.27c0.46,0.44,0.89,1.21,0.82,1.8c-0.73,5.87-1.03,8.43-1.92,15.95"/>
			<path id="kvg:s-s18" stroke="#00ACC1" d="M28.5,90.79c3.25,1.13,6.74,0.92,10.11,0.61c13.89-1.27,30.43-2.72,49.01-3.49c3.54-0.15,7.53,0.16,10.98,0.84"/>
		</g>
	</g>
</g>
</g>
<g id="kvg:StrokeNumbers_06feb" style="font-size:18;font-weight:bold;stroke:#fff;stroke-width:1.5;paint-order:stroke">
	<text transform="matrix(1 0 0 1 12.50 14.88)" fill="#E53935">1</text>
	<text transform="matrix(1 0 0 1 6.50 37.25)" fill="#FB8C00">2</text>
	<text transform="matrix(1 0 0 1 5.00 91.23)" fill="#FDD835">3</text>
	<text transform="matrix(1 0 0 1 33.50 28.38)" fill="#43A047">4</text>
	<text transform="matrix(1 0 0 1 39.50 14.88)" fill="#1E88E5">5</text>
	<text transform="matrix(1 0 0 1 56.25 25.38)" fill="#8E24AA">6</text>
	<text transform="matrix(1 0 0 1 43.25 29.80)" fill="#EC407A">7</text>
	<text transform="matrix(1 0 0 1 43.25 41.73)" fill="#00ACC1">8</text>
	<text transform="matrix(1 0 0 1 56.25 52.15)" fill="#795548">9</text>
	<text transform="matrix(1 0 0 1 42.25 56.25)" fill="#546E7A">10</text>
	<text transform="matrix(1 0 0 1 70.25 13.38)" fill="#E53935">11</text>
	<text transform="matrix(1 0 0 1 79.25 30.25)" fill="#FB8C00">12</text>
	<text transform="matrix(1 0 0 1 70.25 47.25)" fill="#FDD835">13</text>
	<text transform="matrix(1 0 0 1 31.25 78.25)" fill="#43A047">14</text>
	<text transform="matrix(1 0 0 1 41.00 68.25)" fill="#1E88E5">15</text>
	<text transform="matrix(1 0 0 1 45.50 80.25)" fill="#8E24AA">16</text>
	<text transform="matrix(1 0 0 1 61.25 78.25)" fill="#EC407A">17</text>
	<text transform="matrix(1 0 0 1 26.00 88.38)" fill="#00ACC1">18</text>
</g>
</svg>
