<?xml version="1.0" encoding="UTF-8"?>
<svg xmlns="http://www.w3.org/2000/svg" width="109" height="109" viewBox="0 0 109 109">
<g id="kvg:StrokePaths_0706f" style="fill:none;stroke:#000000;stroke-width:3;stroke-linecap:round;stroke-linejoin:round;">
<g id="kvg:0706f">
	<g id="kvg:0706f-g1">
		<path id="kvg:s-s1" stroke="#E53935" d="M11.62,39.25c1.6,3.23,3.94,12.39,4.38,15.62"/>
		<path id="kvg:s-s2" stroke="#FB8C00" d="M46.13,28.75c0.17,1.05-0.08,1.99-0.82,3.02c-0.74,1.03-8.87,9.08-12.56,11.48"/>
		<path id="kvg:s-s3" stroke="#FDD835" d="M28.75,16.25c0.76,0.75,1.02,2,1.03,3.25C30,67.12,27,77,11,93"/>
		<path id="kvg:s-s4" stroke="#43A047" d="M30.62,63.75c5.2,2.73,11.76,11.38,13.12,15.25"/>
	</g>
	<g id="kvg:0706f-g2">
		<g id="kvg:0706f-g3">
			<path id="kvg:s-s5" stroke="#1E88E5" d="M52.5,26.42c1.82,0.56,5.15,0.53,6.96,0.31c9.17-1.11,23.42-3.11,31.56-3.48c3.02-0.13,4.84,0.27,6.35,0.55"/>
		</g>
		<g id="kvg:0706f-g4">
			<path id="kvg:s-s6" stroke="#8E24AA" d="M78.02,27.58c1.14,1.14,1.75,2.79,1.75,5.06c0,15.86,0,51.23,0,56.8c0,8.97-6.05,2.58-9.71-0.5"/>
		</g>
	</g>
</g>
</g>
<g id="kvg:StrokeNumbers_0706f" style="font-size:18;fill:#E53935;font-weight:bold;stroke:#fff;stroke-width:1.5;paint-order:stroke">
	<text transform="matrix(1 0 0 1 3.49 36.13)" fill="#E53935">1</text>
	<text transform="matrix(1 0 0 1 39.75 25.63)" fill="#FB8C00">2</text>
	<text transform="matrix(1 0 0 1 21.49 11.98)" fill="#FDD835">3</text>
	<text transform="matrix(1 0 0 1 36.49 62.91)" fill="#43A047">4</text>
	<text transform="matrix(1 0 0 1 53.25 22.63)" fill="#1E88E5">5</text>
	<text transform="matrix(1 0 0 1 71.25 37.63)" fill="#8E24AA">6</text>
</g>
</svg>
