<?xml version="1.0" encoding="UTF-8"?>
<svg xmlns="http://www.w3.org/2000/svg" width="109" height="109" viewBox="0 0 109 109">
<g id="kvg:StrokePaths_07070" style="fill:none;stroke:#000000;stroke-width:3;stroke-linecap:round;stroke-linejoin:round;">
<g id="kvg:07070">
	<g id="kvg:07070-g1">
		<path id="kvg:s-s1" stroke="#E53935" d="M23.12,26.9c2.96,0.95,6.23,0.55,9.27,0.27c13.63-1.25,32.76-4.23,44.87-4.97c2.98-0.18,5.92-0.28,8.87,0.29"/>
		<path id="kvg:s-s2" stroke="#FB8C00" d="M24.93,27.73c0.79,0.79,1.18,2.14,1.18,3.24C26.11,48,26.5,70,12.81,87.22"/>
	</g>
	<g id="kvg:07070-g2">
		<path id="kvg:s-s3" stroke="#FDD835" d="M39,50.25c2.03,2.81,4.98,10.78,5.53,13.59"/>
		<path id="kvg:s-s4" stroke="#43A047" d="M80.39,44.04c0.11,1.09,0,1.99-0.75,3.15c-0.75,1.16-6.14,8.31-11.5,12.47"/>
		<path id="kvg:s-s5" stroke="#1E88E5" d="M57.13,35.75c0.75,0.88,1.2,2.37,1.07,4.32C56.25,69.5,48,83.5,32.64,93.5"/>
		<path id="kvg:s-s6" stroke="#8E24AA" d="M55.69,63.37C65.45,72.66,75.48,82.2,82.52,88c1.39,1.15,4.6,3.75,6.8,4.66"/>
	</g>
</g>
</g>
<g id="kvg:StrokeNumbers_07070" style="font-size:18;fill:#E53935;font-weight:bold;stroke:#fff;stroke-width:1.5;paint-order:stroke">
	<text transform="matrix(1 0 0 1 29.50 24.50)" fill="#E53935">1</text>
	<text transform="matrix(1 0 0 1 18.75 37.55)" fill="#FB8C00">2</text>
	<text transform="matrix(1 0 0 1 33.50 46.50)" fill="#FDD835">3</text>
	<text transform="matrix(1 0 0 1 71.50 42.13)" fill="#43A047">4</text>
	<text transform="matrix(1 0 0 1 49.50 41.50)" fill="#1E88E5">5</text>
	<text transform="matrix(1 0 0 1 57.75 77.98)" fill="#8E24AA">6</text>
</g>
</svg>
