<?xml version="1.0" encoding="UTF-8"?>
<svg xmlns="http://www.w3.org/2000/svg" width="109" height="109" viewBox="0 0 109 109">
<g id="kvg:StrokePaths_0708e" style="fill:none;stroke:#000000;stroke-width:3;stroke-linecap:round;stroke-linejoin:round;">
<g id="kvg:0708e">
	<g id="kvg:0708e-g1">
		<path id="kvg:s-s1" stroke="#E53935" d="M30.25,21.6c3.3,2.36,8.1,9.03,9,11.38"/>
		<path id="kvg:s-s2" stroke="#FB8C00" d="M77,17.44c0.5,0.94,0.31,2.35-0.5,3.17c-1.75,1.77-6.62,5.9-11.25,8.68"/>
		<path id="kvg:s-s3" stroke="#FDD835" d="M53.75,11.75c0.62,1,0.79,1.88,0.75,2.98C53.5,40.25,41.38,48.5,23,55.25"/>
		<path id="kvg:s-s4" stroke="#43A047" d="M54.5,32.81C69.75,37.5,79.75,45.88,87.25,54.5"/>
	</g>
	<g id="kvg:0708e-g2">
		<path id="kvg:s-s5" stroke="#1E88E5" d="M31,62.38c3.45,2.2,8.46,8.44,9.4,10.64"/>
		<path id="kvg:s-s6" stroke="#8E24AA" d="M74.42,57.12c0.2,1.25-0.17,2.25-0.75,2.88c-0.87,0.95-8.28,8.27-12.04,10.72"/>
		<path id="kvg:s-s7" stroke="#EC407A" d="M54.27,52.25c0.61,0.88,0.77,1.74,0.64,3.31C52.62,83.88,40.5,89.12,18.5,97"/>
		<path id="kvg:s-s8" stroke="#00ACC1" d="M53.66,70.63c10.96,7.56,22.19,16.22,30.23,21.8c2.99,2.07,6.24,3.57,9.62,4.77"/>
	</g>
</g>
</g>
<g id="kvg:StrokeNumbers_0708e" style="font-size:18;font-weight:bold;stroke:#fff;stroke-width:1.5;paint-order:stroke">
	<text transform="matrix(1 0 0 1 24.50 23.50)" fill="#E53935">1</text>
	<text transform="matrix(1 0 0 1 68.50 17.50)" fill="#FB8C00">2</text>
	<text transform="matrix(1 0 0 1 44.50 14.50)" fill="#FDD835">3</text>
	<text transform="matrix(1 0 0 1 57.75 31.50)" fill="#43A047">4</text>
	<text transform="matrix(1 0 0 1 24.75 66.50)" fill="#1E88E5">5</text>
	<text transform="matrix(1 0 0 1 66.50 59.50)" fill="#8E24AA">6</text>
	<text transform="matrix(1 0 0 1 44.50 55.50)" fill="#EC407A">7</text>
	<text transform="matrix(1 0 0 1 67.50 77.50)" fill="#00ACC1">8</text>
</g>
</svg>
