<?xml version="1.0" encoding="UTF-8"?>
<svg xmlns="http://www.w3.org/2000/svg" width="109" height="109" viewBox="0 0 109 109">
<g id="kvg:StrokePaths_0708a" style="fill:none;stroke:#000000;stroke-width:3;stroke-linecap:round;stroke-linejoin:round;">
<g id="kvg:0708a">
	<g id="kvg:0708a-g1">
		<path id="kvg:s-s1" stroke="#E53935" d="M13.32,39.78c0.93,5.34,1.93,11.47,1.81,16.78"/>
		<path id="kvg:s-s2" stroke="#FB8C00" d="M43.93,32.71c0.06,0.68-0.35,1.67-0.94,2.34c-0.59,0.68-6.06,5.12-9,6.7"/>
		<path id="kvg:s-s3" stroke="#FDD835" d="M27.51,19.75c0.61,1.25,0.75,2.86,0.75,4.01c0,41.37-0.39,52.24-14.76,64.74"/>
		<path id="kvg:s-s4" stroke="#43A047" d="M31.25,63.25c4.76,2.31,10.78,9.61,12.04,12.88"/>
	</g>
	<g id="kvg:0708a-g2">
		<g id="kvg:0708a-g3">
			<path id="kvg:s-s5" stroke="#1E88E5" d="M62.38,17.75c0.05,0.76,0,1.73-0.35,2.78c-2.28,6.97-9.15,19.97-17.21,28.52"/>
			<path id="kvg:s-s6" stroke="#8E24AA" d="M59,34.23c0.74,0.36,2.52,0.38,3.65,0.11c6.6-1.59,12.1-3.59,17.41-4.99c4.32-1.13,1.94,3.89-3.36,10.04"/>
		</g>
		<g id="kvg:0708a-g4">
			<path id="kvg:s-s7" stroke="#EC407A" d="M62.58,46.32c0.67,1.18,1,3.11,0.85,4.74C62.25,64,58.38,84.88,37.25,94.01"/>
			<path id="kvg:s-s8" stroke="#00ACC1" d="M62.53,60.44c6.84,7.69,15.34,16.94,24.13,25.66c2.25,2.24,5.02,4.16,7.84,5.65"/>
		</g>
	</g>
</g>
</g>
<g id="kvg:StrokeNumbers_0708a" style="font-size:18;font-weight:bold;stroke:#fff;stroke-width:1.5;paint-order:stroke">
	<text transform="matrix(1 0 0 1 7.50 40.50)" fill="#E53935">1</text>
	<text transform="matrix(1 0 0 1 36.50 32.50)" fill="#FB8C00">2</text>
	<text transform="matrix(1 0 0 1 18.50 21.13)" fill="#FDD835">3</text>
	<text transform="matrix(1 0 0 1 33.75 61.63)" fill="#43A047">4</text>
	<text transform="matrix(1 0 0 1 53.50 17.50)" fill="#1E88E5">5</text>
	<text transform="matrix(1 0 0 1 65.25 29.50)" fill="#8E24AA">6</text>
	<text transform="matrix(1 0 0 1 53.50 49.50)" fill="#EC407A">7</text>
	<text transform="matrix(1 0 0 1 71.50 65.50)" fill="#00ACC1">8</text>
</g>
</svg>
