<?xml version="1.0" encoding="UTF-8"?>
<svg xmlns="http://www.w3.org/2000/svg" width="109" height="109" viewBox="0 0 109 109">
<g id="kvg:StrokePaths_07089" style="fill:none;stroke:#000000;stroke-width:3;stroke-linecap:round;stroke-linejoin:round;">
<g id="kvg:07089">
	<g id="kvg:07089-g1">
		<path id="kvg:s-s1" stroke="#E53935" d="M13.63,37.95c1.54,3.44,3.78,13.19,4.2,16.63"/>
		<path id="kvg:s-s2" stroke="#FB8C00" d="M41.46,32.61c0.17,1.02-0.14,1.81-0.72,2.84S36,43.12,32.57,47.04"/>
		<path id="kvg:s-s3" stroke="#FDD835" d="M28.27,17.25c0.72,0.76,0.93,2.02,0.95,3.28C29.75,63,27.25,81.25,12,94.5"/>
		<path id="kvg:s-s4" stroke="#43A047" d="M30,69c4.27,2.17,9.65,9.05,10.77,12.13"/>
	</g>
	<g id="kvg:07089-g2">
		<path id="kvg:s-s5" stroke="#1E88E5" d="M48.37,20.67c2.68,0.54,5.3,0.53,8,0.23c9.14-1.02,20.38-2.22,29.38-2.72c2.07-0.12,4.33,0.05,6.38,0.51"/>
		<path id="kvg:s-s6" stroke="#8E24AA" d="M50.34,35.82c2.03,1.18,4.07,0.76,6.28,0.48c8.29-1.06,19.8-2.06,26.63-2.7c3.84-0.36,6.81-0.26,5.59,4.57c-1.09,4.32-2.47,9.08-3.96,15.74"/>
		<path id="kvg:s-s7" stroke="#EC407A" d="M54.21,57.33c8.42-0.83,20.48-2.06,28.55-2.54c1.53-0.09,2.97-0.14,4.27-0.14"/>
		<path id="kvg:s-s8" stroke="#00ACC1" d="M52.38,37.33c0.74,1.17,1.08,2.42,1.08,4.04C53.46,65.29,51.62,82,40,94"/>
	</g>
</g>
</g>
<g id="kvg:StrokeNumbers_07089" style="font-size:18;font-weight:bold;stroke:#fff;stroke-width:1.5;paint-order:stroke">
	<text transform="matrix(1 0 0 1 8.00 37.38)" fill="#E53935">1</text>
	<text transform="matrix(1 0 0 1 36.50 28.25)" fill="#FB8C00">2</text>
	<text transform="matrix(1 0 0 1 20.00 18.25)" fill="#FDD835">3</text>
	<text transform="matrix(1 0 0 1 33.25 69.25)" fill="#43A047">4</text>
	<text transform="matrix(1 0 0 1 46.25 17.25)" fill="#1E88E5">5</text>
	<text transform="matrix(1 0 0 1 53.25 32.80)" fill="#8E24AA">6</text>
	<text transform="matrix(1 0 0 1 58.25 54.25)" fill="#EC407A">7</text>
	<text transform="matrix(1 0 0 1 45.25 44.25)" fill="#00ACC1">8</text>
</g>
</svg>
