<?xml version="1.0" encoding="UTF-8"?>
<svg xmlns="http://www.w3.org/2000/svg" width="109" height="109" viewBox="0 0 109 109">
<g id="kvg:StrokePaths_070c8" style="fill:none;stroke:#000000;stroke-width:3;stroke-linecap:round;stroke-linejoin:round;">
<g id="kvg:070c8">
	<g id="kvg:070c8-g1">
		<g id="kvg:070c8-g2">
			<g id="kvg:070c8-g3">
				<path id="kvg:s-s1" stroke="#E53935" d="M19.83,16.82c2.23,0.86,4.93,0.33,7.21,0.03c6.72-0.88,16.7-2.55,23.45-3.16c2.21-0.2,4.37-0.3,6.55,0.2"/>
			</g>
			<g id="kvg:070c8-g4">
				<path id="kvg:s-s2" stroke="#FB8C00" d="M38.93,19.01c0.07,1.11-0.15,1.84-0.57,2.8C35.88,27.5,28.12,38,17.1,47.12"/>
				<path id="kvg:s-s3" stroke="#FDD835" d="M35.41,31.58c1.24,0.17,2.74-0.01,3.95-0.27c3.51-0.77,6.72-1.65,11.39-2.91c2.72-0.73,4.46,1.06,3.43,3.82C50,43.5,37.25,61.38,19.02,71.5"/>
				<path id="kvg:s-s4" stroke="#43A047" d="M29.5,39.88c3.38,1.96,8.74,8.07,9.59,11.12"/>
			</g>
		</g>
		<g id="kvg:070c8-g5">
			<path id="kvg:s-s5" stroke="#1E88E5" d="M67.57,19.63c1.03,1.03,1.27,2.62,1.27,4.9c0,9.79-0.02,15.49-0.04,20.72c0,1.83-0.01,3.61-0.01,5.49"/>
			<path id="kvg:s-s6" stroke="#8E24AA" d="M88.36,12.33c1.03,1.03,1.42,2.29,1.42,4.26c0,11.25,0.01,44.71,0.01,48.54c0,8.61-7.36-0.84-8.79-1.81"/>
		</g>
	</g>
	<g id="kvg:070c8-g6">
		<path id="kvg:s-s7" stroke="#EC407A" d="M22,79.25c0,6.43-5.75,15.91-7.25,17.75"/>
		<path id="kvg:s-s8" stroke="#00ACC1" d="M41.77,78.58c2.7,2.95,5.26,11.05,5.94,15.63"/>
		<path id="kvg:s-s9" stroke="#795548" d="M62.87,76.83c2.62,2.8,6.78,11.52,7.43,15.88"/>
		<path id="kvg:s-s10" stroke="#546E7A" d="M84.02,76.58c3.72,3.2,9.61,13.16,10.54,18.13"/>
	</g>
</g>
</g>
<g id="kvg:StrokeNumbers_070c8" style="font-size:18;font-weight:bold;stroke:#fff;stroke-width:1.5;paint-order:stroke">
	<text transform="matrix(1 0 0 1 13.25 17.25)" fill="#E53935">1</text>
	<text transform="matrix(1 0 0 1 28.25 26.25)" fill="#FB8C00">2</text>
	<text transform="matrix(1 0 0 1 43.25 26.25)" fill="#FDD835">3</text>
	<text transform="matrix(1 0 0 1 35.00 41.88)" fill="#43A047">4</text>
	<text transform="matrix(1 0 0 1 63.25 17.25)" fill="#1E88E5">5</text>
	<text transform="matrix(1 0 0 1 78.25 12.25)" fill="#8E24AA">6</text>
	<text transform="matrix(1 0 0 1 15.25 81.25)" fill="#EC407A">7</text>
	<text transform="matrix(1 0 0 1 34.25 81.25)" fill="#00ACC1">8</text>
	<text transform="matrix(1 0 0 1 56.00 81.25)" fill="#795548">9</text>
	<text transform="matrix(1 0 0 1 74.00 81.25)" fill="#546E7A">10</text>
</g>
</svg>
