<?xml version="1.0" encoding="UTF-8"?>
<svg xmlns="http://www.w3.org/2000/svg" width="109" height="109" viewBox="0 0 109 109">
<g id="kvg:StrokePaths_0714e" style="fill:none;stroke:#000000;stroke-width:3;stroke-linecap:round;stroke-linejoin:round;">
<g id="kvg:0714e">
	<g id="kvg:0714e-g1">
		<g id="kvg:0714e-g2">
			<g id="kvg:0714e-g3">
				<path id="kvg:s-s1" stroke="#E53935" d="M35.82,13.81c3.33,1.96,8.61,8.06,9.44,11.1"/>
				<path id="kvg:s-s2" stroke="#FB8C00" d="M71.41,12.5c0.12,0.56,0.1,1.66-0.12,2.06c-1.4,2.61-4.91,7.64-6.9,9.88"/>
			</g>
			<path id="kvg:s-s3" stroke="#FDD835" d="M17.24,29.39c1.42,0.52,4.02,0.62,5.43,0.52c17.74-1.22,38.69-3.87,65.46-5.03c2.36-0.1,3.78,0.25,4.96,0.51"/>
		</g>
		<g id="kvg:0714e-g4">
			<g id="kvg:0714e-g5">
				<path id="kvg:s-s4" stroke="#43A047" d="M24.75,38.96c0.47,0.53,0.78,1.05,0.93,1.58c0.16,0.53,0.38,35.64,0.16,36.81"/>
				<path id="kvg:s-s5" stroke="#1E88E5" d="M26.61,39.49c1.86-0.13,18.96-2.36,20.35-2.5c2.49-0.26,3.42,1.71,3.11,2.5c-0.3,0.76-0.47,21.42-0.47,32.1c0,9.17-6.16,1.84-6.78,1.19"/>
				<path id="kvg:s-s6" stroke="#8E24AA" d="M31,45.5c3.94,0.68,10.43,3.96,14.25,8.75"/>
				<path id="kvg:s-s7" stroke="#EC407A" d="M31.25,57.5c3.64,0.71,9.2,4.58,12.5,8"/>
			</g>
			<g id="kvg:0714e-g6">
				<path id="kvg:s-s8" stroke="#00ACC1" d="M63.76,37.22c0.12,0.32,1.73,1.68,1.73,3.73c0,10.55-0.35,16.55-0.35,23.85"/>
				<path id="kvg:s-s9" stroke="#795548" d="M82.56,33.66c0.08,0.37,1.07,1.92,1.15,4.27c0.37,11.26-0.23,27.99-0.23,31.83c0,6.25-5.11,0.84-6.48-0.13"/>
			</g>
		</g>
	</g>
	<g id="kvg:0714e-g7">
		<path id="kvg:s-s10" stroke="#546E7A" d="M21.25,84c0,5.25-5.75,13-7.25,14.5"/>
		<path id="kvg:s-s11" stroke="#E53935" d="M40.52,82.08c3.15,2.76,6.15,10.34,6.94,14.63"/>
		<path id="kvg:s-s12" stroke="#FB8C00" d="M62.37,80.33c3.15,2.76,8.15,11.34,8.93,15.63"/>
		<path id="kvg:s-s13" stroke="#FDD835" d="M83.52,81.08c3.9,2.71,10.07,11.16,11.04,15.38"/>
	</g>
</g>
</g>
<g id="kvg:StrokeNumbers_0714e" style="font-size:18;font-weight:bold;stroke:#fff;stroke-width:1.5;paint-order:stroke">
	<text transform="matrix(1 0 0 1 29.50 14.50)" fill="#E53935">1</text>
	<text transform="matrix(1 0 0 1 61.50 11.55)" fill="#FB8C00">2</text>
	<text transform="matrix(1 0 0 1 10.50 29.50)" fill="#FDD835">3</text>
	<text transform="matrix(1 0 0 1 18.50 46.40)" fill="#43A047">4</text>
	<text transform="matrix(1 0 0 1 28.50 37.33)" fill="#1E88E5">5</text>
	<text transform="matrix(1 0 0 1 36.50 45.50)" fill="#8E24AA">6</text>
	<text transform="matrix(1 0 0 1 36.50 57.50)" fill="#EC407A">7</text>
	<text transform="matrix(1 0 0 1 55.75 40.50)" fill="#00ACC1">8</text>
	<text transform="matrix(1 0 0 1 73.50 36.50)" fill="#795548">9</text>
	<text transform="matrix(1 0 0 1 12.50 84.50)" fill="#546E7A">10</text>
	<text transform="matrix(1 0 0 1 32.50 85.88)" fill="#E53935">11</text>
	<text transform="matrix(1 0 0 1 52.50 85.50)" fill="#FB8C00">12</text>
	<text transform="matrix(1 0 0 1 72.50 84.50)" fill="#FDD835">13</text>
</g>
</svg>
