<?xml version="1.0" encoding="UTF-8"?>
<svg xmlns="http://www.w3.org/2000/svg" width="109" height="109" viewBox="0 0 109 109">
<g id="kvg:StrokePaths_071b1" style="fill:none;stroke:#000000;stroke-width:3;stroke-linecap:round;stroke-linejoin:round;">
<g id="kvg:071b1">
	<g id="kvg:071b1-g1">
		<g id="kvg:071b1-g2">
			<g id="kvg:071b1-g3">
				<path id="kvg:s-s1" stroke="#E53935" d="M20.73,25.14c1.16,0.45,2.57,0.29,3.78,0.2c4.79-0.39,13.58-1.65,18.51-1.98c1.5-0.1,3.03-0.16,4.51,0.19"/>
				<path id="kvg:s-s2" stroke="#FB8C00" d="M33.96,11.62c0.53,0.53,1.02,1.59,1.02,2.92c0,8.34-0.26,16.84-0.26,20.1"/>
				<path id="kvg:s-s3" stroke="#FDD835" d="M15.43,37.9c1.09,0.39,3.08,0.53,4.16,0.39C29.25,37,40.25,35,48.52,34.04c1.8-0.21,2.9,0.18,3.8,0.38"/>
			</g>
			<g id="kvg:071b1-g4">
				<g id="kvg:071b1-g5">
					<path id="kvg:s-s4" stroke="#43A047" d="M25.09,41.7c0.06,0.44,0.14,1.15-0.13,1.76c-2.34,5.29-5.71,8.79-11.96,13.89"/>
				</g>
				<g id="kvg:071b1-g6">
					<path id="kvg:s-s5" stroke="#1E88E5" d="M40.48,36.9c0.59,0.72,1.09,1.82,1.09,2.92c0,1.49-0.18,4.29-0.18,5.35c0,2.9,2.01,3.85,5.86,3.85c3.48,0,6.04-0.25,7.51-1.19"/>
				</g>
			</g>
			<g id="kvg:071b1-g7">
				<path id="kvg:s-s6" stroke="#8E24AA" d="M21.78,59.19c1.34,0.31,2.53,0.48,4.02,0.31c7.17-0.81,12.1-1.63,17.45-2.14c1.29-0.12,2.73-0.45,4-0.11"/>
				<path id="kvg:s-s7" stroke="#EC407A" d="M33.87,47.5c1.13,1.13,1.46,2.62,1.46,4.25c0,3.5,0.03,10.75,0.03,17.75"/>
				<path id="kvg:s-s8" stroke="#00ACC1" d="M18.92,73.54c0.83,0.83,2.08,0.96,3.78,0.53c5.98-1.5,16.9-4.74,24.43-6.95"/>
			</g>
		</g>
		<g id="kvg:071b1-g8">
			<g id="kvg:071b1-g9">
				<path id="kvg:s-s9" stroke="#795548" d="M69.77,11.62c0.5,0.55,0.89,1.81,0.86,2.8c-1.13,35.32-8.26,49.95-22.26,61.32"/>
				<g id="kvg:071b1-g10">
					<path id="kvg:s-s10" stroke="#546E7A" d="M59.2,35.76c1.93,0.36,3.57,0.32,4.67,0c2.63-0.76,9.36-2.11,15.07-3.27c3.07-0.62,4.57,0,3.84,3.86c-0.57,3-3.77,15.01-4.27,23.25c-0.41,6.68,1.51,11.7,8.69,11.7c6.56,0,8.56,0.19,8.75-6.99"/>
				</g>
			</g>
			<g id="kvg:071b1-g11">
				<path id="kvg:s-s11" stroke="#E53935" d="M58.25,53c4.08,1.98,10.54,8.14,11.56,11.22"/>
			</g>
		</g>
	</g>
	<g id="kvg:071b1-g12">
		<path id="kvg:s-s12" stroke="#FB8C00" d="M19,84.5c0,5.25-5.16,13-6.5,14.5"/>
		<path id="kvg:s-s13" stroke="#FDD835" d="M39.77,81.33c2.36,2.8,4.6,10.52,5.19,14.88"/>
		<path id="kvg:s-s14" stroke="#43A047" d="M62.87,81.08c2.09,2.54,5.41,10.44,5.93,14.38"/>
		<path id="kvg:s-s15" stroke="#1E88E5" d="M83.77,80.58c3.81,2.63,9.84,10.8,10.79,14.88"/>
	</g>
</g>
</g>
<g id="kvg:StrokeNumbers_071b1" style="font-size:18;fill:#E53935;font-weight:bold;stroke:#fff;stroke-width:1.5;paint-order:stroke">
	<text transform="matrix(1 0 0 1 13.99 24.13)" fill="#E53935">1</text>
	<text transform="matrix(1 0 0 1 24.75 12.50)" fill="#FB8C00">2</text>
	<text transform="matrix(1 0 0 1 8.50 37.63)" fill="#FDD835">3</text>
	<text transform="matrix(1 0 0 1 15.50 48.50)" fill="#43A047">4</text>
	<text transform="matrix(1 0 0 1 44.50 43.50)" fill="#1E88E5">5</text>
	<text transform="matrix(1 0 0 1 15.75 65.50)" fill="#8E24AA">6</text>
	<text transform="matrix(1 0 0 1 27.75 54.50)" fill="#EC407A">7</text>
	<text transform="matrix(1 0 0 1 10.50 75.50)" fill="#00ACC1">8</text>
	<text transform="matrix(1 0 0 1 61.50 12.50)" fill="#795548">9</text>
	<text transform="matrix(1 0 0 1 56.25 32.50)" fill="#546E7A">10</text>
	<text transform="matrix(1 0 0 1 56.44 48.88)" fill="#E53935">11</text>
	<text transform="matrix(1 0 0 1 9.50 86.50)" fill="#FB8C00">12</text>
	<text transform="matrix(1 0 0 1 30.75 86.50)" fill="#FDD835">13</text>
	<text transform="matrix(1 0 0 1 53.50 84.50)" fill="#43A047">14</text>
	<text transform="matrix(1 0 0 1 72.94 83.50)" fill="#1E88E5">15</text>
</g>
</svg>
