<?xml version="1.0" encoding="UTF-8"?>
<svg xmlns="http://www.w3.org/2000/svg" width="109" height="109" viewBox="0 0 109 109">
<g id="kvg:StrokePaths_0723d" style="fill:none;stroke:#000000;stroke-width:3;stroke-linecap:round;stroke-linejoin:round;">
<g id="kvg:0723d">
	<g id="kvg:0723d-g1">
		<path id="kvg:s-s1" stroke="#E53935" d="M21,28.95c2.79,0.99,6.51,0.73,9.4,0.42c12.27-1.32,32.22-4.23,48.47-4.77c2.99-0.1,5.93-0.18,8.88,0.45"/>
	</g>
	<g id="kvg:0723d-g2">
		<g id="kvg:0723d-g3">
			<path id="kvg:s-s2" stroke="#FB8C00" d="M39.97,35.16c0.14,1.09-0.11,1.92-0.68,2.87c-2.26,3.76-9.2,9.6-18.74,15.42"/>
			<path id="kvg:s-s3" stroke="#FDD835" d="M28.31,40.04c4.23,0.99,9.85,5.98,11.5,9.43"/>
		</g>
		<g id="kvg:0723d-g4">
			<path id="kvg:s-s4" stroke="#43A047" d="M37.48,54.91c0.13,1.03-0.11,1.97-0.7,2.81c-2.03,2.9-7.16,7.53-15.97,13.48"/>
			<path id="kvg:s-s5" stroke="#1E88E5" d="M24.35,58.66C29,60.5,36,65.75,38.44,69.18"/>
		</g>
	</g>
	<g id="kvg:0723d-g5">
		<g id="kvg:0723d-g6">
			<path id="kvg:s-s6" stroke="#8E24AA" d="M75.98,32.66c0.13,0.99-0.28,1.91-0.73,2.78c-2.38,3.69-7.39,10.1-15.44,15.77"/>
			<path id="kvg:s-s7" stroke="#EC407A" d="M64.1,37.11c5.4,2.39,10.9,6.14,14.09,10.06"/>
		</g>
		<g id="kvg:0723d-g7">
			<path id="kvg:s-s8" stroke="#00ACC1" d="M77.24,52.66c0.1,0.82-0.29,1.59-0.71,2.29c-1.79,3.05-5.69,7.22-12.48,12"/>
			<path id="kvg:s-s9" stroke="#795548" d="M64.31,56.79c4.94,2.46,11.69,7.21,15,11.93"/>
		</g>
	</g>
	<g id="kvg:0723d-g8">
		<path id="kvg:s-s10" stroke="#546E7A" d="M51.66,12c1.09,1.5,1.38,2.87,1.38,5.74c0,34.2,4.59,59.88-35.48,79.48"/>
		<path id="kvg:s-s11" stroke="#E53935" d="M51.25,65C59.12,70.88,71,81.75,81.88,90c3.31,2.51,5.87,3.75,9.62,5.5"/>
	</g>
</g>
</g>
<g id="kvg:StrokeNumbers_0723d" style="font-size:18;font-weight:bold;stroke:#fff;stroke-width:1.5;paint-order:stroke">
	<text transform="matrix(1 0 0 1 14.25 29.25)" fill="#E53935">1</text>
	<text transform="matrix(1 0 0 1 32.25 38.25)" fill="#FB8C00">2</text>
	<text transform="matrix(1 0 0 1 21.25 43.25)" fill="#FDD835">3</text>
	<text transform="matrix(1 0 0 1 30.00 56.15)" fill="#43A047">4</text>
	<text transform="matrix(1 0 0 1 18.00 63.08)" fill="#1E88E5">5</text>
	<text transform="matrix(1 0 0 1 68.00 34.25)" fill="#8E24AA">6</text>
	<text transform="matrix(1 0 0 1 58.25 43.25)" fill="#EC407A">7</text>
	<text transform="matrix(1 0 0 1 69.25 54.85)" fill="#00ACC1">8</text>
	<text transform="matrix(1 0 0 1 59.25 62.78)" fill="#795548">9</text>
	<text transform="matrix(1 0 0 1 40.00 11.70)" fill="#546E7A">10</text>
	<text transform="matrix(1 0 0 1 52.25 79.25)" fill="#E53935">11</text>
</g>
</svg>
