<?xml version="1.0" encoding="UTF-8"?>
<svg xmlns="http://www.w3.org/2000/svg" width="109" height="109" viewBox="0 0 109 109">
<g id="kvg:StrokePaths_072d9" style="fill:none;stroke:#000000;stroke-width:3;stroke-linecap:round;stroke-linejoin:round;">
<g id="kvg:072d9">
	<g id="kvg:072d9-g1">
		<path id="kvg:s-s1" stroke="#E53935" d="M38.8,18c0,1.12-0.52,2.12-1.32,2.96C31.38,27.38,26.5,32.25,13,39.79"/>
		<path id="kvg:s-s2" stroke="#FB8C00" d="M18,17.25c27.75,18.5,19,87,4.5,70.75"/>
		<path id="kvg:s-s3" stroke="#FDD835" d="M31.83,43.75c0,1.5-0.42,2.61-0.99,3.67C26,56.25,22,62.25,11.75,71.79"/>
	</g>
	<g id="kvg:072d9-g2">
		<g id="kvg:072d9-g3">
			<path id="kvg:s-s4" stroke="#43A047" d="M52.71,22.09c0.85,0.85,1.18,1.78,1.18,3.06c0,1.03-0.02,60.37-0.02,63.22"/>
			<path id="kvg:s-s5" stroke="#1E88E5" d="M55.05,23.73c2.07-0.09,19.36-2.5,23.69-3.05c2.63-0.33,4.68,1.86,4.68,4.87c0,6.19-0.04,51.07-0.04,60.89"/>
			<path id="kvg:s-s6" stroke="#8E24AA" d="M54.88,43.9c7.76-1,20.45-1.94,27.27-2.25"/>
			<path id="kvg:s-s7" stroke="#EC407A" d="M55.09,64.11c6.06-0.36,19.82-1.76,26.83-1.81"/>
		</g>
		<g id="kvg:072d9-g4">
			<path id="kvg:s-s8" stroke="#00ACC1" d="M41.54,90.07c3.21,0.82,6.4,0.59,9.71,0.34c12.74-0.97,28.76-2.29,39.13-2.5c2.69-0.05,5.85,0.17,8.5,0.61"/>
		</g>
	</g>
</g>
</g>
<g id="kvg:StrokeNumbers_072d9" style="font-size:18;font-weight:bold;stroke:#fff;stroke-width:1.5;paint-order:stroke">
	<text transform="matrix(1 0 0 1 31.25 16.63)" fill="#E53935">1</text>
	<text transform="matrix(1 0 0 1 11.25 17.55)" fill="#FB8C00">2</text>
	<text transform="matrix(1 0 0 1 23.25 44.48)" fill="#FDD835">3</text>
	<text transform="matrix(1 0 0 1 46.25 31.40)" fill="#43A047">4</text>
	<text transform="matrix(1 0 0 1 56.75 20.33)" fill="#1E88E5">5</text>
	<text transform="matrix(1 0 0 1 58.50 40.50)" fill="#8E24AA">6</text>
	<text transform="matrix(1 0 0 1 58.55 60.50)" fill="#EC407A">7</text>
	<text transform="matrix(1 0 0 1 39.50 87.50)" fill="#00ACC1">8</text>
</g>
</svg>
