<?xml version="1.0" encoding="UTF-8"?>
<svg xmlns="http://www.w3.org/2000/svg" width="109" height="109" viewBox="0 0 109 109">
<g id="kvg:StrokePaths_072e9" style="fill:none;stroke:#000000;stroke-width:3;stroke-linecap:round;stroke-linejoin:round;">
<g id="kvg:072e9">
	<g id="kvg:072e9-g1">
		<path id="kvg:s-s1" stroke="#E53935" d="M38.55,18.25c0.07,0.61-0.17,1.55-0.63,2.19C32.12,28.38,24.38,35.5,14,43.04"/>
		<path id="kvg:s-s2" stroke="#FB8C00" d="M20.5,22.75c26.28,22.15,16.74,78.88,5.85,66.6"/>
		<path id="kvg:s-s3" stroke="#FDD835" d="M32.07,46.5c0.1,1.2-0.13,2.37-0.7,3.45C26.99,58.33,22.64,64.18,12,73.38"/>
	</g>
	<g id="kvg:072e9-g2">
		<g id="kvg:072e9-g3">
			<path id="kvg:s-s4" stroke="#43A047" d="M66.46,14.25c0.89,0.89,1.07,1.88,1.07,3.36c0,3.21-0.03,6.21-0.03,9.14"/>
			<g id="kvg:072e9-g4">
				<path id="kvg:s-s5" stroke="#1E88E5" d="M47.88,26.88c0,3.3-2.85,12.38-4.14,14.58"/>
				<path id="kvg:s-s6" stroke="#8E24AA" d="M48.3,30.79c10.95-2.04,34.84-5.31,41.53-5.21c8.43,0.14,3.05,5.04-0.35,7.74"/>
			</g>
		</g>
		<g id="kvg:072e9-g5">
			<path id="kvg:s-s7" stroke="#EC407A" d="M43.57,54.83c2.3,0.3,5.02,0.19,7.43-0.15c11.96-1.71,27.8-4.09,37.98-5.33c2.75-0.34,5.52-0.47,8.22,0.08"/>
			<path id="kvg:s-s8" stroke="#00ACC1" d="M78.53,37.42c1.15,1.15,1.5,2.95,1.5,5.22c0,15.6-0.03,41.79-0.03,46.48c0,8.27-4,2.62-6.97-0.15"/>
			<path id="kvg:s-s9" stroke="#795548" d="M56.55,63.02c2.31,2.01,5.97,8.26,6.54,11.38"/>
		</g>
	</g>
</g>
</g>
<g id="kvg:StrokeNumbers_072e9" style="font-size:18;font-weight:bold;stroke:#fff;stroke-width:1.5;paint-order:stroke">
	<text transform="matrix(1 0 0 1 31.50 17.50)" fill="#E53935">1</text>
	<text transform="matrix(1 0 0 1 13.50 22.50)" fill="#FB8C00">2</text>
	<text transform="matrix(1 0 0 1 24.50 48.50)" fill="#FDD835">3</text>
	<text transform="matrix(1 0 0 1 57.50 15.50)" fill="#43A047">4</text>
	<text transform="matrix(1 0 0 1 41.50 29.50)" fill="#1E88E5">5</text>
	<text transform="matrix(1 0 0 1 51.50 26.50)" fill="#8E24AA">6</text>
	<text transform="matrix(1 0 0 1 41.50 51.50)" fill="#EC407A">7</text>
	<text transform="matrix(1 0 0 1 68.25 39.50)" fill="#00ACC1">8</text>
	<text transform="matrix(1 0 0 1 48.50 64.50)" fill="#795548">9</text>
</g>
</svg>
