<?xml version="1.0" encoding="UTF-8"?>
<svg xmlns="http://www.w3.org/2000/svg" width="109" height="109" viewBox="0 0 109 109">
<g id="kvg:StrokePaths_0731f" style="fill:none;stroke:#000000;stroke-width:3;stroke-linecap:round;stroke-linejoin:round;">
<g id="kvg:0731f">
	<g id="kvg:0731f-g1">
		<path id="kvg:s-s1" stroke="#E53935" d="M36.06,15.5c-0.06,1.12-0.21,1.99-0.63,2.72c-5.27,9.35-11.55,16.65-23.18,25.57"/>
		<path id="kvg:s-s2" stroke="#FB8C00" d="M16.25,19.75C46.75,39.38,33.71,104.03,22,91"/>
		<path id="kvg:s-s3" stroke="#FDD835" d="M29.84,47.25c0.07,0.88-0.06,1.89-0.49,2.67C26,56,20.25,64.12,12,72.29"/>
	</g>
	<g id="kvg:0731f-g2">
		<g id="kvg:0731f-g3">
			<path id="kvg:s-s4" stroke="#43A047" d="M45.17,17.06c3.7,3.82,7.53,11.92,8.05,14.09"/>
			<path id="kvg:s-s5" stroke="#1E88E5" d="M60.37,14.39c2.25,2.98,5.04,9.77,5.69,14.16"/>
			<path id="kvg:s-s6" stroke="#8E24AA" d="M84.12,13.38c0.26,1.24-0.06,2.09-0.74,3.59c-1.5,3.28-5.5,9.9-8.82,14.14"/>
		</g>
		<g id="kvg:0731f-g4">
			<path id="kvg:s-s7" stroke="#EC407A" d="M47.05,38.3c0.83,0.83,1.13,2.08,1.19,3.5c1.25,25.83-2.37,40.96-11.5,52.33"/>
			<path id="kvg:s-s8" stroke="#00ACC1" d="M49.16,40.42c0.94-0.2,2.07-0.45,3.35-0.66c9.62-1.52,22.37-3.52,26.76-3.92c2.38-0.22,3.81,1.19,3.51,3.72c-2.52,20.93-0.65,40.93,9.01,51.46c7.38,8.04,5.96,2.22,5.21-4.28"/>
			<path id="kvg:s-s9" stroke="#795548" d="M49.75,54.36c8.6-0.84,20.62-2.48,30.6-2.89"/>
			<path id="kvg:s-s10" stroke="#546E7A" d="M48.38,69.18c6.17-0.72,25.61-2.2,32.75-2.68"/>
			<path id="kvg:s-s11" stroke="#E53935" d="M63.53,40.98c1.06,1.06,1.12,2.15,1.12,3.51c0,0.75,0.06,34.23,0.06,40.73c0,3.61-0.06,6.35-0.09,7.54"/>
		</g>
	</g>
</g>
</g>
<g id="kvg:StrokeNumbers_0731f" style="font-size:18;font-weight:bold;stroke:#fff;stroke-width:1.5;paint-order:stroke">
	<text transform="matrix(1 0 0 1 29.00 14.88)" fill="#E53935">1</text>
	<text transform="matrix(1 0 0 1 9.25 21.25)" fill="#FB8C00">2</text>
	<text transform="matrix(1 0 0 1 22.25 47.25)" fill="#FDD835">3</text>
	<text transform="matrix(1 0 0 1 41.25 13.25)" fill="#43A047">4</text>
	<text transform="matrix(1 0 0 1 52.25 13.25)" fill="#1E88E5">5</text>
	<text transform="matrix(1 0 0 1 75.25 13.25)" fill="#8E24AA">6</text>
	<text transform="matrix(1 0 0 1 41.50 47.25)" fill="#EC407A">7</text>
	<text transform="matrix(1 0 0 1 55.25 36.25)" fill="#00ACC1">8</text>
	<text transform="matrix(1 0 0 1 53.00 51.25)" fill="#795548">9</text>
	<text transform="matrix(1 0 0 1 52.25 65.25)" fill="#546E7A">10</text>
	<text transform="matrix(1 0 0 1 67.25 46.25)" fill="#E53935">11</text>
</g>
</svg>
