<?xml version="1.0" encoding="UTF-8"?>
<svg xmlns="http://www.w3.org/2000/svg" width="109" height="109" viewBox="0 0 109 109">
<g id="kvg:StrokePaths_073cd" style="fill:none;stroke:#000000;stroke-width:3;stroke-linecap:round;stroke-linejoin:round;">
<g id="kvg:073cd">
	<g id="kvg:073cd-g1">
		<path id="kvg:s-s1" stroke="#E53935" d="M11,28.42c1.5,0.45,3.77,0.39,5.13,0.28c4.36-0.34,14.28-1.67,20.25-2.24c1.22-0.12,2.99-0.34,4.12-0.04"/>
		<path id="kvg:s-s2" stroke="#FB8C00" d="M25.32,30.44c1,1,1.23,2.06,1.23,3.48c0,5.95-0.05,36.21-0.05,41.45"/>
		<path id="kvg:s-s3" stroke="#FDD835" d="M12.25,52.42c1.38,0.58,3.2,0.53,4.26,0.37c4.49-0.67,13.74-2.62,18.23-3.19c0.69-0.09,1.75-0.35,3-0.06"/>
		<path id="kvg:s-s4" stroke="#43A047" d="M12.25,81.02c1.12,1.1,1.86,1.21,3.5,0.4c8-3.92,12.62-6.17,21-10.25"/>
	</g>
	<g id="kvg:073cd-g2">
		<g id="kvg:073cd-g3">
			<path id="kvg:s-s5" stroke="#1E88E5" d="M61.03,14.25c0.05,0.73,0.05,1.96-0.36,2.96C57.4,25.08,52,34.88,41.05,45.5"/>
			<path id="kvg:s-s6" stroke="#8E24AA" d="M61.59,17.92c3.63,3.96,17.64,15.41,24.93,21.09c2.57,2,5.05,3.67,7.97,5.09"/>
		</g>
		<g id="kvg:073cd-g4">
			<path id="kvg:s-s7" stroke="#EC407A" d="M67.89,38.9c0.06,0.45-0.21,1.77-0.62,2.3C64,45.5,57.12,51.62,47.72,57.03"/>
			<path id="kvg:s-s8" stroke="#00ACC1" d="M73.59,55.99c0.08,0.51-0.16,1.43-0.65,2.04c-4.47,5.5-10.81,11.1-26.01,18.78"/>
			<path id="kvg:s-s9" stroke="#795548" d="M82.68,70.96c0.12,0.62-0.04,1.72-0.73,2.46C76.23,79.62,63.38,91,41.47,96.97"/>
		</g>
	</g>
</g>
</g>
<g id="kvg:StrokeNumbers_073cd" style="font-size:18;font-weight:bold;stroke:#fff;stroke-width:1.5;paint-order:stroke">
	<text transform="matrix(1 0 0 1 4.50 28.50)" fill="#E53935">1</text>
	<text transform="matrix(1 0 0 1 18.50 38.50)" fill="#FB8C00">2</text>
	<text transform="matrix(1 0 0 1 5.25 54.50)" fill="#FDD835">3</text>
	<text transform="matrix(1 0 0 1 3.75 85.40)" fill="#43A047">4</text>
	<text transform="matrix(1 0 0 1 52.50 16.50)" fill="#1E88E5">5</text>
	<text transform="matrix(1 0 0 1 69.50 22.63)" fill="#8E24AA">6</text>
	<text transform="matrix(1 0 0 1 60.75 39.05)" fill="#EC407A">7</text>
	<text transform="matrix(1 0 0 1 65.25 55.48)" fill="#00ACC1">8</text>
	<text transform="matrix(1 0 0 1 74.25 70.40)" fill="#795548">9</text>
</g>
</svg>
