<?xml version="1.0" encoding="UTF-8"?>
<svg xmlns="http://www.w3.org/2000/svg" width="109" height="109" viewBox="0 0 109 109">
<g id="kvg:StrokePaths_07518" style="fill:none;stroke:#000000;stroke-width:3;stroke-linecap:round;stroke-linejoin:round;">
<g id="kvg:07518">
	<g id="kvg:07518-g1">
		<g id="kvg:07518-g2">
			<path id="kvg:s-s1" stroke="#E53935" d="M13.75,39.2c3,1.07,7.02,0.69,10.14,0.38c13.36-1.31,40.11-3.96,59.61-4.9c3.67-0.18,7.99-0.18,10.99,0.61"/>
			<path id="kvg:s-s2" stroke="#FB8C00" d="M35.17,20c1.06,1.06,1.21,2.38,1.21,4c0,5.13,0.04,42.56,0.02,64.62c0,2.83-0.01,5.41-0.01,7.62"/>
		</g>
		<path id="kvg:s-s3" stroke="#FDD835" d="M70.87,14c1.07,1.06,1.46,2.5,1.46,4c0,0.68,0.02,48.38,0.03,68.38c0,4.98,0,8.23,0,8.62"/>
	</g>
	<path id="kvg:s-s4" stroke="#43A047" d="M37.5,61.75c4.25-0.5,30.75-3,33.75-3"/>
	<g id="kvg:07518-g3">
		<path id="kvg:s-s5" stroke="#1E88E5" d="M37.25,89.75c6.5-0.25,28-1.75,34-2"/>
	</g>
</g>
</g>
<g id="kvg:StrokeNumbers_07518" style="font-size:18;font-weight:bold;stroke:#fff;stroke-width:1.5;paint-order:stroke">
	<text transform="matrix(1 0 0 1 7.50 40.63)" fill="#E53935">1</text>
	<text transform="matrix(1 0 0 1 24.75 20.50)" fill="#FB8C00">2</text>
	<text transform="matrix(1 0 0 1 60.75 15.13)" fill="#FDD835">3</text>
	<text transform="matrix(1 0 0 1 41.50 58.50)" fill="#43A047">4</text>
	<text transform="matrix(1 0 0 1 41.50 86.50)" fill="#1E88E5">5</text>
</g>
</svg>
