<?xml version="1.0" encoding="UTF-8"?>
<svg xmlns="http://www.w3.org/2000/svg" width="109" height="109" viewBox="0 0 109 109">
<g id="kvg:StrokePaths_07537" style="fill:none;stroke:#000000;stroke-width:3;stroke-linecap:round;stroke-linejoin:round;">
<g id="kvg:07537">
	<g id="kvg:07537-g1">
		<path id="kvg:s-s1" stroke="#E53935" d="M26.5,14.25c0.88,0.88,1.56,1.99,1.73,2.98c0.84,4.77,2.47,16.75,3.34,26.04c0.18,1.95,0.37,2.37,0.55,4.23"/>
		<path id="kvg:s-s2" stroke="#FB8C00" d="M29,15.95c11.38-1.45,41.21-4.57,49.56-4.71c3.9-0.07,5.44,1.51,4.91,5.29c-0.45,3.21-3.15,15.19-4.94,22.23c-0.41,1.62-0.79,2.99-1.4,4.19"/>
		<path id="kvg:s-s3" stroke="#FDD835" d="M54,15.97c0.77,0.77,1,1.91,1,2.79c0.02,6.32,0.2,22,0.2,22.75"/>
		<path id="kvg:s-s4" stroke="#43A047" d="M30.98,30.82C45,29.12,57.12,28,80.53,26.34"/>
		<path id="kvg:s-s5" stroke="#1E88E5" d="M32.87,44.74c11.38-1.24,28.38-2.99,44.14-3.7"/>
	</g>
	<g id="kvg:07537-g2">
		<path id="kvg:s-s6" stroke="#8E24AA" d="M19.98,60.98c2.15,0.67,4.58,0.78,6.77,0.53c13.46-1.53,42.24-5.66,51.88-6.86c5.26-0.66,6.86,1.04,5.72,6.27c-1.92,8.83-9,27.39-15.66,33.19c-5.11,4.45-7.44,2.14-9.69-0.86"/>
		<path id="kvg:s-s7" stroke="#EC407A" d="M53.22,46.43c0.28,1.32,0.29,3.04-0.2,4.57C49.12,63.12,38,81.25,17.14,92.06"/>
	</g>
</g>
</g>
<g id="kvg:StrokeNumbers_07537" style="font-size:18;fill:#E53935;font-weight:bold;stroke:#fff;stroke-width:1.5;paint-order:stroke">
	<text transform="matrix(1 0 0 1 18.75 19.50)" fill="#E53935">1</text>
	<text transform="matrix(1 0 0 1 31.50 12.50)" fill="#FB8C00">2</text>
	<text transform="matrix(1 0 0 1 47.50 24.13)" fill="#FDD835">3</text>
	<text transform="matrix(1 0 0 1 34.00 27.50)" fill="#43A047">4</text>
	<text transform="matrix(1 0 0 1 34.50 41.50)" fill="#1E88E5">5</text>
	<text transform="matrix(1 0 0 1 11.50 63.50)" fill="#8E24AA">6</text>
	<text transform="matrix(1 0 0 1 45.50 52.50)" fill="#EC407A">7</text>
</g>
</svg>
