<?xml version="1.0" encoding="UTF-8"?>
<svg xmlns="http://www.w3.org/2000/svg" width="109" height="109" viewBox="0 0 109 109">
<g id="kvg:StrokePaths_07559" style="fill:none;stroke:#000000;stroke-width:3;stroke-linecap:round;stroke-linejoin:round;">
<g id="kvg:07559">
	<g id="kvg:07559-g1">
		<g id="kvg:07559-g2">
			<path id="kvg:s-s1" stroke="#E53935" d="M41.07,11.69c0,0.69-0.1,1.38-0.94,2.06c-4.01,3.25-8.68,6.14-14.99,9.14"/>
			<path id="kvg:s-s2" stroke="#FB8C00" d="M21.12,23.1c0.77,0.77,1.32,1.4,1.32,2.59c0,0.81,0.15,17.07,0.15,20.95c0,3,0.66,3.62,3.43,1.91c4.93-3.04,13.1-8.41,18.3-11.81"/>
			<path id="kvg:s-s3" stroke="#FDD835" d="M40.78,29.37C45,34,48.38,39,50.81,44.65"/>
		</g>
		<g id="kvg:07559-g3">
			<path id="kvg:s-s4" stroke="#43A047" d="M57.94,17.74c1.12,0.41,2.53,0.36,3.51,0.22c7.98-1.14,20.44-4.34,24.87-4.76c2.88-0.27,4.31,1.17,4.19,4.27c-0.19,5.06-3.76,21.65-7.44,28.63c-2.37,4.49-4.26,1.86-6.41-0.87"/>
			<g id="kvg:07559-g4">
				<path id="kvg:s-s5" stroke="#1E88E5" d="M69.43,20.25c0.32,0.75,0.39,1.79,0.17,2.74c-2.22,9.39-6.1,19.26-14.05,27.9"/>
			</g>
		</g>
	</g>
	<g id="kvg:07559-g5">
		<path id="kvg:s-s6" stroke="#8E24AA" d="M25.19,61.37c0.9,0.91,1.44,2.17,1.58,3.15C28,73.12,29,82.62,30.2,93.74c0.17,1.55,0.27,3.06,0.4,4.51"/>
		<path id="kvg:s-s7" stroke="#EC407A" d="M27.36,63.34c17.89-2.09,41.39-4.24,52.16-4.87c3.96-0.23,5.87,2.28,5.5,5.6c-0.78,7.05-2.12,17.31-4.09,27.66c-0.26,1.36-0.53,2.7-0.8,4"/>
		<path id="kvg:s-s8" stroke="#00ACC1" d="M52.95,62.16c0.82,0.82,1.19,2.21,1.19,3.58c0,7.95,0.01,24.57,0.01,27.17"/>
		<path id="kvg:s-s9" stroke="#795548" d="M29.94,78.32C41,77.38,64.5,75,82.79,74.39"/>
		<path id="kvg:s-s10" stroke="#546E7A" d="M31.6,95.58c12.4-0.83,34.15-2.21,47.91-2.6"/>
	</g>
</g>
</g>
<g id="kvg:StrokeNumbers_07559" style="font-size:18;fill:#E53935;font-weight:bold;stroke:#fff;stroke-width:1.5;paint-order:stroke">
	<text transform="matrix(1 0 0 1 34.50 11.50)" fill="#E53935">1</text>
	<text transform="matrix(1 0 0 1 15.75 32.50)" fill="#FB8C00">2</text>
	<text transform="matrix(1 0 0 1 33.50 31.50)" fill="#FDD835">3</text>
	<text transform="matrix(1 0 0 1 52.50 14.50)" fill="#43A047">4</text>
	<text transform="matrix(1 0 0 1 60.50 28.50)" fill="#1E88E5">5</text>
	<text transform="matrix(1 0 0 1 19.50 71.50)" fill="#8E24AA">6</text>
	<text transform="matrix(1 0 0 1 29.25 60.13)" fill="#EC407A">7</text>
	<text transform="matrix(1 0 0 1 46.50 70.50)" fill="#00ACC1">8</text>
	<text transform="matrix(1 0 0 1 33.50 75.05)" fill="#795548">9</text>
	<text transform="matrix(1 0 0 1 33.50 92.98)" fill="#546E7A">10</text>
</g>
</svg>
