<?xml version="1.0" encoding="UTF-8"?>
<svg xmlns="http://www.w3.org/2000/svg" width="109" height="109" viewBox="0 0 109 109">
<g id="kvg:StrokePaths_07573" style="fill:none;stroke:#000000;stroke-width:3;stroke-linecap:round;stroke-linejoin:round;">
<g id="kvg:07573">
	<g id="kvg:07573-g1">
		<path id="kvg:s-s1" stroke="#E53935" d="M29.65,15.99c0.81,0.81,1.02,1.5,1.17,3.01c0.61,6.29,0.78,11.42,1.08,18.24c0.06,1.41,0.12,2.83,0.17,4.25"/>
		<path id="kvg:s-s2" stroke="#FB8C00" d="M31.54,17.29c13.27-1.81,31.04-4.47,41.08-5.17c3.38-0.24,6.05,1.06,5.49,4.77c-0.59,3.89-1.86,10.47-3.04,16.23c-0.36,1.77-0.74,3.47-1.12,4.99"/>
		<path id="kvg:s-s3" stroke="#FDD835" d="M52.1,17.4c1.07,1.07,1.41,2.48,1.41,3.73c0,5.07-0.01,13.07-0.01,15"/>
		<path id="kvg:s-s4" stroke="#43A047" d="M32.5,28.18c10.87-1.68,37-4.31,42.79-4.64"/>
		<path id="kvg:s-s5" stroke="#1E88E5" d="M33.22,39.27c12.78-1.4,26.03-2.4,40.09-3.12"/>
	</g>
	<g id="kvg:07573-g2">
		<g id="kvg:07573-g3">
			<path id="kvg:s-s6" stroke="#8E24AA" d="M18.75,46c-0.13,4.06-3.17,14.68-4.25,17.1"/>
			<path id="kvg:s-s7" stroke="#EC407A" d="M19.9,50.02c15.1-1.77,47.46-5.45,64.52-5.65c10.33-0.12,4.17,5.21-0.17,8.61"/>
		</g>
		<g id="kvg:07573-g4">
			<g id="kvg:07573-g5">
				<path id="kvg:s-s8" stroke="#00ACC1" d="M33.25,57.05c0.91,0.91,1.26,1.82,1.26,3.11c0,0.89,0.96,31.48,0.88,33.39"/>
				<path id="kvg:s-s9" stroke="#795548" d="M35.75,58.95c8.75-0.95,27.62-3.2,32.46-3.75c3.31-0.38,4.18,0.67,4.18,3.49c0,2.81-0.02,22.56-0.02,31.31"/>
				<path id="kvg:s-s10" stroke="#546E7A" d="M35.84,70.49c8.52-0.85,27.93-2.33,35.42-2.59"/>
				<path id="kvg:s-s11" stroke="#E53935" d="M36.09,82.28C44,81.5,62,80.12,71.22,79.73"/>
			</g>
			<g id="kvg:07573-g6">
				<path id="kvg:s-s12" stroke="#FB8C00" d="M16.29,95.14c2.8,0.82,5.99,0.75,8.84,0.51c16.5-1.4,36.66-2.74,58.88-3.17c3.33-0.06,6.66-0.17,9.88,0.87"/>
			</g>
		</g>
	</g>
</g>
</g>
<g id="kvg:StrokeNumbers_07573" style="font-size:18;font-weight:bold;stroke:#fff;stroke-width:1.5;paint-order:stroke">
	<text transform="matrix(1 0 0 1 23.25 24.50)" fill="#E53935">1</text>
	<text transform="matrix(1 0 0 1 33.75 13.50)" fill="#FB8C00">2</text>
	<text transform="matrix(1 0 0 1 46.50 22.50)" fill="#FDD835">3</text>
	<text transform="matrix(1 0 0 1 36.75 25.48)" fill="#43A047">4</text>
	<text transform="matrix(1 0 0 1 36.75 35.90)" fill="#1E88E5">5</text>
	<text transform="matrix(1 0 0 1 11.50 51.50)" fill="#8E24AA">6</text>
	<text transform="matrix(1 0 0 1 22.50 46.50)" fill="#EC407A">7</text>
	<text transform="matrix(1 0 0 1 25.50 63.05)" fill="#00ACC1">8</text>
	<text transform="matrix(1 0 0 1 36.75 56.50)" fill="#795548">9</text>
	<text transform="matrix(1 0 0 1 39.75 67.55)" fill="#546E7A">10</text>
	<text transform="matrix(1 0 0 1 39.75 79.48)" fill="#E53935">11</text>
	<text transform="matrix(1 0 0 1 17.25 91.63)" fill="#FB8C00">12</text>
</g>
</svg>
