<?xml version="1.0" encoding="UTF-8"?>
<svg xmlns="http://www.w3.org/2000/svg" width="109" height="109" viewBox="0 0 109 109">
<g id="kvg:StrokePaths_0758e" style="fill:none;stroke:#000000;stroke-width:3;stroke-linecap:round;stroke-linejoin:round;">
<g id="kvg:0758e">
	<g id="kvg:0758e-g1">
		<path id="kvg:s-s1" stroke="#E53935" d="M10.72,24c1.2,0.5,2.9,0.76,4.15,0.5c9.67-2.05,13.75-3.25,20.75-4.9c3.33-0.79,5.21,0.92,2.48,3.75c-3.25,3.36-4.98,5.29-8.09,8.4"/>
		<g id="kvg:0758e-g2">
			<path id="kvg:s-s2" stroke="#FB8C00" d="M25.62,33c1,1,1.21,2.5,1.21,3.75c0,1.05,0.03,29.25,0.03,38"/>
			<path id="kvg:s-s3" stroke="#FDD835" d="M27.88,49.75c3.87-0.25,6.12-0.75,9.35-1.5c1.7-0.39,2.18-0.25,3.26,0"/>
		</g>
		<g id="kvg:0758e-g3">
			<path id="kvg:s-s4" stroke="#43A047" d="M13.12,54.5c1,1,1.38,2.12,1.46,3.75c0.05,1.02,0.67,16,1.03,23.5"/>
			<path id="kvg:s-s5" stroke="#1E88E5" d="M10,83.25c1.25,1.25,2.59,1.25,4.04,0.4C19.44,80.52,33.25,72,40.5,67.75"/>
		</g>
	</g>
	<g id="kvg:0758e-g4">
		<g id="kvg:0758e-g5">
			<path id="kvg:s-s6" stroke="#8E24AA" d="M48.22,27.61c2.15,0.39,4.1,0.53,5.65,0.28c7.87-1.27,20.67-3.25,27.73-4.03c1.74-0.19,3.42-0.38,5.13,0.09"/>
		</g>
		<g id="kvg:0758e-g6">
			<path id="kvg:s-s7" stroke="#EC407A" d="M46.49,40.7c0.78,0.78,1.31,1.45,1.42,2.38c0.8,2.8,1.86,7.28,2.69,11.55c0.28,1.42,0.51,2.81,0.67,4.07"/>
			<path id="kvg:s-s8" stroke="#00ACC1" d="M48.63,41.94c11.75-2.69,26.85-4.76,33.26-5.6c3.53-0.46,5.78,0.56,4.9,4.66c-1.04,4.87-1.54,6.49-2.38,11.2"/>
			<path id="kvg:s-s9" stroke="#795548" d="M52.41,56.56c7.33-1.01,20.09-2.81,29.1-3.72c1.76-0.18,3.35-0.32,4.69-0.42"/>
		</g>
		<g id="kvg:0758e-g7">
			<path id="kvg:s-s10" stroke="#546E7A" d="M65.5,12.75c1.25,1.25,1.75,2.62,1.75,4c0,0.69,0.03,52.85,0.02,74c0,5.21-0.01,8.54-0.02,8.75"/>
			<path id="kvg:s-s11" stroke="#E53935" d="M64.67,55.82c0,1.68-0.54,2.96-1.53,4.67c-5.54,9.58-14.02,19.39-23.03,25.27"/>
			<path id="kvg:s-s12" stroke="#FB8C00" d="M67.99,55.6C71.75,60.75,81,71.25,88.14,78.74c2.15,2.26,4.24,4.26,7.26,5.92"/>
		</g>
	</g>
</g>
</g>
<g id="kvg:StrokeNumbers_0758e" style="font-size:18;font-weight:bold;stroke:#fff;stroke-width:1.5;paint-order:stroke">
	<text transform="matrix(1 0 0 1 5.25 22.63)" fill="#E53935">1</text>
	<text transform="matrix(1 0 0 1 17.25 36.50)" fill="#FB8C00">2</text>
	<text transform="matrix(1 0 0 1 30.75 46.63)" fill="#FDD835">3</text>
	<text transform="matrix(1 0 0 1 3.50 55.63)" fill="#43A047">4</text>
	<text transform="matrix(1 0 0 1 2.75 86.38)" fill="#1E88E5">5</text>
	<text transform="matrix(1 0 0 1 47.75 25.13)" fill="#8E24AA">6</text>
	<text transform="matrix(1 0 0 1 42.75 52.55)" fill="#EC407A">7</text>
	<text transform="matrix(1 0 0 1 47.25 38.50)" fill="#00ACC1">8</text>
	<text transform="matrix(1 0 0 1 54.75 53.50)" fill="#795548">9</text>
	<text transform="matrix(1 0 0 1 53.00 12.13)" fill="#546E7A">10</text>
	<text transform="matrix(1 0 0 1 48.50 67.50)" fill="#E53935">11</text>
	<text transform="matrix(1 0 0 1 77.50 65.50)" fill="#FB8C00">12</text>
</g>
</svg>
