<?xml version="1.0" encoding="UTF-8"?>
<svg xmlns="http://www.w3.org/2000/svg" width="109" height="109" viewBox="0 0 109 109">
<g id="kvg:StrokePaths_075b2" style="fill:none;stroke:#000000;stroke-width:3;stroke-linecap:round;stroke-linejoin:round;">
<g id="kvg:075b2">
	<g id="kvg:075b2-g1">
		<path id="kvg:s-s1" stroke="#E53935" d="M57.06,14.63c1.09,1.09,1.26,2.37,1.26,3.65c0,0.79,0.08,4.65-0.07,9.46"/>
		<path id="kvg:s-s2" stroke="#FB8C00" d="M27.13,29.98c2.87,1.02,6.3,0.62,9.25,0.32c15.12-1.54,33.18-3.15,46.24-4.04c3.08-0.21,5.97-0.34,9,0.31"/>
		<path id="kvg:s-s3" stroke="#FDD835" d="M29.75,31.38c1,1,1.24,2.12,1.24,3.37c0,30.69-2.24,45.5-17.18,58.47"/>
		<path id="kvg:s-s4" stroke="#43A047" d="M13.5,37.75c2.82,1.94,7.29,7.98,8,11"/>
		<path id="kvg:s-s5" stroke="#1E88E5" d="M10.42,67.32c1.2,0.55,2.07,0.48,3.41-0.31c5.92-3.51,8.3-4.89,12.92-7.51"/>
	</g>
	<g id="kvg:075b2-g2">
		<path id="kvg:s-s6" stroke="#8E24AA" d="M44.8,45c0.85,0.85,0.94,2.12,0.84,4C44.62,69.12,42,83,30.62,92.59"/>
		<path id="kvg:s-s7" stroke="#EC407A" d="M46.74,47.3c13.51-2.68,25.26-4.18,33.63-4.63c8.29-0.45,3.38,4.58-0.12,8.12"/>
		<path id="kvg:s-s8" stroke="#00ACC1" d="M62.93,34c0.91,0.91,1.15,2,1.15,3.32c0,0.81-0.06,15.57-0.06,23.67"/>
		<path id="kvg:s-s9" stroke="#795548" d="M50.44,64.11c1.28,0.28,2.52,0.33,5.08-0.1c2.56-0.43,18.79-4.09,20.55-4.51c2.12-0.51,3.58,1.11,2.4,3.12c-8.23,14.01-21.6,26.26-36.95,32.98"/>
		<path id="kvg:s-s10" stroke="#546E7A" d="M52.08,69.99c3.68,1.03,18.08,14.07,30.59,21.39c2.85,1.67,5.9,3.42,9.11,4.3"/>
	</g>
</g>
</g>
<g id="kvg:StrokeNumbers_075b2" style="font-size:18;font-weight:bold;stroke:#fff;stroke-width:1.5;paint-order:stroke">
	<text transform="matrix(1 0 0 1 48.75 15.50)" fill="#E53935">1</text>
	<text transform="matrix(1 0 0 1 32.25 27.05)" fill="#FB8C00">2</text>
	<text transform="matrix(1 0 0 1 23.50 40.50)" fill="#FDD835">3</text>
	<text transform="matrix(1 0 0 1 6.50 38.50)" fill="#43A047">4</text>
	<text transform="matrix(1 0 0 1 3.50 72.50)" fill="#1E88E5">5</text>
	<text transform="matrix(1 0 0 1 38.25 52.50)" fill="#8E24AA">6</text>
	<text transform="matrix(1 0 0 1 48.50 43.50)" fill="#EC407A">7</text>
	<text transform="matrix(1 0 0 1 53.50 37.63)" fill="#00ACC1">8</text>
	<text transform="matrix(1 0 0 1 50.50 61.50)" fill="#795548">9</text>
	<text transform="matrix(1 0 0 1 58.50 72.50)" fill="#546E7A">10</text>
</g>
</svg>
