<?xml version="1.0" encoding="UTF-8"?>
<svg xmlns="http://www.w3.org/2000/svg" width="109" height="109" viewBox="0 0 109 109">
<g id="kvg:StrokePaths_075be" style="fill:none;stroke:#000000;stroke-width:3;stroke-linecap:round;stroke-linejoin:round;">
<g id="kvg:075be">
	<g id="kvg:075be-g1">
		<path id="kvg:s-s1" stroke="#E53935" d="M57.81,11.38c0.97,0.97,1.51,2.37,1.51,3.9c0,0.79,0.08,3.65-0.07,8.46"/>
		<path id="kvg:s-s2" stroke="#FB8C00" d="M28.63,26.23c2.91,1.04,6.39,0.6,9.39,0.31c14.86-1.42,30.65-2.99,43.37-3.82c2.91-0.19,5.63-0.27,8.49,0.35"/>
		<path id="kvg:s-s3" stroke="#FDD835" d="M30.74,27.25c0.88,0.88,1,2.19,0.99,3.5c-0.11,33.09-1.75,51.26-14.68,64.21"/>
		<path id="kvg:s-s4" stroke="#43A047" d="M13.62,38.12c3.4,1.83,8.77,7.53,9.62,10.38"/>
		<path id="kvg:s-s5" stroke="#1E88E5" d="M12.42,71.22c1.08,0.4,2.07,0.55,3.46-0.39C21.5,67,24.75,64.55,29,61.25"/>
	</g>
	<g id="kvg:075be-g2">
		<path id="kvg:s-s6" stroke="#8E24AA" d="M51.47,34c0.07,1.16-0.01,2.26-0.27,3.39c-1.28,5.56-5.32,14.49-11.24,20.73"/>
		<g id="kvg:075be-g3">
			<path id="kvg:s-s7" stroke="#EC407A" d="M52.37,45.15c1.34,0.09,4.42-0.38,5.35-0.55c3.47-0.63,12.1-2.02,18.04-3.15c1.54-0.29,3.36-0.58,4.97-0.31"/>
			<g id="kvg:075be-g4">
				<path id="kvg:s-s8" stroke="#00ACC1" d="M36.64,64.88c2.85,0.96,5.95,0.56,8.87,0.28c13.9-1.31,30.27-3.1,39.98-3.75c2.73-0.18,5.42-0.22,8.11,0.37"/>
				<path id="kvg:s-s9" stroke="#795548" d="M63.48,47.33c0.28,0.78,0.57,1.51,0.56,3.03c-0.18,26.27-9.19,38.97-24.02,47.04"/>
				<path id="kvg:s-s10" stroke="#546E7A" d="M64.96,65.59C72,75,78.88,83.75,85.88,91.25c2.27,2.42,5.24,4.75,8.1,6.28"/>
			</g>
		</g>
	</g>
</g>
</g>
<g id="kvg:StrokeNumbers_075be" style="font-size:18;font-weight:bold;stroke:#fff;stroke-width:1.5;paint-order:stroke">
	<text transform="matrix(1 0 0 1 49.50 11.50)" fill="#E53935">1</text>
	<text transform="matrix(1 0 0 1 29.50 23.50)" fill="#FB8C00">2</text>
	<text transform="matrix(1 0 0 1 24.50 35.50)" fill="#FDD835">3</text>
	<text transform="matrix(1 0 0 1 6.50 37.50)" fill="#43A047">4</text>
	<text transform="matrix(1 0 0 1 5.25 75.50)" fill="#1E88E5">5</text>
	<text transform="matrix(1 0 0 1 43.50 36.50)" fill="#8E24AA">6</text>
	<text transform="matrix(1 0 0 1 56.50 42.13)" fill="#EC407A">7</text>
	<text transform="matrix(1 0 0 1 44.25 61.63)" fill="#00ACC1">8</text>
	<text transform="matrix(1 0 0 1 56.50 53.50)" fill="#795548">9</text>
	<text transform="matrix(1 0 0 1 73.50 73.50)" fill="#546E7A">10</text>
</g>
</svg>
