<?xml version="1.0" encoding="UTF-8"?>
<svg xmlns="http://www.w3.org/2000/svg" width="109" height="109" viewBox="0 0 109 109">
<g id="kvg:StrokePaths_075c7" style="fill:none;stroke:#000000;stroke-width:3;stroke-linecap:round;stroke-linejoin:round;">
<g id="kvg:075c7">
	<g id="kvg:075c7-g1">
		<path id="kvg:s-s1" stroke="#E53935" d="M57.31,12.63c1.03,1.03,1.76,2.87,1.76,4.4c0,0.79,0.08,4.4-0.07,9.21"/>
		<path id="kvg:s-s2" stroke="#FB8C00" d="M29.63,28.73c2.25,0.4,5.83,0.3,8.49,0.13c14.21-0.9,31.04-2.62,44.01-3.4c2.83-0.17,5.47-0.23,8.25,0.37"/>
		<path id="kvg:s-s3" stroke="#FDD835" d="M32.24,29.5c1,1,1.26,2.75,1.24,4C33.12,57,31.62,76.12,18.81,94.47"/>
		<path id="kvg:s-s4" stroke="#43A047" d="M15.5,39.88c3.09,1.83,7.98,7.53,8.75,10.38"/>
		<path id="kvg:s-s5" stroke="#1E88E5" d="M13.67,68.22c1.08,0.65,2.06,0.54,3.46-0.39C22.88,64,24.25,63.3,28.5,60"/>
	</g>
	<g id="kvg:075c7-g2">
		<path id="kvg:s-s6" stroke="#8E24AA" d="M44.31,43.25c1.83,0.67,4.71,0.38,6.57,0.16c6.71-0.78,16.31-2.5,24.24-2.99c1.87-0.12,3.8-0.28,5.65,0.13"/>
		<g id="kvg:075c7-g3">
			<g id="kvg:075c7-g4">
				<path id="kvg:s-s7" stroke="#EC407A" d="M61.96,45.03c1.13,1.13,1.56,2.6,1.56,5.03c0,15.25-0.02,31.67-0.02,36.86"/>
				<path id="kvg:s-s8" stroke="#00ACC1" d="M64.88,63.62c3.41-0.31,9.26-1.04,14-1.45c1.29-0.11,2.74-0.39,4.02-0.1"/>
			</g>
			<path id="kvg:s-s9" stroke="#795548" d="M45.19,59.17c0.95,0.95,1.62,2.71,1.62,4.88c0,6.7,0.07,14.95,0.07,23.87"/>
			<path id="kvg:s-s10" stroke="#546E7A" d="M32.51,88.67c3.05,1.02,6.29,0.99,9.46,0.7c10.73-0.99,25.36-2.74,42.52-2.98c2.63-0.04,5.63,0.11,8.25,1.13"/>
		</g>
	</g>
</g>
</g>
<g id="kvg:StrokeNumbers_075c7" style="font-size:18;font-weight:bold;stroke:#fff;stroke-width:1.5;paint-order:stroke">
	<text transform="matrix(1 0 0 1 50.25 13.50)" fill="#E53935">1</text>
	<text transform="matrix(1 0 0 1 32.25 25.50)" fill="#FB8C00">2</text>
	<text transform="matrix(1 0 0 1 26.50 38.50)" fill="#FDD835">3</text>
	<text transform="matrix(1 0 0 1 8.25 40.50)" fill="#43A047">4</text>
	<text transform="matrix(1 0 0 1 5.50 72.50)" fill="#1E88E5">5</text>
	<text transform="matrix(1 0 0 1 45.75 39.13)" fill="#8E24AA">6</text>
	<text transform="matrix(1 0 0 1 54.75 54.13)" fill="#EC407A">7</text>
	<text transform="matrix(1 0 0 1 68.50 60.50)" fill="#00ACC1">8</text>
	<text transform="matrix(1 0 0 1 36.50 58.50)" fill="#795548">9</text>
	<text transform="matrix(1 0 0 1 32.25 85.55)" fill="#546E7A">10</text>
</g>
</svg>
