<?xml version="1.0" encoding="UTF-8"?>
<svg xmlns="http://www.w3.org/2000/svg" width="109" height="109" viewBox="0 0 109 109">
<g id="kvg:StrokePaths_075db" style="fill:none;stroke:#000000;stroke-width:3;stroke-linecap:round;stroke-linejoin:round;">
<g id="kvg:075db">
	<g id="kvg:075db-g1">
		<path id="kvg:s-s1" stroke="#E53935" d="M55.06,11.38c0.97,0.97,1.26,2.49,1.26,3.9c0,0.79-0.07,4.59-0.07,7.46"/>
		<path id="kvg:s-s2" stroke="#FB8C00" d="M26.13,25.73c2.75,0.65,5.94,0.63,8.74,0.35c15.75-1.58,34.38-3.7,48-4.74c2.76-0.21,5.53-0.35,8.25,0.23"/>
		<path id="kvg:s-s3" stroke="#FDD835" d="M29.24,26.75c1,1,1.43,2.12,1.41,3.63c-0.16,16.74,1.09,47.49-14.1,62.59"/>
		<path id="kvg:s-s4" stroke="#43A047" d="M14.5,38.5c2.74,1.98,6.75,7.5,7.75,11.25"/>
		<path id="kvg:s-s5" stroke="#1E88E5" d="M11.8,67.48c1.2,0.77,2.56,0.49,3.75-0.41c4.15-3.13,5.99-4.91,10.7-9.07"/>
	</g>
	<g id="kvg:075db-g2">
		<g id="kvg:075db-g3">
			<path id="kvg:s-s6" stroke="#8E24AA" d="M43.12,35.65c1.86,0.72,3.85,0.59,5.77,0.31c5.52-0.81,21.23-3.33,27.57-4.29c3.03-0.46,3.92,1.48,1.94,3.28c-1.08,0.98-9.52,8.42-13.43,11.67"/>
			<path id="kvg:s-s7" stroke="#EC407A" d="M56.62,42c2.46,1.01,8.81,4.89,9.97,7.52"/>
		</g>
		<g id="kvg:075db-g4">
			<path id="kvg:s-s8" stroke="#00ACC1" d="M43.69,53.34c0.8,0.8,1.12,2.03,1.12,3.37c0,2.21-0.04,23.03-0.06,34.29c0,2.91-0.01,5.18-0.01,6.33"/>
			<path id="kvg:s-s9" stroke="#795548" d="M45.69,54.58c5.56-0.48,28.31-3.66,34.85-4.51c3.28-0.43,5.3,0.81,5.3,3.94c0,5.3-0.2,26.65-0.2,36.7c0,10.54-5.86,1.49-7.05,1.07"/>
			<path id="kvg:s-s10" stroke="#546E7A" d="M45.69,66.9c9.68-1.15,28.18-3.53,39.2-3.96"/>
			<path id="kvg:s-s11" stroke="#E53935" d="M45.67,80.22c6-0.71,29.58-3.59,38.99-3.91"/>
			<path id="kvg:s-s12" stroke="#FB8C00" d="M63.11,55.17c0.92,0.92,1.09,2.2,1.09,3.44c0,5.45-0.11,19.21-0.14,31.39c-0.01,2.1-0.01,4.07-0.01,5.85"/>
		</g>
	</g>
</g>
</g>
<g id="kvg:StrokeNumbers_075db" style="font-size:18;fill:#E53935;font-weight:bold;stroke:#fff;stroke-width:1.5;paint-order:stroke">
	<text transform="matrix(1 0 0 1 45.50 10.50)" fill="#E53935">1</text>
	<text transform="matrix(1 0 0 1 30.75 23.13)" fill="#FB8C00">2</text>
	<text transform="matrix(1 0 0 1 23.25 35.50)" fill="#FDD835">3</text>
	<text transform="matrix(1 0 0 1 6.75 38.50)" fill="#43A047">4</text>
	<text transform="matrix(1 0 0 1 3.00 72.00)" fill="#1E88E5">5</text>
	<text transform="matrix(1 0 0 1 35.50 37.50)" fill="#8E24AA">6</text>
	<text transform="matrix(1 0 0 1 49.50 45.13)" fill="#EC407A">7</text>
	<text transform="matrix(1 0 0 1 36.75 64.63)" fill="#00ACC1">8</text>
	<text transform="matrix(1 0 0 1 45.75 51.13)" fill="#795548">9</text>
	<text transform="matrix(1 0 0 1 47.50 63.05)" fill="#546E7A">10</text>
	<text transform="matrix(1 0 0 1 47.76 76.48)" fill="#E53935">11</text>
	<text transform="matrix(1 0 0 1 54.50 61.50)" fill="#FB8C00">12</text>
</g>
</svg>
