<?xml version="1.0" encoding="UTF-8"?>
<svg xmlns="http://www.w3.org/2000/svg" width="109" height="109" viewBox="0 0 109 109">
<g id="kvg:StrokePaths_075e2" style="fill:none;stroke:#000000;stroke-width:3;stroke-linecap:round;stroke-linejoin:round;">
<g id="kvg:075e2">
	<g id="kvg:075e2-g1">
		<path id="kvg:s-s1" stroke="#E53935" d="M56.81,10.88c1.09,1.09,1.26,2.49,1.26,3.65c0,0.79,0.08,4.15-0.07,8.96"/>
		<path id="kvg:s-s2" stroke="#FB8C00" d="M27.38,25.98c2.79,1,6.49,0.69,9.37,0.3c15.29-2.07,32.46-3.94,45.25-4.77c3.12-0.2,6.05-0.35,9.13,0.31"/>
		<path id="kvg:s-s3" stroke="#FDD835" d="M29.49,27c1,1,1.51,2.35,1.49,3.5c-0.36,31.75-2.49,49.13-18.18,62.97"/>
		<path id="kvg:s-s4" stroke="#43A047" d="M15.12,41c2.78,1.72,7.18,7.07,7.88,9.75"/>
		<path id="kvg:s-s5" stroke="#1E88E5" d="M10.67,69.04c1.53,0.67,2.51,0.72,3.85-0.09c5.45-3.28,7.47-4.7,12.47-7.7"/>
	</g>
	<g id="kvg:075e2-g2">
		<g id="kvg:075e2-g3">
			<g id="kvg:075e2-g4">
				<path id="kvg:s-s6" stroke="#8E24AA" d="M60.63,33.24c0,0.89-0.61,1.83-1.24,2.4c-3.27,2.99-11.02,7.24-19.81,10.79"/>
			</g>
			<g id="kvg:075e2-g5">
				<path id="kvg:s-s7" stroke="#EC407A" d="M36.87,56.24c1.88,0.64,4.09,0.21,5.5-0.09c5.55-1.18,13.14-2.55,19.52-3.48c1.63-0.24,4.14-0.68,5.77-0.13"/>
				<path id="kvg:s-s8" stroke="#00ACC1" d="M52.67,43.5c0.98,0.98,1.38,2.13,1.38,3.88c0,3.34,0.07,31.06,0.01,44.02c-0.02,3.11-0.04,5.37-0.06,6.23"/>
				<path id="kvg:s-s9" stroke="#795548" d="M53.24,55.93c-0.5,1.29-1.06,2.62-1.66,3.98c-3.59,8.1-8.87,17.12-15.69,23.4"/>
				<path id="kvg:s-s10" stroke="#546E7A" d="M57.13,62.58c4.08,2.4,7.54,7.21,9.74,10.3"/>
			</g>
		</g>
		<g id="kvg:075e2-g6">
			<path id="kvg:s-s11" stroke="#E53935" d="M75.77,40.55c0.7,0.66,1.24,1.83,1.24,3.63c0,7.44,0.04,16.94,0.04,24.82c0,2.86-0.05,5.44-0.05,6.5"/>
			<path id="kvg:s-s12" stroke="#FB8C00" d="M89.61,33.07c0.72,0.68,1.28,2.18,1.28,3.99c0,10.94,0.06,50.69,0.06,55.66c0,8.77-4.88,1.12-5.98,0.19"/>
		</g>
	</g>
</g>
</g>
<g id="kvg:StrokeNumbers_075e2" style="font-size:18;font-weight:bold;stroke:#fff;stroke-width:1.5;paint-order:stroke">
	<text transform="matrix(1 0 0 1 48.50 11.25)" fill="#E53935">1</text>
	<text transform="matrix(1 0 0 1 29.00 23.25)" fill="#FB8C00">2</text>
	<text transform="matrix(1 0 0 1 23.25 35.25)" fill="#FDD835">3</text>
	<text transform="matrix(1 0 0 1 6.50 41.25)" fill="#43A047">4</text>
	<text transform="matrix(1 0 0 1 3.50 73.25)" fill="#1E88E5">5</text>
	<text transform="matrix(1 0 0 1 52.25 34.38)" fill="#8E24AA">6</text>
	<text transform="matrix(1 0 0 1 36.50 54.25)" fill="#EC407A">7</text>
	<text transform="matrix(1 0 0 1 47.25 51.25)" fill="#00ACC1">8</text>
	<text transform="matrix(1 0 0 1 42.25 65.25)" fill="#795548">9</text>
	<text transform="matrix(1 0 0 1 59.00 62.25)" fill="#546E7A">10</text>
	<text transform="matrix(1 0 0 1 68.25 37.38)" fill="#E53935">11</text>
	<text transform="matrix(1 0 0 1 77.25 33.25)" fill="#FB8C00">12</text>
</g>
</svg>
