<?xml version="1.0" encoding="UTF-8"?>
<svg xmlns="http://www.w3.org/2000/svg" width="109" height="109" viewBox="0 0 109 109">
<g id="kvg:StrokePaths_076df" style="fill:none;stroke:#000000;stroke-width:3;stroke-linecap:round;stroke-linejoin:round;">
<g id="kvg:076df">
	<g id="kvg:076df-g1">
		<g id="kvg:076df-g2">
			<path id="kvg:s-s1" stroke="#E53935" d="M23.04,19.27c0.84,0.84,1.27,1.73,1.27,3.22c0,3.75,0.04,21.88,0.04,25.75c0,3.2-0.04,5.42-0.04,5.55"/>
			<path id="kvg:s-s2" stroke="#FB8C00" d="M25.19,21.42c4.18-0.54,17.43-2.5,19.41-2.65c1.65-0.13,2.58,0.98,2.58,2.72c0,2.76,0.13,16.23,0.04,24.76c-0.03,3.25-0.05,5.55-0.05,5.77"/>
			<path id="kvg:s-s3" stroke="#FDD835" d="M25.58,35.83c4.05-0.33,17.14-2.13,20.45-2.13"/>
			<path id="kvg:s-s4" stroke="#43A047" d="M25.44,50.92c7.93-0.79,13.79-1.64,20.58-1.87"/>
		</g>
		<g id="kvg:076df-g3">
			<path id="kvg:s-s5" stroke="#1E88E5" d="M59.91,13.72c0.81,0.81,1.2,1.91,1.25,3.28C62,40.88,59.25,52.75,49.32,62.75"/>
			<path id="kvg:s-s6" stroke="#8E24AA" d="M61.91,15.56c1.99-0.15,21.24-2.5,22.73-2.58c2.12-0.11,3.32,0.77,3.32,2.82c0,3.45,0,27.85,0,39.88c0,9.06-6.46,1.93-7.44,1.34"/>
			<path id="kvg:s-s7" stroke="#EC407A" d="M62.66,29.03c6.84-0.78,18.41-1.74,24.39-2.18"/>
			<path id="kvg:s-s8" stroke="#00ACC1" d="M61.19,41.22c5.32-0.45,19.63-1.34,25.77-1.64"/>
		</g>
	</g>
	<g id="kvg:076df-g4">
		<path id="kvg:s-s9" stroke="#795548" d="M27.34,70.6c0.97,0.97,1.34,1.76,1.44,2.77s1.47,13,2.07,19.63"/>
		<path id="kvg:s-s10" stroke="#546E7A" d="M29.57,72.13c10.67-0.75,37.1-3.03,46.93-3.88c4.23-0.37,6,1.12,4.89,6.04c-0.96,4.24-2.18,10-3.66,16.65"/>
		<path id="kvg:s-s11" stroke="#E53935" d="M44.36,72.12c0.63,0.63,1.13,1.37,1.19,2.45c0.2,3.56,0.57,10.69,1.1,17.34"/>
		<path id="kvg:s-s12" stroke="#FB8C00" d="M62.9,70.87c0.49,0.49,0.8,1.7,0.73,2.36c-0.38,3.15-1,11.15-1.89,18.42"/>
		<path id="kvg:s-s13" stroke="#FDD835" d="M13.88,94.23c3,0.52,6.65,0.81,9.75,0.55C40,93.38,62.5,92,86.88,91.09c3.58-0.13,7.23-0.03,10.75,0.73"/>
	</g>
</g>
</g>
<g id="kvg:StrokeNumbers_076df" style="font-size:18;fill:#E53935;font-weight:bold;stroke:#fff;stroke-width:1.5;paint-order:stroke">
	<text transform="matrix(1 0 0 1 17.25 28.63)" fill="#E53935">1</text>
	<text transform="matrix(1 0 0 1 26.50 17.50)" fill="#FB8C00">2</text>
	<text transform="matrix(1 0 0 1 29.25 32.50)" fill="#FDD835">3</text>
	<text transform="matrix(1 0 0 1 29.25 47.98)" fill="#43A047">4</text>
	<text transform="matrix(1 0 0 1 53.50 22.63)" fill="#1E88E5">5</text>
	<text transform="matrix(1 0 0 1 63.75 12.50)" fill="#8E24AA">6</text>
	<text transform="matrix(1 0 0 1 66.75 25.55)" fill="#EC407A">7</text>
	<text transform="matrix(1 0 0 1 66.71 37.50)" fill="#00ACC1">8</text>
	<text transform="matrix(1 0 0 1 20.50 77.50)" fill="#795548">9</text>
	<text transform="matrix(1 0 0 1 30.75 68.50)" fill="#546E7A">10</text>
	<text transform="matrix(1 0 0 1 36.50 81.05)" fill="#E53935">11</text>
	<text transform="matrix(1 0 0 1 52.50 79.50)" fill="#FB8C00">12</text>
	<text transform="matrix(1 0 0 1 3.50 95.50)" fill="#FDD835">13</text>
</g>
</svg>
