<?xml version="1.0" encoding="UTF-8"?>
<svg xmlns="http://www.w3.org/2000/svg" width="109" height="109" viewBox="0 0 109 109">
<g id="kvg:StrokePaths_07740" style="fill:none;stroke:#000000;stroke-width:3;stroke-linecap:round;stroke-linejoin:round;">
<g id="kvg:07740">
	<g id="kvg:07740-g1">
		<g id="kvg:07740-g2">
			<path id="kvg:s-s1" stroke="#E53935" d="M35.88,12.25c2.96,1.71,7.66,7.03,8.4,9.7"/>
			<path id="kvg:s-s2" stroke="#FB8C00" d="M71.06,10.27c0.19,0.86,0.04,1.98-0.26,2.65c-1.3,2.95-3.18,5.58-6.68,9.95"/>
			<path id="kvg:s-s3" stroke="#FDD835" d="M30.6,28.43c1.46,0.34,4.12,0.43,5.58,0.34c10.07-0.64,25.82-2.64,37.96-3.43c2.42-0.16,4.13-0.09,5.34,0.08"/>
			<g id="kvg:07740-g3">
				<path id="kvg:s-s4" stroke="#43A047" d="M52.98,29.18c0.73,0.73,1.5,1.98,1.5,2.9c0,3.93,0.03,10.8,0.03,16.93"/>
				<path id="kvg:s-s5" stroke="#1E88E5" d="M31.86,39.49c1.52,0.39,3.61,0.68,4.89,0.57c9.38-0.81,23.88-2.56,34.95-3.71c2.11-0.22,3.9-0.1,4.97,0.06"/>
				<path id="kvg:s-s6" stroke="#8E24AA" d="M17.8,52.62c2.1,0.48,5.96,0.43,8.06,0.23c13.27-1.23,42.52-4.23,62.12-5.41c3.5-0.21,5.61-0.02,7.36,0.22"/>
			</g>
		</g>
		<g id="kvg:07740-g4">
			<path id="kvg:s-s7" stroke="#EC407A" d="M40.77,53.77c0.07,0.63-0.17,1.7-0.64,2.52C37,61.75,28.5,72.25,15.57,80.65"/>
		</g>
	</g>
	<g id="kvg:07740-g5">
		<path id="kvg:s-s8" stroke="#00ACC1" d="M41.79,60.32c0.88,0.88,1.28,2.28,1.28,3.45c0,1.17-0.1,32.39-0.1,32.98c0,0.81,0.1,2.88,0.1,3.75"/>
		<path id="kvg:s-s9" stroke="#795548" d="M43.93,61.93c2.94-0.15,24.57-2.77,27.24-2.94c2.23-0.15,3.8,0.76,3.8,3.15c0,3.49,0.13,20.14,0.14,33c0,1.32,0,3.41-0.17,4.28"/>
		<path id="kvg:s-s10" stroke="#546E7A" d="M44.13,73.74c5.79-0.2,24.89-2.11,29.6-2.11"/>
		<path id="kvg:s-s11" stroke="#E53935" d="M44.37,85.28c7.78-0.49,21.88-1.91,29.26-2.25"/>
		<path id="kvg:s-s12" stroke="#FB8C00" d="M44.29,97.47c6.96-0.34,21.89-1.56,29.45-1.56"/>
	</g>
</g>
</g>
<g id="kvg:StrokeNumbers_07740" style="font-size:18;fill:#E53935;font-weight:bold;stroke:#fff;stroke-width:1.5;paint-order:stroke">
	<text transform="matrix(1 0 0 1 29.50 12.50)" fill="#E53935">1</text>
	<text transform="matrix(1 0 0 1 62.50 10.50)" fill="#FB8C00">2</text>
	<text transform="matrix(1 0 0 1 22.50 30.13)" fill="#FDD835">3</text>
	<text transform="matrix(1 0 0 1 47.50 35.50)" fill="#43A047">4</text>
	<text transform="matrix(1 0 0 1 24.50 40.50)" fill="#1E88E5">5</text>
	<text transform="matrix(1 0 0 1 9.75 54.50)" fill="#8E24AA">6</text>
	<text transform="matrix(1 0 0 1 30.50 62.50)" fill="#EC407A">7</text>
	<text transform="matrix(1 0 0 1 35.25 74.50)" fill="#00ACC1">8</text>
	<text transform="matrix(1 0 0 1 47.25 59.50)" fill="#795548">9</text>
	<text transform="matrix(1 0 0 1 46.88 70.38)" fill="#546E7A">10</text>
	<text transform="matrix(1 0 0 1 46.88 82.69)" fill="#E53935">11</text>
	<text transform="matrix(1 0 0 1 46.50 94.50)" fill="#FB8C00">12</text>
</g>
</svg>
