<?xml version="1.0" encoding="UTF-8"?>
<svg xmlns="http://www.w3.org/2000/svg" width="109" height="109" viewBox="0 0 109 109">
<g id="kvg:StrokePaths_07763" style="fill:none;stroke:#000000;stroke-width:3;stroke-linecap:round;stroke-linejoin:round;">
<g id="kvg:07763">
	<g id="kvg:07763-g1">
		<g id="kvg:07763-g2">
			<g id="kvg:07763-g3">
				<g id="kvg:07763-g4">
					<path id="kvg:s-s1" stroke="#E53935" d="M36.08,12.63c1.08,1.08,1.14,1.99,1.14,3.59c0,3.78-0.09,11.41-0.09,14.66"/>
					<path id="kvg:s-s2" stroke="#FB8C00" d="M37.22,20.13c1.48,0,3.19-0.1,7.51-0.7c1.55-0.21,2.23-0.04,3.15-0.15"/>
				</g>
				<g id="kvg:07763-g5">
					<path id="kvg:s-s3" stroke="#FDD835" d="M13.5,34.29c1.98,0.66,3.89,0.34,5.89,0.05c6.62-0.94,17.59-2.59,25.86-3.42c1.67-0.17,4.15-0.49,5.81,0.1"/>
				</g>
			</g>
			<g id="kvg:07763-g6">
				<path id="kvg:s-s4" stroke="#43A047" d="M36.49,34.61c0.7,0.7,0.97,2.02,0.97,3.17c0,3.1-0.08,8.38-0.08,11.22c0,6.46-4.14,0.86-5,0.14"/>
				<path id="kvg:s-s5" stroke="#1E88E5" d="M26.6,40.74c0.13,0.83-0.06,1.57-0.57,2.23c-1.85,3.29-5.7,6.8-11.17,10.73"/>
				<path id="kvg:s-s6" stroke="#8E24AA" d="M44.72,37.57c1.8,1.05,4.65,4.31,5.09,5.94"/>
			</g>
		</g>
		<g id="kvg:07763-g7">
			<path id="kvg:s-s7" stroke="#EC407A" d="M58.31,18.84c1.4,0.25,1.57,0.62,4.37,0.25c2.79-0.37,15.2-3.58,18.04-4.42c2.26-0.66,3.67,1.34,2.62,3.22C75.12,32.62,61.38,46,44.89,52"/>
			<path id="kvg:s-s8" stroke="#00ACC1" d="M56.3,27.1c4.88,0,16.7,12.02,26.47,19.91c2.37,1.92,5.18,3.76,8.09,4.75"/>
		</g>
	</g>
	<g id="kvg:07763-g8">
		<path id="kvg:s-s9" stroke="#795548" d="M35.07,57.63c0.9,0.9,1.3,2.12,1.3,3.36c0,0.96-0.05,23.58-0.09,33.92c-0.01,2.99-0.02,4.96-0.02,5.1"/>
		<path id="kvg:s-s10" stroke="#546E7A" d="M37.41,59.08c2.73-0.12,26.1-1.84,34.09-2.26c2.83-0.15,4.19,1.18,4.19,3.68c0,3.59-0.02,22.52-0.05,32.75c-0.01,2.58-0.01,4.62-0.01,5.75"/>
		<path id="kvg:s-s11" stroke="#E53935" d="M37.6,71.53c8.78-0.66,31.07-1.97,36.78-1.97"/>
		<path id="kvg:s-s12" stroke="#FB8C00" d="M37.39,83.75c9.43-0.52,26.61-1.5,37.07-1.85"/>
		<path id="kvg:s-s13" stroke="#FDD835" d="M37.69,96.93c8.1-0.27,27.84-1.39,37-1.39"/>
	</g>
</g>
</g>
<g id="kvg:StrokeNumbers_07763" style="font-size:18;font-weight:bold;stroke:#fff;stroke-width:1.5;paint-order:stroke">
	<text transform="matrix(1 0 0 1 29.25 13.63)" fill="#E53935">1</text>
	<text transform="matrix(1 0 0 1 40.50 16.63)" fill="#FB8C00">2</text>
	<text transform="matrix(1 0 0 1 11.50 31.63)" fill="#FDD835">3</text>
	<text transform="matrix(1 0 0 1 31.50 40.50)" fill="#43A047">4</text>
	<text transform="matrix(1 0 0 1 18.50 43.50)" fill="#1E88E5">5</text>
	<text transform="matrix(1 0 0 1 47.50 38.50)" fill="#8E24AA">6</text>
	<text transform="matrix(1 0 0 1 56.50 16.50)" fill="#EC407A">7</text>
	<text transform="matrix(1 0 0 1 63.50 27.50)" fill="#00ACC1">8</text>
	<text transform="matrix(1 0 0 1 27.50 63.50)" fill="#795548">9</text>
	<text transform="matrix(1 0 0 1 51.50 55.63)" fill="#546E7A">10</text>
	<text transform="matrix(1 0 0 1 39.69 69.13)" fill="#E53935">11</text>
	<text transform="matrix(1 0 0 1 39.50 80.60)" fill="#FB8C00">12</text>
	<text transform="matrix(1 0 0 1 39.55 94.63)" fill="#FDD835">13</text>
</g>
</svg>
