<?xml version="1.0" encoding="UTF-8"?>
<svg xmlns="http://www.w3.org/2000/svg" width="109" height="109" viewBox="0 0 109 109">
<g id="kvg:StrokePaths_07761" style="fill:none;stroke:#000000;stroke-width:3;stroke-linecap:round;stroke-linejoin:round;">
<g id="kvg:07761">
	<g id="kvg:07761-g1">
		<path id="kvg:s-s1" stroke="#E53935" d="M13.18,27.55c0.83,0.83,1.13,2.13,1.13,3.76c0,1.3-0.08,33.81-0.05,47.44c0.01,3.42,0.02,5.68,0.05,6.01"/>
		<path id="kvg:s-s2" stroke="#FB8C00" d="M14.41,28.3c1.74-0.17,12.98-2.36,17.48-3.07c3.19-0.5,4.22,0.8,4.15,3.89c-0.1,4.84,0.01,32.34,0.06,46.5c0.02,5.01,0.03,8.35,0.02,8.42"/>
		<path id="kvg:s-s3" stroke="#FDD835" d="M15.62,43.96c3.76-0.22,16.17-2.07,19.23-2.07"/>
		<path id="kvg:s-s4" stroke="#43A047" d="M15.54,61.12c5.38-0.68,12.46-1.62,19.21-1.94"/>
		<path id="kvg:s-s5" stroke="#1E88E5" d="M15.68,79.07c5.57-0.57,12.7-1.57,19.62-1.82"/>
	</g>
	<g id="kvg:07761-g2">
		<g id="kvg:07761-g3">
			<g id="kvg:07761-g4">
				<path id="kvg:s-s6" stroke="#8E24AA" d="M77.74,13.5c0,1-0.44,1.71-1.23,2.3c-4.9,3.7-11.56,6.2-23.67,9.25"/>
			</g>
			<g id="kvg:07761-g5">
				<path id="kvg:s-s7" stroke="#EC407A" d="M46.81,36.9c2.82,0.47,5.42,0.13,7.32-0.13c10-1.4,19.88-2.77,31.13-3.54c2.16-0.15,4.43-0.41,6.54,0.26"/>
			</g>
		</g>
		<path id="kvg:s-s8" stroke="#00ACC1" d="M43,55.77c3.2,0.62,6.43,0.29,9.62-0.14c11.12-1.51,25.88-2.76,37.38-3.5c2.8-0.18,5.87-0.26,8.33,0.39"/>
		<path id="kvg:s-s9" stroke="#795548" d="M52.17,44.25c0.98,0.98,1.55,2.17,1.61,3.09c0.35,5.03,0.72,13.41,1.16,20.16"/>
		<path id="kvg:s-s10" stroke="#546E7A" d="M86.51,40.75c0.49,1.12,0.46,2.26,0.24,3.68c-1.3,8.33-1.64,12.74-3.06,20.57"/>
		<g id="kvg:07761-g6">
			<path id="kvg:s-s11" stroke="#E53935" d="M48.12,73.9c2.5,0.35,4.82,0.45,6.77,0.18c8.86-1.21,23.08-2.73,30.47-3.17c1.96-0.12,3.51-0.16,5.9,0.33"/>
			<g id="kvg:07761-g7">
				<g id="kvg:07761-g8">
					<path id="kvg:s-s12" stroke="#FB8C00" d="M67.25,24.5c1,1,1.47,2.38,1.47,4c0,1.02-0.06,50.75-0.06,60.75"/>
				</g>
			</g>
			<path id="kvg:s-s13" stroke="#FDD835" d="M42.27,91.4c2.98,0.6,6.13,0.48,8.35,0.24C62.5,90.38,80.62,89,91.25,89c2.07,0,4.53,0.11,6.5,0.75"/>
		</g>
	</g>
</g>
</g>
<g id="kvg:StrokeNumbers_07761" style="font-size:18;font-weight:bold;stroke:#fff;stroke-width:1.5;paint-order:stroke">
	<text transform="matrix(1 0 0 1 7.50 36.13)" fill="#E53935">1</text>
	<text transform="matrix(1 0 0 1 15.75 24.13)" fill="#FB8C00">2</text>
	<text transform="matrix(1 0 0 1 18.75 40.55)" fill="#FDD835">3</text>
	<text transform="matrix(1 0 0 1 18.75 57.50)" fill="#43A047">4</text>
	<text transform="matrix(1 0 0 1 18.75 75.50)" fill="#1E88E5">5</text>
	<text transform="matrix(1 0 0 1 68.25 12.13)" fill="#8E24AA">6</text>
	<text transform="matrix(1 0 0 1 41.25 35.50)" fill="#EC407A">7</text>
	<text transform="matrix(1 0 0 1 39.75 52.55)" fill="#00ACC1">8</text>
	<text transform="matrix(1 0 0 1 44.25 45.50)" fill="#795548">9</text>
	<text transform="matrix(1 0 0 1 74.25 43.63)" fill="#546E7A">10</text>
	<text transform="matrix(1 0 0 1 41.50 70.50)" fill="#E53935">11</text>
	<text transform="matrix(1 0 0 1 58.50 31.50)" fill="#FB8C00">12</text>
	<text transform="matrix(1 0 0 1 39.50 88.63)" fill="#FDD835">13</text>
</g>
</svg>
