<?xml version="1.0" encoding="UTF-8"?>
<svg xmlns="http://www.w3.org/2000/svg" width="109" height="109" viewBox="0 0 109 109">
<g id="kvg:StrokePaths_077e5" style="fill:none;stroke:#000000;stroke-width:3;stroke-linecap:round;stroke-linejoin:round;">
<g id="kvg:077e5">
	<g id="kvg:077e5-g1">
		<path id="kvg:s-s1" stroke="#E53935" d="M30.39,16.21c0.61,1.29,0.5,2.73,0.07,4.09C28.5,26.5,25,35.25,18.01,44.16"/>
		<g id="kvg:077e5-g2">
			<path id="kvg:s-s2" stroke="#FB8C00" d="M28.91,33.73c1.79,0,2.19,0.14,3.08,0c4.13-0.63,8.18-1.52,14.78-2.89c1.91-0.39,3.86-0.47,5.48-0.1"/>
			<g id="kvg:077e5-g3">
				<path id="kvg:s-s3" stroke="#FDD835" d="M12.22,57.18c2.49,0.51,4.9,0.46,7.41,0.15c7.62-0.95,19.62-2.58,29.51-3.78c1.72-0.21,3.85-0.05,5.35,0.26"/>
				<path id="kvg:s-s4" stroke="#43A047" d="M37.98,36c0.4,1.32,0.59,2.61,0.58,4.24c-0.18,25.01-8.68,42.88-24.75,51.93"/>
				<path id="kvg:s-s5" stroke="#1E88E5" d="M39.25,65.75c6,4.25,11.62,10.88,14.25,16.75"/>
			</g>
		</g>
	</g>
	<g id="kvg:077e5-g4">
		<path id="kvg:s-s6" stroke="#8E24AA" d="M59,44.94c0.97,0.97,1.74,1.85,2.09,3.35c1.19,4.97,2.18,15.35,3.25,24.19c0.16,1.32,0.31,2.58,0.45,3.77"/>
		<path id="kvg:s-s7" stroke="#EC407A" d="M61.73,46.38c8.56-1.22,21.16-2.76,27.52-3.48c2.02-0.23,4.12,0.97,3.69,3.33c-0.86,4.66-3.05,17.02-4.36,23.59"/>
		<path id="kvg:s-s8" stroke="#00ACC1" d="M65,73.56c6.55-0.93,14.12-1.62,22.04-2.45c1.14-0.12,2.29-0.24,3.46-0.37"/>
	</g>
</g>
</g>
<g id="kvg:StrokeNumbers_077e5" style="font-size:18;fill:#E53935;font-weight:bold;stroke:#fff;stroke-width:1.5;paint-order:stroke">
	<text transform="matrix(1 0 0 1 22.50 14.50)" fill="#E53935">1</text>
	<text transform="matrix(1 0 0 1 33.50 29.50)" fill="#FB8C00">2</text>
	<text transform="matrix(1 0 0 1 4.50 59.50)" fill="#FDD835">3</text>
	<text transform="matrix(1 0 0 1 30.50 42.50)" fill="#43A047">4</text>
	<text transform="matrix(1 0 0 1 44.25 66.13)" fill="#1E88E5">5</text>
	<text transform="matrix(1 0 0 1 51.50 48.50)" fill="#8E24AA">6</text>
	<text transform="matrix(1 0 0 1 63.50 42.50)" fill="#EC407A">7</text>
	<text transform="matrix(1 0 0 1 68.50 69.13)" fill="#00ACC1">8</text>
</g>
</svg>
