<?xml version="1.0" encoding="UTF-8"?>
<svg xmlns="http://www.w3.org/2000/svg" width="109" height="109" viewBox="0 0 109 109">
<g id="kvg:StrokePaths_077f3" style="fill:none;stroke:#000000;stroke-width:3;stroke-linecap:round;stroke-linejoin:round;">
<g id="kvg:077f3">
	<path id="kvg:s-s1" stroke="#E53935" d="M19.88,26.65c3.2,0.73,6.6,0.59,8.91,0.4c18.28-1.55,33.06-3.55,52.96-4.66c3.87-0.22,6.42-0.02,8.12,0.39"/>
	<path id="kvg:s-s2" stroke="#FB8C00" d="M42.42,29.43c0.33,1.45,0.22,2.69-0.15,4.17C39.38,45,30.75,61.62,15,73.5"/>
	<g id="kvg:077f3-g1">
		<path id="kvg:s-s3" stroke="#FDD835" d="M34.5,56.24c0.71,0.64,1.62,2.13,1.75,2.97c0.87,5.49,1.95,14.48,3.14,24.27c0.2,1.68,0.41,3.36,0.6,5.02"/>
		<path id="kvg:s-s4" stroke="#43A047" d="M35,56.3c12.06-1.23,38.12-3.55,45.33-4.31c3.05-0.32,4.48,2.33,3.94,4.1c-1.56,5.08-3.24,16.32-4.5,24.38"/>
		<path id="kvg:s-s5" stroke="#1E88E5" d="M40.83,84.37c7.19-0.52,22.62-1.77,34.17-2.38c2.39-0.13,4.6-0.21,6.5-0.24"/>
	</g>
</g>
</g>
<g id="kvg:StrokeNumbers_077f3" style="font-size:18;fill:#E53935;font-weight:bold;stroke:#fff;stroke-width:1.5;paint-order:stroke">
	<text transform="matrix(1 0 0 1 12.50 27.50)" fill="#E53935">1</text>
	<text transform="matrix(1 0 0 1 33.50 37.50)" fill="#FB8C00">2</text>
	<text transform="matrix(1 0 0 1 29.50 71.50)" fill="#FDD835">3</text>
	<text transform="matrix(1 0 0 1 42.50 52.50)" fill="#43A047">4</text>
	<text transform="matrix(1 0 0 1 43.50 80.50)" fill="#1E88E5">5</text>
</g>
</svg>
