<?xml version="1.0" encoding="UTF-8"?>
<svg xmlns="http://www.w3.org/2000/svg" width="109" height="109" viewBox="0 0 109 109">
<g id="kvg:StrokePaths_0785d" style="fill:none;stroke:#000000;stroke-width:3;stroke-linecap:round;stroke-linejoin:round;">
<g id="kvg:0785d">
	<g id="kvg:0785d-g1">
		<path id="kvg:s-s1" stroke="#E53935" d="M13.63,29.18c1.88,0.34,3.87,0.09,5.75-0.06c6.66-0.53,12.01-1.59,20.49-2.28c2.12-0.17,4.39-0.15,6.51,0.09"/>
		<path id="kvg:s-s2" stroke="#FB8C00" d="M28.2,30.93c0.3,1.07,0.36,2.07,0.15,3.35c-1.26,7.6-8.47,24.77-18.34,34.97"/>
		<g id="kvg:0785d-g2">
			<path id="kvg:s-s3" stroke="#FDD835" d="M21.56,55.29c0.82,0.82,1.12,1.89,1.18,2.94c0.63,6.14,1.23,12.46,1.79,19.51c0.14,1.74,0.27,3.4,0.38,4.92"/>
			<path id="kvg:s-s4" stroke="#43A047" d="M23.56,56.01c6.09-0.9,11.18-1.6,14.68-1.99c3.41-0.38,4.53,0.51,3.93,4.12c-0.85,5.18-2.5,11.87-3.5,18.58"/>
			<path id="kvg:s-s5" stroke="#1E88E5" d="M26.07,79.21c3.91-0.33,7-0.92,11.42-1.29c1.21-0.1,2.49-0.21,3.89-0.31"/>
		</g>
	</g>
	<g id="kvg:0785d-g3">
		<g id="kvg:0785d-g4">
			<path id="kvg:s-s6" stroke="#8E24AA" d="M69.98,12.75c0.82,0.82,1.4,2.37,1.4,4.59c0,8.16,0.11,18.76,0.11,22.66"/>
			<path id="kvg:s-s7" stroke="#EC407A" d="M50.69,21.2c3.12,2.74,7.06,9.35,7.84,13.61"/>
			<path id="kvg:s-s8" stroke="#00ACC1" d="M90.96,18.6c0.07,0.9,0.02,1.55-0.35,2.39c-1.7,3.85-4.61,7.78-8.93,12.28"/>
		</g>
		<g id="kvg:0785d-g5">
			<path id="kvg:s-s9" stroke="#795548" d="M54.78,40.69c1.01,1.01,1.51,2.43,1.51,4.03c0,0.73,0,29.68-0.01,43.77c0,4.2-0.01,7.1-0.03,7.58"/>
			<path id="kvg:s-s10" stroke="#546E7A" d="M57.05,42.62c5.28-0.77,21.48-2.73,26.32-3.29c3.09-0.36,5.46,0.78,5.46,4.25c0,9.99-0.09,27.52-0.09,46.29c0,11.25-5.46,2.71-7.35,1.08"/>
			<path id="kvg:s-s11" stroke="#E53935" d="M57.55,56.69c9.7-1.19,22.42-2.33,29.98-3.03"/>
			<path id="kvg:s-s12" stroke="#FB8C00" d="M57.42,71.86c6.72-0.7,22.26-2.57,30.03-3.03"/>
		</g>
	</g>
</g>
</g>
<g id="kvg:StrokeNumbers_0785d" style="font-size:18;font-weight:bold;stroke:#fff;stroke-width:1.5;paint-order:stroke">
	<text transform="matrix(1 0 0 1 8.25 30.50)" fill="#E53935">1</text>
	<text transform="matrix(1 0 0 1 20.25 38.50)" fill="#FB8C00">2</text>
	<text transform="matrix(1 0 0 1 17.25 73.55)" fill="#FDD835">3</text>
	<text transform="matrix(1 0 0 1 27.50 52.63)" fill="#43A047">4</text>
	<text transform="matrix(1 0 0 1 29.25 75.05)" fill="#1E88E5">5</text>
	<text transform="matrix(1 0 0 1 60.50 13.50)" fill="#8E24AA">6</text>
	<text transform="matrix(1 0 0 1 45.50 21.13)" fill="#EC407A">7</text>
	<text transform="matrix(1 0 0 1 82.50 18.13)" fill="#00ACC1">8</text>
	<text transform="matrix(1 0 0 1 48.75 49.63)" fill="#795548">9</text>
	<text transform="matrix(1 0 0 1 59.25 39.13)" fill="#546E7A">10</text>
	<text transform="matrix(1 0 0 1 59.50 53.50)" fill="#E53935">11</text>
	<text transform="matrix(1 0 0 1 59.50 68.98)" fill="#FB8C00">12</text>
</g>
</svg>
