<?xml version="1.0" encoding="UTF-8"?>
<svg xmlns="http://www.w3.org/2000/svg" width="109" height="109" viewBox="0 0 109 109">
<g id="kvg:StrokePaths_0786c" style="fill:none;stroke:#000000;stroke-width:3;stroke-linecap:round;stroke-linejoin:round;">
<g id="kvg:0786c">
	<g id="kvg:0786c-g1">
		<path id="kvg:s-s1" stroke="#E53935" d="M15.13,25.51c1.32,0.38,3.28,0.35,4.64,0.23c5.9-0.54,11.05-1.68,18.86-2.57c1.54-0.17,3.12-0.33,4.49-0.33"/>
		<path id="kvg:s-s2" stroke="#FB8C00" d="M25.96,28.18c0.29,0.95,0.34,2.1,0.17,3.4c-1.02,7.7-7.62,25.33-15.62,35.68"/>
		<g id="kvg:0786c-g2">
			<path id="kvg:s-s3" stroke="#FDD835" d="M21.25,53.14c0.74,0.74,1.03,1.6,1.11,2.59c0.7,3.18,1.2,8.55,1.8,13.5c0.24,1.96,0.46,3.85,0.64,5.52"/>
			<path id="kvg:s-s4" stroke="#43A047" d="M23.15,54.25c6.11-1.17,12.19-2.29,16.23-2.93c3.2-0.5,4.69-0.05,3.8,3.57c-0.92,3.76-1.69,6.61-3.29,12.64"/>
			<path id="kvg:s-s5" stroke="#1E88E5" d="M25.45,70.9c5.18-0.9,8.69-1.54,14.1-2.37c1.04-0.16,2.12-0.32,3.26-0.46"/>
		</g>
	</g>
	<g id="kvg:0786c-g3">
		<path id="kvg:s-s6" stroke="#8E24AA" d="M52.88,20.32c2.62,0.68,5.48,0.5,7.52,0.23c7.02-0.93,16.94-2.16,24.58-2.91c1.31-0.13,3.52-0.39,4.94-0.16"/>
		<g id="kvg:0786c-g4">
			<path id="kvg:s-s7" stroke="#EC407A" d="M50.67,35.04c0.89,0.89,1.38,1.81,1.54,3.09c0.32,2.58,1.66,12.02,2.61,18.23c0.31,2.05,0.58,3.75,0.76,4.74"/>
			<path id="kvg:s-s8" stroke="#00ACC1" d="M53.1,36.98c7.15-1.48,22.65-3.98,32.19-4.94c3.53-0.35,5.93,0.4,5.13,4.77c-0.69,3.76-1.78,9.53-3.41,15.7c-0.47,1.78-0.96,3.55-1.47,5.25"/>
			<path id="kvg:s-s9" stroke="#795548" d="M54.67,47.12c6.49-1.05,24.71-3.37,33.27-3.94"/>
			<path id="kvg:s-s10" stroke="#546E7A" d="M56.38,58.04c9.99-1.29,16.49-2.04,28.63-2.84"/>
		</g>
		<g id="kvg:0786c-g5">
			<g id="kvg:0786c-g6">
				<path id="kvg:s-s11" stroke="#E53935" d="M68.94,22.18c0.88,0.88,1.13,2.51,1.14,4.5c0.18,35.83-1.45,55.08-30.46,67.12"/>
			</g>
			<path id="kvg:s-s12" stroke="#FB8C00" d="M50.91,66.42c5.34,0,23.03,15.38,32.46,22.41c3.35,2.5,5.63,3.67,9.52,5.46"/>
		</g>
	</g>
</g>
</g>
<g id="kvg:StrokeNumbers_0786c" style="font-size:18;font-weight:bold;stroke:#fff;stroke-width:1.5;paint-order:stroke">
	<text transform="matrix(1 0 0 1 8.50 26.50)" fill="#E53935">1</text>
	<text transform="matrix(1 0 0 1 17.50 36.50)" fill="#FB8C00">2</text>
	<text transform="matrix(1 0 0 1 17.25 69.05)" fill="#FDD835">3</text>
	<text transform="matrix(1 0 0 1 26.50 50.50)" fill="#43A047">4</text>
	<text transform="matrix(1 0 0 1 29.25 67.55)" fill="#1E88E5">5</text>
	<text transform="matrix(1 0 0 1 51.50 17.50)" fill="#8E24AA">6</text>
	<text transform="matrix(1 0 0 1 44.50 43.55)" fill="#EC407A">7</text>
	<text transform="matrix(1 0 0 1 55.50 33.13)" fill="#00ACC1">8</text>
	<text transform="matrix(1 0 0 1 58.50 44.50)" fill="#795548">9</text>
	<text transform="matrix(1 0 0 1 57.75 55.48)" fill="#546E7A">10</text>
	<text transform="matrix(1 0 0 1 60.50 29.50)" fill="#E53935">11</text>
	<text transform="matrix(1 0 0 1 47.50 75.13)" fill="#FB8C00">12</text>
</g>
</svg>
