<?xml version="1.0" encoding="UTF-8"?>
<svg xmlns="http://www.w3.org/2000/svg" width="109" height="109" viewBox="0 0 109 109">
<g id="kvg:StrokePaths_078ba" style="fill:none;stroke:#000000;stroke-width:3;stroke-linecap:round;stroke-linejoin:round;">
<g id="kvg:078ba">
	<g id="kvg:078ba-g1">
		<path id="kvg:s-s1" stroke="#E53935" d="M15.13,31.01c1.23,0.26,2.89,0.36,4.12,0.3C25,31,32.38,29.75,39.03,28.72c1.39-0.21,2.98-0.22,4.35-0.05"/>
		<path id="kvg:s-s2" stroke="#FB8C00" d="M26.06,33.43c0.19,0.95,0.11,1.64-0.07,2.98c-1.06,7.9-7.16,25.23-15.49,35.84"/>
		<g id="kvg:078ba-g2">
			<path id="kvg:s-s3" stroke="#FDD835" d="M21.5,56.04c0.79,0.79,1.41,1.87,1.51,2.96c0.49,5.44,1.37,11.88,2.01,17.63c0.17,1.51,0.32,2.98,0.44,4.37"/>
			<path id="kvg:s-s4" stroke="#43A047" d="M23.98,57.62c5.4-1.29,10.53-2.17,14.04-2.74c2.79-0.46,4.54,0.71,3.9,4.03c-1.05,5.47-1.67,8.72-3.17,15.44"/>
			<path id="kvg:s-s5" stroke="#1E88E5" d="M26.38,77.5c3.65-0.46,6.91-1.03,11.13-1.61c1.08-0.15,2.22-0.3,3.44-0.44"/>
		</g>
	</g>
	<g id="kvg:078ba-g3">
		<g id="kvg:078ba-g4">
			<g id="kvg:078ba-g5">
				<path id="kvg:s-s6" stroke="#8E24AA" d="M51.88,27.62c0,3.48-2.66,13.05-3.88,15.38"/>
				<path id="kvg:s-s7" stroke="#EC407A" d="M52.99,29.72c9.88-1.22,30.88-3.99,37.53-4.35c10.38-0.55,2.85,6.25-0.39,9.2"/>
			</g>
		</g>
		<g id="kvg:078ba-g6">
			<g id="kvg:078ba-g7">
				<path id="kvg:s-s8" stroke="#00ACC1" d="M71.42,11.5c0.46,1.12,0.46,2.5,0.13,3.97C68.39,29.53,60.75,48.5,47.5,63.16"/>
				<path id="kvg:s-s9" stroke="#795548" d="M56.4,54.04c0.72,0.72,1,1.97,1,3.09c0,8.19-0.01,24.35-0.02,34.12c0,3.38,0,6,0,7.25"/>
			</g>
			<path id="kvg:s-s10" stroke="#546E7A" d="M79.41,37c0.06,0.63-0.01,1.45-0.19,1.99c-1.15,3.43-2.6,6.08-5.22,10.26"/>
			<path id="kvg:s-s11" stroke="#E53935" d="M57.58,52.23c6.07-0.47,21.81-1.83,29.93-2.64c2.31-0.23,4-0.41,4.67-0.52"/>
			<path id="kvg:s-s12" stroke="#FB8C00" d="M73.81,53.26c0.9,0.9,1.61,2.12,1.61,3.67c0,8.82,0.06,25.57,0.06,32.57"/>
			<path id="kvg:s-s13" stroke="#FDD835" d="M58.86,65.44c5.34-0.58,20-1.71,27.27-2.35c1.89-0.17,3.28-0.3,3.88-0.38"/>
			<path id="kvg:s-s14" stroke="#43A047" d="M58.54,77.71c5.68-0.49,20.72-1.7,28.08-2.34c1.85-0.16,3.22-0.28,3.83-0.35"/>
			<path id="kvg:s-s15" stroke="#1E88E5" d="M58.47,91.39c6.78-0.26,23.29-0.96,32.78-1.6c2.66-0.18,4.58-0.33,5.25-0.43"/>
		</g>
	</g>
</g>
</g>
<g id="kvg:StrokeNumbers_078ba" style="font-size:18;fill:#E53935;font-weight:bold;stroke:#fff;stroke-width:1.5;paint-order:stroke">
	<text transform="matrix(1 0 0 1 13.50 28.50)" fill="#E53935">1</text>
	<text transform="matrix(1 0 0 1 17.50 42.13)" fill="#FB8C00">2</text>
	<text transform="matrix(1 0 0 1 17.25 71.50)" fill="#FDD835">3</text>
	<text transform="matrix(1 0 0 1 26.50 54.50)" fill="#43A047">4</text>
	<text transform="matrix(1 0 0 1 29.25 73.63)" fill="#1E88E5">5</text>
	<text transform="matrix(1 0 0 1 45.50 25.50)" fill="#8E24AA">6</text>
	<text transform="matrix(1 0 0 1 55.50 26.50)" fill="#EC407A">7</text>
	<text transform="matrix(1 0 0 1 63.50 11.50)" fill="#00ACC1">8</text>
	<text transform="matrix(1 0 0 1 50.25 67.63)" fill="#795548">9</text>
	<text transform="matrix(1 0 0 1 68.25 36.50)" fill="#546E7A">10</text>
	<text transform="matrix(1 0 0 1 63.75 48.13)" fill="#E53935">11</text>
	<text transform="matrix(1 0 0 1 78.50 58.50)" fill="#FB8C00">12</text>
	<text transform="matrix(1 0 0 1 61.50 61.50)" fill="#FDD835">13</text>
	<text transform="matrix(1 0 0 1 61.50 74.50)" fill="#43A047">14</text>
	<text transform="matrix(1 0 0 1 61.50 88.63)" fill="#1E88E5">15</text>
</g>
</svg>
