<?xml version="1.0" encoding="UTF-8"?>
<svg xmlns="http://www.w3.org/2000/svg" width="109" height="109" viewBox="0 0 109 109">
<g id="kvg:StrokePaths_078c1" style="fill:none;stroke:#000000;stroke-width:3;stroke-linecap:round;stroke-linejoin:round;">
<g id="kvg:078c1">
	<g id="kvg:078c1-g1">
		<path id="kvg:s-s1" stroke="#E53935" d="M12,28.85c1.95,0.57,3.91,0.33,5.88,0.09c4.96-0.6,14.64-1.53,19.62-2.07c1.85-0.2,3.42-0.18,5.25,0.14"/>
		<path id="kvg:s-s2" stroke="#FB8C00" d="M23.28,30.9c0.47,0.98,0.58,2.06,0.42,3.34C22.8,41.8,17.38,57.88,10,69.81"/>
		<g id="kvg:078c1-g2">
			<path id="kvg:s-s3" stroke="#FDD835" d="M19.31,56.51c0.71,0.71,1.19,1.96,1.24,2.68c0.34,4.35,1.2,10.36,1.89,18.8c0.13,1.63,0.25,3.26,0.34,4.85"/>
			<path id="kvg:s-s4" stroke="#43A047" d="M21.48,58.4c5.42-1.08,9-2.02,13.78-2.85c2.5-0.43,3.74,0.95,3.32,3.9c-0.59,4.17-1.33,8.06-2.33,16.81"/>
			<path id="kvg:s-s5" stroke="#1E88E5" d="M23.75,79.5c2.86-0.41,6.56-1.14,10.75-1.79c1.2-0.19,2.39-0.35,3.5-0.46"/>
		</g>
	</g>
	<g id="kvg:078c1-g3">
		<g id="kvg:078c1-g4">
			<g id="kvg:078c1-g5">
				<g id="kvg:078c1-g6">
					<path id="kvg:s-s6" stroke="#8E24AA" d="M54.25,16.88c2.48,2.26,6.4,9.28,7.02,12.79"/>
				</g>
			</g>
			<path id="kvg:s-s7" stroke="#EC407A" d="M83.78,14.99c0.05,1.13-0.04,1.75-0.46,2.83c-1.55,4.06-3.31,8.46-7.23,14.29"/>
			<path id="kvg:s-s8" stroke="#00ACC1" d="M45.25,37.14c1.86,0.76,4.68,0.51,6.62,0.31c8.71-0.9,29.33-3.06,37.78-3.33c1.99-0.06,4.14-0.09,6.09,0.38"/>
		</g>
		<g id="kvg:078c1-g7">
			<g id="kvg:078c1-g8">
				<g id="kvg:078c1-g9">
					<path id="kvg:s-s9" stroke="#795548" d="M54.04,45.87c0.24,1,0.06,2.26-0.37,3.34c-2,5-3.04,8.36-6.28,13.88c-0.76,1.29-0.63,2.16,0.5,2.51c3.94,1.2,6.78,2.93,8.98,4.77"/>
					<path id="kvg:s-s10" stroke="#546E7A" d="M64.04,56.91c0.34,1.26,0.09,3.06-0.32,3.79c-4.46,8.08-10.1,16.2-18.01,27.2c-1.49,2.07-0.68,3.69,1.69,2.78c7.6-2.93,8.35-3.62,15.41-6.08"/>
					<path id="kvg:s-s11" stroke="#E53935" d="M59.15,78.49c2.67,2.86,5.96,9.36,6.63,13.81"/>
				</g>
			</g>
			<g id="kvg:078c1-g10">
				<g id="kvg:078c1-g11">
					<path id="kvg:s-s12" stroke="#FB8C00" d="M83.11,43.3c0.27,1.07,0.08,2.36-0.38,3.53c-2.18,5.5-4.96,11.18-8.58,16.64c-0.77,1.16-1.02,2.41,0.5,2.93c2.88,0.99,6.46,2.28,8.9,4.24"/>
					<path id="kvg:s-s13" stroke="#FDD835" d="M91.71,55.4c0.3,1.19,0.24,2.38-0.53,3.78C86,68.62,81,77.75,74.25,86.1c-1.03,1.28-0.75,3.15,1.31,2.46c6.67-2.23,9.94-3.56,16.12-5.65"/>
					<path id="kvg:s-s14" stroke="#43A047" d="M89.25,76.5c2.47,2.62,6.38,10.79,6.99,14.87"/>
				</g>
			</g>
		</g>
	</g>
</g>
</g>
<g id="kvg:StrokeNumbers_078c1" style="font-size:18;fill:#E53935;font-weight:bold;stroke:#fff;stroke-width:1.5;paint-order:stroke">
	<text transform="matrix(1 0 0 1 5.50 29.50)" fill="#E53935">1</text>
	<text transform="matrix(1 0 0 1 15.75 39.50)" fill="#FB8C00">2</text>
	<text transform="matrix(1 0 0 1 14.50 73.50)" fill="#FDD835">3</text>
	<text transform="matrix(1 0 0 1 24.75 54.50)" fill="#43A047">4</text>
	<text transform="matrix(1 0 0 1 26.50 75.50)" fill="#1E88E5">5</text>
	<text transform="matrix(1 0 0 1 47.25 17.50)" fill="#8E24AA">6</text>
	<text transform="matrix(1 0 0 1 74.25 15.50)" fill="#EC407A">7</text>
	<text transform="matrix(1 0 0 1 46.50 34.63)" fill="#00ACC1">8</text>
	<text transform="matrix(1 0 0 1 46.50 48.50)" fill="#795548">9</text>
	<text transform="matrix(1 0 0 1 54.50 58.50)" fill="#546E7A">10</text>
	<text transform="matrix(1 0 0 1 60.50 78.50)" fill="#E53935">11</text>
	<text transform="matrix(1 0 0 1 72.50 46.50)" fill="#FB8C00">12</text>
	<text transform="matrix(1 0 0 1 82.50 57.50)" fill="#FDD835">13</text>
	<text transform="matrix(1 0 0 1 90.50 76.50)" fill="#43A047">14</text>
</g>
</svg>
