<?xml version="1.0" encoding="UTF-8"?>
<svg xmlns="http://www.w3.org/2000/svg" width="109" height="109" viewBox="0 0 109 109">
<g id="kvg:StrokePaths_07901" style="fill:none;stroke:#000000;stroke-width:3;stroke-linecap:round;stroke-linejoin:round;">
<g id="kvg:07901">
	<g id="kvg:07901-g1">
		<path id="kvg:s-s1" stroke="#E53935" d="M12.63,29.01c1.74,0.42,3.64,0.49,5.38,0.23c7.62-1.12,12.4-1.43,21.62-2.31c1.98-0.19,3.55-0.13,5.5,0.15"/>
		<path id="kvg:s-s2" stroke="#FB8C00" d="M26.69,31.43c0.31,0.95,0.36,2.1,0.14,3.4c-1.29,7.7-8.7,24.58-18.84,34.93"/>
		<g id="kvg:07901-g2">
			<path id="kvg:s-s3" stroke="#FDD835" d="M20.47,54.65c0.62,0.98,0.94,2.05,0.98,3.21c0.67,4.53,1.34,12.65,1.84,19.63c0.13,1.78,0.24,3.49,0.34,5.04"/>
			<path id="kvg:s-s4" stroke="#43A047" d="M22.01,56.03c6.37-0.78,11.78-1.39,15.49-1.95c3-0.45,4.38,1.17,3.74,4.17c-1.1,5.2-2.7,11.92-3.8,18.75"/>
			<path id="kvg:s-s5" stroke="#1E88E5" d="M24.32,79.27c4.16-0.65,6.95-0.67,11.71-1.27c1.15-0.15,2.22-0.38,3.95-0.25"/>
		</g>
	</g>
	<g id="kvg:07901-g3">
		<g id="kvg:07901-g4">
			<g id="kvg:07901-g5">
				<path id="kvg:s-s6" stroke="#8E24AA" d="M60.14,15.25c0.17,1.49-0.3,2.93-0.83,4.21c-3.4,8.12-7.96,15.24-15.75,25.12"/>
				<path id="kvg:s-s7" stroke="#EC407A" d="M55.4,32.15c0.85,0.85,1.2,1.89,1.2,3.11c0,7-0.05,23.49-0.09,32.87c-0.01,3.67-0.02,6.26-0.02,6.75"/>
			</g>
			<path id="kvg:s-s8" stroke="#00ACC1" d="M78.16,15.99c0.07,0.74,0.04,1.74-0.24,2.36C76.5,21.5,74.75,25.62,72,30"/>
			<path id="kvg:s-s9" stroke="#795548" d="M57.67,33.61c5.36-0.61,20.75-1.75,29.84-2.69c2.85-0.29,4.93-0.52,5.65-0.62"/>
			<path id="kvg:s-s10" stroke="#546E7A" d="M73.94,34.71c0.34,0.31,0.99,2.7,0.99,3.24c0,5.5,0.04,22.04-0.17,30.7"/>
			<path id="kvg:s-s11" stroke="#E53935" d="M57.61,46.55c5.11-0.51,20.45-1.77,28.65-2.48c2.44-0.21,4.23-0.38,4.88-0.46"/>
			<path id="kvg:s-s12" stroke="#FB8C00" d="M57.8,57.96c5.46-0.44,20.43-1.58,28.95-2.32c2.41-0.21,4.16-0.36,4.82-0.43"/>
			<path id="kvg:s-s13" stroke="#FDD835" d="M57.8,70.49c8.7-0.74,23.41-1.69,32.99-2.34c2.69-0.18,4.62-0.33,5.29-0.42"/>
		</g>
		<g id="kvg:07901-g6">
			<path id="kvg:s-s14" stroke="#43A047" d="M49.09,81.45c0,4.91-4.56,12.15-5.58,13.55"/>
			<path id="kvg:s-s15" stroke="#1E88E5" d="M62.12,80.38c1.43,2.62,2.79,9.83,3.15,13.9"/>
			<path id="kvg:s-s16" stroke="#8E24AA" d="M77.62,79.88c1.97,2.25,5.09,9.24,5.58,12.74"/>
			<path id="kvg:s-s17" stroke="#EC407A" d="M91.38,78.5c3.42,2.71,8.83,11.15,9.68,15.36"/>
		</g>
	</g>
</g>
</g>
<g id="kvg:StrokeNumbers_07901" style="font-size:18;font-weight:bold;stroke:#fff;stroke-width:1.5;paint-order:stroke">
	<text transform="matrix(1 0 0 1 6.75 30.13)" fill="#E53935">1</text>
	<text transform="matrix(1 0 0 1 18.50 38.50)" fill="#FB8C00">2</text>
	<text transform="matrix(1 0 0 1 15.75 70.50)" fill="#FDD835">3</text>
	<text transform="matrix(1 0 0 1 26.50 52.50)" fill="#43A047">4</text>
	<text transform="matrix(1 0 0 1 26.50 75.05)" fill="#1E88E5">5</text>
	<text transform="matrix(1 0 0 1 51.75 15.50)" fill="#8E24AA">6</text>
	<text transform="matrix(1 0 0 1 49.50 47.50)" fill="#EC407A">7</text>
	<text transform="matrix(1 0 0 1 69.50 16.50)" fill="#00ACC1">8</text>
	<text transform="matrix(1 0 0 1 61.50 30.50)" fill="#795548">9</text>
	<text transform="matrix(1 0 0 1 64.50 39.50)" fill="#546E7A">10</text>
	<text transform="matrix(1 0 0 1 59.50 43.63)" fill="#E53935">11</text>
	<text transform="matrix(1 0 0 1 59.50 55.55)" fill="#FB8C00">12</text>
	<text transform="matrix(1 0 0 1 59.55 67.48)" fill="#FDD835">13</text>
	<text transform="matrix(1 0 0 1 44.25 76.40)" fill="#43A047">14</text>
	<text transform="matrix(1 0 0 1 52.50 83.50)" fill="#1E88E5">15</text>
	<text transform="matrix(1 0 0 1 68.50 82.50)" fill="#8E24AA">16</text>
	<text transform="matrix(1 0 0 1 82.50 81.50)" fill="#EC407A">17</text>
</g>
</svg>
