<?xml version="1.0" encoding="UTF-8"?>
<svg xmlns="http://www.w3.org/2000/svg" width="109" height="109" viewBox="0 0 109 109">
<g id="kvg:StrokePaths_07949" style="fill:none;stroke:#000000;stroke-width:3;stroke-linecap:round;stroke-linejoin:round;">
<g id="kvg:07949">
	<g id="kvg:07949-g1">
		<path id="kvg:s-s1" stroke="#E53935" d="M25.33,14c4.1,1.71,8.49,4.26,12,7.25"/>
		<path id="kvg:s-s2" stroke="#FB8C00" d="M12.58,36.75c2.17,0.96,4.68,0.83,6.95,0.42c4.87-0.88,15.61-3.52,17.8-4.17c2.5-0.75,4.52,1.26,3,3.5c-5.25,7.75-17.75,22.75-26.5,30.5"/>
		<path id="kvg:s-s3" stroke="#FDD835" d="M29.25,53.11c1.01,1.01,1.27,2.26,1.27,3.64c0,4.58,0.03,22.78,0.04,32.75c0.01,3.84,0.01,6.5,0.01,6.75"/>
		<path id="kvg:s-s4" stroke="#43A047" d="M34.5,53.5c3.36,2.23,6.95,5.58,9.83,9.5"/>
	</g>
	<g id="kvg:07949-g2">
		<g id="kvg:07949-g3">
			<path id="kvg:s-s5" stroke="#1E88E5" d="M71.62,19.5c1,1,1.46,2.62,1.46,4c0,1.02,0.03,53.62,0.03,60.5"/>
			<path id="kvg:s-s6" stroke="#8E24AA" d="M74.38,51.25c3.87-0.62,9.12-1.38,14.22-1.75c1.68-0.12,2.1-0.25,3.15,0"/>
		</g>
		<path id="kvg:s-s7" stroke="#EC407A" d="M52.87,51.25c0.81,0.81,1.46,2.38,1.46,4.25c0,5,0.03,23.25,0.03,31.5"/>
		<path id="kvg:s-s8" stroke="#00ACC1" d="M43.25,87.48c2.7,0.82,5.72,0.59,8.49,0.24c11.38-1.47,25.88-3.34,36.76-3.67c2.55-0.08,5.37,0.08,8.25,0.96"/>
	</g>
</g>
</g>
<g id="kvg:StrokeNumbers_07949" style="font-size:18;font-weight:bold;stroke:#fff;stroke-width:1.5;paint-order:stroke">
	<text transform="matrix(1 0 0 1 18.50 14.50)" fill="#E53935">1</text>
	<text transform="matrix(1 0 0 1 4.50 36.50)" fill="#FB8C00">2</text>
	<text transform="matrix(1 0 0 1 23.50 67.50)" fill="#FDD835">3</text>
	<text transform="matrix(1 0 0 1 37.50 53.50)" fill="#43A047">4</text>
	<text transform="matrix(1 0 0 1 61.50 19.50)" fill="#1E88E5">5</text>
	<text transform="matrix(1 0 0 1 77.50 47.50)" fill="#8E24AA">6</text>
	<text transform="matrix(1 0 0 1 45.50 50.50)" fill="#EC407A">7</text>
	<text transform="matrix(1 0 0 1 41.25 84.13)" fill="#00ACC1">8</text>
</g>
</svg>
