<?xml version="1.0" encoding="UTF-8"?>
<svg xmlns="http://www.w3.org/2000/svg" width="109" height="109" viewBox="0 0 109 109">
<g id="kvg:StrokePaths_0795d" style="fill:none;stroke:#000000;stroke-width:3;stroke-linecap:round;stroke-linejoin:round;">
<g id="kvg:0795d">
	<g id="kvg:0795d-g1">
		<path id="kvg:s-s1" stroke="#E53935" d="M23.62,16c3.74,2.12,7.75,5.29,10.95,9"/>
		<path id="kvg:s-s2" stroke="#FB8C00" d="M12.08,40.5c1.8,0.63,3.79,0.72,5.51,0.45C21.12,40.38,31,37.88,35.33,37c2.56-0.52,4.3,1.38,3,3.75C33.25,50,21.38,64.75,11.83,74"/>
		<path id="kvg:s-s3" stroke="#FDD835" d="M28.75,57.36c0.76,0.76,1.27,2.01,1.27,3.39c0,6.63,0.03,20.43,0.05,28.38c0.01,2.77,0.01,4.83,0.01,5.62"/>
		<path id="kvg:s-s4" stroke="#43A047" d="M32.25,54.88c4.04,2.5,8.36,6.25,11.83,10.62"/>
	</g>
	<g id="kvg:0795d-g2">
		<g id="kvg:0795d-g3">
			<path id="kvg:s-s5" stroke="#1E88E5" d="M49.61,22.6c0.83,0.83,1.49,1.77,1.66,2.85c0.55,3.6,1.95,10.18,3.51,18.29c0.28,1.48,0.57,3.01,0.86,4.58"/>
			<path id="kvg:s-s6" stroke="#8E24AA" d="M52.18,24.24c6.73-1.36,20.82-3.49,29.72-4.55c2.98-0.35,5.62,0.88,4.52,4.36c-1.72,5.49-3.04,10.69-5.01,17.38"/>
			<path id="kvg:s-s7" stroke="#EC407A" d="M56.27,44.59c8.24-0.96,17.77-1.66,24.49-2.33c0.91-0.09,1.76-0.18,2.55-0.25"/>
		</g>
		<g id="kvg:0795d-g4">
			<g id="kvg:0795d-g5">
				<path id="kvg:s-s8" stroke="#00ACC1" d="M62.48,48.01c0.52,0.99,0.58,2.52,0.39,3.92c-1.38,9.94-8.12,27.56-19.76,37.81"/>
			</g>
			<path id="kvg:s-s9" stroke="#795548" d="M72.99,46.25c0.88,0.88,1.1,2.37,1.1,3.85c0,6.32-0.14,22.27-0.14,31.27c0,8.75,2.17,10.08,11.92,10.08c9.13,0,10.4-2.33,10.4-10.71"/>
		</g>
	</g>
</g>
</g>
<g id="kvg:StrokeNumbers_0795d" style="font-size:18;fill:#E53935;font-weight:bold;stroke:#fff;stroke-width:1.5;paint-order:stroke">
	<text transform="matrix(1 0 0 1 16.99 15.50)" fill="#E53935">1</text>
	<text transform="matrix(1 0 0 1 3.50 41.50)" fill="#FB8C00">2</text>
	<text transform="matrix(1 0 0 1 22.50 73.50)" fill="#FDD835">3</text>
	<text transform="matrix(1 0 0 1 36.50 54.50)" fill="#43A047">4</text>
	<text transform="matrix(1 0 0 1 42.49 32.83)" fill="#1E88E5">5</text>
	<text transform="matrix(1 0 0 1 54.49 19.26)" fill="#8E24AA">6</text>
	<text transform="matrix(1 0 0 1 60.75 40.63)" fill="#EC407A">7</text>
	<text transform="matrix(1 0 0 1 53.25 58.63)" fill="#00ACC1">8</text>
	<text transform="matrix(1 0 0 1 80.25 54.13)" fill="#795548">9</text>
</g>
</svg>
