<?xml version="1.0" encoding="UTF-8"?>
<svg xmlns="http://www.w3.org/2000/svg" width="109" height="109" viewBox="0 0 109 109">
<g id="kvg:StrokePaths_079df" style="fill:none;stroke:#000000;stroke-width:3;stroke-linecap:round;stroke-linejoin:round;">
<g id="kvg:079df">
	<g id="kvg:079df-g1">
		<g id="kvg:079df-g2">
			<path id="kvg:s-s1" stroke="#E53935" d="M40.25,15.75c-0.13,0.88-0.45,1.9-1.33,2.55c-4.04,2.95-10.54,6.95-22.17,11.45"/>
		</g>
		<g id="kvg:079df-g3">
			<path id="kvg:s-s2" stroke="#FB8C00" d="M12.87,42.58c2.13,0.67,4.49,0.51,6.14,0.34c5.59-0.55,17.84-2.04,24.04-2.9c1.13-0.16,2.71-0.28,4.19-0.09"/>
			<path id="kvg:s-s3" stroke="#FDD835" d="M32.08,26.66c1.13,1.13,1.41,2.34,1.41,4.19c0,4.25,0,37.59-0.03,54.4c-0.01,4.58-0.02,7.89-0.04,9"/>
			<path id="kvg:s-s4" stroke="#43A047" d="M32.68,42.97c0,1.78-0.91,4.4-1.87,6.43C25.88,59.87,18.7,70.91,9.5,79"/>
			<path id="kvg:s-s5" stroke="#1E88E5" d="M36.75,52.25c3.56,2.04,6.58,6.12,8.5,8.75"/>
		</g>
	</g>
	<g id="kvg:079df-g4">
		<g id="kvg:079df-g5">
			<path id="kvg:s-s6" stroke="#8E24AA" d="M54.52,24.98c1,1,1.41,2.14,1.41,3.65c0,0.98,0.43,57.8,0.35,59.92"/>
			<path id="kvg:s-s7" stroke="#EC407A" d="M56.81,26.81c6.06-0.81,22.2-2.82,23.86-2.99c2.98-0.29,4.49,1.17,4.49,4.71c0,3.83-0.03,40.33-0.03,57.15"/>
			<path id="kvg:s-s8" stroke="#00ACC1" d="M57.14,46.6c7.62-0.95,20.08-2.31,26.78-2.6"/>
			<path id="kvg:s-s9" stroke="#795548" d="M57.59,65.95c5.95-0.34,19.22-1.92,26.1-1.96"/>
		</g>
		<g id="kvg:079df-g6">
			<path id="kvg:s-s10" stroke="#546E7A" d="M43.04,89.34c2.96,0.53,5.97,0.59,8.71,0.41c11.47-0.75,28.29-2.4,39.75-2.7c2.71-0.07,5.46,0.05,8.13,0.59"/>
		</g>
	</g>
</g>
</g>
<g id="kvg:StrokeNumbers_079df" style="font-size:18;font-weight:bold;stroke:#fff;stroke-width:1.5;paint-order:stroke">
	<text transform="matrix(1 0 0 1 32.25 13.63)" fill="#E53935">1</text>
	<text transform="matrix(1 0 0 1 5.25 43.55)" fill="#FB8C00">2</text>
	<text transform="matrix(1 0 0 1 26.25 36.13)" fill="#FDD835">3</text>
	<text transform="matrix(1 0 0 1 20.25 54.13)" fill="#43A047">4</text>
	<text transform="matrix(1 0 0 1 39.75 52.63)" fill="#1E88E5">5</text>
	<text transform="matrix(1 0 0 1 48.50 35.50)" fill="#8E24AA">6</text>
	<text transform="matrix(1 0 0 1 57.75 23.50)" fill="#EC407A">7</text>
	<text transform="matrix(1 0 0 1 60.75 43.55)" fill="#00ACC1">8</text>
	<text transform="matrix(1 0 0 1 60.75 62.50)" fill="#795548">9</text>
	<text transform="matrix(1 0 0 1 40.50 86.50)" fill="#546E7A">10</text>
</g>
</svg>
