<?xml version="1.0" encoding="UTF-8"?>
<svg xmlns="http://www.w3.org/2000/svg" width="109" height="109" viewBox="0 0 109 109">
<g id="kvg:StrokePaths_07a1a" style="fill:none;stroke:#000000;stroke-width:3;stroke-linecap:round;stroke-linejoin:round;">
<g id="kvg:07a1a">
	<g id="kvg:07a1a-g1">
		<g id="kvg:07a1a-g2">
			<path id="kvg:s-s1" stroke="#E53935" d="M38.5,15.5c0.06,0.41-0.21,1.66-0.63,2.15c-3.63,4.35-11.5,10.72-21.63,15.6"/>
		</g>
		<g id="kvg:07a1a-g3">
			<path id="kvg:s-s2" stroke="#FB8C00" d="M13.12,42.83c2.01,0.55,3.62,0.44,5.14,0.28c5.77-0.63,17.15-2.35,22.62-3.18c0.86-0.13,2.24-0.42,3.35-0.24"/>
			<path id="kvg:s-s3" stroke="#FDD835" d="M31.08,28.66c1.07,1.07,1.16,2.22,1.16,3.69c0,0.69,0.02,40.56-0.04,56.65c-0.01,3.16-0.02,5.4-0.04,6.25"/>
			<path id="kvg:s-s4" stroke="#43A047" d="M31.43,42.97c0,1.78-0.92,3.93-1.58,5.58C25.58,59.22,20.25,69,11.5,79.75"/>
			<path id="kvg:s-s5" stroke="#1E88E5" d="M35.75,52.12c3.35,2.3,6.19,6.91,8,9.88"/>
		</g>
	</g>
	<g id="kvg:07a1a-g4">
		<g id="kvg:07a1a-g5">
			<path id="kvg:s-s6" stroke="#8E24AA" d="M60.92,15.25c0.16,1.82-0.05,2.94-0.56,4.5C57.09,29.66,52.7,39.3,45.2,51.37"/>
			<path id="kvg:s-s7" stroke="#EC407A" d="M52.82,40.08c0.92,0.92,1.42,2.42,1.42,4.16c0,8.13-0.07,32.04-0.1,44.13c-0.01,3.72-0.02,6.32-0.02,7"/>
		</g>
		<path id="kvg:s-s8" stroke="#00ACC1" d="M79.81,15.25c0.08,0.97-0.02,2.24-0.27,3.07c-1.6,5.3-3.62,9.4-7.29,15.85"/>
		<path id="kvg:s-s9" stroke="#795548" d="M53.57,39.3C62,38.25,75.9,37,85.27,35.9c3.34-0.39,5.84-0.7,6.74-0.86"/>
		<path id="kvg:s-s10" stroke="#546E7A" d="M73.93,40.24c0.97,0.98,1.19,1.76,1.19,3.3c0,7.73-0.12,29.58-0.12,43.33"/>
		<path id="kvg:s-s11" stroke="#E53935" d="M55.38,55.09c8.12-0.46,21.46-1.57,28.41-2.15c3.36-0.28,5.89-0.5,6.78-0.62"/>
		<path id="kvg:s-s12" stroke="#FB8C00" d="M55.23,70.92c5.92-0.59,21.14-1.67,30.28-2.47c3.03-0.27,5.28-0.48,6.12-0.58"/>
		<path id="kvg:s-s13" stroke="#FDD835" d="M55.23,89.36c9.9-0.73,26.21-1.96,36.32-2.68c2.65-0.19,4.55-0.35,5.26-0.45"/>
	</g>
</g>
</g>
<g id="kvg:StrokeNumbers_07a1a" style="font-size:18;font-weight:bold;stroke:#fff;stroke-width:1.5;paint-order:stroke">
	<text transform="matrix(1 0 0 1 30.75 14.50)" fill="#E53935">1</text>
	<text transform="matrix(1 0 0 1 5.50 43.50)" fill="#FB8C00">2</text>
	<text transform="matrix(1 0 0 1 24.50 37.63)" fill="#FDD835">3</text>
	<text transform="matrix(1 0 0 1 20.50 53.50)" fill="#43A047">4</text>
	<text transform="matrix(1 0 0 1 36.50 50.50)" fill="#1E88E5">5</text>
	<text transform="matrix(1 0 0 1 51.50 15.50)" fill="#8E24AA">6</text>
	<text transform="matrix(1 0 0 1 47.25 60.13)" fill="#EC407A">7</text>
	<text transform="matrix(1 0 0 1 70.50 15.50)" fill="#00ACC1">8</text>
	<text transform="matrix(1 0 0 1 60.50 35.50)" fill="#795548">9</text>
	<text transform="matrix(1 0 0 1 64.50 46.50)" fill="#546E7A">10</text>
	<text transform="matrix(1 0 0 1 59.25 51.50)" fill="#E53935">11</text>
	<text transform="matrix(1 0 0 1 59.25 67.41)" fill="#FB8C00">12</text>
	<text transform="matrix(1 0 0 1 59.25 85.33)" fill="#FDD835">13</text>
</g>
</svg>
