<?xml version="1.0" encoding="UTF-8"?>
<svg xmlns="http://www.w3.org/2000/svg" width="109" height="109" viewBox="0 0 109 109">
<g id="kvg:StrokePaths_07a4d" style="fill:none;stroke:#000000;stroke-width:3;stroke-linecap:round;stroke-linejoin:round;">
<g id="kvg:07a4d">
	<g id="kvg:07a4d-g1">
		<g id="kvg:07a4d-g2">
			<path id="kvg:s-s1" stroke="#E53935" d="M39.25,15.25c0,1-0.94,2.03-1.66,2.6C34.12,20.62,27.62,23.5,16,27"/>
		</g>
		<g id="kvg:07a4d-g3">
			<path id="kvg:s-s2" stroke="#FB8C00" d="M9.87,43.85c2.01,0.65,3.57,0.62,5.3,0.41c6.13-0.73,19.18-3.09,24.71-3.93c0.99-0.15,1.99-0.21,2.61,0"/>
			<path id="kvg:s-s3" stroke="#FDD835" d="M30.33,25.16c0.82,0.82,1.41,1.97,1.41,3.19c0,5.06-0.05,45.46-0.07,61.53c0,3.06,0,5.24,0,6.12"/>
			<path id="kvg:s-s4" stroke="#43A047" d="M30.18,43.47c0,1.16-0.26,2.43-0.53,3.17c-3.59,9.66-9.4,20.37-17.4,29.87"/>
			<path id="kvg:s-s5" stroke="#1E88E5" d="M34.5,48.38c4.09,2.3,7.55,6.91,9.75,9.88"/>
		</g>
	</g>
	<g id="kvg:07a4d-g4">
		<g id="kvg:07a4d-g5">
			<path id="kvg:s-s6" stroke="#8E24AA" d="M55.04,21.04c1.96,0.46,3.66,0.26,5.22,0.09c5.79-0.64,16.82-2.1,22.49-2.76c1.63-0.19,3.25-0.2,4.89-0.06"/>
			<path id="kvg:s-s7" stroke="#EC407A" d="M69.77,11.38c0.92,0.92,1.41,2.24,1.41,3.54c0,6.58-0.18,18.71-0.18,24.7"/>
			<path id="kvg:s-s8" stroke="#00ACC1" d="M55.77,31.79c1.74,0.57,3.87,0.27,5.62-0.02c8.36-1.39,19.63-2.72,23.44-3.03c1.19-0.1,2.31-0.05,2.94-0.01"/>
			<path id="kvg:s-s9" stroke="#795548" d="M48.56,42.06c3.06,0.44,5.41,0.47,8.07,0.13C67,40.88,79.25,40.12,89.5,39.64c3.26-0.16,5.75-0.26,8.07,0.29"/>
		</g>
		<g id="kvg:07a4d-g6">
			<g id="kvg:07a4d-g7">
				<path id="kvg:s-s10" stroke="#546E7A" d="M57.04,49.79c0.77,0.77,1.21,1.79,1.21,2.78c0,0.77-0.05,19.1-0.07,27.3c-0.01,2.29-0.01,3.79-0.01,3.9"/>
				<path id="kvg:s-s11" stroke="#E53935" d="M58.82,51.09c6.43-0.72,25.13-2.8,26.08-2.85c2.12-0.12,3.6,1.01,3.61,3.36c0.01,3.15-0.08,15.43-0.07,26.31c0,1.12-0.17,3.11-0.17,3.85"/>
				<path id="kvg:s-s12" stroke="#FB8C00" d="M59.53,60.29C64.5,60,82.5,58.25,86.88,58.03"/>
				<path id="kvg:s-s13" stroke="#FDD835" d="M59.25,70.14c7.62-0.39,20.25-1.39,27.79-1.73"/>
				<path id="kvg:s-s14" stroke="#43A047" d="M59.97,80.64c6.41-0.25,19.9-1.52,26.79-1.73"/>
			</g>
			<g id="kvg:07a4d-g8">
				<path id="kvg:s-s15" stroke="#1E88E5" d="M63.78,87.13c0.09,0.87-0.25,1.96-1,2.65c-2.29,2.09-7.41,6.09-13.15,8.96"/>
				<path id="kvg:s-s16" stroke="#8E24AA" d="M81.75,87c5.19,2.93,11.33,8.24,12.75,10.81"/>
			</g>
		</g>
	</g>
</g>
</g>
<g id="kvg:StrokeNumbers_07a4d" style="font-size:18;fill:#E53935;font-weight:bold;stroke:#fff;stroke-width:1.5;paint-order:stroke">
	<text transform="matrix(1 0 0 1 31.50 12.13)" fill="#E53935">1</text>
	<text transform="matrix(1 0 0 1 2.50 45.50)" fill="#FB8C00">2</text>
	<text transform="matrix(1 0 0 1 24.50 34.63)" fill="#FDD835">3</text>
	<text transform="matrix(1 0 0 1 19.50 54.13)" fill="#43A047">4</text>
	<text transform="matrix(1 0 0 1 38.50 49.50)" fill="#1E88E5">5</text>
	<text transform="matrix(1 0 0 1 48.50 21.50)" fill="#8E24AA">6</text>
	<text transform="matrix(1 0 0 1 62.50 11.50)" fill="#EC407A">7</text>
	<text transform="matrix(1 0 0 1 48.50 30.13)" fill="#00ACC1">8</text>
	<text transform="matrix(1 0 0 1 47.25 39.13)" fill="#795548">9</text>
	<text transform="matrix(1 0 0 1 47.25 60.13)" fill="#546E7A">10</text>
	<text transform="matrix(1 0 0 1 59.25 48.50)" fill="#E53935">11</text>
	<text transform="matrix(1 0 0 1 62.44 57.50)" fill="#FB8C00">12</text>
	<text transform="matrix(1 0 0 1 62.25 67.50)" fill="#FDD835">13</text>
	<text transform="matrix(1 0 0 1 62.25 77.50)" fill="#43A047">14</text>
	<text transform="matrix(1 0 0 1 49.50 91.63)" fill="#1E88E5">15</text>
	<text transform="matrix(1 0 0 1 70.50 89.13)" fill="#8E24AA">16</text>
</g>
</svg>
