<?xml version="1.0" encoding="UTF-8"?>
<svg xmlns="http://www.w3.org/2000/svg" width="109" height="109" viewBox="0 0 109 109">
<g id="kvg:StrokePaths_07a4f" style="fill:none;stroke:#000000;stroke-width:3;stroke-linecap:round;stroke-linejoin:round;">
<g id="kvg:07a4f">
	<g id="kvg:07a4f-g1">
		<g id="kvg:07a4f-g2">
			<path id="kvg:s-s1" stroke="#E53935" d="M39.51,15.5c-0.06,0.89-0.36,1.67-0.91,2.35c-3.35,3.4-12.22,9.15-21.1,13.4"/>
		</g>
		<g id="kvg:07a4f-g3">
			<path id="kvg:s-s2" stroke="#FB8C00" d="M14.87,43.35c1.88,0.4,3.85,0.29,5.15,0.12c5.69-0.72,15.45-2.3,21.01-3.29c0.8-0.14,2.6-0.3,3.7-0.1"/>
			<path id="kvg:s-s3" stroke="#FDD835" d="M31.95,27.41c1.01,1.01,1.54,2.46,1.54,4.03s0.03,40.61-0.04,57.82c-0.01,3.83-0.03,6.56-0.04,7.5"/>
			<path id="kvg:s-s4" stroke="#43A047" d="M32.43,43.47c0,1.03-0.67,3.52-1.2,4.87C27.34,58.09,20.53,70,13.5,77.25"/>
			<path id="kvg:s-s5" stroke="#1E88E5" d="M36.25,52.62c3.04,1.78,5.61,5.34,7.25,7.62"/>
		</g>
	</g>
	<g id="kvg:07a4f-g4">
		<g id="kvg:07a4f-g5">
			<path id="kvg:s-s6" stroke="#8E24AA" d="M80.01,12.39c-0.07,0.82-0.44,1.46-1.1,1.93c-3.28,2.77-14.77,7.63-26.62,9.79"/>
			<path id="kvg:s-s7" stroke="#EC407A" d="M51.62,29.25c1.53,1.55,3.95,6.39,4.34,8.81"/>
			<path id="kvg:s-s8" stroke="#00ACC1" d="M66.12,25.5c1.83,1.59,4.73,6.54,5.19,9.01"/>
			<path id="kvg:s-s9" stroke="#795548" d="M89.15,21.39c0.11,0.72,0,1.39-0.32,2.01c-1.15,2.87-3.17,6.07-7.21,10.22"/>
		</g>
		<g id="kvg:07a4f-g6">
			<path id="kvg:s-s10" stroke="#546E7A" d="M50.66,43.42c2.36,0.3,4.34,0.46,6.71,0.21c9.19-0.96,19.05-2.8,26.5-3.74c2.28-0.29,3.81,1.12,3.54,3.41c-0.66,5.57-1.45,11.44-2.33,18c-0.22,1.63-0.46,3.27-0.75,4.89"/>
			<path id="kvg:s-s11" stroke="#E53935" d="M51.38,54.94c2.03,0.23,3.8,0.38,5.85,0.18c13.2-1.3,21.56-2.73,28.82-3.5"/>
			<path id="kvg:s-s12" stroke="#FB8C00" d="M51.24,66.49c2.03,0.25,3.84,0.23,5.88,0.01c10.71-1.17,20.2-2.58,27.48-2.96"/>
		</g>
		<g id="kvg:07a4f-g7">
			<path id="kvg:s-s13" stroke="#FDD835" d="M47.76,79.38c0.26,1.98-2.56,10.71-4.61,14.01"/>
			<path id="kvg:s-s14" stroke="#43A047" d="M54.18,77.87c8.07,14.88,17.32,17.88,31.1,18.56c6.36,0.31,6.82-3.2,1.6-5.98"/>
			<path id="kvg:s-s15" stroke="#1E88E5" d="M67.69,74.44c1.28,2.79,5.06,8.73,6.19,3.56"/>
			<path id="kvg:s-s16" stroke="#8E24AA" d="M87.92,74.95c3.16,2.32,6.72,5.75,9.31,10.35"/>
		</g>
	</g>
</g>
</g>
<g id="kvg:StrokeNumbers_07a4f" style="font-size:18;font-weight:bold;stroke:#fff;stroke-width:1.5;paint-order:stroke">
	<text transform="matrix(1 0 0 1 32.50 15.50)" fill="#E53935">1</text>
	<text transform="matrix(1 0 0 1 8.25 45.05)" fill="#FB8C00">2</text>
	<text transform="matrix(1 0 0 1 25.50 36.13)" fill="#FDD835">3</text>
	<text transform="matrix(1 0 0 1 22.50 53.50)" fill="#43A047">4</text>
	<text transform="matrix(1 0 0 1 38.50 51.50)" fill="#1E88E5">5</text>
	<text transform="matrix(1 0 0 1 69.75 12.13)" fill="#8E24AA">6</text>
	<text transform="matrix(1 0 0 1 45.75 33.50)" fill="#EC407A">7</text>
	<text transform="matrix(1 0 0 1 60.50 31.63)" fill="#00ACC1">8</text>
	<text transform="matrix(1 0 0 1 81.50 24.50)" fill="#795548">9</text>
	<text transform="matrix(1 0 0 1 46.50 41.50)" fill="#546E7A">10</text>
	<text transform="matrix(1 0 0 1 48.75 52.63)" fill="#E53935">11</text>
	<text transform="matrix(1 0 0 1 48.75 63.50)" fill="#FB8C00">12</text>
	<text transform="matrix(1 0 0 1 41.25 76.50)" fill="#FDD835">13</text>
	<text transform="matrix(1 0 0 1 51.50 90.50)" fill="#43A047">14</text>
	<text transform="matrix(1 0 0 1 59.50 76.50)" fill="#1E88E5">15</text>
	<text transform="matrix(1 0 0 1 78.75 75.50)" fill="#8E24AA">16</text>
</g>
</svg>
