<?xml version="1.0" encoding="UTF-8"?>
<svg xmlns="http://www.w3.org/2000/svg" width="109" height="109" viewBox="0 0 109 109">
<g id="kvg:StrokePaths_07a9f" style="fill:none;stroke:#000000;stroke-width:3;stroke-linecap:round;stroke-linejoin:round;">
<g id="kvg:07a9f">
	<g id="kvg:07a9f-g1">
		<g id="kvg:07a9f-g2">
			<path id="kvg:s-s1" stroke="#E53935" d="M52.71,11.25c0.96,0.96,1.17,2,1.17,3.45c0,3.05-0.06,3.24-0.06,6.02"/>
			<g id="kvg:07a9f-g3">
				<path id="kvg:s-s2" stroke="#FB8C00" d="M26.59,22.51c0,3.23-2.46,11.74-3.84,14.49"/>
				<path id="kvg:s-s3" stroke="#FDD835" d="M27.5,25.25c16-2.38,32.88-4.38,52.86-5.39c9.73-0.49,2.06,5.41-0.36,7.3"/>
			</g>
		</g>
		<g id="kvg:07a9f-g4">
			<path id="kvg:s-s4" stroke="#43A047" d="M45.21,26.5c0,1.12-0.43,2.01-1.2,2.64c-3.64,3.61-7.39,6.99-14.54,10.03"/>
			<path id="kvg:s-s5" stroke="#1E88E5" d="M60.59,23.37c0.77,0.77,0.94,1.63,0.94,2.86c0,1.77-0.01,2.12-0.01,4.14c0,2.63,0.86,3.94,9.77,3.94c4.63,0,8.6-0.61,9.25-0.95"/>
		</g>
	</g>
	<g id="kvg:07a9f-g5">
		<g id="kvg:07a9f-g6">
			<path id="kvg:s-s6" stroke="#8E24AA" d="M29.53,43.39c2.44,0.5,4.89,0.63,7.34,0.4c10.33-1.19,24.71-2.6,36.63-3.56c3-0.24,3.89,1.62,3.25,3.63c-1.02,3.19-1.21,3.63-2.52,8.32"/>
			<path id="kvg:s-s7" stroke="#EC407A" d="M32.88,55.88c3.37-0.12,25.65-2.14,37.13-3.07c3.14-0.26,5.99-0.43,6.96-0.46"/>
			<path id="kvg:s-s8" stroke="#00ACC1" d="M31.38,44.38c0.94,0.94,0.85,2,0.78,3.64c-0.78,20.11-5.03,36.48-15.93,48.2"/>
		</g>
		<g id="kvg:07a9f-g7">
			<g id="kvg:07a9f-g8">
				<path id="kvg:s-s9" stroke="#795548" d="M57.45,59.03c0.95,0.94,1.03,2.22,1.03,3.42c0,4.43-0.1,24.37-0.1,31.29"/>
				<path id="kvg:s-s10" stroke="#546E7A" d="M41.35,65.44c0.4,1.06,0.45,1.83,0.18,2.82c-0.65,2.37-1,3.76-2.03,5.99c-0.71,1.54,0.13,2.68,1.62,2.38c9.75-2,22.12-3.5,35.96-4.19"/>
				<path id="kvg:s-s11" stroke="#E53935" d="M78.42,60.96c0.81,0.81,0.95,1.67,0.79,3.11c-0.46,3.92-0.71,6.05-1.4,11.39"/>
			</g>
			<g id="kvg:07a9f-g9">
				<path id="kvg:s-s12" stroke="#FB8C00" d="M38.04,85.98c0.59,0.9,0.35,2.4-0.07,3.57c-0.78,2.17-1.1,3.05-2.16,6.09c-0.75,2.19,0.74,2.29,2.36,1.94c9.96-2.16,33.4-4.18,41.59-4.08"/>
				<path id="kvg:s-s13" stroke="#FDD835" d="M81.53,81.33c0.88,0.88,0.99,2.31,0.84,3.55c-0.74,6-1.12,7.62-1.85,13.19"/>
			</g>
		</g>
	</g>
</g>
</g>
<g id="kvg:StrokeNumbers_07a9f" style="font-size:18;font-weight:bold;stroke:#fff;stroke-width:1.5;paint-order:stroke">
	<text transform="matrix(1 0 0 1 43.85 11.50)" fill="#E53935">1</text>
	<text transform="matrix(1 0 0 1 18.50 25.85)" fill="#FB8C00">2</text>
	<text transform="matrix(1 0 0 1 29.50 21.50)" fill="#FDD835">3</text>
	<text transform="matrix(1 0 0 1 33.50 32.85)" fill="#43A047">4</text>
	<text transform="matrix(1 0 0 1 54.50 30.50)" fill="#1E88E5">5</text>
	<text transform="matrix(1 0 0 1 39.50 41.50)" fill="#8E24AA">6</text>
	<text transform="matrix(1 0 0 1 36.50 52.50)" fill="#EC407A">7</text>
	<text transform="matrix(1 0 0 1 24.50 52.50)" fill="#00ACC1">8</text>
	<text transform="matrix(1 0 0 1 49.75 63.50)" fill="#795548">9</text>
	<text transform="matrix(1 0 0 1 34.50 63.95)" fill="#546E7A">10</text>
	<text transform="matrix(1 0 0 1 68.50 63.88)" fill="#E53935">11</text>
	<text transform="matrix(1 0 0 1 30.50 82.50)" fill="#FB8C00">12</text>
	<text transform="matrix(1 0 0 1 69.50 83.50)" fill="#FDD835">13</text>
</g>
</svg>
