<?xml version="1.0" encoding="UTF-8"?>
<svg xmlns="http://www.w3.org/2000/svg" width="109" height="109" viewBox="0 0 109 109">
<g id="kvg:StrokePaths_07b11" style="fill:none;stroke:#000000;stroke-width:3;stroke-linecap:round;stroke-linejoin:round;">
<g id="kvg:07b11">
	<g id="kvg:07b11-g1">
		<g id="kvg:07b11-g2">
			<path id="kvg:s-s1" stroke="#E53935" d="M30.75,14c0.04,0.55,0.08,1.43-0.07,2.23C29.78,20.92,24.65,30.69,17.62,37"/>
			<path id="kvg:s-s2" stroke="#FB8C00" d="M30.48,26.29c2.95,0,12.23-2.33,17.78-3.18c1.42-0.22,2.86-0.35,3.99-0.1"/>
			<path id="kvg:s-s3" stroke="#FDD835" d="M36.77,28.83c2.13,1.79,5.51,7.35,6.04,10.13"/>
		</g>
		<g id="kvg:07b11-g3">
			<path id="kvg:s-s4" stroke="#43A047" d="M65.25,14c0.03,0.44,0.14,1.15-0.06,1.77c-1.5,4.64-5.67,11.27-11.18,16.98"/>
			<path id="kvg:s-s5" stroke="#1E88E5" d="M64.73,24.91c3.8,0,14.86-2.14,21.91-2.99c1.72-0.21,2.86-0.29,4.24-0.08"/>
			<path id="kvg:s-s6" stroke="#8E24AA" d="M76.27,26.75c0.03,0.26,0.06,0.67-0.05,1.04c-0.54,1.79-3.17,5.31-6.95,8.14"/>
		</g>
	</g>
	<g id="kvg:07b11-g4">
		<g id="kvg:07b11-g5">
			<path id="kvg:s-s7" stroke="#EC407A" d="M63,38.62c-0.12,0.75-0.6,1.51-1.13,1.98c-4.49,3.9-16.64,8.61-31.86,11.96"/>
		</g>
		<g id="kvg:07b11-g6">
			<path id="kvg:s-s8" stroke="#00ACC1" d="M18.24,63.34c3.64,0.79,7.25,0.65,10.62,0.29c14.01-1.5,36.64-3.5,50.77-4.09c3.08-0.13,6.25-0.29,9.83,0.45"/>
			<path id="kvg:s-s9" stroke="#795548" d="M53.03,49.17c0.53,0.65,1.06,1.9,1.04,3.3C53.82,76.74,40,90.62,19.87,97.25"/>
			<path id="kvg:s-s10" stroke="#546E7A" d="M54.51,62.75c6.56,6.61,19.9,21.16,28,27.86c2.09,1.73,4.24,3.52,7.11,4.52"/>
		</g>
	</g>
</g>
</g>
<g id="kvg:StrokeNumbers_07b11" style="font-size:18;fill:#E53935;font-weight:bold;stroke:#fff;stroke-width:1.5;paint-order:stroke">
	<text transform="matrix(1 0 0 1 22.50 13.50)" fill="#E53935">1</text>
	<text transform="matrix(1 0 0 1 36.75 22.63)" fill="#FB8C00">2</text>
	<text transform="matrix(1 0 0 1 30.75 35.50)" fill="#FDD835">3</text>
	<text transform="matrix(1 0 0 1 56.50 13.50)" fill="#43A047">4</text>
	<text transform="matrix(1 0 0 1 70.50 21.50)" fill="#1E88E5">5</text>
	<text transform="matrix(1 0 0 1 66.50 32.50)" fill="#8E24AA">6</text>
	<text transform="matrix(1 0 0 1 54.50 40.50)" fill="#EC407A">7</text>
	<text transform="matrix(1 0 0 1 10.50 64.63)" fill="#00ACC1">8</text>
	<text transform="matrix(1 0 0 1 45.50 57.13)" fill="#795548">9</text>
	<text transform="matrix(1 0 0 1 64.50 70.50)" fill="#546E7A">10</text>
</g>
</svg>
