<?xml version="1.0" encoding="UTF-8"?>
<svg xmlns="http://www.w3.org/2000/svg" width="109" height="109" viewBox="0 0 109 109">
<g id="kvg:StrokePaths_07b87" style="fill:none;stroke:#000000;stroke-width:3;stroke-linecap:round;stroke-linejoin:round;">
<g id="kvg:07b87">
	<g id="kvg:07b87-g1">
		<g id="kvg:07b87-g2">
			<path id="kvg:s-s1" stroke="#E53935" d="M29.5,13c0.07,1.06,0.02,2.2-0.4,3.2c-1.86,4.43-5.52,10.52-11.61,17.05"/>
			<path id="kvg:s-s2" stroke="#FB8C00" d="M29.23,24.04c2.92,0,11.77-2.04,17.54-3.4c1.52-0.36,2.84-0.13,3.73-0.13"/>
			<path id="kvg:s-s3" stroke="#FDD835" d="M34.02,25.83c2.49,1.88,6.42,7.72,7.04,10.63"/>
		</g>
		<g id="kvg:07b87-g3">
			<path id="kvg:s-s4" stroke="#43A047" d="M64.75,12c0.11,0.86-0.02,1.68-0.38,2.46c-1.41,3.83-5.03,9.54-8.62,13.79"/>
			<path id="kvg:s-s5" stroke="#1E88E5" d="M64.73,21.66c3.91,0,16.89-2.03,23.28-3.07c1.59-0.26,2.94,0,3.87,0"/>
			<path id="kvg:s-s6" stroke="#8E24AA" d="M76.02,24c0.07,0.64,0.03,1.28-0.28,1.83c-1.49,2.67-3.7,5.33-7.74,8.92"/>
		</g>
	</g>
	<g id="kvg:07b87-g4">
		<g id="kvg:07b87-g5">
			<path id="kvg:s-s7" stroke="#EC407A" d="M24.17,43.71c1.06,1.06,1.42,2.89,1.42,4.51c0,11.17-0.02,33.54-0.03,45.66c0,2.57,0,4.68,0,6.12"/>
			<path id="kvg:s-s8" stroke="#00ACC1" d="M26.54,45.7c17.11-2.27,40.92-4.9,54.21-5.84c4.47-0.31,6.08,0.49,6.08,5.14c0,12.91-0.08,50.54-0.08,53.88"/>
		</g>
		<g id="kvg:07b87-g6">
			<g id="kvg:07b87-g7">
				<path id="kvg:s-s9" stroke="#795548" d="M36.89,58.96c1.73,0.53,3.33,0.57,5.1,0.32c8.14-1.16,20.71-2.73,28.62-3.32c1.66-0.12,3.19-0.2,4.84,0.1"/>
				<path id="kvg:s-s10" stroke="#546E7A" d="M54.05,44.31c0.76,0.76,1.27,2.57,1.27,4.07c0,1.74-0.07,15.16-0.07,20.37"/>
			</g>
			<g id="kvg:07b87-g8">
				<path id="kvg:s-s11" stroke="#E53935" d="M40.84,69.94c0.67,0.67,1.1,1.71,1.17,2.68c0.5,2.44,1.21,6.26,1.85,9.85c0.23,1.29,0.44,2.55,0.63,3.71"/>
				<path id="kvg:s-s12" stroke="#FB8C00" d="M42.57,71.35c7.4-1.01,16.25-2.29,22.19-2.89c3.24-0.33,4.62,1.17,3.97,3.2c-0.89,2.79-1.95,5.52-2.85,9.14"/>
				<path id="kvg:s-s13" stroke="#FDD835" d="M45.36,83.8c5.85-0.65,12.91-1.28,19.15-1.83c1.38-0.12,2.7-0.21,3.92-0.27"/>
			</g>
		</g>
		<g id="kvg:07b87-g9">
			<path id="kvg:s-s14" stroke="#43A047" d="M26.66,96.81C39.5,96,69.45,94.02,85.63,93.67"/>
		</g>
	</g>
</g>
</g>
<g id="kvg:StrokeNumbers_07b87" style="font-size:18;font-weight:bold;stroke:#fff;stroke-width:1.5;paint-order:stroke">
	<text transform="matrix(1 0 0 1 21.75 15.13)" fill="#E53935">1</text>
	<text transform="matrix(1 0 0 1 36.75 19.55)" fill="#FB8C00">2</text>
	<text transform="matrix(1 0 0 1 30.75 34.48)" fill="#FDD835">3</text>
	<text transform="matrix(1 0 0 1 56.25 13.63)" fill="#43A047">4</text>
	<text transform="matrix(1 0 0 1 72.75 18.13)" fill="#1E88E5">5</text>
	<text transform="matrix(1 0 0 1 65.25 31.55)" fill="#8E24AA">6</text>
	<text transform="matrix(1 0 0 1 17.25 54.13)" fill="#EC407A">7</text>
	<text transform="matrix(1 0 0 1 27.75 42.13)" fill="#00ACC1">8</text>
	<text transform="matrix(1 0 0 1 35.25 57.13)" fill="#795548">9</text>
	<text transform="matrix(1 0 0 1 44.25 52.63)" fill="#546E7A">10</text>
	<text transform="matrix(1 0 0 1 32.25 78.05)" fill="#E53935">11</text>
	<text transform="matrix(1 0 0 1 42.75 69.13)" fill="#FB8C00">12</text>
	<text transform="matrix(1 0 0 1 48.75 81.05)" fill="#FDD835">13</text>
	<text transform="matrix(1 0 0 1 32.25 92.98)" fill="#43A047">14</text>
</g>
</svg>
