<?xml version="1.0" encoding="UTF-8"?>
<svg xmlns="http://www.w3.org/2000/svg" width="109" height="109" viewBox="0 0 109 109">
<g id="kvg:StrokePaths_07bc0" style="fill:none;stroke:#000000;stroke-width:3;stroke-linecap:round;stroke-linejoin:round;">
<g id="kvg:07bc0">
	<g id="kvg:07bc0-g1">
		<g id="kvg:07bc0-g2">
			<path id="kvg:s-s1" stroke="#E53935" d="M29.5,12c0.03,0.46,0.15,1.22-0.07,1.87C27.88,18.5,23.75,25.62,17,32.25"/>
			<path id="kvg:s-s2" stroke="#FB8C00" d="M29.48,21.54c3.03,0,12.44-1.44,18.15-1.88c1.28-0.1,2.62-0.03,3.37,0.09"/>
			<path id="kvg:s-s3" stroke="#FDD835" d="M35.02,24.33c1.6,1.44,5.14,6.9,5.54,9.13"/>
		</g>
		<g id="kvg:07bc0-g3">
			<path id="kvg:s-s4" stroke="#43A047" d="M64,10c0.03,0.4,0.11,1.04-0.05,1.6c-1.22,4.2-5.73,11.86-10.2,17.02"/>
			<path id="kvg:s-s5" stroke="#1E88E5" d="M64.48,19.91c3.77,0,15.31-2.04,22.63-2.77c1.86-0.19,3.51-0.14,4.77-0.05"/>
			<path id="kvg:s-s6" stroke="#8E24AA" d="M75.26,22.25c0.03,0.37,0.07,0.97-0.07,1.51c-0.48,1.87-2.67,5.61-5.69,9.24"/>
		</g>
	</g>
	<g id="kvg:07bc0-g4">
		<g id="kvg:07bc0-g5">
			<path id="kvg:s-s7" stroke="#EC407A" d="M21.01,41.69c1.36,1.18,4.48,1.15,6.35,0.94c5.56-0.62,15.62-1.58,19.9-2.06c2.93-0.33,4.62,0.13,4.4,3.43c-0.31,4.49-1.5,12.46-2.36,18.88c-0.24,1.79-0.45,3.46-0.61,4.9"/>
			<path id="kvg:s-s8" stroke="#00ACC1" d="M23.95,54.55c5.43-0.54,19.3-2.05,25.67-2.36"/>
			<path id="kvg:s-s9" stroke="#795548" d="M24.16,66.4c7.45-0.87,15.22-1.77,23.71-2.19"/>
			<path id="kvg:s-s10" stroke="#546E7A" d="M21.51,41.94c0.83,0.84,1.21,2.18,1.21,3.27c0,1.11,0.25,43.93,0.25,46.63c0,3.15,0.42,4.2,3.37,2.31c2.95-1.9,12.41-7.91,19.16-11.83"/>
			<path id="kvg:s-s11" stroke="#E53935" d="M40.81,73.96c3.61,2.6,9.59,11.03,11.24,17.78"/>
		</g>
		<g id="kvg:07bc0-g6">
			<g id="kvg:07bc0-g7">
				<path id="kvg:s-s12" stroke="#FB8C00" d="M61.25,41.26c1.25,0.49,2.52,0.78,3.98,0.64c6.7-0.68,18.88-2.54,20.65-2.68c3.41-0.26,5.84,0.63,5.54,4.41c-1.02,12.81-2.86,25.13-5.39,34.21c-2.42,8.7-5.4,3.79-7.61,0.49"/>
				<path id="kvg:s-s13" stroke="#FDD835" d="M62.87,42.25c1.07,1.06,1.46,2.88,1.46,3.75c0,3.09,0.02,34.6,0.03,48.88c0,2.47,0,4.43,0,5.62"/>
			</g>
		</g>
	</g>
</g>
</g>
<g id="kvg:StrokeNumbers_07bc0" style="font-size:18;fill:#E53935;font-weight:bold;stroke:#fff;stroke-width:1.5;paint-order:stroke">
	<text transform="matrix(1 0 0 1 21.75 12.13)" fill="#E53935">1</text>
	<text transform="matrix(1 0 0 1 35.25 18.50)" fill="#FB8C00">2</text>
	<text transform="matrix(1 0 0 1 28.50 30.50)" fill="#FDD835">3</text>
	<text transform="matrix(1 0 0 1 55.50 10.63)" fill="#43A047">4</text>
	<text transform="matrix(1 0 0 1 69.50 16.50)" fill="#1E88E5">5</text>
	<text transform="matrix(1 0 0 1 66.50 28.50)" fill="#8E24AA">6</text>
	<text transform="matrix(1 0 0 1 26.50 40.50)" fill="#EC407A">7</text>
	<text transform="matrix(1 0 0 1 27.50 51.13)" fill="#00ACC1">8</text>
	<text transform="matrix(1 0 0 1 27.50 63.13)" fill="#795548">9</text>
	<text transform="matrix(1 0 0 1 12.50 50.50)" fill="#546E7A">10</text>
	<text transform="matrix(1 0 0 1 44.50 76.63)" fill="#E53935">11</text>
	<text transform="matrix(1 0 0 1 71.50 38.50)" fill="#FB8C00">12</text>
	<text transform="matrix(1 0 0 1 54.94 52.50)" fill="#FDD835">13</text>
</g>
</svg>
