<?xml version="1.0" encoding="UTF-8"?>
<svg xmlns="http://www.w3.org/2000/svg" width="109" height="109" viewBox="0 0 109 109">
<g id="kvg:StrokePaths_07be4" style="fill:none;stroke:#000000;stroke-width:3;stroke-linecap:round;stroke-linejoin:round;">
<g id="kvg:07be4">
	<g id="kvg:07be4-g1">
		<g id="kvg:07be4-g2">
			<path id="kvg:s-s1" stroke="#E53935" d="M31.75,13.25c0.03,0.46,0.01,1.27-0.32,1.87C29,19.5,24.06,26.46,17.5,31.75"/>
			<path id="kvg:s-s2" stroke="#FB8C00" d="M29.73,23.29c2.78,0,9.12-1.56,14.26-2.35c1.72-0.26,3.22-0.44,4.26-0.44"/>
			<path id="kvg:s-s3" stroke="#FDD835" d="M36.27,24.83c1.34,1.3,3.46,5.36,3.79,7.38"/>
		</g>
		<g id="kvg:07be4-g3">
			<path id="kvg:s-s4" stroke="#43A047" d="M63.24,10.5c0.03,0.41,0.12,1.07-0.06,1.66C61.81,16.49,58.02,22.67,53,28"/>
			<path id="kvg:s-s5" stroke="#1E88E5" d="M64.48,19.16c3.77,0,12.64-1.28,19.52-2.1c1.77-0.21,3.29,0.03,4.37,0.03"/>
			<path id="kvg:s-s6" stroke="#8E24AA" d="M73.28,21.5c0.06,0.8,0.02,1.25-0.37,1.96c-0.83,1.5-2.44,3.38-4.05,5.25"/>
		</g>
	</g>
	<g id="kvg:07be4-g4">
		<path id="kvg:s-s7" stroke="#EC407A" d="M34.29,37.07c0.69,0.69,1.02,1.55,1.02,2.49c0,3.96,0.03,17.19,0.03,26.81c0,1.91-0.06,3.58-0.09,4.87"/>
		<path id="kvg:s-s8" stroke="#00ACC1" d="M36.14,38.34c8.28-0.73,25.25-2.46,32.01-3.23c2.06-0.23,4.55-0.67,6.6-0.27"/>
		<path id="kvg:s-s9" stroke="#795548" d="M52.82,38.3c0.75,0.75,1.17,1.7,1.17,2.86c0,4.78-0.11,18.74-0.11,26.46"/>
		<path id="kvg:s-s10" stroke="#546E7A" d="M36.49,49.2c7.92-0.81,23.43-2.3,29.89-3.01c2.06-0.23,4.54-0.66,6.6-0.26"/>
		<path id="kvg:s-s11" stroke="#E53935" d="M36.69,59.28c8.09-0.83,23.92-1.97,30.07-2.58c2.01-0.2,4.16-0.59,6.17-0.2"/>
		<path id="kvg:s-s12" stroke="#FB8C00" d="M36.14,70.45c9.28-1.08,35.24-3.95,49.83-4.72c4.53-0.24,5.97,1.99,5.27,4.91c-2.11,8.87-5.86,17.12-9.32,23.08c-4.41,7.61-7.92,3.16-10.74,0.71"/>
		<g id="kvg:07be4-g5">
			<path id="kvg:s-s13" stroke="#FDD835" d="M22.07,81.08c-0.2,5.17-1.2,10.17-2.68,14.71"/>
			<path id="kvg:s-s14" stroke="#43A047" d="M35.38,79.6c2.18,2.29,4.25,8.6,4.79,12.17"/>
			<path id="kvg:s-s15" stroke="#1E88E5" d="M49.8,77.79c1.56,2.01,4.2,7.71,4.91,11.38"/>
			<path id="kvg:s-s16" stroke="#8E24AA" d="M63.52,73.72c2.42,1.98,6.25,8.14,6.86,11.22"/>
		</g>
	</g>
</g>
</g>
<g id="kvg:StrokeNumbers_07be4" style="font-size:18;font-weight:bold;stroke:#fff;stroke-width:1.5;paint-order:stroke">
	<text transform="matrix(1 0 0 1 23.25 11.50)" fill="#E53935">1</text>
	<text transform="matrix(1 0 0 1 37.50 18.13)" fill="#FB8C00">2</text>
	<text transform="matrix(1 0 0 1 30.75 31.55)" fill="#FDD835">3</text>
	<text transform="matrix(1 0 0 1 54.75 11.50)" fill="#43A047">4</text>
	<text transform="matrix(1 0 0 1 68.50 15.50)" fill="#1E88E5">5</text>
	<text transform="matrix(1 0 0 1 63.75 27.50)" fill="#8E24AA">6</text>
	<text transform="matrix(1 0 0 1 27.75 44.98)" fill="#EC407A">7</text>
	<text transform="matrix(1 0 0 1 43.50 34.63)" fill="#00ACC1">8</text>
	<text transform="matrix(1 0 0 1 57.50 43.50)" fill="#795548">9</text>
	<text transform="matrix(1 0 0 1 38.50 45.65)" fill="#546E7A">10</text>
	<text transform="matrix(1 0 0 1 38.50 56.08)" fill="#E53935">11</text>
	<text transform="matrix(1 0 0 1 38.50 66.50)" fill="#FB8C00">12</text>
	<text transform="matrix(1 0 0 1 12.75 80.50)" fill="#FDD835">13</text>
	<text transform="matrix(1 0 0 1 26.50 83.50)" fill="#43A047">14</text>
	<text transform="matrix(1 0 0 1 40.50 81.50)" fill="#1E88E5">15</text>
	<text transform="matrix(1 0 0 1 54.50 78.50)" fill="#8E24AA">16</text>
</g>
</svg>
