<?xml version="1.0" encoding="UTF-8"?>
<svg xmlns="http://www.w3.org/2000/svg" width="109" height="109" viewBox="0 0 109 109">
<g id="kvg:StrokePaths_07c98" style="fill:none;stroke:#000000;stroke-width:3;stroke-linecap:round;stroke-linejoin:round;">
<g id="kvg:07c98">
	<g id="kvg:07c98-g1">
		<path id="kvg:s-s1" stroke="#E53935" d="M18.15,26.29c2.88,2.1,7.23,8.05,7.96,11.33"/>
		<path id="kvg:s-s2" stroke="#FB8C00" d="M50.77,21.61c0.13,0.8,0.01,1.55-0.35,2.26c-1.47,3.85-3.82,7.49-7.64,12.31"/>
		<path id="kvg:s-s3" stroke="#FDD835" d="M15.16,46.2c1.76,0.7,4.31,0.39,6.1,0.04c6.53-1.29,18.43-3.25,25.24-4.2c1.71-0.24,4.04-0.51,5.75-0.1"/>
		<path id="kvg:s-s4" stroke="#43A047" d="M35.37,14.46c1.02,1.02,1.08,2.16,1.08,3.64c0,0.7,0.05,51.41,0.05,70.51c0,4.31,0,7.02-0.01,7.17"/>
		<path id="kvg:s-s5" stroke="#1E88E5" d="M35.1,45.37c0,1.13-0.42,2.58-1.43,4.43c-5.42,9.96-11.8,19.58-19.94,29.14"/>
		<path id="kvg:s-s6" stroke="#8E24AA" d="M39.14,52.78c2.98,2.35,7.36,7.35,9.11,11.92"/>
	</g>
	<g id="kvg:07c98-g2">
		<g id="kvg:07c98-g3">
			<path id="kvg:s-s7" stroke="#EC407A" d="M70.81,16.63c1.34,1.34,1.51,2.87,1.51,4.5c0,0.91,0,33.87,0,47"/>
			<path id="kvg:s-s8" stroke="#00ACC1" d="M73.25,43.75c7.27-0.75,15.35-2,16.36-2c1.01,0,2.83,0,3.64,0.25"/>
		</g>
		<g id="kvg:07c98-g4">
			<path id="kvg:s-s9" stroke="#795548" d="M54.91,69.3c0.9,0.9,1.29,1.79,1.41,2.93c1.05,5.27,2.14,11.86,3,18.51c0.23,1.83,0.45,3.58,0.64,5.17"/>
			<path id="kvg:s-s10" stroke="#546E7A" d="M56.96,70.44c10.68-1.17,24.61-2.1,31.07-2.75c3.07-0.3,5.18,0.89,4.53,4.2c-1.08,5.48-2.42,10.9-3.89,17.87"/>
			<path id="kvg:s-s11" stroke="#E53935" d="M60.86,92.41c6.21-0.33,15.6-0.97,24.67-1.44c2.1-0.11,4.12-0.2,6.01-0.25"/>
		</g>
	</g>
</g>
</g>
<g id="kvg:StrokeNumbers_07c98" style="font-size:18;font-weight:bold;stroke:#fff;stroke-width:1.5;paint-order:stroke">
	<text transform="matrix(1 0 0 1 11.25 25.63)" fill="#E53935">1</text>
	<text transform="matrix(1 0 0 1 42.50 20.50)" fill="#FB8C00">2</text>
	<text transform="matrix(1 0 0 1 8.50 47.50)" fill="#FDD835">3</text>
	<text transform="matrix(1 0 0 1 25.50 14.50)" fill="#43A047">4</text>
	<text transform="matrix(1 0 0 1 24.50 55.50)" fill="#1E88E5">5</text>
	<text transform="matrix(1 0 0 1 42.50 52.50)" fill="#8E24AA">6</text>
	<text transform="matrix(1 0 0 1 61.50 17.50)" fill="#EC407A">7</text>
	<text transform="matrix(1 0 0 1 76.50 40.50)" fill="#00ACC1">8</text>
	<text transform="matrix(1 0 0 1 48.75 76.48)" fill="#795548">9</text>
	<text transform="matrix(1 0 0 1 56.50 67.50)" fill="#546E7A">10</text>
	<text transform="matrix(1 0 0 1 62.50 89.50)" fill="#E53935">11</text>
</g>
</svg>
