<?xml version="1.0" encoding="UTF-8"?>
<svg xmlns="http://www.w3.org/2000/svg" width="109" height="109" viewBox="0 0 109 109">
<g id="kvg:StrokePaths_07cf8" style="fill:none;stroke:#000000;stroke-width:3;stroke-linecap:round;stroke-linejoin:round;">
<g id="kvg:07cf8">
	<path id="kvg:s-s1" stroke="#E53935" d="M51.25,11.5c0.5,1.5,0.28,2.9-0.75,4.5C46,23,38.12,31.75,32.25,35.75c-1.98,1.35-0.74,3.47,0.25,3.75c5.25,1.5,10.75,4,15.25,6.75"/>
	<path id="kvg:s-s2" stroke="#FB8C00" d="M70.5,21c0.62,1.38,0.38,2.75-1,4.25c-11.01,12.01-22.25,23.75-36,37c-1.66,1.6-1.01,2.46,1,2c9.38-2.12,31.75-7,42.5-9"/>
	<path id="kvg:s-s3" stroke="#FDD835" d="M72.25,47.25c3.71,2.78,9.57,11.43,10.5,15.75"/>
	<path id="kvg:s-s4" stroke="#43A047" d="M53,63c0.75,0.75,1.42,1.85,1.51,3.49c0.29,5.73,0.03,19.24-0.14,27.25c-0.06,3.03-0.11,5.27-0.11,6.01"/>
	<path id="kvg:s-s5" stroke="#1E88E5" d="M32.98,74.66c0.39,1.47,0.27,2.59-0.77,4.12c-2.85,4.19-10.79,11.02-15.46,14.31"/>
	<path id="kvg:s-s6" stroke="#8E24AA" d="M76.16,73.5c4.38,3.75,11.88,13.75,13.44,17.5"/>
</g>
</g>
<g id="kvg:StrokeNumbers_07cf8" style="font-size:18;fill:#E53935;font-weight:bold;stroke:#fff;stroke-width:1.5;paint-order:stroke">
	<text transform="matrix(1 0 0 1 43.50 11.50)" fill="#E53935">1</text>
	<text transform="matrix(1 0 0 1 63.50 21.50)" fill="#FB8C00">2</text>
	<text transform="matrix(1 0 0 1 69.50 43.50)" fill="#FDD835">3</text>
	<text transform="matrix(1 0 0 1 46.50 70.50)" fill="#43A047">4</text>
	<text transform="matrix(1 0 0 1 24.50 75.50)" fill="#1E88E5">5</text>
	<text transform="matrix(1 0 0 1 67.50 73.50)" fill="#8E24AA">6</text>
</g>
</svg>
