<?xml version="1.0" encoding="UTF-8"?>
<svg xmlns="http://www.w3.org/2000/svg" width="109" height="109" viewBox="0 0 109 109">
<g id="kvg:StrokePaths_07d05" style="fill:none;stroke:#000000;stroke-width:3;stroke-linecap:round;stroke-linejoin:round;">
<g id="kvg:07d05">
	<g id="kvg:07d05-g1">
		<path id="kvg:s-s1" stroke="#E53935" d="M30.08,17.17c0.29,1.14,0.23,2.57-0.4,3.74C26.95,26,23.68,31.37,19.65,36.18c-0.9,1.07-0.8,2.53,0.35,2.95c3.09,1.11,6.62,2.25,9.12,3.99"/>
		<path id="kvg:s-s2" stroke="#FB8C00" d="M41.8,26.43c0.2,0.82-0.07,2.5-0.5,3.09c-6.8,9.23-15.55,20.11-23.48,28.69c-2.45,2.66-1.27,4.74,1.65,3.84C26.12,60,31,58.12,41.02,54.77"/>
		<path id="kvg:s-s3" stroke="#FDD835" d="M38.38,48.38c2.34,2.22,6.04,9.14,6.62,12.6"/>
		<path id="kvg:s-s4" stroke="#43A047" d="M29.89,60.62c0.87,0.87,1.23,2.13,1.23,3.59c0,9.05-0.12,16.62-0.17,22.54c-0.02,1.79-0.03,3.51-0.03,5.17"/>
		<path id="kvg:s-s5" stroke="#1E88E5" d="M19.87,70.6c0.13,0.86,0.11,2.55-0.13,3.16c-1.57,4.01-5.51,11.73-7.74,15.17"/>
		<path id="kvg:s-s6" stroke="#8E24AA" d="M40.18,66.04c2.75,2.47,4.85,8.2,5.49,10.44"/>
	</g>
	<g id="kvg:07d05-g2">
		<path id="kvg:s-s7" stroke="#EC407A" d="M52.75,36.29c2.12,0.46,4.54,0.48,6.14,0.21c5.84-0.98,18.54-3.45,24.61-4.25c1.53-0.2,3.5-0.26,5,0.18"/>
		<path id="kvg:s-s8" stroke="#00ACC1" d="M69.04,37.5c0.92,0.92,1.41,2.25,1.41,3.74c0,13.44,0.02,22.76,0.02,38.51"/>
		<path id="kvg:s-s9" stroke="#795548" d="M45.5,82.87c2.36,0.82,5.78,0.81,8.15,0.41c11.98-2.03,24.6-4.16,35.86-4.77c2.41-0.13,5.49-0.08,7.74,0.82"/>
	</g>
</g>
</g>
<g id="kvg:StrokeNumbers_07d05" style="font-size:18;fill:#E53935;font-weight:bold;stroke:#fff;stroke-width:1.5;paint-order:stroke">
	<text transform="matrix(1 0 0 1 23.25 17.50)" fill="#E53935">1</text>
	<text transform="matrix(1 0 0 1 34.50 26.50)" fill="#FB8C00">2</text>
	<text transform="matrix(1 0 0 1 38.50 45.50)" fill="#FDD835">3</text>
	<text transform="matrix(1 0 0 1 24.50 69.50)" fill="#43A047">4</text>
	<text transform="matrix(1 0 0 1 12.50 73.50)" fill="#1E88E5">5</text>
	<text transform="matrix(1 0 0 1 34.50 72.50)" fill="#8E24AA">6</text>
	<text transform="matrix(1 0 0 1 51.50 33.50)" fill="#EC407A">7</text>
	<text transform="matrix(1 0 0 1 62.25 46.63)" fill="#00ACC1">8</text>
	<text transform="matrix(1 0 0 1 52.50 80.50)" fill="#795548">9</text>
</g>
</svg>
