<?xml version="1.0" encoding="UTF-8"?>
<svg xmlns="http://www.w3.org/2000/svg" width="109" height="109" viewBox="0 0 109 109">
<g id="kvg:StrokePaths_07d1b" style="fill:none;stroke:#000000;stroke-width:3;stroke-linecap:round;stroke-linejoin:round;">
<g id="kvg:07d1b">
	<g id="kvg:07d1b-g1">
		<path id="kvg:s-s1" stroke="#E53935" d="M27.88,16.17c0.34,1.34,0.23,2.38-0.42,3.8c-2.7,5.9-6.08,11.28-10.55,17.22c-0.78,1.04-1.15,2.43,0.5,3.1c3.56,1.45,5.1,1.83,8.97,3.56"/>
		<path id="kvg:s-s2" stroke="#FB8C00" d="M39.3,25.68c0.24,1.48-0.07,2.5-0.92,3.67c-6.74,9.27-15.17,20.83-23.06,29.36c-1.79,1.93-0.67,3.27,1.65,2.59c5.78-1.68,14.78-4.18,22.04-6.28"/>
		<path id="kvg:s-s3" stroke="#FDD835" d="M36.13,48.13c2.34,2.36,6.04,9.69,6.62,13.35"/>
		<path id="kvg:s-s4" stroke="#43A047" d="M28.39,60.87c0.81,0.81,0.98,2.26,0.98,4.09c0,8.47-0.02,18.55,0,25.61c0.01,2.56-0.12,4.21-0.12,6.05"/>
		<path id="kvg:s-s5" stroke="#1E88E5" d="M20.1,69.85c0.16,0.94,0.09,2.28-0.16,2.97c-1.82,5.19-5.32,12.06-9.2,17.12"/>
		<path id="kvg:s-s6" stroke="#8E24AA" d="M36.43,68.29c3,3.24,5.3,10.75,5.99,13.69"/>
	</g>
	<g id="kvg:07d1b-g2">
		<g id="kvg:07d1b-g3">
			<path id="kvg:s-s7" stroke="#EC407A" d="M59.66,21.75c0.39,1.13,0.27,2.3-0.18,3.3c-2.81,6.17-7.62,14.33-14.73,21.2"/>
			<path id="kvg:s-s8" stroke="#00ACC1" d="M67.99,15c5.67,1.09,13.47,15.72,20.05,22.58c2.03,2.11,4.17,4.14,6.71,5.67"/>
		</g>
		<g id="kvg:07d1b-g4">
			<path id="kvg:s-s9" stroke="#795548" d="M50.98,53.12c2.15,0.76,4.04,0.83,6.3,0.4c6.33-1.22,18.23-3.46,23.25-4.28c4.06-0.67,5.33,0.6,4.9,4.66c-0.96,9.04-4.13,24.92-9.88,35.65c-3.19,5.96-5.94,3.08-7.76,1.01"/>
			<path id="kvg:s-s10" stroke="#546E7A" d="M63.74,56c0.05,0.74,0.21,1.97-0.1,2.97C60,70.88,56.12,78.75,47.12,89.25"/>
		</g>
	</g>
</g>
</g>
<g id="kvg:StrokeNumbers_07d1b" style="font-size:18;font-weight:bold;stroke:#fff;stroke-width:1.5;paint-order:stroke">
	<text transform="matrix(1 0 0 1 21.50 15.13)" fill="#E53935">1</text>
	<text transform="matrix(1 0 0 1 32.25 25.63)" fill="#FB8C00">2</text>
	<text transform="matrix(1 0 0 1 29.50 51.50)" fill="#FDD835">3</text>
	<text transform="matrix(1 0 0 1 21.75 68.98)" fill="#43A047">4</text>
	<text transform="matrix(1 0 0 1 11.50 73.63)" fill="#1E88E5">5</text>
	<text transform="matrix(1 0 0 1 33.50 65.50)" fill="#8E24AA">6</text>
	<text transform="matrix(1 0 0 1 51.50 22.50)" fill="#EC407A">7</text>
	<text transform="matrix(1 0 0 1 61.50 15.50)" fill="#00ACC1">8</text>
	<text transform="matrix(1 0 0 1 51.75 50.50)" fill="#795548">9</text>
	<text transform="matrix(1 0 0 1 52.50 63.50)" fill="#546E7A">10</text>
</g>
</svg>
