<?xml version="1.0" encoding="UTF-8"?>
<svg xmlns="http://www.w3.org/2000/svg" width="109" height="109" viewBox="0 0 109 109">
<g id="kvg:StrokePaths_07d30" style="fill:none;stroke:#000000;stroke-width:3;stroke-linecap:round;stroke-linejoin:round;">
<g id="kvg:07d30">
	<g id="kvg:07d30-g1">
		<path id="kvg:s-s1" stroke="#E53935" d="M30.47,16.5c0.29,1.27,0.3,2.6-0.4,3.85c-3.03,5.51-7.49,12.35-11.23,16.54c-1.1,1.23-0.85,2.36,0.5,2.93c3.03,1.28,5.11,2.64,7.71,4.97"/>
		<path id="kvg:s-s2" stroke="#FB8C00" d="M40.29,27.75c0.34,1.25,0.32,2.11-0.5,3.19c-7.41,9.81-14.41,17.93-23.7,27.85c-1.14,1.21-0.13,3,1.13,2.6c5.28-1.67,18.46-4.69,25.25-6.29"/>
		<path id="kvg:s-s3" stroke="#FDD835" d="M38.5,48.25c2.65,2.34,6.34,9.11,7,12.75"/>
		<path id="kvg:s-s4" stroke="#43A047" d="M30.19,60.45c0.68,0.68,1.14,1.74,1.19,3.26c0.16,5.28,0.01,17.33-0.08,25.04c-0.03,2.92-0.06,5.07-0.06,5.75"/>
		<path id="kvg:s-s5" stroke="#1E88E5" d="M20.89,69.5c0.37,1.03,0.46,2.17-0.16,3.91c-1.89,5.33-5.31,12.12-7.73,15.51"/>
		<path id="kvg:s-s6" stroke="#8E24AA" d="M39.25,69c2.2,3.05,5.96,11.19,6.75,14.25"/>
	</g>
	<g id="kvg:07d30-g2">
		<path id="kvg:s-s7" stroke="#EC407A" d="M52.5,36.59c1.02,1.02,1.75,2.42,1.86,3.61c1.02,11.92,1.02,26.96,1.58,41.55c0.06,1.64,0.13,3.23,0.2,4.75"/>
		<path id="kvg:s-s8" stroke="#00ACC1" d="M55.02,38.49c10.16-0.97,27.78-3.28,34.38-4c2.8-0.31,4.22,2.17,4.07,4.47c-0.5,7.61-1.33,27.22-1.9,40.55c-0.06,1.4-0.12,2.73-0.17,3.98"/>
		<path id="kvg:s-s9" stroke="#795548" d="M71.27,39.4c0.92,0.92,1.46,2.35,1.46,4.35c0,8.59,0.18,35.76,0.18,36.48"/>
		<path id="kvg:s-s10" stroke="#546E7A" d="M56.43,59.6c9.57-1.23,26.2-2.85,35-3.16"/>
		<path id="kvg:s-s11" stroke="#E53935" d="M57.18,82.78c9.32-0.65,22.57-1.78,33.06-2.14"/>
	</g>
</g>
</g>
<g id="kvg:StrokeNumbers_07d30" style="font-size:18;fill:#E53935;font-weight:bold;stroke:#fff;stroke-width:1.5;paint-order:stroke">
	<text transform="matrix(1 0 0 1 23.50 14.50)" fill="#E53935">1</text>
	<text transform="matrix(1 0 0 1 37.75 23.50)" fill="#FB8C00">2</text>
	<text transform="matrix(1 0 0 1 39.75 46.63)" fill="#FDD835">3</text>
	<text transform="matrix(1 0 0 1 23.25 68.50)" fill="#43A047">4</text>
	<text transform="matrix(1 0 0 1 12.50 73.50)" fill="#1E88E5">5</text>
	<text transform="matrix(1 0 0 1 42.50 70.50)" fill="#8E24AA">6</text>
	<text transform="matrix(1 0 0 1 47.25 46.50)" fill="#EC407A">7</text>
	<text transform="matrix(1 0 0 1 55.50 34.63)" fill="#00ACC1">8</text>
	<text transform="matrix(1 0 0 1 65.00 46.50)" fill="#795548">9</text>
	<text transform="matrix(1 0 0 1 57.50 55.50)" fill="#546E7A">10</text>
	<text transform="matrix(1 0 0 1 58.50 78.50)" fill="#E53935">11</text>
</g>
</svg>
