<?xml version="1.0" encoding="UTF-8"?>
<svg xmlns="http://www.w3.org/2000/svg" width="109" height="109" viewBox="0 0 109 109">
<g id="kvg:StrokePaths_07d5e" style="fill:none;stroke:#000000;stroke-width:3;stroke-linecap:round;stroke-linejoin:round;">
<g id="kvg:07d5e">
	<g id="kvg:07d5e-g1">
		<path id="kvg:s-s1" stroke="#E53935" d="M30.13,14.17c0.34,1.34,0.44,2.37-0.17,3.8c-2.33,5.4-5.6,12.42-10.3,18.22c-0.65,0.81-0.9,2.18,0.5,2.6c3.68,1.1,5.97,1.83,9.22,3.31"/>
		<path id="kvg:s-s2" stroke="#FB8C00" d="M41.8,23.68c0.2,1.07,0.2,1.95-0.5,3.09c-5.9,9.68-14.8,21.36-23.48,31.44c-1.72,2-0.95,3.92,1.4,3.09c4.96-1.74,14.03-4.93,21.03-7.18"/>
		<path id="kvg:s-s3" stroke="#FDD835" d="M36.38,46.13c2.6,2.09,6.72,8.6,7.37,11.85"/>
		<path id="kvg:s-s4" stroke="#43A047" d="M30.14,59.62c1,1,1.23,2.51,1.23,3.84c0,6.82-0.06,19.98-0.1,27.42c-0.01,2.88-0.02,4.91-0.02,5.37"/>
		<path id="kvg:s-s5" stroke="#1E88E5" d="M19.62,71.6c0.12,0.89,0.1,2.66-0.12,3.29c-1.47,4.17-5.16,12.21-7.25,15.79"/>
		<path id="kvg:s-s6" stroke="#8E24AA" d="M40.43,68.79c2.12,3.29,3.75,10.95,4.24,13.94"/>
	</g>
	<g id="kvg:07d5e-g2">
		<g id="kvg:07d5e-g3">
			<path id="kvg:s-s7" stroke="#EC407A" d="M67.12,14.5c1.19,1.19,1.48,2.62,1.48,4.26c0,4.32-0.1,6.83-0.1,10.36"/>
			<path id="kvg:s-s8" stroke="#00ACC1" d="M49.25,31.76c2.37,0.49,4.34,0.53,6.74,0.19c8.84-1.25,22.66-3.3,30.13-3.91c2.05-0.17,4.25-0.17,6.04,0.25"/>
		</g>
		<g id="kvg:07d5e-g4">
			<path id="kvg:s-s9" stroke="#795548" d="M58.96,41.84c0.22,0.73,0.07,2.48-0.54,3.63c-2.67,5.03-5.89,9.85-10.17,13.98"/>
			<path id="kvg:s-s10" stroke="#546E7A" d="M77.52,38.73c5.65,3.5,10.31,7.54,13.13,11.79"/>
			<path id="kvg:s-s11" stroke="#E53935" d="M77.9,51.41c0.38,0.86,0.21,2.09-0.37,3.65C73.5,66,62,81.12,48.25,89.9"/>
			<path id="kvg:s-s12" stroke="#FB8C00" d="M56.59,58.27c2.15,0.18,16.41,15.1,28.08,26.68c2.82,2.8,5.85,5.13,8.1,6.91"/>
		</g>
	</g>
</g>
</g>
<g id="kvg:StrokeNumbers_07d5e" style="font-size:18;font-weight:bold;stroke:#fff;stroke-width:1.5;paint-order:stroke">
	<text transform="matrix(1 0 0 1 23.25 13.63)" fill="#E53935">1</text>
	<text transform="matrix(1 0 0 1 34.50 24.50)" fill="#FB8C00">2</text>
	<text transform="matrix(1 0 0 1 38.50 45.50)" fill="#FDD835">3</text>
	<text transform="matrix(1 0 0 1 24.75 68.90)" fill="#43A047">4</text>
	<text transform="matrix(1 0 0 1 11.25 76.33)" fill="#1E88E5">5</text>
	<text transform="matrix(1 0 0 1 36.75 79.63)" fill="#8E24AA">6</text>
	<text transform="matrix(1 0 0 1 59.50 14.50)" fill="#EC407A">7</text>
	<text transform="matrix(1 0 0 1 48.50 29.50)" fill="#00ACC1">8</text>
	<text transform="matrix(1 0 0 1 51.75 43.48)" fill="#795548">9</text>
	<text transform="matrix(1 0 0 1 66.50 39.13)" fill="#546E7A">10</text>
	<text transform="matrix(1 0 0 1 67.50 51.05)" fill="#E53935">11</text>
	<text transform="matrix(1 0 0 1 60.50 58.50)" fill="#FB8C00">12</text>
</g>
</svg>
