<?xml version="1.0" encoding="UTF-8"?>
<svg xmlns="http://www.w3.org/2000/svg" width="109" height="109" viewBox="0 0 109 109">
<g id="kvg:StrokePaths_07d61" style="fill:none;stroke:#000000;stroke-width:3;stroke-linecap:round;stroke-linejoin:round;">
<g id="kvg:07d61">
	<g id="kvg:07d61-g1">
		<path id="kvg:s-s1" stroke="#E53935" d="M29.13,13.92c0.34,1.34,0.57,2.43-0.17,3.8c-3.7,6.78-7.49,12.56-12.05,17.72c-1.15,1.31-1.15,2.68,0.5,3.35c3.56,1.45,4.6,1.83,8.47,4.31"/>
		<path id="kvg:s-s2" stroke="#FB8C00" d="M40.8,22.93c0.32,0.95,0.07,2.2-0.75,3.34c-6.62,9.2-16.3,20.98-24.73,30.19c-1.78,1.94,0.46,2.98,1.65,2.59c5-1.61,15.87-4.49,22.29-6.03"/>
		<path id="kvg:s-s3" stroke="#FDD835" d="M36.63,46.63c2.16,2,5.58,8.24,6.12,11.35"/>
		<path id="kvg:s-s4" stroke="#43A047" d="M27.15,58.41c0.87,0.87,1.23,2.01,1.23,3.84c0,8.45,0.02,18.61,0.03,25.5c0.01,2.73,0.01,5.1,0.01,6.92"/>
		<path id="kvg:s-s5" stroke="#1E88E5" d="M19.13,69.6c0.12,0.96,0.1,2.11-0.12,2.8c-1.42,4.5-4.63,12.85-7.51,17.53"/>
		<path id="kvg:s-s6" stroke="#8E24AA" d="M35.75,68.5c3.34,3.42,5.9,11.37,6.67,14.47"/>
	</g>
	<g id="kvg:07d61-g2">
		<g id="kvg:07d61-g3">
			<path id="kvg:s-s7" stroke="#EC407A" d="M62.54,14.25c0.05,0.66,0,1.74-0.35,2.63c-2.69,6.87-8.69,15.87-17.37,25.44"/>
			<path id="kvg:s-s8" stroke="#00ACC1" d="M62.51,22.16c0.33,0.04,1.78,0.11,2.71-0.11c4.4-1.05,9.71-2.34,14.19-3.43c3.08-0.75,3.95,1.1,3.16,3.14c-4.31,11.13-21.56,37.68-40.9,45.02"/>
			<path id="kvg:s-s9" stroke="#795548" d="M56.9,29.83c4.23,4.35,19.57,18.66,28.51,25.67c2.69,2.11,5.58,3.96,8.65,5.45"/>
		</g>
		<g id="kvg:07d61-g4">
			<path id="kvg:s-s10" stroke="#546E7A" d="M54.58,68.76c0.75,0.8,1.17,1.75,1.25,2.85c0.79,5.52,1.55,11.56,2.19,17.92c0.19,1.94,0.38,3.79,0.56,5.43"/>
			<path id="kvg:s-s11" stroke="#E53935" d="M56.83,70.97c8.68-1.25,19.36-2.46,24.94-3.07c3.57-0.39,5.31,0.18,4.26,4.12C84.5,77.75,83.25,83,81.57,90"/>
			<path id="kvg:s-s12" stroke="#FB8C00" d="M59.51,92.13c5.49-0.38,12.9-0.94,20.03-1.5c1.8-0.14,3.34,0,4.84,0"/>
		</g>
	</g>
</g>
</g>
<g id="kvg:StrokeNumbers_07d61" style="font-size:18;font-weight:bold;stroke:#fff;stroke-width:1.5;paint-order:stroke">
	<text transform="matrix(1 0 0 1 22.25 14.25)" fill="#E53935">1</text>
	<text transform="matrix(1 0 0 1 33.25 24.25)" fill="#FB8C00">2</text>
	<text transform="matrix(1 0 0 1 30.50 50.73)" fill="#FDD835">3</text>
	<text transform="matrix(1 0 0 1 21.25 65.65)" fill="#43A047">4</text>
	<text transform="matrix(1 0 0 1 10.25 70.25)" fill="#1E88E5">5</text>
	<text transform="matrix(1 0 0 1 31.25 77.25)" fill="#8E24AA">6</text>
	<text transform="matrix(1 0 0 1 54.25 14.25)" fill="#EC407A">7</text>
	<text transform="matrix(1 0 0 1 68.00 18.25)" fill="#00ACC1">8</text>
	<text transform="matrix(1 0 0 1 62.25 33.25)" fill="#795548">9</text>
	<text transform="matrix(1 0 0 1 45.25 75.25)" fill="#546E7A">10</text>
	<text transform="matrix(1 0 0 1 57.50 67.38)" fill="#E53935">11</text>
	<text transform="matrix(1 0 0 1 61.25 89.25)" fill="#FB8C00">12</text>
</g>
</svg>
