<?xml version="1.0" encoding="UTF-8"?>
<svg xmlns="http://www.w3.org/2000/svg" width="109" height="109" viewBox="0 0 109 109">
<g id="kvg:StrokePaths_07d75" style="fill:none;stroke:#000000;stroke-width:3;stroke-linecap:round;stroke-linejoin:round;">
<g id="kvg:07d75">
	<g id="kvg:07d75-g1">
		<path id="kvg:s-s1" stroke="#E53935" d="M29.9,14.25c0.31,1.21,0.01,2.7-0.66,3.94C26,24.25,20.53,32.65,17.42,35.49c-0.64,0.58-0.62,2.81,0,3.04c3.26,1.21,6.84,2.74,9.64,4.97"/>
		<path id="kvg:s-s2" stroke="#FB8C00" d="M38.53,28.69C39,30,38.64,31.49,37.9,32.6c-5.59,8.36-14.43,17.44-21.75,25.01c-1.74,1.8,0.43,2.83,1.57,2.47c4.75-1.53,12.62-2.77,18.73-4.24"/>
		<path id="kvg:s-s3" stroke="#FDD835" d="M34.75,49.25c2.38,2.12,6.15,9.21,6.75,12.5"/>
		<path id="kvg:s-s4" stroke="#43A047" d="M26.33,60.26c0.64,0.64,1.28,1.99,1.28,3.28c0,6.41,0.01,20.11-0.1,27.47c-0.04,2.57-0.06,4.49-0.06,5.25"/>
		<path id="kvg:s-s5" stroke="#1E88E5" d="M18,70.25c0.2,1.28,0.04,2.45-0.47,3.62c-1.62,3.7-4.88,9.8-6.78,12.63"/>
		<path id="kvg:s-s6" stroke="#8E24AA" d="M36,68.75c2.25,2.75,5.25,10,5.5,13.75"/>
	</g>
	<g id="kvg:07d75-g2">
		<g id="kvg:07d75-g3">
			<path id="kvg:s-s7" stroke="#EC407A" d="M67.28,14c0.13,1.76,0.07,2.9-0.62,4.57C63.14,27.07,57,40,46,51.06"/>
			<path id="kvg:s-s8" stroke="#00ACC1" d="M67.97,19.81C74.25,28.25,87,42.5,93.17,47.23c1.53,1.17,3.01,2.1,4.33,2.52"/>
		</g>
		<g id="kvg:07d75-g4">
			<g id="kvg:07d75-g5">
				<path id="kvg:s-s9" stroke="#795548" d="M56.6,52.22c0.7,0.2,3.01,0.29,3.7,0.2c5.57-0.67,11.57-2.05,15.69-2.33c1.16-0.08,2.89,0.1,3.47,0.2"/>
				<path id="kvg:s-s10" stroke="#546E7A" d="M47.75,67.36c1.5,0.25,4.27,0.41,5.75,0.25c10.37-1.11,23.5-2.86,33.77-3.3c2.5-0.11,4,0.12,5.25,0.25"/>
			</g>
			<g id="kvg:07d75-g6">
				<path id="kvg:s-s11" stroke="#E53935" d="M65.12,69.57c0.57,1.59,0.18,3.19-0.75,4.52c-2.33,3.31-5.46,7.64-10.84,13.68c-1.68,1.89-1.19,3.21,1.59,2.85c5.86-0.76,18.47-4.88,28.01-6.66"/>
				<path id="kvg:s-s12" stroke="#FB8C00" d="M78.5,76.25c3.44,2.96,8.89,12.15,9.75,16.75"/>
			</g>
		</g>
	</g>
</g>
</g>
<g id="kvg:StrokeNumbers_07d75" style="font-size:18;fill:#E53935;font-weight:bold;stroke:#fff;stroke-width:1.5;paint-order:stroke">
	<text transform="matrix(1 0 0 1 22.50 14.50)" fill="#E53935">1</text>
	<text transform="matrix(1 0 0 1 36.75 24.13)" fill="#FB8C00">2</text>
	<text transform="matrix(1 0 0 1 35.25 48.13)" fill="#FDD835">3</text>
	<text transform="matrix(1 0 0 1 20.25 79.63)" fill="#43A047">4</text>
	<text transform="matrix(1 0 0 1 8.25 70.63)" fill="#1E88E5">5</text>
	<text transform="matrix(1 0 0 1 44.25 78.13)" fill="#8E24AA">6</text>
	<text transform="matrix(1 0 0 1 59.25 12.13)" fill="#EC407A">7</text>
	<text transform="matrix(1 0 0 1 74.25 22.63)" fill="#00ACC1">8</text>
	<text transform="matrix(1 0 0 1 57.75 49.63)" fill="#795548">9</text>
	<text transform="matrix(1 0 0 1 48.75 64.63)" fill="#546E7A">10</text>
	<text transform="matrix(1 0 0 1 51.75 78.13)" fill="#E53935">11</text>
	<text transform="matrix(1 0 0 1 80.25 76.63)" fill="#FB8C00">12</text>
</g>
</svg>
