<?xml version="1.0" encoding="UTF-8"?>
<svg xmlns="http://www.w3.org/2000/svg" width="109" height="109" viewBox="0 0 109 109">
<g id="kvg:StrokePaths_07e2b" style="fill:none;stroke:#000000;stroke-width:3;stroke-linecap:round;stroke-linejoin:round;">
<g id="kvg:07e2b">
	<g id="kvg:07e2b-g1">
		<path id="kvg:s-s1" stroke="#E53935" d="M25.63,15.17c0.34,1.34,0.51,2.4-0.17,3.8c-3.2,6.53-6.49,12.82-11.05,17.97c-0.63,0.71-0.43,2.35,0.25,2.6c3.6,1.34,5.13,2.36,8.22,4.81"/>
		<path id="kvg:s-s2" stroke="#FB8C00" d="M33.55,29.68c0.32,1.2-0.05,2.2-0.75,3.34c-5.9,9.68-9.93,15.73-18.23,24.69c-1.79,1.93-0.82,3.29,1.65,2.59c5.05-1.43,9.03-2.68,15.79-4.53"/>
		<path id="kvg:s-s3" stroke="#FDD835" d="M29.13,50.38c2.07,1.61,5.35,6.6,5.87,9.1"/>
		<path id="kvg:s-s4" stroke="#43A047" d="M23.64,61.37c0.87,0.87,0.98,1.88,0.98,3.59c0,9.66-0.04,17.81-0.09,25.49c-0.02,2.29-0.03,4.58-0.03,6.92"/>
		<path id="kvg:s-s5" stroke="#1E88E5" d="M16.63,72.1c0.11,0.98,0.09,2.15-0.11,2.85C15.25,79.5,11.81,89.02,10,92.93"/>
		<path id="kvg:s-s6" stroke="#8E24AA" d="M30.43,70.54c2.37,2.35,4.19,7.81,4.74,9.94"/>
	</g>
	<g id="kvg:07e2b-g2">
		<g id="kvg:07e2b-g3">
			<g id="kvg:07e2b-g4">
				<path id="kvg:s-s7" stroke="#EC407A" d="M67.08,13c0.07,0.85-0.2,1.62-0.53,2.39c-2.31,5.41-6.76,12.7-13.8,20.03"/>
				<path id="kvg:s-s8" stroke="#00ACC1" d="M67.75,19.99c0.25,0.03,1.78,0.2,2.48,0.13c2.32-0.25,8.64-2.41,11.95-3.19c2.41-0.57,3.01,1.5,2.07,3.19c-5.01,9.01-18.51,20.76-33.3,26.29"/>
				<path id="kvg:s-s9" stroke="#795548" d="M61.17,27.53c3.02-0.01,16.95,6.72,25.94,11.04c2.37,1.14,5.29,2.52,7.92,2.8"/>
			</g>
			<g id="kvg:07e2b-g5">
				<g id="kvg:07e2b-g6">
					<g id="kvg:07e2b-g7">
						<path id="kvg:s-s10" stroke="#546E7A" d="M60.92,50.43c1.42,0.65,3.82,0.48,5.35,0.31c6.88-0.79,13.2-1.44,19.1-2.21c1.42-0.19,3.02-0.55,4.45-0.16"/>
					</g>
					<g id="kvg:07e2b-g8">
						<g id="kvg:07e2b-g9">
							<path id="kvg:s-s11" stroke="#E53935" d="M61.26,61.63c1.46,0.67,4.05,0.51,5.62,0.34c7.12-0.76,12.95-1.34,19.01-2.09c1.24-0.15,2.53-0.41,3.76-0.07"/>
						</g>
						<g id="kvg:07e2b-g10">
							<path id="kvg:s-s12" stroke="#FB8C00" d="M57.74,74.05c2.3,1.05,4.95,0.85,7.39,0.63c7.51-0.66,17.23-2.29,26.29-3.13c2.05-0.19,3.29-0.23,4.32,0.05"/>
						</g>
					</g>
				</g>
				<g id="kvg:07e2b-g11">
					<path id="kvg:s-s13" stroke="#FDD835" d="M74.81,41.19c0.93,0.93,1.02,2.06,1.02,3.42c0,6.27,0.08,24.31,0.02,35.89c-0.01,2.37-0.02,4.45-0.02,6.1"/>
				</g>
			</g>
		</g>
		<g id="kvg:07e2b-g12">
			<path id="kvg:s-s14" stroke="#43A047" d="M39.5,22.12c2.91,1.5,7.52,6.17,8.25,8.51"/>
			<path id="kvg:s-s15" stroke="#1E88E5" d="M39,57.22c2.04,0.93,3.39,0.46,4.3,0.23c0.9-0.23,6.88-3,8.24-3.46c1.36-0.46,2.37,0.9,1.49,2.3C43.75,71,44.25,65,51.3,74.92c0.9,1.26,0.67,2.54-0.68,3.71c-1.99,1.74-5.49,4.99-8,7.12"/>
			<path id="kvg:s-s16" stroke="#8E24AA" d="M37.25,87.15c2.28-0.35,6.77-0.59,10.27-0.52c5.48,0.12,22.87,4.83,26.23,5.72C82.87,94.78,88,96.25,95,96.51"/>
		</g>
	</g>
</g>
</g>
<g id="kvg:StrokeNumbers_07e2b" style="font-size:18;font-weight:bold;stroke:#fff;stroke-width:1.5;paint-order:stroke">
	<text transform="matrix(1 0 0 1 19.50 15.50)" fill="#E53935">1</text>
	<text transform="matrix(1 0 0 1 26.25 30.50)" fill="#FB8C00">2</text>
	<text transform="matrix(1 0 0 1 23.50 54.50)" fill="#FDD835">3</text>
	<text transform="matrix(1 0 0 1 17.25 68.90)" fill="#43A047">4</text>
	<text transform="matrix(1 0 0 1 8.50 75.50)" fill="#1E88E5">5</text>
	<text transform="matrix(1 0 0 1 29.50 68.50)" fill="#8E24AA">6</text>
	<text transform="matrix(1 0 0 1 59.50 12.50)" fill="#EC407A">7</text>
	<text transform="matrix(1 0 0 1 71.50 16.50)" fill="#00ACC1">8</text>
	<text transform="matrix(1 0 0 1 68.50 27.50)" fill="#795548">9</text>
	<text transform="matrix(1 0 0 1 51.50 52.50)" fill="#546E7A">10</text>
	<text transform="matrix(1 0 0 1 60.50 59.91)" fill="#E53935">11</text>
	<text transform="matrix(1 0 0 1 55.50 71.50)" fill="#FB8C00">12</text>
	<text transform="matrix(1 0 0 1 65.50 46.50)" fill="#FDD835">13</text>
	<text transform="matrix(1 0 0 1 35.50 19.63)" fill="#43A047">14</text>
	<text transform="matrix(1 0 0 1 37.50 54.05)" fill="#1E88E5">15</text>
	<text transform="matrix(1 0 0 1 28.50 89.50)" fill="#8E24AA">16</text>
</g>
</svg>
