<?xml version="1.0" encoding="UTF-8"?>
<svg xmlns="http://www.w3.org/2000/svg" width="109" height="109" viewBox="0 0 109 109">
<g id="kvg:StrokePaths_07f77" style="fill:none;stroke:#000000;stroke-width:3;stroke-linecap:round;stroke-linejoin:round;">
<g id="kvg:07f77">
	<g id="kvg:07f77-g1">
		<path id="kvg:s-s1" stroke="#E53935" d="M22.5,15.51c0.65,0.46,1.05,1.07,1.21,1.83c0.85,2.37,1.67,5.53,2.73,10.42c0.27,1.23,0.41,2.42,0.58,3.49"/>
		<path id="kvg:s-s2" stroke="#FB8C00" d="M24.13,16.19c7.6-0.84,46.73-3.65,57.76-4.5c3.33-0.26,5.86,1.18,5.03,4.47c-0.51,2.01-0.96,3.76-2.1,6.61c-0.56,1.41-1.16,2.81-1.76,4.15"/>
		<path id="kvg:s-s3" stroke="#FDD835" d="M42.97,15.85c0.78,0.78,1.11,2.01,1.2,2.66c0.58,4.11,1.18,6.6,1.37,8.4"/>
		<path id="kvg:s-s4" stroke="#43A047" d="M64.88,14.01c0.74,0.74,0.76,1.75,0.51,3.26c-0.64,3.86-1.1,7.19-1.35,8.22"/>
		<path id="kvg:s-s5" stroke="#1E88E5" d="M28.1,29.2c4.71-0.42,44.9-3.2,54.25-3.46"/>
	</g>
	<g id="kvg:07f77-g2">
		<g id="kvg:07f77-g3">
			<g id="kvg:07f77-g4">
				<path id="kvg:s-s6" stroke="#8E24AA" d="M34.76,36c0.27,1.15-0.3,1.94-1,2.74c-3.86,4.4-6.14,6.44-10.33,9.65c-1.36,1.04-1.1,2.11,0.88,1.79c4.95-0.8,17.32-3.3,24.97-4.42"/>
				<path id="kvg:s-s7" stroke="#EC407A" d="M45.25,40.38c3.28,1.69,8.47,6.94,9.29,9.56"/>
			</g>
			<g id="kvg:07f77-g5">
				<path id="kvg:s-s8" stroke="#00ACC1" d="M26.87,57.43c0.79,0.79,1.09,2.07,1.09,3.61c0,2.13-0.04,19.35,0,29.3c0.01,4.1,0.03,6.8,0.05,6.42"/>
				<path id="kvg:s-s9" stroke="#795548" d="M28.79,58.75c1.67-0.13,16.77-2.58,18.01-2.71c1.7-0.17,2.79,1.21,2.79,2.96c0,4.12-0.09,23.4-0.09,33.87c0,6.72-3.67,2.08-5.07,0.92"/>
				<path id="kvg:s-s10" stroke="#546E7A" d="M29.29,68.96c5.72-0.77,14.06-1.69,19.07-2.07"/>
				<path id="kvg:s-s11" stroke="#E53935" d="M29.21,79.42c4.46-0.39,13.72-1.55,18.88-1.81"/>
			</g>
		</g>
		<g id="kvg:07f77-g6">
			<g id="kvg:07f77-g7">
				<path id="kvg:s-s12" stroke="#FB8C00" d="M82.84,36.14c-0.09,0.99-0.79,1.9-1.22,2.22c-3.02,2.23-8.27,5.54-15.87,8.51"/>
				<path id="kvg:s-s13" stroke="#FDD835" d="M62.38,32.93c0.78,0.78,1,2.2,1,3.62c0,3.21-0.01,12.28-0.01,13.83c0,5.75,1.25,6.6,13.23,6.6c10.89,0,12.98-0.85,12.98-5.35"/>
			</g>
			<g id="kvg:07f77-g8">
				<path id="kvg:s-s14" stroke="#43A047" d="M86.24,66.59c0.01,1.09-0.55,1.8-1.33,2.46c-3.46,2.9-8.62,6.16-18.29,10.58"/>
				<path id="kvg:s-s15" stroke="#1E88E5" d="M63.5,64.38c0.99,0.99,1.36,2.13,1.36,3.93c0,4.69-0.02,16.4-0.02,18.05c0,6.14,2.22,7.46,15.18,7.46c11.74,0,13.96-1.31,13.96-5.15"/>
			</g>
		</g>
	</g>
</g>
</g>
<g id="kvg:StrokeNumbers_07f77" style="font-size:18;font-weight:bold;stroke:#fff;stroke-width:1.5;paint-order:stroke">
	<text transform="matrix(1 0 0 1 17.25 22.63)" fill="#E53935">1</text>
	<text transform="matrix(1 0 0 1 27.75 12.13)" fill="#FB8C00">2</text>
	<text transform="matrix(1 0 0 1 36.50 23.50)" fill="#FDD835">3</text>
	<text transform="matrix(1 0 0 1 58.50 22.00)" fill="#43A047">4</text>
	<text transform="matrix(1 0 0 1 29.50 26.50)" fill="#1E88E5">5</text>
	<text transform="matrix(1 0 0 1 25.50 39.50)" fill="#8E24AA">6</text>
	<text transform="matrix(1 0 0 1 40.50 41.50)" fill="#EC407A">7</text>
	<text transform="matrix(1 0 0 1 21.75 66.13)" fill="#00ACC1">8</text>
	<text transform="matrix(1 0 0 1 32.25 56.50)" fill="#795548">9</text>
	<text transform="matrix(1 0 0 1 31.50 66.05)" fill="#546E7A">10</text>
	<text transform="matrix(1 0 0 1 31.50 76.48)" fill="#E53935">11</text>
	<text transform="matrix(1 0 0 1 71.50 35.50)" fill="#FB8C00">12</text>
	<text transform="matrix(1 0 0 1 52.50 36.13)" fill="#FDD835">13</text>
	<text transform="matrix(1 0 0 1 74.50 66.50)" fill="#43A047">14</text>
	<text transform="matrix(1 0 0 1 54.50 64.50)" fill="#1E88E5">15</text>
</g>
</svg>
