<?xml version="1.0" encoding="UTF-8"?>
<svg xmlns="http://www.w3.org/2000/svg" width="109" height="109" viewBox="0 0 109 109">
<g id="kvg:StrokePaths_07fa8" style="fill:none;stroke:#000000;stroke-width:3;stroke-linecap:round;stroke-linejoin:round;">
<g id="kvg:07fa8">
	<g id="kvg:07fa8-g1">
		<g id="kvg:07fa8-g2">
			<path id="kvg:s-s1" stroke="#E53935" d="M35.03,11.7c3,1.77,7.51,7.01,8.27,9.75"/>
			<path id="kvg:s-s2" stroke="#FB8C00" d="M68.38,9.89c0,0.73-0.26,1.18-0.45,1.75C66.25,15,65.12,16.75,61.2,21"/>
			<path id="kvg:s-s3" stroke="#FDD835" d="M23.64,26.1c2.91,0.29,5.84,0.47,8.75,0.13c12.86-1.49,33.76-2.96,45.12-3.44c2.76-0.12,5.49-0.18,8.06,0.19"/>
		</g>
		<path id="kvg:s-s4" stroke="#43A047" d="M53.05,25.69c0.94,0.94,1.14,1.93,1.14,2.89c0,5.17-0.06,7.15-0.06,16.92"/>
		<path id="kvg:s-s5" stroke="#1E88E5" d="M28.36,36.61c2.63,0.45,5.24,0.27,7.91,0.03c9.98-0.89,26.41-2.2,36.11-2.66c2.78-0.3,5.55-0.23,8.3,0.2"/>
		<path id="kvg:s-s6" stroke="#8E24AA" d="M16.13,48.36c3.87,0.64,7.71,0.29,11.63,0c13.4-0.98,40.18-2.31,55.62-3.19c3.59-0.5,7.17-0.45,10.74,0.14"/>
	</g>
	<g id="kvg:07fa8-g3">
		<g id="kvg:07fa8-g4">
			<path id="kvg:s-s7" stroke="#EC407A" d="M22.95,55.5c3.72,0.83,9.37,3.68,10.3,4.98"/>
			<path id="kvg:s-s8" stroke="#00ACC1" d="M17.86,69.1c3.53,0.98,8.86,4.26,9.74,5.78"/>
			<path id="kvg:s-s9" stroke="#795548" d="M20.75,97.73c1.75,0.27,3.06-0.77,4.01-1.93c2.76-3.4,5.76-7.05,8.27-11.38"/>
		</g>
		<g id="kvg:07fa8-g5">
			<g id="kvg:07fa8-g6">
				<path id="kvg:s-s10" stroke="#546E7A" d="M56.41,49.75c0,1-0.24,2.01-0.58,2.61c-3.08,5.39-6.08,10.39-13.6,17.01"/>
				<path id="kvg:s-s11" stroke="#E53935" d="M54.01,58.48c1.54,0.45,3.08,0.3,4.62,0.05c3.65-0.41,18.5-1.91,24-2.3c7.04-0.5,3.6,4.75-1.76,9.14"/>
			</g>
			<g id="kvg:07fa8-g7">
				<path id="kvg:s-s12" stroke="#FB8C00" d="M64.57,64.62c0,1.26-0.15,2.17-0.4,3.4C62.38,76.5,54,92.12,36.54,99.75"/>
				<path id="kvg:s-s13" stroke="#FDD835" d="M63,76.5c3.51,3.32,12.39,11.32,19.79,16.6c2.81,2.04,5.8,3.79,8.96,5.28"/>
			</g>
		</g>
	</g>
</g>
</g>
<g id="kvg:StrokeNumbers_07fa8" style="font-size:18;font-weight:bold;stroke:#fff;stroke-width:1.5;paint-order:stroke">
	<text transform="matrix(1 0 0 1 28.75 12.88)" fill="#E53935">1</text>
	<text transform="matrix(1 0 0 1 58.00 8.50)" fill="#FB8C00">2</text>
	<text transform="matrix(1 0 0 1 16.75 26.23)" fill="#FDD835">3</text>
	<text transform="matrix(1 0 0 1 46.50 32.15)" fill="#43A047">4</text>
	<text transform="matrix(1 0 0 1 21.50 37.50)" fill="#1E88E5">5</text>
	<text transform="matrix(1 0 0 1 9.50 49.50)" fill="#8E24AA">6</text>
	<text transform="matrix(1 0 0 1 15.50 58.50)" fill="#EC407A">7</text>
	<text transform="matrix(1 0 0 1 10.50 70.50)" fill="#00ACC1">8</text>
	<text transform="matrix(1 0 0 1 12.50 97.50)" fill="#795548">9</text>
	<text transform="matrix(1 0 0 1 43.50 56.50)" fill="#546E7A">10</text>
	<text transform="matrix(1 0 0 1 59.50 55.50)" fill="#E53935">11</text>
	<text transform="matrix(1 0 0 1 52.50 68.50)" fill="#FB8C00">12</text>
	<text transform="matrix(1 0 0 1 66.75 78.50)" fill="#FDD835">13</text>
</g>
</svg>
