<?xml version="1.0" encoding="UTF-8"?>
<svg xmlns="http://www.w3.org/2000/svg" width="109" height="109" viewBox="0 0 109 109">
<g id="kvg:StrokePaths_07ffb" style="fill:none;stroke:#000000;stroke-width:3;stroke-linecap:round;stroke-linejoin:round;">
<g id="kvg:07ffb">
	<g id="kvg:07ffb-g1">
		<g id="kvg:07ffb-g2">
			<g id="kvg:07ffb-g3">
				<path id="kvg:s-s1" stroke="#E53935" d="M43.78,14c-0.16,1.12-0.63,1.75-1.52,2.25c-5.39,3-12.01,5.5-23.01,8.75"/>
			</g>
			<g id="kvg:07ffb-g4">
				<path id="kvg:s-s2" stroke="#FB8C00" d="M19.76,29.79c2.16,1.32,5.41,5.04,5.95,7.09"/>
				<path id="kvg:s-s3" stroke="#FDD835" d="M48.53,23.75c0.1,0.75-0.07,1.44-0.5,2.07c-1.13,2.45-2.89,5.26-6.06,8.48"/>
				<path id="kvg:s-s4" stroke="#43A047" d="M15.52,43.12c2.22,0.52,4.74,0.39,6.98,0.03c6.7-1.07,18.08-3.61,23.77-4.68c1.49-0.28,2.98-0.47,4.43-0.39"/>
				<path id="kvg:s-s5" stroke="#1E88E5" d="M34.4,24c0.8,0.8,1,1.63,1,3.27c0,3.84,0.09,17.24,0.04,27.74c-0.01,1.77-0.01,3.42-0.01,4.88"/>
				<path id="kvg:s-s6" stroke="#8E24AA" d="M34,42c0,1.5-0.67,3.03-2.11,5.05C26.47,54.66,17.98,63.06,10,67"/>
				<path id="kvg:s-s7" stroke="#EC407A" d="M39.63,45.85c3.62,1.4,8.12,5.15,10.4,8.26"/>
			</g>
		</g>
		<g id="kvg:07ffb-g5">
			<path id="kvg:s-s8" stroke="#00ACC1" d="M18.28,66.21c0.72,1.28,1.18,2.09,1.32,3.65c0.52,5.89,0.77,12.63,1.11,19.64c0.08,1.57,0.17,3.09,0.28,4.5"/>
			<path id="kvg:s-s9" stroke="#795548" d="M20.47,67.72c9-1.18,17.76-2.88,23.78-3.59c3.66-0.43,5.78-0.12,5.41,3.99c-0.42,4.63-0.84,11.69-1.85,18.22c-0.26,1.68-0.54,3.29-0.85,4.76"/>
			<path id="kvg:s-s10" stroke="#546E7A" d="M33.48,67.29c0.68,0.68,0.89,1.75,0.89,2.99c-0.01,5.85-0.11,17.64-0.11,19.55"/>
			<path id="kvg:s-s11" stroke="#E53935" d="M21.38,78.75c2.59-0.23,24.19-2.82,26.33-2.82"/>
			<path id="kvg:s-s12" stroke="#FB8C00" d="M21.91,91.98c7.09-0.48,16.23-2,24.13-2.13"/>
		</g>
	</g>
	<g id="kvg:07ffb-g6">
		<g id="kvg:07ffb-g7">
			<path id="kvg:s-s13" stroke="#FDD835" d="M56.27,25.41c1.48,0.34,2.73,0.34,4.07,0.11c4.34-0.76,7.33-1.66,8.63-1.94c2.16-0.45,3.71,0.55,3.71,2.86c0,2.56-0.04,51.1-0.04,63.31c0,9.3-6.65,1.16-7.39,0.4"/>
			<path id="kvg:s-s14" stroke="#43A047" d="M57.39,39.38c2.5,1.33,6.45,5.49,7.07,7.56"/>
			<path id="kvg:s-s15" stroke="#1E88E5" d="M57.66,67.62c1.59,0.63,2.59,0,3.46-1.05c0.51-0.62,3.12-3.61,5.29-6.58"/>
		</g>
		<g id="kvg:07ffb-g8">
			<path id="kvg:s-s16" stroke="#8E24AA" d="M78.22,23.09c1.65,0.54,3.35,0.57,4.82,0.36c3.09-0.44,7.12-1.32,8.44-1.46c2.15-0.23,3.71,0.89,3.71,2.86c0,0.94-0.06,51.27-0.06,63.48c0,10.93-6.39,1.59-7.13,0.83"/>
			<path id="kvg:s-s17" stroke="#EC407A" d="M80.75,39.38c2.5,1.24,6.45,5.11,7.07,7.04"/>
			<path id="kvg:s-s18" stroke="#00ACC1" d="M80.26,65.19c1.24,0.56,2.36,0.61,3.5-0.36c0.68-0.57,4.98-4.21,7.99-7.12"/>
		</g>
	</g>
</g>
</g>
<g id="kvg:StrokeNumbers_07ffb" style="font-size:18;font-weight:bold;stroke:#fff;stroke-width:1.5;paint-order:stroke">
	<text transform="matrix(1 0 0 1 34.50 13.63)" fill="#E53935">1</text>
	<text transform="matrix(1 0 0 1 12.50 33.50)" fill="#FB8C00">2</text>
	<text transform="matrix(1 0 0 1 40.50 26.50)" fill="#FDD835">3</text>
	<text transform="matrix(1 0 0 1 9.50 45.13)" fill="#43A047">4</text>
	<text transform="matrix(1 0 0 1 27.75 31.50)" fill="#1E88E5">5</text>
	<text transform="matrix(1 0 0 1 20.50 53.50)" fill="#8E24AA">6</text>
	<text transform="matrix(1 0 0 1 46.50 47.50)" fill="#EC407A">7</text>
	<text transform="matrix(1 0 0 1 12.50 75.50)" fill="#00ACC1">8</text>
	<text transform="matrix(1 0 0 1 25.50 64.50)" fill="#795548">9</text>
	<text transform="matrix(1 0 0 1 37.50 73.63)" fill="#546E7A">10</text>
	<text transform="matrix(1 0 0 1 23.25 76.50)" fill="#E53935">11</text>
	<text transform="matrix(1 0 0 1 23.25 89.50)" fill="#FB8C00">12</text>
	<text transform="matrix(1 0 0 1 53.50 22.63)" fill="#FDD835">13</text>
	<text transform="matrix(1 0 0 1 54.75 36.05)" fill="#43A047">14</text>
	<text transform="matrix(1 0 0 1 53.50 63.50)" fill="#1E88E5">15</text>
	<text transform="matrix(1 0 0 1 75.50 20.50)" fill="#8E24AA">16</text>
	<text transform="matrix(1 0 0 1 77.25 36.05)" fill="#EC407A">17</text>
	<text transform="matrix(1 0 0 1 76.50 61.50)" fill="#00ACC1">18</text>
</g>
</svg>
