<?xml version="1.0" encoding="UTF-8"?>
<svg xmlns="http://www.w3.org/2000/svg" width="109" height="109" viewBox="0 0 109 109">
<g id="kvg:StrokePaths_08089" style="fill:none;stroke:#000000;stroke-width:3;stroke-linecap:round;stroke-linejoin:round;">
<g id="kvg:08089">
	<path id="kvg:s-s1" stroke="#E53935" d="M19,30.27c1.11,1.11,1.44,2.82,1.44,4.56c0,5.46,0.16,39.85,0.21,53.67c0.01,3.04,0.02,5.09,0.02,5.61"/>
	<path id="kvg:s-s2" stroke="#FB8C00" d="M21.01,32.11c16.09-1.31,61.86-4.76,63.38-4.76c3.86,0,5.92,1.9,5.92,5.3c0,1.91,0.24,54.28,0.24,58.68c0,9.67-6.04,2.42-9.44-0.71"/>
	<path id="kvg:s-s3" stroke="#FDD835" d="M53.28,12.75C54,14,54.03,15.33,54.1,16.79c0.65,13.46-8.35,34.46-24.6,38.71"/>
	<path id="kvg:s-s4" stroke="#43A047" d="M54.5,37.25c8.56,3.18,22.11,13.06,24.25,18"/>
	<path id="kvg:s-s5" stroke="#1E88E5" d="M52,51.38c0.12,1.22,0.05,2.34-0.47,3.45c-3.28,7.05-11.03,17.05-21.23,22.4"/>
	<path id="kvg:s-s6" stroke="#8E24AA" d="M52,62.25C60.47,65.03,73.88,73.68,76,78"/>
</g>
</g>
<g id="kvg:StrokeNumbers_08089" style="font-size:18;fill:#E53935;font-weight:bold;stroke:#fff;stroke-width:1.5;paint-order:stroke">
	<text transform="matrix(1 0 0 1 13.50 39.50)" fill="#E53935">1</text>
	<text transform="matrix(1 0 0 1 24.50 28.50)" fill="#FB8C00">2</text>
	<text transform="matrix(1 0 0 1 44.50 14.50)" fill="#FDD835">3</text>
	<text transform="matrix(1 0 0 1 61.50 39.13)" fill="#43A047">4</text>
	<text transform="matrix(1 0 0 1 44.50 55.50)" fill="#1E88E5">5</text>
	<text transform="matrix(1 0 0 1 56.50 62.50)" fill="#8E24AA">6</text>
</g>
</svg>
