<?xml version="1.0" encoding="UTF-8"?>
<svg xmlns="http://www.w3.org/2000/svg" width="109" height="109" viewBox="0 0 109 109">
<g id="kvg:StrokePaths_08096" style="fill:none;stroke:#000000;stroke-width:3;stroke-linecap:round;stroke-linejoin:round;">
<g id="kvg:08096">
	<g id="kvg:08096-g1">
		<path id="kvg:s-s1" stroke="#E53935" d="M53.94,9.87c1.35,1.35,1.72,3.13,1.72,5.08c0,11.3,0,15.3,0,26.17"/>
		<path id="kvg:s-s2" stroke="#FB8C00" d="M28.38,20.62c4.1,2.63,10.6,10.31,11.63,14.4"/>
		<path id="kvg:s-s3" stroke="#FDD835" d="M81.2,16.15c0.08,1.03,0.09,1.81-0.4,2.72c-2.67,5-4.9,8.06-10.79,13.62"/>
	</g>
	<g id="kvg:08096-g2">
		<path id="kvg:s-s4" stroke="#43A047" d="M35.75,41.22c1.02,1.02,1.5,2.53,1.5,4c0,0.77,0.04,27.56,0.04,42.28c0,5.05-0.01,8.65-0.04,9.22"/>
		<path id="kvg:s-s5" stroke="#1E88E5" d="M38,43.47c6.62-0.72,30.5-3.62,32.75-3.75c3.62-0.22,5,1.16,5,4.75c0,10.78,0,25.75,0,46c0,11.03-6,2.78-8.25,1.03"/>
		<path id="kvg:s-s6" stroke="#8E24AA" d="M38.25,56.47c12-1.22,25.12-2.09,36.5-2.75"/>
		<path id="kvg:s-s7" stroke="#EC407A" d="M38.5,71.22c8-0.75,27-2.25,36.25-2.75"/>
	</g>
</g>
</g>
<g id="kvg:StrokeNumbers_08096" style="font-size:18;font-weight:bold;stroke:#fff;stroke-width:1.5;paint-order:stroke">
	<text transform="matrix(1 0 0 1 44.50 10.50)" fill="#E53935">1</text>
	<text transform="matrix(1 0 0 1 21.75 20.50)" fill="#FB8C00">2</text>
	<text transform="matrix(1 0 0 1 71.50 15.50)" fill="#FDD835">3</text>
	<text transform="matrix(1 0 0 1 29.50 49.63)" fill="#43A047">4</text>
	<text transform="matrix(1 0 0 1 43.50 39.50)" fill="#1E88E5">5</text>
	<text transform="matrix(1 0 0 1 43.50 52.55)" fill="#8E24AA">6</text>
	<text transform="matrix(1 0 0 1 43.50 67.48)" fill="#EC407A">7</text>
</g>
</svg>
