<?xml version="1.0" encoding="UTF-8"?>
<svg xmlns="http://www.w3.org/2000/svg" width="109" height="109" viewBox="0 0 109 109">
<g id="kvg:StrokePaths_080af" style="fill:none;stroke:#000000;stroke-width:3;stroke-linecap:round;stroke-linejoin:round;">
<g id="kvg:080af">
	<g id="kvg:080af-g1">
		<g id="kvg:080af-g2">
			<path id="kvg:s-s1" stroke="#E53935" d="M54.12,9.48c0.95,0.95,1.32,2.15,1.32,3.52c0,0.95,0.05,15.12,0.05,21.38"/>
			<path id="kvg:s-s2" stroke="#FB8C00" d="M57.96,21.27C61,21,67.75,19.75,72.33,19.48c1.62-0.1,2.02-0.23,3.04,0"/>
		</g>
		<path id="kvg:s-s3" stroke="#FDD835" d="M30.91,19.93c1.02,1.02,1.32,2.45,1.32,3.77c0,2.67-0.1,7.38-0.1,13.67"/>
		<path id="kvg:s-s4" stroke="#43A047" d="M18,38.94c4.25,0.68,7.67,0.27,11.24-0.26c15.76-2.31,34.88-4.31,50.65-5.41c3.65-0.25,7.01-0.06,10.61,0.66"/>
	</g>
	<g id="kvg:080af-g3">
		<path id="kvg:s-s5" stroke="#1E88E5" d="M38.56,47.73c0.7,0.89,0.89,2.02,0.89,3.42c0,2.6,0.03,26.3,0.02,38.85c0,3.75-0.01,6.35-0.04,6.81"/>
		<path id="kvg:s-s6" stroke="#8E24AA" d="M40.39,48.97c2.49-0.2,25.36-3.42,27.22-3.54c2.77-0.18,4.15,1.32,4.15,4.94c0,5.39-0.01,27.17-0.01,41.75c0,10.36-5.34,3.58-7.42,1.79"/>
		<path id="kvg:s-s7" stroke="#EC407A" d="M40.64,61.87c9.74-1.12,21.86-2.37,30.17-2.84"/>
		<path id="kvg:s-s8" stroke="#00ACC1" d="M40.51,75.87c7.61-0.87,22.19-2.39,29.88-2.79"/>
	</g>
</g>
</g>
<g id="kvg:StrokeNumbers_080af" style="font-size:18;font-weight:bold;stroke:#fff;stroke-width:1.5;paint-order:stroke">
	<text transform="matrix(1 0 0 1 44.25 9.50)" fill="#E53935">1</text>
	<text transform="matrix(1 0 0 1 60.75 17.50)" fill="#FB8C00">2</text>
	<text transform="matrix(1 0 0 1 21.75 19.63)" fill="#FDD835">3</text>
	<text transform="matrix(1 0 0 1 15.50 36.05)" fill="#43A047">4</text>
	<text transform="matrix(1 0 0 1 31.50 55.63)" fill="#1E88E5">5</text>
	<text transform="matrix(1 0 0 1 39.75 45.50)" fill="#8E24AA">6</text>
	<text transform="matrix(1 0 0 1 44.25 58.50)" fill="#EC407A">7</text>
	<text transform="matrix(1 0 0 1 44.21 72.50)" fill="#00ACC1">8</text>
</g>
</svg>
