<?xml version="1.0" encoding="UTF-8"?>
<svg xmlns="http://www.w3.org/2000/svg" width="109" height="109" viewBox="0 0 109 109">
<g id="kvg:StrokePaths_080a5" style="fill:none;stroke:#000000;stroke-width:3;stroke-linecap:round;stroke-linejoin:round;">
<g id="kvg:080a5">
	<g id="kvg:080a5-g1">
		<path id="kvg:s-s1" stroke="#E53935" d="M18.83,18.91c0.82,0.82,1.25,2.31,1.26,3.23C20.75,61.5,20,77.5,9,92"/>
		<path id="kvg:s-s2" stroke="#FB8C00" d="M21.1,21.07c1.52-0.23,14.01-2.57,15.15-2.83c2.03-0.46,3.54,1.13,3.54,3.33c0,5.68-0.13,45.86-0.13,64.31c0,11.84-5.91,3-7.32,1.55"/>
		<path id="kvg:s-s3" stroke="#FDD835" d="M21.35,39.11c6.65-0.86,9.9-1.36,17.3-2.1"/>
		<path id="kvg:s-s4" stroke="#43A047" d="M20.99,56.85c5.96-0.59,12.82-1.22,17.67-1.69"/>
	</g>
	<g id="kvg:080a5-g2">
		<g id="kvg:080a5-g3">
			<path id="kvg:s-s5" stroke="#1E88E5" d="M51.75,26.75c0.84,0.25,2.55,0.54,4.75,0.21c10.43-1.58,22.79-2.99,30.25-3.62c2.84-0.24,5.27,0.76,4.9,4.13c-0.53,4.77-1.65,9.86-3.05,17.24c-0.3,1.56-0.61,3.22-0.93,5"/>
			<path id="kvg:s-s6" stroke="#8E24AA" d="M70.27,27.93c0.9,0.9,1.34,2.32,1.34,3.58c0,6.49-0.11,7.24,0.01,17.61"/>
			<path id="kvg:s-s7" stroke="#EC407A" d="M55.2,51.4c3.78-0.45,26.55-2.4,31.49-2.4"/>
			<path id="kvg:s-s8" stroke="#00ACC1" d="M52.88,27.66c0.73,0.73,1.36,2.09,1.36,3.53C54.24,39.57,54,63.75,54,71c0,18,3.05,18.32,20.08,18.32c18.92,0,21.16-2.07,21.16-11.17"/>
		</g>
	</g>
</g>
</g>
<g id="kvg:StrokeNumbers_080a5" style="font-size:18;fill:#E53935;font-weight:bold;stroke:#fff;stroke-width:1.5;paint-order:stroke">
	<text transform="matrix(1 0 0 1 13.80 27.50)" fill="#E53935">1</text>
	<text transform="matrix(1 0 0 1 23.25 17.50)" fill="#FB8C00">2</text>
	<text transform="matrix(1 0 0 1 24.75 35.50)" fill="#FDD835">3</text>
	<text transform="matrix(1 0 0 1 24.75 53.50)" fill="#43A047">4</text>
	<text transform="matrix(1 0 0 1 56.25 23.50)" fill="#1E88E5">5</text>
	<text transform="matrix(1 0 0 1 64.50 36.13)" fill="#8E24AA">6</text>
	<text transform="matrix(1 0 0 1 58.50 48.05)" fill="#EC407A">7</text>
	<text transform="matrix(1 0 0 1 46.50 34.63)" fill="#00ACC1">8</text>
</g>
</svg>
