<?xml version="1.0" encoding="UTF-8"?>
<svg xmlns="http://www.w3.org/2000/svg" width="109" height="109" viewBox="0 0 109 109">
<g id="kvg:StrokePaths_081c6" style="fill:none;stroke:#000000;stroke-width:3;stroke-linecap:round;stroke-linejoin:round;">
<g id="kvg:081c6">
	<g id="kvg:081c6-g1">
		<path id="kvg:s-s1" stroke="#E53935" d="M18.59,19.79c0.81,0.81,0.99,1.94,1,2.92c0.28,26.17,1.16,53.54-9.59,72.13"/>
		<path id="kvg:s-s2" stroke="#FB8C00" d="M20.34,21.91c5.66-1.29,8.91-2.04,12.85-2.56c2.66-0.36,3.34,0.65,3.34,2.77c0,3.36,0,45.59,0,64.67c0,13.12-5.64,3.7-7.35,2.12"/>
		<path id="kvg:s-s3" stroke="#FDD835" d="M20.34,41.57c5.78-1.07,9.37-1.62,14.91-2.07"/>
		<path id="kvg:s-s4" stroke="#43A047" d="M20.04,60.51c5.21-0.64,9.96-1.14,16.03-1.77"/>
	</g>
	<g id="kvg:081c6-g2">
		<g id="kvg:081c6-g3">
			<g id="kvg:081c6-g4">
				<g id="kvg:081c6-g5">
					<path id="kvg:s-s5" stroke="#1E88E5" d="M63.6,13.95c1.04,1.04,1.53,2.43,1.53,3.49c0,3.81-0.01,3.92-0.01,7.18"/>
					<path id="kvg:s-s6" stroke="#8E24AA" d="M47.92,27.48c2.05,0.16,4.08,0.05,6.1-0.33c6.72-0.86,17.73-2.52,24.73-3.42c2.22-0.29,4.33-0.46,6.54-0.04"/>
				</g>
				<g id="kvg:081c6-g6">
					<path id="kvg:s-s7" stroke="#EC407A" d="M54,31.12c3.32,2.91,4.64,5.84,5.12,8"/>
					<path id="kvg:s-s8" stroke="#00ACC1" d="M76,27.75c0.17,1.15,0,1.88-0.31,2.76c-1.14,3.27-2.72,6.31-3.82,8.11"/>
					<path id="kvg:s-s9" stroke="#795548" d="M42.84,44.43c2.75,0.3,5.47,0.15,8.17-0.43c12.53-1.8,24.01-3.84,35.5-5.12c2.73-0.38,5.46-0.52,8.22-0.4"/>
				</g>
			</g>
			<g id="kvg:081c6-g7">
				<path id="kvg:s-s10" stroke="#546E7A" d="M50.55,52.76c0.72,0.72,1.01,2.31,1.12,2.97c0.49,2.98,1.7,10.43,2.39,14.78c0.32,1.72,0.55,3.45,0.68,5.19"/>
				<path id="kvg:s-s11" stroke="#E53935" d="M52.34,53.85c2.31-0.4,22.91-3.85,26.83-4.4c3.17-0.44,4.45,1.28,4.05,4.18c-0.46,3.38-1.23,8.78-2.1,13.64c-0.3,1.71-0.62,3.34-0.94,4.8"/>
				<path id="kvg:s-s12" stroke="#FB8C00" d="M53.98,63.19c3.12-0.44,24.17-3.51,27.7-4"/>
				<path id="kvg:s-s13" stroke="#FDD835" d="M55.75,72.58c4.61-0.65,17.91-2.11,23.87-2.94"/>
			</g>
		</g>
		<g id="kvg:081c6-g8">
			<path id="kvg:s-s14" stroke="#43A047" d="M47.91,83.34c0.23,1.59-2.24,8.99-4.06,11.88"/>
			<path id="kvg:s-s15" stroke="#1E88E5" d="M55.92,81.81c7.08,10.44,12.6,13.7,30.06,14.46c10.29,0.45,9.52-2.52,1.31-7.39"/>
			<path id="kvg:s-s16" stroke="#8E24AA" d="M70.88,79.13c2.37,4.37,5.11,4.84,5.79,1.85"/>
			<path id="kvg:s-s17" stroke="#EC407A" d="M90.31,74.5c3.51,1.61,6.01,3.93,9.02,8.91"/>
		</g>
	</g>
</g>
</g>
<g id="kvg:StrokeNumbers_081c6" style="font-size:18;font-weight:bold;stroke:#fff;stroke-width:1.5;paint-order:stroke">
	<text transform="matrix(1 0 0 1 12.50 27.50)" fill="#E53935">1</text>
	<text transform="matrix(1 0 0 1 22.50 18.50)" fill="#FB8C00">2</text>
	<text transform="matrix(1 0 0 1 24.50 37.50)" fill="#FDD835">3</text>
	<text transform="matrix(1 0 0 1 24.50 56.50)" fill="#43A047">4</text>
	<text transform="matrix(1 0 0 1 55.25 13.50)" fill="#1E88E5">5</text>
	<text transform="matrix(1 0 0 1 45.50 24.50)" fill="#8E24AA">6</text>
	<text transform="matrix(1 0 0 1 47.75 36.43)" fill="#EC407A">7</text>
	<text transform="matrix(1 0 0 1 67.50 33.10)" fill="#00ACC1">8</text>
	<text transform="matrix(1 0 0 1 41.50 41.50)" fill="#795548">9</text>
	<text transform="matrix(1 0 0 1 41.50 59.50)" fill="#546E7A">10</text>
	<text transform="matrix(1 0 0 1 52.75 51.88)" fill="#E53935">11</text>
	<text transform="matrix(1 0 0 1 56.00 60.05)" fill="#FB8C00">12</text>
	<text transform="matrix(1 0 0 1 57.25 69.73)" fill="#FDD835">13</text>
	<text transform="matrix(1 0 0 1 40.50 80.15)" fill="#43A047">14</text>
	<text transform="matrix(1 0 0 1 50.50 90.50)" fill="#1E88E5">15</text>
	<text transform="matrix(1 0 0 1 61.50 79.50)" fill="#8E24AA">16</text>
	<text transform="matrix(1 0 0 1 82.50 79.50)" fill="#EC407A">17</text>
</g>
</svg>
