<?xml version="1.0" encoding="UTF-8"?>
<svg xmlns="http://www.w3.org/2000/svg" width="109" height="109" viewBox="0 0 109 109">
<g id="kvg:StrokePaths_081ed" style="fill:none;stroke:#000000;stroke-width:3;stroke-linecap:round;stroke-linejoin:round;">
<g id="kvg:081ed">
	<g id="kvg:081ed-g1">
		<path id="kvg:s-s1" stroke="#E53935" d="M55.07,8.95c0.38,0.13-0.36,2.33-0.59,2.72c-1.57,2.57-3.18,6.07-6.89,9.45"/>
		<g id="kvg:081ed-g2">
			<path id="kvg:s-s2" stroke="#FB8C00" d="M34.94,22.15c1.02,1.02,1.44,2.35,1.54,3.89c0.41,6.37,0.81,19.69,1.48,29.71c0.11,1.72,0.23,3.34,0.35,4.81"/>
			<path id="kvg:s-s3" stroke="#FDD835" d="M37.26,24c5.24-0.5,31.75-3.22,34.98-3.39c2.69-0.14,4.13,1.27,4.08,3.86c-0.13,6.03-0.71,16.94-1.65,28.57c-0.12,1.47-0.25,2.96-0.38,4.45"/>
			<path id="kvg:s-s4" stroke="#43A047" d="M37.95,35.07c8.42-0.57,29.8-2.57,36.94-2.82"/>
			<path id="kvg:s-s5" stroke="#1E88E5" d="M38.49,45.6c10.76-0.85,26.38-2.1,35.98-2.46"/>
			<path id="kvg:s-s6" stroke="#8E24AA" d="M38.83,56.76c9.05-0.64,22.3-2.01,34.88-2.28"/>
		</g>
	</g>
	<g id="kvg:081ed-g3">
		<path id="kvg:s-s7" stroke="#EC407A" d="M18.88,71.86c3.04,0.73,5.81,0.56,8.89,0.29c14.61-1.27,36.36-2.9,52.99-4c3.1-0.21,5.91-0.09,9,0.36"/>
		<path id="kvg:s-s8" stroke="#00ACC1" d="M53.64,61.5c0.36,0.88,0.63,1.74,0.35,2.92C49.62,83.5,40.5,94.38,16.75,102.75"/>
		<path id="kvg:s-s9" stroke="#795548" d="M54.5,71c6.34,5.28,18.32,16.8,27.19,23.28c2.69,1.97,5.81,3.72,8.81,4.97"/>
	</g>
</g>
</g>
<g id="kvg:StrokeNumbers_081ed" style="font-size:18;font-weight:bold;stroke:#fff;stroke-width:1.5;paint-order:stroke">
	<text transform="matrix(1 0 0 1 46.50 8.50)" fill="#E53935">1</text>
	<text transform="matrix(1 0 0 1 28.50 30.50)" fill="#FB8C00">2</text>
	<text transform="matrix(1 0 0 1 39.50 20.50)" fill="#FDD835">3</text>
	<text transform="matrix(1 0 0 1 42.57 32.50)" fill="#43A047">4</text>
	<text transform="matrix(1 0 0 1 42.75 43.48)" fill="#1E88E5">5</text>
	<text transform="matrix(1 0 0 1 42.61 54.50)" fill="#8E24AA">6</text>
	<text transform="matrix(1 0 0 1 11.25 72.13)" fill="#EC407A">7</text>
	<text transform="matrix(1 0 0 1 44.25 66.50)" fill="#00ACC1">8</text>
	<text transform="matrix(1 0 0 1 68.50 79.63)" fill="#795548">9</text>
</g>
</svg>
