<?xml version="1.0" encoding="UTF-8"?>
<svg xmlns="http://www.w3.org/2000/svg" width="109" height="109" viewBox="0 0 109 109">
<g id="kvg:StrokePaths_08239" style="fill:none;stroke:#000000;stroke-width:3;stroke-linecap:round;stroke-linejoin:round;">
<g id="kvg:08239">
	<g id="kvg:08239-g1">
		<path id="kvg:s-s1" stroke="#E53935" d="M33.2,13.5c0.42,1.12,0.44,2.21,0,3.72c-0.96,3.28-2.46,6.16-4.46,9.78"/>
		<path id="kvg:s-s2" stroke="#FB8C00" d="M19.4,29.72c1.19,1.19,1.69,3,1.75,4.59C22.5,71.5,17.5,87.75,11.5,95"/>
		<path id="kvg:s-s3" stroke="#FDD835" d="M22.02,31.15c4.96-0.93,14.89-2.67,17.83-3.09c3.02-0.44,4.1,1.19,4.1,4c0,2.22-0.4,55.71-0.4,58.89c0,7.8-4.05,3.3-6.7,1.02"/>
		<path id="kvg:s-s4" stroke="#43A047" d="M30.28,39.52C32.25,42,33,44.5,33.62,46.49"/>
		<path id="kvg:s-s5" stroke="#1E88E5" d="M30.55,56.64c1.09,1.09,1.7,3.04,1.7,4.31c0,4.3-0.17,10.67-0.17,16.55c0,1.75,0.02,3,0.02,4.41"/>
		<path id="kvg:s-s6" stroke="#8E24AA" d="M10,56.5c0.88,1.25,2.35,1.31,3.75,1s28.5-7,35.5-8.75"/>
	</g>
	<g id="kvg:08239-g2">
		<g id="kvg:08239-g3">
			<path id="kvg:s-s7" stroke="#EC407A" d="M64.75,25c0.62,1.12,0.5,2.62-0.03,4.13c-1.89,5.41-7.1,17.24-10.72,22.49"/>
			<path id="kvg:s-s8" stroke="#00ACC1" d="M72.5,19.75c5.37,0.38,12,18.38,19.46,25.45c2.12,2.01,3.66,2.93,5.41,3.8"/>
		</g>
		<g id="kvg:08239-g4">
			<path id="kvg:s-s9" stroke="#795548" d="M57.1,63.97c1.09,1.09,1.66,2.35,1.86,3.72c0.91,6.06,1.91,11.61,2.8,18.73c0.17,1.39,0.34,2.76,0.49,4.07"/>
			<path id="kvg:s-s10" stroke="#546E7A" d="M59.25,64.99c9.25-1.24,22.91-2.59,28.18-2.76c2.15-0.07,3.45,1.4,3.07,3.22c-0.96,4.71-3.25,12.3-4.87,19.58"/>
			<path id="kvg:s-s11" stroke="#E53935" d="M63.33,87.53c7.3-0.53,13.64-0.86,21.43-1.2c1.09-0.05,2.19-0.09,3.3-0.14"/>
		</g>
	</g>
</g>
</g>
<g id="kvg:StrokeNumbers_08239" style="font-size:18;fill:#E53935;font-weight:bold;stroke:#fff;stroke-width:1.5;paint-order:stroke">
	<text transform="matrix(1 0 0 1 25.50 12.50)" fill="#E53935">1</text>
	<text transform="matrix(1 0 0 1 13.50 38.50)" fill="#FB8C00">2</text>
	<text transform="matrix(1 0 0 1 21.75 28.63)" fill="#FDD835">3</text>
	<text transform="matrix(1 0 0 1 24.75 46.50)" fill="#43A047">4</text>
	<text transform="matrix(1 0 0 1 25.25 64.50)" fill="#1E88E5">5</text>
	<text transform="matrix(1 0 0 1 2.50 58.63)" fill="#8E24AA">6</text>
	<text transform="matrix(1 0 0 1 57.00 29.00)" fill="#EC407A">7</text>
	<text transform="matrix(1 0 0 1 74.50 17.50)" fill="#00ACC1">8</text>
	<text transform="matrix(1 0 0 1 51.25 71.50)" fill="#795548">9</text>
	<text transform="matrix(1 0 0 1 58.50 62.50)" fill="#546E7A">10</text>
	<text transform="matrix(1 0 0 1 64.50 84.50)" fill="#E53935">11</text>
</g>
</svg>
