<?xml version="1.0" encoding="UTF-8"?>
<svg xmlns="http://www.w3.org/2000/svg" width="109" height="109" viewBox="0 0 109 109">
<g id="kvg:StrokePaths_0826f" style="fill:none;stroke:#000000;stroke-width:3;stroke-linecap:round;stroke-linejoin:round;">
<g id="kvg:0826f">
	<path id="kvg:s-s1" stroke="#E53935" d="M51.34,9.75c0.89,0.89,1.28,2.5,1.28,3.78c0,1.99,0.06,7.1,0.06,10.09"/>
	<g id="kvg:0826f-g1">
		<path id="kvg:s-s2" stroke="#FB8C00" d="M31.12,26.12c1.12,0.75,2.87,1.09,4.75,0.8c11.75-1.8,33.19-4.43,35.54-4.56c2.3-0.12,3.71,1.5,3.61,3.28c-0.25,4.37-1.94,14.62-3.6,22.76c-0.27,1.31-0.54,2.57-0.8,3.75"/>
		<path id="kvg:s-s3" stroke="#FDD835" d="M35.19,39.95c10.56-1.58,29.98-3.58,37.32-4.04"/>
		<path id="kvg:s-s4" stroke="#43A047" d="M35.33,53.33c11.05-1.2,23.44-2.23,34.81-3.11"/>
		<path id="kvg:s-s5" stroke="#1E88E5" d="M32.51,27.24c1.12,1.12,1.61,2.71,1.61,3.88c0,4.63,0.1,54.75,0.1,59.57c0,2.54,1.03,4.81,3.62,2.95c4.96-3.57,8.91-6.64,14.91-11.39"/>
		<path id="kvg:s-s6" stroke="#8E24AA" d="M82.05,52.69c0.2,1.56-0.43,2.87-1.54,4.01c-1.75,1.8-8.5,7.92-14.87,12.49"/>
		<path id="kvg:s-s7" stroke="#EC407A" d="M44.32,61.84c5.72,0,35.24,24.86,39.64,27.33c3.91,2.2,5.91,3.32,9.61,4.37"/>
	</g>
</g>
</g>
<g id="kvg:StrokeNumbers_0826f" style="font-size:18;fill:#E53935;font-weight:bold;stroke:#fff;stroke-width:1.5;paint-order:stroke">
	<text transform="matrix(1 0 0 1 42.50 10.50)" fill="#E53935">1</text>
	<text transform="matrix(1 0 0 1 36.50 23.50)" fill="#FB8C00">2</text>
	<text transform="matrix(1 0 0 1 39.75 35.50)" fill="#FDD835">3</text>
	<text transform="matrix(1 0 0 1 39.75 49.50)" fill="#43A047">4</text>
	<text transform="matrix(1 0 0 1 26.50 35.50)" fill="#1E88E5">5</text>
	<text transform="matrix(1 0 0 1 84.50 51.13)" fill="#8E24AA">6</text>
	<text transform="matrix(1 0 0 1 39.50 61.50)" fill="#EC407A">7</text>
</g>
</svg>
