<?xml version="1.0" encoding="UTF-8"?>
<svg xmlns="http://www.w3.org/2000/svg" width="109" height="109" viewBox="0 0 109 109">
<g id="kvg:StrokePaths_0828b" style="fill:none;stroke:#000000;stroke-width:3;stroke-linecap:round;stroke-linejoin:round;">
<g id="kvg:0828b">
	<g id="kvg:0828b-g1">
		<path id="kvg:s-s1" stroke="#E53935" d="M22.59,25.34c2.78,0.41,5.58,0.37,8.03,0.14c12.12-1.15,34.64-3.71,47.76-4.31c2.92-0.13,5.91-0.33,8.78,0.37"/>
		<path id="kvg:s-s2" stroke="#FB8C00" d="M37.1,12.37c1.19,1.28,1.58,2.42,1.7,3.21c1.19,7.38,1.71,13.98,2.05,16.67"/>
		<path id="kvg:s-s3" stroke="#FDD835" d="M70.07,11.5c0.27,0.96,0.38,2.18,0.07,3.36c-1.78,6.94-2.59,9.42-4.53,15.95"/>
	</g>
	<g id="kvg:0828b-g2">
		<g id="kvg:0828b-g3">
			<g id="kvg:0828b-g4">
				<path id="kvg:s-s4" stroke="#43A047" d="M29.51,41.53c2.37,0.47,4.6,0.29,6.74,0.05c7.53-0.83,22.83-2.52,32-3.31c2.47-0.21,5.2-0.3,7.62,0.3"/>
			</g>
			<g id="kvg:0828b-g5">
				<path id="kvg:s-s5" stroke="#1E88E5" d="M15.75,59.49c2.93,1.13,6.94,0.7,10,0.41c13.31-1.23,41.85-4.12,57.62-4.54c3.13-0.08,6.3-0.21,9.38,0.5"/>
			</g>
		</g>
		<g id="kvg:0828b-g6">
			<path id="kvg:s-s6" stroke="#8E24AA" d="M53.58,42.83c1.23,1.23,1.73,3.04,1.73,5.13c0,14.24,0.05,37.76,0.05,42.61c0,10.26-7.23,0.68-8.55-0.73"/>
		</g>
	</g>
</g>
</g>
<g id="kvg:StrokeNumbers_0828b" style="font-size:18;font-weight:bold;stroke:#fff;stroke-width:1.5;paint-order:stroke">
	<text transform="matrix(1 0 0 1 15.75 25.63)" fill="#E53935">1</text>
	<text transform="matrix(1 0 0 1 27.75 13.63)" fill="#FB8C00">2</text>
	<text transform="matrix(1 0 0 1 60.75 13.63)" fill="#FDD835">3</text>
	<text transform="matrix(1 0 0 1 21.75 43.63)" fill="#43A047">4</text>
	<text transform="matrix(1 0 0 1 7.50 61.50)" fill="#1E88E5">5</text>
	<text transform="matrix(1 0 0 1 46.50 50.50)" fill="#8E24AA">6</text>
</g>
</svg>
