<?xml version="1.0" encoding="UTF-8"?>
<svg xmlns="http://www.w3.org/2000/svg" width="109" height="109" viewBox="0 0 109 109">
<g id="kvg:StrokePaths_082af" style="fill:none;stroke:#000000;stroke-width:3;stroke-linecap:round;stroke-linejoin:round;">
<g id="kvg:082af">
	<g id="kvg:082af-g1">
		<path id="kvg:s-s1" stroke="#E53935" d="M17.5,31.58c5.5,0.92,10.45,0.07,15.77-0.66c13.4-1.85,31.58-3.82,44.09-4.39c4.29-0.22,8.59-0.08,12.88,0.41"/>
		<path id="kvg:s-s2" stroke="#FB8C00" d="M36.5,18.25c1,1,1.35,2.11,1.5,3c1.62,9.38,2.75,18,3.25,21"/>
		<path id="kvg:s-s3" stroke="#FDD835" d="M68.94,13.75c0.56,1.38,0.29,2.77-0.03,4.31c-1.66,8.07-3.16,14.57-4.84,22.69"/>
	</g>
	<g id="kvg:082af-g2">
		<path id="kvg:s-s4" stroke="#43A047" d="M23.64,68.82c0.42,2.78-4.95,15.29-8.31,19.92"/>
		<path id="kvg:s-s5" stroke="#1E88E5" d="M33.08,60.75C42.5,86.5,47.5,96.5,77.03,95.43c12.7-0.46,14.03-3.06,3.44-11.7"/>
		<path id="kvg:s-s6" stroke="#8E24AA" d="M56.91,60.25c2.17,5.25,6.82,13,9.13,4.96"/>
		<path id="kvg:s-s7" stroke="#EC407A" d="M83.63,57.23c7.24,4.64,11.37,8.02,13.6,12.86"/>
	</g>
</g>
</g>
<g id="kvg:StrokeNumbers_082af" style="font-size:18;font-weight:bold;stroke:#fff;stroke-width:1.5;paint-order:stroke">
	<text transform="matrix(1 0 0 1 10.50 32.50)" fill="#E53935">1</text>
	<text transform="matrix(1 0 0 1 26.50 17.50)" fill="#FB8C00">2</text>
	<text transform="matrix(1 0 0 1 58.50 13.50)" fill="#FDD835">3</text>
	<text transform="matrix(1 0 0 1 17.50 65.50)" fill="#43A047">4</text>
	<text transform="matrix(1 0 0 1 26.50 57.50)" fill="#1E88E5">5</text>
	<text transform="matrix(1 0 0 1 50.50 60.50)" fill="#8E24AA">6</text>
	<text transform="matrix(1 0 0 1 77.50 58.50)" fill="#EC407A">7</text>
</g>
</svg>
