<?xml version="1.0" encoding="UTF-8"?>
<svg xmlns="http://www.w3.org/2000/svg" width="109" height="109" viewBox="0 0 109 109">
<g id="kvg:StrokePaths_082b3" style="fill:none;stroke:#000000;stroke-width:3;stroke-linecap:round;stroke-linejoin:round;">
<g id="kvg:082b3">
	<g id="kvg:082b3-g1">
		<path id="kvg:s-s1" stroke="#E53935" d="M18.5,25.52c2.4,0.98,6.24,1.25,8.76,0.91c15.99-2.18,38.93-4.62,53.11-5.28c2.95-0.14,6.25,0.18,9.12,0.88"/>
		<path id="kvg:s-s2" stroke="#FB8C00" d="M36.5,13.25c0.88,0.88,1.5,2,1.75,3.75c1.23,8.58,1.12,10.75,1.75,17.5"/>
		<path id="kvg:s-s3" stroke="#FDD835" d="M70.25,10.75c0.42,1.18,0.22,2.3-0.25,3.75c-2.75,8.5-4,13.38-6,19"/>
	</g>
	<g id="kvg:082b3-g2">
		<g id="kvg:082b3-g3">
			<path id="kvg:s-s4" stroke="#43A047" d="M52.84,32.52c1.13,1.13,1.52,2.61,1.52,4.28c0,1.46-0.11,6.46-0.11,8.08"/>
			<path id="kvg:s-s5" stroke="#1E88E5" d="M14,48.37c3.62,0.88,6.66,0.48,10.25,0.13c13.58-1.32,43.9-3.8,59.62-4.78c3.29-0.21,7.77-0.21,10.88,0.95"/>
		</g>
		<g id="kvg:082b3-g4">
			<path id="kvg:s-s6" stroke="#8E24AA" d="M50.34,60.27c7.66,1.98,16.49,2.1,22.24,1.69c3.38-0.24,5.27,1.25,4.21,4.64c-2.17,6.95-12.49,25.57-16.78,29.27c-5.07,4.38-7.51-0.37-8.48-2.76"/>
			<path id="kvg:s-s7" stroke="#EC407A" d="M53.01,49.77c0.09,1-0.11,2.38-0.69,3.77c-4,9.6-14.94,27.59-33.07,37.73"/>
		</g>
	</g>
</g>
</g>
<g id="kvg:StrokeNumbers_082b3" style="font-size:18;font-weight:bold;stroke:#fff;stroke-width:1.5;paint-order:stroke">
	<text transform="matrix(1 0 0 1 12.75 26.50)" fill="#E53935">1</text>
	<text transform="matrix(1 0 0 1 27.50 13.63)" fill="#FB8C00">2</text>
	<text transform="matrix(1 0 0 1 60.75 10.63)" fill="#FDD835">3</text>
	<text transform="matrix(1 0 0 1 44.25 34.50)" fill="#43A047">4</text>
	<text transform="matrix(1 0 0 1 6.75 49.50)" fill="#1E88E5">5</text>
	<text transform="matrix(1 0 0 1 57.50 59.50)" fill="#8E24AA">6</text>
	<text transform="matrix(1 0 0 1 43.50 56.50)" fill="#EC407A">7</text>
</g>
</svg>
