<?xml version="1.0" encoding="UTF-8"?>
<svg xmlns="http://www.w3.org/2000/svg" width="109" height="109" viewBox="0 0 109 109">
<g id="kvg:StrokePaths_08302" style="fill:none;stroke:#000000;stroke-width:3;stroke-linecap:round;stroke-linejoin:round;">
<g id="kvg:08302">
	<g id="kvg:08302-g1">
		<path id="kvg:s-s1" stroke="#E53935" d="M18.5,27.02c2.4,0.97,5.72,0.96,8.24,0.66c13.13-1.56,35.49-4.17,49.64-4.96c3.42-0.19,7.03-0.02,10.37,0.8"/>
		<path id="kvg:s-s2" stroke="#FB8C00" d="M33.75,16c0.94,0.94,1.31,2.12,1.5,3c1.75,8.25,3,15,3.5,18"/>
		<path id="kvg:s-s3" stroke="#FDD835" d="M70.5,11.5c0.42,1.18,0.35,2.27,0,3.75C69,21.5,68,27.75,66.5,35"/>
	</g>
	<g id="kvg:08302-g2">
		<g id="kvg:08302-g3">
			<g id="kvg:08302-g4">
				<path id="kvg:s-s4" stroke="#43A047" d="M24.98,51.08c0.97,0.97,1.21,2.36,1.18,3.83c-0.32,13.63-2.03,29.22-12.1,40.45"/>
			</g>
		</g>
		<g id="kvg:08302-g5">
			<g id="kvg:08302-g6">
				<g id="kvg:08302-g7">
					<path id="kvg:s-s5" stroke="#1E88E5" d="M25.75,51.53c2.33,0.22,4.7-0.13,7-0.45c12.98-1.81,25.13-3.71,39.13-4.91c3.27-0.28,6.03-0.07,9.39,0.51"/>
				</g>
				<path id="kvg:s-s6" stroke="#8E24AA" d="M52.92,34.75c1.79,1.37,2.36,3.24,2.65,6.19c2.29,23.05,13.19,45.43,34.21,54.55c6.95,3.01,5.68,1.09,4.79-4.97"/>
			</g>
			<g id="kvg:08302-g8">
				<path id="kvg:s-s7" stroke="#EC407A" d="M76.98,56.3c0.11,0.83-0.15,1.95-0.72,3.09C72.5,67,61.75,82.12,40.39,92.49"/>
			</g>
			<g id="kvg:08302-g9">
				<g id="kvg:08302-g10">
					<path id="kvg:s-s8" stroke="#00ACC1" d="M81.61,33.82c3.26,2.11,8.46,6.94,9.98,10.56"/>
				</g>
			</g>
		</g>
	</g>
</g>
</g>
<g id="kvg:StrokeNumbers_08302" style="font-size:18;font-weight:bold;stroke:#fff;stroke-width:1.5;paint-order:stroke">
	<text transform="matrix(1 0 0 1 11.50 27.13)" fill="#E53935">1</text>
	<text transform="matrix(1 0 0 1 23.50 16.63)" fill="#FB8C00">2</text>
	<text transform="matrix(1 0 0 1 60.50 12.13)" fill="#FDD835">3</text>
	<text transform="matrix(1 0 0 1 15.75 61.63)" fill="#43A047">4</text>
	<text transform="matrix(1 0 0 1 24.75 48.13)" fill="#1E88E5">5</text>
	<text transform="matrix(1 0 0 1 45.75 41.50)" fill="#8E24AA">6</text>
	<text transform="matrix(1 0 0 1 68.50 58.50)" fill="#EC407A">7</text>
	<text transform="matrix(1 0 0 1 74.50 35.50)" fill="#00ACC1">8</text>
</g>
</svg>
