<?xml version="1.0" encoding="UTF-8"?>
<svg xmlns="http://www.w3.org/2000/svg" width="109" height="109" viewBox="0 0 109 109">
<g id="kvg:StrokePaths_08352" style="fill:none;stroke:#000000;stroke-width:3;stroke-linecap:round;stroke-linejoin:round;">
<g id="kvg:08352">
	<g id="kvg:08352-g1">
		<path id="kvg:s-s1" stroke="#E53935" d="M20.75,27.77c4,0.73,7.33,0.32,10.74-0.09c15.01-1.81,32.16-3.25,45.01-3.96c3.59-0.2,7.22-0.06,10.75,0.8"/>
		<path id="kvg:s-s2" stroke="#FB8C00" d="M38.75,16c1,1,1.38,2.12,1.5,3.5c0.77,8.48,1,12,1.5,18.5"/>
		<path id="kvg:s-s3" stroke="#FDD835" d="M70.75,11.5c0.5,1.12,0.52,2.5,0.25,4C70,21,68.5,28,67,35"/>
	</g>
	<g id="kvg:08352-g2">
		<g id="kvg:08352-g3">
			<g id="kvg:08352-g4">
				<path id="kvg:s-s4" stroke="#43A047" d="M52.82,34.6c0.98,0.98,1.19,2.27,1.19,3.6c0,1.43-0.01,3.43-0.01,4.68"/>
				<g id="kvg:08352-g5">
					<path id="kvg:s-s5" stroke="#1E88E5" d="M24.22,46.34c3.41,0.41,5.54,0.39,8.52,0c12.01-1.59,29-3.44,40-4.15c2.68-0.17,5.75-0.31,8.28,0.08"/>
				</g>
			</g>
			<g id="kvg:08352-g6">
				<path id="kvg:s-s6" stroke="#8E24AA" d="M36.01,47.5c0.67,0.67,0.76,1.6,0.76,2.54c0,0.83,0,0.96,0,1.86c0,7.47,1.85,7.88,18.73,7.88c12,0,16.87-0.66,19.55-1.31"/>
			</g>
		</g>
		<g id="kvg:08352-g7">
			<path id="kvg:s-s7" stroke="#EC407A" d="M34.1,72.18c0.4,0.82,0.47,2.03,0.26,2.86C32.38,83,28.25,92,16.14,98.4"/>
			<path id="kvg:s-s8" stroke="#00ACC1" d="M52.75,68.88c0.75,0.75,1.16,1.99,1.16,3.65c0,0.54,0.11,10.7,0.04,17.58c-0.02,2.41-0.05,4.47-0.07,5.63"/>
			<path id="kvg:s-s9" stroke="#795548" d="M73.1,66.62c0.95,0.95,1.28,2.38,1.28,3.99c0,6.39,0,10.69,0,15.89c0,7.88,1.17,9.29,9.69,9.29c9.06,0,10.18-1.04,10.18-7.94"/>
		</g>
	</g>
</g>
</g>
<g id="kvg:StrokeNumbers_08352" style="font-size:18;font-weight:bold;stroke:#fff;stroke-width:1.5;paint-order:stroke">
	<text transform="matrix(1 0 0 1 12.75 27.13)" fill="#E53935">1</text>
	<text transform="matrix(1 0 0 1 29.25 16.63)" fill="#FB8C00">2</text>
	<text transform="matrix(1 0 0 1 61.50 12.13)" fill="#FDD835">3</text>
	<text transform="matrix(1 0 0 1 44.25 36.50)" fill="#43A047">4</text>
	<text transform="matrix(1 0 0 1 17.25 47.50)" fill="#1E88E5">5</text>
	<text transform="matrix(1 0 0 1 29.25 56.91)" fill="#8E24AA">6</text>
	<text transform="matrix(1 0 0 1 26.25 72.50)" fill="#EC407A">7</text>
	<text transform="matrix(1 0 0 1 44.25 70.50)" fill="#00ACC1">8</text>
	<text transform="matrix(1 0 0 1 64.50 69.50)" fill="#795548">9</text>
</g>
</svg>
