<?xml version="1.0" encoding="UTF-8"?>
<svg xmlns="http://www.w3.org/2000/svg" width="109" height="109" viewBox="0 0 109 109">
<g id="kvg:StrokePaths_083cc" style="fill:none;stroke:#000000;stroke-width:3;stroke-linecap:round;stroke-linejoin:round;">
<g id="kvg:083cc">
	<g id="kvg:083cc-g1">
		<path id="kvg:s-s1" stroke="#E53935" d="M21.25,25.02c2.4,0.98,5.72,0.65,8.25,0.41c12.55-1.19,36.21-3.65,50.13-4.27c3.2-0.14,6.48-0.39,9.62,0.37"/>
		<path id="kvg:s-s2" stroke="#FB8C00" d="M36.5,12.75c1.06,1.06,1.75,2.24,1.95,3.07c1.89,7.7,2.76,14.38,3.3,17.18"/>
		<path id="kvg:s-s3" stroke="#FDD835" d="M68.87,11.5c0.35,0.97,0.55,2.19,0.16,3.39c-2.27,7.01-3.05,9.77-5.53,16.36"/>
	</g>
	<g id="kvg:083cc-g2">
		<g id="kvg:083cc-g3">
			<path id="kvg:s-s4" stroke="#43A047" d="M24.62,40.06c1.04,1.04,1.36,2.72,1.36,4.08c0,12.67-0.06,31.56-0.09,46.99c0,2.04-0.01,4.01-0.01,5.86"/>
			<path id="kvg:s-s5" stroke="#1E88E5" d="M26.88,41.34c17-1.72,35.81-3.73,53.69-4.55c2.99-0.14,4.81,0.82,4.81,3.45c0,10.96,0.07,32.12,0.07,48.25c0,2.27,0.01,4.45,0.01,6.5"/>
		</g>
		<g id="kvg:083cc-g4">
			<g id="kvg:083cc-g5">
				<path id="kvg:s-s6" stroke="#8E24AA" d="M62.76,43.5c0.3,0.99-0.99,1.62-1.61,2.01c-3.35,2.05-11.33,5.41-21.59,7.45"/>
			</g>
			<g id="kvg:083cc-g6">
				<path id="kvg:s-s7" stroke="#EC407A" d="M35.39,61.4c1.78,0.54,3.66,0.31,5.47,0.12c6.66-0.68,21.67-2.72,29.39-3.53c1.56-0.16,3.39-0.33,4.96-0.05"/>
				<path id="kvg:s-s8" stroke="#00ACC1" d="M54.78,51.31c0.7,0.7,0.81,1.81,0.81,3c0,5.06-0.03,14.81-0.03,26.06c0,2.01-0.01,3.84-0.01,5.38"/>
				<path id="kvg:s-s9" stroke="#795548" d="M53.54,60.49c0,1.13-1.27,2.64-2.56,4.44c-4.52,6.33-11.05,13.2-16.6,17.37"/>
				<path id="kvg:s-s10" stroke="#546E7A" d="M56.19,64.63C62.5,68,68,71.75,73.01,77.31"/>
			</g>
		</g>
		<g id="kvg:083cc-g7">
			<path id="kvg:s-s11" stroke="#E53935" d="M27.1,94.44c16.15-1.44,39.28-2.81,57.35-3.59"/>
		</g>
	</g>
</g>
</g>
<g id="kvg:StrokeNumbers_083cc" style="font-size:18;font-weight:bold;stroke:#fff;stroke-width:1.5;paint-order:stroke">
	<text transform="matrix(1 0 0 1 14.25 25.50)" fill="#E53935">1</text>
	<text transform="matrix(1 0 0 1 28.50 13.50)" fill="#FB8C00">2</text>
	<text transform="matrix(1 0 0 1 60.50 11.50)" fill="#FDD835">3</text>
	<text transform="matrix(1 0 0 1 18.50 47.50)" fill="#43A047">4</text>
	<text transform="matrix(1 0 0 1 27.75 38.50)" fill="#1E88E5">5</text>
	<text transform="matrix(1 0 0 1 52.50 45.50)" fill="#8E24AA">6</text>
	<text transform="matrix(1 0 0 1 29.50 62.98)" fill="#EC407A">7</text>
	<text transform="matrix(1 0 0 1 48.75 57.50)" fill="#00ACC1">8</text>
	<text transform="matrix(1 0 0 1 39.75 71.50)" fill="#795548">9</text>
	<text transform="matrix(1 0 0 1 65.50 68.50)" fill="#546E7A">10</text>
	<text transform="matrix(1 0 0 1 32.25 91.55)" fill="#E53935">11</text>
</g>
</svg>
