<?xml version="1.0" encoding="UTF-8"?>
<svg xmlns="http://www.w3.org/2000/svg" width="109" height="109" viewBox="0 0 109 109">
<g id="kvg:StrokePaths_0865c" style="fill:none;stroke:#000000;stroke-width:3;stroke-linecap:round;stroke-linejoin:round;">
<g id="kvg:0865c">
	<g id="kvg:0865c-g1">
		<path id="kvg:s-s1" stroke="#E53935" d="M52.27,7.58c1.08,1.08,1.51,2.17,1.51,4.26c0,2.41-0.02,6.2-0.02,10.41"/>
		<path id="kvg:s-s2" stroke="#FB8C00" d="M54.85,14.77C59.5,14,66.5,13.25,71.21,12.64c1.55-0.2,3-0.07,3.79,0.12"/>
		<path id="kvg:s-s3" stroke="#FDD835" d="M25.53,25.43c1.15,1.15,1.08,2.57,1.08,4.48c0,23.35-5.11,48.34-13.11,59.84"/>
		<path id="kvg:s-s4" stroke="#43A047" d="M27.24,27.49c2.13-0.24,3.27-0.39,5.14-0.72c14.12-2.52,33.12-5.39,50.31-5.68c12.07-0.2,3.05,5.41,0.05,7.53"/>
		<g id="kvg:0865c-g2">
			<g id="kvg:0865c-g3">
				<path id="kvg:s-s5" stroke="#1E88E5" d="M35.25,35.69c1.91,0.88,4.89,0.39,6.84-0.05c7.09-1.57,17.24-3.91,24.66-4.97c1.9-0.27,3.61-0.5,5.49,0.02"/>
			</g>
			<path id="kvg:s-s6" stroke="#8E24AA" d="M51.6,26.99c0.79,0.79,0.9,1.7,0.9,2.76c0,1.69,0.06,5.09,0.06,6.47c0,2.91,1.57,3.78,9.8,3.78c5.15,0,10.38-0.25,12.65-0.8"/>
		</g>
	</g>
	<g id="kvg:0865c-g4">
		<g id="kvg:0865c-g5">
			<path id="kvg:s-s7" stroke="#EC407A" d="M38.5,48.07c0.84,0.84,1,1.68,1.32,2.94c0.79,3.2,1.53,8.91,2.15,13.74c0.17,1.33,0.33,2.63,0.48,3.83"/>
			<path id="kvg:s-s8" stroke="#00ACC1" d="M40.2,49.67c11.05-1.3,28.84-3.34,35.71-3.43c2.78-0.04,4.44,1.53,3.85,4.17c-0.62,2.76-2.1,6.9-3.31,10.91c-0.42,1.39-0.84,2.76-1.23,4.06"/>
			<path id="kvg:s-s9" stroke="#795548" d="M57.38,49.08c0.9,0.9,0.98,1.92,0.98,2.99c0,5.24-0.11,10.67-0.11,12.18"/>
			<path id="kvg:s-s10" stroke="#546E7A" d="M42.21,57.71c9.66-1.09,25.91-2.59,35.02-2.68"/>
			<path id="kvg:s-s11" stroke="#E53935" d="M43.48,66.95c9.75-1.17,18.77-2.07,31.08-2.87"/>
		</g>
		<g id="kvg:0865c-g6">
			<path id="kvg:s-s12" stroke="#FB8C00" d="M33.29,77.51c2.67,0.68,5.27,0.44,7.96,0.13c9.97-1.13,29.3-3.88,35.37-4.51c4-0.41,5.23,0.54,4.16,4.38c-1.4,5.02-5.25,14.46-7.45,17.69c-3.58,5.29-5.46,1.42-6.81-0.21"/>
			<path id="kvg:s-s13" stroke="#FDD835" d="M57.86,70.4c0.39,0.73,0.34,1.75,0.11,2.75c-1.97,8.6-7.85,20.47-25.16,26.6"/>
		</g>
	</g>
</g>
</g>
<g id="kvg:StrokeNumbers_0865c" style="font-size:18;font-weight:bold;stroke:#fff;stroke-width:1.5;paint-order:stroke">
	<text transform="matrix(1 0 0 1 44.25 9.25)" fill="#E53935">1</text>
	<text transform="matrix(1 0 0 1 58.25 11.25)" fill="#FB8C00">2</text>
	<text transform="matrix(1 0 0 1 17.00 37.38)" fill="#FDD835">3</text>
	<text transform="matrix(1 0 0 1 29.00 23.88)" fill="#43A047">4</text>
	<text transform="matrix(1 0 0 1 34.25 34.38)" fill="#1E88E5">5</text>
	<text transform="matrix(1 0 0 1 44.25 31.38)" fill="#8E24AA">6</text>
	<text transform="matrix(1 0 0 1 33.50 58.38)" fill="#EC407A">7</text>
	<text transform="matrix(1 0 0 1 43.25 46.38)" fill="#00ACC1">8</text>
	<text transform="matrix(1 0 0 1 62.25 53.88)" fill="#795548">9</text>
	<text transform="matrix(1 0 0 1 44.25 55.25)" fill="#546E7A">10</text>
	<text transform="matrix(1 0 0 1 44.25 64.25)" fill="#E53935">11</text>
	<text transform="matrix(1 0 0 1 34.75 75.73)" fill="#FB8C00">12</text>
	<text transform="matrix(1 0 0 1 47.25 73.38)" fill="#FDD835">13</text>
</g>
</svg>
