<?xml version="1.0" encoding="UTF-8"?>
<svg xmlns="http://www.w3.org/2000/svg" width="109" height="109" viewBox="0 0 109 109">
<g id="kvg:StrokePaths_086ee" style="fill:none;stroke:#000000;stroke-width:3;stroke-linecap:round;stroke-linejoin:round;">
<g id="kvg:086ee">
	<g id="kvg:086ee-g1">
		<g id="kvg:086ee-g2">
			<path id="kvg:s-s1" stroke="#E53935" d="M53.6,10.02c0.94,0.94,1.22,2.11,1.22,3.7c0,2.16-0.06,3.75-0.06,6.04"/>
			<path id="kvg:s-s2" stroke="#FB8C00" d="M22.05,22.21c2.87,0.91,5.77,0.49,8.7,0.23c11.8-1.06,38.45-3.13,52.76-3.69c3.27-0.13,6.39-0.4,9.5,0.77"/>
		</g>
		<g id="kvg:086ee-g3">
			<g id="kvg:086ee-g4">
				<path id="kvg:s-s3" stroke="#FDD835" d="M46.96,25.01c0.54,0.84,0.71,2,0.55,3.04c-1.76,11.7-6.01,21.45-15.32,27.44"/>
			</g>
			<g id="kvg:086ee-g5">
				<path id="kvg:s-s4" stroke="#43A047" d="M62.93,22.99c0.78,0.73,1.4,1.58,1.4,3.99c0,9.52-0.08,15.32-0.08,19.27c0,8.27-5.24,1.19-6.43,0.2"/>
			</g>
			<path id="kvg:s-s5" stroke="#1E88E5" d="M32.1,33.25c0.11,0.99-0.22,1.71-0.8,2.54c-2.88,4.15-8.17,9.6-15.5,14.54"/>
			<path id="kvg:s-s6" stroke="#8E24AA" d="M73.62,31.73c4.89,2.25,12.62,9.25,13.85,12.75"/>
		</g>
	</g>
	<g id="kvg:086ee-g6">
		<g id="kvg:086ee-g7">
			<g id="kvg:086ee-g8">
				<path id="kvg:s-s7" stroke="#EC407A" d="M30.8,61.71c1.06,1.06,1.32,2.05,1.58,3.17c0.74,3.24,1.67,6.89,2.55,12.14c0.26,1.57,0.54,3.25,0.83,5.05"/>
				<path id="kvg:s-s8" stroke="#00ACC1" d="M32.95,62.99c13.37-1.96,32.74-3.92,41.8-4.43c3.25-0.18,5.58,0.5,4.3,4.27c-1.67,4.92-2.55,8.04-3.92,12.54"/>
				<path id="kvg:s-s9" stroke="#795548" d="M36.41,79.27c7.63-0.77,23.44-2.03,35.59-2.96c1.86-0.14,3.62-0.27,5.25-0.38"/>
			</g>
			<g id="kvg:086ee-g9">
				<path id="kvg:s-s10" stroke="#546E7A" d="M53.08,52.5c0.84,0.84,1.27,2.25,1.27,3.44c0,0.7-0.1,30.73-0.1,36.68"/>
			</g>
		</g>
		<path id="kvg:s-s11" stroke="#E53935" d="M26.75,97.04c0.98,0.98,2.07,1.13,3.06,0.98c0.98-0.15,44.48-7.46,50.58-8.68"/>
		<path id="kvg:s-s12" stroke="#FB8C00" d="M74.74,83.61c5.11,2.7,13.19,11.1,14.46,15.29"/>
	</g>
</g>
</g>
<g id="kvg:StrokeNumbers_086ee" style="font-size:18;font-weight:bold;stroke:#fff;stroke-width:1.5;paint-order:stroke">
	<text transform="matrix(1 0 0 1 45.75 9.13)" fill="#E53935">1</text>
	<text transform="matrix(1 0 0 1 14.50 22.50)" fill="#FB8C00">2</text>
	<text transform="matrix(1 0 0 1 39.75 31.63)" fill="#FDD835">3</text>
	<text transform="matrix(1 0 0 1 56.25 30.13)" fill="#43A047">4</text>
	<text transform="matrix(1 0 0 1 24.50 33.50)" fill="#1E88E5">5</text>
	<text transform="matrix(1 0 0 1 71.50 29.50)" fill="#8E24AA">6</text>
	<text transform="matrix(1 0 0 1 24.75 68.50)" fill="#EC407A">7</text>
	<text transform="matrix(1 0 0 1 38.25 59.50)" fill="#00ACC1">8</text>
	<text transform="matrix(1 0 0 1 40.50 75.50)" fill="#795548">9</text>
	<text transform="matrix(1 0 0 1 45.75 49.63)" fill="#546E7A">10</text>
	<text transform="matrix(1 0 0 1 15.75 98.50)" fill="#E53935">11</text>
	<text transform="matrix(1 0 0 1 64.50 85.50)" fill="#FB8C00">12</text>
</g>
</svg>
