<?xml version="1.0" encoding="UTF-8"?>
<svg xmlns="http://www.w3.org/2000/svg" width="109" height="109" viewBox="0 0 109 109">
<g id="kvg:StrokePaths_08846" style="fill:none;stroke:#000000;stroke-width:3;stroke-linecap:round;stroke-linejoin:round;">
<g id="kvg:08846">
	<g id="kvg:08846-g1">
		<path id="kvg:s-s1" stroke="#E53935" d="M53.75,10.25c0.25,1.12-0.12,2.12-0.75,3.06c-2.69,4.02-4.5,7.19-9.94,12.66"/>
		<g id="kvg:08846-g2">
			<path id="kvg:s-s2" stroke="#FB8C00" d="M30.19,27.42c0.88,0.64,1.45,2.09,1.58,2.91c1.06,6.5,1.23,9.17,1.99,14.97"/>
			<path id="kvg:s-s3" stroke="#FDD835" d="M32.5,29.6c14.87-2.1,35.5-4.35,45.76-5.28c3.62-0.33,4.49,1.43,4.13,3.46c-0.66,3.77-1.91,9.28-3.1,13.88"/>
			<path id="kvg:s-s4" stroke="#43A047" d="M45.94,29.12c0.66,0.66,1.1,1.63,1.15,2.41C47.25,34.25,48,40,48.32,43.76"/>
			<path id="kvg:s-s5" stroke="#1E88E5" d="M62.77,27.68c0.71,0.71,0.73,1.7,0.58,2.86c-0.5,3.84-0.85,6.34-1.66,11.86"/>
			<path id="kvg:s-s6" stroke="#8E24AA" d="M17.64,46.84c3.11,0.54,6,0.38,8.75,0.16c14-1.13,39.95-4.39,61.37-4.79c2.55-0.05,5.1-0.13,7.62,0.39"/>
		</g>
	</g>
	<g id="kvg:08846-g3">
		<g id="kvg:08846-g4">
			<path id="kvg:s-s7" stroke="#EC407A" d="M57.53,47.64c0.13,1.04-0.34,1.92-0.89,2.74c-2.65,4.01-8.59,10.23-16.96,14.58"/>
			<path id="kvg:s-s8" stroke="#00ACC1" d="M53.13,60.75c0.94,0.94,1.53,2.5,1.53,4.39c0,12.64,0.1,20.52,0.04,28.86c-0.02,2.13-0.03,4.27-0.03,6.5"/>
		</g>
		<path id="kvg:s-s9" stroke="#795548" d="M31.54,55.39c0.11,1.05-0.03,1.67-0.55,2.6c-2.25,4.05-6.98,9.58-15.43,15.72"/>
		<path id="kvg:s-s10" stroke="#546E7A" d="M39.48,71.64c0.15,1.16-0.48,2.32-1.09,3.24c-3.72,5.57-12.81,14.53-25.58,20.83"/>
		<path id="kvg:s-s11" stroke="#E53935" d="M81.87,51.39c0.13,0.73-0.28,1.73-0.59,2.14c-2.41,3.22-4.22,5.72-10.98,11.44"/>
		<path id="kvg:s-s12" stroke="#FB8C00" d="M60.5,61.75c2.17,0.2,19.38,17.12,27.14,25.11c1.16,1.2,3.61,3.39,6.11,4.89"/>
	</g>
</g>
</g>
<g id="kvg:StrokeNumbers_08846" style="font-size:18;fill:#E53935;font-weight:bold;stroke:#fff;stroke-width:1.5;paint-order:stroke">
	<text transform="matrix(1 0 0 1 56.14 12.17)" fill="#E53935">1</text>
	<text transform="matrix(1 0 0 1 24.61 35.93)" fill="#FB8C00">2</text>
	<text transform="matrix(1 0 0 1 32.05 26.31)" fill="#FDD835">3</text>
	<text transform="matrix(1 0 0 1 40.43 36.41)" fill="#43A047">4</text>
	<text transform="matrix(1 0 0 1 56.00 33.82)" fill="#1E88E5">5</text>
	<text transform="matrix(1 0 0 1 10.97 49.18)" fill="#8E24AA">6</text>
	<text transform="matrix(1 0 0 1 48.82 52.99)" fill="#EC407A">7</text>
	<text transform="matrix(1 0 0 1 46.47 67.96)" fill="#00ACC1">8</text>
	<text transform="matrix(1 0 0 1 23.25 58.33)" fill="#795548">9</text>
	<text transform="matrix(1 0 0 1 27.32 73.53)" fill="#546E7A">10</text>
	<text transform="matrix(1 0 0 1 83.32 54.24)" fill="#E53935">11</text>
	<text transform="matrix(1 0 0 1 57.57 59.47)" fill="#FB8C00">12</text>
</g>
</svg>
