<?xml version="1.0" encoding="UTF-8"?>
<svg xmlns="http://www.w3.org/2000/svg" width="109" height="109" viewBox="0 0 109 109">
<g id="kvg:StrokePaths_088ab" style="fill:none;stroke:#000000;stroke-width:3;stroke-linecap:round;stroke-linejoin:round;">
<g id="kvg:088ab">
	<g id="kvg:088ab-g1">
		<path id="kvg:s-s1" stroke="#E53935" d="M23.12,16c2.8,1.7,5.8,4.26,8.2,7.25"/>
		<path id="kvg:s-s2" stroke="#FB8C00" d="M13.2,34.86c0.94,0.39,2.86,0.78,4.46,0.61c3.22-0.34,16.87-4.33,19.19-4.99c2.33-0.66,4.01,1.29,2.76,3.35C32.5,45.5,23.75,56.62,10.5,69"/>
		<path id="kvg:s-s3" stroke="#FDD835" d="M28.25,52.11c1.07,1.07,1.52,2.26,1.52,3.64c0,9.34,0.03,22.36,0.05,33.01c0,3.31,0.01,6.37,0.01,8.98"/>
		<path id="kvg:s-s4" stroke="#43A047" d="M41.43,45.64c0,0.86-0.47,1.67-1,2.2c-1.6,1.6-4.48,3.77-7.68,5.66"/>
		<path id="kvg:s-s5" stroke="#1E88E5" d="M32.83,56.5c3.07,2.53,6.37,5.82,9,10.25"/>
	</g>
	<g id="kvg:088ab-g2">
		<path id="kvg:s-s6" stroke="#8E24AA" d="M51.2,31.95c1.12,1.12,1.22,2.71,1.27,5.06C53,60.12,51.25,80,40.05,93.34"/>
		<path id="kvg:s-s7" stroke="#EC407A" d="M53.29,33.79C65,32.12,77.5,30.25,87.48,28.65c10.21-1.64,4.35,4.07,0.37,8.17"/>
		<path id="kvg:s-s8" stroke="#00ACC1" d="M70.58,15.75c1.08,1.09,1.27,2.38,1.27,3.85c0,0.98-0.07,19.19-0.07,28.98"/>
		<path id="kvg:s-s9" stroke="#795548" d="M59.75,51.44c1.28,0.36,2.59,0.41,5.16-0.13c2.57-0.53,16.52-3.89,18.29-4.42c1.77-0.54,3.48,1.33,2.68,3.18c-7.5,17.44-19.25,34.06-37.56,44.44"/>
		<path id="kvg:s-s10" stroke="#546E7A" d="M59.08,59.23c4.08,0.58,16.67,17.52,27.92,28.88c2.37,2.4,5.16,4.51,8.09,6.19"/>
	</g>
</g>
</g>
<g id="kvg:StrokeNumbers_088ab" style="font-size:18;font-weight:bold;stroke:#fff;stroke-width:1.5;paint-order:stroke">
	<text transform="matrix(1 0 0 1 17.25 13.63)" fill="#E53935">1</text>
	<text transform="matrix(1 0 0 1 12.75 31.55)" fill="#FB8C00">2</text>
	<text transform="matrix(1 0 0 1 22.57 66.06)" fill="#FDD835">3</text>
	<text transform="matrix(1 0 0 1 39.91 43.71)" fill="#43A047">4</text>
	<text transform="matrix(1 0 0 1 36.95 58.39)" fill="#1E88E5">5</text>
	<text transform="matrix(1 0 0 1 45.75 40.63)" fill="#8E24AA">6</text>
	<text transform="matrix(1 0 0 1 53.25 30.13)" fill="#EC407A">7</text>
	<text transform="matrix(1 0 0 1 63.30 14.74)" fill="#00ACC1">8</text>
	<text transform="matrix(1 0 0 1 57.00 49.27)" fill="#795548">9</text>
	<text transform="matrix(1 0 0 1 54.00 69.76)" fill="#546E7A">10</text>
</g>
</svg>
