<?xml version="1.0" encoding="UTF-8"?>
<svg xmlns="http://www.w3.org/2000/svg" width="109" height="109" viewBox="0 0 109 109">
<g id="kvg:StrokePaths_088c1" style="fill:none;stroke:#000000;stroke-width:3;stroke-linecap:round;stroke-linejoin:round;">
<g id="kvg:088c1">
	<g id="kvg:088c1-g1">
		<g id="kvg:088c1-g2">
			<g id="kvg:088c1-g3">
				<path id="kvg:s-s1" stroke="#E53935" d="M23.63,25.63c1.68,0.45,3.54,0.3,5.24,0.16c6.57-0.5,14.34-1.94,20.32-2.48c1.62-0.14,2.87-0.12,3.68,0.01"/>
				<path id="kvg:s-s2" stroke="#FB8C00" d="M39.42,12.87c0.67,0.67,1.27,2.13,1.27,3.64c0,3.5,0.14,16.5,0.14,21.36"/>
			</g>
			<g id="kvg:088c1-g4">
				<g id="kvg:088c1-g5">
					<path id="kvg:s-s3" stroke="#FDD835" d="M13.13,40.73c3.12,1.11,7.15,0.64,10.37,0.23c19.02-2.41,44.54-6.14,60.62-7.21c3.07-0.2,5.99-0.32,9.01,0.33"/>
				</g>
			</g>
		</g>
	</g>
	<g id="kvg:088c1-g6">
		<g id="kvg:088c1-g7">
			<path id="kvg:s-s4" stroke="#43A047" d="M39.85,44.5c0.7,0.7,1.22,2.12,1.22,3.58c0,2.76-0.11,3.67-0.11,6.28"/>
			<path id="kvg:s-s5" stroke="#1E88E5" d="M19,56.97c2.31,0.14,4.56,0.32,6.89,0.1c9.99-0.95,18.74-2.32,27.37-3.39c1.66-0.2,3.27-0.4,4.9,0.1"/>
		</g>
		<g id="kvg:088c1-g8">
			<path id="kvg:s-s6" stroke="#8E24AA" d="M36.77,58.82c0.07,0.59,0.16,1.67-0.38,2.38C32,67,26.5,73.38,13.29,82.97"/>
			<path id="kvg:s-s7" stroke="#EC407A" d="M28.91,73.38c0.79,0.79,1.14,1.87,1.14,3.24c0,3.25-0.14,7.38-0.14,11.19c0,1.24,1.23,1.92,2.21,1.01c3.38-3.08,7.25-7.58,10.94-10.52"/>
			<path id="kvg:s-s8" stroke="#00ACC1" d="M56.18,59.96c0.02,0.21,0.21,1.01,0.09,1.29c-0.73,1.73-3.02,4.21-6.76,7.66"/>
			<path id="kvg:s-s9" stroke="#795548" d="M42.12,65.56c6.88,4.19,12.63,9.69,18.21,18.18"/>
		</g>
	</g>
	<g id="kvg:088c1-g9">
		<g id="kvg:088c1-g10">
			<g id="kvg:088c1-g11">
				<path id="kvg:s-s10" stroke="#546E7A" d="M56.75,9.5c1.56,1.84,2.23,3.35,2.53,7.31c2.59,33.44,11.84,61.69,30.64,77.86c5.52,4.75,5.01,0.29,4.23-7.86"/>
			</g>
			<g id="kvg:088c1-g12">
				<path id="kvg:s-s11" stroke="#E53935" d="M82.97,44.64c0.4,1.48,0.33,3-0.17,4.76c-3.43,12.1-12.26,34.39-28,48.57"/>
			</g>
			<g id="kvg:088c1-g13">
				<g id="kvg:088c1-g14">
					<path id="kvg:s-s12" stroke="#FB8C00" d="M74.25,15c3.18,1.85,8.27,6.08,9.75,9.25"/>
				</g>
			</g>
		</g>
	</g>
</g>
</g>
<g id="kvg:StrokeNumbers_088c1" style="font-size:18;fill:#E53935;font-weight:bold;stroke:#fff;stroke-width:1.5;paint-order:stroke">
	<text transform="matrix(1 0 0 1 17.50 26.50)" fill="#E53935">1</text>
	<text transform="matrix(1 0 0 1 29.25 13.50)" fill="#FB8C00">2</text>
	<text transform="matrix(1 0 0 1 5.50 41.50)" fill="#FDD835">3</text>
	<text transform="matrix(1 0 0 1 31.50 48.50)" fill="#43A047">4</text>
	<text transform="matrix(1 0 0 1 11.50 58.50)" fill="#1E88E5">5</text>
	<text transform="matrix(1 0 0 1 24.50 66.50)" fill="#8E24AA">6</text>
	<text transform="matrix(1 0 0 1 22.50 85.50)" fill="#EC407A">7</text>
	<text transform="matrix(1 0 0 1 47.50 62.50)" fill="#00ACC1">8</text>
	<text transform="matrix(1 0 0 1 37.50 72.50)" fill="#795548">9</text>
	<text transform="matrix(1 0 0 1 44.50 8.50)" fill="#546E7A">10</text>
	<text transform="matrix(1 0 0 1 72.50 45.50)" fill="#E53935">11</text>
	<text transform="matrix(1 0 0 1 66.50 11.50)" fill="#FB8C00">12</text>
</g>
</svg>
