<?xml version="1.0" encoding="UTF-8"?>
<svg xmlns="http://www.w3.org/2000/svg" width="109" height="109" viewBox="0 0 109 109">
<g id="kvg:StrokePaths_088c2" style="fill:none;stroke:#000000;stroke-width:3;stroke-linecap:round;stroke-linejoin:round;">
<g id="kvg:088c2">
	<g id="kvg:088c2-g1">
		<g id="kvg:088c2-g2">
			<g id="kvg:088c2-g3">
				<path id="kvg:s-s1" stroke="#E53935" d="M17.33,16.16c2.27,0.73,4.49,0.67,6.8,0.33c7.62-1.11,16.24-2.61,23.99-2.85c2.19-0.07,4.29-0.03,6.42,0.38"/>
			</g>
			<g id="kvg:088c2-g4">
				<path id="kvg:s-s2" stroke="#FB8C00" d="M33.46,18.36c0.04,0.76-0.29,2.03-0.7,2.72c-2.77,4.63-8.19,10.99-17.65,17.91"/>
				<path id="kvg:s-s3" stroke="#FDD835" d="M32.72,26.92c1.24,0.14,2.51,0.29,3.75,0.05c2.52-0.49,6.04-1.47,10.24-2.49c2.42-0.58,3.33,1.36,2.78,2.94C46.62,35.62,30.56,53.67,15.74,59"/>
				<path id="kvg:s-s4" stroke="#43A047" d="M25.75,34.62c2.41,1.35,6.23,5.54,6.84,7.64"/>
			</g>
		</g>
		<g id="kvg:088c2-g5">
			<path id="kvg:s-s5" stroke="#1E88E5" d="M66.07,17.34c1.05,1.05,1.27,2.29,1.27,4.07c0,6.15-0.02,15-0.03,20.46c-0.01,2.59-0.01,4.41-0.01,4.81"/>
			<path id="kvg:s-s6" stroke="#8E24AA" d="M85.86,11.83c1.09,1.09,1.67,2.1,1.67,4.06c0,4.73,0.01,29.19,0.01,32.38c0,7.19-4.86,0.3-6.29-0.51"/>
		</g>
	</g>
	<g id="kvg:088c2-g6">
		<g id="kvg:088c2-g7">
			<path id="kvg:s-s7" stroke="#EC407A" d="M52.91,48.08c1.13,1.13,1.2,2.29,1.2,4.18c0,1.49-0.11,4.87-0.11,6.87"/>
			<path id="kvg:s-s8" stroke="#00ACC1" d="M22.28,62.34c3.34,0.54,6.17,0.36,9.47,0.06c11.73-1.09,31.79-3.21,44-3.87c2.91-0.16,5.5-0.28,9.26,0.4"/>
		</g>
		<g id="kvg:088c2-g8">
			<path id="kvg:s-s9" stroke="#795548" d="M45.41,62.1c0.08,0.57-0.17,1.51-0.67,2.28c-3.2,4.95-13.63,14.23-29.67,22.05"/>
			<path id="kvg:s-s10" stroke="#546E7A" d="M38.16,76.29c0.77,0.77,0.82,1.83,0.82,3.22c0,7.2-0.02,13.35-0.02,14.57c0,1.22,0.89,1.79,2.21,1c3.45-2.08,9.58-5.96,13.21-8.13"/>
			<path id="kvg:s-s11" stroke="#E53935" d="M80.67,67.35c-0.17,1.02-0.63,1.84-1.25,2.44c-2.54,2.46-6.79,5.33-9.92,7.21"/>
			<path id="kvg:s-s12" stroke="#FB8C00" d="M52.71,68.44c2.16,0.31,20.59,15.9,29.39,22.22c2.76,1.99,4.58,3.26,7.62,4.74"/>
		</g>
	</g>
</g>
</g>
<g id="kvg:StrokeNumbers_088c2" style="font-size:18;font-weight:bold;stroke:#fff;stroke-width:1.5;paint-order:stroke">
	<text transform="matrix(1 0 0 1 11.25 17.25)" fill="#E53935">1</text>
	<text transform="matrix(1 0 0 1 23.00 26.25)" fill="#FB8C00">2</text>
	<text transform="matrix(1 0 0 1 38.25 23.25)" fill="#FDD835">3</text>
	<text transform="matrix(1 0 0 1 31.25 36.25)" fill="#43A047">4</text>
	<text transform="matrix(1 0 0 1 60.50 14.25)" fill="#1E88E5">5</text>
	<text transform="matrix(1 0 0 1 77.25 12.25)" fill="#8E24AA">6</text>
	<text transform="matrix(1 0 0 1 45.25 50.25)" fill="#EC407A">7</text>
	<text transform="matrix(1 0 0 1 15.50 67.38)" fill="#00ACC1">8</text>
	<text transform="matrix(1 0 0 1 30.25 72.25)" fill="#795548">9</text>
	<text transform="matrix(1 0 0 1 28.25 88.25)" fill="#546E7A">10</text>
	<text transform="matrix(1 0 0 1 70.25 68.25)" fill="#E53935">11</text>
	<text transform="matrix(1 0 0 1 46.25 77.25)" fill="#FB8C00">12</text>
</g>
</svg>
