<?xml version="1.0" encoding="UTF-8"?>
<svg xmlns="http://www.w3.org/2000/svg" width="109" height="109" viewBox="0 0 109 109">
<g id="kvg:StrokePaths_08907" style="fill:none;stroke:#000000;stroke-width:3;stroke-linecap:round;stroke-linejoin:round;">
<g id="kvg:08907">
	<g id="kvg:08907-g1">
		<path id="kvg:s-s1" stroke="#E53935" d="M23.38,14.62c2.69,2.17,5.58,5.42,7.89,9.21"/>
		<path id="kvg:s-s2" stroke="#FB8C00" d="M15.35,34.65c1.52,0.48,3.49,0.55,4.99,0.19c4.53-1.08,14.53-5.08,18.03-6.35c2.18-0.79,3.82,0.68,2.57,2.94C33.63,44.69,22.5,58.42,11.75,68.49"/>
		<path id="kvg:s-s3" stroke="#FDD835" d="M29.21,51.67c0.68,0.68,1.05,2,1.05,3.83c0,9.24,0.03,24.47,0.04,34.5c0,2.45,0,4.58,0,6.25"/>
		<path id="kvg:s-s4" stroke="#43A047" d="M42.85,44.85c0.18,0.83-0.15,1.56-0.5,2.17c-1.05,1.83-4.05,5.84-6.16,8.01"/>
		<path id="kvg:s-s5" stroke="#1E88E5" d="M33.12,56.38c3.23,2.16,6.68,5.39,9.45,9.17"/>
	</g>
	<g id="kvg:08907-g2">
		<g id="kvg:08907-g3">
			<path id="kvg:s-s6" stroke="#8E24AA" d="M59.61,12.25c0.03,0.49,0.12,1.41-0.06,1.97c-2.22,6.91-5.29,12.28-11.04,19.08"/>
			<path id="kvg:s-s7" stroke="#EC407A" d="M59,23.97c0.88,0.28,1.94,0.1,2.63,0.03c3.75-0.41,14.42-2.27,21.9-3.34c1.87-0.27,3.86-0.34,5.75-0.28"/>
		</g>
		<g id="kvg:08907-g4">
			<path id="kvg:s-s8" stroke="#00ACC1" d="M54.52,32.4c0.73,0.73,1.23,1.72,1.42,2.86c0.51,3.18,1.11,11.47,1.69,16.01c0.23,1.81,0.4,3.06,0.43,3.24"/>
			<path id="kvg:s-s9" stroke="#795548" d="M56.69,33.99c3.56-0.65,19.46-3.35,24.67-4.07c2.43-0.34,4.29,0.83,3.98,3.47c-0.3,2.62-0.99,9.87-1.7,14.85c-0.4,2.84-0.7,4.97-0.7,5.15"/>
			<path id="kvg:s-s10" stroke="#546E7A" d="M57.83,43.31c6.92-1.06,19.67-2.31,25.72-2.9"/>
			<path id="kvg:s-s11" stroke="#E53935" d="M58.94,53.26c7.56-0.76,15.93-1.76,23.1-2.22"/>
		</g>
		<g id="kvg:08907-g5">
			<path id="kvg:s-s12" stroke="#FB8C00" d="M60.08,59.25c0.09,1.08,0.08,2.09-0.44,3.05c-2.27,4.2-7.27,11.82-14.51,17.62"/>
			<path id="kvg:s-s13" stroke="#FDD835" d="M62.22,64.98c0.25,0.03,1.84,0,2.57-0.08c2.39-0.26,10.07-2.48,13.48-3.28c2.34-0.55,3.12,1.18,2.41,2.63C76.75,72.25,60.12,90.88,45.5,96"/>
			<path id="kvg:s-s14" stroke="#43A047" d="M57.9,71.06c3.64,3.21,18.16,13.98,26.33,19.71c2.64,1.85,5.39,3.22,8.26,4.72"/>
		</g>
	</g>
</g>
</g>
<g id="kvg:StrokeNumbers_08907" style="font-size:18;fill:#E53935;font-weight:bold;stroke:#fff;stroke-width:1.5;paint-order:stroke">
	<text transform="matrix(1 0 0 1 16.50 15.50)" fill="#E53935">1</text>
	<text transform="matrix(1 0 0 1 7.50 35.50)" fill="#FB8C00">2</text>
	<text transform="matrix(1 0 0 1 23.50 66.50)" fill="#FDD835">3</text>
	<text transform="matrix(1 0 0 1 43.50 43.50)" fill="#43A047">4</text>
	<text transform="matrix(1 0 0 1 33.75 67.50)" fill="#1E88E5">5</text>
	<text transform="matrix(1 0 0 1 51.50 12.50)" fill="#8E24AA">6</text>
	<text transform="matrix(1 0 0 1 65.50 20.50)" fill="#EC407A">7</text>
	<text transform="matrix(1 0 0 1 49.50 40.50)" fill="#00ACC1">8</text>
	<text transform="matrix(1 0 0 1 57.50 31.48)" fill="#795548">9</text>
	<text transform="matrix(1 0 0 1 60.27 40.40)" fill="#546E7A">10</text>
	<text transform="matrix(1 0 0 1 60.50 50.83)" fill="#E53935">11</text>
	<text transform="matrix(1 0 0 1 48.50 64.50)" fill="#FB8C00">12</text>
	<text transform="matrix(1 0 0 1 63.50 61.18)" fill="#FDD835">13</text>
	<text transform="matrix(1 0 0 1 53.70 79.50)" fill="#43A047">14</text>
</g>
</svg>
