<?xml version="1.0" encoding="UTF-8"?>
<svg xmlns="http://www.w3.org/2000/svg" width="109" height="109" viewBox="0 0 109 109">
<g id="kvg:StrokePaths_08910" style="fill:none;stroke:#000000;stroke-width:3;stroke-linecap:round;stroke-linejoin:round;">
<g id="kvg:08910">
	<g id="kvg:08910-g1">
		<path id="kvg:s-s1" stroke="#E53935" d="M22.75,12.5c3.27,2.41,6.77,6.03,9.58,10.25"/>
		<path id="kvg:s-s2" stroke="#FB8C00" d="M12.45,35.11c1.77,0.74,4.59,0.62,6.43,0.18c4.64-1.12,17-4.5,18.97-5.06c2.33-0.66,3.83,1.08,2.51,3.1C32.61,45.15,24.12,57.62,12,68.5"/>
		<path id="kvg:s-s3" stroke="#FDD835" d="M29.5,51.11c0.88,0.88,1.27,2.14,1.27,3.64c0,8.58,0.05,24,0.05,34.5c0,2.51,0.01,4.59,0.01,6"/>
		<path id="kvg:s-s4" stroke="#43A047" d="M43.5,44.64c0.2,0.85-0.1,1.83-0.5,2.45c-1.2,1.87-3.4,4.7-5.8,6.91"/>
		<path id="kvg:s-s5" stroke="#1E88E5" d="M33.5,54.88c3.1,2.38,6.42,5.95,9.08,10.12"/>
	</g>
	<g id="kvg:08910-g2">
		<g id="kvg:08910-g3">
			<path id="kvg:s-s6" stroke="#8E24AA" d="M50.47,15.97c1.03,1.03,1.6,2.58,1.76,3.89c0.46,3.71,1.44,11.39,2.11,16.66c0.38,2.98,0.53,3.48,0.7,5.21"/>
			<path id="kvg:s-s7" stroke="#EC407A" d="M52.8,17.31c3.51-0.53,21.32-2.72,27.46-3.37c3.3-0.35,5.03,0.41,4.58,3.95c-0.76,6.05-1.9,11.6-3.26,17.88c-0.34,1.56-0.69,3.17-1.05,4.84"/>
			<path id="kvg:s-s8" stroke="#00ACC1" d="M54.14,29.2c4.99-0.7,22.36-2.7,29.44-3.23"/>
			<path id="kvg:s-s9" stroke="#795548" d="M55.89,40.13c7.74-0.88,16.95-2.15,24.03-2.53"/>
		</g>
		<g id="kvg:08910-g4">
			<g id="kvg:08910-g5">
				<g id="kvg:08910-g6">
					<path id="kvg:s-s10" stroke="#546E7A" d="M60.68,42.48c0.04,0.61-0.06,1.61-0.33,2.44c-2.1,6.23-7.61,15.61-15.6,23.58"/>
				</g>
				<path id="kvg:s-s11" stroke="#E53935" d="M60.37,51.9c2.38,0.35,4.06,0.22,5.63-0.03c5.13-0.81,18.28-2.85,23.37-3.46c4.37-0.52,5.38,0.26,5.11,4.72c-0.45,7.73-3.41,26.56-9.82,39.13c-2.44,4.79-4.3,5.89-8.15,1.75"/>
			</g>
			<g id="kvg:08910-g7">
				<g id="kvg:08910-g8">
					<path id="kvg:s-s12" stroke="#FB8C00" d="M76.01,61.5c-0.14,1.12-0.7,1.96-1.62,2.52c-4.02,2.48-8.64,4.98-17.28,8.23"/>
					<path id="kvg:s-s13" stroke="#FDD835" d="M52.88,63.62c0.8,0.77,1.13,1.75,1.13,2.81c0,2.83,0.14,4.76,0.14,9.79s1.84,5.37,12.91,5.37s11.98-0.96,11.98-6.45"/>
				</g>
			</g>
		</g>
	</g>
</g>
</g>
<g id="kvg:StrokeNumbers_08910" style="font-size:18;font-weight:bold;stroke:#fff;stroke-width:1.5;paint-order:stroke">
	<text transform="matrix(1 0 0 1 16.50 13.50)" fill="#E53935">1</text>
	<text transform="matrix(1 0 0 1 5.50 36.50)" fill="#FB8C00">2</text>
	<text transform="matrix(1 0 0 1 24.50 67.50)" fill="#FDD835">3</text>
	<text transform="matrix(1 0 0 1 41.00 42.58)" fill="#43A047">4</text>
	<text transform="matrix(1 0 0 1 39.68 58.86)" fill="#1E88E5">5</text>
	<text transform="matrix(1 0 0 1 45.75 25.63)" fill="#8E24AA">6</text>
	<text transform="matrix(1 0 0 1 53.23 14.73)" fill="#EC407A">7</text>
	<text transform="matrix(1 0 0 1 57.43 25.32)" fill="#00ACC1">8</text>
	<text transform="matrix(1 0 0 1 57.43 37.25)" fill="#795548">9</text>
	<text transform="matrix(1 0 0 1 47.25 49.12)" fill="#546E7A">10</text>
	<text transform="matrix(1 0 0 1 61.98 49.16)" fill="#E53935">11</text>
	<text transform="matrix(1 0 0 1 69.65 59.62)" fill="#FB8C00">12</text>
	<text transform="matrix(1 0 0 1 54.29 64.46)" fill="#FDD835">13</text>
</g>
</svg>
