<?xml version="1.0" encoding="UTF-8"?>
<svg xmlns="http://www.w3.org/2000/svg" width="109" height="109" viewBox="0 0 109 109">
<g id="kvg:StrokePaths_0898b" style="fill:none;stroke:#000000;stroke-width:3;stroke-linecap:round;stroke-linejoin:round;">
<g id="kvg:0898b">
	<g id="kvg:0898b-g1">
		<path id="kvg:s-s1" stroke="#E53935" d="M32.5,15.46c0.96,0.96,1.18,2.1,1.18,3.52c0,1.12,0.07,27.43-0.02,39.27c-0.02,3.12-0.02,5.21,0.02,5.5"/>
		<path id="kvg:s-s2" stroke="#FB8C00" d="M34.65,17.15c9.23-1.27,22.23-2.65,31.1-3.65c2.99-0.34,4.26,1.01,4.26,3.55c0,2.5-0.1,28.08-0.14,38.96c-0.01,2.91-0.02,4.75-0.02,4.79"/>
		<path id="kvg:s-s3" stroke="#FDD835" d="M34.84,31.1c7.28-0.6,25.03-2.98,33.9-3.38"/>
		<path id="kvg:s-s4" stroke="#43A047" d="M34.86,44.63C43.38,44,59,42.12,68.6,41.51"/>
		<path id="kvg:s-s5" stroke="#1E88E5" d="M34.71,59.66C44.5,59,58.38,57.5,68.45,57.03"/>
	</g>
	<g id="kvg:0898b-g2">
		<path id="kvg:s-s6" stroke="#8E24AA" d="M41.99,66.75c0.26,1.5,0.01,2.99-0.41,4.04c-2.7,6.83-13.83,20.83-28.41,27.87"/>
		<path id="kvg:s-s7" stroke="#EC407A" d="M54.49,61.37c1.07,1.07,1.33,2.59,1.38,4.43c0.2,8.19,0.04,6.2,0.04,18.2c0,10.12,1.23,11.53,18.54,11.53c18.81,0,19.81-1.53,19.81-10.12"/>
	</g>
</g>
</g>
<g id="kvg:StrokeNumbers_0898b" style="font-size:18;fill:#E53935;font-weight:bold;stroke:#fff;stroke-width:1.5;paint-order:stroke">
	<text transform="matrix(1 0 0 1 26.50 23.50)" fill="#E53935">1</text>
	<text transform="matrix(1 0 0 1 35.50 13.50)" fill="#FB8C00">2</text>
	<text transform="matrix(1 0 0 1 38.25 27.43)" fill="#FDD835">3</text>
	<text transform="matrix(1 0 0 1 38.25 40.63)" fill="#43A047">4</text>
	<text transform="matrix(1 0 0 1 38.25 55.63)" fill="#1E88E5">5</text>
	<text transform="matrix(1 0 0 1 32.50 74.50)" fill="#8E24AA">6</text>
	<text transform="matrix(1 0 0 1 48.50 69.50)" fill="#EC407A">7</text>
</g>
</svg>
