<?xml version="1.0" encoding="UTF-8"?>
<svg xmlns="http://www.w3.org/2000/svg" width="109" height="109" viewBox="0 0 109 109">
<g id="kvg:StrokePaths_089aa" style="fill:none;stroke:#000000;stroke-width:3;stroke-linecap:round;stroke-linejoin:round;">
<g id="kvg:089aa">
	<g id="kvg:089aa-g1">
		<g id="kvg:089aa-g2">
			<g id="kvg:089aa-g3">
				<path id="kvg:s-s1" stroke="#E53935" d="M31.18,13.51c0.97,0.97,1.62,2.28,1.62,3.71c0,1.44,0.01,4.82,0.01,8.72"/>
				<path id="kvg:s-s2" stroke="#FB8C00" d="M16.82,29.19c1.12,0.11,2.45,0.15,3.55,0.03C25.75,28.62,36,26.62,42.39,26c1.86-0.18,3.24-0.25,4.27,0.02"/>
			</g>
			<g id="kvg:089aa-g4">
				<path id="kvg:s-s3" stroke="#FDD835" d="M21.81,33.25c2.44,3.38,4.02,7.74,4.35,10.98"/>
				<path id="kvg:s-s4" stroke="#43A047" d="M40.93,30.75c0.25,0.67,0.28,1.87,0.11,2.58c-0.4,3.04-2.04,7.79-2.42,9.67"/>
				<path id="kvg:s-s5" stroke="#1E88E5" d="M12.92,48.45c2.08,0.3,3.29,0.33,5.54,0.03c7.29-0.98,21.04-3.98,28.37-4.49c1.43-0.1,3.45-0.04,4.17,0.01"/>
			</g>
		</g>
		<g id="kvg:089aa-g5">
			<path id="kvg:s-s6" stroke="#8E24AA" d="M13.76,62.95c0.77,0.23,2.48,0.59,4.5,0.34c7.37-0.91,18.57-3.05,26.1-4.48c2.01-0.38,3.14-0.3,4.14-0.3"/>
			<path id="kvg:s-s7" stroke="#EC407A" d="M32.75,51c1,1,1.53,2.5,1.53,3.93c0,3.82,0.1,26.35-0.11,37.82c-0.04,2.16-0.08,3.83-0.12,4.75"/>
			<path id="kvg:s-s8" stroke="#00ACC1" d="M32.12,62.38c0,0.96-0.56,2.17-0.89,2.8c-4.2,8.16-12.56,17.69-19.74,22.07"/>
			<path id="kvg:s-s9" stroke="#795548" d="M37.5,66.75c3.72,2.83,6.11,5.67,8.25,8.5"/>
		</g>
	</g>
	<g id="kvg:089aa-g6">
		<g id="kvg:089aa-g7">
			<path id="kvg:s-s10" stroke="#546E7A" d="M55.94,18.69c0.75,0.75,1.34,2.08,1.34,3.48c0,1.14-0.1,27.03-0.05,37.57c0.01,2.41,0.03,3.99,0.05,4.25"/>
			<path id="kvg:s-s11" stroke="#E53935" d="M58.01,19.83c6.48-0.97,21.25-3.17,23.02-3.33c1.91-0.18,3.76,1.26,3.76,3.03c0,1.35-0.15,28.68-0.32,39.48c-0.04,2.5-0.07,4.11-0.07,4.31"/>
			<path id="kvg:s-s12" stroke="#FB8C00" d="M58.48,32.92c5.27-0.67,20.14-3.04,25.13-3.35"/>
			<path id="kvg:s-s13" stroke="#FDD835" d="M58.44,47.32c7.94-0.7,17.31-2.07,24.63-2.6"/>
			<path id="kvg:s-s14" stroke="#43A047" d="M58.59,61.44c6.04-0.44,17.54-1.81,24.63-2.1"/>
		</g>
		<g id="kvg:089aa-g8">
			<path id="kvg:s-s15" stroke="#1E88E5" d="M64,64.5c0.05,0.75,0.12,1.95-0.11,3.03C62.53,73.91,55.5,87.5,44,96.5"/>
			<path id="kvg:s-s16" stroke="#8E24AA" d="M73.36,62.72c0.71,0.71,1.27,1.9,1.3,3.61c0.07,4.77-0.06,12.48-0.06,17.94c0,9.49,1.65,10.87,10.65,10.87c9.75,0,11-0.87,11-8.47"/>
		</g>
	</g>
</g>
</g>
<g id="kvg:StrokeNumbers_089aa" style="font-size:18;fill:#E53935;font-weight:bold;stroke:#fff;stroke-width:1.5;paint-order:stroke">
	<text transform="matrix(1 0 0 1 26.25 10.63)" fill="#E53935">1</text>
	<text transform="matrix(1 0 0 1 15.77 25.99)" fill="#FB8C00">2</text>
	<text transform="matrix(1 0 0 1 15.75 39.13)" fill="#FDD835">3</text>
	<text transform="matrix(1 0 0 1 33.75 36.13)" fill="#43A047">4</text>
	<text transform="matrix(1 0 0 1 9.56 46.25)" fill="#1E88E5">5</text>
	<text transform="matrix(1 0 0 1 7.86 61.93)" fill="#8E24AA">6</text>
	<text transform="matrix(1 0 0 1 26.11 55.11)" fill="#EC407A">7</text>
	<text transform="matrix(1 0 0 1 21.22 70.47)" fill="#00ACC1">8</text>
	<text transform="matrix(1 0 0 1 40.16 67.20)" fill="#795548">9</text>
	<text transform="matrix(1 0 0 1 44.48 22.52)" fill="#546E7A">10</text>
	<text transform="matrix(1 0 0 1 57.21 16.27)" fill="#E53935">11</text>
	<text transform="matrix(1 0 0 1 58.41 29.65)" fill="#FB8C00">12</text>
	<text transform="matrix(1 0 0 1 58.41 44.42)" fill="#FDD835">13</text>
	<text transform="matrix(1 0 0 1 58.41 58.97)" fill="#43A047">14</text>
	<text transform="matrix(1 0 0 1 50.96 72.38)" fill="#1E88E5">15</text>
	<text transform="matrix(1 0 0 1 76.05 71.61)" fill="#8E24AA">16</text>
</g>
</svg>
