<?xml version="1.0" encoding="UTF-8"?>
<svg xmlns="http://www.w3.org/2000/svg" width="109" height="109" viewBox="0 0 109 109">
<g id="kvg:StrokePaths_089e6" style="fill:none;stroke:#000000;stroke-width:3;stroke-linecap:round;stroke-linejoin:round;">
<g id="kvg:089e6">
	<g id="kvg:089e6-g1">
		<g id="kvg:089e6-g2">
			<path id="kvg:s-s1" stroke="#E53935" d="M30.72,12.5c0.11,1.23-0.01,2.02-0.57,3.14c-2.59,5.25-7.93,12.06-15.91,18.86"/>
			<path id="kvg:s-s2" stroke="#FB8C00" d="M27.89,20.75c4.11-0.12,9.86-1,14.82-2c2.19-0.44,3.29,1.14,2,2.75c-4.21,5.25-6.33,8.38-10.9,15"/>
		</g>
		<g id="kvg:089e6-g3">
			<path id="kvg:s-s3" stroke="#FDD835" d="M21.57,37c0.97,0.97,0.98,2.25,1,3.41c0.56,26.46-2.32,41.34-10.07,49.84"/>
			<path id="kvg:s-s4" stroke="#43A047" d="M23.68,39.2c2.35-0.21,20.17-3.73,21.92-3.96c3.14-0.42,3.92,0.88,3.92,3.96c0,5.17-0.02,33.54-0.02,50.42c0,12.12-4.95,2.88-7.11,1.12"/>
			<path id="kvg:s-s5" stroke="#1E88E5" d="M34.86,39.37c0.7,0.7,0.94,1.75,0.94,3.27c0,10.62-0.05,18.74-0.05,24.37"/>
			<path id="kvg:s-s6" stroke="#8E24AA" d="M23.74,53.35c9.82-1.35,14.14-1.73,24.51-2.85"/>
			<path id="kvg:s-s7" stroke="#EC407A" d="M22.48,69c6.29-0.5,16.27-1.25,26.11-2"/>
		</g>
	</g>
	<g id="kvg:089e6-g4">
		<g id="kvg:089e6-g5">
			<g id="kvg:089e6-g6">
				<path id="kvg:s-s8" stroke="#00ACC1" d="M57.83,41c0.9,0.9,1.29,1.87,1.42,2.89c0.53,4.12,1.53,9,2.34,16.1c0.19,1.69,0.39,3.47,0.61,5.33"/>
				<path id="kvg:s-s9" stroke="#795548" d="M59.93,42.63c8.09-0.94,22.79-2.85,30.08-3.5c3.68-0.33,5.24,1.87,4.75,4.42c-0.8,4.17-1.6,6.6-3.13,14.34"/>
				<path id="kvg:s-s10" stroke="#546E7A" d="M63.02,62.01c7.23-0.76,16.53-1.59,25.72-2.53c1.84-0.19,3.61-0.36,5.26-0.52"/>
			</g>
			<g id="kvg:089e6-g7">
				<path id="kvg:s-s11" stroke="#E53935" d="M75.62,14.5c0.94,0.94,1.47,2.38,1.47,3.76c0,0.88,0.03,62.74,0.03,68.49"/>
			</g>
		</g>
		<path id="kvg:s-s12" stroke="#FB8C00" d="M56.93,92.54c0.8,0.82,1.82,1.1,3.33,0.64C70.75,90,86.88,85.25,93.38,83.12"/>
		<path id="kvg:s-s13" stroke="#FDD835" d="M89.49,75.22c3.38,3.78,7.38,10.91,9.27,16.82"/>
	</g>
</g>
</g>
<g id="kvg:StrokeNumbers_089e6" style="font-size:18;font-weight:bold;stroke:#fff;stroke-width:1.5;paint-order:stroke">
	<text transform="matrix(1 0 0 1 23.50 12.50)" fill="#E53935">1</text>
	<text transform="matrix(1 0 0 1 36.75 16.50)" fill="#FB8C00">2</text>
	<text transform="matrix(1 0 0 1 14.50 44.50)" fill="#FDD835">3</text>
	<text transform="matrix(1 0 0 1 24.75 35.50)" fill="#43A047">4</text>
	<text transform="matrix(1 0 0 1 39.75 46.55)" fill="#1E88E5">5</text>
	<text transform="matrix(1 0 0 1 27.70 49.48)" fill="#8E24AA">6</text>
	<text transform="matrix(1 0 0 1 27.75 65.50)" fill="#EC407A">7</text>
	<text transform="matrix(1 0 0 1 52.50 50.50)" fill="#00ACC1">8</text>
	<text transform="matrix(1 0 0 1 61.50 39.50)" fill="#795548">9</text>
	<text transform="matrix(1 0 0 1 65.25 58.50)" fill="#546E7A">10</text>
	<text transform="matrix(1 0 0 1 62.25 16.50)" fill="#E53935">11</text>
	<text transform="matrix(1 0 0 1 54.50 87.13)" fill="#FB8C00">12</text>
	<text transform="matrix(1 0 0 1 83.50 71.50)" fill="#FDD835">13</text>
</g>
</svg>
