<?xml version="1.0" encoding="UTF-8"?>
<svg xmlns="http://www.w3.org/2000/svg" width="109" height="109" viewBox="0 0 109 109">
<g id="kvg:StrokePaths_08a1f" style="fill:none;stroke:#000000;stroke-width:3;stroke-linecap:round;stroke-linejoin:round;">
<g id="kvg:08a1f">
	<g id="kvg:08a1f-g1">
		<path id="kvg:s-s1" stroke="#E53935" d="M24.25,14.25c3.06,1.72,7.92,7.07,8.68,9.75"/>
		<path id="kvg:s-s2" stroke="#FB8C00" d="M11.62,33.58c1.67,0.55,3.91,0.26,5.64,0.14c7.77-0.53,15.08-2.16,23.14-3.58c1.52-0.27,3.15-0.53,4.69-0.22"/>
		<path id="kvg:s-s3" stroke="#FDD835" d="M17.68,46.31c1.44,0.41,3.5,0.27,4.96,0.04c4.62-0.73,8.85-1.29,12.91-2.04c1.4-0.26,3.06-0.55,4.48-0.31"/>
		<path id="kvg:s-s4" stroke="#43A047" d="M17.8,58.83c1.16,0.35,2.75,0.15,3.96,0.07c3.68-0.22,8.69-1.1,13.5-1.89c1.34-0.22,2.97-0.54,4.33-0.3"/>
		<g id="kvg:08a1f-g2">
			<path id="kvg:s-s5" stroke="#1E88E5" d="M17.26,72.4c0.7,0.72,0.91,1.75,1.09,2.7c0.68,3.48,1.29,9.2,2.05,14.34c0.24,1.63,0.47,3.18,0.7,4.55"/>
			<path id="kvg:s-s6" stroke="#8E24AA" d="M19.55,73.87c6.71-1.33,10.58-1.75,15.47-2.46c2.97-0.43,4.5-0.13,3.89,3.12c-0.71,3.82-1.37,7.62-2.79,13.94"/>
			<path id="kvg:s-s7" stroke="#EC407A" d="M21.88,91.05c3.91-0.44,7.05-0.94,12.12-1.29c1.19-0.08,2.48-0.17,3.88-0.27"/>
		</g>
	</g>
	<g id="kvg:08a1f-g3">
		<g id="kvg:08a1f-g4">
			<path id="kvg:s-s8" stroke="#00ACC1" d="M59.39,28.97c0.11,0.78-0.09,2.21-0.51,3.09c-2.81,5.95-7.86,14.31-15.78,19.84"/>
			<path id="kvg:s-s9" stroke="#795548" d="M64.81,20C70,20.88,79.75,38.88,87.88,46.55c2.56,2.42,3.62,3.07,6.02,4.2"/>
		</g>
		<g id="kvg:08a1f-g5">
			<path id="kvg:s-s10" stroke="#546E7A" d="M65.77,52.52c0.48,1.23,0.07,2.58-0.51,3.79c-5.5,11.31-7.13,13.94-15.3,27.04c-1.71,2.74-0.74,3.62,2.32,2.73c10.1-2.95,19.73-5.33,31.18-8.27"/>
			<path id="kvg:s-s11" stroke="#E53935" d="M77.11,66.93c4.65,3.94,12.02,16.2,13.18,22.32"/>
		</g>
	</g>
</g>
</g>
<g id="kvg:StrokeNumbers_08a1f" style="font-size:18;font-weight:bold;stroke:#fff;stroke-width:1.5;paint-order:stroke">
	<text transform="matrix(1 0 0 1 17.50 14.50)" fill="#E53935">1</text>
	<text transform="matrix(1 0 0 1 4.50 34.55)" fill="#FB8C00">2</text>
	<text transform="matrix(1 0 0 1 10.50 47.50)" fill="#FDD835">3</text>
	<text transform="matrix(1 0 0 1 9.75 59.50)" fill="#43A047">4</text>
	<text transform="matrix(1 0 0 1 10.50 78.50)" fill="#1E88E5">5</text>
	<text transform="matrix(1 0 0 1 20.25 70.63)" fill="#8E24AA">6</text>
	<text transform="matrix(1 0 0 1 24.75 87.05)" fill="#EC407A">7</text>
	<text transform="matrix(1 0 0 1 49.50 30.13)" fill="#00ACC1">8</text>
	<text transform="matrix(1 0 0 1 68.50 18.13)" fill="#795548">9</text>
	<text transform="matrix(1 0 0 1 54.50 53.50)" fill="#546E7A">10</text>
	<text transform="matrix(1 0 0 1 68.50 70.50)" fill="#E53935">11</text>
</g>
</svg>
