<?xml version="1.0" encoding="UTF-8"?>
<svg xmlns="http://www.w3.org/2000/svg" width="109" height="109" viewBox="0 0 109 109">
<g id="kvg:StrokePaths_08a3a" style="fill:none;stroke:#000000;stroke-width:3;stroke-linecap:round;stroke-linejoin:round;">
<g id="kvg:08a3a">
	<g id="kvg:08a3a-g1">
		<path id="kvg:s-s1" stroke="#E53935" d="M22.55,13.5c2.52,1.94,6.5,7.98,7.13,11"/>
		<path id="kvg:s-s2" stroke="#FB8C00" d="M10.87,32.08c1.61,0.53,3.73,0.27,5.39,0.16c7.62-0.53,12.77-1.84,19.23-2.64c1.55-0.19,3.29-0.48,4.85-0.18"/>
		<path id="kvg:s-s3" stroke="#FDD835" d="M16.18,44.81c1.3,0.37,2.98,0.4,4.32,0.34c3.81-0.17,9-0.78,11.11-1.15c1.38-0.25,3.27-0.49,4.66-0.25"/>
		<path id="kvg:s-s4" stroke="#43A047" d="M16.05,59.33c1.25,0.38,3.05,0.49,4.33,0.3c4.13-0.63,8.43-1.18,12-1.86c1.16-0.22,2.53-0.51,3.7-0.3"/>
		<g id="kvg:08a3a-g2">
			<path id="kvg:s-s5" stroke="#1E88E5" d="M15.01,73.4c0.79,0.79,0.99,1.85,1.21,2.88c0.74,3.43,1.09,8.74,1.81,14.21c0.17,1.3,0.36,2.57,0.58,3.75"/>
			<path id="kvg:s-s6" stroke="#8E24AA" d="M16.69,74.37c7.71-1.01,10.58-1.5,15.93-2.24c3.05-0.42,4.66-0.06,3.99,3.25c-0.78,3.84-1.37,7.75-2.81,14.34"/>
			<path id="kvg:s-s7" stroke="#EC407A" d="M19.42,92.3c4.56-0.46,7.95-0.84,13.61-1.45c1.01-0.11,2.08,0.02,3.2-0.1"/>
		</g>
	</g>
	<g id="kvg:08a3a-g3">
		<g id="kvg:08a3a-g4">
			<path id="kvg:s-s8" stroke="#00ACC1" d="M65.13,13c0.05,0.75,0.07,1.74-0.36,2.75C61,24.62,56.12,33.38,45.15,44.5"/>
			<path id="kvg:s-s9" stroke="#795548" d="M65.44,17.17c3.3,3.78,14.23,13.55,21.04,19.25c2.65,2.21,5.55,4.31,8.61,5.93"/>
		</g>
		<g id="kvg:08a3a-g5">
			<path id="kvg:s-s10" stroke="#546E7A" d="M70.48,37.4c0.17,1.41-0.27,2.18-1.15,3.32C65.25,46,59.9,51.15,49.07,57.53"/>
			<path id="kvg:s-s11" stroke="#E53935" d="M78.42,51.49c0.19,1.33-0.4,2.53-1.22,3.59c-4.83,6.24-12.45,13.68-27.45,21.43"/>
			<path id="kvg:s-s12" stroke="#FB8C00" d="M86.03,69.96c0.29,1.58-0.46,2.85-1.59,3.98c-6.53,6.57-23.01,16.62-40.37,23.16"/>
		</g>
	</g>
</g>
</g>
<g id="kvg:StrokeNumbers_08a3a" style="font-size:18;font-weight:bold;stroke:#fff;stroke-width:1.5;paint-order:stroke">
	<text transform="matrix(1 0 0 1 16.50 13.63)" fill="#E53935">1</text>
	<text transform="matrix(1 0 0 1 3.75 33.05)" fill="#FB8C00">2</text>
	<text transform="matrix(1 0 0 1 8.50 46.48)" fill="#FDD835">3</text>
	<text transform="matrix(1 0 0 1 8.50 60.50)" fill="#43A047">4</text>
	<text transform="matrix(1 0 0 1 9.75 82.33)" fill="#1E88E5">5</text>
	<text transform="matrix(1 0 0 1 18.75 71.50)" fill="#8E24AA">6</text>
	<text transform="matrix(1 0 0 1 22.50 88.55)" fill="#EC407A">7</text>
	<text transform="matrix(1 0 0 1 56.25 15.13)" fill="#00ACC1">8</text>
	<text transform="matrix(1 0 0 1 73.50 21.13)" fill="#795548">9</text>
	<text transform="matrix(1 0 0 1 59.25 39.05)" fill="#546E7A">10</text>
	<text transform="matrix(1 0 0 1 68.25 53.50)" fill="#E53935">11</text>
	<text transform="matrix(1 0 0 1 74.25 72.50)" fill="#FB8C00">12</text>
</g>
</svg>
