<?xml version="1.0" encoding="UTF-8"?>
<svg xmlns="http://www.w3.org/2000/svg" width="109" height="109" viewBox="0 0 109 109">
<g id="kvg:StrokePaths_08a55" style="fill:none;stroke:#000000;stroke-width:3;stroke-linecap:round;stroke-linejoin:round;">
<g id="kvg:08a55">
	<g id="kvg:08a55-g1">
		<path id="kvg:s-s1" stroke="#E53935" d="M26.05,14.5c2.34,1.41,6.04,5.8,6.63,8"/>
		<path id="kvg:s-s2" stroke="#FB8C00" d="M12.12,33.08c1.66,0.54,3.81,0.28,5.5,0.07c7.04-0.89,15.51-2.99,21.24-3.6c1.57-0.17,3.17-0.18,4.73,0.12"/>
		<path id="kvg:s-s3" stroke="#FDD835" d="M19.68,43.56c1.29,0.37,2.99,0.16,4.33,0.08c3.83-0.24,7.64-1.26,11.5-1.87c1.61-0.25,2.9-0.55,4.51-0.28"/>
		<path id="kvg:s-s4" stroke="#43A047" d="M20.3,55.58c1.16,0.35,2.76,0.16,3.96,0.07c3.54-0.26,8.19-1.34,11.87-1.89c1.44-0.22,3.01-0.55,4.46-0.29"/>
		<g id="kvg:08a55-g2">
			<path id="kvg:s-s5" stroke="#1E88E5" d="M18.01,68.65c0.9,0.84,1.12,2.18,1.37,3.31c0.79,3.54,1.58,8.63,2.26,14.02c0.17,1.33,0.33,2.67,0.48,4.02"/>
			<path id="kvg:s-s6" stroke="#8E24AA" d="M19.94,70.37c5.41-1.02,11.7-2.35,17.81-3.25c2.87-0.43,4.57-0.02,3.89,3.13c-0.8,3.7-1.26,7.17-2.33,13.96"/>
			<path id="kvg:s-s7" stroke="#EC407A" d="M22.42,88.05c4.39-0.44,9.41-1.48,15.12-2.3c1.28-0.18,2.59-0.35,3.94-0.51"/>
		</g>
	</g>
	<g id="kvg:08a55-g3">
		<g id="kvg:08a55-g4">
			<path id="kvg:s-s8" stroke="#00ACC1" d="M52.76,20.65c2.24,0.35,4.55,0.2,6.49-0.02c6.48-0.74,19.92-2.76,27.38-3.3c1.79-0.13,3.65-0.12,5.42,0.26"/>
		</g>
		<path id="kvg:s-s9" stroke="#795548" d="M52.23,35.42c2.91,2.9,6.13,8.99,6.86,13.5"/>
		<path id="kvg:s-s10" stroke="#546E7A" d="M91.09,29.48c0.1,1.01,0.02,2.01-0.42,2.91C88.5,36.88,85,42.38,80.05,47.04"/>
		<g id="kvg:08a55-g5">
			<g id="kvg:08a55-g6">
				<path id="kvg:s-s11" stroke="#E53935" d="M46.75,59.72c2.38,0.83,5.45,0.48,7.89,0.15c10.42-1.41,24.59-2.69,37.35-3.89c2.67-0.25,5.11-0.51,7.75,0.04"/>
				<path id="kvg:s-s12" stroke="#FB8C00" d="M70.35,22.32c0.91,0.91,1.59,2.43,1.59,4.17c0,0.78-0.01,43.41-0.09,61.26c-0.01,3.47-0.03,5.94-0.04,6.88"/>
			</g>
		</g>
	</g>
</g>
</g>
<g id="kvg:StrokeNumbers_08a55" style="font-size:18;fill:#E53935;font-weight:bold;stroke:#fff;stroke-width:1.5;paint-order:stroke">
	<text transform="matrix(1 0 0 1 18.75 14.50)" fill="#E53935">1</text>
	<text transform="matrix(1 0 0 1 5.25 34.55)" fill="#FB8C00">2</text>
	<text transform="matrix(1 0 0 1 12.75 46.48)" fill="#FDD835">3</text>
	<text transform="matrix(1 0 0 1 12.75 58.40)" fill="#43A047">4</text>
	<text transform="matrix(1 0 0 1 12.75 77.83)" fill="#1E88E5">5</text>
	<text transform="matrix(1 0 0 1 21.50 66.13)" fill="#8E24AA">6</text>
	<text transform="matrix(1 0 0 1 26.25 84.05)" fill="#EC407A">7</text>
	<text transform="matrix(1 0 0 1 51.50 17.50)" fill="#00ACC1">8</text>
	<text transform="matrix(1 0 0 1 51.50 32.50)" fill="#795548">9</text>
	<text transform="matrix(1 0 0 1 79.50 29.50)" fill="#546E7A">10</text>
	<text transform="matrix(1 0 0 1 45.50 57.50)" fill="#E53935">11</text>
	<text transform="matrix(1 0 0 1 61.62 28.12)" fill="#FB8C00">12</text>
</g>
</svg>
