<?xml version="1.0" encoding="UTF-8"?>
<svg xmlns="http://www.w3.org/2000/svg" width="109" height="109" viewBox="0 0 109 109">
<g id="kvg:StrokePaths_08a60" style="fill:none;stroke:#000000;stroke-width:3;stroke-linecap:round;stroke-linejoin:round;">
<g id="kvg:08a60">
	<g id="kvg:08a60-g1">
		<path id="kvg:s-s1" stroke="#E53935" d="M22.8,17.25c2.96,1.68,7.64,6.89,8.38,9.5"/>
		<path id="kvg:s-s2" stroke="#FB8C00" d="M10.12,36.33c1.47,0.48,3.36,0.57,4.89,0.4c8.34-0.9,14.99-2.23,21.12-3.2c1.35-0.21,2.86-0.37,4.22-0.11"/>
		<path id="kvg:s-s3" stroke="#FDD835" d="M16.18,49.56c0.63,0.18,2.2,0.2,3.47,0.12c4.98-0.31,7.86-0.93,12.09-1.8c1.34-0.28,2.66-0.37,4.04-0.13"/>
		<path id="kvg:s-s4" stroke="#43A047" d="M16.3,61.33c1.16,0.35,2.75,0.15,3.95,0.07c3.68-0.24,8.56-1.21,12.5-1.92c1.17-0.21,2.65-0.48,3.83-0.27"/>
		<g id="kvg:08a60-g2">
			<path id="kvg:s-s5" stroke="#1E88E5" d="M15.76,74.69c0.81,0.75,1,1.93,1.24,2.93c0.72,3.01,1.3,7.59,2.14,12.06c0.28,1.47,0.53,2.86,0.75,4.07"/>
			<path id="kvg:s-s6" stroke="#8E24AA" d="M17.56,75.76c6.7-1.36,10.41-2.16,16.18-3.27c3.46-0.67,4.46-0.08,3.78,3.39c-0.64,3.29-0.9,6.12-2.18,12.01"/>
			<path id="kvg:s-s7" stroke="#EC407A" d="M20.19,90.93c4.22-0.42,8.64-1.27,14.02-1.83c0.85-0.09,1.74-0.19,2.66-0.29"/>
		</g>
	</g>
	<g id="kvg:08a60-g3">
		<g id="kvg:08a60-g4">
			<path id="kvg:s-s8" stroke="#00ACC1" d="M57.25,13c5.6,2.67,10.07,6.33,11.75,10"/>
		</g>
		<g id="kvg:08a60-g5">
			<path id="kvg:s-s9" stroke="#795548" d="M49.5,35.25c1.5,0.38,2.49,0.41,4.99,0.06c6.76-0.94,7.88-1.81,12.01-2.31c1.99-0.24,3.27,1,3.27,3c0,13.79-0.01,48.47-0.01,53.02c0,11.23-7.52,0.57-9.02-0.58"/>
			<path id="kvg:s-s10" stroke="#546E7A" d="M42.25,53.9c1.33,0.25,2.82,0.27,4.21,0c2.67-0.52,8.42-1.77,11.58-2.72c2.33-0.7,3.87,0.8,3.07,2.98c-4.29,11.76-10.65,23.79-19.28,30.71"/>
			<path id="kvg:s-s11" stroke="#E53935" d="M87.76,37.77c-0.01,1.11-0.34,1.91-0.99,2.85c-3.23,4.64-7.51,8.64-13.01,11.76"/>
			<path id="kvg:s-s12" stroke="#FB8C00" d="M71.38,53.5c5.75,8.12,12.59,16.75,19.02,23.1c2.16,2.13,4.1,4.15,6.85,6.05"/>
		</g>
	</g>
</g>
</g>
<g id="kvg:StrokeNumbers_08a60" style="font-size:18;font-weight:bold;stroke:#fff;stroke-width:1.5;paint-order:stroke">
	<text transform="matrix(1 0 0 1 15.50 16.63)" fill="#E53935">1</text>
	<text transform="matrix(1 0 0 1 3.50 37.50)" fill="#FB8C00">2</text>
	<text transform="matrix(1 0 0 1 9.50 50.98)" fill="#FDD835">3</text>
	<text transform="matrix(1 0 0 1 9.50 63.50)" fill="#43A047">4</text>
	<text transform="matrix(1 0 0 1 9.50 81.50)" fill="#1E88E5">5</text>
	<text transform="matrix(1 0 0 1 17.50 72.13)" fill="#8E24AA">6</text>
	<text transform="matrix(1 0 0 1 23.25 87.05)" fill="#EC407A">7</text>
	<text transform="matrix(1 0 0 1 49.50 12.50)" fill="#00ACC1">8</text>
	<text transform="matrix(1 0 0 1 48.50 32.50)" fill="#795548">9</text>
	<text transform="matrix(1 0 0 1 39.50 50.50)" fill="#546E7A">10</text>
	<text transform="matrix(1 0 0 1 77.50 37.50)" fill="#E53935">11</text>
	<text transform="matrix(1 0 0 1 78.75 61.55)" fill="#FB8C00">12</text>
</g>
</svg>
