<?xml version="1.0" encoding="UTF-8"?>
<svg xmlns="http://www.w3.org/2000/svg" width="109" height="109" viewBox="0 0 109 109">
<g id="kvg:StrokePaths_08a66" style="fill:none;stroke:#000000;stroke-width:3;stroke-linecap:round;stroke-linejoin:round;">
<g id="kvg:08a66">
	<g id="kvg:08a66-g1">
		<path id="kvg:s-s1" stroke="#E53935" d="M24.39,16.66c2.54,1.57,6.56,6.58,7.21,9.13"/>
		<path id="kvg:s-s2" stroke="#FB8C00" d="M10.97,36.12c1.65,0.3,3.24,0.44,4.91,0.23c6.51-0.81,14.73-2.18,20.52-3.1c1.41-0.23,3.02-0.71,4.45-0.34"/>
		<path id="kvg:s-s3" stroke="#FDD835" d="M19.31,47.8c0.98,0.28,2.32,0.3,3.33,0.2c3.52-0.34,9.11-1.39,12.38-2.02c1.36-0.26,2.83-0.44,4.21-0.22"/>
		<path id="kvg:s-s4" stroke="#43A047" d="M19.1,60.68c1.18,0.37,2.82,0.26,3.99,0.03c3.91-0.75,9.22-2.1,12.29-2.81c1.17-0.27,2.33-0.47,3.54-0.26"/>
		<g id="kvg:08a66-g2">
			<path id="kvg:s-s5" stroke="#1E88E5" d="M17.75,73c1.19,1.19,1.47,1.92,1.92,3.45c0.96,3.33,1.78,7.59,2.65,11.79c0.29,1.4,0.58,2.79,0.89,4.13"/>
			<path id="kvg:s-s6" stroke="#8E24AA" d="M20.22,74.61c5.89-1.08,11.48-2.4,16.9-3.52c2.71-0.56,3.8,0.59,3.23,3.28c-0.77,3.66-1.77,5.34-3.16,12.14"/>
			<path id="kvg:s-s7" stroke="#EC407A" d="M23.88,89.12c4.09-0.39,7.07-0.95,12.11-1.53c1.01-0.12,2.06-0.23,3.19-0.35"/>
		</g>
	</g>
	<g id="kvg:08a66-g3">
		<g id="kvg:08a66-g4">
			<path id="kvg:s-s8" stroke="#00ACC1" d="M45.25,37.94c2.1,0.31,5.01,0.18,6.29,0.04C60.36,37,75,34.38,87.68,33.3c2.12-0.18,3.4,0.26,4.47,0.53"/>
		</g>
		<g id="kvg:08a66-g5">
			<path id="kvg:s-s9" stroke="#795548" d="M46.87,55.38c0.63,0.33,2.7,0.42,3.35,0.33c5.28-0.72,11.16-2.09,15.55-2.48c0.98-0.09,2.15,0.07,2.96,0.34"/>
			<path id="kvg:s-s10" stroke="#546E7A" d="M57.55,57.37c0.73,0.73,1.02,2.06,1.02,3.09c0,3.41-0.09,11.41-0.09,15.56"/>
			<path id="kvg:s-s11" stroke="#E53935" d="M46.38,81.61c1.28,0.88,2.77,0.74,3.74,0.22C56.32,78.5,62.24,75,70.62,70.5"/>
		</g>
		<g id="kvg:08a66-g6">
			<path id="kvg:s-s12" stroke="#FB8C00" d="M69.04,12.25c1.5,1.73,2.19,3.75,2.44,6.7c2.64,31.3,8.14,55.55,22.1,74.07c3.06,4.06,4.42,2.73,4.07-9.19"/>
			<g id="kvg:08a66-g7">
				<path id="kvg:s-s13" stroke="#FDD835" d="M79.25,13c2.74,1.73,6.74,5.69,8.02,8.66"/>
			</g>
		</g>
	</g>
</g>
</g>
<g id="kvg:StrokeNumbers_08a66" style="font-size:18;fill:#E53935;font-weight:bold;stroke:#fff;stroke-width:1.5;paint-order:stroke">
	<text transform="matrix(1 0 0 1 17.50 16.63)" fill="#E53935">1</text>
	<text transform="matrix(1 0 0 1 3.75 37.50)" fill="#FB8C00">2</text>
	<text transform="matrix(1 0 0 1 11.25 48.43)" fill="#FDD835">3</text>
	<text transform="matrix(1 0 0 1 11.25 61.50)" fill="#43A047">4</text>
	<text transform="matrix(1 0 0 1 11.50 80.50)" fill="#1E88E5">5</text>
	<text transform="matrix(1 0 0 1 20.50 71.50)" fill="#8E24AA">6</text>
	<text transform="matrix(1 0 0 1 26.50 85.63)" fill="#EC407A">7</text>
	<text transform="matrix(1 0 0 1 46.50 35.50)" fill="#00ACC1">8</text>
	<text transform="matrix(1 0 0 1 46.99 52.03)" fill="#795548">9</text>
	<text transform="matrix(1 0 0 1 47.50 65.50)" fill="#546E7A">10</text>
	<text transform="matrix(1 0 0 1 46.50 77.50)" fill="#E53935">11</text>
	<text transform="matrix(1 0 0 1 57.50 14.50)" fill="#FB8C00">12</text>
	<text transform="matrix(1 0 0 1 75.50 10.50)" fill="#FDD835">13</text>
</g>
</svg>
