<?xml version="1.0" encoding="UTF-8"?>
<svg xmlns="http://www.w3.org/2000/svg" width="109" height="109" viewBox="0 0 109 109">
<g id="kvg:StrokePaths_08a8c" style="fill:none;stroke:#000000;stroke-width:3;stroke-linecap:round;stroke-linejoin:round;">
<g id="kvg:08a8c">
	<g id="kvg:08a8c-g1">
		<path id="kvg:s-s1" stroke="#E53935" d="M21.38,15.62c3.02,1.88,7.8,7.71,8.56,10.62"/>
		<path id="kvg:s-s2" stroke="#FB8C00" d="M10.62,35.33c0.71,0.23,3.4,0.29,4.1,0.23c6.53-0.56,15.9-2.19,21.83-3.37c1.16-0.23,2.7-0.14,3.29-0.02"/>
		<path id="kvg:s-s3" stroke="#FDD835" d="M15.68,47.81c1.27,0.2,3.16,0.41,4.45,0.24c4.74-0.65,10.03-1.6,14.1-2.42c1.01-0.2,2.89-0.38,3.79-0.13"/>
		<path id="kvg:s-s4" stroke="#43A047" d="M16.3,60.58c1.52,0.26,2.96,0.39,4.47,0.18c4.89-0.68,9.16-1.83,13.71-2.66c1.27-0.23,2.27-0.23,3.1-0.14"/>
		<g id="kvg:08a8c-g2">
			<path id="kvg:s-s5" stroke="#1E88E5" d="M15.51,73.53c0.98,0.98,1.23,2.03,1.42,3.07c0.61,3.35,1.17,8.72,1.86,13.37c0.24,1.64,0.48,3.2,0.71,4.54"/>
			<path id="kvg:s-s6" stroke="#8E24AA" d="M17.77,75.4C23.8,74.03,28.9,72.96,34,72.14c2.58-0.41,4.29-0.19,3.71,2.75c-0.72,3.64-1.36,7.2-2.77,13.23"/>
			<path id="kvg:s-s7" stroke="#EC407A" d="M19.77,91.02c3.94-0.42,8.94-1.03,14-1.59c1.01-0.11,2.06-0.23,3.14-0.36"/>
		</g>
	</g>
	<g id="kvg:08a8c-g3">
		<g id="kvg:08a8c-g4">
			<path id="kvg:s-s8" stroke="#00ACC1" d="M47.59,33.27c2.53,0.6,5.03,0.39,7.29,0.08C64.88,32,76,30.62,86.63,29.8c2.02-0.16,4.16-0.12,6.14,0.3"/>
			<path id="kvg:s-s9" stroke="#795548" d="M67.12,11.25c1,1,1.36,2.39,1.36,3.81c0,5.28,0.06,27.19,0.06,34.53"/>
			<path id="kvg:s-s10" stroke="#546E7A" d="M50.91,51.51c1.9,0.58,4.27,0.3,6.21,0.09c9.27-1.03,18-2.22,27.25-2.86c1.52-0.1,3.04-0.05,4.54,0.22"/>
		</g>
		<g id="kvg:08a8c-g5">
			<path id="kvg:s-s11" stroke="#E53935" d="M48.75,74.5c0.26,2.71-2.64,14.66-4.75,19.18"/>
			<path id="kvg:s-s12" stroke="#FB8C00" d="M54.93,67.65C61,87.38,72.88,93.5,90.68,94.49c5.39,0.3,5.35-2.15,2.42-6.23"/>
			<path id="kvg:s-s13" stroke="#FDD835" d="M68.61,64.94c2.14,4.93,5.02,6.01,5.93,2.4"/>
			<path id="kvg:s-s14" stroke="#43A047" d="M85.78,60.11c4.59,3.52,8.09,7.27,10.97,12.46"/>
		</g>
	</g>
</g>
</g>
<g id="kvg:StrokeNumbers_08a8c" style="font-size:18;fill:#E53935;font-weight:bold;stroke:#fff;stroke-width:1.5;paint-order:stroke">
	<text transform="matrix(1 0 0 1 15.50 17.50)" fill="#E53935">1</text>
	<text transform="matrix(1 0 0 1 3.75 36.50)" fill="#FB8C00">2</text>
	<text transform="matrix(1 0 0 1 8.50 49.48)" fill="#FDD835">3</text>
	<text transform="matrix(1 0 0 1 9.50 62.50)" fill="#43A047">4</text>
	<text transform="matrix(1 0 0 1 10.50 81.50)" fill="#1E88E5">5</text>
	<text transform="matrix(1 0 0 1 17.50 71.75)" fill="#8E24AA">6</text>
	<text transform="matrix(1 0 0 1 23.50 87.50)" fill="#EC407A">7</text>
	<text transform="matrix(1 0 0 1 47.50 30.13)" fill="#00ACC1">8</text>
	<text transform="matrix(1 0 0 1 56.50 13.50)" fill="#795548">9</text>
	<text transform="matrix(1 0 0 1 48.50 48.13)" fill="#546E7A">10</text>
	<text transform="matrix(1 0 0 1 42.75 69.05)" fill="#E53935">11</text>
	<text transform="matrix(1 0 0 1 50.50 63.50)" fill="#FB8C00">12</text>
	<text transform="matrix(1 0 0 1 62.50 61.63)" fill="#FDD835">13</text>
	<text transform="matrix(1 0 0 1 74.50 60.13)" fill="#43A047">14</text>
</g>
</svg>
