<?xml version="1.0" encoding="UTF-8"?>
<svg xmlns="http://www.w3.org/2000/svg" width="109" height="109" viewBox="0 0 109 109">
<g id="kvg:StrokePaths_08a95" style="fill:none;stroke:#000000;stroke-width:3;stroke-linecap:round;stroke-linejoin:round;">
<g id="kvg:08a95">
	<g id="kvg:08a95-g1">
		<path id="kvg:s-s1" stroke="#E53935" d="M19.3,14c2.52,1.5,6.5,6.17,7.13,8.5"/>
		<path id="kvg:s-s2" stroke="#FB8C00" d="M7.62,32.83c1.48,0.48,3.37,0.31,4.9,0.15c6.6-0.68,15.1-2.23,21.14-3.15c1.43-0.22,3-0.44,4.44-0.16"/>
		<path id="kvg:s-s3" stroke="#FDD835" d="M13.68,46.06c1.32,0.38,3.01,0.2,4.35-0.04c4.52-0.82,8.16-1.6,12.2-2.27c1.25-0.21,2.54-0.22,3.79-0.01"/>
		<path id="kvg:s-s4" stroke="#43A047" d="M14.3,58.08c1.13,0.35,3.02,0.18,4.2,0.05c3.5-0.38,8.2-1.29,11.62-1.66c1.22-0.13,2.63-0.35,3.96-0.25"/>
		<g id="kvg:08a95-g2">
			<path id="kvg:s-s5" stroke="#1E88E5" d="M13.01,70.51c0.87,0.87,1.24,2.12,1.39,2.86c0.71,3.4,1.37,8.69,2.03,13.32c0.2,1.38,0.37,2.68,0.52,3.82"/>
			<path id="kvg:s-s6" stroke="#8E24AA" d="M14.76,71.62c5.75-0.76,11.54-1.95,16.88-2.78c2.59-0.41,3.86,0.17,3.3,2.9c-0.73,3.56-1.33,7.3-2.71,13.2"/>
			<path id="kvg:s-s7" stroke="#EC407A" d="M17.47,87.81c4.01-0.43,8.73-1.29,13.83-1.87c0.84-0.1,1.83-0.19,2.63-0.06"/>
		</g>
	</g>
	<g id="kvg:08a95-g3">
		<g id="kvg:08a95-g4">
			<g id="kvg:08a95-g5">
				<path id="kvg:s-s8" stroke="#00ACC1" d="M85.84,15.25c0.06,0.39-0.23,1.41-0.62,1.82c-4.84,5.06-9.47,8.81-21.51,14.48"/>
			</g>
			<g id="kvg:08a95-g6">
				<g id="kvg:08a95-g7">
					<path id="kvg:s-s9" stroke="#795548" d="M77.17,28c0.79,0.79,1.22,1.75,1.22,2.86c0,1.03,0.11,30.8,0.11,37.89"/>
					<path id="kvg:s-s10" stroke="#546E7A" d="M79.48,46.06c4.05-0.5,7.06-1.14,11.14-1.57c1.02-0.11,2.23-0.38,3.24-0.11"/>
				</g>
				<path id="kvg:s-s11" stroke="#E53935" d="M65.7,47.93c0.87,0.87,1.22,2.12,1.22,2.86c0,2.46,0.04,13.09,0.04,18.83"/>
				<path id="kvg:s-s12" stroke="#FB8C00" d="M62.02,70.71c1.73,0.29,3.61,0.29,5.09,0.15c8.26-0.74,18.56-1.9,24.6-2.24c1.22-0.07,3.33,0.11,4.03,0.29"/>
			</g>
		</g>
		<g id="kvg:08a95-g8">
			<path id="kvg:s-s13" stroke="#FDD835" d="M38.21,36.12c1.07,0.56,3.04,0.44,4.55,0.06c1.5-0.38,5.16-1.98,8.38-4c1.48-0.93,2.86-0.43,2.15,1.69c-0.84,2.51-5.17,14.75-7.74,20.89"/>
			<path id="kvg:s-s14" stroke="#43A047" d="M45.46,55.26C49,54,52.6,52.95,54.31,52.05c2.44-1.3,4.4-1.08,3.6,2.26C54.75,67.5,50,83,37.68,92.25"/>
			<path id="kvg:s-s15" stroke="#1E88E5" d="M39.5,64.75c4.03-0.17,22.62,14.12,42.76,24.49c3.67,1.89,8.36,3.64,12.49,4.76"/>
		</g>
	</g>
</g>
</g>
<g id="kvg:StrokeNumbers_08a95" style="font-size:18;fill:#E53935;font-weight:bold;stroke:#fff;stroke-width:1.5;paint-order:stroke">
	<text transform="matrix(1 0 0 1 12.50 14.50)" fill="#E53935">1</text>
	<text transform="matrix(1 0 0 1 0.75 33.13)" fill="#FB8C00">2</text>
	<text transform="matrix(1 0 0 1 7.50 47.50)" fill="#FDD835">3</text>
	<text transform="matrix(1 0 0 1 6.75 58.50)" fill="#43A047">4</text>
	<text transform="matrix(1 0 0 1 6.75 77.90)" fill="#1E88E5">5</text>
	<text transform="matrix(1 0 0 1 17.25 68.50)" fill="#8E24AA">6</text>
	<text transform="matrix(1 0 0 1 19.50 84.05)" fill="#EC407A">7</text>
	<text transform="matrix(1 0 0 1 76.50 15.50)" fill="#00ACC1">8</text>
	<text transform="matrix(1 0 0 1 71.25 37.55)" fill="#795548">9</text>
	<text transform="matrix(1 0 0 1 81.50 42.50)" fill="#546E7A">10</text>
	<text transform="matrix(1 0 0 1 59.50 45.50)" fill="#E53935">11</text>
	<text transform="matrix(1 0 0 1 58.50 68.50)" fill="#FB8C00">12</text>
	<text transform="matrix(1 0 0 1 39.75 32.50)" fill="#FDD835">13</text>
	<text transform="matrix(1 0 0 1 36.50 57.50)" fill="#43A047">14</text>
	<text transform="matrix(1 0 0 1 42.50 64.50)" fill="#1E88E5">15</text>
</g>
</svg>
