<?xml version="1.0" encoding="UTF-8"?>
<svg xmlns="http://www.w3.org/2000/svg" width="109" height="109" viewBox="0 0 109 109">
<g id="kvg:StrokePaths_08aad" style="fill:none;stroke:#000000;stroke-width:3;stroke-linecap:round;stroke-linejoin:round;">
<g id="kvg:08aad">
	<g id="kvg:08aad-g1">
		<path id="kvg:s-s1" stroke="#E53935" d="M22.38,14.75c2.25,1.63,5.81,6.71,6.37,9.25"/>
		<path id="kvg:s-s2" stroke="#FB8C00" d="M10.37,33.08c1.61,0.48,3.62,0.35,5.27,0.14c5.96-0.76,13.52-1.42,20.1-2.38c1.5-0.22,3.09-0.43,4.6-0.16"/>
		<path id="kvg:s-s3" stroke="#FDD835" d="M16.23,46.31c1.17,0.37,2.73,0.18,3.93-0.01c3.99-0.62,8.33-1.2,11.58-1.97c1.35-0.32,3.26-0.58,4.65-0.58"/>
		<path id="kvg:s-s4" stroke="#43A047" d="M16.73,58.58c1.02,0.35,2.46,0.15,3.53,0.04c3.8-0.4,9.57-1.17,12.55-1.77c1.45-0.29,2.94-0.48,4.22-0.14"/>
		<g id="kvg:08aad-g2">
			<path id="kvg:s-s5" stroke="#1E88E5" d="M15.64,70.4c0.71,0.61,1.08,1.37,1.12,2.29c0.79,3.76,1.71,9.85,2.52,15.05c0.16,1.05,0.32,2.06,0.48,3"/>
			<path id="kvg:s-s6" stroke="#8E24AA" d="M17.75,72.05c6.09-0.91,11.59-1.7,17.42-2.67c1.7-0.28,2.73,1.3,2.49,2.58c-0.85,4.46-1.61,6.91-2.88,12.78"/>
			<path id="kvg:s-s7" stroke="#EC407A" d="M20.47,88.3c4.06-0.46,7.76-1.19,12.79-1.92c0.92-0.13,1.88-0.26,2.9-0.39"/>
		</g>
	</g>
	<g id="kvg:08aad-g3">
		<g id="kvg:08aad-g4">
			<path id="kvg:s-s8" stroke="#00ACC1" d="M46.37,26.71c2.31,0.59,4.67,0.42,7,0.15c9.97-1.14,21.82-2.23,29.77-3.06c2.36-0.25,4.38-0.21,6.71,0.14"/>
			<path id="kvg:s-s9" stroke="#795548" d="M65.76,13.25c1.06,1.06,1.59,2.08,1.59,3.25c0,8.5-0.07,17.03-0.19,20.46"/>
			<path id="kvg:s-s10" stroke="#546E7A" d="M52.53,38.58c2.22,0.42,4.15,0.3,5.98,0.08C64,38,71.21,37.1,78,36.47c1.61-0.15,3.63-0.29,5.23,0.04"/>
		</g>
		<g id="kvg:08aad-g5">
			<g id="kvg:08aad-g6">
				<path id="kvg:s-s11" stroke="#E53935" d="M46.14,48.1c-0.11,3.93-1.7,12-2.6,14.35"/>
				<path id="kvg:s-s12" stroke="#FB8C00" d="M47,49.96c11.42-1.27,28-3.71,41.35-4.28c9.15-0.39,0.43,7.14-0.74,8.35"/>
			</g>
			<g id="kvg:08aad-g7">
				<g id="kvg:08aad-g8">
					<path id="kvg:s-s13" stroke="#FDD835" d="M59.49,59.25c0.5,1.52,0.71,3.09,0.29,4.83c-2.76,11.61-6.54,22.94-15.26,30.61"/>
				</g>
				<path id="kvg:s-s14" stroke="#43A047" d="M71.64,56.26c1.11,1.24,1.65,2.67,1.69,4.37c0.11,4.62-0.13,16.99-0.13,24.62c0,9.5,0.8,10.52,11.3,10.52c11,0,11.38-1.02,11.38-7.31"/>
			</g>
		</g>
	</g>
</g>
</g>
<g id="kvg:StrokeNumbers_08aad" style="font-size:18;fill:#E53935;font-weight:bold;stroke:#fff;stroke-width:1.5;paint-order:stroke">
	<text transform="matrix(1 0 0 1 15.50 15.50)" fill="#E53935">1</text>
	<text transform="matrix(1 0 0 1 3.75 34.63)" fill="#FB8C00">2</text>
	<text transform="matrix(1 0 0 1 9.50 48.13)" fill="#FDD835">3</text>
	<text transform="matrix(1 0 0 1 9.50 61.63)" fill="#43A047">4</text>
	<text transform="matrix(1 0 0 1 8.50 76.63)" fill="#1E88E5">5</text>
	<text transform="matrix(1 0 0 1 18.50 69.50)" fill="#8E24AA">6</text>
	<text transform="matrix(1 0 0 1 22.50 85.50)" fill="#EC407A">7</text>
	<text transform="matrix(1 0 0 1 45.50 24.50)" fill="#00ACC1">8</text>
	<text transform="matrix(1 0 0 1 58.50 13.50)" fill="#795548">9</text>
	<text transform="matrix(1 0 0 1 42.50 36.50)" fill="#546E7A">10</text>
	<text transform="matrix(1 0 0 1 37.50 51.50)" fill="#E53935">11</text>
	<text transform="matrix(1 0 0 1 46.50 46.63)" fill="#FB8C00">12</text>
	<text transform="matrix(1 0 0 1 49.50 65.50)" fill="#FDD835">13</text>
	<text transform="matrix(1 0 0 1 76.50 63.50)" fill="#43A047">14</text>
</g>
</svg>
