<?xml version="1.0" encoding="UTF-8"?>
<svg xmlns="http://www.w3.org/2000/svg" width="109" height="109" viewBox="0 0 109 109">
<g id="kvg:StrokePaths_08b19" style="fill:none;stroke:#000000;stroke-width:3;stroke-linecap:round;stroke-linejoin:round;">
<g id="kvg:08b19">
	<g id="kvg:08b19-g1">
		<path id="kvg:s-s1" stroke="#E53935" d="M22.05,15.25c2.43,1.72,6.27,7.07,6.88,9.75"/>
		<path id="kvg:s-s2" stroke="#FB8C00" d="M9.62,34.33c2.05,0.67,5.2,0.34,7.27,0.04c6.35-0.94,12.11-1.99,18.23-3.24c1.6-0.33,2.87-0.52,4.47-0.2"/>
		<path id="kvg:s-s3" stroke="#FDD835" d="M15.43,46.31c1.22,0.35,2.83,0.2,4.08,0.05c3.82-0.48,8.07-1.52,11.97-2.23c1.43-0.26,2.54-0.64,4.04-0.38"/>
		<path id="kvg:s-s4" stroke="#43A047" d="M15.3,59.83c1.2,0.37,2.86,0.15,4.09,0.03c4.08-0.38,9.05-1.32,12.89-2.11c1.11-0.23,2.42-0.48,3.55-0.28"/>
		<g id="kvg:08b19-g2">
			<path id="kvg:s-s5" stroke="#1E88E5" d="M14.81,73.07c0.84,0.79,1.27,1.94,1.53,2.95c0.69,2.67,1.9,6.7,2.69,10.23c0.4,1.79,0.77,3.52,1.04,5"/>
			<path id="kvg:s-s6" stroke="#8E24AA" d="M16.75,74.29c6.49-1.04,10.91-2.16,15.86-2.92c2.86-0.44,4.17-0.03,3.41,3.01c-0.71,2.83-1.48,5.38-2.74,10.41"/>
			<path id="kvg:s-s7" stroke="#EC407A" d="M20.58,88.15c3.55-0.36,6.75-1.03,10.97-1.75c1.13-0.19,2.33-0.37,3.62-0.51"/>
		</g>
	</g>
	<g id="kvg:08b19-g3">
		<g id="kvg:08b19-g4">
			<g id="kvg:08b19-g5">
				<path id="kvg:s-s8" stroke="#00ACC1" d="M53.5,16c2.16,1.44,5.58,5.92,6.12,8.16"/>
			</g>
			<g id="kvg:08b19-g6">
				<path id="kvg:s-s9" stroke="#795548" d="M78.71,12.14c0.03,0.4,0.06,1.02-0.06,1.59c-0.51,2.41-2.74,6.89-6.01,10.89"/>
			</g>
		</g>
		<g id="kvg:08b19-g7">
			<path id="kvg:s-s10" stroke="#546E7A" d="M47.69,29.18c1.85,0.77,4.78,0.48,6.7,0.27c6.62-0.73,18.11-2.38,25.88-3.21c2.08-0.22,4.41-0.48,6.44,0.02"/>
			<g id="kvg:08b19-g8">
				<path id="kvg:s-s11" stroke="#E53935" d="M47.72,40.88c2.53,0.82,5.11,1.01,7.78,0.65c8.95-1.19,18.05-2.59,26.07-3.21c1.73-0.13,3.29,1.09,2.81,3.31C82.88,48.62,82,53.5,80.82,58.85"/>
				<path id="kvg:s-s12" stroke="#FB8C00" d="M39.29,53.02c2.83,0.48,5.09,0.59,7.81,0.15c10.15-1.67,28.03-3.29,41.54-4.3c2.53-0.19,4.63-0.39,7.1,0.19"/>
				<path id="kvg:s-s13" stroke="#FDD835" d="M48.11,63.07c2.21,0.32,4.31,0.11,6.51-0.15c7.31-0.88,15.17-1.87,23.51-2.54c1.64-0.13,3.22-0.15,4.86,0.05"/>
			</g>
			<g id="kvg:08b19-g9">
				<path id="kvg:s-s14" stroke="#43A047" d="M58.56,30.98c0.79,0.79,0.92,1.89,0.92,3.42c0,4.62-0.06,34.66-0.08,54.22c0,3.11,0,5.95,0,8.38"/>
			</g>
			<g id="kvg:08b19-g10">
				<path id="kvg:s-s15" stroke="#1E88E5" d="M70.39,29.06c0.9,0.9,1.17,2.19,1.17,3.67c0,3.01,0.04,40.36,0.05,57.02c0,4.2,0.01,7.09,0.01,7.78"/>
			</g>
			<path id="kvg:s-s16" stroke="#8E24AA" d="M58.25,63.62c0,2.12-1.62,4.67-2.86,6.63c-5.42,8.59-14.34,18.31-21.76,22.68"/>
			<path id="kvg:s-s17" stroke="#EC407A" d="M72.2,62.9c4.18,5.98,11.77,15.88,17.83,22.18c1.85,1.92,4.47,4.55,6.17,5.61"/>
		</g>
	</g>
</g>
</g>
<g id="kvg:StrokeNumbers_08b19" style="font-size:18;font-weight:bold;stroke:#fff;stroke-width:1.5;paint-order:stroke">
	<text transform="matrix(1 0 0 1 15.75 15.13)" fill="#E53935">1</text>
	<text transform="matrix(1 0 0 1 2.25 34.55)" fill="#FB8C00">2</text>
	<text transform="matrix(1 0 0 1 8.25 47.98)" fill="#FDD835">3</text>
	<text transform="matrix(1 0 0 1 8.25 59.90)" fill="#43A047">4</text>
	<text transform="matrix(1 0 0 1 8.25 80.83)" fill="#1E88E5">5</text>
	<text transform="matrix(1 0 0 1 17.25 70.63)" fill="#8E24AA">6</text>
	<text transform="matrix(1 0 0 1 23.25 84.50)" fill="#EC407A">7</text>
	<text transform="matrix(1 0 0 1 46.50 15.13)" fill="#00ACC1">8</text>
	<text transform="matrix(1 0 0 1 69.75 11.50)" fill="#795548">9</text>
	<text transform="matrix(1 0 0 1 44.25 26.50)" fill="#546E7A">10</text>
	<text transform="matrix(1 0 0 1 43.50 38.50)" fill="#E53935">11</text>
	<text transform="matrix(1 0 0 1 38.25 50.98)" fill="#FB8C00">12</text>
	<text transform="matrix(1 0 0 1 38.25 62.91)" fill="#FDD835">13</text>
	<text transform="matrix(1 0 0 1 61.50 36.13)" fill="#43A047">14</text>
	<text transform="matrix(1 0 0 1 74.50 34.50)" fill="#1E88E5">15</text>
	<text transform="matrix(1 0 0 1 42.75 73.63)" fill="#8E24AA">16</text>
	<text transform="matrix(1 0 0 1 80.50 71.50)" fill="#EC407A">17</text>
</g>
</svg>
