<?xml version="1.0" encoding="UTF-8"?>
<svg xmlns="http://www.w3.org/2000/svg" width="109" height="109" viewBox="0 0 109 109">
<g id="kvg:StrokePaths_08b70" style="fill:none;stroke:#000000;stroke-width:3;stroke-linecap:round;stroke-linejoin:round;">
<g id="kvg:08b70">
	<g id="kvg:08b70-g1">
		<path id="kvg:s-s1" stroke="#E53935" d="M23.75,15.5c2.38,1.46,6.15,5.98,6.75,8.25"/>
		<path id="kvg:s-s2" stroke="#FB8C00" d="M11.37,34.08c0.63,0.23,3.03,0.26,3.67,0.23C22.25,34,31,32.25,38.93,31.19c1.05-0.14,2.64,0.11,3.16,0.23"/>
		<path id="kvg:s-s3" stroke="#FDD835" d="M17.98,47.56c0.99,0.31,2.38,0.14,3.39,0.06c3.67-0.29,8.73-1.4,12.76-1.89c1.15-0.14,2.36-0.21,3.51,0.01"/>
		<path id="kvg:s-s4" stroke="#43A047" d="M18.48,60.08c1.1,0.38,2.76,0.14,3.91,0.05c3.19-0.23,7.37-0.93,10.76-1.41c1.19-0.17,2.69-0.5,3.88-0.26"/>
		<g id="kvg:08b70-g2">
			<path id="kvg:s-s5" stroke="#1E88E5" d="M17.14,73.65c0.77,0.68,1.16,1.78,1.17,2.81c0.7,3.43,1.4,8.21,2.1,12.78c0.2,1.28,0.39,2.55,0.59,3.76"/>
			<path id="kvg:s-s6" stroke="#8E24AA" d="M19.31,74.37c6.44-0.89,11.23-2.1,17.17-3c1.49-0.22,2.39,1.04,2.18,2.06c-0.89,4.25-1.66,6.72-3.24,13.78"/>
			<path id="kvg:s-s7" stroke="#EC407A" d="M21.72,90.3c3.89-0.44,7.44-0.97,12.16-1.6c1.11-0.15,2.28-0.3,3.54-0.46"/>
		</g>
	</g>
	<g id="kvg:08b70-g3">
		<g id="kvg:08b70-g4">
			<g id="kvg:08b70-g5">
				<path id="kvg:s-s8" stroke="#00ACC1" d="M50.93,13.95c2.58,1.52,6.67,6.23,7.32,8.59"/>
				<path id="kvg:s-s9" stroke="#795548" d="M76.38,9.25c0.02,0.35,0.09,1.16-0.04,1.65c-0.83,3.1-2.8,7.38-6.12,11.27"/>
				<path id="kvg:s-s10" stroke="#546E7A" d="M49.06,27.75c1.81,0.37,4.15,0.29,5.57,0.03c6.06-1.14,17.68-3.27,23.88-3.99c1.63-0.19,3.66-0.46,5.27-0.02"/>
			</g>
			<path id="kvg:s-s11" stroke="#E53935" d="M65.28,27.21c0.94,0.94,1.22,2.29,1.22,3.72c0,2.82-0.14,7.44-0.14,11.75"/>
			<path id="kvg:s-s12" stroke="#FB8C00" d="M51.3,36.49c2.08,0.39,4.1,0.1,5.62-0.13c5.23-0.81,14.22-2.28,19.35-2.78c1.52-0.15,3.17-0.35,4.68,0.06"/>
			<path id="kvg:s-s13" stroke="#FDD835" d="M45.78,45.82c2.47,0.56,5.42,0.23,7.59-0.1c7.12-1.09,21.41-3.3,30.14-4.24c2.49-0.27,5-0.71,7.47-0.11"/>
		</g>
		<g id="kvg:08b70-g6">
			<g id="kvg:08b70-g7">
				<path id="kvg:s-s14" stroke="#43A047" d="M56.76,50.12c0.12,0.63-0.05,1.28-0.35,1.64c-1.96,2.39-5.6,5.52-12.66,8.73"/>
			</g>
			<g id="kvg:08b70-g8">
				<g id="kvg:08b70-g9">
					<path id="kvg:s-s15" stroke="#1E88E5" d="M43.22,65.89c2.66,0.61,5.89,0.36,8.56-0.05c8.24-1.26,22.23-4.44,32.84-5.7c2.63-0.31,5.06-0.53,7.66,0.07"/>
				</g>
			</g>
			<g id="kvg:08b70-g10">
				<path id="kvg:s-s16" stroke="#8E24AA" d="M55.01,56.65c0.07,0.28,0.95,1.47,0.95,3.27c0,10.95-0.08,28.88-0.08,32.7c0,5.12-4.32,1.15-6.7-0.4"/>
			</g>
			<path id="kvg:s-s17" stroke="#EC407A" d="M44.88,82.88c1.25,0.62,2.49,0.25,3.25-0.28c0.76-0.51,11.48-8.71,14.69-11.18"/>
			<g id="kvg:08b70-g11">
				<g id="kvg:08b70-g12">
					<path id="kvg:s-s18" stroke="#00ACC1" d="M67.81,47.99c1.53,1.57,2.33,3.38,2.6,5.51c2.34,18.31,10.69,35.73,22.11,43.33c4.04,2.68,4.44-1.05,3.93-5.7"/>
				</g>
				<g id="kvg:08b70-g13">
					<path id="kvg:s-s19" stroke="#795548" d="M84.87,66.62c0.06,0.59,0.12,1.54-0.11,2.39c-1.39,5.04-9.03,16.67-19.91,23.45"/>
				</g>
				<g id="kvg:08b70-g14">
					<g id="kvg:08b70-g15">
						<path id="kvg:s-s20" stroke="#546E7A" d="M77.88,47.38c2.31,1.27,5.99,4.16,7.07,6.33"/>
					</g>
				</g>
			</g>
		</g>
	</g>
</g>
</g>
<g id="kvg:StrokeNumbers_08b70" style="font-size:18;fill:#E53935;font-weight:bold;stroke:#fff;stroke-width:1.5;paint-order:stroke">
	<text transform="matrix(1 0 0 1 16.50 15.50)" fill="#E53935">1</text>
	<text transform="matrix(1 0 0 1 4.50 35.50)" fill="#FB8C00">2</text>
	<text transform="matrix(1 0 0 1 11.50 48.50)" fill="#FDD835">3</text>
	<text transform="matrix(1 0 0 1 10.99 61.41)" fill="#43A047">4</text>
	<text transform="matrix(1 0 0 1 11.50 80.50)" fill="#1E88E5">5</text>
	<text transform="matrix(1 0 0 1 19.99 70.50)" fill="#8E24AA">6</text>
	<text transform="matrix(1 0 0 1 23.50 86.68)" fill="#EC407A">7</text>
	<text transform="matrix(1 0 0 1 47.50 11.50)" fill="#00ACC1">8</text>
	<text transform="matrix(1 0 0 1 68.50 9.50)" fill="#795548">9</text>
	<text transform="matrix(1 0 0 1 43.50 26.50)" fill="#546E7A">10</text>
	<text transform="matrix(1 0 0 1 69.94 32.38)" fill="#E53935">11</text>
	<text transform="matrix(1 0 0 1 44.50 35.50)" fill="#FB8C00">12</text>
	<text transform="matrix(1 0 0 1 44.44 44.50)" fill="#FDD835">13</text>
	<text transform="matrix(1 0 0 1 46.50 53.50)" fill="#43A047">14</text>
	<text transform="matrix(1 0 0 1 34.50 68.08)" fill="#1E88E5">15</text>
	<text transform="matrix(1 0 0 1 57.94 60.50)" fill="#8E24AA">16</text>
	<text transform="matrix(1 0 0 1 42.50 79.50)" fill="#EC407A">17</text>
	<text transform="matrix(1 0 0 1 60.50 54.50)" fill="#00ACC1">18</text>
	<text transform="matrix(1 0 0 1 87.50 70.50)" fill="#795548">19</text>
	<text transform="matrix(1 0 0 1 85.50 49.50)" fill="#546E7A">20</text>
</g>
</svg>
