<?xml version="1.0" encoding="UTF-8"?>
<svg xmlns="http://www.w3.org/2000/svg" width="109" height="109" viewBox="0 0 109 109">
<g id="kvg:StrokePaths_08b77" style="fill:none;stroke:#000000;stroke-width:3;stroke-linecap:round;stroke-linejoin:round;">
<g id="kvg:08b77">
	<g id="kvg:08b77-g1">
		<path id="kvg:s-s1" stroke="#E53935" d="M26,14.12c2.45,1.3,6.32,5.35,6.93,7.38"/>
		<path id="kvg:s-s2" stroke="#FB8C00" d="M12.62,31.83c1.13,0.3,2.76,0.34,4.1,0.23c6.78-0.56,15.03-1.81,23.08-3.12c1.17-0.19,2.95-0.14,3.54-0.02"/>
		<path id="kvg:s-s3" stroke="#FDD835" d="M17.43,44.56c1.15,0.33,2.54,0.14,3.7-0.01c3.37-0.43,9.74-1.61,13.88-2.27c1.25-0.2,2.75-0.49,4.01-0.28"/>
		<path id="kvg:s-s4" stroke="#43A047" d="M17.55,56.83c1.18,0.36,2.76,0.16,3.97,0.02c3.91-0.46,10.3-1.31,13.86-1.67c1.28-0.13,2.68-0.44,3.95-0.21"/>
		<g id="kvg:08b77-g2">
			<path id="kvg:s-s5" stroke="#1E88E5" d="M18.9,71.06c0.8,0.71,0.99,1.85,1.23,2.82c0.72,2.94,1.6,7.3,2.36,11.25c0.25,1.28,0.48,2.52,0.7,3.65"/>
			<path id="kvg:s-s6" stroke="#8E24AA" d="M20.67,71.81c7.44-1.43,11.65-2.27,16.84-3.03c2.87-0.42,3.79,0.29,3.19,3.12c-0.65,3.06-1.33,5.96-2.67,11.09"/>
			<path id="kvg:s-s7" stroke="#EC407A" d="M23.71,85.89c4.05-0.39,8.01-1.03,13.02-1.68c0.89-0.12,1.82-0.23,2.79-0.35"/>
		</g>
	</g>
	<g id="kvg:08b77-g3">
		<g id="kvg:08b77-g4">
			<path id="kvg:s-s8" stroke="#00ACC1" d="M47.5,19.78c2.5,0.47,4.33,0.28,6.37,0.09c8.95-0.85,23.74-2.27,33-2.58c1.89-0.06,3.78-0.37,5.63,0.08"/>
			<path id="kvg:s-s9" stroke="#795548" d="M59.58,9.57c0.92,0.92,1.49,2.2,1.59,2.89c0.94,6.41,1.49,12.27,1.76,14.6"/>
			<path id="kvg:s-s10" stroke="#546E7A" d="M81.7,9.19c0.55,0.94,0.76,2.23,0.51,3.28c-1.44,6.14-1.59,7.66-2.92,13.24"/>
		</g>
		<g id="kvg:08b77-g5">
			<g id="kvg:08b77-g6">
				<g id="kvg:08b77-g7">
					<path id="kvg:s-s11" stroke="#E53935" d="M57.87,30.37c0.14,0.92-0.04,2.13-0.49,2.91c-2.85,5.02-6.46,9.28-12.99,15.4"/>
					<path id="kvg:s-s12" stroke="#FB8C00" d="M54.23,39.49c0.58,0.58,0.75,1.51,0.75,2.63c0,5.53-0.01,14.01-0.02,19.38c0,1.9,0,3.4,0,4.25"/>
				</g>
				<path id="kvg:s-s13" stroke="#FDD835" d="M73.08,27.75c0.04,0.36-0.01,0.83-0.13,1.14c-0.77,1.96-1.5,2.97-3.26,5.36"/>
				<path id="kvg:s-s14" stroke="#43A047" d="M55.68,37.41c5.27-0.44,21.87-2.26,30.21-3.17c2.3-0.25,3.97-0.44,4.6-0.5"/>
				<path id="kvg:s-s15" stroke="#1E88E5" d="M69.85,37.45c0.66,0.66,1.08,1.92,1.08,3.45c0,5.86-0.04,10.35-0.04,20.75"/>
				<path id="kvg:s-s16" stroke="#8E24AA" d="M56.38,46.28c5.06-0.37,18.84-1.78,25.89-2.46c1.79-0.17,3.09-0.3,3.64-0.35"/>
				<path id="kvg:s-s17" stroke="#EC407A" d="M56.23,54.3c5.26-0.31,18.65-1.59,26.14-2.23c2.02-0.17,3.52-0.3,4.18-0.35"/>
				<path id="kvg:s-s18" stroke="#00ACC1" d="M56.31,63.38c5.24-0.44,20.78-1.67,29.07-2.34c2.34-0.19,4.05-0.33,4.68-0.4"/>
			</g>
			<g id="kvg:08b77-g8">
				<path id="kvg:s-s19" stroke="#795548" d="M54.69,71.54c1.31,0.46,2.55,0.37,5.04,0.09c2.5-0.28,17.3-3.25,19.02-3.53c2.88-0.48,4.11,2.08,2.48,3.95C71.25,83.5,58.25,92.38,43,97.5"/>
				<path id="kvg:s-s20" stroke="#546E7A" d="M53.53,77.42c7.09,0.18,20.43,10.7,32.3,16.18c2.55,1.18,5.25,2.37,8.05,2.77"/>
			</g>
		</g>
	</g>
</g>
</g>
<g id="kvg:StrokeNumbers_08b77" style="font-size:18;fill:#E53935;font-weight:bold;stroke:#fff;stroke-width:1.5;paint-order:stroke">
	<text transform="matrix(1 0 0 1 19.50 14.50)" fill="#E53935">1</text>
	<text transform="matrix(1 0 0 1 5.50 33.13)" fill="#FB8C00">2</text>
	<text transform="matrix(1 0 0 1 9.75 46.55)" fill="#FDD835">3</text>
	<text transform="matrix(1 0 0 1 9.75 58.48)" fill="#43A047">4</text>
	<text transform="matrix(1 0 0 1 12.50 77.90)" fill="#1E88E5">5</text>
	<text transform="matrix(1 0 0 1 21.75 68.83)" fill="#8E24AA">6</text>
	<text transform="matrix(1 0 0 1 26.50 82.25)" fill="#EC407A">7</text>
	<text transform="matrix(1 0 0 1 45.75 16.63)" fill="#00ACC1">8</text>
	<text transform="matrix(1 0 0 1 51.50 8.50)" fill="#795548">9</text>
	<text transform="matrix(1 0 0 1 69.50 8.50)" fill="#546E7A">10</text>
	<text transform="matrix(1 0 0 1 47.50 32.98)" fill="#E53935">11</text>
	<text transform="matrix(1 0 0 1 45.50 54.50)" fill="#FB8C00">12</text>
	<text transform="matrix(1 0 0 1 75.50 32.50)" fill="#FDD835">13</text>
	<text transform="matrix(1 0 0 1 60.75 34.63)" fill="#43A047">14</text>
	<text transform="matrix(1 0 0 1 73.50 42.50)" fill="#1E88E5">15</text>
	<text transform="matrix(1 0 0 1 58.50 44.60)" fill="#8E24AA">16</text>
	<text transform="matrix(1 0 0 1 58.50 52.03)" fill="#EC407A">17</text>
	<text transform="matrix(1 0 0 1 58.50 61.50)" fill="#00ACC1">18</text>
	<text transform="matrix(1 0 0 1 57.50 69.50)" fill="#795548">19</text>
	<text transform="matrix(1 0 0 1 46.50 84.50)" fill="#546E7A">20</text>
</g>
</svg>
