<?xml version="1.0" encoding="UTF-8"?>
<svg xmlns="http://www.w3.org/2000/svg" width="109" height="109" viewBox="0 0 109 109">
<g id="kvg:StrokePaths_08c37" style="fill:none;stroke:#000000;stroke-width:3;stroke-linecap:round;stroke-linejoin:round;">
<g id="kvg:08c37">
	<g id="kvg:08c37-g1">
		<path id="kvg:s-s1" stroke="#E53935" d="M36.76,16.48c0.12,1.35-0.01,2.47-0.71,3.66C33.5,24.5,27.88,31,21.33,35.75"/>
		<path id="kvg:s-s2" stroke="#FB8C00" d="M67.75,15.88c7.23,4.04,16.03,11.75,18.5,15.88"/>
	</g>
	<g id="kvg:08c37-g2">
		<path id="kvg:s-s3" stroke="#FDD835" d="M52.91,29.75c0.22,1.87,0.06,3.24-0.85,4.9C46.62,44.5,33.25,58,15.67,67.5"/>
		<path id="kvg:s-s4" stroke="#43A047" d="M53.67,35.33c9.83,8.42,23.1,18.25,32.61,24.27c3.37,2.13,6.76,4.01,10.72,4.79"/>
		<g id="kvg:08c37-g3">
			<path id="kvg:s-s5" stroke="#1E88E5" d="M31.56,67.91c1.02,0.99,1.29,1.59,1.69,3.02c1.32,4.67,2.88,13.76,4.04,21.02c0.21,1.32,0.4,2.59,0.56,3.75"/>
			<path id="kvg:s-s6" stroke="#8E24AA" d="M33.75,69.2c12.58-1.22,30.04-2.91,37.35-3.74c2.77-0.32,4.66,1.54,4.04,3.77c-1.43,5.19-3.57,14.4-4.92,20.07"/>
			<path id="kvg:s-s7" stroke="#EC407A" d="M38.65,92.84c10.47-0.96,18.55-1.55,28.85-2.46c1.47-0.13,2.96-0.26,4.49-0.38"/>
		</g>
	</g>
</g>
</g>
<g id="kvg:StrokeNumbers_08c37" style="font-size:18;fill:#E53935;font-weight:bold;stroke:#fff;stroke-width:1.5;paint-order:stroke">
	<text transform="matrix(1 0 0 1 29.50 16.50)" fill="#E53935">1</text>
	<text transform="matrix(1 0 0 1 62.50 13.63)" fill="#FB8C00">2</text>
	<text transform="matrix(1 0 0 1 44.50 31.50)" fill="#FDD835">3</text>
	<text transform="matrix(1 0 0 1 60.50 39.50)" fill="#43A047">4</text>
	<text transform="matrix(1 0 0 1 25.50 76.63)" fill="#1E88E5">5</text>
	<text transform="matrix(1 0 0 1 36.50 65.50)" fill="#8E24AA">6</text>
	<text transform="matrix(1 0 0 1 41.50 89.50)" fill="#EC407A">7</text>
</g>
</svg>
