<?xml version="1.0" encoding="UTF-8"?>
<svg xmlns="http://www.w3.org/2000/svg" width="109" height="109" viewBox="0 0 109 109">
<g id="kvg:StrokePaths_08c46" style="fill:none;stroke:#000000;stroke-width:3;stroke-linecap:round;stroke-linejoin:round;">
<g id="kvg:08c46">
	<g id="kvg:08c46-g1">
		<path id="kvg:s-s1" stroke="#E53935" d="M28.38,20.42c2.62,0.46,5.87,0.52,8.39,0.29c8.96-0.82,23.61-2.71,36.49-3.24c2.29-0.09,4.63,0.02,6.87,0.57"/>
	</g>
	<g id="kvg:08c46-g2">
		<g id="kvg:08c46-g3">
			<path id="kvg:s-s2" stroke="#FB8C00" d="M29.92,38.1c1.08,0.52,1.83,1.4,2.02,2.26c0.72,3.22,2.23,9.07,3.8,15.39c0.33,1.32,0.66,2.67,0.99,4.01"/>
			<path id="kvg:s-s3" stroke="#FDD835" d="M32.56,39.51c10.07-1.26,31.45-3.67,39.44-4.07c3.71-0.19,5.46,1.91,4.42,5.07c-1.22,3.72-2.62,6.92-5.58,14.02"/>
			<path id="kvg:s-s4" stroke="#43A047" d="M37.48,58.02c7.32-0.55,19.84-1.9,30.15-2.45c1.68-0.09,3.29-0.17,4.8-0.22"/>
		</g>
		<path id="kvg:s-s5" stroke="#1E88E5" d="M38.25,69.17c2.58,2.6,6.66,10.68,7.31,14.72"/>
		<path id="kvg:s-s6" stroke="#8E24AA" d="M69.36,63.81c0.13,0.67,0.12,1.61-0.05,2.34c-1.14,4.9-4.14,13.41-8.94,20.1"/>
		<path id="kvg:s-s7" stroke="#EC407A" d="M15.13,90.63c2.47,0.76,6.99,0.96,9.46,0.76c20.87-1.63,38.01-2.76,59.03-3.25c4.11-0.09,6.58,0.36,8.64,0.75"/>
	</g>
</g>
</g>
<g id="kvg:StrokeNumbers_08c46" style="font-size:18;fill:#E53935;font-weight:bold;stroke:#fff;stroke-width:1.5;paint-order:stroke">
	<text transform="matrix(1 0 0 1 21.75 21.13)" fill="#E53935">1</text>
	<text transform="matrix(1 0 0 1 24.75 46.50)" fill="#FB8C00">2</text>
	<text transform="matrix(1 0 0 1 34.50 34.63)" fill="#FDD835">3</text>
	<text transform="matrix(1 0 0 1 39.75 54.13)" fill="#43A047">4</text>
	<text transform="matrix(1 0 0 1 32.25 74.50)" fill="#1E88E5">5</text>
	<text transform="matrix(1 0 0 1 60.75 67.63)" fill="#8E24AA">6</text>
	<text transform="matrix(1 0 0 1 9.50 92.50)" fill="#EC407A">7</text>
</g>
</svg>
