<?xml version="1.0" encoding="UTF-8"?>
<svg xmlns="http://www.w3.org/2000/svg" width="109" height="109" viewBox="0 0 109 109">
<g id="kvg:StrokePaths_08c9d" style="fill:none;stroke:#000000;stroke-width:3;stroke-linecap:round;stroke-linejoin:round;">
<g id="kvg:08c9d">
	<g id="kvg:08c9d-g1">
		<path id="kvg:s-s1" stroke="#E53935" d="M31.75,17.8c1.16,1.16,1.68,2.84,1.68,4.63c0,1.49-0.18,33.31-0.18,48.31c0,3.5-0.07,3.62-0.07,6.5"/>
		<path id="kvg:s-s2" stroke="#FB8C00" d="M33.82,19.85c7.3-0.73,30.8-3.48,37.67-4.11c2.94-0.27,4.51,1,4.51,3.66c0,3.09-0.5,32.69-0.74,47.84c-0.08,4.93-0.13,8.28-0.13,8.6"/>
		<path id="kvg:s-s3" stroke="#FDD835" d="M34.76,38.26c8.99-1.26,33.57-3.64,39.78-3.64"/>
		<path id="kvg:s-s4" stroke="#43A047" d="M34.82,55.24c10.93-0.99,27.93-2.99,39.51-3.18"/>
		<path id="kvg:s-s5" stroke="#1E88E5" d="M34.57,73.74C45.5,73,64.12,71.05,74.08,71.05"/>
	</g>
	<g id="kvg:08c9d-g2">
		<path id="kvg:s-s6" stroke="#8E24AA" d="M41.95,80.5c0.55,1.41-0.42,3.3-1.5,4.33C37.17,87.94,28.56,94.07,22,97.75"/>
		<path id="kvg:s-s7" stroke="#EC407A" d="M65.75,80C72.78,84.75,81.08,93.35,83,97.5"/>
	</g>
</g>
</g>
<g id="kvg:StrokeNumbers_08c9d" style="font-size:18;fill:#E53935;font-weight:bold;stroke:#fff;stroke-width:1.5;paint-order:stroke">
	<text transform="matrix(1 0 0 1 25.25 26.63)" fill="#E53935">1</text>
	<text transform="matrix(1 0 0 1 36.25 15.63)" fill="#FB8C00">2</text>
	<text transform="matrix(1 0 0 1 38.75 34.13)" fill="#FDD835">3</text>
	<text transform="matrix(1 0 0 1 39.25 50.63)" fill="#43A047">4</text>
	<text transform="matrix(1 0 0 1 39.25 70.13)" fill="#1E88E5">5</text>
	<text transform="matrix(1 0 0 1 30.25 84.63)" fill="#8E24AA">6</text>
	<text transform="matrix(1 0 0 1 57.75 84.13)" fill="#EC407A">7</text>
</g>
</svg>
