<?xml version="1.0" encoding="UTF-8"?>
<svg xmlns="http://www.w3.org/2000/svg" width="109" height="109" viewBox="0 0 109 109">
<g id="kvg:StrokePaths_08c9e" style="fill:none;stroke:#000000;stroke-width:3;stroke-linecap:round;stroke-linejoin:round;">
<g id="kvg:08c9e">
	<g id="kvg:08c9e-g1">
		<path id="kvg:s-s1" stroke="#E53935" d="M53.56,11.13c1.09,1.09,1.51,2.49,1.51,4.37c0,0.98,0,12,0,18.88"/>
		<path id="kvg:s-s2" stroke="#FB8C00" d="M56.25,22.75C60,22.25,72.5,20.5,77,20c1.99-0.22,3.12-0.25,4.75,0"/>
	</g>
	<g id="kvg:08c9e-g2">
		<g id="kvg:08c9e-g3">
			<path id="kvg:s-s3" stroke="#FDD835" d="M34.66,36.51c0.69,0.98,0.96,2.19,0.96,3.52c0,1.12-0.01,21.53-0.01,33.97c0,2.35,0,4.38,0,5.92"/>
			<path id="kvg:s-s4" stroke="#43A047" d="M36.28,37.57c3.94-0.29,34.44-3.65,38.02-3.97c2.99-0.26,4.59,0.64,4.59,3.76c0,2.16-0.45,20.39-0.7,32.13c-0.1,4.78-0.18,8.19-0.18,8.48"/>
			<path id="kvg:s-s5" stroke="#1E88E5" d="M36.7,50.42C47,49,71.35,46.55,77.66,46.34"/>
			<path id="kvg:s-s6" stroke="#8E24AA" d="M36.77,64.02c12.11-1.77,28.66-3.45,40.44-3.98"/>
			<path id="kvg:s-s7" stroke="#EC407A" d="M36.76,77.04c11.11-0.91,30.32-2.3,40.44-2.63"/>
		</g>
		<g id="kvg:08c9e-g4">
			<path id="kvg:s-s8" stroke="#00ACC1" d="M42.04,83.03c0.21,1.22-0.17,2.17-1.25,3.05C37.54,88.73,28.51,94.29,22,97.52"/>
			<path id="kvg:s-s9" stroke="#795548" d="M65.75,83.88c8.76,3.63,19.11,10.36,21.5,13.69"/>
		</g>
	</g>
</g>
</g>
<g id="kvg:StrokeNumbers_08c9e" style="font-size:18;font-weight:bold;stroke:#fff;stroke-width:1.5;paint-order:stroke">
	<text transform="matrix(1 0 0 1 43.50 11.50)" fill="#E53935">1</text>
	<text transform="matrix(1 0 0 1 62.25 18.13)" fill="#FB8C00">2</text>
	<text transform="matrix(1 0 0 1 27.50 44.50)" fill="#FDD835">3</text>
	<text transform="matrix(1 0 0 1 38.25 33.13)" fill="#43A047">4</text>
	<text transform="matrix(1 0 0 1 41.25 47.50)" fill="#1E88E5">5</text>
	<text transform="matrix(1 0 0 1 41.25 60.50)" fill="#8E24AA">6</text>
	<text transform="matrix(1 0 0 1 41.25 73.41)" fill="#EC407A">7</text>
	<text transform="matrix(1 0 0 1 30.75 88.33)" fill="#00ACC1">8</text>
	<text transform="matrix(1 0 0 1 57.75 87.13)" fill="#795548">9</text>
</g>
</svg>
