<?xml version="1.0" encoding="UTF-8"?>
<svg xmlns="http://www.w3.org/2000/svg" width="109" height="109" viewBox="0 0 109 109">
<g id="kvg:StrokePaths_08ca2" style="fill:none;stroke:#000000;stroke-width:3;stroke-linecap:round;stroke-linejoin:round;">
<g id="kvg:08ca2">
	<g id="kvg:08ca2-g1">
		<path id="kvg:s-s1" stroke="#E53935" d="M34.5,16.91c2.77,0.49,5.48,0.25,8.25-0.08c6.57-0.78,18.58-2.2,25.4-2.8c2.26-0.2,4.66-0.64,6.86,0.15"/>
		<path id="kvg:s-s2" stroke="#FB8C00" d="M52.71,17.75c1.02,1.02,1.33,2.41,1.33,3.99c0,2.01-0.04,5.88-0.04,9.26"/>
		<path id="kvg:s-s3" stroke="#FDD835" d="M15,34.55c3.44,1.19,8.26,0.7,11.76,0.32C44,33,65.38,30.75,82.24,30.03c3.91-0.17,8.76-0.28,13.51,1.02"/>
	</g>
	<g id="kvg:08ca2-g2">
		<g id="kvg:08ca2-g3">
			<path id="kvg:s-s4" stroke="#43A047" d="M34.14,43.44c0.9,0.9,1.11,2.43,1.11,3.53c0,0.91,0,19.87,0,28.79c0,1.85,0,3.76,0,4.5"/>
			<path id="kvg:s-s5" stroke="#1E88E5" d="M35.84,44.77c4.79-0.52,32.46-3.64,35.83-3.8c2.81-0.14,3.8,0.78,3.8,3.78c0,3.54-0.01,22.5-0.01,28.52c0,2.81-0.05,4.72-0.05,4.93"/>
			<path id="kvg:s-s6" stroke="#8E24AA" d="M36.27,55.08c6.48-0.58,32.41-3.47,38.36-3.47"/>
			<path id="kvg:s-s7" stroke="#EC407A" d="M36.08,65.4c10.67-1.15,27.42-3.15,38.62-3.64"/>
			<path id="kvg:s-s8" stroke="#00ACC1" d="M36.28,76.77C46.62,75.88,63,74,74.4,73.62"/>
		</g>
		<g id="kvg:08ca2-g4">
			<path id="kvg:s-s9" stroke="#795548" d="M40.69,83.29c0,1.08-0.51,2.06-1.5,2.96c-2.99,2.7-11.46,8.33-17.44,11.52"/>
			<path id="kvg:s-s10" stroke="#546E7A" d="M66.08,82.72c7.2,3.29,15.71,9.25,17.67,12.12"/>
		</g>
	</g>
</g>
</g>
<g id="kvg:StrokeNumbers_08ca2" style="font-size:18;font-weight:bold;stroke:#fff;stroke-width:1.5;paint-order:stroke">
	<text transform="matrix(1 0 0 1 27.50 17.50)" fill="#E53935">1</text>
	<text transform="matrix(1 0 0 1 47.25 25.63)" fill="#FB8C00">2</text>
	<text transform="matrix(1 0 0 1 8.25 36.50)" fill="#FDD835">3</text>
	<text transform="matrix(1 0 0 1 26.25 51.13)" fill="#43A047">4</text>
	<text transform="matrix(1 0 0 1 37.50 41.50)" fill="#1E88E5">5</text>
	<text transform="matrix(1 0 0 1 41.25 52.55)" fill="#8E24AA">6</text>
	<text transform="matrix(1 0 0 1 41.25 62.98)" fill="#EC407A">7</text>
	<text transform="matrix(1 0 0 1 41.25 73.40)" fill="#00ACC1">8</text>
	<text transform="matrix(1 0 0 1 29.25 86.83)" fill="#795548">9</text>
	<text transform="matrix(1 0 0 1 54.50 85.50)" fill="#546E7A">10</text>
</g>
</svg>
