<?xml version="1.0" encoding="UTF-8"?>
<svg xmlns="http://www.w3.org/2000/svg" width="109" height="109" viewBox="0 0 109 109">
<g id="kvg:StrokePaths_08cc3" style="fill:none;stroke:#000000;stroke-width:3;stroke-linecap:round;stroke-linejoin:round;">
<g id="kvg:08cc3">
	<g id="kvg:08cc3-g1">
		<g id="kvg:08cc3-g2">
			<path id="kvg:s-s1" stroke="#E53935" d="M36.34,10.15c0.21,1.11-0.14,2.52-0.73,3.53C32,19.75,27,26,17.03,34.42"/>
			<path id="kvg:s-s2" stroke="#FB8C00" d="M30.31,25.22c0.49,0.49,0.93,1.41,0.93,2.57c0,4.89-0.11,11.27-0.21,17.71C31.01,46.58,31,47.67,31,48.75"/>
		</g>
		<g id="kvg:08cc3-g3">
			<g id="kvg:08cc3-g4">
				<path id="kvg:s-s3" stroke="#FDD835" d="M77.97,9c0,1.25-0.97,2.25-2.39,3.11c-5.98,3.61-14.16,6.66-28.73,10.35"/>
			</g>
			<g id="kvg:08cc3-g5">
				<path id="kvg:s-s4" stroke="#43A047" d="M41.43,29.96c2.57,0.41,4.94,0.31,7.32,0.08c10.87-1.04,27.78-2.61,39.13-3.06c2.7-0.11,5.47-0.3,8.14,0.18"/>
				<path id="kvg:s-s5" stroke="#1E88E5" d="M66.53,19.63c0.86,0.85,1.28,2.24,1.28,3.28c0,0.89,0,10.59,0,17.15"/>
				<path id="kvg:s-s6" stroke="#8E24AA" d="M48.49,42.21c1.89,0.16,3.92,0.25,5.76,0.1c8.82-0.73,20.15-1.8,29.62-2.03c1.88-0.05,3.8-0.13,5.67,0.16"/>
			</g>
		</g>
	</g>
	<g id="kvg:08cc3-g6">
		<g id="kvg:08cc3-g7">
			<path id="kvg:s-s7" stroke="#EC407A" d="M37.01,52.36c0.82,0.82,1.17,2.36,1.17,3.4c0,2.92-0.03,18.36-0.04,26.24c0,1.92,0,3.39,0,4.12"/>
			<path id="kvg:s-s8" stroke="#00ACC1" d="M39.13,53.18c3.26-0.13,28.37-2.29,31.34-2.45c2.48-0.13,4.22,0.76,4.22,3.19c0,3.13-0.04,17.75-0.06,26.95c0,1.67,0,3.16,0,4.38"/>
			<path id="kvg:s-s9" stroke="#795548" d="M39.33,63.64c5.92-0.39,28.42-1.77,34.37-2.11"/>
			<path id="kvg:s-s10" stroke="#546E7A" d="M39.34,73.69c7.91-0.31,25.28-1.44,34.22-1.8"/>
			<path id="kvg:s-s11" stroke="#E53935" d="M39.19,83.45c6.48,0,26.08-1.06,34.47-1.06"/>
		</g>
		<g id="kvg:08cc3-g8">
			<path id="kvg:s-s12" stroke="#FB8C00" d="M44.89,88.21c0.23,1.16-0.28,2.08-1.25,2.85c-2.92,2.31-10.94,7.22-16.79,9.94"/>
			<path id="kvg:s-s13" stroke="#FDD835" d="M64.28,88.87c7.28,3.11,15.88,8.75,17.87,11.48"/>
		</g>
	</g>
</g>
</g>
<g id="kvg:StrokeNumbers_08cc3" style="font-size:18;fill:#E53935;font-weight:bold;stroke:#fff;stroke-width:1.5;paint-order:stroke">
	<text transform="matrix(1 0 0 1 28.50 10.63)" fill="#E53935">1</text>
	<text transform="matrix(1 0 0 1 23.50 38.50)" fill="#FB8C00">2</text>
	<text transform="matrix(1 0 0 1 67.50 9.50)" fill="#FDD835">3</text>
	<text transform="matrix(1 0 0 1 36.75 27.13)" fill="#43A047">4</text>
	<text transform="matrix(1 0 0 1 60.50 25.50)" fill="#1E88E5">5</text>
	<text transform="matrix(1 0 0 1 41.25 40.63)" fill="#8E24AA">6</text>
	<text transform="matrix(1 0 0 1 30.75 61.50)" fill="#EC407A">7</text>
	<text transform="matrix(1 0 0 1 39.50 50.50)" fill="#00ACC1">8</text>
	<text transform="matrix(1 0 0 1 44.25 61.50)" fill="#795548">9</text>
	<text transform="matrix(1 0 0 1 44.25 71.98)" fill="#546E7A">10</text>
	<text transform="matrix(1 0 0 1 44.25 81.50)" fill="#E53935">11</text>
	<text transform="matrix(1 0 0 1 29.25 93.13)" fill="#FB8C00">12</text>
	<text transform="matrix(1 0 0 1 53.50 93.50)" fill="#FDD835">13</text>
</g>
</svg>
