<?xml version="1.0" encoding="UTF-8"?>
<svg xmlns="http://www.w3.org/2000/svg" width="109" height="109" viewBox="0 0 109 109">
<g id="kvg:StrokePaths_08cc2" style="fill:none;stroke:#000000;stroke-width:3;stroke-linecap:round;stroke-linejoin:round;">
<g id="kvg:08cc2">
	<g id="kvg:08cc2-g1">
		<g id="kvg:08cc2-g2">
			<path id="kvg:s-s1" stroke="#E53935" d="M14.7,20.35c0.36,1.13,0.89,1.97,0.89,3.48c0,1.5-0.39,40.6-0.24,45.57"/>
			<path id="kvg:s-s2" stroke="#FB8C00" d="M16.19,21.82c2.05-0.19,17.67-2.6,19.53-2.82c1.56-0.19,2.78,1.05,2.65,2.45c-0.17,1.77-0.73,35.73-1.12,47.04"/>
			<path id="kvg:s-s3" stroke="#FDD835" d="M16.15,37.75c6.43-0.6,17.81-2.57,21.1-2.57"/>
			<path id="kvg:s-s4" stroke="#43A047" d="M16.32,52.07c7.83-0.92,11.64-1.4,20.24-2.26"/>
			<path id="kvg:s-s5" stroke="#1E88E5" d="M16.85,67.54c4.07,0,15.02-1.76,20.3-1.76"/>
		</g>
		<g id="kvg:08cc2-g3">
			<path id="kvg:s-s6" stroke="#8E24AA" d="M20.97,75.23c0.28,1.22,0.55,1.55,0,2.43c-1.66,2.68-7.72,10.92-11.05,14.08"/>
			<path id="kvg:s-s7" stroke="#EC407A" d="M31.1,73.7c4.06,4.09,8.86,11.5,9.97,15.08"/>
		</g>
	</g>
	<g id="kvg:08cc2-g4">
		<g id="kvg:08cc2-g5">
			<path id="kvg:s-s8" stroke="#00ACC1" d="M60.29,13.25c0.05,0.65,0.24,1.72-0.09,2.61c-2.57,6.81-7.34,16.97-15.38,25.46"/>
			<path id="kvg:s-s9" stroke="#795548" d="M61.42,21.47c0.3,0.04,1.57,0,2.42-0.1c2.8-0.33,8.72-1.46,12.71-2.5c2.74-0.71,3.52,0.81,2.82,2.75c-3.84,10.61-19.44,35.92-36.68,42.92"/>
			<path id="kvg:s-s10" stroke="#546E7A" d="M55.15,32.08c5.21,5.06,28.82,24.28,35.84,28.9c2.09,1.38,3.79,2.05,5.83,2.46"/>
		</g>
		<g id="kvg:08cc2-g6">
			<path id="kvg:s-s11" stroke="#E53935" d="M49.83,69.51c0.36,0.44,0.73,0.8,0.89,1.35c1.25,4.34,3.25,15.81,4.11,23.6"/>
			<path id="kvg:s-s12" stroke="#FB8C00" d="M52.08,71.47c10.17-1.47,25.59-3.29,29.83-3.86c1.55-0.21,2.48,1.23,2.25,2.46c-0.92,5.07-2.99,12.67-4.35,19.68"/>
			<path id="kvg:s-s13" stroke="#FDD835" d="M55.01,92.13c4.97-0.65,18.24-1.88,27.36-2.75"/>
		</g>
	</g>
</g>
</g>
<g id="kvg:StrokeNumbers_08cc2" style="font-size:18;font-weight:bold;stroke:#fff;stroke-width:1.5;paint-order:stroke">
	<text transform="matrix(1 0 0 1 7.50 27.50)" fill="#E53935">1</text>
	<text transform="matrix(1 0 0 1 18.50 18.50)" fill="#FB8C00">2</text>
	<text transform="matrix(1 0 0 1 20.50 34.50)" fill="#FDD835">3</text>
	<text transform="matrix(1 0 0 1 20.50 48.50)" fill="#43A047">4</text>
	<text transform="matrix(1 0 0 1 20.50 64.50)" fill="#1E88E5">5</text>
	<text transform="matrix(1 0 0 1 11.50 79.50)" fill="#8E24AA">6</text>
	<text transform="matrix(1 0 0 1 26.50 81.50)" fill="#EC407A">7</text>
	<text transform="matrix(1 0 0 1 52.50 13.50)" fill="#00ACC1">8</text>
	<text transform="matrix(1 0 0 1 66.50 17.50)" fill="#795548">9</text>
	<text transform="matrix(1 0 0 1 51.50 43.50)" fill="#546E7A">10</text>
	<text transform="matrix(1 0 0 1 41.75 77.50)" fill="#E53935">11</text>
	<text transform="matrix(1 0 0 1 53.50 67.50)" fill="#FB8C00">12</text>
	<text transform="matrix(1 0 0 1 57.50 88.50)" fill="#FDD835">13</text>
</g>
</svg>
