<?xml version="1.0" encoding="UTF-8"?>
<svg xmlns="http://www.w3.org/2000/svg" width="109" height="109" viewBox="0 0 109 109">
<g id="kvg:StrokePaths_08cc4" style="fill:none;stroke:#000000;stroke-width:3;stroke-linecap:round;stroke-linejoin:round;">
<g id="kvg:08cc4">
	<g id="kvg:08cc4-g1">
		<g id="kvg:08cc4-g2">
			<path id="kvg:s-s1" stroke="#E53935" d="M17.75,19.78c0.99,0.98,1.39,2.37,1.39,3.99c0,1.29-0.08,31.51-0.05,44.48c0.01,3.28,0.02,5.45,0.05,5.78"/>
			<path id="kvg:s-s2" stroke="#FB8C00" d="M19.99,21.78c1.78-0.18,13.13-2,17.4-2.35c2.24-0.18,3.9,0.86,3.9,3.82c0,4.57,0.04,29.43,0.06,41.87c0.01,4.23,0.01,7.03,0.01,7.1"/>
			<path id="kvg:s-s3" stroke="#FDD835" d="M20.2,38.13c4.22-0.61,14.7-1.78,20.08-2.29"/>
			<path id="kvg:s-s4" stroke="#43A047" d="M20.12,54.02c6.21-0.72,13.86-1.8,20.17-2.18"/>
			<path id="kvg:s-s5" stroke="#1E88E5" d="M20.39,70.58c4.9-0.74,13.92-1.76,20.17-2.05"/>
		</g>
		<g id="kvg:08cc4-g3">
			<path id="kvg:s-s6" stroke="#8E24AA" d="M24.65,75.96c0.32,1.16-0.01,1.96-0.61,2.83c-2.69,3.92-7.44,8.82-11.29,11.83"/>
			<path id="kvg:s-s7" stroke="#EC407A" d="M34.23,74.92c4.1,3.9,8.94,10.96,10.06,14.38"/>
		</g>
	</g>
	<g id="kvg:08cc4-g4">
		<path id="kvg:s-s8" stroke="#00ACC1" d="M68.96,13.18c0.41,1.2,0.41,1.83,0.12,3.4c-2.1,11.61-7.59,27.55-21.37,40.86"/>
		<path id="kvg:s-s9" stroke="#795548" d="M48.5,31.17c2.12,0.83,5.82,0.73,7.86,0.41c8.64-1.36,25.91-4.46,35.64-5.23c2.32-0.18,4.77-0.45,6.99,0.39"/>
		<g id="kvg:08cc4-g5">
			<path id="kvg:s-s10" stroke="#546E7A" d="M61.91,45.47c0.99,0.99,1.02,2.03,1.02,3.25c0,0.61-0.04,29.78-0.05,43.02c0,3.51,0.01,5.27,0,5.62"/>
			<path id="kvg:s-s11" stroke="#E53935" d="M63.7,46.95c1.81-0.17,16.86-2.49,21.18-3.15c2.89-0.43,4.46,0.27,4.46,3.41c0,4.04-0.01,30.22-0.01,45.44c0,10.73-5.34,2.63-6.02,1.69"/>
			<path id="kvg:s-s12" stroke="#FB8C00" d="M63.95,61.69c6.96-1.13,18.34-2.33,24.45-2.9"/>
			<path id="kvg:s-s13" stroke="#FDD835" d="M64.46,76.09c5.43-0.56,17.32-1.75,23.6-2.13"/>
		</g>
	</g>
</g>
</g>
<g id="kvg:StrokeNumbers_08cc4" style="font-size:18;font-weight:bold;stroke:#fff;stroke-width:1.5;paint-order:stroke">
	<text transform="matrix(1 0 0 1 12.25 27.25)" fill="#E53935">1</text>
	<text transform="matrix(1 0 0 1 21.25 17.88)" fill="#FB8C00">2</text>
	<text transform="matrix(1 0 0 1 22.99 34.30)" fill="#FDD835">3</text>
	<text transform="matrix(1 0 0 1 22.82 49.23)" fill="#43A047">4</text>
	<text transform="matrix(1 0 0 1 23.00 67.15)" fill="#1E88E5">5</text>
	<text transform="matrix(1 0 0 1 14.25 82.08)" fill="#8E24AA">6</text>
	<text transform="matrix(1 0 0 1 30.25 83.25)" fill="#EC407A">7</text>
	<text transform="matrix(1 0 0 1 60.75 12.25)" fill="#00ACC1">8</text>
	<text transform="matrix(1 0 0 1 49.25 26.88)" fill="#795548">9</text>
	<text transform="matrix(1 0 0 1 52.25 61.25)" fill="#546E7A">10</text>
	<text transform="matrix(1 0 0 1 66.25 41.88)" fill="#E53935">11</text>
	<text transform="matrix(1 0 0 1 67.81 56.80)" fill="#FB8C00">12</text>
	<text transform="matrix(1 0 0 1 67.86 71.73)" fill="#FDD835">13</text>
</g>
</svg>
