<?xml version="1.0" encoding="UTF-8"?>
<svg xmlns="http://www.w3.org/2000/svg" width="109" height="109" viewBox="0 0 109 109">
<g id="kvg:StrokePaths_08cd3" style="fill:none;stroke:#000000;stroke-width:3;stroke-linecap:round;stroke-linejoin:round;">
<g id="kvg:08cd3">
	<g id="kvg:08cd3-g1">
		<g id="kvg:08cd3-g2">
			<path id="kvg:s-s1" stroke="#E53935" d="M54.64,9.3c1.09,1.09,1.21,2.2,1.21,3.73c0,1.47-0.09,4.22-0.09,6.31"/>
			<g id="kvg:08cd3-g3">
				<path id="kvg:s-s2" stroke="#FB8C00" d="M25.78,21.29c0,2.98-3.1,12.17-4.28,14.16"/>
				<path id="kvg:s-s3" stroke="#FDD835" d="M26.6,22.99c10.15-0.99,46.28-3.86,58.7-3.95c10.34-0.07,2.44,5.89-0.13,7.7"/>
			</g>
		</g>
		<path id="kvg:s-s4" stroke="#43A047" d="M34.25,30.89c2,0.81,4.66,0.34,6.73,0.17c7.01-0.58,20.11-1.92,27.28-2.59c2.46-0.23,4.81-0.56,7.24,0.04"/>
		<g id="kvg:08cd3-g4">
			<g id="kvg:08cd3-g5">
				<path id="kvg:s-s5" stroke="#1E88E5" d="M53.76,31.75c0.87,0.87,1.28,2.06,1.28,3.13c0,2.25-0.03,4.49-0.03,6.62c0,6.06-4.47,0.65-5.4,0.11"/>
				<path id="kvg:s-s6" stroke="#8E24AA" d="M36.67,38.17c0,0.96-0.38,1.71-1.03,2.22c-2.39,2.74-8.41,6.72-13.4,8.87"/>
				<path id="kvg:s-s7" stroke="#EC407A" d="M71.75,35.75c4.05,1.38,9.49,4.94,10.5,7.09"/>
			</g>
			<g id="kvg:08cd3-g6">
				<path id="kvg:s-s8" stroke="#00ACC1" d="M64.11,37.83c0.13,0.65-0.17,1.85-1.02,2.59C54.5,47.88,38.25,57.5,16,64.75"/>
			</g>
		</g>
	</g>
	<g id="kvg:08cd3-g7">
		<g id="kvg:08cd3-g8">
			<path id="kvg:s-s9" stroke="#795548" d="M39,53.34c0.89,0.89,1.26,1.98,1.26,3.87c0,3.74,0.04,14.65,0.05,25.79c0,1.66,0,3.3,0,4.9"/>
			<path id="kvg:s-s10" stroke="#546E7A" d="M40.79,54.48c3.48-0.24,26.96-3.48,33.14-3.8c2.71-0.14,4.05,1.39,4.05,3.94c0,4.52-0.02,18.52-0.02,26.37c0,2.97,0,5.06,0,5.43"/>
			<path id="kvg:s-s11" stroke="#E53935" d="M41.33,64.42c7.92-0.79,30.2-2.54,35.78-2.54"/>
			<path id="kvg:s-s12" stroke="#FB8C00" d="M41.61,75.3c9.81-0.69,23.51-2.17,35.28-2.73"/>
			<path id="kvg:s-s13" stroke="#FDD835" d="M41.41,85.75c9.81-0.51,26.54-2.13,35.48-2.13"/>
		</g>
		<g id="kvg:08cd3-g9">
			<path id="kvg:s-s14" stroke="#43A047" d="M47.15,88.74c0,0.76-0.28,1.51-1.25,2.23c-2.94,2.18-11.02,6.77-16.9,9.35"/>
			<path id="kvg:s-s15" stroke="#1E88E5" d="M68.02,90.39c6.82,2.58,14.87,7.25,16.73,9.5"/>
		</g>
	</g>
</g>
</g>
<g id="kvg:StrokeNumbers_08cd3" style="font-size:18;font-weight:bold;stroke:#fff;stroke-width:1.5;paint-order:stroke">
	<text transform="matrix(1 0 0 1 47.25 9.13)" fill="#E53935">1</text>
	<text transform="matrix(1 0 0 1 18.75 22.63)" fill="#FB8C00">2</text>
	<text transform="matrix(1 0 0 1 29.50 19.50)" fill="#FDD835">3</text>
	<text transform="matrix(1 0 0 1 27.75 31.55)" fill="#43A047">4</text>
	<text transform="matrix(1 0 0 1 48.50 38.50)" fill="#1E88E5">5</text>
	<text transform="matrix(1 0 0 1 28.50 39.50)" fill="#8E24AA">6</text>
	<text transform="matrix(1 0 0 1 77.50 35.50)" fill="#EC407A">7</text>
	<text transform="matrix(1 0 0 1 61.50 35.50)" fill="#00ACC1">8</text>
	<text transform="matrix(1 0 0 1 33.50 67.63)" fill="#795548">9</text>
	<text transform="matrix(1 0 0 1 62.50 49.63)" fill="#546E7A">10</text>
	<text transform="matrix(1 0 0 1 44.50 61.55)" fill="#E53935">11</text>
	<text transform="matrix(1 0 0 1 44.34 72.50)" fill="#FB8C00">12</text>
	<text transform="matrix(1 0 0 1 44.38 83.91)" fill="#FDD835">13</text>
	<text transform="matrix(1 0 0 1 30.50 93.13)" fill="#43A047">14</text>
	<text transform="matrix(1 0 0 1 57.50 94.50)" fill="#1E88E5">15</text>
</g>
</svg>
