<?xml version="1.0" encoding="UTF-8"?>
<svg xmlns="http://www.w3.org/2000/svg" width="109" height="109" viewBox="0 0 109 109">
<g id="kvg:StrokePaths_08cdb" style="fill:none;stroke:#000000;stroke-width:3;stroke-linecap:round;stroke-linejoin:round;">
<g id="kvg:08cdb">
	<g id="kvg:08cdb-g1">
		<g id="kvg:08cdb-g2">
			<path id="kvg:s-s1" stroke="#E53935" d="M22.1,21.82c0.94,0.38,2.68,0.27,3.65,0.2c5.25-0.39,12.62-1.27,18.49-2.19c1.04-0.16,2.68-0.15,3.7,0.1"/>
			<g id="kvg:08cdb-g3">
				<path id="kvg:s-s2" stroke="#FB8C00" d="M18.47,34.32c1,0.41,3.02,0.47,4.03,0.32c5.28-0.79,18.33-2.87,24.12-3.38c1.24-0.11,2.58-0.27,3.8,0.03"/>
				<path id="kvg:s-s3" stroke="#FDD835" d="M36.28,13c0.29,0.61,0.4,1.18,0.4,2.37C36.75,33.5,30.75,48.25,19.75,53"/>
				<path id="kvg:s-s4" stroke="#43A047" d="M37.13,35.88c4.29,1.51,8.96,6.23,10.62,8.56"/>
			</g>
		</g>
		<g id="kvg:08cdb-g4">
			<path id="kvg:s-s5" stroke="#1E88E5" d="M58.85,20.5c1.4,0.37,2.9,0.39,3.9,0.33c4.93-0.3,14.64-1.72,19.66-2.42c1.22-0.17,2.6-0.23,3.81,0.06"/>
			<g id="kvg:08cdb-g5">
				<path id="kvg:s-s6" stroke="#8E24AA" d="M56.38,32.45c0.97,0.4,3.19,0.13,4.13,0c6.01-0.88,20.53-2.83,26.36-3.35c1.14-0.1,2.62,0,3.76,0.27"/>
				<path id="kvg:s-s7" stroke="#EC407A" d="M71.75,11.5c0.63,0.63,0.86,1.73,0.85,2.72C72.5,29.75,68.23,40.32,57.76,45"/>
				<path id="kvg:s-s8" stroke="#00ACC1" d="M72.1,30.92c4.16,4.33,11.13,11.56,16.23,14.85c1.17,0.75,2.93,1.86,4.68,2.57"/>
			</g>
		</g>
	</g>
	<g id="kvg:08cdb-g6">
		<g id="kvg:08cdb-g7">
			<path id="kvg:s-s9" stroke="#795548" d="M38.51,49.87c0.75,0.75,1.09,2.11,1.09,3.16c0,6.1-0.1,27.3-0.1,28.1c0,0.88,0.1,2.25,0.1,3.4"/>
			<path id="kvg:s-s10" stroke="#546E7A" d="M40.25,50.94c4.75-0.44,26.74-2.3,29.54-2.45c2.33-0.13,3.48,1.01,3.48,3.19c0,1.25,0.09,17.38,0.1,28.85c0,1.18,0.07,2.19,0.07,2.98"/>
			<path id="kvg:s-s11" stroke="#E53935" d="M40.7,61.2c6.93-0.45,24.68-2.08,31.47-2.12"/>
			<path id="kvg:s-s12" stroke="#FB8C00" d="M40.7,71.29c8.3-0.54,22.17-1.79,31.35-2.06"/>
			<path id="kvg:s-s13" stroke="#FDD835" d="M40.74,81.85c8.13-0.6,23.45-1.56,31.35-1.56"/>
		</g>
		<g id="kvg:08cdb-g8">
			<path id="kvg:s-s14" stroke="#43A047" d="M45.33,87.37c0.3,1.13-0.17,2.21-1.25,2.91c-3.26,2.1-12.05,6.74-18.56,9.22"/>
			<path id="kvg:s-s15" stroke="#1E88E5" d="M65.02,86.52c7.52,3.21,16.41,9.03,18.46,11.84"/>
		</g>
	</g>
</g>
</g>
<g id="kvg:StrokeNumbers_08cdb" style="font-size:18;fill:#E53935;font-weight:bold;stroke:#fff;stroke-width:1.5;paint-order:stroke">
	<text transform="matrix(1 0 0 1 15.50 22.50)" fill="#E53935">1</text>
	<text transform="matrix(1 0 0 1 11.50 36.50)" fill="#FB8C00">2</text>
	<text transform="matrix(1 0 0 1 27.50 14.50)" fill="#FDD835">3</text>
	<text transform="matrix(1 0 0 1 46.50 39.50)" fill="#43A047">4</text>
	<text transform="matrix(1 0 0 1 53.50 18.50)" fill="#1E88E5">5</text>
	<text transform="matrix(1 0 0 1 54.50 30.50)" fill="#8E24AA">6</text>
	<text transform="matrix(1 0 0 1 64.50 12.50)" fill="#EC407A">7</text>
	<text transform="matrix(1 0 0 1 81.50 37.50)" fill="#00ACC1">8</text>
	<text transform="matrix(1 0 0 1 30.50 57.50)" fill="#795548">9</text>
	<text transform="matrix(1 0 0 1 35.50 47.50)" fill="#546E7A">10</text>
	<text transform="matrix(1 0 0 1 43.50 58.50)" fill="#E53935">11</text>
	<text transform="matrix(1 0 0 1 43.31 68.50)" fill="#FB8C00">12</text>
	<text transform="matrix(1 0 0 1 43.36 79.50)" fill="#FDD835">13</text>
	<text transform="matrix(1 0 0 1 31.50 91.50)" fill="#43A047">14</text>
	<text transform="matrix(1 0 0 1 53.50 89.50)" fill="#1E88E5">15</text>
</g>
</svg>
