<?xml version="1.0" encoding="UTF-8"?>
<svg xmlns="http://www.w3.org/2000/svg" width="109" height="109" viewBox="0 0 109 109">
<g id="kvg:StrokePaths_08cfc" style="fill:none;stroke:#000000;stroke-width:3;stroke-linecap:round;stroke-linejoin:round;">
<g id="kvg:08cfc">
	<g id="kvg:08cfc-g1">
		<g id="kvg:08cfc-g2">
			<path id="kvg:s-s1" stroke="#E53935" d="M18.61,24.7c0.72,0.72,1.08,1.6,1.08,3.01c0,1.12,0.11,28.65,0.05,40.29c-0.02,3.08-0.03,5.09-0.03,5.23"/>
			<path id="kvg:s-s2" stroke="#FB8C00" d="M20.51,26.89c3.53-0.65,12.61-2.77,16.38-3.43c2.66-0.46,3.78,0.4,3.78,3.16c0,6,0,25.88,0,37.63c0,1.86-0.01,3.64-0.01,5.29"/>
			<path id="kvg:s-s3" stroke="#FDD835" d="M20.97,41.05c4.78-0.8,14.15-2.67,18.78-3.12"/>
			<path id="kvg:s-s4" stroke="#43A047" d="M20.88,55.03C27.75,54,33.5,53,39.52,52.42"/>
			<path id="kvg:s-s5" stroke="#1E88E5" d="M20.88,69.76c5-0.51,12.25-2.01,18.64-2.62"/>
		</g>
		<g id="kvg:08cfc-g3">
			<path id="kvg:s-s6" stroke="#8E24AA" d="M24.23,78.14c0.32,1.3-0.12,2.4-0.75,3.35c-1.91,2.86-7.31,8.88-11.13,12.26"/>
			<path id="kvg:s-s7" stroke="#EC407A" d="M34.82,76.86c3.6,3.91,7.85,11,8.83,14.42"/>
		</g>
	</g>
	<g id="kvg:08cfc-g4">
		<g id="kvg:08cfc-g5">
			<g id="kvg:08cfc-g6">
				<path id="kvg:s-s8" stroke="#00ACC1" d="M52.42,26.46c1.96,0.29,3.97,0.14,5.84-0.17c8.49-1.41,17.63-2.61,25.49-3.39c1.79-0.18,3.44-0.31,5.21-0.05"/>
			</g>
			<path id="kvg:s-s9" stroke="#795548" d="M60.27,16.14c1.04,1.04,1.49,2.11,1.54,3.42c0.19,4.82,0.31,16.32,0.63,24.21"/>
			<path id="kvg:s-s10" stroke="#546E7A" d="M76.59,13.96c1.16,1.16,1.38,2.55,1.29,3.98c-0.51,8.82-1.01,15.69-1.39,24.32"/>
			<g id="kvg:08cfc-g7">
				<g id="kvg:08cfc-g8">
					<path id="kvg:s-s11" stroke="#E53935" d="M52.5,36.11c1.74,0.48,3.65,0.12,5.39-0.13c6.61-0.94,16.39-2.65,24.36-3.56c2-0.23,3.91-0.43,5.91-0.14"/>
				</g>
				<g id="kvg:08cfc-g9">
					<g id="kvg:08cfc-g10">
						<path id="kvg:s-s12" stroke="#FB8C00" d="M47.54,46.05c2.58,0.57,5.12,0.3,7.48-0.04c9.61-1.39,21.32-2.7,33.85-4.06c2.4-0.26,5-0.25,7.37,0.2"/>
					</g>
				</g>
			</g>
		</g>
		<g id="kvg:08cfc-g11">
			<g id="kvg:08cfc-g12">
				<g id="kvg:08cfc-g13">
					<path id="kvg:s-s13" stroke="#FDD835" d="M54.11,55.94c0.91,0.91,1.32,2.19,1.21,3.53c-0.06,0.66-0.01,19.94,0.03,29.37c0.01,2.64-0.1,4.81-0.1,5.41"/>
					<path id="kvg:s-s14" stroke="#43A047" d="M55.75,56.93c3.71-0.51,20.55-3.08,25.91-3.93c2.61-0.41,4.98,0.6,4.95,3.62c-0.07,6.69-0.03,31.24-0.03,34.47c0,8.15-3.83,2.65-6.4,0.39"/>
				</g>
				<g id="kvg:08cfc-g14">
					<path id="kvg:s-s15" stroke="#1E88E5" d="M69.02,46.29c0.91,0.91,1.14,2.08,1.14,3.54c0,8.11,0.09,15.56,0.09,26.29"/>
					<path id="kvg:s-s16" stroke="#8E24AA" d="M56.22,67.41C66,66,76,64.75,85.61,63.93"/>
					<path id="kvg:s-s17" stroke="#EC407A" d="M45.81,79.34c2.56,0.53,5.89,0.23,8.32-0.02c10.87-1.11,25.77-3,35.74-3.7c2.32-0.16,4.56-0.36,6.84,0.16"/>
				</g>
			</g>
		</g>
	</g>
</g>
</g>
<g id="kvg:StrokeNumbers_08cfc" style="font-size:18;font-weight:bold;stroke:#fff;stroke-width:1.5;paint-order:stroke">
	<text transform="matrix(1 0 0 1 12.50 33.13)" fill="#E53935">1</text>
	<text transform="matrix(1 0 0 1 21.75 23.50)" fill="#FB8C00">2</text>
	<text transform="matrix(1 0 0 1 23.24 37.55)" fill="#FDD835">3</text>
	<text transform="matrix(1 0 0 1 23.07 51.50)" fill="#43A047">4</text>
	<text transform="matrix(1 0 0 1 23.25 66.50)" fill="#1E88E5">5</text>
	<text transform="matrix(1 0 0 1 15.75 82.33)" fill="#8E24AA">6</text>
	<text transform="matrix(1 0 0 1 30.75 85.50)" fill="#EC407A">7</text>
	<text transform="matrix(1 0 0 1 45.75 26.50)" fill="#00ACC1">8</text>
	<text transform="matrix(1 0 0 1 51.75 16.50)" fill="#795548">9</text>
	<text transform="matrix(1 0 0 1 64.50 13.63)" fill="#546E7A">10</text>
	<text transform="matrix(1 0 0 1 44.25 35.50)" fill="#E53935">11</text>
	<text transform="matrix(1 0 0 1 44.25 43.48)" fill="#FB8C00">12</text>
	<text transform="matrix(1 0 0 1 45.50 62.91)" fill="#FDD835">13</text>
	<text transform="matrix(1 0 0 1 56.25 54.13)" fill="#43A047">14</text>
	<text transform="matrix(1 0 0 1 72.50 51.13)" fill="#1E88E5">15</text>
	<text transform="matrix(1 0 0 1 57.75 64.63)" fill="#8E24AA">16</text>
	<text transform="matrix(1 0 0 1 44.25 76.50)" fill="#EC407A">17</text>
</g>
</svg>
