<?xml version="1.0" encoding="UTF-8"?>
<svg xmlns="http://www.w3.org/2000/svg" width="109" height="109" viewBox="0 0 109 109">
<g id="kvg:StrokePaths_08d85" style="fill:none;stroke:#000000;stroke-width:3;stroke-linecap:round;stroke-linejoin:round;">
<g id="kvg:08d85">
	<g id="kvg:08d85-g1">
		<g id="kvg:08d85-g2">
			<path id="kvg:s-s1" stroke="#E53935" d="M20.19,30.66c1.93,0.46,3.62,0.22,5.19,0.04c5.18-0.6,12.99-1.97,18-2.58c1.59-0.19,3.1-0.4,4.67,0.01"/>
			<path id="kvg:s-s2" stroke="#FB8C00" d="M34.87,13.71c0.9,0.9,1.23,2.02,1.23,3.42c0,7.24-0.09,23.14-0.09,25.99"/>
			<path id="kvg:s-s3" stroke="#FDD835" d="M15.46,46.37c2.54,0.38,4.76,0.18,6.91-0.14c7.28-1.11,16.5-2.2,23.25-2.98c2.26-0.26,4.42-0.63,6.66-0.02"/>
		</g>
		<g id="kvg:08d85-g3">
			<path id="kvg:s-s4" stroke="#43A047" d="M35.04,47.55c0.89,0.89,1.16,2.45,1.16,3.79c0,4.28-0.07,18.15-0.07,24.91"/>
			<path id="kvg:s-s5" stroke="#1E88E5" d="M37.32,61.09c3.94-0.47,11.26-1.44,12.96-1.44c1.03,0,1.64,0.17,2.16,0.35"/>
			<path id="kvg:s-s6" stroke="#8E24AA" d="M21.52,62.3c0.31,1.13,0.28,2.3,0.13,3.45c-0.81,6.38-4.28,18.37-9.65,27.01"/>
			<path id="kvg:s-s7" stroke="#EC407A" d="M21.42,72.74c12.26,2.49,48.16,17.68,59.76,20.02c3.57,0.72,7.96,1.37,11.45,1.64"/>
		</g>
	</g>
	<g id="kvg:08d85-g4">
		<g id="kvg:08d85-g5">
			<path id="kvg:s-s8" stroke="#00ACC1" d="M58.94,21.52c1.42,0.84,4.91,0.55,6.45,0.35c7.98-1.03,18.42-3.13,22.37-3.42c2.9-0.21,4.08,0.93,3.89,3.98C91.25,29,89,37.75,83.9,45.41c-2.88,4.31-5.36-0.74-6.01-1.48"/>
			<path id="kvg:s-s9" stroke="#795548" d="M71.99,23.88c0.04,0.52,0.17,1.34-0.08,2.07c-2.56,7.46-6.41,13.93-13.59,20.6"/>
		</g>
		<g id="kvg:08d85-g6">
			<path id="kvg:s-s10" stroke="#546E7A" d="M58.83,56.57c0.99,0.99,1.54,1.97,1.61,2.91c0.77,3.14,1.6,8.3,2.38,13.25c0.31,1.99,0.58,3.82,0.75,5.26"/>
			<path id="kvg:s-s11" stroke="#E53935" d="M61.27,57.76c7.25-0.89,18.23-2.29,24.48-2.96c4.05-0.43,6.58,0.15,5.29,4.83c-1.04,3.77-1.8,8.32-2.78,12.88"/>
			<path id="kvg:s-s12" stroke="#FB8C00" d="M64.46,75.22c5.41-0.47,13.68-0.98,21.29-1.32c1.43-0.06,2.78-0.12,4-0.17"/>
		</g>
	</g>
</g>
</g>
<g id="kvg:StrokeNumbers_08d85" style="font-size:18;font-weight:bold;stroke:#fff;stroke-width:1.5;paint-order:stroke">
	<text transform="matrix(1 0 0 1 14.50 31.63)" fill="#E53935">1</text>
	<text transform="matrix(1 0 0 1 24.75 14.50)" fill="#FB8C00">2</text>
	<text transform="matrix(1 0 0 1 8.50 47.50)" fill="#FDD835">3</text>
	<text transform="matrix(1 0 0 1 28.50 55.63)" fill="#43A047">4</text>
	<text transform="matrix(1 0 0 1 39.50 57.50)" fill="#1E88E5">5</text>
	<text transform="matrix(1 0 0 1 13.50 63.50)" fill="#8E24AA">6</text>
	<text transform="matrix(1 0 0 1 27.50 72.50)" fill="#EC407A">7</text>
	<text transform="matrix(1 0 0 1 51.50 22.50)" fill="#00ACC1">8</text>
	<text transform="matrix(1 0 0 1 62.50 31.50)" fill="#795548">9</text>
	<text transform="matrix(1 0 0 1 51.50 68.50)" fill="#546E7A">10</text>
	<text transform="matrix(1 0 0 1 60.75 54.13)" fill="#E53935">11</text>
	<text transform="matrix(1 0 0 1 66.50 71.50)" fill="#FB8C00">12</text>
</g>
</svg>
