<?xml version="1.0" encoding="UTF-8"?>
<svg xmlns="http://www.w3.org/2000/svg" width="109" height="109" viewBox="0 0 109 109">
<g id="kvg:StrokePaths_08db3" style="fill:none;stroke:#000000;stroke-width:3;stroke-linecap:round;stroke-linejoin:round;">
<g id="kvg:08db3">
	<g id="kvg:08db3-g1">
		<path id="kvg:s-s1" stroke="#E53935" d="M29.75,18.99c0.82,0.82,1.43,1.68,1.66,2.33c1.15,3.39,3.44,13.48,4.61,18.68c0.34,1.51,0.59,2.61,0.68,3"/>
		<path id="kvg:s-s2" stroke="#FB8C00" d="M31.56,19.63c12.09-1.87,34.1-5.01,40.27-5.14c2.89-0.06,3.98,2.41,3.7,3.88c-0.73,3.84-3.94,15.23-4.51,17.27"/>
		<path id="kvg:s-s3" stroke="#FDD835" d="M37.25,40.74c7.07-0.43,20.75-2.48,31.53-3.73c1.71-0.2,3.34-0.14,4.86-0.32"/>
	</g>
	<g id="kvg:08db3-g2">
		<path id="kvg:s-s4" stroke="#43A047" d="M52.75,41c0.81,0.81,1.4,1.75,1.4,3.62c0,5.11,0.37,32.49,0.35,33.88"/>
		<path id="kvg:s-s5" stroke="#1E88E5" d="M55.75,59.25C56.94,59.25,66.25,57.75,73.54,56.53C75.08,56.27,76.53,56.25,77.75,56.25"/>
		<path id="kvg:s-s6" stroke="#8E24AA" d="M36.49,55c0.13,1.5,0.14,3.05-0.2,4.35c-2.04,7.78-10.16,24.15-17.79,30.9"/>
		<path id="kvg:s-s7" stroke="#EC407A" d="M33.25,70.75C41.75,72.12,67,87.38,82,92.5c2.94,1,6.85,1.68,9.75,2"/>
	</g>
</g>
</g>
<g id="kvg:StrokeNumbers_08db3" style="font-size:18;fill:#E53935;font-weight:bold;stroke:#fff;stroke-width:1.5;paint-order:stroke">
	<text transform="matrix(1 0 0 1 22.50 25.50)" fill="#E53935">1</text>
	<text transform="matrix(1 0 0 1 32.50 15.50)" fill="#FB8C00">2</text>
	<text transform="matrix(1 0 0 1 39.50 36.50)" fill="#FDD835">3</text>
	<text transform="matrix(1 0 0 1 46.50 49.50)" fill="#43A047">4</text>
	<text transform="matrix(1 0 0 1 57.50 55.50)" fill="#1E88E5">5</text>
	<text transform="matrix(1 0 0 1 27.50 55.50)" fill="#8E24AA">6</text>
	<text transform="matrix(1 0 0 1 35.25 81.50)" fill="#EC407A">7</text>
</g>
</svg>
