<?xml version="1.0" encoding="UTF-8"?>
<svg xmlns="http://www.w3.org/2000/svg" width="109" height="109" viewBox="0 0 109 109">
<g id="kvg:StrokePaths_08de1" style="fill:none;stroke:#000000;stroke-width:3;stroke-linecap:round;stroke-linejoin:round;">
<g id="kvg:08de1">
	<g id="kvg:08de1-g1">
		<g id="kvg:08de1-g2">
			<path id="kvg:s-s1" stroke="#E53935" d="M15.53,20.74c0.74,0.74,1.27,1.48,1.4,2.5c0.95,4.89,1.68,8.55,2.38,13.48c0.21,1.49,0.41,2.94,0.6,4.28"/>
			<path id="kvg:s-s2" stroke="#FB8C00" d="M17.97,22.44c6.58-1.12,14.07-2.23,19.16-2.91c3.12-0.42,5.21,0.34,4.28,4.13c-0.91,3.69-1.46,6.48-2.75,11.58"/>
			<path id="kvg:s-s3" stroke="#FDD835" d="M20.84,38.32c4.52-0.45,9.63-1.18,15.68-1.89c1.17-0.14,2.36-0.27,3.56-0.41"/>
		</g>
		<path id="kvg:s-s4" stroke="#43A047" d="M29.12,38.49c1.13,1.13,1.21,2.51,1.21,4c0,1.02,0.03,25.88,0.03,35"/>
		<path id="kvg:s-s5" stroke="#1E88E5" d="M31.38,55.74c3.37-0.49,6.12-1.24,9.6-1.5c1.74-0.13,2.18-0.25,3.26,0"/>
		<path id="kvg:s-s6" stroke="#8E24AA" d="M17.37,57.24c1.01,1.01,1.46,2.63,1.46,4c0,5.26,0.03,13.76,0.03,23.5"/>
		<path id="kvg:s-s7" stroke="#EC407A" d="M13,86.57c1,0.93,2.55,1.38,4.07,0.4C25.75,81.38,31,78.12,41,71.99"/>
	</g>
	<g id="kvg:08de1-g3">
		<g id="kvg:08de1-g4">
			<path id="kvg:s-s8" stroke="#00ACC1" d="M69.55,13.5c1.1,1.1,1.35,2.38,1.35,4.39c0,3.89-0.03,8.05-0.03,12.49"/>
			<path id="kvg:s-s9" stroke="#795548" d="M48.75,33.33c2.85,0.2,5.29,0.32,8.12-0.08c9-1.3,23.02-2.97,31.75-3.44c2.31-0.12,4.9-0.51,7.12,0.32"/>
		</g>
		<g id="kvg:08de1-g5">
			<g id="kvg:08de1-g6">
				<path id="kvg:s-s10" stroke="#546E7A" d="M63.17,35.28c1.15,1.15,1.44,2.63,1.44,4.64c0,18.38-1.49,42.46-15.61,54.33"/>
			</g>
			<g id="kvg:08de1-g7">
				<path id="kvg:s-s11" stroke="#E53935" d="M77.27,33.83c1.14,1.14,1.26,2.67,1.26,5.02c0,17.65-0.01,44.91-0.01,49.87c0,10.39-7.21,1.5-8.71,0.25"/>
			</g>
			<path id="kvg:s-s12" stroke="#FB8C00" d="M53.8,51.89c0.05,1.12,0.06,2.13-0.23,3.22c-1.72,6.45-5.4,15.05-9.76,22.86"/>
			<path id="kvg:s-s13" stroke="#FDD835" d="M87.38,50.75c3.77,4.58,9.74,18.84,10.68,25.97"/>
		</g>
	</g>
</g>
</g>
<g id="kvg:StrokeNumbers_08de1" style="font-size:18;font-weight:bold;stroke:#fff;stroke-width:1.5;paint-order:stroke">
	<text transform="matrix(1 0 0 1 11.25 29.50)" fill="#E53935">1</text>
	<text transform="matrix(1 0 0 1 19.50 18.50)" fill="#FB8C00">2</text>
	<text transform="matrix(1 0 0 1 23.25 34.55)" fill="#FDD835">3</text>
	<text transform="matrix(1 0 0 1 23.25 48.50)" fill="#43A047">4</text>
	<text transform="matrix(1 0 0 1 34.50 52.40)" fill="#1E88E5">5</text>
	<text transform="matrix(1 0 0 1 8.25 57.50)" fill="#8E24AA">6</text>
	<text transform="matrix(1 0 0 1 5.25 89.50)" fill="#EC407A">7</text>
	<text transform="matrix(1 0 0 1 60.75 14.50)" fill="#00ACC1">8</text>
	<text transform="matrix(1 0 0 1 48.75 30.05)" fill="#795548">9</text>
	<text transform="matrix(1 0 0 1 53.50 43.50)" fill="#546E7A">10</text>
	<text transform="matrix(1 0 0 1 68.25 42.13)" fill="#E53935">11</text>
	<text transform="matrix(1 0 0 1 43.50 50.50)" fill="#FB8C00">12</text>
	<text transform="matrix(1 0 0 1 83.50 48.50)" fill="#FDD835">13</text>
</g>
</svg>
