<?xml version="1.0" encoding="UTF-8"?>
<svg xmlns="http://www.w3.org/2000/svg" width="109" height="109" viewBox="0 0 109 109">
<g id="kvg:StrokePaths_08ecd" style="fill:none;stroke:#000000;stroke-width:3;stroke-linecap:round;stroke-linejoin:round;">
<g id="kvg:08ecd">
	<g id="kvg:08ecd-g1">
		<path id="kvg:s-s1" stroke="#E53935" d="M23.04,16.47c-0.13,4.46-3.19,16.12-4.29,18.78"/>
		<path id="kvg:s-s2" stroke="#FB8C00" d="M24.08,18.83c10.17-1.45,43.09-4.17,58.76-4.83c11.91-0.5,1.6,8.57,0.13,9.97"/>
	</g>
	<g id="kvg:08ecd-g2">
		<path id="kvg:s-s3" stroke="#FDD835" d="M32.89,30.7c2.12,0.82,4.7,0.29,6.88,0.07c8.06-0.82,18.34-2.19,27.37-2.79c2.36-0.16,4.66-0.37,6.98,0.17"/>
		<path id="kvg:s-s4" stroke="#43A047" d="M28.32,40.89c0.77,0.77,1.47,2.12,1.62,2.77c0.88,4.03,1.73,12.72,2.86,20.73c0.19,1.37,0.4,2.72,0.61,4.02"/>
		<path id="kvg:s-s5" stroke="#1E88E5" d="M30.74,42.67C44.17,41.18,66.42,38.8,75,38.53c3.55-0.11,4.92,0.84,4.42,4.36c-0.64,4.54-2.14,11.5-4,18.09c-0.34,1.19-0.69,2.37-1.04,3.53"/>
		<path id="kvg:s-s6" stroke="#8E24AA" d="M32.71,53.94c10.54-1.06,27.91-2.56,44.27-3.17"/>
		<path id="kvg:s-s7" stroke="#EC407A" d="M34.21,65.69c10.11-0.98,25.29-2.57,39.67-2.92"/>
		<path id="kvg:s-s8" stroke="#00ACC1" d="M16,78.79c3.38,0.71,7.04,0.58,10.25,0.34c21.13-1.56,35.62-3.36,56.5-4.22c3.38-0.14,6.7-0.4,10,0.47"/>
		<path id="kvg:s-s9" stroke="#795548" d="M52.42,19.13c1.16,1.16,1.86,2.74,1.86,4.54c0,1.02-0.07,51.4-0.18,69.57c-0.02,2.83-0.04,4.9-0.06,5.88"/>
	</g>
</g>
</g>
<g id="kvg:StrokeNumbers_08ecd" style="font-size:18;fill:#E53935;font-weight:bold;stroke:#fff;stroke-width:1.5;paint-order:stroke">
	<text transform="matrix(1 0 0 1 16.50 21.13)" fill="#E53935">1</text>
	<text transform="matrix(1 0 0 1 27.50 15.06)" fill="#FB8C00">2</text>
	<text transform="matrix(1 0 0 1 25.99 31.50)" fill="#FDD835">3</text>
	<text transform="matrix(1 0 0 1 22.99 49.41)" fill="#43A047">4</text>
	<text transform="matrix(1 0 0 1 33.49 40.50)" fill="#1E88E5">5</text>
	<text transform="matrix(1 0 0 1 36.49 51.50)" fill="#8E24AA">6</text>
	<text transform="matrix(1 0 0 1 36.49 62.50)" fill="#EC407A">7</text>
	<text transform="matrix(1 0 0 1 7.99 79.50)" fill="#00ACC1">8</text>
	<text transform="matrix(1 0 0 1 45.50 26.50)" fill="#795548">9</text>
</g>
</svg>
