<?xml version="1.0" encoding="UTF-8"?>
<svg xmlns="http://www.w3.org/2000/svg" width="109" height="109" viewBox="0 0 109 109">
<g id="kvg:StrokePaths_08ed2" style="fill:none;stroke:#000000;stroke-width:3;stroke-linecap:round;stroke-linejoin:round;">
<g id="kvg:08ed2">
	<g id="kvg:08ed2-g1">
		<path id="kvg:s-s1" stroke="#E53935" d="M17.33,26.05c1.97,0.33,4.07,0.51,6.06,0.32c7.86-0.75,14.42-2.04,21.86-2.89c1.62-0.19,3.13-0.36,4.68-0.14"/>
		<path id="kvg:s-s2" stroke="#FB8C00" d="M15.81,38.67c0.54,0.47,1.13,1.28,1.33,2.45c0.69,4.09,1.55,11.1,2.39,18.09c0.21,1.78,0.43,3.56,0.64,5.29"/>
		<path id="kvg:s-s3" stroke="#FDD835" d="M18.14,39.7c8.63-1.53,19.39-3.7,27.46-4.76c4.02-0.53,5.62-0.16,5.16,4.21c-0.4,3.89-1.24,8.93-1.97,14.88c-0.16,1.29-0.31,2.63-0.46,4.01"/>
		<path id="kvg:s-s4" stroke="#43A047" d="M19.58,50.37c11.17-2.12,18.92-3.62,29.26-4.76"/>
		<path id="kvg:s-s5" stroke="#1E88E5" d="M20.96,61.6c8.04-1.73,15.86-3.03,26.37-4.25"/>
		<path id="kvg:s-s6" stroke="#8E24AA" d="M11.78,75.21c2.2,0.75,4.38,0.45,6.62,0.15c9.92-1.33,21.41-3.47,29.12-4.29c2.06-0.22,3.93-0.27,5.95,0.26"/>
		<path id="kvg:s-s7" stroke="#EC407A" d="M32.8,11.13c0.97,0.97,1.48,2.37,1.48,4.15c0,0.95,0.01,60.59,0.01,73.34c0,4.21-0.03,7.21-0.05,8.38"/>
	</g>
	<g id="kvg:08ed2-g2">
		<path id="kvg:s-s8" stroke="#00ACC1" d="M59.02,24.08c2.23,0.29,4.17,0.22,5.86-0.04c6.12-0.92,13.91-1.92,20.02-2.5c1.9-0.18,3.82-0.31,5.69,0.17"/>
		<g id="kvg:08ed2-g3">
			<path id="kvg:s-s9" stroke="#795548" d="M56.63,51.62c2.02,0.66,4.71,0.31,6.75,0.03c8.11-1.12,19.73-2.91,27.86-3.46c1.97-0.13,3.94-0.26,5.89,0.12"/>
			<path id="kvg:s-s10" stroke="#546E7A" d="M74.06,24.63c1.03,1.03,1.54,2.12,1.54,4.08c0,10.79,0.08,41.54,0.07,61.04c0,3.96,0,7.01,0,8.63"/>
		</g>
	</g>
</g>
</g>
<g id="kvg:StrokeNumbers_08ed2" style="font-size:18;font-weight:bold;stroke:#fff;stroke-width:1.5;paint-order:stroke">
	<text transform="matrix(1 0 0 1 10.50 26.50)" fill="#E53935">1</text>
	<text transform="matrix(1 0 0 1 9.75 46.55)" fill="#FB8C00">2</text>
	<text transform="matrix(1 0 0 1 18.75 36.50)" fill="#FDD835">3</text>
	<text transform="matrix(1 0 0 1 22.25 46.55)" fill="#43A047">4</text>
	<text transform="matrix(1 0 0 1 22.50 58.48)" fill="#1E88E5">5</text>
	<text transform="matrix(1 0 0 1 4.50 76.41)" fill="#8E24AA">6</text>
	<text transform="matrix(1 0 0 1 23.25 11.50)" fill="#EC407A">7</text>
	<text transform="matrix(1 0 0 1 58.50 21.13)" fill="#00ACC1">8</text>
	<text transform="matrix(1 0 0 1 56.50 48.05)" fill="#795548">9</text>
	<text transform="matrix(1 0 0 1 65.50 34.50)" fill="#546E7A">10</text>
</g>
</svg>
