<?xml version="1.0" encoding="UTF-8"?>
<svg xmlns="http://www.w3.org/2000/svg" width="109" height="109" viewBox="0 0 109 109">
<g id="kvg:StrokePaths_08ef8" style="fill:none;stroke:#000000;stroke-width:3;stroke-linecap:round;stroke-linejoin:round;">
<g id="kvg:08ef8">
	<g id="kvg:08ef8-g1">
		<path id="kvg:s-s1" stroke="#E53935" d="M13.83,30.27c1.92,0.78,4.84,0.73,6.83,0.44c6.21-0.9,15.1-2.25,22.99-3.18c1.67-0.2,3.11-0.27,4.53-0.1"/>
		<path id="kvg:s-s2" stroke="#FB8C00" d="M14.31,43.02c0.83,0.83,1.06,1.85,1.3,2.85c0.81,3.42,1.3,9.12,2.35,16.14c0.22,1.46,0.42,2.89,0.59,4.25"/>
		<path id="kvg:s-s3" stroke="#FDD835" d="M15.85,44.6c9.02-1.74,21.63-4.35,28.29-5.05c3.73-0.39,5.31,0.08,4.88,4.07c-0.42,3.79-1.09,9.08-2.28,14.43c-0.26,1.18-0.54,2.37-0.83,3.55"/>
		<path id="kvg:s-s4" stroke="#43A047" d="M18.24,54.28C28,52.75,36,51.25,47.11,50.28"/>
		<path id="kvg:s-s5" stroke="#1E88E5" d="M19.6,64.71c7.77-1.58,14.76-2.85,25.05-3.97"/>
		<path id="kvg:s-s6" stroke="#8E24AA" d="M9.53,78.33c2.22,0.3,4.28,0.37,6.47,0.01c10.92-1.79,21.48-3.25,30.5-4.02c1.49-0.13,3.01-0.25,4.48,0.17"/>
		<path id="kvg:s-s7" stroke="#EC407A" d="M31.55,15.88c0.84,0.84,1.23,2.24,1.23,3.9c0,0.96,0.01,48.71,0.01,69.21c0,3.78-0.03,6.5-0.05,7.63"/>
	</g>
	<g id="kvg:08ef8-g2">
		<g id="kvg:08ef8-g3">
			<path id="kvg:s-s8" stroke="#00ACC1" d="M54.93,51.2c1.06,1.06,1.38,2.29,1.46,3.86C57,68,57.23,73.1,57.73,84.25c0.08,1.79,0.17,3.62,0.28,5.5"/>
			<path id="kvg:s-s9" stroke="#795548" d="M56.3,52.07c10.91-1.66,24-3.89,32.95-4.66c4.39-0.38,6.77,0.59,6.42,5.35c-0.49,6.61-1.51,18.16-2.77,28.76c-0.24,1.99-0.49,3.95-0.77,5.83"/>
		</g>
		<g id="kvg:08ef8-g4">
			<path id="kvg:s-s10" stroke="#546E7A" d="M72.99,20.82c1.26,1.18,2,2.88,2.01,4.43c0.04,15.3-0.02,54.95-0.02,58.94"/>
		</g>
		<g id="kvg:08ef8-g5">
			<path id="kvg:s-s11" stroke="#E53935" d="M58.28,68.27C67.5,66.75,87,64.5,93.34,64.21"/>
			<path id="kvg:s-s12" stroke="#FB8C00" d="M58.54,87.03c9.83-0.9,19.83-2.4,32.93-3.15"/>
		</g>
	</g>
</g>
</g>
<g id="kvg:StrokeNumbers_08ef8" style="font-size:18;font-weight:bold;stroke:#fff;stroke-width:1.5;paint-order:stroke">
	<text transform="matrix(1 0 0 1 6.75 31.50)" fill="#E53935">1</text>
	<text transform="matrix(1 0 0 1 8.50 50.50)" fill="#FB8C00">2</text>
	<text transform="matrix(1 0 0 1 16.50 40.63)" fill="#FDD835">3</text>
	<text transform="matrix(1 0 0 1 21.75 51.13)" fill="#43A047">4</text>
	<text transform="matrix(1 0 0 1 21.75 61.50)" fill="#1E88E5">5</text>
	<text transform="matrix(1 0 0 1 7.50 75.50)" fill="#8E24AA">6</text>
	<text transform="matrix(1 0 0 1 23.25 16.63)" fill="#EC407A">7</text>
	<text transform="matrix(1 0 0 1 50.50 60.50)" fill="#00ACC1">8</text>
	<text transform="matrix(1 0 0 1 56.25 48.13)" fill="#795548">9</text>
	<text transform="matrix(1 0 0 1 60.50 21.50)" fill="#546E7A">10</text>
	<text transform="matrix(1 0 0 1 60.75 64.08)" fill="#E53935">11</text>
	<text transform="matrix(1 0 0 1 60.56 83.50)" fill="#FB8C00">12</text>
</g>
</svg>
