<?xml version="1.0" encoding="UTF-8"?>
<svg xmlns="http://www.w3.org/2000/svg" width="109" height="109" viewBox="0 0 109 109">
<g id="kvg:StrokePaths_08f03" style="fill:none;stroke:#000000;stroke-width:3;stroke-linecap:round;stroke-linejoin:round;">
<g id="kvg:08f03">
	<g id="kvg:08f03-g1">
		<path id="kvg:s-s1" stroke="#E53935" d="M12.08,28.3c1.8,0.32,3.54,0.09,5.3-0.15c8.39-1.15,17.12-2.66,25.38-3.38c1.3-0.11,3.43-0.38,4.67,0.06"/>
		<path id="kvg:s-s2" stroke="#FB8C00" d="M13.56,39.83c0.87,0.87,1.06,1.92,1.23,2.64c0.87,3.6,2.14,10.64,3.25,18.03c0.19,1.29,0.37,2.56,0.51,3.77"/>
		<path id="kvg:s-s3" stroke="#FDD835" d="M15.25,40.73c7.88-1.23,19.67-3.01,26.38-3.67c3.71-0.37,5.36,0.03,4.89,4.07c-0.46,3.96-1.61,9.71-2.85,15.35c-0.28,1.26-0.56,2.52-0.83,3.75"/>
		<path id="kvg:s-s4" stroke="#43A047" d="M17.55,50.94c8.62-1.06,15.7-2.44,26.88-3.35"/>
		<path id="kvg:s-s5" stroke="#1E88E5" d="M19.35,61.42c6.69-0.89,13.19-2.17,22.98-3.33"/>
		<path id="kvg:s-s6" stroke="#8E24AA" d="M10.53,74.71c1.97,0.41,3.87,0.39,5.86,0.08c8.16-1.27,19.91-3.02,26.99-3.53c1.97-0.14,4.12-0.26,5.85,0.07"/>
		<path id="kvg:s-s7" stroke="#EC407A" d="M29.05,14.38c0.84,0.84,1.14,2.26,1.23,3.4c0.08,1-0.11,63.72-0.11,73.47c0,2.35-0.02,4.05-0.03,4.88"/>
	</g>
	<g id="kvg:08f03-g2">
		<g id="kvg:08f03-g3">
			<path id="kvg:s-s8" stroke="#00ACC1" d="M67.4,14c0.86,0.86,1.29,2,1.29,3.69c0,4.24,0,7.76-0.06,10.81"/>
			<path id="kvg:s-s9" stroke="#795548" d="M50.26,31.16c2.06,0.25,4.17,0.37,6.24,0.1c8.08-1.06,21.91-3.18,30.01-3.89c1.47-0.13,4.36-0.74,6.36,0.15"/>
		</g>
		<g id="kvg:08f03-g4">
			<path id="kvg:s-s10" stroke="#546E7A" d="M60.25,38.58c0.22,0.74,0.13,2.22-0.39,3.43c-2.06,4.76-5.15,8.58-9.36,12.74"/>
			<path id="kvg:s-s11" stroke="#E53935" d="M76.38,36.75c5.71,3.58,10.43,7.71,13.29,12.06"/>
			<path id="kvg:s-s12" stroke="#FB8C00" d="M78.98,50.54c0.4,1.21,0.12,2.47-0.54,4.28c-5.69,15.43-17.19,31.81-33.52,39.72"/>
			<path id="kvg:s-s13" stroke="#FDD835" d="M55.5,56.75c3.27,0.33,20.35,20.11,31.21,30.55c2.42,2.32,4.79,3.95,7.38,5.34"/>
		</g>
	</g>
</g>
</g>
<g id="kvg:StrokeNumbers_08f03" style="font-size:18;font-weight:bold;stroke:#fff;stroke-width:1.5;paint-order:stroke">
	<text transform="matrix(1 0 0 1 5.25 27.13)" fill="#E53935">1</text>
	<text transform="matrix(1 0 0 1 8.25 49.55)" fill="#FB8C00">2</text>
	<text transform="matrix(1 0 0 1 15.75 37.63)" fill="#FDD835">3</text>
	<text transform="matrix(1 0 0 1 21.75 48.05)" fill="#43A047">4</text>
	<text transform="matrix(1 0 0 1 21.75 58.48)" fill="#1E88E5">5</text>
	<text transform="matrix(1 0 0 1 3.75 76.41)" fill="#8E24AA">6</text>
	<text transform="matrix(1 0 0 1 21.75 13.63)" fill="#EC407A">7</text>
	<text transform="matrix(1 0 0 1 58.50 13.63)" fill="#00ACC1">8</text>
	<text transform="matrix(1 0 0 1 52.50 28.50)" fill="#795548">9</text>
	<text transform="matrix(1 0 0 1 50.50 40.48)" fill="#546E7A">10</text>
	<text transform="matrix(1 0 0 1 68.50 39.13)" fill="#E53935">11</text>
	<text transform="matrix(1 0 0 1 67.50 49.50)" fill="#FB8C00">12</text>
	<text transform="matrix(1 0 0 1 59.50 59.50)" fill="#FDD835">13</text>
</g>
</svg>
