<?xml version="1.0" encoding="UTF-8"?>
<svg xmlns="http://www.w3.org/2000/svg" width="109" height="109" viewBox="0 0 109 109">
<g id="kvg:StrokePaths_08f09" style="fill:none;stroke:#000000;stroke-width:3;stroke-linecap:round;stroke-linejoin:round;">
<g id="kvg:08f09">
	<g id="kvg:08f09-g1">
		<g id="kvg:08f09-g2">
			<g id="kvg:08f09-g3">
				<path id="kvg:s-s1" stroke="#E53935" d="M23.88,26.13c1.79,0.48,3.81,0.28,5.63,0.13c6.53-0.53,14.56-1.92,20.43-2.45c1.62-0.14,2.87-0.12,3.68,0.01"/>
				<path id="kvg:s-s2" stroke="#FB8C00" d="M38.17,13.37c0.12,0.29,1.77,1.52,1.77,3.39c0,6,0.06,14.51,0.06,18.87"/>
			</g>
			<g id="kvg:08f09-g4">
				<g id="kvg:08f09-g5">
					<path id="kvg:s-s3" stroke="#FDD835" d="M16.13,37.98c3.87,0.77,7.3,0.45,10.49,0.07c18.04-2.15,39.72-4.73,55.39-5.72c3.59-0.23,7.08-0.51,10.62,0.24"/>
				</g>
			</g>
		</g>
	</g>
	<g id="kvg:08f09-g6">
		<path id="kvg:s-s4" stroke="#43A047" d="M23.81,47.91c1.82,0.47,3.78,0.45,5.32,0.21c5.75-0.87,12.25-1.87,20.27-3.11c1.14-0.18,2.65-0.43,3.8-0.13"/>
		<path id="kvg:s-s5" stroke="#1E88E5" d="M23.06,56.12c0.72,0.72,0.98,1.25,1.19,2.16c1,4.34,1.54,8.28,2.38,14.49c0.17,1.22,0.33,2.42,0.48,3.54"/>
		<path id="kvg:s-s6" stroke="#8E24AA" d="M25.67,56.98c6.68-0.84,18.23-2.52,24.59-3.07c3.44-0.29,5.4-0.41,5.05,3.47c-0.29,3.21-0.82,7.83-1.73,12.37c-0.25,1.24-0.53,2.48-0.84,3.68"/>
		<path id="kvg:s-s7" stroke="#EC407A" d="M26.66,65.46C36.5,64.25,45,63,53.49,62.41"/>
		<path id="kvg:s-s8" stroke="#00ACC1" d="M28.16,74.68c6.45-0.75,14.47-1.93,23.59-2.49"/>
		<path id="kvg:s-s9" stroke="#795548" d="M16.16,84.57c1.96,0.56,5.12,0.32,6.83,0.02c8.38-1.46,19.01-2.73,27.63-3.36c2.18-0.16,4.13-0.36,6.47,0.09"/>
		<path id="kvg:s-s10" stroke="#546E7A" d="M38.17,40.38c1.04,1.04,1.42,2.62,1.42,4.02c0,0.66-0.03,31.97-0.03,46.47c0,2.92-0.04,5.03-0.06,5.88"/>
	</g>
	<g id="kvg:08f09-g7">
		<g id="kvg:08f09-g8">
			<g id="kvg:08f09-g9">
				<path id="kvg:s-s11" stroke="#E53935" d="M61.25,12.75c1.56,1.56,1.9,3.27,2.18,7.09c2.17,29.62,10.03,61.66,23.98,73.89c4.71,4.13,4.22,0.76,3.59-7.11"/>
			</g>
			<g id="kvg:08f09-g10">
				<path id="kvg:s-s12" stroke="#FB8C00" d="M83.22,46.64c0.09,1.04-0.21,2.45-0.67,3.92C79.58,60,69.89,79.17,53.31,90.97"/>
			</g>
			<g id="kvg:08f09-g11">
				<g id="kvg:08f09-g12">
					<path id="kvg:s-s13" stroke="#FDD835" d="M74.75,14.75c3.02,2,7.34,6.82,8.75,10.25"/>
				</g>
			</g>
		</g>
	</g>
</g>
</g>
<g id="kvg:StrokeNumbers_08f09" style="font-size:18;font-weight:bold;stroke:#fff;stroke-width:1.5;paint-order:stroke">
	<text transform="matrix(1 0 0 1 17.25 26.50)" fill="#E53935">1</text>
	<text transform="matrix(1 0 0 1 29.25 13.63)" fill="#FB8C00">2</text>
	<text transform="matrix(1 0 0 1 8.25 38.50)" fill="#FDD835">3</text>
	<text transform="matrix(1 0 0 1 15.75 48.05)" fill="#43A047">4</text>
	<text transform="matrix(1 0 0 1 17.50 63.50)" fill="#1E88E5">5</text>
	<text transform="matrix(1 0 0 1 26.25 55.63)" fill="#8E24AA">6</text>
	<text transform="matrix(1 0 0 1 29.25 63.50)" fill="#EC407A">7</text>
	<text transform="matrix(1 0 0 1 29.22 72.50)" fill="#00ACC1">8</text>
	<text transform="matrix(1 0 0 1 8.50 85.50)" fill="#795548">9</text>
	<text transform="matrix(1 0 0 1 28.50 45.50)" fill="#546E7A">10</text>
	<text transform="matrix(1 0 0 1 49.50 12.50)" fill="#E53935">11</text>
	<text transform="matrix(1 0 0 1 71.50 44.50)" fill="#FB8C00">12</text>
	<text transform="matrix(1 0 0 1 70.50 12.13)" fill="#FDD835">13</text>
</g>
</svg>
