<?xml version="1.0" encoding="UTF-8"?>
<svg xmlns="http://www.w3.org/2000/svg" width="109" height="109" viewBox="0 0 109 109">
<g id="kvg:StrokePaths_08f9b" style="fill:none;stroke:#000000;stroke-width:3;stroke-linecap:round;stroke-linejoin:round;">
<g id="kvg:08f9b">
	<g id="kvg:08f9b-g1">
		<g id="kvg:08f9b-g2">
			<path id="kvg:s-s1" stroke="#E53935" d="M52.81,12.5c1.28,1.28,1.87,3.25,1.87,5.35c0,3.05,0,3.65,0,7.65"/>
			<path id="kvg:s-s2" stroke="#FB8C00" d="M29.25,28.45c2.19,0.62,5.12,0.5,7.4,0.27c8.67-0.91,26.08-3.46,36.1-4.24c2.68-0.21,5.33-0.35,8,0.1"/>
		</g>
		<g id="kvg:08f9b-g3">
			<path id="kvg:s-s3" stroke="#FDD835" d="M38.25,33.25c2.91,4.85,4.24,9.81,4.5,13"/>
			<path id="kvg:s-s4" stroke="#43A047" d="M68.26,28c0.37,1,0.12,1.75-0.24,2.77c-1.04,2.96-4.74,10.12-6.27,12.48"/>
			<path id="kvg:s-s5" stroke="#1E88E5" d="M13.25,50.3c3.28,0.88,6.65,0.76,10,0.32c17-2.25,44.14-4.57,61.63-5.64c3.5-0.21,6.9-0.21,10.38,0.35"/>
		</g>
	</g>
	<g id="kvg:08f9b-g4">
		<path id="kvg:s-s6" stroke="#8E24AA" d="M24.64,69.2c2.96,1.05,7.34,0.67,10.36,0.19c13.8-2.19,28.14-3.34,40.5-4.25c3.41-0.25,6.73-0.14,10.11,0.58"/>
		<path id="kvg:s-s7" stroke="#EC407A" d="M53.14,49.38c0.99,0.99,1.18,2.37,1.18,4.21c0,6.46,0.02,25.4,0.03,37.15c0,3.07,0,5.65,0,7.38"/>
	</g>
</g>
</g>
<g id="kvg:StrokeNumbers_08f9b" style="font-size:18;font-weight:bold;stroke:#fff;stroke-width:1.5;paint-order:stroke">
	<text transform="matrix(1 0 0 1 44.25 13.63)" fill="#E53935">1</text>
	<text transform="matrix(1 0 0 1 21.75 29.50)" fill="#FB8C00">2</text>
	<text transform="matrix(1 0 0 1 32.25 39.05)" fill="#FDD835">3</text>
	<text transform="matrix(1 0 0 1 57.75 36.13)" fill="#43A047">4</text>
	<text transform="matrix(1 0 0 1 5.50 51.50)" fill="#1E88E5">5</text>
	<text transform="matrix(1 0 0 1 17.25 71.50)" fill="#8E24AA">6</text>
	<text transform="matrix(1 0 0 1 45.75 58.63)" fill="#EC407A">7</text>
</g>
</svg>
