<?xml version="1.0" encoding="UTF-8"?>
<svg xmlns="http://www.w3.org/2000/svg" width="109" height="109" viewBox="0 0 109 109">
<g id="kvg:StrokePaths_08f9e" style="fill:none;stroke:#000000;stroke-width:3;stroke-linecap:round;stroke-linejoin:round;">
<g id="kvg:08f9e">
	<g id="kvg:08f9e-g1">
		<g id="kvg:08f9e-g2">
			<path id="kvg:s-s1" stroke="#E53935" d="M38.75,16.12c0.12,1-0.41,1.82-1.39,2.67c-2.87,2.49-10.15,6.61-22.86,10.08"/>
			<path id="kvg:s-s2" stroke="#FB8C00" d="M12.03,45.21c1.01,0.31,3.56,0.2,4.56,0.06c9.57-1.27,21.08-3.02,27.83-3.43c1.69-0.1,2.71-0.1,3.55,0.06"/>
			<path id="kvg:s-s3" stroke="#FDD835" d="M30.46,26.37c0.83,0.83,1.19,2.13,1.19,3.58c0,8.05,0.11,25.05,0.11,31.69"/>
		</g>
		<g id="kvg:08f9e-g3">
			<path id="kvg:s-s4" stroke="#43A047" d="M17.85,63.83c0.85,0.85,1.43,1.79,1.6,2.81c1.14,6.99,1.81,11.94,2.29,15.61c0.23,1.76,0.42,3.24,0.59,4.5"/>
			<path id="kvg:s-s5" stroke="#1E88E5" d="M19.77,64.78c7.83-1.06,16.02-2.4,21.25-3.4c2.61-0.5,4.36,1.63,3.85,4.25c-0.81,4.17-2.02,8.85-3.49,14.4"/>
			<path id="kvg:s-s6" stroke="#8E24AA" d="M23.14,83.25c4.77-0.39,10.61-1.3,16.97-2c1.24-0.14,2.49-0.27,3.77-0.38"/>
		</g>
	</g>
	<g id="kvg:08f9e-g4">
		<g id="kvg:08f9e-g5">
			<g id="kvg:08f9e-g6">
				<path id="kvg:s-s7" stroke="#EC407A" d="M68.34,12.75c0.73,0.75,1.59,2,1.59,3.75s0,4,0,8.75"/>
				<path id="kvg:s-s8" stroke="#00ACC1" d="M52.88,27.7c1.92,0.59,4.03,0.32,6,0.14c6.52-0.6,18.02-2.26,26.12-2.72c2.08-0.12,4.11-0.16,6.17,0.22"/>
			</g>
			<g id="kvg:08f9e-g7">
				<path id="kvg:s-s9" stroke="#795548" d="M57.66,34.5c3.64,4.01,5.29,8.11,5.62,10.75"/>
				<path id="kvg:s-s10" stroke="#546E7A" d="M83.49,29.62c0.28,0.7,0.28,1.52,0.06,2.36c-0.74,2.84-4.76,12.06-5.92,14.27"/>
				<path id="kvg:s-s11" stroke="#E53935" d="M48.25,51.3c2.62,0.57,4.37,0.29,6.51,0.07c10.63-1.1,24.29-2.6,35.11-3.27c2.25-0.14,4.41-0.26,6.62,0.23"/>
			</g>
		</g>
		<g id="kvg:08f9e-g8">
			<path id="kvg:s-s12" stroke="#FB8C00" d="M52.89,67.85c1.21,0.32,3.45,0.45,4.66,0.32c9.71-1.05,22.21-2.55,31.44-3.17c2.02-0.13,3.24,0.15,4.25,0.32"/>
			<path id="kvg:s-s13" stroke="#FDD835" d="M70.02,51.63c1.05,1.05,1.59,2.49,1.59,4.21c0,4.85-0.1,24.66-0.14,35.28c-0.01,2.58-0.02,4.61-0.02,5.76"/>
		</g>
	</g>
</g>
</g>
<g id="kvg:StrokeNumbers_08f9e" style="font-size:18;fill:#E53935;font-weight:bold;stroke:#fff;stroke-width:1.5;paint-order:stroke">
	<text transform="matrix(1 0 0 1 30.75 15.13)" fill="#E53935">1</text>
	<text transform="matrix(1 0 0 1 4.50 47.50)" fill="#FB8C00">2</text>
	<text transform="matrix(1 0 0 1 24.50 35.50)" fill="#FDD835">3</text>
	<text transform="matrix(1 0 0 1 11.50 72.50)" fill="#43A047">4</text>
	<text transform="matrix(1 0 0 1 20.25 61.63)" fill="#1E88E5">5</text>
	<text transform="matrix(1 0 0 1 25.50 79.63)" fill="#8E24AA">6</text>
	<text transform="matrix(1 0 0 1 60.50 13.50)" fill="#EC407A">7</text>
	<text transform="matrix(1 0 0 1 51.75 24.13)" fill="#00ACC1">8</text>
	<text transform="matrix(1 0 0 1 51.50 39.13)" fill="#795548">9</text>
	<text transform="matrix(1 0 0 1 72.50 36.13)" fill="#546E7A">10</text>
	<text transform="matrix(1 0 0 1 39.50 52.50)" fill="#E53935">11</text>
	<text transform="matrix(1 0 0 1 51.50 65.50)" fill="#FB8C00">12</text>
	<text transform="matrix(1 0 0 1 60.50 59.50)" fill="#FDD835">13</text>
</g>
</svg>
