<?xml version="1.0" encoding="UTF-8"?>
<svg xmlns="http://www.w3.org/2000/svg" width="109" height="109" viewBox="0 0 109 109">
<g id="kvg:StrokePaths_09003" style="fill:none;stroke:#000000;stroke-width:3;stroke-linecap:round;stroke-linejoin:round;">
<g id="kvg:09003">
	<g id="kvg:09003-g1">
		<g id="kvg:09003-g2">
			<g id="kvg:09003-g3">
				<path id="kvg:s-s1" stroke="#E53935" d="M54.79,21.21c0.94,0.94,1.14,2.16,1.14,3.65c0,17.88,3.2,40.52-10.96,51.89"/>
			</g>
			<g id="kvg:09003-g4">
				<path id="kvg:s-s2" stroke="#FB8C00" d="M39.67,33.37c3.21,1.59,8.29,6.55,9.09,9.03"/>
				<path id="kvg:s-s3" stroke="#FDD835" d="M38.32,60.51c1.09,0.54,2.19,0.47,3.02-0.14c1.15-0.85,7.17-6.14,11.68-10.23"/>
			</g>
		</g>
		<g id="kvg:09003-g5">
			<g id="kvg:09003-g6">
				<path id="kvg:s-s4" stroke="#43A047" d="M69.7,17.37c0.9,0.9,0.97,1.87,1,3.19c0.15,5.89-0.02,39.87-0.02,43.88c0,8.07,1.82,9.66,10.88,9.66c8.45,0,10.26-1.84,10.26-7.32"/>
			</g>
			<path id="kvg:s-s5" stroke="#1E88E5" d="M84.84,25.85c0.08,0.64-0.08,1.21-0.5,1.72c-1.58,1.55-5.1,4.69-10.47,7.44"/>
			<path id="kvg:s-s6" stroke="#8E24AA" d="M74.52,46.14C78.62,49,84,56.12,85.86,60.28"/>
		</g>
	</g>
	<g id="kvg:09003-g7">
		<path id="kvg:s-s7" stroke="#EC407A" d="M17.5,23.12c4.06,1.32,10.48,5.42,11.5,7.47"/>
		<path id="kvg:s-s8" stroke="#00ACC1" d="M12,54c2.5,0.5,3.83,0.19,4.75-0.27c4-1.98,7.62-3.61,10.25-4.68c1.45-0.6,2.62,0.94,2,2.53c-5.5,14.17-5.75,8.42,2.25,17.74c1.02,1.19,1,2.28-0.5,3.43c-1.5,1.15-11.25,7-14,9.06"/>
		<path id="kvg:s-s9" stroke="#795548" d="M13.75,83.19c4.25-0.94,9.41-0.78,14-0.69c6.12,0.12,30.07,6.6,34.5,7.79c12,3.22,20,3.96,29.75,3.53"/>
	</g>
</g>
</g>
<g id="kvg:StrokeNumbers_09003" style="font-size:18;font-weight:bold;stroke:#fff;stroke-width:1.5;paint-order:stroke">
	<text transform="matrix(1 0 0 1 48.50 21.13)" fill="#E53935">1</text>
	<text transform="matrix(1 0 0 1 37.50 30.05)" fill="#FB8C00">2</text>
	<text transform="matrix(1 0 0 1 35.50 55.50)" fill="#FDD835">3</text>
	<text transform="matrix(1 0 0 1 60.50 16.50)" fill="#43A047">4</text>
	<text transform="matrix(1 0 0 1 80.50 21.50)" fill="#1E88E5">5</text>
	<text transform="matrix(1 0 0 1 76.50 45.13)" fill="#8E24AA">6</text>
	<text transform="matrix(1 0 0 1 11.25 22.63)" fill="#EC407A">7</text>
	<text transform="matrix(1 0 0 1 5.25 54.13)" fill="#00ACC1">8</text>
	<text transform="matrix(1 0 0 1 6.75 85.40)" fill="#795548">9</text>
</g>
</svg>
