<?xml version="1.0" encoding="UTF-8"?>
<svg xmlns="http://www.w3.org/2000/svg" width="109" height="109" viewBox="0 0 109 109">
<g id="kvg:StrokePaths_09013" style="fill:none;stroke:#000000;stroke-width:3;stroke-linecap:round;stroke-linejoin:round;">
<g id="kvg:09013">
	<g id="kvg:09013-g1">
		<g id="kvg:09013-g2">
			<path id="kvg:s-s1" stroke="#E53935" d="M76.73,12c-0.11,0.93-0.77,1.54-1.18,1.88c-5.08,4.2-14.18,7.5-25.56,10.76"/>
			<g id="kvg:09013-g3">
				<path id="kvg:s-s2" stroke="#FB8C00" d="M46.05,23.62c0.85,0.85,0.93,2,0.91,3.7c-0.33,24.55-0.04,32.6-8.04,46.13"/>
			</g>
		</g>
		<g id="kvg:09013-g4">
			<g id="kvg:09013-g5">
				<path id="kvg:s-s3" stroke="#FDD835" d="M51.06,33.88c1.69,0.24,3.49-0.02,5.08-0.22c7.98-1.03,17.98-2.41,27.49-4.22c1.85-0.35,3.61-0.51,5.46-0.03"/>
			</g>
			<g id="kvg:09013-g6">
				<path id="kvg:s-s4" stroke="#43A047" d="M50.48,44.9c1.65,0.35,3.69-0.02,5.14-0.18c6.53-0.72,20.78-2.31,28.75-3.5c1.94-0.29,3.59-0.66,5.52-0.16"/>
			</g>
		</g>
		<g id="kvg:09013-g7">
			<path id="kvg:s-s5" stroke="#1E88E5" d="M54.67,54.82c1.07,1.07,1.21,2.18,1.21,3.96c0,2.64,0,8.08,0,12.35c0,2.34,0,4.25,0,4.99"/>
			<path id="kvg:s-s6" stroke="#8E24AA" d="M56.86,56.19c2.47-0.21,22.17-2.54,27.77-3.02c2.85-0.24,3.8,0.95,3.82,3.7c0.04,6.53-0.04,8.99-0.54,15.01c-0.66,7.99-4.16,2.37-5.54,0.61"/>
			<path id="kvg:s-s7" stroke="#EC407A" d="M69.64,24.07c1.02,1.02,1.16,2.05,1.16,3.84c0,0.58,0.11,34.08,0.02,49.46c-0.02,3.6-0.04,6.17-0.06,7"/>
		</g>
	</g>
	<g id="kvg:09013-g8">
		<path id="kvg:s-s8" stroke="#00ACC1" d="M20.46,19.62c3.81,1.63,9.84,6.72,10.79,9.26"/>
		<path id="kvg:s-s9" stroke="#795548" d="M13,50.5c2.25,1,3.75,0.5,4.75,0.25S27,47.5,28.5,47s3.33,1.15,2.5,2.75c-7.75,15-7.25,9.25,0.25,19.25c1.01,1.34,0.75,2.75-0.75,4s-7.25,6.12-11,9"/>
		<path id="kvg:s-s10" stroke="#546E7A" d="M15.25,83.25c3-0.5,8.92-1.06,13.5-0.5c9.25,1.12,30.07,7.21,34.5,8.5c12,3.5,17.5,4,27,4.5"/>
	</g>
</g>
</g>
<g id="kvg:StrokeNumbers_09013" style="font-size:18;font-weight:bold;stroke:#fff;stroke-width:1.5;paint-order:stroke">
	<text transform="matrix(1 0 0 1 66.75 12.13)" fill="#E53935">1</text>
	<text transform="matrix(1 0 0 1 39.50 32.50)" fill="#FB8C00">2</text>
	<text transform="matrix(1 0 0 1 53.25 31.55)" fill="#FDD835">3</text>
	<text transform="matrix(1 0 0 1 53.25 42.50)" fill="#43A047">4</text>
	<text transform="matrix(1 0 0 1 48.75 62.50)" fill="#1E88E5">5</text>
	<text transform="matrix(1 0 0 1 56.25 53.50)" fill="#8E24AA">6</text>
	<text transform="matrix(1 0 0 1 63.50 28.50)" fill="#EC407A">7</text>
	<text transform="matrix(1 0 0 1 12.75 19.63)" fill="#00ACC1">8</text>
	<text transform="matrix(1 0 0 1 5.25 51.05)" fill="#795548">9</text>
	<text transform="matrix(1 0 0 1 5.50 85.50)" fill="#546E7A">10</text>
</g>
</svg>
