<?xml version="1.0" encoding="UTF-8"?>
<svg xmlns="http://www.w3.org/2000/svg" width="109" height="109" viewBox="0 0 109 109">
<g id="kvg:StrokePaths_09045" style="fill:none;stroke:#000000;stroke-width:3;stroke-linecap:round;stroke-linejoin:round;">
<g id="kvg:09045">
	<g id="kvg:09045-g1">
		<g id="kvg:09045-g2">
			<path id="kvg:s-s1" stroke="#E53935" d="M45.78,16.09c1.27,0.47,3.75,0.89,5.1,0.79c6.18-0.44,24.04-2.32,31.14-3c3.22-0.31,5.73-0.05,4.12,3.8c-1.12,2.7-1.84,4.72-2.79,9"/>
			<path id="kvg:s-s2" stroke="#FB8C00" d="M50.66,30.35c2.83-0.12,19.2-1.46,28.58-2.13c2.75-0.2,4.84-0.34,5.71-0.37"/>
			<path id="kvg:s-s3" stroke="#FDD835" d="M48.43,17.25c0.82,0.75,1.25,2.09,1.24,3c-0.23,26.39-3.29,43.63-12.91,57.5"/>
		</g>
		<g id="kvg:09045-g3">
			<g id="kvg:09045-g4">
				<path id="kvg:s-s4" stroke="#43A047" d="M59.79,35.59c1.65,1.19,4.26,4.91,4.68,6.77"/>
				<path id="kvg:s-s5" stroke="#1E88E5" d="M79.89,32.39c0.05,0.71-0.01,1.4-0.29,2.05c-1.35,3.06-2.85,5.43-5.67,9.01"/>
				<path id="kvg:s-s6" stroke="#8E24AA" d="M53.71,47.39c2.04,0.48,4.18,0.15,6.05-0.05c6.13-0.64,17.05-2.23,23.73-2.73c2.02-0.15,4.11-0.31,6.12,0.06"/>
			</g>
			<path id="kvg:s-s7" stroke="#EC407A" d="M55.18,58.44c1.52,0.62,3.62,0.15,5.18-0.01c5.92-0.58,16.37-1.83,22.26-2.15c1.55-0.08,3.19-0.21,4.71,0.17"/>
			<path id="kvg:s-s8" stroke="#00ACC1" d="M50.25,70.63c2.24,0.8,4.83,0.45,7.12,0.2c8.04-0.87,22.05-2.81,31.01-3.13c2.03-0.07,4.13-0.16,6.12,0.27"/>
			<path id="kvg:s-s9" stroke="#795548" d="M70.65,48.56c0.83,0.83,1.02,2.06,1.02,3.56c0,6.51,0.14,15.5,0.07,28.88c-0.01,1.91-0.02,3.76-0.02,5.5"/>
		</g>
	</g>
	<g id="kvg:09045-g5">
		<path id="kvg:s-s10" stroke="#546E7A" d="M20.25,18.75c3.88,1.88,10.03,7.71,11,10.63"/>
		<path id="kvg:s-s11" stroke="#E53935" d="M13.25,50.75c2.25,1,3.75,0.5,4.75,0.25s8.75-3.5,10.25-4s3.59,1.16,2.75,2.75c-7.25,13.75-8,9.25-0.25,19c1.04,1.31,0.75,2.75-0.75,4S21,81,19.5,81.5"/>
		<path id="kvg:s-s12" stroke="#FB8C00" d="M15.25,83.5c3-0.5,8.96-1.55,13.5-0.75c8.5,1.5,28.75,7,34.5,8.5c12.1,3.16,17.25,4.25,27.25,4.5"/>
	</g>
</g>
</g>
<g id="kvg:StrokeNumbers_09045" style="font-size:18;font-weight:bold;stroke:#fff;stroke-width:1.5;paint-order:stroke">
	<text transform="matrix(1 0 0 1 49.50 13.50)" fill="#E53935">1</text>
	<text transform="matrix(1 0 0 1 54.75 27.05)" fill="#FB8C00">2</text>
	<text transform="matrix(1 0 0 1 42.50 25.48)" fill="#FDD835">3</text>
	<text transform="matrix(1 0 0 1 53.50 37.50)" fill="#43A047">4</text>
	<text transform="matrix(1 0 0 1 72.50 36.50)" fill="#1E88E5">5</text>
	<text transform="matrix(1 0 0 1 53.25 44.50)" fill="#8E24AA">6</text>
	<text transform="matrix(1 0 0 1 53.25 56.50)" fill="#EC407A">7</text>
	<text transform="matrix(1 0 0 1 50.50 68.50)" fill="#00ACC1">8</text>
	<text transform="matrix(1 0 0 1 64.50 54.50)" fill="#795548">9</text>
	<text transform="matrix(1 0 0 1 9.50 19.50)" fill="#546E7A">10</text>
	<text transform="matrix(1 0 0 1 3.50 51.13)" fill="#E53935">11</text>
	<text transform="matrix(1 0 0 1 5.50 85.50)" fill="#FB8C00">12</text>
</g>
</svg>
