<?xml version="1.0" encoding="UTF-8"?>
<svg xmlns="http://www.w3.org/2000/svg" width="109" height="109" viewBox="0 0 109 109">
<g id="kvg:StrokePaths_090ce" style="fill:none;stroke:#000000;stroke-width:3;stroke-linecap:round;stroke-linejoin:round;">
<g id="kvg:090ce">
	<g id="kvg:090ce-g1">
		<path id="kvg:s-s1" stroke="#E53935" d="M33.95,10.76c0.9,0.9,1.09,1.74,1.09,3.25C35.04,15.14,35,23.23,35,26"/>
		<g id="kvg:090ce-g2">
			<path id="kvg:s-s2" stroke="#FB8C00" d="M19.89,27.11c1.61,0.89,3.35,1.12,5.61,0.82c5.37-0.72,14.9-1.6,18.64-1.97c2.48-0.25,5.02-0.23,4.82,3.02c-0.35,5.83-0.88,14.23-1.55,21.25c-0.19,2.02-0.39,3.17-0.61,4.87"/>
			<path id="kvg:s-s3" stroke="#FDD835" d="M22.91,40.98C27.5,40.5,40.25,39,47.2,38.66"/>
			<path id="kvg:s-s4" stroke="#43A047" d="M23.05,54.21c4.97-0.52,13.83-1.71,23.25-2.34"/>
			<path id="kvg:s-s5" stroke="#1E88E5" d="M20.89,27.61c0.94,0.94,1.1,1.77,1.1,3.11c0,1.02-0.12,43.69-0.12,53.53c0,2.61,1.25,2.5,2.44,1.65c4.16-2.98,15.52-11.15,20.14-13.87"/>
			<path id="kvg:s-s6" stroke="#8E24AA" d="M40.75,63.5c3.01,2.91,7.75,10.67,9.47,16.81"/>
		</g>
	</g>
	<g id="kvg:090ce-g3">
		<path id="kvg:s-s7" stroke="#EC407A" d="M61.41,19.96c1.59,0.29,2.55,0.59,3.84,0.52C73.5,20,79,19.25,86,17.73c4.23-0.92,5.54,1.99,3.7,4.89c-1.84,2.9-9.92,15.98-13.15,20.12"/>
		<path id="kvg:s-s8" stroke="#00ACC1" d="M76.56,42.74C95.75,59.88,96,86,81.61,77.88"/>
		<path id="kvg:s-s9" stroke="#795548" d="M64.87,21c0.94,0.94,0.96,2.23,0.96,3.25c0,8.82,0.02,45.86,0.03,64.75c0,4.12,0,7.44,0,9.5"/>
	</g>
</g>
</g>
<g id="kvg:StrokeNumbers_090ce" style="font-size:18;font-weight:bold;stroke:#fff;stroke-width:1.5;paint-order:stroke">
	<text transform="matrix(1 0 0 1 24.25 11.88)" fill="#E53935">1</text>
	<text transform="matrix(1 0 0 1 24.25 25.25)" fill="#FB8C00">2</text>
	<text transform="matrix(1 0 0 1 26.25 37.25)" fill="#FDD835">3</text>
	<text transform="matrix(1 0 0 1 26.08 51.25)" fill="#43A047">4</text>
	<text transform="matrix(1 0 0 1 14.25 35.25)" fill="#1E88E5">5</text>
	<text transform="matrix(1 0 0 1 34.25 64.25)" fill="#8E24AA">6</text>
	<text transform="matrix(1 0 0 1 66.50 16.38)" fill="#EC407A">7</text>
	<text transform="matrix(1 0 0 1 72.50 52.38)" fill="#00ACC1">8</text>
	<text transform="matrix(1 0 0 1 57.50 29.88)" fill="#795548">9</text>
</g>
</svg>
