<?xml version="1.0" encoding="UTF-8"?>
<svg xmlns="http://www.w3.org/2000/svg" width="109" height="109" viewBox="0 0 109 109">
<g id="kvg:StrokePaths_090e8" style="fill:none;stroke:#000000;stroke-width:3;stroke-linecap:round;stroke-linejoin:round;">
<g id="kvg:090e8">
	<g id="kvg:090e8-g1">
		<g id="kvg:090e8-g2">
			<g id="kvg:090e8-g3">
				<path id="kvg:s-s1" stroke="#E53935" d="M35.6,13.25c0.88,0.66,1.32,1.91,1.32,3.45s0,4.63,0,8.81"/>
				<path id="kvg:s-s2" stroke="#FB8C00" d="M16.79,27.98c1.81,0.51,3.75,0.46,5.6,0.34c6.87-0.44,18.87-2.19,26.99-3.98c2.05-0.45,4.15-0.46,6.23-0.11"/>
			</g>
			<g id="kvg:090e8-g4">
				<path id="kvg:s-s3" stroke="#FDD835" d="M23.64,32.15c3.38,4.42,4.91,8.93,5.21,11.84"/>
				<path id="kvg:s-s4" stroke="#43A047" d="M47.75,28c0.38,0.75,0.5,1.93,0.19,2.78c-1.81,4.96-4.31,11.09-5.87,14.25"/>
				<path id="kvg:s-s5" stroke="#1E88E5" d="M12.67,50.39c2.29,0.61,4.53,0.3,6.84,0.04C30.98,49.12,39,47.72,52.13,47c2.61-0.14,5.12-0.24,7.71,0.18"/>
			</g>
		</g>
		<g id="kvg:090e8-g5">
			<path id="kvg:s-s6" stroke="#8E24AA" d="M22.16,63.08c0.8,0.64,1.26,1.47,1.38,2.49c0.98,3.6,1.97,10.3,2.75,15.78c0.19,1.31,0.36,2.54,0.52,3.65"/>
			<path id="kvg:s-s7" stroke="#EC407A" d="M24.07,64.38c7.15-1.03,17.57-2.36,23.07-3.05c2.61-0.33,4.48,1.05,3.95,3.84c-0.84,4.42-2.09,10.38-3.34,15.32"/>
			<path id="kvg:s-s8" stroke="#00ACC1" d="M28.25,83.78c4.48-0.45,11.21-1.17,17.99-1.87c1.28-0.13,2.52-0.27,3.68-0.4"/>
		</g>
	</g>
	<g id="kvg:090e8-g6">
		<path id="kvg:s-s9" stroke="#795548" d="M65.27,19.39c1.23,0.61,2.76,0.57,4.23,0.47c6.16-0.43,14.88-1.86,19.33-2.89c3.26-0.75,5.42,0.28,3.92,4.28c-1,2.66-7.62,12.88-12.1,19.23"/>
		<path id="kvg:s-s10" stroke="#546E7A" d="M80.65,40.73c20.48,10.02,17.48,43.14,4.65,31.63"/>
		<path id="kvg:s-s11" stroke="#E53935" d="M67.37,20.14c0.74,0.74,1.07,2.1,1.07,3.19c0,2.91,0.02,49.64,0.02,68.04c0,2.4,0,4.31,0,5.59"/>
	</g>
</g>
</g>
<g id="kvg:StrokeNumbers_090e8" style="font-size:18;fill:#E53935;font-weight:bold;stroke:#fff;stroke-width:1.5;paint-order:stroke">
	<text transform="matrix(1 0 0 1 27.50 13.50)" fill="#E53935">1</text>
	<text transform="matrix(1 0 0 1 9.75 28.50)" fill="#FB8C00">2</text>
	<text transform="matrix(1 0 0 1 17.25 38.50)" fill="#FDD835">3</text>
	<text transform="matrix(1 0 0 1 39.50 34.63)" fill="#43A047">4</text>
	<text transform="matrix(1 0 0 1 5.25 51.50)" fill="#1E88E5">5</text>
	<text transform="matrix(1 0 0 1 16.50 71.50)" fill="#8E24AA">6</text>
	<text transform="matrix(1 0 0 1 25.50 61.97)" fill="#EC407A">7</text>
	<text transform="matrix(1 0 0 1 30.75 80.50)" fill="#00ACC1">8</text>
	<text transform="matrix(1 0 0 1 70.50 16.63)" fill="#795548">9</text>
	<text transform="matrix(1 0 0 1 77.00 50.39)" fill="#546E7A">10</text>
	<text transform="matrix(1 0 0 1 58.50 28.50)" fill="#E53935">11</text>
</g>
</svg>
