<?xml version="1.0" encoding="UTF-8"?>
<svg xmlns="http://www.w3.org/2000/svg" width="109" height="109" viewBox="0 0 109 109">
<g id="kvg:StrokePaths_09175" style="fill:none;stroke:#000000;stroke-width:3;stroke-linecap:round;stroke-linejoin:round;">
<g id="kvg:09175">
	<g id="kvg:09175-g1">
		<g id="kvg:09175-g2">
			<path id="kvg:s-s1" stroke="#E53935" d="M11.29,23.16c0.62,0.37,3.75,0.93,4.39,0.87c6.56-0.54,22.31-2.29,25.08-2.54c1.57-0.15,3.49-0.37,4.68-0.13"/>
			<path id="kvg:s-s2" stroke="#FB8C00" d="M13.13,38.07c1.03,1.02,1.3,2.3,1.3,3.86c0,0.69,0.08,29.53,0.01,41.57c-0.02,3.12-0.03,5.11-0.03,5.2"/>
			<path id="kvg:s-s3" stroke="#FDD835" d="M15.37,40.68c4.13-0.56,22.18-2.31,24.23-2.58c2.14-0.28,3.27,0.92,3.27,3.4c0,1.2,0.03,27,0.03,40.5c0,2.09-0.01,3.87-0.01,5.17"/>
			<path id="kvg:s-s4" stroke="#43A047" d="M23.72,25.99c0.66,1.09,0.74,2.07,0.69,3.56C24,42.38,22.88,52.38,18.27,60.45"/>
			<path id="kvg:s-s5" stroke="#1E88E5" d="M31.13,24.41c0.73,0.73,1.04,2.09,1.04,3.4c0,5.47,0.03,16.73,0.03,23.48c0,4.08,0.56,5.32,4.54,5.32c3.02,0,3.9-0.36,4.39-0.86"/>
		</g>
		<g id="kvg:09175-g3">
			<path id="kvg:s-s6" stroke="#8E24AA" d="M15.77,72.88c5.85-0.5,18.85-2,25.82-2.58"/>
		</g>
		<g id="kvg:09175-g4">
			<path id="kvg:s-s7" stroke="#EC407A" d="M15.63,85.81c6.24-0.47,18.42-1.72,26.2-2.12"/>
		</g>
	</g>
	<g id="kvg:09175-g5">
		<g id="kvg:09175-g6">
			<g id="kvg:09175-g7">
				<path id="kvg:s-s8" stroke="#00ACC1" d="M52.96,27.82c2.04,0.58,3.83,0.62,5.92,0.44c6-0.51,12.74-1.33,18.63-1.97c1.5-0.16,2.71-0.31,4.18-0.06"/>
				<path id="kvg:s-s9" stroke="#795548" d="M66.42,14.37c0.86,0.86,1.38,1.88,1.38,3.47c0,9.15-0.01,19.21-0.01,22.33"/>
				<path id="kvg:s-s10" stroke="#546E7A" d="M49,41.56c2.62,0.57,5.8,0.43,8.11,0.1c7.6-1.1,20.85-2.76,32.39-3.18c2.13-0.08,4.1-0.07,6.13,0.64"/>
			</g>
			<path id="kvg:s-s11" stroke="#E53935" d="M88.4,17.57c0.11,1.18-0.42,2.84-1.21,4.23c-10.21,17.93-18.83,28.5-37.93,44.63"/>
		</g>
		<g id="kvg:09175-g8">
			<path id="kvg:s-s12" stroke="#FB8C00" d="M63.94,52.85c1.36,1.08,3.62,1.01,5.22,0.8c3.87-0.51,12.03-2.15,13.16-2.4c2.2-0.48,3.93,0.49,1.93,2.74c-1.77,1.99-5.25,5.62-10.93,10.4"/>
			<path id="kvg:s-s13" stroke="#FDD835" d="M69.4,65.19c6.1,4.06,11.76,16.88,6.75,27.12c-3.15,6.44-5.4,1.44-6.88-0.89"/>
			<path id="kvg:s-s14" stroke="#43A047" d="M50.38,74.21c2.13,0.68,5.36,0.58,7.62,0.19c9.62-1.66,23.62-3.41,33.5-3.62c2.08-0.04,4.39-0.15,6.34,0.36"/>
		</g>
	</g>
</g>
</g>
<g id="kvg:StrokeNumbers_09175" style="font-size:18;font-weight:bold;stroke:#fff;stroke-width:1.5;paint-order:stroke">
	<text transform="matrix(1 0 0 1 5.50 23.50)" fill="#E53935">1</text>
	<text transform="matrix(1 0 0 1 6.50 46.63)" fill="#FB8C00">2</text>
	<text transform="matrix(1 0 0 1 15.50 38.50)" fill="#FDD835">3</text>
	<text transform="matrix(1 0 0 1 18.50 32.50)" fill="#43A047">4</text>
	<text transform="matrix(1 0 0 1 27.50 32.50)" fill="#1E88E5">5</text>
	<text transform="matrix(1 0 0 1 18.50 69.50)" fill="#8E24AA">6</text>
	<text transform="matrix(1 0 0 1 18.55 82.55)" fill="#EC407A">7</text>
	<text transform="matrix(1 0 0 1 51.50 25.63)" fill="#00ACC1">8</text>
	<text transform="matrix(1 0 0 1 57.50 14.50)" fill="#795548">9</text>
	<text transform="matrix(1 0 0 1 47.50 39.05)" fill="#546E7A">10</text>
	<text transform="matrix(1 0 0 1 78.50 17.50)" fill="#E53935">11</text>
	<text transform="matrix(1 0 0 1 74.50 49.50)" fill="#FB8C00">12</text>
	<text transform="matrix(1 0 0 1 61.50 66.50)" fill="#FDD835">13</text>
	<text transform="matrix(1 0 0 1 49.50 71.50)" fill="#43A047">14</text>
</g>
</svg>
