<?xml version="1.0" encoding="UTF-8"?>
<svg xmlns="http://www.w3.org/2000/svg" width="109" height="109" viewBox="0 0 109 109">
<g id="kvg:StrokePaths_091e3" style="fill:none;stroke:#000000;stroke-width:3;stroke-linecap:round;stroke-linejoin:round;">
<g id="kvg:091e3">
	<g id="kvg:091e3-g1">
		<path id="kvg:s-s1" stroke="#E53935" d="M32.5,14.49c0,0.79,0.05,1.42-0.14,2.37c-1.01,4.94-10.89,21.94-19.13,29.26"/>
		<path id="kvg:s-s2" stroke="#FB8C00" d="M34.14,20.21c4.74,2.15,10.8,7.87,13.11,13.29"/>
		<path id="kvg:s-s3" stroke="#FDD835" d="M22,41c1.41,0,2.72,0.07,4.13-0.08c3.99-0.43,10.08-1.72,14.5-2.04c1.12-0.08,2.25-0.13,3.38-0.13"/>
		<path id="kvg:s-s4" stroke="#43A047" d="M14.34,56.06c2.29,0.44,4.02,0.36,5.7,0.14c6.09-0.77,13.84-1.83,22.25-2.88c0.74-0.09,2.09-0.1,3.49-0.1"/>
		<path id="kvg:s-s5" stroke="#1E88E5" d="M31.95,42.94C33,44,33.19,45,33.19,46.58c0,4.35,0.06,28.29,0.06,36.23"/>
		<path id="kvg:s-s6" stroke="#8E24AA" d="M19.14,67.76c2.6,4.01,3.87,8.35,4.4,10.69"/>
		<path id="kvg:s-s7" stroke="#EC407A" d="M45.02,61.42c0.25,0.69,0.29,1.74,0.01,2.27c-1.02,1.92-2.26,4.21-5.11,8.59"/>
		<path id="kvg:s-s8" stroke="#00ACC1" d="M15.75,88.5c0.94,0.94,2.28,1.19,3.75,0.5c7.25-3.38,11.75-5.25,24.75-11.25"/>
	</g>
	<g id="kvg:091e3-g2">
		<g id="kvg:091e3-g3">
			<g id="kvg:091e3-g4">
				<path id="kvg:s-s9" stroke="#795548" d="M64.27,15.5c0.48,1,0.21,1.98-0.06,3.04c-1.95,7.59-6.33,18.34-12.45,29.06"/>
			</g>
			<path id="kvg:s-s10" stroke="#546E7A" d="M61.69,33.46c1.94,0.41,3.75,0.44,5.04,0.23c4.9-0.8,14.54-2.37,19.29-2.97c4.36-0.56,7.23,0.12,7,5.19C92.38,49.5,88.88,71.38,83.88,87c-3.89,12.16-7.75,6.88-11.03,2.16"/>
		</g>
		<g id="kvg:091e3-g5">
			<path id="kvg:s-s11" stroke="#E53935" d="M58.79,52.17c4.05,2.83,10.45,11.65,11.46,16.06"/>
		</g>
	</g>
</g>
</g>
<g id="kvg:StrokeNumbers_091e3" style="font-size:18;font-weight:bold;stroke:#fff;stroke-width:1.5;paint-order:stroke">
	<text transform="matrix(1 0 0 1 24.75 17.50)" fill="#E53935">1</text>
	<text transform="matrix(1 0 0 1 40.50 21.50)" fill="#FB8C00">2</text>
	<text transform="matrix(1 0 0 1 28.50 37.55)" fill="#FDD835">3</text>
	<text transform="matrix(1 0 0 1 13.50 53.50)" fill="#43A047">4</text>
	<text transform="matrix(1 0 0 1 25.50 49.50)" fill="#1E88E5">5</text>
	<text transform="matrix(1 0 0 1 11.25 67.50)" fill="#8E24AA">6</text>
	<text transform="matrix(1 0 0 1 37.50 62.50)" fill="#EC407A">7</text>
	<text transform="matrix(1 0 0 1 7.50 91.50)" fill="#00ACC1">8</text>
	<text transform="matrix(1 0 0 1 55.50 15.50)" fill="#795548">9</text>
	<text transform="matrix(1 0 0 1 66.50 30.05)" fill="#546E7A">10</text>
	<text transform="matrix(1 0 0 1 51.50 59.50)" fill="#E53935">11</text>
</g>
</svg>
