<?xml version="1.0" encoding="UTF-8"?>
<svg xmlns="http://www.w3.org/2000/svg" width="109" height="109" viewBox="0 0 109 109">
<g id="kvg:StrokePaths_0925b" style="fill:none;stroke:#000000;stroke-width:3;stroke-linecap:round;stroke-linejoin:round;">
<g id="kvg:0925b">
	<g id="kvg:0925b-g1">
		<path id="kvg:s-s1" stroke="#E53935" d="M32,17.74c0,1.01-0.28,2-0.65,2.91C28.5,27.75,21.62,40,12.97,49.13"/>
		<path id="kvg:s-s2" stroke="#FB8C00" d="M34.25,24.5c3.65,1.7,9.47,7.19,12,11"/>
		<path id="kvg:s-s3" stroke="#FDD835" d="M21,43.5c1.1,0,2.17,0.13,3.26-0.03c4.26-0.62,9.27-1.56,14.25-2.4c1.34-0.23,2.39-0.32,3.74-0.32"/>
		<path id="kvg:s-s4" stroke="#43A047" d="M15.09,57.56c1.91,0.56,4.1,0.35,5.8,0.13c5.93-0.75,15.76-2.16,21.01-3.2c1.45-0.29,2.97-0.5,4.62-0.27"/>
		<path id="kvg:s-s5" stroke="#1E88E5" d="M31.2,44.69c0.74,0.74,1.24,1.68,1.24,3.14c0,4.35,0.06,25.54,0.06,34.98"/>
		<path id="kvg:s-s6" stroke="#8E24AA" d="M18.62,68.25c2.9,4.01,4.32,8.36,4.92,10.7"/>
		<path id="kvg:s-s7" stroke="#EC407A" d="M45.79,62.3c0.23,0.71,0.03,1.8-0.24,2.35C44.38,67,42.88,69,39.92,73.28"/>
		<path id="kvg:s-s8" stroke="#00ACC1" d="M16.25,89.25c1,1,2.44,0.96,3.5,0.5c5.25-2.25,9.5-4.5,24-11"/>
	</g>
	<g id="kvg:0925b-g2">
		<g id="kvg:0925b-g3">
			<g id="kvg:0925b-g4">
				<path id="kvg:s-s9" stroke="#795548" d="M61.3,26.42c0.28,1.11,0.07,2.35-0.33,3.37C58.62,35.75,55,44.12,50.93,50.41"/>
			</g>
			<g id="kvg:0925b-g5">
				<path id="kvg:s-s10" stroke="#546E7A" d="M69,19.59c5,0.53,12.88,15.51,18.63,22.27c2.13,2.5,4.96,4.76,7.95,6.15"/>
			</g>
		</g>
		<g id="kvg:0925b-g6">
			<path id="kvg:s-s11" stroke="#E53935" d="M55,63.06c0.74,1.03,1.15,2.17,1.23,3.44c0.91,4.77,2.04,13.25,2.74,20.49c0.17,1.75,0.33,3.44,0.47,4.98"/>
			<path id="kvg:s-s12" stroke="#FB8C00" d="M56.84,64.25c10.14-1.82,20.42-2.97,25.42-3.57c3.2-0.38,5.44,0.74,4.89,4.21c-0.94,5.99-2.28,13.48-3.74,20.19"/>
			<path id="kvg:s-s13" stroke="#FDD835" d="M60.52,88.95c7.01-0.79,13.63-1.36,20.75-1.98c1.49-0.13,2.98-0.25,4.44-0.36"/>
		</g>
	</g>
</g>
</g>
<g id="kvg:StrokeNumbers_0925b" style="font-size:18;font-weight:bold;stroke:#fff;stroke-width:1.5;paint-order:stroke">
	<text transform="matrix(1 0 0 1 24.75 18.13)" fill="#E53935">1</text>
	<text transform="matrix(1 0 0 1 39.50 24.50)" fill="#FB8C00">2</text>
	<text transform="matrix(1 0 0 1 28.50 39.50)" fill="#FDD835">3</text>
	<text transform="matrix(1 0 0 1 8.00 60.25)" fill="#43A047">4</text>
	<text transform="matrix(1 0 0 1 24.25 51.25)" fill="#1E88E5">5</text>
	<text transform="matrix(1 0 0 1 11.25 70.63)" fill="#8E24AA">6</text>
	<text transform="matrix(1 0 0 1 37.50 64.63)" fill="#EC407A">7</text>
	<text transform="matrix(1 0 0 1 8.25 91.63)" fill="#00ACC1">8</text>
	<text transform="matrix(1 0 0 1 51.75 25.63)" fill="#795548">9</text>
	<text transform="matrix(1 0 0 1 75.50 22.63)" fill="#546E7A">10</text>
	<text transform="matrix(1 0 0 1 47.50 73.50)" fill="#E53935">11</text>
	<text transform="matrix(1 0 0 1 57.50 60.13)" fill="#FB8C00">12</text>
	<text transform="matrix(1 0 0 1 62.50 85.50)" fill="#FDD835">13</text>
</g>
</svg>
