<?xml version="1.0" encoding="UTF-8"?>
<svg xmlns="http://www.w3.org/2000/svg" width="109" height="109" viewBox="0 0 109 109">
<g id="kvg:StrokePaths_092fc" style="fill:none;stroke:#000000;stroke-width:3;stroke-linecap:round;stroke-linejoin:round;">
<g id="kvg:092fc">
	<g id="kvg:092fc-g1">
		<path id="kvg:s-s1" stroke="#E53935" d="M32,14.99c0,0.73,0.05,1.32-0.14,2.2C30.5,23.5,20.46,36.59,12.22,43.38"/>
		<path id="kvg:s-s2" stroke="#FB8C00" d="M33.75,22c4.34,1.25,9.89,4.59,12,7.75"/>
		<path id="kvg:s-s3" stroke="#FDD835" d="M20.5,42.25c1.5,0,2.18,0.09,2.67,0.06c4.33-0.31,10.21-1.93,15.19-2.75c0.73-0.12,1.65-0.3,2.9-0.3"/>
		<path id="kvg:s-s4" stroke="#43A047" d="M14.59,56.06c1.79,0.56,3.6,0.41,5.04,0.21c5.9-0.82,15.62-3.14,22.16-4.2c0.74-0.12,2.34-0.2,3.49-0.1"/>
		<path id="kvg:s-s5" stroke="#1E88E5" d="M30.2,44.19c0.99,0.99,1.24,2.43,1.24,3.89c0,4.35,0.06,28.29,0.06,34.98"/>
		<path id="kvg:s-s6" stroke="#8E24AA" d="M17.14,69.51c3.34,3.35,4.97,6.98,5.65,8.94"/>
		<path id="kvg:s-s7" stroke="#EC407A" d="M43.98,61.8c0.28,0.71,0.12,1.82-0.18,2.35c-1.42,2.48-2.24,4.11-5.38,8.63"/>
		<path id="kvg:s-s8" stroke="#00ACC1" d="M17.25,90.91c0.75,1.34,2.72,0.6,3.72,0.08c1.16-0.6,9.45-6.35,21.53-13.49"/>
	</g>
	<g id="kvg:092fc-g2">
		<g id="kvg:092fc-g3">
			<path id="kvg:s-s9" stroke="#795548" d="M51.19,19.89c1.02,1.02,1.65,2.73,1.65,5.28c0,5.02,0.09,42.04,0.13,58.58c0.01,4.29,0.02,7.26,0.02,8"/>
			<path id="kvg:s-s10" stroke="#546E7A" d="M53.58,22.04c8.04-1.54,25.67-4.42,34.86-5.55c3.79-0.47,5.62,1.01,5.62,4.13c0,2.63,0.05,61.86,0.05,67.38c0,10.87-3.87,4.75-6.57,2.19"/>
		</g>
		<path id="kvg:s-s11" stroke="#E53935" d="M60.38,28.75c2.37,1.9,6.12,7.79,6.71,10.74"/>
		<path id="kvg:s-s12" stroke="#FB8C00" d="M81.33,26.69c0,0.81-0.05,1.79-0.4,2.75c-1.31,3.58-3.56,7.6-6.62,12.24"/>
		<path id="kvg:s-s13" stroke="#FDD835" d="M56.72,45.64c1.78,0.61,4.19,0.56,5.48,0.35c5.88-0.96,17.33-2.87,22.65-3.44c1.4-0.15,2.9-0.3,4.39-0.04"/>
		<g id="kvg:092fc-g4">
			<path id="kvg:s-s14" stroke="#43A047" d="M71.26,46c0.3,0.28,0.93,2.08,0.99,2.63c0.06,0.55-0.04,19.15-0.1,22.62"/>
			<path id="kvg:s-s15" stroke="#1E88E5" d="M61.84,54.85c0.3,0.35,0.64,1.85,0.6,2.56c-0.2,3.14-1.07,8.53-1.87,14.93c-0.2,1.57,0.43,2.66,1.8,2.16c3.16-1.15,17.47-4.52,21.21-4.72"/>
			<path id="kvg:s-s16" stroke="#8E24AA" d="M83.02,51.29c0.66,0.66,1,1.83,1,3.08c0,4.31-0.01,8.27-0.1,13.88c-0.03,2.04-0.07,4.33-0.12,7"/>
		</g>
	</g>
</g>
</g>
<g id="kvg:StrokeNumbers_092fc" style="font-size:18;fill:#E53935;font-weight:bold;stroke:#fff;stroke-width:1.5;paint-order:stroke">
	<text transform="matrix(1 0 0 1 24.50 16.50)" fill="#E53935">1</text>
	<text transform="matrix(1 0 0 1 38.50 21.13)" fill="#FB8C00">2</text>
	<text transform="matrix(1 0 0 1 26.25 39.05)" fill="#FDD835">3</text>
	<text transform="matrix(1 0 0 1 6.75 58.48)" fill="#43A047">4</text>
	<text transform="matrix(1 0 0 1 22.50 51.50)" fill="#1E88E5">5</text>
	<text transform="matrix(1 0 0 1 9.50 70.50)" fill="#8E24AA">6</text>
	<text transform="matrix(1 0 0 1 36.75 63.50)" fill="#EC407A">7</text>
	<text transform="matrix(1 0 0 1 8.50 94.50)" fill="#00ACC1">8</text>
	<text transform="matrix(1 0 0 1 45.75 39.13)" fill="#795548">9</text>
	<text transform="matrix(1 0 0 1 52.50 18.50)" fill="#546E7A">10</text>
	<text transform="matrix(1 0 0 1 62.25 28.55)" fill="#E53935">11</text>
	<text transform="matrix(1 0 0 1 71.50 26.50)" fill="#FB8C00">12</text>
	<text transform="matrix(1 0 0 1 56.25 43.50)" fill="#FDD835">13</text>
	<text transform="matrix(1 0 0 1 62.50 52.50)" fill="#43A047">14</text>
	<text transform="matrix(1 0 0 1 56.25 53.75)" fill="#1E88E5">15</text>
	<text transform="matrix(1 0 0 1 75.50 50.68)" fill="#8E24AA">16</text>
</g>
</svg>
