<?xml version="1.0" encoding="UTF-8"?>
<svg xmlns="http://www.w3.org/2000/svg" width="109" height="109" viewBox="0 0 109 109">
<g id="kvg:StrokePaths_09320" style="fill:none;stroke:#000000;stroke-width:3;stroke-linecap:round;stroke-linejoin:round;">
<g id="kvg:09320">
	<g id="kvg:09320-g1">
		<path id="kvg:s-s1" stroke="#E53935" d="M30.25,14.74c0,0.72,0.05,1.29-0.14,2.15C29.14,21.38,19.96,36.36,12.1,43"/>
		<path id="kvg:s-s2" stroke="#FB8C00" d="M32.89,20.21c4.36,2.16,8.61,5.16,11.61,10.04"/>
		<path id="kvg:s-s3" stroke="#FDD835" d="M19.75,40.5c1.38,0.25,2.39,0.02,3.63-0.07c4.12-0.3,8.87-0.93,14.5-1.8c0.96-0.15,1.89-0.13,2.87-0.13"/>
		<path id="kvg:s-s4" stroke="#43A047" d="M15.34,55.56c2.04,0.56,3.8,0.38,5.41,0.2c5.75-0.63,14.46-1.88,21.28-2.69c0.74-0.09,2.38-0.38,3.49-0.1"/>
		<path id="kvg:s-s5" stroke="#1E88E5" d="M29.7,43.19c0.93,0.93,0.99,2.18,0.99,3.64c0,4.35,0.06,28.67,0.06,37.73"/>
		<path id="kvg:s-s6" stroke="#8E24AA" d="M16.64,66.26c3.04,4.57,4.53,9.52,5.15,12.19"/>
		<path id="kvg:s-s7" stroke="#EC407A" d="M43.54,62.05c0.23,0.71,0.25,1.54,0.01,2.1c-0.8,1.86-2.05,4.11-4.63,8.63"/>
		<path id="kvg:s-s8" stroke="#00ACC1" d="M15.5,90c1.06,1.06,2.19,1.42,3.75,0.75c6.12-2.62,14.88-6.62,23.5-10.5"/>
	</g>
	<g id="kvg:09320-g2">
		<g id="kvg:09320-g3">
			<path id="kvg:s-s9" stroke="#795548" d="M70.41,14.42c1.15,1.15,1.41,2.21,1.41,3.9c0,3.46-0.07,5.81-0.07,10.31"/>
			<g id="kvg:09320-g4">
				<path id="kvg:s-s10" stroke="#546E7A" d="M55,30.38c0,3.1-2.59,11.61-3.77,13.68"/>
				<path id="kvg:s-s11" stroke="#E53935" d="M55.62,32.64C65,31,80.82,28.01,89.65,27.61c8.1-0.36,2.56,4.83,0.04,6.97"/>
			</g>
		</g>
		<g id="kvg:09320-g5">
			<path id="kvg:s-s12" stroke="#FB8C00" d="M57.32,47.96c2.07,0.42,4.07,0.33,6.17,0c4.97-0.78,18.71-2.9,22-2.9c2.84,0,1.83,0.12,4.11,0.12"/>
			<g id="kvg:09320-g6">
				<g id="kvg:09320-g7">
					<path id="kvg:s-s13" stroke="#FDD835" d="M72.16,49.2c1.01,1.01,1.21,2.42,1.21,4c0,6.55-0.04,25.17-0.04,31.12"/>
					<path id="kvg:s-s14" stroke="#43A047" d="M74.53,65.97c3.47-0.6,8.09-1.6,13.65-2.54c1.28-0.22,2.12-0.21,2.93,0"/>
				</g>
				<g id="kvg:09320-g8">
					<path id="kvg:s-s15" stroke="#1E88E5" d="M60.78,61.46c0.04,0.79-0.03,2.06-0.34,3.17c-2.07,7.37-8,20.06-16.63,29.04"/>
					<path id="kvg:s-s16" stroke="#8E24AA" d="M57.5,76.62c4.66,2.23,19.52,10.89,27.92,15.04c2.5,1.24,5.58,2.58,8.32,3.08"/>
				</g>
			</g>
		</g>
	</g>
</g>
</g>
<g id="kvg:StrokeNumbers_09320" style="font-size:18;font-weight:bold;stroke:#fff;stroke-width:1.5;paint-order:stroke">
	<text transform="matrix(1 0 0 1 23.50 16.50)" fill="#E53935">1</text>
	<text transform="matrix(1 0 0 1 37.50 20.50)" fill="#FB8C00">2</text>
	<text transform="matrix(1 0 0 1 26.50 37.50)" fill="#FDD835">3</text>
	<text transform="matrix(1 0 0 1 8.50 55.50)" fill="#43A047">4</text>
	<text transform="matrix(1 0 0 1 22.50 50.50)" fill="#1E88E5">5</text>
	<text transform="matrix(1 0 0 1 8.50 65.50)" fill="#8E24AA">6</text>
	<text transform="matrix(1 0 0 1 36.75 63.50)" fill="#EC407A">7</text>
	<text transform="matrix(1 0 0 1 6.75 93.13)" fill="#00ACC1">8</text>
	<text transform="matrix(1 0 0 1 61.50 15.50)" fill="#795548">9</text>
	<text transform="matrix(1 0 0 1 43.50 38.50)" fill="#546E7A">10</text>
	<text transform="matrix(1 0 0 1 57.50 28.63)" fill="#E53935">11</text>
	<text transform="matrix(1 0 0 1 57.50 45.05)" fill="#FB8C00">12</text>
	<text transform="matrix(1 0 0 1 62.25 57.50)" fill="#FDD835">13</text>
	<text transform="matrix(1 0 0 1 76.50 61.63)" fill="#43A047">14</text>
	<text transform="matrix(1 0 0 1 49.50 62.50)" fill="#1E88E5">15</text>
	<text transform="matrix(1 0 0 1 61.50 77.50)" fill="#8E24AA">16</text>
</g>
</svg>
