<?xml version="1.0" encoding="UTF-8"?>
<svg xmlns="http://www.w3.org/2000/svg" width="109" height="109" viewBox="0 0 109 109">
<g id="kvg:StrokePaths_09396" style="fill:none;stroke:#000000;stroke-width:3;stroke-linecap:round;stroke-linejoin:round;">
<g id="kvg:09396">
	<g id="kvg:09396-g1">
		<path id="kvg:s-s1" stroke="#E53935" d="M34.25,16.49c0,1.15-0.08,2.15-0.51,3.23c-2.16,5.43-11.8,18.75-19.77,24.9"/>
		<path id="kvg:s-s2" stroke="#FB8C00" d="M36.5,22.5c4.63,1.9,11.5,6.96,13.75,11.75"/>
		<path id="kvg:s-s3" stroke="#FDD835" d="M21,42.76c1.79,0,3.46,0.11,5.25-0.09c4.5-0.51,8.98-1.7,14.64-2.88c1.61-0.34,3.24-0.32,4.87-0.32"/>
		<path id="kvg:s-s4" stroke="#43A047" d="M15.84,57.06c2.29,0.56,5.04,0.23,6.8-0.03c5.77-0.88,14.94-2.86,21.75-4.23c1.55-0.31,3.08-0.73,4.64-0.33"/>
		<path id="kvg:s-s5" stroke="#1E88E5" d="M32.7,44.19c0.87,0.87,1.24,2.06,1.24,3.89c0,4.35,0.06,25.67,0.06,34.73"/>
		<path id="kvg:s-s6" stroke="#8E24AA" d="M18.14,66.76c4.67,4.57,6.95,9.52,7.9,12.19"/>
		<path id="kvg:s-s7" stroke="#EC407A" d="M47.42,61.3c0.33,0.84,0.23,1.89-0.13,2.51c-1.79,3.06-3.18,5.13-6.87,10.47"/>
		<path id="kvg:s-s8" stroke="#00ACC1" d="M17,90.75c1,0.75,2,0.75,3.75,0c5.04-2.16,12.75-6.5,25-12.5"/>
	</g>
	<g id="kvg:09396-g2">
		<g id="kvg:09396-g3">
			<path id="kvg:s-s9" stroke="#795548" d="M72.21,12.87c0.9,0.9,1.26,2.56,1.26,3.99c0,11.14-0.01,19.07-0.01,21.76"/>
			<path id="kvg:s-s10" stroke="#546E7A" d="M54.02,20.41c3.21,2.22,8.29,9.13,9.09,12.58"/>
			<path id="kvg:s-s11" stroke="#E53935" d="M90.76,17.47c0.07,1.02,0.04,1.76-0.38,2.7c-1.75,3.89-3.81,7.4-8.63,12.52"/>
		</g>
		<g id="kvg:09396-g4">
			<g id="kvg:09396-g5">
				<path id="kvg:s-s12" stroke="#FB8C00" d="M57.86,38.86c0.89,0.89,1.42,2.25,1.42,3.39c0,0.89,0.02,18.05,0.07,27.74c0.01,2.79-0.1,6.26-0.1,6.39"/>
				<path id="kvg:s-s13" stroke="#FDD835" d="M60.08,40.35c2.33-0.12,17.98-2.06,23.81-2.7c2.95-0.32,4.94-0.01,4.93,3.35c-0.02,5.06,0.16,18.42,0.01,29.5c-0.03,2.24-0.05,4.39-0.04,6.36"/>
				<path id="kvg:s-s14" stroke="#43A047" d="M60.29,51.19c6.84-0.56,21.59-2.19,27.48-2.57"/>
				<path id="kvg:s-s15" stroke="#1E88E5" d="M60.51,62.71C67.5,62.12,79.75,61,87.7,60.5"/>
				<path id="kvg:s-s16" stroke="#8E24AA" d="M60.95,74.86c6.92-0.49,18.17-1.36,26.94-1.72"/>
			</g>
			<g id="kvg:09396-g6">
				<path id="kvg:s-s17" stroke="#EC407A" d="M63.63,79.9c0.37,1.1,0.01,2.19-0.75,3.31c-2.29,3.36-8.86,11.11-13.44,15.08"/>
				<path id="kvg:s-s18" stroke="#00ACC1" d="M81.12,81c5.78,4.03,12.62,11.34,14.19,14.86"/>
			</g>
		</g>
	</g>
</g>
</g>
<g id="kvg:StrokeNumbers_09396" style="font-size:18;font-weight:bold;stroke:#fff;stroke-width:1.5;paint-order:stroke">
	<text transform="matrix(1 0 0 1 27.75 18.13)" fill="#E53935">1</text>
	<text transform="matrix(1 0 0 1 40.50 21.50)" fill="#FB8C00">2</text>
	<text transform="matrix(1 0 0 1 28.50 39.13)" fill="#FDD835">3</text>
	<text transform="matrix(1 0 0 1 15.50 54.05)" fill="#43A047">4</text>
	<text transform="matrix(1 0 0 1 25.50 51.50)" fill="#1E88E5">5</text>
	<text transform="matrix(1 0 0 1 11.25 69.13)" fill="#8E24AA">6</text>
	<text transform="matrix(1 0 0 1 39.75 63.50)" fill="#EC407A">7</text>
	<text transform="matrix(1 0 0 1 10.50 95.50)" fill="#00ACC1">8</text>
	<text transform="matrix(1 0 0 1 63.50 13.50)" fill="#795548">9</text>
	<text transform="matrix(1 0 0 1 49.50 17.50)" fill="#546E7A">10</text>
	<text transform="matrix(1 0 0 1 80.50 16.50)" fill="#E53935">11</text>
	<text transform="matrix(1 0 0 1 49.50 46.50)" fill="#FB8C00">12</text>
	<text transform="matrix(1 0 0 1 63.75 37.63)" fill="#FDD835">13</text>
	<text transform="matrix(1 0 0 1 63.75 48.05)" fill="#43A047">14</text>
	<text transform="matrix(1 0 0 1 63.75 59.98)" fill="#1E88E5">15</text>
	<text transform="matrix(1 0 0 1 63.75 71.90)" fill="#8E24AA">16</text>
	<text transform="matrix(1 0 0 1 51.75 85.33)" fill="#EC407A">17</text>
	<text transform="matrix(1 0 0 1 72.75 85.63)" fill="#00ACC1">18</text>
</g>
</svg>
