<?xml version="1.0" encoding="UTF-8"?>
<svg xmlns="http://www.w3.org/2000/svg" width="109" height="109" viewBox="0 0 109 109">
<g id="kvg:StrokePaths_09451" style="fill:none;stroke:#000000;stroke-width:3;stroke-linecap:round;stroke-linejoin:round;">
<g id="kvg:09451">
	<g id="kvg:09451-g1">
		<path id="kvg:s-s1" stroke="#E53935" d="M30.75,17.24c0,0.78-0.09,1.68-0.4,2.58c-1.97,5.8-9.47,20.17-17.88,29.05"/>
		<path id="kvg:s-s2" stroke="#FB8C00" d="M31.39,24.46c4.02,1.74,9.15,6.39,11.11,10.79"/>
		<path id="kvg:s-s3" stroke="#FDD835" d="M20,44.75c1.14,0,2.24,0.12,3.37-0.03c4.29-0.57,8.98-1.75,13.49-2.54c0.99-0.17,1.88-0.18,2.89-0.18"/>
		<path id="kvg:s-s4" stroke="#43A047" d="M14.84,59.81c1.91,0.31,3.48,0.16,4.91,0.01c5.2-0.56,11.38-1.82,18.29-3.25c1.35-0.28,2.59-0.33,3.74-0.1"/>
		<path id="kvg:s-s5" stroke="#1E88E5" d="M28.7,46.69c1.24,0.78,1.24,2.52,1.24,3.14c0,4.35-0.06,30.23-0.06,36.42"/>
		<path id="kvg:s-s6" stroke="#8E24AA" d="M16.27,70.89c3.86,3.96,5.74,8.25,6.52,10.56"/>
		<path id="kvg:s-s7" stroke="#EC407A" d="M41.77,64.8c0.26,0.74,0.27,1.86,0.01,2.44c-1.21,2.72-2.07,4.54-5.03,9.26"/>
		<path id="kvg:s-s8" stroke="#00ACC1" d="M15,92c1,0.88,2.39,1.03,4,0.25c3.38-1.62,9.75-4.5,22.75-10.5"/>
	</g>
	<g id="kvg:09451-g2">
		<g id="kvg:09451-g3">
			<g id="kvg:09451-g4">
				<path id="kvg:s-s9" stroke="#795548" d="M47.46,21.76c0.86,0.57,1.15,1.74,1.15,3.24c0,5.07-0.01,20.61-0.05,29c-0.01,2.88-0.03,4.97-0.04,5.62"/>
				<path id="kvg:s-s10" stroke="#546E7A" d="M49.67,22.92c3.11-0.15,10.29-1.85,15.57-2.41c0.87-0.09,2.32-0.4,3.22-0.12"/>
				<path id="kvg:s-s11" stroke="#E53935" d="M58.17,23.02c0.6,0.5,0.97,1.13,0.97,2.17c0.01,2.4,0.03,4.77-0.02,6.81"/>
				<path id="kvg:s-s12" stroke="#FB8C00" d="M50.05,34.39c4.8-0.75,10.8-1.77,14.72-2.35c2.58-0.38,3.72-0.09,3.13,2.72c-0.46,2.2-1.51,5.34-2.17,8.39"/>
				<path id="kvg:s-s13" stroke="#FDD835" d="M49.83,45.87c1.77-0.27,10.02-1.4,14.72-2.01c1.41-0.18,2.08-0.24,2.99-0.11"/>
				<path id="kvg:s-s14" stroke="#43A047" d="M58.42,46.08c0.56,0.56,0.72,1.5,0.72,2.32c0,2.69,0.04,5.34-0.01,7.35"/>
				<path id="kvg:s-s15" stroke="#1E88E5" d="M49.55,58.37c3.62-0.52,9.86-1.27,15.08-1.76c1.5-0.14,2.8-0.25,4.31,0.04"/>
			</g>
			<g id="kvg:09451-g5">
				<g id="kvg:09451-g6">
					<path id="kvg:s-s16" stroke="#8E24AA" d="M80.64,18.25c0.03,0.6,0.2,1.6-0.06,2.4c-1.56,4.8-4.15,11.73-7.74,18.53"/>
					<path id="kvg:s-s17" stroke="#EC407A" d="M79.37,32.18c1,0.2,1.92,0.15,2.58-0.01c3.29-0.79,5.36-1.21,9.64-2.32c1.11-0.29,2.15-0.22,2.71,0.02"/>
				</g>
				<path id="kvg:s-s18" stroke="#00ACC1" d="M74.38,49.65c1.62,0.23,2.79,0.27,4.24,0.13c3.97-0.4,7.95-1,12.24-1.55c0.98-0.26,2.15-0.33,3.05-0.03"/>
			</g>
		</g>
		<g id="kvg:09451-g7">
			<path id="kvg:s-s19" stroke="#795548" d="M51.2,70c0.96,0.96,1.05,1.88,1.21,2.63c0.82,3.88,1.3,11.47,2.23,18.21"/>
			<path id="kvg:s-s20" stroke="#546E7A" d="M53.02,71.21c7.18-1,27.4-3.37,33.6-4.02c3.31-0.35,4.33,0.97,3.73,4.21c-0.74,4.02-2.21,10.65-3.47,17.4"/>
			<path id="kvg:s-s21" stroke="#E53935" d="M62.75,71.12c0.67,0.78,0.74,1.5,0.85,2.74c0.65,7.26,0.78,9.88,1.44,16.02"/>
			<path id="kvg:s-s22" stroke="#FB8C00" d="M75.37,70.34c0.35,0.46,0.7,1.26,0.64,1.87c-0.57,6.08-0.59,9.02-1.28,16.8"/>
			<path id="kvg:s-s23" stroke="#FDD835" d="M42.48,92.14c3.02,0.73,6.13,0.42,8.9,0.14C64,91,77.28,90.03,92,89.33c2.66-0.12,5.76-0.05,8.38,0.64"/>
		</g>
	</g>
</g>
</g>
<g id="kvg:StrokeNumbers_09451" style="font-size:18;font-weight:bold;stroke:#fff;stroke-width:1.5;paint-order:stroke">
	<text transform="matrix(1 0 0 1 21.75 19.63)" fill="#E53935">1</text>
	<text transform="matrix(1 0 0 1 36.75 24.13)" fill="#FB8C00">2</text>
	<text transform="matrix(1 0 0 1 26.25 42.05)" fill="#FDD835">3</text>
	<text transform="matrix(1 0 0 1 12.75 57.48)" fill="#43A047">4</text>
	<text transform="matrix(1 0 0 1 22.25 52.40)" fill="#1E88E5">5</text>
	<text transform="matrix(1 0 0 1 9.75 70.33)" fill="#8E24AA">6</text>
	<text transform="matrix(1 0 0 1 34.50 67.25)" fill="#EC407A">7</text>
	<text transform="matrix(1 0 0 1 6.75 94.18)" fill="#00ACC1">8</text>
	<text transform="matrix(1 0 0 1 42.75 27.50)" fill="#795548">9</text>
	<text transform="matrix(1 0 0 1 51.75 19.63)" fill="#546E7A">10</text>
	<text transform="matrix(1 0 0 1 62.25 28.50)" fill="#E53935">11</text>
	<text transform="matrix(1 0 0 1 50.50 31.63)" fill="#FB8C00">12</text>
	<text transform="matrix(1 0 0 1 50.50 42.50)" fill="#FDD835">13</text>
	<text transform="matrix(1 0 0 1 61.50 51.50)" fill="#43A047">14</text>
	<text transform="matrix(1 0 0 1 50.25 55.40)" fill="#1E88E5">15</text>
	<text transform="matrix(1 0 0 1 70.50 16.63)" fill="#8E24AA">16</text>
	<text transform="matrix(1 0 0 1 82.50 28.55)" fill="#EC407A">17</text>
	<text transform="matrix(1 0 0 1 73.50 46.48)" fill="#00ACC1">18</text>
	<text transform="matrix(1 0 0 1 42.75 76.50)" fill="#795548">19</text>
	<text transform="matrix(1 0 0 1 53.50 68.50)" fill="#546E7A">20</text>
	<text transform="matrix(1 0 0 1 56.50 78.50)" fill="#E53935">21</text>
	<text transform="matrix(1 0 0 1 66.75 77.50)" fill="#FB8C00">22</text>
	<text transform="matrix(1 0 0 1 33.50 95.50)" fill="#FDD835">23</text>
</g>
</svg>
