<?xml version="1.0" encoding="UTF-8"?>
<svg xmlns="http://www.w3.org/2000/svg" width="109" height="109" viewBox="0 0 109 109">
<g id="kvg:StrokePaths_095d8" style="fill:none;stroke:#000000;stroke-width:3;stroke-linecap:round;stroke-linejoin:round;">
<g id="kvg:095d8">
	<g id="kvg:095d8-g1">
		<g id="kvg:095d8-g2">
			<path id="kvg:s-s1" stroke="#E53935" d="M19.14,16.29c1.03,1.03,1.18,2.21,1.18,3.65c0,0.62,0.02,48.76,0.02,67.94c0,4.61,0,7.55-0.01,7.75"/>
			<path id="kvg:s-s2" stroke="#FB8C00" d="M21.27,17.58c2.44-0.1,15.86-2.55,18.08-2.67c1.85-0.1,2.65,1.2,2.65,2.46c0,1.15,0.09,11.12,0.09,16.62c0,0.6,0.03,3.58,0.03,4.19"/>
			<path id="kvg:s-s3" stroke="#FDD835" d="M21.45,27.64c5.99-0.59,12.67-1.39,19.88-2.01"/>
			<path id="kvg:s-s4" stroke="#43A047" d="M21.77,37.98c4.73-0.6,13.48-1.48,18.81-1.81"/>
		</g>
		<g id="kvg:095d8-g3">
			<path id="kvg:s-s5" stroke="#1E88E5" d="M64.94,14.01c0.84,0.84,0.88,1.86,0.88,2.98c0,0.55-0.02,10.53-0.04,16.26c0,1.97,0.04,3.38,0.04,4.52"/>
			<path id="kvg:s-s6" stroke="#8E24AA" d="M66.55,14.91c2.49-0.11,19.21-1.79,21.49-1.92c2.36-0.13,2.97,1.28,2.97,3.26c0,20.74,0,61.66,0,75.44c0,9.05-4.98,1.53-7.15-0.64"/>
			<path id="kvg:s-s7" stroke="#EC407A" d="M66.99,24.72c5.26-0.34,19.09-1.49,22.9-1.49"/>
			<path id="kvg:s-s8" stroke="#00ACC1" d="M67.05,35.51c6.32-0.26,15.2-1.26,22.8-1.31"/>
		</g>
	</g>
	<g id="kvg:095d8-g4">
		<g id="kvg:095d8-g5">
			<path id="kvg:s-s9" stroke="#795548" d="M26.88,47.26c1.12,0.62,2.38,0.76,4.54,0.46c5.04-0.68,8.44-1.16,16.09-2c1.33-0.15,2.73-0.31,4.05,0.06"/>
		</g>
		<g id="kvg:095d8-g6">
			<g id="kvg:095d8-g7">
				<path id="kvg:s-s10" stroke="#546E7A" d="M29.84,54.95c0.26,0.22,0.58,0.89,0.63,1.18c0.26,1.59,1.11,4.83,1.73,8.13c0.2,1.08,0.4,2.17,0.6,3.2"/>
				<path id="kvg:s-s11" stroke="#E53935" d="M30.83,55.81c3.31-0.36,10.76-1.45,14.67-1.81c2.48-0.23,3.66,0.14,2.96,2.81c-0.51,1.93-1.11,4.19-2.22,7.71"/>
				<path id="kvg:s-s12" stroke="#FB8C00" d="M33.75,66.38c2.77-0.28,6.68-1.01,10.51-1.26c1.35-0.09,2.34-0.15,3.37-0.17"/>
			</g>
			<path id="kvg:s-s13" stroke="#FDD835" d="M33.28,72.98c1.07,1.21,2.77,5.54,3.04,7.43"/>
			<path id="kvg:s-s14" stroke="#43A047" d="M46.91,70.76c0.01,0.24,0.06,0.63-0.02,0.97c-0.64,2.89-1.64,5.64-3.52,9.27"/>
			<path id="kvg:s-s15" stroke="#1E88E5" d="M29.47,86.2c0.78,0.8,1.92,1.09,3.14,0.64c6.27-2.34,10.27-3.96,17.31-6.54"/>
		</g>
	</g>
	<g id="kvg:095d8-g8">
		<path id="kvg:s-s16" stroke="#8E24AA" d="M56.39,54.07c1.49,0.3,3.47,0.27,5.01,0.04c5.41-0.82,10.7-1.89,16.73-2.37c1.58-0.12,2.97-0.31,4.49,0.15"/>
		<path id="kvg:s-s17" stroke="#EC407A" d="M72.27,41.21c1.01,1.01,1.27,2.17,1.27,3.63c0,12.5-0.04,36-0.04,39.04c0,7.37-4.6,1.09-5.95,0.15"/>
		<path id="kvg:s-s18" stroke="#00ACC1" d="M58.88,64.75c2.1,1.63,5.42,6.69,5.94,9.22"/>
	</g>
</g>
</g>
<g id="kvg:StrokeNumbers_095d8" style="font-size:18;font-weight:bold;stroke:#fff;stroke-width:1.5;paint-order:stroke">
	<text transform="matrix(1 0 0 1 13.50 24.50)" fill="#E53935">1</text>
	<text transform="matrix(1 0 0 1 21.75 14.50)" fill="#FB8C00">2</text>
	<text transform="matrix(1 0 0 1 24.50 25.55)" fill="#FDD835">3</text>
	<text transform="matrix(1 0 0 1 24.35 35.50)" fill="#43A047">4</text>
	<text transform="matrix(1 0 0 1 58.50 21.50)" fill="#1E88E5">5</text>
	<text transform="matrix(1 0 0 1 66.75 12.13)" fill="#8E24AA">6</text>
	<text transform="matrix(1 0 0 1 69.75 22.50)" fill="#EC407A">7</text>
	<text transform="matrix(1 0 0 1 69.75 33.50)" fill="#00ACC1">8</text>
	<text transform="matrix(1 0 0 1 26.50 45.50)" fill="#795548">9</text>
	<text transform="matrix(1 0 0 1 22.50 62.50)" fill="#546E7A">10</text>
	<text transform="matrix(1 0 0 1 32.25 54.50)" fill="#E53935">11</text>
	<text transform="matrix(1 0 0 1 35.50 63.50)" fill="#FB8C00">12</text>
	<text transform="matrix(1 0 0 1 25.50 74.50)" fill="#FDD835">13</text>
	<text transform="matrix(1 0 0 1 36.50 72.50)" fill="#43A047">14</text>
	<text transform="matrix(1 0 0 1 23.50 83.50)" fill="#1E88E5">15</text>
	<text transform="matrix(1 0 0 1 54.50 51.13)" fill="#8E24AA">16</text>
	<text transform="matrix(1 0 0 1 62.50 46.50)" fill="#EC407A">17</text>
	<text transform="matrix(1 0 0 1 58.50 64.63)" fill="#00ACC1">18</text>
</g>
</svg>
