<?xml version="1.0" encoding="UTF-8"?>
<svg xmlns="http://www.w3.org/2000/svg" width="109" height="109" viewBox="0 0 109 109">
<g id="kvg:StrokePaths_0961c" style="fill:none;stroke:#000000;stroke-width:3;stroke-linecap:round;stroke-linejoin:round;">
<g id="kvg:0961c">
	<g id="kvg:0961c-g1">
		<g id="kvg:0961c-g2">
			<path id="kvg:s-s1" stroke="#E53935" d="M54.78,9.64c0.02,0.25,0.04,0.65-0.04,1.02c-0.45,2.15-3.29,7.25-6.86,10.14"/>
		</g>
		<path id="kvg:s-s2" stroke="#FB8C00" d="M31.54,20.75C32.25,22,32.28,23,32.5,24c0.22,1,0,30.75-0.22,37"/>
		<path id="kvg:s-s3" stroke="#FDD835" d="M33.89,23.09c7.33-1.16,38.67-4.19,42.45-4.58c1.38-0.14,2.21,1.44,2.02,2.29c-0.82,3.48-1.75,5.99-3.51,11.01"/>
		<path id="kvg:s-s4" stroke="#43A047" d="M33.05,35.54c11.95-1.21,39.04-3.36,44.68-3.8"/>
		<path id="kvg:s-s5" stroke="#1E88E5" d="M32.98,44.82c11.02-1.07,39.41-3.67,43.68-4.14c1.56-0.17,2.5,1.7,2.28,2.7c-0.92,4.12-2.44,7.37-3.96,11.1"/>
		<path id="kvg:s-s6" stroke="#8E24AA" d="M32.92,58.21c5.02-0.52,38.75-2.69,45.11-3.22"/>
	</g>
	<g id="kvg:0961c-g3">
		<path id="kvg:s-s7" stroke="#EC407A" d="M12.88,72.48c1.52,0.54,4.31,0.68,5.82,0.54C38,71.25,76,68.5,89.31,68.29c2.53-0.04,4.05,0.26,5.31,0.53"/>
		<path id="kvg:s-s8" stroke="#00ACC1" d="M51.81,57.88c0.76,0.6,2.36,4.52,2.51,5.73c0.15,1.21-0.1,28.98-0.25,36.52"/>
	</g>
</g>
</g>
<g id="kvg:StrokeNumbers_0961c" style="font-size:18;fill:#E53935;font-weight:bold;stroke:#fff;stroke-width:1.5;paint-order:stroke">
	<text transform="matrix(1 0 0 1 45.50 9.63)" fill="#E53935">1</text>
	<text transform="matrix(1 0 0 1 23.50 28.50)" fill="#FB8C00">2</text>
	<text transform="matrix(1 0 0 1 34.50 19.50)" fill="#FDD835">3</text>
	<text transform="matrix(1 0 0 1 37.50 32.40)" fill="#43A047">4</text>
	<text transform="matrix(1 0 0 1 37.68 42.83)" fill="#1E88E5">5</text>
	<text transform="matrix(1 0 0 1 37.54 54.25)" fill="#8E24AA">6</text>
	<text transform="matrix(1 0 0 1 14.50 69.50)" fill="#EC407A">7</text>
	<text transform="matrix(1 0 0 1 45.75 65.10)" fill="#00ACC1">8</text>
</g>
</svg>
