<?xml version="1.0" encoding="UTF-8"?>
<svg xmlns="http://www.w3.org/2000/svg" width="109" height="109" viewBox="0 0 109 109">
<g id="kvg:StrokePaths_09650" style="fill:none;stroke:#000000;stroke-width:3;stroke-linecap:round;stroke-linejoin:round;">
<g id="kvg:09650">
	<g id="kvg:09650-g1">
		<path id="kvg:s-s1" stroke="#E53935" d="M15.25,17.5c0.9,0.22,1.92,0.48,3,0.33c6.5-0.95,15.35-2.8,17.92-3.66c3-1,5.5,1.5,4.17,3.83C39,20.33,31.83,33.17,29.5,36.5"/>
		<path id="kvg:s-s2" stroke="#FB8C00" d="M29.5,36.5c13,11.25,12.38,32.25,1.17,26"/>
		<path id="kvg:s-s3" stroke="#FDD835" d="M17.87,18.5c0.5,0.5,0.96,1.25,0.96,2c0,0.88,0.02,49.67,0.03,68.25c0,2.95,0,5.14,0,6.25"/>
	</g>
	<g id="kvg:09650-g2">
		<path id="kvg:s-s4" stroke="#43A047" d="M49.95,17.31c1.8,0.94,5.05,0.83,6.55,0.55c6.21-1.17,14.63-2.73,19.75-3.39c3.47-0.45,5.54,0.58,5.24,4.67c-0.39,5.4-1.71,14.77-2.64,21.48c-0.2,1.46-0.38,2.79-0.53,3.93"/>
		<path id="kvg:s-s5" stroke="#1E88E5" d="M52.79,32.3c9.71-1.92,18.96-3.3,26.33-3.81"/>
		<path id="kvg:s-s6" stroke="#8E24AA" d="M52.77,45.8C63,44,68.92,43.13,77.51,42.18"/>
		<path id="kvg:s-s7" stroke="#EC407A" d="M49.95,17.31c1.12,1.12,1.6,2.44,1.6,3.78c0,1.27,0.01,61.66,0.01,67.05c0,2.8,0.6,4.85,3.73,2.69s8.21-6.08,13.69-10.7"/>
		<path id="kvg:s-s8" stroke="#00ACC1" d="M88.63,43.88c0.13,1.13,0.02,2.21-1.03,3.21c-4.2,4.03-9.72,8.04-13.43,10.07"/>
		<path id="kvg:s-s9" stroke="#795548" d="M60.75,53c4.1,0,21.38,21.25,25.92,25.91c3.94,4.04,6.08,5.97,8.7,7.34"/>
	</g>
</g>
</g>
<g id="kvg:StrokeNumbers_09650" style="font-size:18;fill:#E53935;font-weight:bold;stroke:#fff;stroke-width:1.5;paint-order:stroke">
	<text transform="matrix(1 0 0 1 20.50 15.50)" fill="#E53935">1</text>
	<text transform="matrix(1 0 0 1 24.75 44.55)" fill="#FB8C00">2</text>
	<text transform="matrix(1 0 0 1 11.50 27.50)" fill="#FDD835">3</text>
	<text transform="matrix(1 0 0 1 53.50 14.50)" fill="#43A047">4</text>
	<text transform="matrix(1 0 0 1 56.50 28.33)" fill="#1E88E5">5</text>
	<text transform="matrix(1 0 0 1 56.50 41.75)" fill="#8E24AA">6</text>
	<text transform="matrix(1 0 0 1 44.25 26.68)" fill="#EC407A">7</text>
	<text transform="matrix(1 0 0 1 89.50 41.50)" fill="#00ACC1">8</text>
	<text transform="matrix(1 0 0 1 59.25 61.63)" fill="#795548">9</text>
</g>
</svg>
