<?xml version="1.0" encoding="UTF-8"?>
<svg xmlns="http://www.w3.org/2000/svg" width="109" height="109" viewBox="0 0 109 109">
<g id="kvg:StrokePaths_09699" style="fill:none;stroke:#000000;stroke-width:3;stroke-linecap:round;stroke-linejoin:round;">
<g id="kvg:09699">
	<g id="kvg:09699-g1">
		<path id="kvg:s-s1" stroke="#E53935" d="M13.25,15.75c0.75,0.19,1.8,0.86,3.01,0.73c6.74-0.73,13.82-1.87,16.23-2.78c2.97-1.12,5.93,1.12,4.61,3.74c-1.32,2.62-6.6,13.31-11.23,20.59"/>
		<path id="kvg:s-s2" stroke="#FB8C00" d="M26.37,39.04c13.18,9.36,13.13,40.21,1.65,32.57"/>
		<path id="kvg:s-s3" stroke="#FDD835" d="M15.87,16.98c0.83,0.83,0.72,2.53,0.94,3.65c0.21,1.12,0,70.1-0.22,77.12"/>
	</g>
	<g id="kvg:09699-g2">
		<g id="kvg:09699-g3">
			<path id="kvg:s-s4" stroke="#43A047" d="M65.58,10.12c0.09,0.32,1.25,1.68,1.34,3.72c0.43,9.82-0.27,24.7-0.27,28.05"/>
			<path id="kvg:s-s5" stroke="#1E88E5" d="M54.95,18.82c0.04,0.41,0.09,1.06-0.09,1.66c-1.07,3.49-7.21,11.16-15.61,15.85"/>
			<path id="kvg:s-s6" stroke="#8E24AA" d="M78.07,19.4c5.18,2.72,13.39,11.18,14.68,15.41"/>
		</g>
		<g id="kvg:09699-g4">
			<path id="kvg:s-s7" stroke="#EC407A" d="M48.74,43.9c0.27,0.37,0.28,0.62,0.43,1.08c1.24,3.8,2.4,13.39,3.17,20.48"/>
			<path id="kvg:s-s8" stroke="#00ACC1" d="M50.02,44.41c9.58-0.96,25.99-2.58,33.14-3.38c2.62-0.3,3.97,0.75,3.84,1.79c-0.49,3.83-1.71,14.26-2.92,20.66"/>
			<path id="kvg:s-s9" stroke="#795548" d="M51.81,54.23c3.12-0.37,30.52-3.11,33.1-3.27"/>
			<path id="kvg:s-s10" stroke="#546E7A" d="M52.83,64.42c6.9-0.41,21.73-2.11,31.25-2.77"/>
		</g>
		<g id="kvg:09699-g5">
			<path id="kvg:s-s11" stroke="#E53935" d="M66.86,65.87c0.06,0.2,0.77,1.03,0.82,2.29c0.26,6.04-0.17,22.67-0.17,24.73c0,6.61-4.77,1.36-6.71-1.4"/>
			<path id="kvg:s-s12" stroke="#FB8C00" d="M54.45,73.82c0.04,0.41,0.09,1.06-0.09,1.66c-1.07,3.49-7.21,11.16-15.61,15.85"/>
			<path id="kvg:s-s13" stroke="#FDD835" d="M79.82,74.4c5.09,2.99,13.16,12.27,14.43,16.91"/>
		</g>
	</g>
</g>
</g>
<g id="kvg:StrokeNumbers_09699" style="font-size:18;font-weight:bold;stroke:#fff;stroke-width:1.5;paint-order:stroke">
	<text transform="matrix(1 0 0 1 19.50 13.50)" fill="#E53935">1</text>
	<text transform="matrix(1 0 0 1 22.50 46.50)" fill="#FB8C00">2</text>
	<text transform="matrix(1 0 0 1 9.50 24.50)" fill="#FDD835">3</text>
	<text transform="matrix(1 0 0 1 58.50 10.50)" fill="#43A047">4</text>
	<text transform="matrix(1 0 0 1 47.50 18.50)" fill="#1E88E5">5</text>
	<text transform="matrix(1 0 0 1 74.50 15.50)" fill="#8E24AA">6</text>
	<text transform="matrix(1 0 0 1 41.50 49.50)" fill="#EC407A">7</text>
	<text transform="matrix(1 0 0 1 51.50 40.50)" fill="#00ACC1">8</text>
	<text transform="matrix(1 0 0 1 54.50 51.53)" fill="#795548">9</text>
	<text transform="matrix(1 0 0 1 53.50 61.50)" fill="#546E7A">10</text>
	<text transform="matrix(1 0 0 1 58.50 73.13)" fill="#E53935">11</text>
	<text transform="matrix(1 0 0 1 43.50 74.55)" fill="#FB8C00">12</text>
	<text transform="matrix(1 0 0 1 72.50 81.50)" fill="#FDD835">13</text>
</g>
</svg>
