<?xml version="1.0" encoding="UTF-8"?>
<svg xmlns="http://www.w3.org/2000/svg" width="109" height="109" viewBox="0 0 109 109">
<g id="kvg:StrokePaths_096a3" style="fill:none;stroke:#000000;stroke-width:3;stroke-linecap:round;stroke-linejoin:round;">
<g id="kvg:096a3">
	<g id="kvg:096a3-g1">
		<path id="kvg:s-s1" stroke="#E53935" d="M13.92,17.42c1.97,0.43,3.63,0.27,5.58-0.06c5.08-0.86,9.51-1.97,11.67-2.69c3-1,4.99,1.12,3.92,3.58c-1.58,3.62-5.71,11.5-8.83,16.5"/>
		<path id="kvg:s-s2" stroke="#FB8C00" d="M26.25,35.25c13.33,8.33,9.12,34-1.58,27.25"/>
		<path id="kvg:s-s3" stroke="#FDD835" d="M15.62,18.25c0.88,0.88,0.96,2.25,0.96,3.5c0,0.84,0.02,45.75,0.02,65.12c0,4.03-0.06,6.29-0.1,7.38"/>
	</g>
	<g id="kvg:096a3-g2">
		<g id="kvg:096a3-g3">
			<path id="kvg:s-s4" stroke="#43A047" d="M47.46,16.53c2.28,1.77,5.73,6.77,6.29,9.52"/>
			<path id="kvg:s-s5" stroke="#1E88E5" d="M82.35,13.25c0.08,0.78-0.06,1.51-0.43,2.2c-1.12,2.43-4.17,5.92-8.19,9.92"/>
			<path id="kvg:s-s6" stroke="#8E24AA" d="M42.5,32.27c2.45,0.75,5.03,0.38,7.51,0.09c7.67-0.87,22.76-3.08,30.87-3.79c2.14-0.19,4.83-0.35,6.97,0.04"/>
			<path id="kvg:s-s7" stroke="#EC407A" d="M64.4,10.5c0.93,0.93,1.23,1.88,1.23,2.96c0,0.39,0.07,22.72,0.09,33.54c0.01,3.34,0.01,5.58,0,5.75"/>
			<path id="kvg:s-s8" stroke="#00ACC1" d="M60.65,31.56c0,1.31-0.67,2.24-1.41,3.42c-4.15,6.68-11.3,14.5-17.99,18.02"/>
			<path id="kvg:s-s9" stroke="#795548" d="M67.02,31.96c3.03,2.1,14.4,10.8,20.74,15.26c1.94,1.36,4.09,2.34,6.11,3.56"/>
		</g>
		<g id="kvg:096a3-g4">
			<g id="kvg:096a3-g5">
				<path id="kvg:s-s10" stroke="#546E7A" d="M47.74,55.06c0.01,0.94-0.1,1.66-0.42,2.38C45.12,62.38,41.25,69,33.61,75.68"/>
				<path id="kvg:s-s11" stroke="#E53935" d="M48.74,60.86c0.21,0.03,1.11,0.2,1.72,0.17c3.04-0.15,4.99-0.52,7.64-1.53c1.9-0.73,3.41,0.13,2.75,2.42C58.41,70.36,46.38,88.12,32,95.28"/>
				<path id="kvg:s-s12" stroke="#FB8C00" d="M42.12,71.12c2.23,1.18,5.76,4.84,6.32,6.68"/>
			</g>
			<g id="kvg:096a3-g6">
				<path id="kvg:s-s13" stroke="#FDD835" d="M66.92,64.52c1.43,0.4,3.03,0.2,4.47,0.04c4.59-0.51,12-1.74,16.98-2.26c1.33-0.14,2.54-0.15,3.86,0.07"/>
				<path id="kvg:s-s14" stroke="#43A047" d="M69.37,65.7c0.78,0.78,0.81,1.68,0.81,3.05c0,3.93-0.05,7.57-0.05,10"/>
				<path id="kvg:s-s15" stroke="#1E88E5" d="M60.02,80.14c1.6,0.49,3.96,0.34,5.87,0.15c10.67-1.07,23.86-2.66,28.5-3.04c1.87-0.15,3.63,0,5.36,0.27"/>
				<path id="kvg:s-s16" stroke="#8E24AA" d="M81.43,52.75c0.85,0.85,1,1.75,1,2.73c0,0.44,0.04,32.39,0.04,37.27c0,3.23-0.07,5.55-0.1,6.25"/>
			</g>
		</g>
	</g>
</g>
</g>
<g id="kvg:StrokeNumbers_096a3" style="font-size:18;font-weight:bold;stroke:#fff;stroke-width:1.5;paint-order:stroke">
	<text transform="matrix(1 0 0 1 18.50 14.25)" fill="#E53935">1</text>
	<text transform="matrix(1 0 0 1 23.00 44.25)" fill="#FB8C00">2</text>
	<text transform="matrix(1 0 0 1 8.25 24.25)" fill="#FDD835">3</text>
	<text transform="matrix(1 0 0 1 43.25 13.25)" fill="#43A047">4</text>
	<text transform="matrix(1 0 0 1 74.25 12.25)" fill="#1E88E5">5</text>
	<text transform="matrix(1 0 0 1 40.25 29.25)" fill="#8E24AA">6</text>
	<text transform="matrix(1 0 0 1 56.25 11.25)" fill="#EC407A">7</text>
	<text transform="matrix(1 0 0 1 48.50 41.25)" fill="#00ACC1">8</text>
	<text transform="matrix(1 0 0 1 79.25 38.25)" fill="#795548">9</text>
	<text transform="matrix(1 0 0 1 37.25 60.25)" fill="#546E7A">10</text>
	<text transform="matrix(1 0 0 1 51.25 58.25)" fill="#E53935">11</text>
	<text transform="matrix(1 0 0 1 45.25 72.25)" fill="#FB8C00">12</text>
	<text transform="matrix(1 0 0 1 66.25 62.25)" fill="#FDD835">13</text>
	<text transform="matrix(1 0 0 1 61.25 71.25)" fill="#43A047">14</text>
	<text transform="matrix(1 0 0 1 57.25 78.25)" fill="#1E88E5">15</text>
	<text transform="matrix(1 0 0 1 71.25 50.25)" fill="#8E24AA">16</text>
</g>
</svg>
