<?xml version="1.0" encoding="UTF-8"?>
<svg xmlns="http://www.w3.org/2000/svg" width="109" height="109" viewBox="0 0 109 109">
<g id="kvg:StrokePaths_096c4" style="fill:none;stroke:#000000;stroke-width:3;stroke-linecap:round;stroke-linejoin:round;">
<g id="kvg:096c4">
	<g id="kvg:096c4-g1">
		<path id="kvg:s-s1" stroke="#E53935" d="M13.5,36.39c1.92,0.78,4.33,0.81,6.36,0.54c6.17-0.84,15.96-2.68,21.02-3.75c1.57-0.33,3.24-0.55,4.87-0.41"/>
		<g id="kvg:096c4-g2">
			<path id="kvg:s-s2" stroke="#FB8C00" d="M31.31,17.75c0.19,1,0.18,1.92-0.12,4.08C28,45,22.75,66.5,9.5,87.79"/>
		</g>
		<g id="kvg:096c4-g3">
			<path id="kvg:s-s3" stroke="#FDD835" d="M36.19,52.25c0.31,1.12,0.18,1.75-0.19,2.9c-3.06,9.62-6.88,19.25-11.51,26.02c-1.46,2.14-0.63,2.9,1.43,2.14C31.88,81.12,34,80,42.09,76.93"/>
			<path id="kvg:s-s4" stroke="#43A047" d="M39.8,69.48c2.3,2.82,5.93,11.6,6.51,15.98"/>
		</g>
	</g>
	<g id="kvg:096c4-g4">
		<g id="kvg:096c4-g5">
			<path id="kvg:s-s5" stroke="#1E88E5" d="M62.12,14.5c0.19,1.69-0.05,2.91-0.65,4.36c-3.83,9.24-8.94,17.82-17.72,29.07"/>
			<path id="kvg:s-s6" stroke="#8E24AA" d="M55.19,37.4c1,1,0.9,2.55,0.9,3.91c0,3.94,0.06,33.36-0.01,45.94C56.06,90.6,56,91.12,56,94.62"/>
		</g>
		<path id="kvg:s-s7" stroke="#EC407A" d="M78.19,17.25c0.07,0.92,0.04,2.13-0.24,2.9c-1.95,5.35-3.32,9.1-6.56,14.96"/>
		<path id="kvg:s-s8" stroke="#00ACC1" d="M57.16,38.16c6.55-0.86,20.6-2.37,29.35-3.48c3.05-0.39,5.31-0.69,6.12-0.85"/>
		<path id="kvg:s-s9" stroke="#795548" d="M73.23,38.83c0.79,1,0.88,2.23,0.88,3.42C74.1,52.23,74,81.66,74,87.12"/>
		<path id="kvg:s-s10" stroke="#546E7A" d="M57.39,54.07c5.41-0.74,20.48-2.13,28.16-2.95c2.11-0.22,3.66-0.4,4.3-0.52"/>
		<path id="kvg:s-s11" stroke="#E53935" d="M57.3,69.54c5.42-0.59,18.83-1.67,27.23-2.49c2.86-0.28,4.99-0.5,5.79-0.61"/>
		<path id="kvg:s-s12" stroke="#FB8C00" d="M57.3,89.43c8.32-0.8,23.94-1.97,33.21-2.89c2.38-0.24,4.1-0.43,4.74-0.56"/>
	</g>
</g>
</g>
<g id="kvg:StrokeNumbers_096c4" style="font-size:18;font-weight:bold;stroke:#fff;stroke-width:1.5;paint-order:stroke">
	<text transform="matrix(1 0 0 1 7.25 37.25)" fill="#E53935">1</text>
	<text transform="matrix(1 0 0 1 23.25 17.25)" fill="#FB8C00">2</text>
	<text transform="matrix(1 0 0 1 32.00 47.88)" fill="#FDD835">3</text>
	<text transform="matrix(1 0 0 1 38.00 67.30)" fill="#43A047">4</text>
	<text transform="matrix(1 0 0 1 53.00 15.25)" fill="#1E88E5">5</text>
	<text transform="matrix(1 0 0 1 48.50 52.30)" fill="#8E24AA">6</text>
	<text transform="matrix(1 0 0 1 69.25 17.25)" fill="#EC407A">7</text>
	<text transform="matrix(1 0 0 1 61.25 34.25)" fill="#00ACC1">8</text>
	<text transform="matrix(1 0 0 1 66.25 45.25)" fill="#795548">9</text>
	<text transform="matrix(1 0 0 1 59.25 50.80)" fill="#546E7A">10</text>
	<text transform="matrix(1 0 0 1 59.51 66.25)" fill="#E53935">11</text>
	<text transform="matrix(1 0 0 1 59.32 85.25)" fill="#FB8C00">12</text>
</g>
</svg>
