<?xml version="1.0" encoding="UTF-8"?>
<svg xmlns="http://www.w3.org/2000/svg" width="109" height="109" viewBox="0 0 109 109">
<g id="kvg:StrokePaths_096ea" style="fill:none;stroke:#000000;stroke-width:3;stroke-linecap:round;stroke-linejoin:round;">
<g id="kvg:096ea">
	<g id="kvg:096ea-g1">
		<path id="kvg:s-s1" stroke="#E53935" d="M30.3,17.75c1.99,0.19,4.32,0.06,6.11-0.13C47,16.5,63.12,14.5,73.79,13.82c2.52-0.16,4.62-0.16,6.94,0.11"/>
		<path id="kvg:s-s2" stroke="#FB8C00" d="M19.13,30.26c-0.21,5.23-2.03,10.97-3.37,16.26"/>
		<path id="kvg:s-s3" stroke="#FDD835" d="M20.02,32.66c15.86-2.03,51.76-6.3,68.93-7.13c11.07-0.53,1.22,7.12-0.29,8.94"/>
		<path id="kvg:s-s4" stroke="#43A047" d="M52.65,18.92c1.15,1.15,1.61,2.83,1.61,4.57c0,3.62,0.08,17.53,0.11,25.25c0.01,2.43,0.02,4.15,0.02,4.58"/>
		<path id="kvg:s-s5" stroke="#1E88E5" d="M32.73,38.9c3.62,0.74,8.54,2.95,10.52,4.17"/>
		<path id="kvg:s-s6" stroke="#8E24AA" d="M29.33,47.1c3.77,0.75,9.61,3.5,11.67,4.75"/>
		<path id="kvg:s-s7" stroke="#EC407A" d="M66.56,34.1c4.13,1.22,8.75,3.64,10.44,4.68"/>
		<path id="kvg:s-s8" stroke="#00ACC1" d="M66.12,44.62c3.71,0.91,8.77,3.66,10.79,5.19"/>
	</g>
	<g id="kvg:096ea-g2">
		<path id="kvg:s-s9" stroke="#795548" d="M29.41,61.93c2.47,1.07,4.77,1.19,7.87,0.77c14.22-1.95,29.22-3,39.71-4.03c3.21-0.32,5.45,1.48,4.96,4.45c-1.11,6.65-2.32,16.37-3.74,26.12"/>
		<path id="kvg:s-s10" stroke="#546E7A" d="M29.89,76.19c2.11,1.06,4.69,1.23,7.11,0.96c13.56-1.49,33.99-3.4,42.96-3.97"/>
		<path id="kvg:s-s11" stroke="#E53935" d="M27.88,93.44c2.12,0.68,4.38,0.94,6.91,0.72C47,93.11,62.36,91.46,74.25,90.4c2.4-0.21,5.06-0.46,7.46,0.02"/>
	</g>
</g>
</g>
<g id="kvg:StrokeNumbers_096ea" style="font-size:18;fill:#E53935;font-weight:bold;stroke:#fff;stroke-width:1.5;paint-order:stroke">
	<text transform="matrix(1 0 0 1 23.50 18.50)" fill="#E53935">1</text>
	<text transform="matrix(1 0 0 1 12.50 31.50)" fill="#FB8C00">2</text>
	<text transform="matrix(1 0 0 1 23.25 29.50)" fill="#FDD835">3</text>
	<text transform="matrix(1 0 0 1 46.12 23.88)" fill="#43A047">4</text>
	<text transform="matrix(1 0 0 1 24.50 41.50)" fill="#1E88E5">5</text>
	<text transform="matrix(1 0 0 1 21.75 51.13)" fill="#8E24AA">6</text>
	<text transform="matrix(1 0 0 1 59.25 36.50)" fill="#EC407A">7</text>
	<text transform="matrix(1 0 0 1 58.50 45.50)" fill="#00ACC1">8</text>
	<text transform="matrix(1 0 0 1 22.50 63.50)" fill="#795548">9</text>
	<text transform="matrix(1 0 0 1 19.25 77.50)" fill="#546E7A">10</text>
	<text transform="matrix(1 0 0 1 19.00 95.50)" fill="#E53935">11</text>
</g>
</svg>
