<?xml version="1.0" encoding="UTF-8"?>
<svg xmlns="http://www.w3.org/2000/svg" width="109" height="109" viewBox="0 0 109 109">
<g id="kvg:StrokePaths_096e3" style="fill:none;stroke:#000000;stroke-width:3;stroke-linecap:round;stroke-linejoin:round;">
<g id="kvg:096e3">
	<g id="kvg:096e3-g1">
		<g id="kvg:096e3-g2">
			<path id="kvg:s-s1" stroke="#E53935" d="M13.73,29.05c1.64,0.45,3.1,0.33,4.63,0.13c8.35-1.09,20.7-3.24,29.01-3.73c1.83-0.11,3.69-0.2,5.48,0.28"/>
			<path id="kvg:s-s2" stroke="#FB8C00" d="M23.51,18.07c0.77,0.77,1.09,1.9,1.22,2.69c1.2,7.31,1.54,12.82,1.88,15.47"/>
			<path id="kvg:s-s3" stroke="#FDD835" d="M41.98,15.31c0.45,1.04,0.6,2.28,0.28,3.6C41,24,40.12,28.88,39.01,34.48"/>
		</g>
		<g id="kvg:096e3-g3">
			<path id="kvg:s-s4" stroke="#43A047" d="M16.06,41.5c0.69,0.5,1.07,1.13,1.4,2.39c0.56,2.13,1.34,5,2.07,8.29c0.29,1.3,0.54,2.56,0.72,3.7"/>
			<path id="kvg:s-s5" stroke="#1E88E5" d="M17.91,42.58c5.95-1.22,21.39-3.45,27.72-4.2c2.32-0.28,3.5,0.87,2.9,3.2c-0.73,2.83-1.69,5.35-2.8,9.19"/>
			<path id="kvg:s-s6" stroke="#8E24AA" d="M20.66,54.01c3.95-0.34,16.03-1.79,23.38-2.52c1.28-0.13,2.42-0.24,3.37-0.33"/>
		</g>
		<g id="kvg:096e3-g4">
			<path id="kvg:s-s7" stroke="#EC407A" d="M19.68,65.16c1.33,0.56,3.43,0.36,4.83,0.16c5.15-0.73,12.85-1.94,18.25-2.59c1.69-0.2,3.27-0.46,4.94-0.03"/>
			<g id="kvg:096e3-g5">
				<path id="kvg:s-s8" stroke="#00ACC1" d="M15.43,78c1.69,0.38,3.54,0.37,4.94,0.11c7.38-1.36,18.39-2.83,25.87-3.81c1.89-0.25,4.09-0.4,5.94,0.07"/>
				<path id="kvg:s-s9" stroke="#795548" d="M31.87,42.39c0.81,0.81,1.18,2.17,1.18,3.85C33,75.25,29.5,87.38,15.24,97.69"/>
				<path id="kvg:s-s10" stroke="#546E7A" d="M32.62,81.12c6.12,2.45,11.93,6.71,14.47,11.06"/>
			</g>
		</g>
	</g>
	<g id="kvg:096e3-g6">
		<g id="kvg:096e3-g7">
			<path id="kvg:s-s11" stroke="#E53935" d="M65.99,15.8c0.39,1.45-0.04,3.1-0.55,4.79c-3.22,10.74-7.56,20.77-14.94,33.69"/>
			<path id="kvg:s-s12" stroke="#FB8C00" d="M59.07,40.09c1.05,1.05,1.25,2.26,1.25,3.9c0.01,9.32,0.05,31.71-0.05,44.26c-0.04,4.89-0.04,6.44,0.03,8.08"/>
		</g>
		<path id="kvg:s-s13" stroke="#FDD835" d="M80.6,17.52c0.15,0.86,0.07,1.89-0.2,2.74c-1.66,5.25-2.91,8.12-5.76,14.03"/>
		<path id="kvg:s-s14" stroke="#43A047" d="M60.04,38.59c4.72-0.64,19.38-1.85,27.53-2.74c2.71-0.3,4.69-0.53,5.37-0.65"/>
		<path id="kvg:s-s15" stroke="#1E88E5" d="M75.58,38.66c0.94,0.94,1.3,1.96,1.3,3.24c0,7.38,0.1,31.6,0.1,43.38"/>
		<path id="kvg:s-s16" stroke="#8E24AA" d="M61.41,53.37c5.34-0.37,17.88-1.19,24.87-1.76c2.06-0.17,3.57-0.31,4.15-0.4"/>
		<path id="kvg:s-s17" stroke="#EC407A" d="M61.44,69.57c4.84-0.41,17.86-1.49,25.07-1.99c2.1-0.15,3.64-0.26,4.25-0.33"/>
		<path id="kvg:s-s18" stroke="#00ACC1" d="M61.16,86.94c7.34-0.32,21.51-1.18,29.38-1.66c2.12-0.13,3.64-0.25,4.21-0.35"/>
	</g>
</g>
</g>
<g id="kvg:StrokeNumbers_096e3" style="font-size:18;fill:#E53935;font-weight:bold;stroke:#fff;stroke-width:1.5;paint-order:stroke">
	<text transform="matrix(1 0 0 1 8.25 30.13)" fill="#E53935">1</text>
	<text transform="matrix(1 0 0 1 15.75 19.63)" fill="#FB8C00">2</text>
	<text transform="matrix(1 0 0 1 33.75 16.63)" fill="#FDD835">3</text>
	<text transform="matrix(1 0 0 1 11.25 51.13)" fill="#43A047">4</text>
	<text transform="matrix(1 0 0 1 18.75 39.13)" fill="#1E88E5">5</text>
	<text transform="matrix(1 0 0 1 23.25 51.50)" fill="#8E24AA">6</text>
	<text transform="matrix(1 0 0 1 14.25 65.98)" fill="#EC407A">7</text>
	<text transform="matrix(1 0 0 1 8.25 77.90)" fill="#00ACC1">8</text>
	<text transform="matrix(1 0 0 1 37.50 47.50)" fill="#795548">9</text>
	<text transform="matrix(1 0 0 1 44.25 85.50)" fill="#546E7A">10</text>
	<text transform="matrix(1 0 0 1 54.50 15.50)" fill="#E53935">11</text>
	<text transform="matrix(1 0 0 1 50.25 62.50)" fill="#FB8C00">12</text>
	<text transform="matrix(1 0 0 1 72.50 13.50)" fill="#FDD835">13</text>
	<text transform="matrix(1 0 0 1 65.50 35.50)" fill="#43A047">14</text>
	<text transform="matrix(1 0 0 1 68.00 45.13)" fill="#1E88E5">15</text>
	<text transform="matrix(1 0 0 1 63.45 50.50)" fill="#8E24AA">16</text>
	<text transform="matrix(1 0 0 1 63.50 66.50)" fill="#EC407A">17</text>
	<text transform="matrix(1 0 0 1 63.47 83.98)" fill="#00ACC1">18</text>
</g>
</svg>
