<?xml version="1.0" encoding="UTF-8"?>
<svg xmlns="http://www.w3.org/2000/svg" width="109" height="109" viewBox="0 0 109 109">
<g id="kvg:StrokePaths_096f2" style="fill:none;stroke:#000000;stroke-width:3;stroke-linecap:round;stroke-linejoin:round;">
<g id="kvg:096f2">
	<g id="kvg:096f2-g1">
		<path id="kvg:s-s1" stroke="#E53935" d="M34.21,18.07c1.59,0.18,3.65,0.3,5.08,0.14c0.35-0.04,0.72-0.08,1.1-0.12c6.92-0.75,18.73-2.14,27.81-2.95c2.01-0.18,3.69-0.15,5.54,0.1"/>
		<path id="kvg:s-s2" stroke="#FB8C00" d="M24.54,29c-0.17,5.3-1.64,10.11-2.73,15.47"/>
		<path id="kvg:s-s3" stroke="#FDD835" d="M26.02,31.17c16.23-2.04,39.36-4.54,56.48-5.42c11.49-0.59,3.75,5.75,0.75,8"/>
		<path id="kvg:s-s4" stroke="#43A047" d="M52.48,19.59c0.91,0.91,1.57,2.41,1.57,3.82c0,0.3,0.04,13.99,0.05,21.84c0,2.18,0.01,3.93,0.01,4.84"/>
		<path id="kvg:s-s5" stroke="#1E88E5" d="M34.72,36.98c2.67,0.69,6.32,3,7.78,4.15"/>
		<path id="kvg:s-s6" stroke="#8E24AA" d="M32.72,46.88c2.5,0.75,6.12,3.01,7.49,4.26"/>
		<path id="kvg:s-s7" stroke="#EC407A" d="M65.93,33.77c3.53,1.3,7.53,3.9,8.94,4.98"/>
		<path id="kvg:s-s8" stroke="#00ACC1" d="M65.7,45.19c2.85,0.8,6.74,3.22,8.3,4.56"/>
	</g>
	<g id="kvg:096f2-g2">
		<g id="kvg:096f2-g3">
			<path id="kvg:s-s9" stroke="#795548" d="M36.5,59.2c1.42,0.27,3.8,0.4,5.21,0.27c9.21-0.84,15.69-1.84,25.2-2.31c2.36-0.12,4.03,0.13,5.21,0.26"/>
			<path id="kvg:s-s10" stroke="#546E7A" d="M17.5,72.41c3.6,0.44,7.19,0.47,10.76,0.05c16.62-1.96,36.6-3.48,53.89-4.17c4.75-0.19,7.6-0.06,9.98,0.13"/>
		</g>
		<g id="kvg:096f2-g4">
			<path id="kvg:s-s11" stroke="#E53935" d="M51.43,73.28c0.07,1.22-0.47,2.87-1.36,3.87C45.75,82,40.5,87,34.78,91.61c-1.97,1.59-2.11,3.21,1.01,2.48C42.5,92.5,61.58,89,72.5,87.5"/>
			<path id="kvg:s-s12" stroke="#FB8C00" d="M66.46,79.93C71,82.58,76.88,89.62,79.31,95"/>
		</g>
	</g>
</g>
</g>
<g id="kvg:StrokeNumbers_096f2" style="font-size:18;fill:#E53935;font-weight:bold;stroke:#fff;stroke-width:1.5;paint-order:stroke">
	<text transform="matrix(1 0 0 1 27.50 16.50)" fill="#E53935">1</text>
	<text transform="matrix(1 0 0 1 17.50 31.50)" fill="#FB8C00">2</text>
	<text transform="matrix(1 0 0 1 27.50 27.13)" fill="#FDD835">3</text>
	<text transform="matrix(1 0 0 1 45.38 25.50)" fill="#43A047">4</text>
	<text transform="matrix(1 0 0 1 26.50 38.88)" fill="#1E88E5">5</text>
	<text transform="matrix(1 0 0 1 24.62 49.25)" fill="#8E24AA">6</text>
	<text transform="matrix(1 0 0 1 59.05 35.62)" fill="#EC407A">7</text>
	<text transform="matrix(1 0 0 1 57.25 46.13)" fill="#00ACC1">8</text>
	<text transform="matrix(1 0 0 1 29.25 60.00)" fill="#795548">9</text>
	<text transform="matrix(1 0 0 1 6.88 73.88)" fill="#546E7A">10</text>
	<text transform="matrix(1 0 0 1 38.62 78.75)" fill="#E53935">11</text>
	<text transform="matrix(1 0 0 1 67.75 78.12)" fill="#FB8C00">12</text>
</g>
</svg>
