<?xml version="1.0" encoding="UTF-8"?>
<svg xmlns="http://www.w3.org/2000/svg" width="109" height="109" viewBox="0 0 109 109">
<g id="kvg:StrokePaths_096f0" style="fill:none;stroke:#000000;stroke-width:3;stroke-linecap:round;stroke-linejoin:round;">
<g id="kvg:096f0">
	<g id="kvg:096f0-g1">
		<path id="kvg:s-s1" stroke="#E53935" d="M32.31,14.13c2.56,0.74,4.9,0.6,7.34,0.3c6.14-0.77,18.32-2.02,28.36-2.67c2.32-0.15,4.66-0.34,6.97-0.02"/>
		<path id="kvg:s-s2" stroke="#FB8C00" d="M20.91,24.42c-0.32,5.48-3.28,12.71-5.21,17.09"/>
		<path id="kvg:s-s3" stroke="#FDD835" d="M21.61,26.71c21.26-1.83,51.19-4.91,67.08-4.91c8.22,0,3.55,4.45-1.28,8.18"/>
		<path id="kvg:s-s4" stroke="#43A047" d="M52.81,16.22c1.11,1.11,1.35,2.53,1.35,3.98c0,0.35-0.02,10.71-0.03,18.06c0,3.01-0.01,5.27-0.01,5.66"/>
		<path id="kvg:s-s5" stroke="#1E88E5" d="M31.5,32.25c3.86,0.81,9.11,3.22,11.22,4.57"/>
		<path id="kvg:s-s6" stroke="#8E24AA" d="M28.62,41.62c3.61,0.87,9.2,4.07,11.17,5.53"/>
		<path id="kvg:s-s7" stroke="#EC407A" d="M65.14,29.98c4.46,1.28,9.52,3.85,11.31,4.92"/>
		<path id="kvg:s-s8" stroke="#00ACC1" d="M64.72,41.36c4.01,0.97,9.48,3.88,11.67,5.49"/>
	</g>
	<g id="kvg:096f0-g2">
		<g id="kvg:096f0-g3">
			<path id="kvg:s-s9" stroke="#795548" d="M43.92,53.47c0,1.39-0.67,2.24-1.57,3.23C36.96,62.61,25.38,70.12,15,73.11"/>
			<path id="kvg:s-s10" stroke="#546E7A" d="M54.69,50c8.68,1.12,21.43,14,31.12,19.05c3.43,1.79,4.56,2.33,8.44,3.23"/>
		</g>
		<g id="kvg:096f0-g4">
			<path id="kvg:s-s11" stroke="#E53935" d="M30.35,72.01c2.77,0.86,5.01,1.05,7.76,0.62c11.81-1.87,25.01-3.65,30.89-4.16c3.03-0.27,5.15,0.61,4.62,4.04c-0.7,4.48-3.74,16.72-7.88,22.1c-4.12,5.36-4.49,4.64-7.34-0.28"/>
			<path id="kvg:s-s12" stroke="#FB8C00" d="M49.26,74.23c0.14,1.1,0.01,1.92-0.48,2.91c-4.1,8.19-10.23,14.61-23.28,21.34"/>
		</g>
	</g>
</g>
</g>
<g id="kvg:StrokeNumbers_096f0" style="font-size:18;font-weight:bold;stroke:#fff;stroke-width:1.5;paint-order:stroke">
	<text transform="matrix(1 0 0 1 26.50 15.50)" fill="#E53935">1</text>
	<text transform="matrix(1 0 0 1 12.75 28.55)" fill="#FB8C00">2</text>
	<text transform="matrix(1 0 0 1 24.75 23.50)" fill="#FDD835">3</text>
	<text transform="matrix(1 0 0 1 45.75 21.13)" fill="#43A047">4</text>
	<text transform="matrix(1 0 0 1 24.75 36.13)" fill="#1E88E5">5</text>
	<text transform="matrix(1 0 0 1 21.75 43.63)" fill="#8E24AA">6</text>
	<text transform="matrix(1 0 0 1 57.75 33.13)" fill="#EC407A">7</text>
	<text transform="matrix(1 0 0 1 57.75 43.63)" fill="#00ACC1">8</text>
	<text transform="matrix(1 0 0 1 34.50 56.50)" fill="#795548">9</text>
	<text transform="matrix(1 0 0 1 50.25 58.50)" fill="#546E7A">10</text>
	<text transform="matrix(1 0 0 1 39.50 69.13)" fill="#E53935">11</text>
	<text transform="matrix(1 0 0 1 35.25 82.63)" fill="#FB8C00">12</text>
</g>
</svg>
