<?xml version="1.0" encoding="UTF-8"?>
<svg xmlns="http://www.w3.org/2000/svg" width="109" height="109" viewBox="0 0 109 109">
<g id="kvg:StrokePaths_09805" style="fill:none;stroke:#000000;stroke-width:3;stroke-linecap:round;stroke-linejoin:round;">
<g id="kvg:09805">
	<g id="kvg:09805-g1">
		<path id="kvg:s-s1" stroke="#E53935" d="M16.2,35.65c1.92,0.6,4.5,0.28,6.22-0.01c5.2-0.89,12.33-2.14,19.04-3.69c0.89-0.21,2.61-0.26,3.36,0.04"/>
		<path id="kvg:s-s2" stroke="#FB8C00" d="M30.84,37.12c0.83,0.83,1.07,2,1.07,3.64c0,6.12-0.03,21.8-0.03,26.62"/>
		<path id="kvg:s-s3" stroke="#FDD835" d="M17.17,73.54c1.2,0.83,2.29,0.89,3.71,0.21c6.24-3,13.87-7,21.73-10.93"/>
	</g>
	<g id="kvg:09805-g2">
		<path id="kvg:s-s4" stroke="#43A047" d="M46.52,18.04c2.85,0.58,5.46,0.28,7.99,0.02c9.49-0.99,21.01-2.59,30.87-3.16c2.51-0.15,4.89-0.14,7.36,0.39"/>
		<path id="kvg:s-s5" stroke="#1E88E5" d="M67.57,19.31c0.1,0.66,0,1.28-0.31,1.85c-1.04,2.7-2.6,6-4.93,9.08"/>
		<g id="kvg:09805-g3">
			<g id="kvg:09805-g4">
				<path id="kvg:s-s6" stroke="#8E24AA" d="M53.73,32.36c0.83,0.83,0.95,2,0.95,3.33c0,0.86-0.03,22.65-0.04,33.3c0,2.55,0,4.45,0,5.25"/>
				<path id="kvg:s-s7" stroke="#EC407A" d="M55.5,34.15c6.4-0.95,19.77-2.82,25.63-3.55c3.72-0.46,5.07-0.13,5.08,3.9c0,4.57,0.02,22.01,0.03,31.38c0,2.88,0,5,0,5.75"/>
				<path id="kvg:s-s8" stroke="#00ACC1" d="M55.96,46.64c7.04-1.39,23.14-3.48,29.07-3.84"/>
				<path id="kvg:s-s9" stroke="#795548" d="M55.83,58.89c6.38-0.84,21.55-3.12,29.12-3.59"/>
				<path id="kvg:s-s10" stroke="#546E7A" d="M55.72,71.9c10.28-1.15,21.31-2.55,29.37-3.05"/>
			</g>
			<g id="kvg:09805-g5">
				<path id="kvg:s-s11" stroke="#E53935" d="M61.3,80.74c0.32,1.13-0.1,2.19-0.98,3.39c-2.87,3.92-9.7,9.12-18.15,14.37"/>
				<path id="kvg:s-s12" stroke="#FB8C00" d="M80.15,78.54c6.63,4.35,14.97,14.26,16.78,18.07"/>
			</g>
		</g>
	</g>
</g>
</g>
<g id="kvg:StrokeNumbers_09805" style="font-size:18;font-weight:bold;stroke:#fff;stroke-width:1.5;paint-order:stroke">
	<text transform="matrix(1 0 0 1 9.75 36.13)" fill="#E53935">1</text>
	<text transform="matrix(1 0 0 1 23.50 45.50)" fill="#FB8C00">2</text>
	<text transform="matrix(1 0 0 1 9.75 78.50)" fill="#FDD835">3</text>
	<text transform="matrix(1 0 0 1 39.50 18.50)" fill="#43A047">4</text>
	<text transform="matrix(1 0 0 1 59.50 25.50)" fill="#1E88E5">5</text>
	<text transform="matrix(1 0 0 1 47.25 41.50)" fill="#8E24AA">6</text>
	<text transform="matrix(1 0 0 1 54.75 31.63)" fill="#EC407A">7</text>
	<text transform="matrix(1 0 0 1 59.25 43.55)" fill="#00ACC1">8</text>
	<text transform="matrix(1 0 0 1 59.25 55.48)" fill="#795548">9</text>
	<text transform="matrix(1 0 0 1 59.25 68.50)" fill="#546E7A">10</text>
	<text transform="matrix(1 0 0 1 50.25 83.83)" fill="#E53935">11</text>
	<text transform="matrix(1 0 0 1 71.25 84.13)" fill="#FB8C00">12</text>
</g>
</svg>
