<?xml version="1.0" encoding="UTF-8"?>
<svg xmlns="http://www.w3.org/2000/svg" width="109" height="109" viewBox="0 0 109 109">
<g id="kvg:StrokePaths_09812" style="fill:none;stroke:#000000;stroke-width:3;stroke-linecap:round;stroke-linejoin:round;">
<g id="kvg:09812">
	<g id="kvg:09812-g1">
		<g id="kvg:09812-g2">
			<path id="kvg:s-s1" stroke="#E53935" d="M27.87,25.08c0.01,1.04,0.02,2.05-0.43,3c-3.53,7.5-9.74,15.92-16.24,20.73"/>
			<path id="kvg:s-s2" stroke="#FB8C00" d="M36.98,23C42,26.25,49.5,37.5,52.02,44.42"/>
		</g>
		<g id="kvg:09812-g3">
			<path id="kvg:s-s3" stroke="#FDD835" d="M18.33,50.29c1.92,0.33,3.51,0.4,5.06,0.08c6.45-1.33,14.86-3.14,18.21-3.58c2.42-0.32,3.5,0.96,3.37,3.19C44.62,55.88,41,76.5,36.49,84.4c-4.18,7.32-5.99,2.98-7.46,0.77"/>
			<path id="kvg:s-s4" stroke="#43A047" d="M29.25,53.27c0.05,0.69,0.16,1.82-0.1,2.78c-2.86,10.7-7.4,20.32-16.15,28.05"/>
		</g>
	</g>
	<g id="kvg:09812-g4">
		<path id="kvg:s-s5" stroke="#1E88E5" d="M55.19,18.34c1.49,0.86,4.32,0.79,5.95,0.53c10.12-1.62,17.62-2.24,26.24-2.78c2.31-0.14,5.19-0.35,7.41,0.43"/>
		<path id="kvg:s-s6" stroke="#8E24AA" d="M74.68,20.4c0.11,0.71-0.01,1.38-0.37,2c-0.99,2.5-1.87,4.96-4.65,9.24"/>
		<g id="kvg:09812-g5">
			<g id="kvg:09812-g6">
				<path id="kvg:s-s7" stroke="#EC407A" d="M60.03,33.39c0.98,0.98,1.18,2.07,1.18,3.46c0,1.1-0.03,26.52-0.03,37.4c0,2.83-0.04,4.66-0.04,4.8"/>
				<path id="kvg:s-s8" stroke="#00ACC1" d="M61.75,35.03c7.5-1.16,23.81-3.31,26.28-3.52c2.06-0.17,3.68,1.93,3.51,3.22c-0.17,1.28,0.14,26.12,0.07,37.27c-0.02,3.06-0.03,5.1-0.03,5.32"/>
				<path id="kvg:s-s9" stroke="#795548" d="M62.21,48.74c8.29-1.04,22.16-2.38,27.96-2.76"/>
				<path id="kvg:s-s10" stroke="#546E7A" d="M62.18,62.29c7.09-1.04,20.81-2.3,28.21-2.79"/>
				<path id="kvg:s-s11" stroke="#E53935" d="M62.13,75.83c8.58-1.02,20.58-1.94,28.47-2.46"/>
			</g>
			<g id="kvg:09812-g7">
				<path id="kvg:s-s12" stroke="#FB8C00" d="M67.25,81.13c0.25,1.24-0.11,2.05-1,2.94C63.58,86.75,56,91.75,49.3,95.25"/>
				<path id="kvg:s-s13" stroke="#FDD835" d="M83.62,81.88c5.21,3.43,11.36,9.66,12.78,12.67"/>
			</g>
		</g>
	</g>
</g>
</g>
<g id="kvg:StrokeNumbers_09812" style="font-size:18;font-weight:bold;stroke:#fff;stroke-width:1.5;paint-order:stroke">
	<text transform="matrix(1 0 0 1 19.50 24.50)" fill="#E53935">1</text>
	<text transform="matrix(1 0 0 1 35.25 20.13)" fill="#FB8C00">2</text>
	<text transform="matrix(1 0 0 1 23.25 47.50)" fill="#FDD835">3</text>
	<text transform="matrix(1 0 0 1 21.50 59.50)" fill="#43A047">4</text>
	<text transform="matrix(1 0 0 1 53.50 15.13)" fill="#1E88E5">5</text>
	<text transform="matrix(1 0 0 1 66.50 25.50)" fill="#8E24AA">6</text>
	<text transform="matrix(1 0 0 1 53.50 41.50)" fill="#EC407A">7</text>
	<text transform="matrix(1 0 0 1 63.50 31.50)" fill="#00ACC1">8</text>
	<text transform="matrix(1 0 0 1 65.25 45.05)" fill="#795548">9</text>
	<text transform="matrix(1 0 0 1 65.25 58.48)" fill="#546E7A">10</text>
	<text transform="matrix(1 0 0 1 65.25 72.50)" fill="#E53935">11</text>
	<text transform="matrix(1 0 0 1 52.50 86.50)" fill="#FB8C00">12</text>
	<text transform="matrix(1 0 0 1 75.75 88.50)" fill="#FDD835">13</text>
</g>
</svg>
