<?xml version="1.0" encoding="UTF-8"?>
<svg xmlns="http://www.w3.org/2000/svg" width="109" height="109" viewBox="0 0 109 109">
<g id="kvg:StrokePaths_09813" style="fill:none;stroke:#000000;stroke-width:3;stroke-linecap:round;stroke-linejoin:round;">
<g id="kvg:09813">
	<g id="kvg:09813-g1">
		<g id="kvg:09813-g2">
			<path id="kvg:s-s1" stroke="#E53935" d="M42.86,18.96c0.08,0.44-0.18,1.77-0.66,2.27c-5.98,6.23-14.32,11.45-29.91,16.48"/>
		</g>
		<g id="kvg:09813-g3">
			<g id="kvg:09813-g4">
				<path id="kvg:s-s2" stroke="#FB8C00" d="M13.3,45.66c0.49,0.39,1.26,1.46,1.26,3.76c0,2.67-0.24,8.29-0.52,12.98c-0.14,2.42-0.49,4.26,1.81,3.55c10.39-3.21,17.64-5.71,27.35-7.48"/>
				<path id="kvg:s-s3" stroke="#FDD835" d="M43.95,36.05c0.42,0.53,1.33,2.24,1.26,3.33c-0.29,5.09-0.63,13.79-1.61,23"/>
			</g>
			<g id="kvg:09813-g5">
				<path id="kvg:s-s4" stroke="#43A047" d="M26.79,11.62c0.96,0.88,1.78,3.36,1.81,5.38c0.12,9.03-0.31,53.9-0.31,60.05c0,14.34,5.25,12.72,10.41,12.72c9.36,0,11.13-1.17,11.13-10.07"/>
			</g>
		</g>
	</g>
	<g id="kvg:09813-g6">
		<g id="kvg:09813-g7">
			<path id="kvg:s-s5" stroke="#1E88E5" d="M56.75,17.35c1.07,0.5,3.04,0.57,4.12,0.5c8.88-0.58,22.84-2.08,29.75-2.32c1.79-0.06,2.87,0.24,3.76,0.49"/>
			<path id="kvg:s-s6" stroke="#8E24AA" d="M73.29,19.93c0.01,0.29,0.03,0.74-0.02,1.15c-0.28,2.42-3.05,7.72-5.24,10.97"/>
		</g>
		<g id="kvg:09813-g8">
			<g id="kvg:09813-g9">
				<path id="kvg:s-s7" stroke="#EC407A" d="M58.73,33.3c0.48,1.08,1.19,1.88,1.19,3.32c0,1.44-0.32,41.41-0.32,42.13"/>
				<path id="kvg:s-s8" stroke="#00ACC1" d="M60.73,34.73c2.74-0.18,24.35-3.36,26.85-3.58c2.08-0.18,3.72,1.99,3.55,3.32c-0.22,1.69-1.3,27.28-1.3,43.92"/>
				<path id="kvg:s-s9" stroke="#795548" d="M60.18,47.82c3.92,0,24.19-1.92,30.06-2.31"/>
				<path id="kvg:s-s10" stroke="#546E7A" d="M59.9,61.94c9.78-0.48,21.31-1.55,28.81-2.05"/>
				<path id="kvg:s-s11" stroke="#E53935" d="M60.11,76.79c7.39-0.79,21.32-1.5,29.3-2.04"/>
			</g>
			<g id="kvg:09813-g10">
				<path id="kvg:s-s12" stroke="#FB8C00" d="M66.79,81.48c0.4,1.38,0.79,1.75,0,2.75c-2.38,3.02-10.81,10.45-15.57,14.02"/>
				<path id="kvg:s-s13" stroke="#FDD835" d="M81.22,82.87c5.63,3.99,12.29,11.22,13.83,14.71"/>
			</g>
		</g>
	</g>
</g>
</g>
<g id="kvg:StrokeNumbers_09813" style="font-size:18;font-weight:bold;stroke:#fff;stroke-width:1.5;paint-order:stroke">
	<text transform="matrix(1 0 0 1 37.50 15.50)" fill="#E53935">1</text>
	<text transform="matrix(1 0 0 1 5.50 46.50)" fill="#FB8C00">2</text>
	<text transform="matrix(1 0 0 1 36.50 36.50)" fill="#FDD835">3</text>
	<text transform="matrix(1 0 0 1 18.50 12.50)" fill="#43A047">4</text>
	<text transform="matrix(1 0 0 1 55.50 14.50)" fill="#1E88E5">5</text>
	<text transform="matrix(1 0 0 1 65.50 25.85)" fill="#8E24AA">6</text>
	<text transform="matrix(1 0 0 1 51.50 39.50)" fill="#EC407A">7</text>
	<text transform="matrix(1 0 0 1 60.60 31.85)" fill="#00ACC1">8</text>
	<text transform="matrix(1 0 0 1 64.50 44.50)" fill="#795548">9</text>
	<text transform="matrix(1 0 0 1 63.94 58.50)" fill="#546E7A">10</text>
	<text transform="matrix(1 0 0 1 64.20 73.50)" fill="#E53935">11</text>
	<text transform="matrix(1 0 0 1 54.50 87.50)" fill="#FB8C00">12</text>
	<text transform="matrix(1 0 0 1 73.50 90.50)" fill="#FDD835">13</text>
</g>
</svg>
