<?xml version="1.0" encoding="UTF-8"?>
<svg xmlns="http://www.w3.org/2000/svg" width="109" height="109" viewBox="0 0 109 109">
<g id="kvg:StrokePaths_0982c" style="fill:none;stroke:#000000;stroke-width:3;stroke-linecap:round;stroke-linejoin:round;">
<g id="kvg:0982c">
	<g id="kvg:0982c-g1">
		<g id="kvg:0982c-g2">
			<g id="kvg:0982c-g3">
				<path id="kvg:s-s1" stroke="#E53935" d="M13.75,28.89c0.94,0.38,2.66,0.38,3.6,0.38C24,29.25,38,27,45.96,25.89c1.55-0.22,2.5,0.18,3.29,0.37"/>
			</g>
		</g>
		<g id="kvg:0982c-g4">
			<g id="kvg:0982c-g5">
				<path id="kvg:s-s2" stroke="#FB8C00" d="M14.5,37.75c2.29,2,5.9,8.24,6.48,11.35"/>
			</g>
			<g id="kvg:0982c-g6">
				<path id="kvg:s-s3" stroke="#FDD835" d="M48.77,33.64c0.03,0.38,0.06,0.98-0.06,1.52c-0.68,3.21-4.6,10.27-9.97,14.58"/>
				<g id="kvg:0982c-g7">
					<path id="kvg:s-s4" stroke="#43A047" d="M9.88,58.14c1.47,0.35,3.12,0.22,4.08,0.1c10.04-1.32,26.75-4.01,37.82-4.16C52.98,54.06,52.9,54,54.25,54"/>
				</g>
			</g>
		</g>
		<g id="kvg:0982c-g8">
			<path id="kvg:s-s5" stroke="#1E88E5" d="M30.62,11.25c0.34,1.17,0.88,2.52,0.88,5.04c0,46.84-1.12,64.57-21.99,80.21"/>
			<path id="kvg:s-s6" stroke="#8E24AA" d="M32.25,64.75c4.62,1.96,14,12.7,17.07,19.13"/>
		</g>
	</g>
	<g id="kvg:0982c-g9">
		<g id="kvg:0982c-g10">
			<path id="kvg:s-s7" stroke="#EC407A" d="M54.95,18.82c1.15,0.53,3.26,0.61,4.41,0.53c9.5-0.62,27.63-3.81,35.02-4.06c1.92-0.07,3.07,0.26,4.02,0.52"/>
			<path id="kvg:s-s8" stroke="#00ACC1" d="M73.73,20.93c0.01,0.24,0.02,0.61-0.02,0.96c-0.26,2.02-2.85,6.45-4.89,9.16"/>
		</g>
		<g id="kvg:0982c-g11">
			<g id="kvg:0982c-g12">
				<path id="kvg:s-s9" stroke="#795548" d="M59.91,33.2c0.5,1.03,1.23,1.8,1.23,3.17c0,1.38-0.17,38.14,0,39.51"/>
				<path id="kvg:s-s10" stroke="#546E7A" d="M61.98,34.58c2.83-0.17,25.18-3.22,27.77-3.43c2.15-0.17,3.85,1.91,3.67,3.18c-0.23,1.62-1,38.05-1,39.08"/>
				<path id="kvg:s-s11" stroke="#E53935" d="M61.93,47.1c4.05,0,23.98-2.32,30.05-2.69"/>
				<path id="kvg:s-s12" stroke="#FB8C00" d="M61.66,59.21c10.11-0.46,21.5-1.98,29.25-2.46"/>
				<path id="kvg:s-s13" stroke="#FDD835" d="M61.9,73.4c6.54-1.02,21.5-1.89,29.75-2.41"/>
			</g>
			<g id="kvg:0982c-g13">
				<path id="kvg:s-s14" stroke="#43A047" d="M67.66,79.98c0.39,1.44,0.28,2.33-0.5,3.37C64.8,86.51,56.93,93.77,52.21,97.5"/>
				<path id="kvg:s-s15" stroke="#1E88E5" d="M83.07,78.37c6.31,4.67,13.76,13.13,15.48,17.21"/>
			</g>
		</g>
	</g>
</g>
</g>
<g id="kvg:StrokeNumbers_0982c" style="font-size:18;font-weight:bold;stroke:#fff;stroke-width:1.5;paint-order:stroke">
	<text transform="matrix(1 0 0 1 7.50 28.50)" fill="#E53935">1</text>
	<text transform="matrix(1 0 0 1 7.50 39.50)" fill="#FB8C00">2</text>
	<text transform="matrix(1 0 0 1 40.25 35.50)" fill="#FDD835">3</text>
	<text transform="matrix(1 0 0 1 2.50 58.50)" fill="#43A047">4</text>
	<text transform="matrix(1 0 0 1 22.50 10.50)" fill="#1E88E5">5</text>
	<text transform="matrix(1 0 0 1 36.50 65.50)" fill="#8E24AA">6</text>
	<text transform="matrix(1 0 0 1 58.63 17.85)" fill="#EC407A">7</text>
	<text transform="matrix(1 0 0 1 64.50 25.85)" fill="#00ACC1">8</text>
	<text transform="matrix(1 0 0 1 53.59 40.85)" fill="#795548">9</text>
	<text transform="matrix(1 0 0 1 60.50 31.85)" fill="#546E7A">10</text>
	<text transform="matrix(1 0 0 1 64.20 43.85)" fill="#E53935">11</text>
	<text transform="matrix(1 0 0 1 64.01 55.85)" fill="#FB8C00">12</text>
	<text transform="matrix(1 0 0 1 64.06 69.50)" fill="#FDD835">13</text>
	<text transform="matrix(1 0 0 1 56.50 83.85)" fill="#43A047">14</text>
	<text transform="matrix(1 0 0 1 76.06 85.50)" fill="#1E88E5">15</text>
</g>
</svg>
