<?xml version="1.0" encoding="UTF-8"?>
<svg xmlns="http://www.w3.org/2000/svg" width="109" height="109" viewBox="0 0 109 109">
<g id="kvg:StrokePaths_0983c" style="fill:none;stroke:#000000;stroke-width:3;stroke-linecap:round;stroke-linejoin:round;">
<g id="kvg:0983c">
	<g id="kvg:0983c-g1">
		<g id="kvg:0983c-g2">
			<path id="kvg:s-s1" stroke="#E53935" d="M15.75,25.54c1.84,0.98,4.36,0.73,6.37,0.5c5.97-0.7,16.43-1.87,21.9-2.35c1.57-0.14,3.11-0.43,4.9-0.07"/>
		</g>
		<g id="kvg:0983c-g3">
			<path id="kvg:s-s2" stroke="#FB8C00" d="M15.67,39.9c0.5,0.57,0.8,1.24,0.9,1.99c0.44,1.73,1.44,7.17,2.12,11.1c0.36,2.08,0.63,3.73,0.68,4.2"/>
			<path id="kvg:s-s3" stroke="#FDD835" d="M17.77,41.4c7.71-1.39,26.3-3.29,29.32-3.61c1.88-0.2,3.06,2.08,2.57,3.93c-0.9,3.35-2.36,8.73-2.7,9.97"/>
			<path id="kvg:s-s4" stroke="#43A047" d="M20.24,55.3c7.76-0.67,17.87-1.65,25.04-2.31c1.38-0.13,2.65-0.24,3.78-0.34"/>
		</g>
		<g id="kvg:0983c-g4">
			<path id="kvg:s-s5" stroke="#1E88E5" d="M31.45,12.25c1.03,1.03,1.48,2.5,1.48,3.97c0,0.89,0.1,55.03,0.1,74.28c0,2.9-0.03,4.25-0.03,6.75"/>
			<path id="kvg:s-s6" stroke="#8E24AA" d="M32.12,55.3c0,1.33-0.84,3.4-1.69,4.94C25.53,69.08,19,76.62,10.02,83.29"/>
			<path id="kvg:s-s7" stroke="#EC407A" d="M36.12,61.62c5.35,2.25,9.65,6.69,12.35,11.19"/>
		</g>
	</g>
	<g id="kvg:0983c-g5">
		<path id="kvg:s-s8" stroke="#00ACC1" d="M53.88,17.83c2.62,0.8,5.15,0.66,7.24,0.46c8.32-0.78,19.65-1.65,27.15-2.42c2.08-0.21,4.37-0.5,6.37-0.01"/>
		<path id="kvg:s-s9" stroke="#795548" d="M72.24,21.08c0.05,0.66,0.05,1.32-0.18,1.94c-1.19,3.11-2.76,6.57-4.87,9.28"/>
		<g id="kvg:0983c-g6">
			<g id="kvg:0983c-g7">
				<path id="kvg:s-s10" stroke="#546E7A" d="M58.49,34.28c0.93,0.93,1.09,1.87,1.09,3.25c0,1.09,0.07,23.43-0.01,33.47c-0.02,2.69-0.13,5.29,0.01,6.68"/>
				<path id="kvg:s-s11" stroke="#E53935" d="M60.32,35.48c3.43-0.48,17.37-1.82,23.31-2.37c2.69-0.25,4.2,0.05,4.2,3.17c0,1.27,0.02,23.47,0.02,34.47c0,3.28-0.08,5.49-0.08,5.73"/>
				<path id="kvg:s-s12" stroke="#FB8C00" d="M61.02,48.94c4.36-0.55,20.31-2.32,25.67-2.43"/>
				<path id="kvg:s-s13" stroke="#FDD835" d="M60.91,61.41c5.77-0.59,18.9-2.03,25.75-2.18"/>
				<path id="kvg:s-s14" stroke="#43A047" d="M60.83,75.16c9.17-0.66,17.67-1.41,25.75-1.9"/>
			</g>
			<g id="kvg:0983c-g8">
				<path id="kvg:s-s15" stroke="#1E88E5" d="M66.54,78.81c0.08,1.19-0.31,2.13-1.07,3.08c-2.6,3.23-6.47,7.61-12.44,12.28"/>
				<path id="kvg:s-s16" stroke="#8E24AA" d="M81.85,82.19c4.54,3.1,10.27,9.98,11.5,12.58"/>
			</g>
		</g>
	</g>
</g>
</g>
<g id="kvg:StrokeNumbers_0983c" style="font-size:18;font-weight:bold;stroke:#fff;stroke-width:1.5;paint-order:stroke">
	<text transform="matrix(1 0 0 1 9.50 26.25)" fill="#E53935">1</text>
	<text transform="matrix(1 0 0 1 9.50 47.25)" fill="#FB8C00">2</text>
	<text transform="matrix(1 0 0 1 18.50 38.25)" fill="#FDD835">3</text>
	<text transform="matrix(1 0 0 1 23.00 52.30)" fill="#43A047">4</text>
	<text transform="matrix(1 0 0 1 22.25 12.25)" fill="#1E88E5">5</text>
	<text transform="matrix(1 0 0 1 21.25 65.25)" fill="#8E24AA">6</text>
	<text transform="matrix(1 0 0 1 43.25 63.25)" fill="#EC407A">7</text>
	<text transform="matrix(1 0 0 1 52.25 15.25)" fill="#00ACC1">8</text>
	<text transform="matrix(1 0 0 1 64.25 26.25)" fill="#795548">9</text>
	<text transform="matrix(1 0 0 1 50.25 48.25)" fill="#546E7A">10</text>
	<text transform="matrix(1 0 0 1 59.25 32.25)" fill="#E53935">11</text>
	<text transform="matrix(1 0 0 1 63.20 45.25)" fill="#FB8C00">12</text>
	<text transform="matrix(1 0 0 1 63.25 58.25)" fill="#FDD835">13</text>
	<text transform="matrix(1 0 0 1 63.08 72.25)" fill="#43A047">14</text>
	<text transform="matrix(1 0 0 1 52.25 86.25)" fill="#1E88E5">15</text>
	<text transform="matrix(1 0 0 1 71.25 85.25)" fill="#8E24AA">16</text>
</g>
</svg>
