<?xml version="1.0" encoding="UTF-8"?>
<svg xmlns="http://www.w3.org/2000/svg" width="109" height="109" viewBox="0 0 109 109">
<g id="kvg:StrokePaths_0984d" style="fill:none;stroke:#000000;stroke-width:3;stroke-linecap:round;stroke-linejoin:round;">
<g id="kvg:0984d">
	<g id="kvg:0984d-g1">
		<g id="kvg:0984d-g2">
			<path id="kvg:s-s1" stroke="#E53935" d="M33.71,14.2c0.73,0.74,1.18,1.77,1.16,2.59c-0.05,2.59-0.05,5.62-0.05,7.98"/>
			<g id="kvg:0984d-g3">
				<path id="kvg:s-s2" stroke="#FB8C00" d="M18.5,27c0,2.86-2.47,10.72-3.6,12.62"/>
				<path id="kvg:s-s3" stroke="#FDD835" d="M19.26,28.46c10.25-1.55,21.19-3.65,29.61-3.83c7.56-0.16,1.25,5.37-0.24,6.67"/>
			</g>
		</g>
		<g id="kvg:0984d-g4">
			<g id="kvg:0984d-g5">
				<path id="kvg:s-s4" stroke="#43A047" d="M30.6,33.61c0.03,0.54,0.13,1.4-0.07,2.15C29.25,40.62,23.41,50,16.85,56.1"/>
				<path id="kvg:s-s5" stroke="#1E88E5" d="M30.74,40.56c0.27,0.03,1.42,0,2.19-0.09c2.53-0.27,5.16-1.27,8.78-2.12c2.48-0.58,3.44,1.17,2.8,2.75C41.04,49.79,29.38,66,12.71,74.09"/>
				<path id="kvg:s-s6" stroke="#8E24AA" d="M27.75,52c9,3.12,17.75,9.5,23.83,15.74"/>
			</g>
			<g id="kvg:0984d-g6">
				<path id="kvg:s-s7" stroke="#EC407A" d="M22.64,73.41c0.65,0.69,1.01,1.52,1.08,2.47c0.7,3.03,1.44,8.02,2.01,12.5c0.16,1.26,0.31,2.47,0.44,3.59"/>
				<path id="kvg:s-s8" stroke="#00ACC1" d="M24.41,74.13c6.49-1.18,14.24-2.16,18.36-2.76c2.46-0.36,3.87-0.14,3.36,2.61c-0.76,4.06-1.53,7.65-2.43,12.1"/>
				<path id="kvg:s-s9" stroke="#795548" d="M26.93,89.48c3.16-0.39,9.82-1.26,15.08-1.97c1.23-0.17,2.38-0.32,3.4-0.46"/>
			</g>
		</g>
	</g>
	<g id="kvg:0984d-g7">
		<g id="kvg:0984d-g8">
			<path id="kvg:s-s10" stroke="#546E7A" d="M54.63,18.95c2.51,0.57,4.99,0.16,7.5-0.12c9.32-1.05,17.42-1.93,25.88-2.56c2.35-0.17,4.37-0.31,6.62,0.48"/>
			<path id="kvg:s-s11" stroke="#E53935" d="M71.93,20.94c0.01,0.32,0.16,0.85-0.03,1.27c-1.19,2.73-3.6,6.56-5.91,9.78"/>
		</g>
		<g id="kvg:0984d-g9">
			<g id="kvg:0984d-g10">
				<path id="kvg:s-s12" stroke="#FB8C00" d="M56.78,33.82c0.96,0.95,1.42,2.22,1.42,3.7c0,1.18-0.04,27.31-0.06,38.11c0,2.71-0.01,4.46-0.01,4.6"/>
				<path id="kvg:s-s13" stroke="#FDD835" d="M58.99,34.86c3.88-0.61,22.94-2.65,25.37-2.98c2.76-0.38,4.24,1.25,4.24,3.55c0,1.34-0.12,26.58-0.18,37.96c-0.02,3.32-0.03,5.45-0.03,5.48"/>
				<path id="kvg:s-s14" stroke="#43A047" d="M59.19,48.65c6.56-0.52,22.27-1.94,28.04-2.11"/>
				<path id="kvg:s-s15" stroke="#1E88E5" d="M59.41,62.95c6.96-0.58,20.44-1.91,27.8-2.13"/>
				<path id="kvg:s-s16" stroke="#8E24AA" d="M59.36,77.09c7.89-0.84,20.21-1.66,28.06-1.9"/>
			</g>
			<g id="kvg:0984d-g11">
				<path id="kvg:s-s17" stroke="#EC407A" d="M65.74,81.5c0.39,1.29,0,2.57-0.78,3.47c-2.34,2.73-9.54,9.37-14.22,12.53"/>
				<path id="kvg:s-s18" stroke="#00ACC1" d="M80.11,82.59c5.33,3.87,11.63,10.76,13.08,14.02"/>
			</g>
		</g>
	</g>
</g>
</g>
<g id="kvg:StrokeNumbers_0984d" style="font-size:18;fill:#E53935;font-weight:bold;stroke:#fff;stroke-width:1.5;paint-order:stroke">
	<text transform="matrix(1 0 0 1 26.50 14.50)" fill="#E53935">1</text>
	<text transform="matrix(1 0 0 1 11.50 30.50)" fill="#FB8C00">2</text>
	<text transform="matrix(1 0 0 1 20.50 25.48)" fill="#FDD835">3</text>
	<text transform="matrix(1 0 0 1 22.50 37.50)" fill="#43A047">4</text>
	<text transform="matrix(1 0 0 1 35.50 37.33)" fill="#1E88E5">5</text>
	<text transform="matrix(1 0 0 1 29.25 51.13)" fill="#8E24AA">6</text>
	<text transform="matrix(1 0 0 1 17.50 81.50)" fill="#EC407A">7</text>
	<text transform="matrix(1 0 0 1 30.49 70.10)" fill="#00ACC1">8</text>
	<text transform="matrix(1 0 0 1 29.25 85.63)" fill="#795548">9</text>
	<text transform="matrix(1 0 0 1 53.25 15.13)" fill="#546E7A">10</text>
	<text transform="matrix(1 0 0 1 62.50 25.63)" fill="#E53935">11</text>
	<text transform="matrix(1 0 0 1 48.50 42.50)" fill="#FB8C00">12</text>
	<text transform="matrix(1 0 0 1 56.25 31.63)" fill="#FDD835">13</text>
	<text transform="matrix(1 0 0 1 62.07 45.66)" fill="#43A047">14</text>
	<text transform="matrix(1 0 0 1 62.25 59.50)" fill="#1E88E5">15</text>
	<text transform="matrix(1 0 0 1 62.11 73.63)" fill="#8E24AA">16</text>
	<text transform="matrix(1 0 0 1 53.50 88.93)" fill="#EC407A">17</text>
	<text transform="matrix(1 0 0 1 71.50 87.13)" fill="#00ACC1">18</text>
</g>
</svg>
