<?xml version="1.0" encoding="UTF-8"?>
<svg xmlns="http://www.w3.org/2000/svg" width="109" height="109" viewBox="0 0 109 109">
<g id="kvg:StrokePaths_098df" style="fill:none;stroke:#000000;stroke-width:3;stroke-linecap:round;stroke-linejoin:round;">
<g id="kvg:098df">
	<path id="kvg:s-s1" stroke="#E53935" d="M52.75,10.5c0.11,0.98-0.19,2.67-0.97,3.93C45,25.34,31.75,41.19,14,51.5"/>
	<path id="kvg:s-s2" stroke="#FB8C00" d="M52.75,16.25c5.09,4.8,25.71,19.61,33.7,24.9c2.68,1.78,5.37,2.79,8.55,3.35"/>
	<path id="kvg:s-s3" stroke="#FDD835" d="M52.25,29.25c1,1,1.5,2.25,1.5,3.5c0,2,0,3,0,5.5"/>
	<path id="kvg:s-s4" stroke="#43A047" d="M38,40c0.83,0.47,2.19,1,3.86,0.83c9.39-0.96,21.95-2.76,23.25-2.84c1.67-0.1,3.14,0.88,3.11,2.53C68.2,41.8,67,53.25,66.34,62.4c-0.07,0.94-0.13,1.36-0.13,1.99"/>
	<path id="kvg:s-s5" stroke="#1E88E5" d="M40.83,51.73C47.25,51.25,59.5,50,66,49.75"/>
	<path id="kvg:s-s6" stroke="#8E24AA" d="M40.69,63.9c7.04-0.52,16.55-1.62,24.6-2.04"/>
	<path id="kvg:s-s7" stroke="#EC407A" d="M38.25,40.25c1.12,1.12,1.5,2.62,1.5,4c0,9.12,0,43.62,0,47.25c0,4,1,4.88,4.12,2.88c2.93-1.87,6.75-5.25,10.88-8.38"/>
	<path id="kvg:s-s8" stroke="#00ACC1" d="M74,64c0.25,1.25,0.09,2.57-0.75,3.5c-3.5,3.88-4.5,4.88-7.25,7.5"/>
	<path id="kvg:s-s9" stroke="#795548" d="M51.5,71C55.75,71,77,90,81,92.75c2.49,1.71,4.62,2.62,7.5,3.5"/>
</g>
</g>
<g id="kvg:StrokeNumbers_098df" style="font-size:18;fill:#E53935;font-weight:bold;stroke:#fff;stroke-width:1.5;paint-order:stroke">
	<text transform="matrix(1 0 0 1 44.25 10.50)" fill="#E53935">1</text>
	<text transform="matrix(1 0 0 1 61.50 19.63)" fill="#FB8C00">2</text>
	<text transform="matrix(1 0 0 1 51.50 26.50)" fill="#FDD835">3</text>
	<text transform="matrix(1 0 0 1 43.50 37.50)" fill="#43A047">4</text>
	<text transform="matrix(1 0 0 1 43.50 49.63)" fill="#1E88E5">5</text>
	<text transform="matrix(1 0 0 1 43.50 61.63)" fill="#8E24AA">6</text>
	<text transform="matrix(1 0 0 1 32.25 51.13)" fill="#EC407A">7</text>
	<text transform="matrix(1 0 0 1 77.50 63.13)" fill="#00ACC1">8</text>
	<text transform="matrix(1 0 0 1 48.50 78.50)" fill="#795548">9</text>
</g>
</svg>
