<?xml version="1.0" encoding="UTF-8"?>
<svg xmlns="http://www.w3.org/2000/svg" width="109" height="109" viewBox="0 0 109 109">
<g id="kvg:StrokePaths_098ef" style="fill:none;stroke:#000000;stroke-width:3;stroke-linecap:round;stroke-linejoin:round;">
<g id="kvg:098ef">
	<g id="kvg:098ef-g1">
		<path id="kvg:s-s1" stroke="#E53935" d="M30.79,15c0.06,0.73,0.23,1.95-0.12,2.93c-2.88,8.14-11.44,19.55-20.42,26.57"/>
		<path id="kvg:s-s2" stroke="#FB8C00" d="M32,19.75c5.25,2.38,11.5,7.38,14.25,11.25"/>
		<path id="kvg:s-s3" stroke="#FDD835" d="M30.79,32.01c0.91,0.91,1.28,2.24,1.28,3.32c0,0.93-0.08,4.91-0.08,7.2"/>
		<path id="kvg:s-s4" stroke="#43A047" d="M19.45,45.01c1.18,0.61,2.93,0.77,4.03,0.51c4.65-1.14,12.43-2.7,15.69-3.31c3.19-0.6,4.04,1.22,3.63,4.04c-0.76,5.22-1.8,12.08-2.53,16.64c-0.22,1.37-0.41,2.53-0.56,3.38"/>
		<path id="kvg:s-s5" stroke="#1E88E5" d="M21.71,56.53c4.67-0.91,13.79-2.53,18.78-3.16"/>
		<path id="kvg:s-s6" stroke="#8E24AA" d="M21.62,67.6c5.26-0.85,12.63-2.43,17.21-3.22"/>
		<path id="kvg:s-s7" stroke="#EC407A" d="M19.12,45.26c1,1,1.53,2.25,1.53,3.49c0,0.93-0.08,36.68-0.08,38.97c0,4.28,0.81,4.16,3.44,2.16C26.06,88.3,34.5,82,38.75,79.5"/>
		<path id="kvg:s-s8" stroke="#00ACC1" d="M35.62,73.25c1.74,2.03,5.63,7.46,6.62,11.75"/>
	</g>
	<g id="kvg:098ef-g2">
		<g id="kvg:098ef-g3">
			<path id="kvg:s-s9" stroke="#795548" d="M51.63,24.98c1.35,0.54,3.07,0.67,4.41,0.54c9.34-0.89,20.96-3.02,27.13-3.98c2.22-0.35,3.59-0.24,4.71,0.03"/>
			<path id="kvg:s-s10" stroke="#546E7A" d="M53.99,26c1.01,0.75,1.42,2.12,1.4,3.64C55,55.62,55.5,78.38,41.25,95.5"/>
		</g>
		<g id="kvg:098ef-g4">
			<path id="kvg:s-s11" stroke="#E53935" d="M58.83,45.98c1.34,0.37,2.5,0.42,5.18-0.13c4.74-0.97,14.36-3.72,18.26-5.15c2.78-1.02,4.26,0.74,3.26,3.81C77.67,68.47,69.12,84.38,50,94.76"/>
			<path id="kvg:s-s12" stroke="#FB8C00" d="M61.12,55.19c3.24,0.91,18.43,24.26,29.71,34.21c1.76,1.55,3.04,2.58,4.67,3.1"/>
		</g>
	</g>
</g>
</g>
<g id="kvg:StrokeNumbers_098ef" style="font-size:18;fill:#E53935;font-weight:bold;stroke:#fff;stroke-width:1.5;paint-order:stroke">
	<text transform="matrix(1 0 0 1 23.25 13.63)" fill="#E53935">1</text>
	<text transform="matrix(1 0 0 1 39.75 18.13)" fill="#FB8C00">2</text>
	<text transform="matrix(1 0 0 1 35.25 34.63)" fill="#FDD835">3</text>
	<text transform="matrix(1 0 0 1 23.25 42.28)" fill="#43A047">4</text>
	<text transform="matrix(1 0 0 1 26.25 54.20)" fill="#1E88E5">5</text>
	<text transform="matrix(1 0 0 1 26.25 64.63)" fill="#8E24AA">6</text>
	<text transform="matrix(1 0 0 1 12.75 55.63)" fill="#EC407A">7</text>
	<text transform="matrix(1 0 0 1 29.25 76.63)" fill="#00ACC1">8</text>
	<text transform="matrix(1 0 0 1 59.25 21.13)" fill="#795548">9</text>
	<text transform="matrix(1 0 0 1 42.75 40.63)" fill="#546E7A">10</text>
	<text transform="matrix(1 0 0 1 60.94 41.38)" fill="#E53935">11</text>
	<text transform="matrix(1 0 0 1 63.94 56.30)" fill="#FB8C00">12</text>
</g>
</svg>
