<?xml version="1.0" encoding="UTF-8"?>
<svg xmlns="http://www.w3.org/2000/svg" width="109" height="109" viewBox="0 0 109 109">
<g id="kvg:StrokePaths_0990c" style="fill:none;stroke:#000000;stroke-width:3;stroke-linecap:round;stroke-linejoin:round;">
<g id="kvg:0990c">
	<g id="kvg:0990c-g1">
		<path id="kvg:s-s1" stroke="#E53935" d="M34.74,12.14c0.07,0.74,0.33,1.97-0.13,2.97c-3,6.52-11.63,19.29-23.86,28.89"/>
		<path id="kvg:s-s2" stroke="#FB8C00" d="M35.52,17.58c5.2,2.5,13.43,10.28,14.73,14.17"/>
		<path id="kvg:s-s3" stroke="#FDD835" d="M29.28,32.16c0.39,0.15,1.12,0.19,1.51,0.15c2.51-0.25,9.11-2.17,11.54-2c0.65,0.05,1.05,0.07,1.38,0.14"/>
		<path id="kvg:s-s4" stroke="#43A047" d="M22.77,41.44c0.4,0.78,0.81,1.66,0.81,2.7c0,1.04-0.13,54.33,0,55.37"/>
		<path id="kvg:s-s5" stroke="#1E88E5" d="M23.72,43.05c2.27-0.13,18.45-2.15,20.52-2.31c1.72-0.13,2.83,1.44,2.7,2.2c-0.27,1.56-1.98,17.89-2.54,21.33"/>
		<path id="kvg:s-s6" stroke="#8E24AA" d="M24.12,53.12c3.07,0,17.88-1.79,21.36-1.79"/>
		<path id="kvg:s-s7" stroke="#EC407A" d="M23.98,64.36c6.26-0.56,12.71-1.54,20.51-2.02"/>
		<path id="kvg:s-s8" stroke="#00ACC1" d="M23.92,76.75c3.85-0.25,16.49-2.64,20.22-2.47c1,0.04,1.61,0.07,2.11,0.14"/>
		<path id="kvg:s-s9" stroke="#795548" d="M24.44,89.88c3.85-0.25,17-2.15,20.73-1.98c1,0.04,1.61,0.07,2.11,0.14"/>
	</g>
	<g id="kvg:0990c-g2">
		<path id="kvg:s-s10" stroke="#546E7A" d="M52.6,25.92c0.91,0.46,2.58,0.53,3.5,0.46c10.06-0.69,18.28-3,36.64-4.38c1.52-0.11,2.44,0.22,3.2,0.45"/>
		<path id="kvg:s-s11" stroke="#E53935" d="M60.1,28.93c0.79,0.52,1.22,1.89,1.22,3.29s-0.24,41.94-0.24,47"/>
		<path id="kvg:s-s12" stroke="#FB8C00" d="M61.65,43.82c4.97-0.69,14.9-1.77,22.22-2.23"/>
		<path id="kvg:s-s13" stroke="#FDD835" d="M61.27,61.9c6.04-0.92,14.58-2.54,22.5-3"/>
		<path id="kvg:s-s14" stroke="#43A047" d="M52.31,79.68c0.44,1.07,2.44,1.57,4.36,1.08c4.66-1.21,29.96-7.82,37.13-9.73"/>
		<path id="kvg:s-s15" stroke="#1E88E5" d="M83.03,25.69c0.37,0.85,0.93,1.92,0.93,2.98c0,1.06,0.19,63.1,0.19,71.83"/>
	</g>
</g>
</g>
<g id="kvg:StrokeNumbers_0990c" style="font-size:18;font-weight:bold;stroke:#fff;stroke-width:1.5;paint-order:stroke">
	<text transform="matrix(1 0 0 1 26.50 13.50)" fill="#E53935">1</text>
	<text transform="matrix(1 0 0 1 41.75 17.05)" fill="#FB8C00">2</text>
	<text transform="matrix(1 0 0 1 32.50 29.50)" fill="#FDD835">3</text>
	<text transform="matrix(1 0 0 1 17.25 49.75)" fill="#43A047">4</text>
	<text transform="matrix(1 0 0 1 25.50 39.50)" fill="#1E88E5">5</text>
	<text transform="matrix(1 0 0 1 27.48 49.75)" fill="#8E24AA">6</text>
	<text transform="matrix(1 0 0 1 27.53 61.50)" fill="#EC407A">7</text>
	<text transform="matrix(1 0 0 1 27.50 73.75)" fill="#00ACC1">8</text>
	<text transform="matrix(1 0 0 1 27.49 86.25)" fill="#795548">9</text>
	<text transform="matrix(1 0 0 1 51.50 22.50)" fill="#546E7A">10</text>
	<text transform="matrix(1 0 0 1 52.50 34.50)" fill="#E53935">11</text>
	<text transform="matrix(1 0 0 1 64.50 40.50)" fill="#FB8C00">12</text>
	<text transform="matrix(1 0 0 1 64.50 57.50)" fill="#FDD835">13</text>
	<text transform="matrix(1 0 0 1 49.50 75.50)" fill="#43A047">14</text>
	<text transform="matrix(1 0 0 1 73.50 33.50)" fill="#1E88E5">15</text>
</g>
</svg>
