<?xml version="1.0" encoding="UTF-8"?>
<svg xmlns="http://www.w3.org/2000/svg" width="109" height="109" viewBox="0 0 109 109">
<g id="kvg:StrokePaths_09905" style="fill:none;stroke:#000000;stroke-width:3;stroke-linecap:round;stroke-linejoin:round;">
<g id="kvg:09905">
	<g id="kvg:09905-g1">
		<path id="kvg:s-s1" stroke="#E53935" d="M30.76,13.64c0.06,0.64,0.27,1.71-0.11,2.57c-2.44,5.65-9.46,16.71-19.41,25.04"/>
		<path id="kvg:s-s2" stroke="#FB8C00" d="M33,19.5c4.52,1.8,11.68,7.41,12.81,10.22"/>
		<path id="kvg:s-s3" stroke="#FDD835" d="M27.25,33.66c0.36,0.15,1.02,0.19,1.39,0.15c2.3-0.25,8.37-2.17,10.6-2c0.6,0.05,0.96,0.07,1.27,0.14"/>
		<path id="kvg:s-s4" stroke="#43A047" d="M20.02,41.44c0.39,0.78,0.78,1.66,0.78,2.7c0,1.04-0.13,54.33,0,55.37"/>
		<path id="kvg:s-s5" stroke="#1E88E5" d="M20.94,43.05c2.2-0.13,17.89-2.15,19.89-2.31c1.67-0.13,2.75,1.44,2.62,2.2c-0.26,1.56-1.92,17.89-2.47,21.33"/>
		<path id="kvg:s-s6" stroke="#8E24AA" d="M21.33,53.12c2.98,0,17.33-1.79,20.7-1.79"/>
		<path id="kvg:s-s7" stroke="#EC407A" d="M21.2,64.36c6.07-0.56,12.33-1.54,19.88-2.02"/>
		<path id="kvg:s-s8" stroke="#00ACC1" d="M21.14,76.75c3.73-0.25,15.98-2.64,19.6-2.47c0.97,0.04,1.56,0.07,2.05,0.14"/>
		<path id="kvg:s-s9" stroke="#795548" d="M21.64,89.88c3.73-0.25,16.48-2.15,20.1-1.98c0.97,0.04,1.56,0.07,2.05,0.14"/>
	</g>
	<g id="kvg:09905-g2">
		<g id="kvg:09905-g3">
			<path id="kvg:s-s10" stroke="#546E7A" d="M54.46,14.59c2.99,2.15,7.73,8.85,8.48,12.21"/>
			<path id="kvg:s-s11" stroke="#E53935" d="M86.05,10.39c0.02,0.46,0.12,1.2-0.05,1.84c-1.25,4.76-4.25,11.51-8.54,17.62"/>
		</g>
		<g id="kvg:09905-g4">
			<g id="kvg:09905-g5">
				<path id="kvg:s-s12" stroke="#FB8C00" d="M53.2,34.49c1.05,0.5,2.98,0.61,4.03,0.5c7.78-0.79,23.55-4.68,33.56-4.68c1.75,0,2.8,0.24,3.68,0.49"/>
				<g id="kvg:09905-g6">
					<path id="kvg:s-s13" stroke="#FDD835" d="M48.25,58.7c1.25,0.59,3.53,0.71,4.77,0.59C66.5,57.95,80,56,94.64,55.31c2.07-0.1,3.32,0.28,4.36,0.57"/>
				</g>
			</g>
			<path id="kvg:s-s14" stroke="#43A047" d="M62.42,36.43c0.56,1.61,1.36,2.89,1.36,4.9c0,18.44,1.48,43.21-17.94,54.5"/>
			<g id="kvg:09905-g7">
				<g id="kvg:09905-g8">
					<path id="kvg:s-s15" stroke="#1E88E5" d="M79.41,34.23c0.7,0.42,1.12,1.91,1.26,2.76c0.14,0.85,0,56.69-0.14,62"/>
				</g>
			</g>
		</g>
	</g>
</g>
</g>
<g id="kvg:StrokeNumbers_09905" style="font-size:18;font-weight:bold;stroke:#fff;stroke-width:1.5;paint-order:stroke">
	<text transform="matrix(1 0 0 1 23.50 13.50)" fill="#E53935">1</text>
	<text transform="matrix(1 0 0 1 37.50 18.05)" fill="#FB8C00">2</text>
	<text transform="matrix(1 0 0 1 30.50 29.50)" fill="#FDD835">3</text>
	<text transform="matrix(1 0 0 1 13.00 51.75)" fill="#43A047">4</text>
	<text transform="matrix(1 0 0 1 22.75 40.00)" fill="#1E88E5">5</text>
	<text transform="matrix(1 0 0 1 25.46 50.50)" fill="#8E24AA">6</text>
	<text transform="matrix(1 0 0 1 25.50 62.50)" fill="#EC407A">7</text>
	<text transform="matrix(1 0 0 1 25.47 73.50)" fill="#00ACC1">8</text>
	<text transform="matrix(1 0 0 1 25.46 85.50)" fill="#795548">9</text>
	<text transform="matrix(1 0 0 1 47.50 11.53)" fill="#546E7A">10</text>
	<text transform="matrix(1 0 0 1 73.50 10.50)" fill="#E53935">11</text>
	<text transform="matrix(1 0 0 1 50.75 31.50)" fill="#FB8C00">12</text>
	<text transform="matrix(1 0 0 1 46.50 55.50)" fill="#FDD835">13</text>
	<text transform="matrix(1 0 0 1 54.50 44.50)" fill="#43A047">14</text>
	<text transform="matrix(1 0 0 1 70.50 41.50)" fill="#1E88E5">15</text>
</g>
</svg>
