<?xml version="1.0" encoding="UTF-8"?>
<svg xmlns="http://www.w3.org/2000/svg" width="109" height="109" viewBox="0 0 109 109">
<g id="kvg:StrokePaths_099c5" style="fill:none;stroke:#000000;stroke-width:3;stroke-linecap:round;stroke-linejoin:round;">
<g id="kvg:099c5">
	<g id="kvg:099c5-g1">
		<path id="kvg:s-s1" stroke="#E53935" d="M16.24,17.12c0.76,0.63,1.5,1.69,1.49,2.88c-0.04,7.8-0.57,24.25-0.67,34.5c-0.02,2.35,0.09,3.32-0.31,5.75"/>
		<path id="kvg:s-s2" stroke="#FB8C00" d="M18.23,18.15c4.39-0.65,17.37-2.21,22.41-2.87c1.63-0.21,3.26-0.51,4.9-0.21"/>
		<path id="kvg:s-s3" stroke="#FDD835" d="M30.31,17.82c0.49,0.49,0.95,1.46,0.95,2.49c0,6.17-0.25,26.44-0.25,35.66"/>
		<path id="kvg:s-s4" stroke="#43A047" d="M18.41,32.09c5.46-0.51,16.44-2.11,21.13-2.77c1.19-0.17,3.34-0.57,4.56-0.25"/>
		<path id="kvg:s-s5" stroke="#1E88E5" d="M18.51,44.88c5.61-0.52,16.7-1.95,21.02-2.57c1.15-0.17,3.05-0.71,4.17-0.2"/>
		<path id="kvg:s-s6" stroke="#8E24AA" d="M17.74,59.65c6.17-1.41,20.29-4.04,23.68-4.63c4.33-0.76,4.19,2.81,3.95,6.45C44.7,71.81,42.59,83.13,39.75,90c-3,7.25-5.62,1.62-7.21-0.86"/>
		<g id="kvg:099c5-g2">
			<path id="kvg:s-s7" stroke="#EC407A" d="M9.79,73.5c0.28,6.41-0.57,12.04-0.87,13.32"/>
			<path id="kvg:s-s8" stroke="#00ACC1" d="M17.5,71.5c1.08,2.1,2,4.75,2.25,8.5"/>
			<path id="kvg:s-s9" stroke="#795548" d="M25.44,68.22C26,69.25,28,72.64,28.25,76"/>
			<path id="kvg:s-s10" stroke="#546E7A" d="M32.75,65.25c1.25,2.01,3.3,4.09,3.75,6.75"/>
		</g>
	</g>
	<g id="kvg:099c5-g3">
		<g id="kvg:099c5-g4">
			<path id="kvg:s-s11" stroke="#E53935" d="M55.22,20.32c1.16,0.77,2.9,0.9,4.14,0.79c7.4-0.61,19.18-2.64,21.85-2.97c3.3-0.4,4.77,1.69,4.42,3.94C84.97,26.2,83.6,34.25,82,40.32"/>
			<path id="kvg:s-s12" stroke="#FB8C00" d="M58.61,44.25c3.51-0.38,13.46-1.53,20.43-2.42c2.36-0.3,3.58-0.33,5.1-0.09"/>
			<g id="kvg:099c5-g5">
				<path id="kvg:s-s13" stroke="#FDD835" d="M56.84,21.12c0.91,0.88,1.04,2.43,1.05,3.38c0.67,41.32-3.54,54.77-10.14,66.5"/>
			</g>
		</g>
		<g id="kvg:099c5-g6">
			<path id="kvg:s-s14" stroke="#43A047" d="M64.28,44.75c5.1,9.38,16.09,30.23,25.17,40.55c2.13,2.42,4.99,5.29,8.05,6.45"/>
		</g>
	</g>
</g>
</g>
<g id="kvg:StrokeNumbers_099c5" style="font-size:18;fill:#E53935;font-weight:bold;stroke:#fff;stroke-width:1.5;paint-order:stroke">
	<text transform="matrix(1 0 0 1 10.50 26.50)" fill="#E53935">1</text>
	<text transform="matrix(1 0 0 1 16.50 14.50)" fill="#FB8C00">2</text>
	<text transform="matrix(1 0 0 1 33.50 24.50)" fill="#FDD835">3</text>
	<text transform="matrix(1 0 0 1 20.25 28.63)" fill="#43A047">4</text>
	<text transform="matrix(1 0 0 1 20.43 42.13)" fill="#1E88E5">5</text>
	<text transform="matrix(1 0 0 1 20.29 55.63)" fill="#8E24AA">6</text>
	<text transform="matrix(1 0 0 1 4.50 72.50)" fill="#EC407A">7</text>
	<text transform="matrix(1 0 0 1 11.25 70.50)" fill="#00ACC1">8</text>
	<text transform="matrix(1 0 0 1 19.25 67.50)" fill="#795548">9</text>
	<text transform="matrix(1 0 0 1 24.50 65.50)" fill="#546E7A">10</text>
	<text transform="matrix(1 0 0 1 58.50 16.50)" fill="#E53935">11</text>
	<text transform="matrix(1 0 0 1 60.50 40.63)" fill="#FB8C00">12</text>
	<text transform="matrix(1 0 0 1 47.50 27.50)" fill="#FDD835">13</text>
	<text transform="matrix(1 0 0 1 71.50 54.50)" fill="#43A047">14</text>
</g>
</svg>
