<?xml version="1.0" encoding="UTF-8"?>
<svg xmlns="http://www.w3.org/2000/svg" width="109" height="109" viewBox="0 0 109 109">
<g id="kvg:StrokePaths_099c6" style="fill:none;stroke:#000000;stroke-width:3;stroke-linecap:round;stroke-linejoin:round;">
<g id="kvg:099c6">
	<g id="kvg:099c6-g1">
		<path id="kvg:s-s1" stroke="#E53935" d="M16.99,16.37c0.88,0.88,1.24,2.01,1.24,3.63c0,7.35-0.32,24.13-0.42,34.5c-0.02,2.35-0.18,4.25-0.56,6.75"/>
		<path id="kvg:s-s2" stroke="#FB8C00" d="M19.02,17.76c6.8-0.7,15.87-1.9,20.76-2.55c1.32-0.18,4.49-0.74,5.76-0.15"/>
		<path id="kvg:s-s3" stroke="#FDD835" d="M30.56,18.32c0.75,0.75,0.96,1.67,0.95,2.82c-0.02,11.73,0,26.11,0,35.83"/>
		<path id="kvg:s-s4" stroke="#43A047" d="M19.38,32.75c5.13-0.45,15.26-2.14,19.88-2.87c1.35-0.21,3.25-0.63,4.85-0.32"/>
		<path id="kvg:s-s5" stroke="#1E88E5" d="M19.26,46.12c5.29-0.5,15.27-1.65,19.99-2.24c1.37-0.17,3.5-0.64,4.94-0.28"/>
		<path id="kvg:s-s6" stroke="#8E24AA" d="M18.74,60.15c6.89-0.9,19-2.86,22.43-3.13c3.33-0.26,4.83,1.24,4.45,5.95C44.79,73.3,42.87,83.51,39.25,90c-4.75,8.5-6.82,1.41-7.71,0.14"/>
		<g id="kvg:099c6-g2">
			<path id="kvg:s-s7" stroke="#EC407A" d="M12.75,72.25c0.12,7-1.88,10.75-3.15,13.57"/>
			<path id="kvg:s-s8" stroke="#00ACC1" d="M19,68.88c0.84,2.88,1.55,6.5,1.74,11.62"/>
			<path id="kvg:s-s9" stroke="#795548" d="M26.25,67.88c0.48,1.27,2.19,5.47,2.4,9.62"/>
			<path id="kvg:s-s10" stroke="#546E7A" d="M33.96,66c0.86,2.53,1.79,4.75,2.58,8.5"/>
		</g>
	</g>
	<g id="kvg:099c6-g3">
		<g id="kvg:099c6-g4">
			<path id="kvg:s-s11" stroke="#E53935" d="M52.9,19.04c2.19,0.45,4.52,0.1,6.72-0.1c9.95-0.91,19.2-1.92,27.75-2.71c1.81-0.17,4.14-0.71,5.92-0.12"/>
		</g>
		<g id="kvg:099c6-g5">
			<g id="kvg:099c6-g6">
				<path id="kvg:s-s12" stroke="#FB8C00" d="M83.97,29.01c0.37,1.25,0.73,2.2,0.18,4.42c-4.53,18.2-10.78,34.32-22.73,46.94"/>
			</g>
			<path id="kvg:s-s13" stroke="#FDD835" d="M62.75,38.75c11.18,6.88,21.39,22.14,26.69,34.73"/>
		</g>
		<g id="kvg:099c6-g7">
			<path id="kvg:s-s14" stroke="#43A047" d="M54.89,19.82c0.95,0.95,1.25,2.18,1.25,3.67c0,14.24,0,59.62,0,62.9c0,3.06,0.55,4.23,3.61,3.77c9.55-1.43,24.34-2.55,34.11-2.57c2.3-0.01,4.24,0.17,5.65,0.67"/>
		</g>
	</g>
</g>
</g>
<g id="kvg:StrokeNumbers_099c6" style="font-size:18;font-weight:bold;stroke:#fff;stroke-width:1.5;paint-order:stroke">
	<text transform="matrix(1 0 0 1 11.25 27.13)" fill="#E53935">1</text>
	<text transform="matrix(1 0 0 1 18.75 14.50)" fill="#FB8C00">2</text>
	<text transform="matrix(1 0 0 1 25.50 24.50)" fill="#FDD835">3</text>
	<text transform="matrix(1 0 0 1 22.50 29.50)" fill="#43A047">4</text>
	<text transform="matrix(1 0 0 1 22.68 42.92)" fill="#1E88E5">5</text>
	<text transform="matrix(1 0 0 1 22.54 56.35)" fill="#8E24AA">6</text>
	<text transform="matrix(1 0 0 1 6.75 72.50)" fill="#EC407A">7</text>
	<text transform="matrix(1 0 0 1 13.50 69.80)" fill="#00ACC1">8</text>
	<text transform="matrix(1 0 0 1 20.25 67.67)" fill="#795548">9</text>
	<text transform="matrix(1 0 0 1 25.50 66.80)" fill="#546E7A">10</text>
	<text transform="matrix(1 0 0 1 54.75 15.13)" fill="#E53935">11</text>
	<text transform="matrix(1 0 0 1 72.50 28.63)" fill="#FB8C00">12</text>
	<text transform="matrix(1 0 0 1 61.50 36.13)" fill="#FDD835">13</text>
	<text transform="matrix(1 0 0 1 45.50 28.63)" fill="#43A047">14</text>
</g>
</svg>
