<?xml version="1.0" encoding="UTF-8"?>
<svg xmlns="http://www.w3.org/2000/svg" width="109" height="109" viewBox="0 0 109 109">
<g id="kvg:StrokePaths_09aa8" style="fill:none;stroke:#000000;stroke-width:3;stroke-linecap:round;stroke-linejoin:round;">
<g id="kvg:09aa8">
	<g id="kvg:09aa8-g1">
		<path id="kvg:s-s1" stroke="#E53935" d="M34.77,12.12c0.81,0.81,1.43,1.88,1.43,3.15c0,2.62-0.06,19.72-0.06,24.05"/>
		<path id="kvg:s-s2" stroke="#FB8C00" d="M36.97,13.97c3.71-0.42,24.17-2.89,30.16-3.35c3.24-0.25,4.6,0.68,4.58,3.5c-0.04,4.33-0.21,13.5-0.21,21.27"/>
		<path id="kvg:s-s3" stroke="#FDD835" d="M52.27,24.37c0.74,0.74,0.93,2,0.93,3.15c0,4.72-0.06,7.6-0.06,10.3"/>
		<path id="kvg:s-s4" stroke="#43A047" d="M53.97,24.97c3.9-0.72,14.39-1.96,16.78-2.22"/>
		<path id="kvg:s-s5" stroke="#1E88E5" d="M18.25,39c0,3.67-2.06,13.3-3,15.75"/>
		<path id="kvg:s-s6" stroke="#8E24AA" d="M18.74,42.74c23.38-3.11,46.51-5.36,65.7-6.15C96.5,36.09,87,44,84,46.11"/>
	</g>
	<g id="kvg:09aa8-g2">
		<path id="kvg:s-s7" stroke="#EC407A" d="M39.2,48.52c0.76,0.76,1.1,1.98,1.1,3.44c0,0.54-0.02,26.73-0.03,40.79c0,1.81,0,3.42-0.01,4.75"/>
		<path id="kvg:s-s8" stroke="#00ACC1" d="M41.15,49.75c4.48-0.63,17.85-2.38,23.21-2.98c2.04-0.23,3.66,0.97,3.66,3.48c0,2.75-0.15,26.68-0.15,41.5c0,9.51-4.39,3.29-6.22,1.65"/>
		<path id="kvg:s-s9" stroke="#795548" d="M41.4,62.84c7.5-1.1,18.1-2.09,25.59-2.54"/>
		<path id="kvg:s-s10" stroke="#546E7A" d="M41.45,76.29c5.85-0.55,18.66-1.69,25.43-2.06"/>
	</g>
</g>
</g>
<g id="kvg:StrokeNumbers_09aa8" style="font-size:18;fill:#E53935;font-weight:bold;stroke:#fff;stroke-width:1.5;paint-order:stroke">
	<text transform="matrix(1 0 0 1 28.50 20.50)" fill="#E53935">1</text>
	<text transform="matrix(1 0 0 1 38.25 10.50)" fill="#FB8C00">2</text>
	<text transform="matrix(1 0 0 1 45.50 31.55)" fill="#FDD835">3</text>
	<text transform="matrix(1 0 0 1 54.75 21.50)" fill="#43A047">4</text>
	<text transform="matrix(1 0 0 1 11.50 42.50)" fill="#1E88E5">5</text>
	<text transform="matrix(1 0 0 1 22.50 38.50)" fill="#8E24AA">6</text>
	<text transform="matrix(1 0 0 1 32.25 57.50)" fill="#EC407A">7</text>
	<text transform="matrix(1 0 0 1 42.75 46.50)" fill="#00ACC1">8</text>
	<text transform="matrix(1 0 0 1 44.25 59.50)" fill="#795548">9</text>
	<text transform="matrix(1 0 0 1 44.25 72.50)" fill="#546E7A">10</text>
</g>
</svg>
