<?xml version="1.0" encoding="UTF-8"?>
<svg xmlns="http://www.w3.org/2000/svg" width="109" height="109" viewBox="0 0 109 109">
<g id="kvg:StrokePaths_09ad8" style="fill:none;stroke:#000000;stroke-width:3;stroke-linecap:round;stroke-linejoin:round;">
<g id="kvg:09ad8">
	<g id="kvg:09ad8-g1">
		<g id="kvg:09ad8-g2">
			<path id="kvg:s-s1" stroke="#E53935" d="M52.47,11.75c1.08,1.08,1.48,2.25,1.48,4.22c0,1.53-0.12,4.28-0.12,5.45"/>
			<path id="kvg:s-s2" stroke="#FB8C00" d="M22.9,25.7c2.68,0.3,4.96,0.26,7.47-0.04c14.76-1.78,35.83-4.16,49.3-5.17c2.89-0.22,4.99-0.12,6.81,0.33"/>
		</g>
		<g id="kvg:09ad8-g3">
			<path id="kvg:s-s3" stroke="#FDD835" d="M36.25,34.75c1,0.63,1.5,1.5,1.78,2.89c0.72,3.59,1.36,7.37,2.05,11.85c0.2,1.3,0.17,1.82,0.44,3.01"/>
			<path id="kvg:s-s4" stroke="#43A047" d="M39.05,36.33c9.95-1.71,23.99-3.65,29.61-4.1c2.96-0.23,3.83,1.02,3.14,3.31c-0.88,2.93-2.17,7.01-3.32,10.2"/>
			<path id="kvg:s-s5" stroke="#1E88E5" d="M41.28,49.94c6.57-0.42,16.36-1.87,25.72-2.71c1.3-0.12,2.59-0.22,3.85-0.31"/>
		</g>
	</g>
	<g id="kvg:09ad8-g4">
		<g id="kvg:09ad8-g5">
			<path id="kvg:s-s6" stroke="#8E24AA" d="M21,60.25c1.31,1.31,1.9,2.76,2.21,5c0.79,5.62,2.21,18.19,3.16,26.99c0.15,1.39,0.28,2.67,0.38,3.76"/>
			<path id="kvg:s-s7" stroke="#EC407A" d="M24.06,64c16.08-1.51,58.63-6.55,60.19-6.75c3.75-0.5,6,1.5,5.25,6.25c-1.49,9.45-2.62,19.62-5.25,28.25c-2.05,6.75-5.38,2.5-7.8,0"/>
		</g>
		<g id="kvg:09ad8-g6">
			<path id="kvg:s-s8" stroke="#00ACC1" d="M41.5,71.68c0.66,0.66,1.16,1.63,1.31,2.47c0.89,2.82,1.58,7.24,2.39,11.81c0.21,1.16,0.4,1.78,0.56,2.79"/>
			<path id="kvg:s-s9" stroke="#795548" d="M44.02,73.08c6.79-1.36,17.1-2.86,20.92-3.35c1.81-0.23,3.31,1.02,3.13,2.5c-0.35,2.92-1.96,8.31-3.12,11.75"/>
			<path id="kvg:s-s10" stroke="#546E7A" d="M46.44,87.05c4.61-0.4,11.01-1.31,17.32-1.94c0.88-0.09,1.77-0.17,2.65-0.26"/>
		</g>
	</g>
</g>
</g>
<g id="kvg:StrokeNumbers_09ad8" style="font-size:18;fill:#E53935;font-weight:bold;stroke:#fff;stroke-width:1.5;paint-order:stroke">
	<text transform="matrix(1 0 0 1 44.25 10.63)" fill="#E53935">1</text>
	<text transform="matrix(1 0 0 1 14.25 25.50)" fill="#FB8C00">2</text>
	<text transform="matrix(1 0 0 1 27.75 37.63)" fill="#FDD835">3</text>
	<text transform="matrix(1 0 0 1 39.75 33.13)" fill="#43A047">4</text>
	<text transform="matrix(1 0 0 1 44.25 46.63)" fill="#1E88E5">5</text>
	<text transform="matrix(1 0 0 1 14.25 69.13)" fill="#8E24AA">6</text>
	<text transform="matrix(1 0 0 1 29.25 58.63)" fill="#EC407A">7</text>
	<text transform="matrix(1 0 0 1 35.25 79.63)" fill="#00ACC1">8</text>
	<text transform="matrix(1 0 0 1 44.25 70.63)" fill="#795548">9</text>
	<text transform="matrix(1 0 0 1 47.25 84.13)" fill="#546E7A">10</text>
</g>
</svg>
