<?xml version="1.0" encoding="UTF-8"?>
<svg xmlns="http://www.w3.org/2000/svg" width="109" height="109" viewBox="0 0 109 109">
<g id="kvg:StrokePaths_09ed9" style="fill:none;stroke:#000000;stroke-width:3;stroke-linecap:round;stroke-linejoin:round;">
<g id="kvg:09ed9">
	<g id="kvg:09ed9-g1">
		<g id="kvg:09ed9-g2">
			<g id="kvg:09ed9-g3">
				<g id="kvg:09ed9-g4">
					<path id="kvg:s-s1" stroke="#E53935" d="M15.41,16.21c0.75,0.75,1.27,2.09,1.46,3.04c1.12,5.62,2.08,11.64,2.94,18.49c0.15,1.2,0.28,2.38,0.38,3.51"/>
					<path id="kvg:s-s2" stroke="#FB8C00" d="M17.36,17.66c8.14-1.29,20.06-2.51,27.26-3.4c3.56-0.44,6.23,0.02,5.85,4.12c-0.33,3.52-1.13,9.49-2.17,14.92c-0.33,1.75-0.69,3.44-1.07,4.98"/>
					<path id="kvg:s-s3" stroke="#FDD835" d="M19.69,28.51C22.44,28.12,43,25.5,48.1,25.37"/>
					<path id="kvg:s-s4" stroke="#43A047" d="M21.34,39.35c7.04-0.97,16.4-1.87,24.79-2.56"/>
				</g>
				<path id="kvg:s-s5" stroke="#1E88E5" d="M32.99,18.2c0.94,0.94,1.01,2.06,1.01,3.43c0,9.62,0.05,36.97,0.05,40.36"/>
				<path id="kvg:s-s6" stroke="#8E24AA" d="M17.92,50.64c1.54,0.75,3.85,0.55,5.47,0.41c5.5-0.47,13.34-2.03,20.24-3.03c1.49-0.22,2.62-0.26,4.28-0.04"/>
				<path id="kvg:s-s7" stroke="#EC407A" d="M15.38,66.54c1.07,1.17,2.56,1.13,3.88,0.76c9.07-2.54,19.68-5.66,30.83-8.52"/>
			</g>
		</g>
		<g id="kvg:09ed9-g5">
			<g id="kvg:09ed9-g6">
				<path id="kvg:s-s8" stroke="#00ACC1" d="M56.15,34.58c1.53,0.8,4.79,0.87,6.47,0.65c6.29-0.83,14.77-2.1,20.99-2.83c1.54-0.18,2.86-0.4,4.38-0.04"/>
				<path id="kvg:s-s9" stroke="#795548" d="M69.65,13.5c0.6,0.78,1.02,1.56,1.05,3.12C71.12,35.62,66,58.62,49.32,68.75"/>
				<path id="kvg:s-s10" stroke="#546E7A" d="M70.75,35.62c4.38,7.75,11.51,17.78,17.66,24.73c1.17,1.32,2.88,3.53,5.52,5.4"/>
			</g>
			<g id="kvg:09ed9-g7">
				<path id="kvg:s-s11" stroke="#E53935" d="M79.93,16.35c2.7,1.9,5.5,5.25,6.83,8.04"/>
			</g>
		</g>
	</g>
	<g id="kvg:09ed9-g8">
		<g id="kvg:09ed9-g9">
			<path id="kvg:s-s12" stroke="#FB8C00" d="M20.44,80.75c-1.19,6-6.9,13-8.44,14.5"/>
			<path id="kvg:s-s13" stroke="#FDD835" d="M37.88,79.62c1.77,2.75,4.39,10.07,3.88,14.62"/>
			<path id="kvg:s-s14" stroke="#43A047" d="M60.75,78.75c2.75,2.56,6.75,9.98,6.75,14.5"/>
			<path id="kvg:s-s15" stroke="#1E88E5" d="M83.33,78.08c3.43,2.93,8.86,12.07,9.72,16.63"/>
		</g>
	</g>
</g>
</g>
<g id="kvg:StrokeNumbers_09ed9" style="font-size:18;font-weight:bold;stroke:#fff;stroke-width:1.5;paint-order:stroke">
	<text transform="matrix(1 0 0 1 11.00 25.38)" fill="#E53935">1</text>
	<text transform="matrix(1 0 0 1 20.00 14.25)" fill="#FB8C00">2</text>
	<text transform="matrix(1 0 0 1 23.00 25.25)" fill="#FDD835">3</text>
	<text transform="matrix(1 0 0 1 23.00 36.25)" fill="#43A047">4</text>
	<text transform="matrix(1 0 0 1 37.25 23.25)" fill="#1E88E5">5</text>
	<text transform="matrix(1 0 0 1 11.00 52.38)" fill="#8E24AA">6</text>
	<text transform="matrix(1 0 0 1 6.50 68.80)" fill="#EC407A">7</text>
	<text transform="matrix(1 0 0 1 55.25 32.25)" fill="#00ACC1">8</text>
	<text transform="matrix(1 0 0 1 61.25 14.25)" fill="#795548">9</text>
	<text transform="matrix(1 0 0 1 78.25 44.25)" fill="#546E7A">10</text>
	<text transform="matrix(1 0 0 1 76.25 13.38)" fill="#E53935">11</text>
	<text transform="matrix(1 0 0 1 11.25 80.25)" fill="#FB8C00">12</text>
	<text transform="matrix(1 0 0 1 28.25 81.25)" fill="#FDD835">13</text>
	<text transform="matrix(1 0 0 1 50.25 81.25)" fill="#43A047">14</text>
	<text transform="matrix(1 0 0 1 73.25 80.25)" fill="#1E88E5">15</text>
</g>
</svg>
